<?xml version="1.0" standalone="no"?>
<!DOCTYPE svg PUBLIC "-//W3C//DTD SVG 1.1//EN" "http://www.w3.org/Graphics/SVG/1.1/DTD/svg11.dtd" >
<svg xmlns="http://www.w3.org/2000/svg" xmlns:xlink="http://www.w3.org/1999/xlink" version="1.1">
<metadata>
Created by FontForge 20201107 at Thu May 10 15:26:59 2018
 By 
Copyright (c) 2018 Monotype Imaging Inc. All rights reserved.
</metadata>
<defs>
<font id="NeuePlakText-Light" horiz-adv-x="0" >
  <font-face 
    font-family="Neue Plak Text Light"
    font-weight="400"
    font-stretch="normal"
    units-per-em="1000"
    panose-1="2 11 4 4 3 2 2 2 2 4"
    ascent="771"
    descent="-229"
    x-height="482"
    cap-height="706"
    bbox="-697 -247 1052 1142"
    underline-thickness="50"
    underline-position="-150"
    unicode-range="U+000D-FEFF"
  />
<missing-glyph horiz-adv-x="640" 
d="M80 706h480v-706h-480v706zM494 59v588h-348v-588h348z" />
    <glyph glyph-name=".notdef" horiz-adv-x="640" 
d="M80 706h480v-706h-480v706zM494 59v588h-348v-588h348z" />
    <glyph glyph-name=".null" 
 />
    <glyph glyph-name="nonmarkingreturn" horiz-adv-x="333" 
 />
    <glyph glyph-name="NULL" 
 />
    <glyph glyph-name="NULL" 
 />
    <glyph glyph-name="CR" unicode="&#xd;" horiz-adv-x="181" 
 />
    <glyph glyph-name="space" unicode=" " horiz-adv-x="181" 
 />
    <glyph glyph-name="exclam" unicode="!" horiz-adv-x="261" 
d="M97 706h67l-7 -526h-53zM95 0q-13 13 -13 35t13 35.5t35 13.5q21 0 35 -14t14 -35t-14 -34.5t-35 -13.5q-22 0 -35 13z" />
    <glyph glyph-name="quotedbl" unicode="&#x22;" horiz-adv-x="378" 
d="M81 706h62l-5 -281h-51zM235 706h62l-5 -281h-51z" />
    <glyph glyph-name="numbersign" unicode="#" horiz-adv-x="644" 
d="M491 446l-30 -186h127l-11 -57h-125l-35 -218h-59l35 218h-191l-35 -218h-59l35 218h-123l11 57h121l30 186h-122l10 56h121l35 219h59l-35 -219h190l35 219h60l-35 -219h127l-10 -56h-126zM431 446h-190l-30 -186h191z" />
    <glyph glyph-name="dollar" unicode="$" horiz-adv-x="593" 
d="M523.5 84.5q-27.5 -44.5 -81 -71t-129.5 -28.5v-89h-44v90q-226 13 -226 248h69q0 -85 36.5 -135t121.5 -58v298q-72 19 -117 40.5t-70.5 58t-25.5 94.5q0 53 25 94.5t73 66.5t114 28v89h44v-90q108 -6 159 -70t51 -166h-65q0 79 -35.5 127t-111.5 55v-274l22 -6
q75 -20 120.5 -42.5t71.5 -60t26 -96.5q0 -58 -27.5 -102.5zM140 473q18 -26 49 -41t81 -29v264q-47 -2 -80.5 -19.5t-50.5 -45.5t-17 -62q0 -41 18 -67zM405.5 59.5q38.5 18.5 58 49.5t19.5 70q0 45 -21.5 73.5t-57.5 45t-93 31.5v-289q56 1 94.5 19.5z" />
    <glyph glyph-name="percent" unicode="%" horiz-adv-x="738" 
d="M79.5 450.5q-31.5 42.5 -31.5 109.5t31.5 109.5t101.5 42.5t101.5 -42.5t31.5 -109.5t-31.5 -109.5t-101.5 -42.5t-101.5 42.5zM582 706h58l-483 -706h-58zM248 481q18 29 18 79q0 52 -18 80.5t-67 28.5t-67 -29t-18 -80t18 -79.5t67 -28.5t67 29zM456.5 36
q-31.5 42 -31.5 109q0 68 31.5 110.5t101.5 42.5t101 -42.5t31 -110.5q0 -67 -31.5 -109t-100.5 -42q-70 0 -101.5 42zM624.5 66.5q17.5 28.5 17.5 78.5q0 52 -18 80.5t-66 28.5q-50 0 -67.5 -29t-17.5 -80t18 -79t67 -28t66.5 28.5z" />
    <glyph glyph-name="ampersand" unicode="&#x26;" horiz-adv-x="619" 
d="M589 0q-50 0 -86 14t-70 46q-36 -36 -82 -54.5t-106 -18.5q-66 0 -113 21.5t-71.5 60.5t-24.5 91q0 47 20 86t52.5 70t78.5 62q-38 57 -55 102.5t-17 87.5q0 74 45 113.5t131 39.5q80 0 124 -35t44 -98q0 -48 -26.5 -86.5t-62.5 -66t-103 -69.5l31 -41l135 -176
q21 32 39.5 71.5t43.5 100.5l51 -19q-25 -64 -48 -112t-49 -85q29 -29 56 -39t63 -10v-56zM190.5 497.5q14.5 -38.5 46.5 -86.5q56 35 87.5 59t53 53.5t21.5 65.5t-26.5 58.5t-79.5 22.5q-55 0 -86 -26t-31 -74q0 -34 14.5 -72.5zM332 57q35 15 64 44l-8 10l-144 188
q-4 5 -11 14t-15 21q-54 -39 -84 -78.5t-30 -89.5q0 -39 18 -66.5t52 -42.5t79 -15q44 0 79 15z" />
    <glyph glyph-name="quotesingle" unicode="'" horiz-adv-x="224" 
d="M81 706h62l-5 -281h-51z" />
    <glyph glyph-name="parenleft" unicode="(" horiz-adv-x="381" 
d="M164 38.5q-34 119.5 -34 265.5q0 145 34 263t103 239h62q-70 -115 -105.5 -237t-35.5 -265q0 -145 35.5 -267.5t105.5 -237.5h-62q-69 120 -103 239.5z" />
    <glyph glyph-name="parenright" unicode=")" horiz-adv-x="381" 
d="M52 -201q70 115 105.5 237.5t35.5 267.5q0 143 -35.5 265t-105.5 237h62q69 -121 103 -239t34 -263q0 -146 -34 -265.5t-103 -239.5h-62z" />
    <glyph glyph-name="asterisk" unicode="*" horiz-adv-x="353" 
d="M71 453l77 96l-119 32l15 46l115 -44l-6 123h47l-6 -123l115 44l16 -46l-120 -32l78 -96l-38 -29l-68 104l-69 -104z" />
    <glyph glyph-name="plus" unicode="+" horiz-adv-x="571" 
d="M518 254h-205v-206h-55v206h-205v53h205v208h55v-208h205v-53z" />
    <glyph glyph-name="comma" unicode="," horiz-adv-x="262" 
d="M121 156h61l-77 -325h-49z" />
    <glyph glyph-name="hyphen" unicode="-" horiz-adv-x="378" 
d="M53 310h272v-58h-272v58z" />
    <glyph glyph-name="period" unicode="." horiz-adv-x="261" 
d="M95 0q-13 13 -13 35t13 35.5t35 13.5q21 0 35 -14t14 -35t-14 -34.5t-35 -13.5q-22 0 -35 13z" />
    <glyph glyph-name="slash" unicode="/" horiz-adv-x="431" 
d="M330 721h64l-294 -771h-63z" />
    <glyph glyph-name="zero" unicode="0" horiz-adv-x="600" 
d="M105.5 87.5q-56.5 102.5 -56.5 265.5q0 164 57 266t194 102q139 0 195.5 -102.5t56.5 -265.5q0 -164 -57 -266t-195 -102t-194.5 102.5zM414.5 87.5q40.5 42.5 55 110t14.5 155.5q0 89 -15 156.5t-55.5 109.5t-113.5 42q-105 0 -144 -84.5t-39 -223.5q0 -89 15 -156.5
t55 -109.5t113 -42q74 0 114.5 42.5z" />
    <glyph glyph-name="one" unicode="1" horiz-adv-x="600" 
d="M298 646h-172l13 60h224v-706h-65v646z" />
    <glyph glyph-name="two" unicode="2" horiz-adv-x="600" 
d="M55 3l282 297q45 46 69.5 78.5t36 63t11.5 66.5q0 45 -17 79.5t-52 54.5t-88 20q-163 0 -163 -193h-64q0 116 55 184t173 68q75 0 125.5 -28t74.5 -76t24 -110q0 -41 -11 -74.5t-35 -68t-68 -79.5q-62 -64 -208 -212l-15 -15h343v-58h-473v3z" />
    <glyph glyph-name="three" unicode="3" horiz-adv-x="600" 
d="M542 193q0 -97 -59 -152.5t-178 -55.5q-132 0 -188.5 67.5t-56.5 194.5h63q0 -97 40 -150.5t139 -53.5q90 0 131.5 41.5t41.5 113.5q0 77 -50 113t-150 36h-19v52h19q91 0 138 34t47 100q0 62 -38.5 97.5t-114.5 35.5q-91 0 -131 -49t-40 -134h-64q0 112 58.5 175
t179.5 63q71 0 119 -23.5t72 -64.5t24 -95q0 -62 -31.5 -104t-99.5 -59q148 -32 148 -182z" />
    <glyph glyph-name="four" unicode="4" horiz-adv-x="600" 
d="M568 187h-102v-187h-64v187h-385v4l335 515h114v-463h102v-56zM402 243v435h-1l-283 -435h284z" />
    <glyph glyph-name="five" unicode="5" horiz-adv-x="600" 
d="M116 49.5q-56 64.5 -56 173.5h64q0 -82 40.5 -131.5t128.5 -49.5t131 47t43 125q0 89 -53 138t-163 49q-41 0 -84 -7t-80 -20l54 332h353l-12 -58h-289l-34 -207q53 15 110 15q88 0 147.5 -30.5t88 -85t28.5 -126.5q0 -68 -26 -119.5t-79.5 -80.5t-132.5 -29
q-123 0 -179 64.5z" />
    <glyph glyph-name="six" unicode="6" horiz-adv-x="600" 
d="M453.5 424q52.5 -31 79 -83.5t26.5 -117.5q0 -66 -28 -120.5t-83 -86t-132 -31.5q-97 0 -157 48.5t-86.5 130t-26.5 184.5q0 165 60 269t204 104q102 0 163 -54.5t74 -151.5h-64q-13 73 -56.5 111.5t-115.5 38.5q-112 0 -156.5 -86.5t-44.5 -221.5q0 -26 1 -39
q22 62 76.5 99.5t137.5 37.5q76 0 128.5 -31zM413.5 67q39.5 25 58.5 65.5t19 89.5q0 51 -19 91t-58.5 63t-97.5 23q-61 0 -101.5 -24.5t-60 -65t-19.5 -90.5q0 -48 20.5 -88.5t61.5 -64.5t98 -24q59 0 98.5 25z" />
    <glyph glyph-name="seven" unicode="7" horiz-adv-x="600" 
d="M457 646h-385v60h481l-315 -706h-72z" />
    <glyph glyph-name="eight" unicode="8" horiz-adv-x="600" 
d="M516 309.5q37 -49.5 37 -120.5q0 -62 -28 -108t-84.5 -71t-139.5 -25q-84 0 -141 26t-84.5 72t-27.5 106q0 69 38 119.5t114 67.5q-66 16 -100 60.5t-34 104.5q0 55 27.5 95.5t80.5 62.5t127 22q76 0 128.5 -22t79 -62.5t26.5 -95.5q0 -62 -33.5 -106t-98.5 -59
q76 -17 113 -66.5zM152.5 465q19.5 -31 57.5 -48t91 -17q54 0 92 17.5t57 49t19 71.5q0 60 -42.5 96t-125.5 36t-125.5 -35.5t-42.5 -96.5q0 -42 19.5 -73zM403 59q41 19 61.5 53t20.5 79q0 46 -20.5 81t-62 54.5t-101.5 19.5q-61 0 -102.5 -20t-62 -55t-20.5 -80
q0 -44 21 -78t62.5 -53.5t101.5 -19.5q61 0 102 19z" />
    <glyph glyph-name="nine" unicode="9" horiz-adv-x="600" 
d="M441 672.5q60 -48.5 86.5 -130t26.5 -184.5q0 -165 -60 -269t-204 -104q-102 0 -163 54.5t-74 151.5h64q13 -73 56.5 -111.5t115.5 -38.5q112 0 156.5 86.5t44.5 221.5q0 26 -1 39q-22 -62 -76.5 -99.5t-137.5 -37.5q-76 0 -128.5 31t-79 83.5t-26.5 117.5q0 66 28 120.5
t83 86t132 31.5q97 0 157 -48.5zM385.5 331.5q40.5 24.5 60 65t19.5 90.5q0 48 -20.5 88.5t-61.5 64.5t-98 24q-59 0 -98.5 -25t-58.5 -65.5t-19 -89.5q0 -51 19 -91t58.5 -63t97.5 -23q61 0 101.5 24.5z" />
    <glyph glyph-name="colon" unicode=":" horiz-adv-x="261" 
d="M95 0q-13 13 -13 35t13 35.5t35 13.5q21 0 35 -14t14 -35t-14 -34.5t-35 -13.5q-22 0 -35 13zM95 363q-13 13 -13 35t13 35.5t35 13.5q21 0 35 -14t14 -35t-14 -34.5t-35 -13.5q-22 0 -35 13z" />
    <glyph glyph-name="semicolon" unicode=";" horiz-adv-x="286" 
d="M121 156h61l-77 -325h-49zM120 363q-13 13 -13 35t13 35.5t35 13.5q21 0 35 -14t14 -35t-14 -34.5t-35 -13.5q-22 0 -35 13z" />
    <glyph glyph-name="less" unicode="&#x3c;" horiz-adv-x="571" 
d="M518 421l-415 -141l415 -141v-56l-464 161v73l464 160v-56z" />
    <glyph glyph-name="equal" unicode="=" horiz-adv-x="571" 
d="M53 405h465v-53h-465v53zM53 209h465v-53h-465v53z" />
    <glyph glyph-name="greater" unicode="&#x3e;" horiz-adv-x="571" 
d="M517 317v-73l-464 -161v56l415 141l-415 141v56z" />
    <glyph glyph-name="question" unicode="?" horiz-adv-x="479" 
d="M314.5 376.5q37.5 67.5 50 103t12.5 66.5q0 55 -31.5 88t-104.5 33q-56 0 -87.5 -19t-43 -52t-11.5 -83h-62q0 101 47.5 154.5t158.5 53.5q101 0 150.5 -47t49.5 -127q0 -34 -12.5 -71t-48 -102t-112.5 -194h-71q78 129 115.5 196.5zM198.5 0q-13.5 13 -13.5 35
t13.5 35.5t35.5 13.5q21 0 34.5 -13.5t13.5 -35.5q0 -21 -13.5 -34.5t-34.5 -13.5q-22 0 -35.5 13z" />
    <glyph glyph-name="at" unicode="@" horiz-adv-x="827" 
d="M620.5 628.5q79.5 -46.5 116.5 -126t37 -179.5q0 -115 -49.5 -186t-165.5 -71h-36v60q-21 -34 -58.5 -51.5t-89.5 -17.5q-70 0 -104.5 34t-34.5 90q0 64 46 97t148 33h92v8q0 47 -7.5 74t-31 41.5t-70.5 14.5q-58 0 -82.5 -23t-24.5 -69h-55q0 138 163 138
q68 0 103 -21.5t47 -60t12 -100.5v-207q84 3 118.5 63t34.5 152q0 93 -32.5 163.5t-102 111t-177.5 40.5q-113 0 -184 -46t-102.5 -124.5t-31.5 -179.5q0 -105 34.5 -185t109.5 -126.5t192 -46.5q41 0 78 5v-41q-37 -5 -78 -5q-132 0 -217.5 53t-125 142.5t-39.5 202.5
q0 110 37 197.5t119 140t210 52.5q122 0 201.5 -46.5zM522 271h-89q-52 0 -82.5 -9t-43.5 -28t-13 -49q0 -40 23.5 -61t76.5 -21t81 20t37.5 54t9.5 85v9z" />
    <glyph glyph-name="A" unicode="A" horiz-adv-x="605" 
d="M463 192h-320l-66 -192h-68l244 706h99l244 -706h-68zM444 247l-140 410h-2l-140 -410h282z" />
    <glyph glyph-name="B" unicode="B" horiz-adv-x="589" 
d="M507.5 306q33.5 -44 33.5 -114q0 -95 -59.5 -143.5t-179.5 -48.5h-207v706h207q71 0 119.5 -22t72.5 -61.5t24 -93.5q0 -60 -28.5 -102.5t-88.5 -59.5q73 -17 106.5 -61zM161 390h128q81 0 120.5 36t39.5 98q0 63 -41 96t-124 33h-123v-263zM427 88q44 35 44 106
q0 73 -44 107.5t-136 34.5h-130v-283h123q99 0 143 35z" />
    <glyph glyph-name="C" unicode="C" horiz-adv-x="692" 
d="M180.5 34.5q-68.5 49.5 -98 132t-29.5 186.5q0 103 30 185.5t98.5 132.5t178.5 50q82 0 144.5 -30.5t98.5 -88.5t39 -136h-65q-3 63 -30.5 107t-76 67t-113.5 23q-128 0 -181.5 -85t-53.5 -225q0 -310 236 -310q67 0 115.5 23.5t76 69t30.5 110.5h64q-1 -82 -36.5 -141
t-99 -89.5t-148.5 -30.5q-111 0 -179.5 49.5z" />
    <glyph glyph-name="D" unicode="D" horiz-adv-x="679" 
d="M95 706h213q171 0 244.5 -95.5t73.5 -257.5q0 -353 -318 -353h-213v706zM301 57q98 0 154.5 37.5t79 102.5t22.5 156q0 92 -23 157t-79.5 102t-153.5 37h-140v-592h140z" />
    <glyph glyph-name="E" unicode="E" horiz-adv-x="534" 
d="M95 706h389v-57h-323v-259h320v-58h-320v-275h323v-57h-389v706z" />
    <glyph glyph-name="F" unicode="F" horiz-adv-x="521" 
d="M95 706h383v-57h-317v-259h315v-58h-315v-332h-66v706z" />
    <glyph glyph-name="G" unicode="G" horiz-adv-x="700" 
d="M648 363v-47q0 -150 -68 -240.5t-220 -90.5q-109 0 -177.5 49t-99 131.5t-30.5 187.5q0 108 31.5 190t100.5 130t179 48q83 0 143.5 -29.5t95 -85t38.5 -133.5h-63q-7 95 -62 142.5t-153 47.5q-133 0 -187 -85t-54 -225q0 -310 240 -310q120 0 170.5 69t50.5 186v7h-199
v58h264z" />
    <glyph glyph-name="H" unicode="H" horiz-adv-x="670" 
d="M95 706h66v-316h348v316h66v-706h-66v332h-348v-332h-66v706z" />
    <glyph glyph-name="I" unicode="I" horiz-adv-x="256" 
d="M95 706h66v-706h-66v706z" />
    <glyph glyph-name="J" unicode="J" horiz-adv-x="350" 
d="M24 2v61q28 -5 53 -5q48 0 76.5 15t42 48t13.5 88v497h65v-507q0 -70 -19.5 -114.5t-60.5 -66t-107 -21.5q-28 0 -63 5z" />
    <glyph glyph-name="K" unicode="K" horiz-adv-x="556" 
d="M466 0l-305 361v-361h-66v706h66v-301l267 301h77l-284 -320l326 -386h-81z" />
    <glyph glyph-name="L" unicode="L" horiz-adv-x="475" 
d="M95 706h66v-647h289v-59h-355v706z" />
    <glyph glyph-name="M" unicode="M" horiz-adv-x="838" 
d="M95 706h84l240 -597l241 597h83v-706h-63v606l-242 -606h-36l-244 606v-606h-63v706z" />
    <glyph glyph-name="N" unicode="N" horiz-adv-x="697" 
d="M95 706h71l373 -607v607h63v-706h-71l-372 607v-607h-64v706z" />
    <glyph glyph-name="O" unicode="O" horiz-adv-x="720" 
d="M180.5 35.5q-68.5 50.5 -98 132.5t-29.5 185q0 104 30 186t98.5 132t178.5 50q111 0 179.5 -49.5t98.5 -131.5t30 -187t-30.5 -187.5t-99 -131.5t-178.5 -49q-111 0 -179.5 50.5zM545 129q54 86 54 224q0 139 -54.5 224.5t-184.5 85.5t-184 -85.5t-54 -224.5t54 -224.5
t184 -85.5q131 0 185 86z" />
    <glyph glyph-name="P" unicode="P" horiz-adv-x="559" 
d="M95 706h217q113 0 168 -49t55 -139q0 -91 -56 -140t-167 -49h-151v-329h-66v706zM301 385q85 0 125 33t40 100q0 66 -40 99t-125 33h-140v-265h140z" />
    <glyph glyph-name="Q" unicode="Q" horiz-adv-x="720" 
d="M624.5 135q-43.5 -92 -137.5 -128l85 -133l-51 -32l-92 149q-31 -6 -69 -6q-111 0 -179.5 50.5t-98 132.5t-29.5 185q0 104 30 186t98.5 132t178.5 50q111 0 179.5 -49.5t98.5 -131.5t30 -187q0 -126 -43.5 -218zM599 353q0 139 -54.5 224.5t-184.5 85.5t-184 -85.5
t-54 -224.5t54 -224.5t184 -85.5q13 0 35 2l-55 89l46 29l67 -105q146 54 146 295z" />
    <glyph glyph-name="R" unicode="R" horiz-adv-x="606" 
d="M273 330h-112v-330h-66v706h230q118 0 172.5 -49.5t54.5 -136.5q0 -181 -203 -189l243 -331h-77zM161 384h153q90 0 129.5 33.5t39.5 100.5t-40 100t-129 33h-153v-267z" />
    <glyph glyph-name="S" unicode="S" horiz-adv-x="586" 
d="M98.5 52.5q-59.5 67.5 -59.5 181.5h70q0 -92 42.5 -142.5t144.5 -50.5q59 0 99.5 18t61 50t20.5 74q0 48 -26 76.5t-67 44t-116 34.5q-71 18 -116.5 40.5t-71.5 59t-26 93.5q0 53 26 96t78 68.5t125 25.5q121 0 177.5 -65t56.5 -172h-68q0 181 -167 181q-52 0 -88 -17
t-54 -46t-18 -66q0 -46 24.5 -72.5t61 -39.5t119.5 -35q78 -22 124 -44.5t71 -60t25 -96.5q0 -61 -28.5 -106.5t-85.5 -71t-138 -25.5q-137 0 -196.5 67.5z" />
    <glyph glyph-name="T" unicode="T" horiz-adv-x="553" 
d="M244 649h-220v57h504v-57h-219v-649h-65v649z" />
    <glyph glyph-name="U" unicode="U" horiz-adv-x="626" 
d="M134 41q-58 56 -58 171v494h66v-491q0 -89 40.5 -130.5t130.5 -41.5q91 0 131.5 41.5t40.5 130.5v491h65v-494q0 -115 -57.5 -171t-179.5 -56q-121 0 -179 56z" />
    <glyph glyph-name="V" unicode="V" horiz-adv-x="598" 
d="M589 706l-256 -706h-67l-257 706h70l220 -625l222 625h68z" />
    <glyph glyph-name="W" unicode="W" horiz-adv-x="879" 
d="M869 706l-195 -706h-71l-163 617l-164 -617h-70l-197 706h66l167 -613l162 613h72l162 -610l168 610h63z" />
    <glyph glyph-name="X" unicode="X" horiz-adv-x="634" 
d="M276 375l-236 331h77l200 -282l201 282h77l-237 -332l266 -374h-77l-230 323l-230 -323h-78z" />
    <glyph glyph-name="Y" unicode="Y" horiz-adv-x="546" 
d="M241 305l-232 401h74l191 -336l190 336h72l-230 -401v-305h-65v305z" />
    <glyph glyph-name="Z" unicode="Z" horiz-adv-x="556" 
d="M412 648h-372v58h478l-387 -648h399v-58h-507z" />
    <glyph glyph-name="bracketleft" unicode="[" horiz-adv-x="372" 
d="M163 806h186v-51h-131v-906h131v-50h-186v1007z" />
    <glyph glyph-name="backslash" unicode="\" horiz-adv-x="431" 
d="M331 -50l-294 771h64l293 -771h-63z" />
    <glyph glyph-name="bracketright" unicode="]" horiz-adv-x="372" 
d="M23 -201v50h131v906h-131v51h186v-1007h-186z" />
    <glyph glyph-name="asciicircum" unicode="^" horiz-adv-x="423" 
d="M329 374l-117 286l-118 -286h-63l139 332h84l138 -332h-63z" />
    <glyph glyph-name="underscore" unicode="_" horiz-adv-x="384" 
d="M0 -100h384v-56h-384v56z" />
    <glyph glyph-name="grave" unicode="`" horiz-adv-x="262" 
d="M150 573l-100 153h67l95 -153h-62z" />
    <glyph glyph-name="a" unicode="a" horiz-adv-x="525" 
d="M405.5 441q43.5 -53 43.5 -152v-289h-61v76q-24 -43 -68 -65t-106 -22q-83 0 -127 39t-44 105q0 78 58.5 112t169.5 34h117v18q0 48 -12 79.5t-41 48t-80 16.5q-67 0 -99 -27.5t-32 -79.5h-63q0 75 49.5 117.5t144.5 42.5q107 0 150.5 -53zM352 90.5q36 49.5 36 136.5v4
h-112q-82 0 -125 -21.5t-43 -71.5q0 -45 30.5 -71t89.5 -26q88 0 124 49.5z" />
    <glyph glyph-name="b" unicode="b" horiz-adv-x="561" 
d="M426.5 459q46.5 -35 68.5 -92t22 -125q0 -70 -22 -127t-69 -91t-117 -34q-56 0 -99.5 23.5t-69.5 70.5v-84h-60v706h61v-306q26 47 69 70.5t99 23.5q71 0 117.5 -35zM385.5 71.5q35.5 26.5 51.5 71t16 99.5q0 54 -16 98.5t-51.5 71t-90.5 26.5q-47 0 -82 -22t-54 -63
t-19 -98v-26q0 -58 19 -99.5t53.5 -63t82.5 -21.5q55 0 90.5 26.5z" />
    <glyph glyph-name="c" unicode="c" horiz-adv-x="512" 
d="M140.5 24q-49.5 34 -73 90.5t-23.5 127.5q0 70 24 127t74 91t124 34q58 0 103 -22t71 -64t28 -99h-66q-3 60 -39.5 94.5t-96.5 34.5q-55 0 -90.5 -26.5t-51 -71t-15.5 -98.5q0 -87 38 -142t119 -55q41 0 71 15.5t46.5 43.5t17.5 65h66q-1 -55 -27 -95.5t-71 -62
t-103 -21.5q-76 0 -125.5 34z" />
    <glyph glyph-name="d" unicode="d" horiz-adv-x="561" 
d="M481 706v-706h-60v84q-26 -47 -69.5 -70.5t-99.5 -23.5q-70 0 -116.5 34t-69 91t-22.5 127q0 68 22 125t68.5 92t117.5 35q56 0 99.5 -24.5t69.5 -71.5v308h60zM349 66.5q35 21.5 53.5 63t18.5 99.5v26q0 57 -18.5 98t-53.5 63t-83 22q-55 0 -90.5 -26.5t-51.5 -71
t-16 -98.5q0 -55 16 -99.5t51.5 -71t90.5 -26.5q48 0 83 21.5z" />
    <glyph glyph-name="e" unicode="e" horiz-adv-x="536" 
d="M375 71q38 28 49 80h63q-8 -52 -37 -88t-74.5 -54.5t-101.5 -18.5q-78 0 -129.5 33.5t-76 90t-24.5 128.5q0 71 24.5 128t75.5 90.5t127 33.5q72 0 121.5 -31t74.5 -86q13 -30 18.5 -64t6.5 -81h-385q2 -87 41.5 -138t125.5 -51q63 0 101 28zM156 397.5
q-39 -42.5 -47 -115.5h318q-12 158 -156 158q-76 0 -115 -42.5z" />
    <glyph glyph-name="f" unicode="f" horiz-adv-x="322" 
d="M103 430h-80v52h80v89q0 73 35 108.5t109 35.5q27 0 52 -5v-54q-22 5 -45 5q-90 0 -90 -94v-85h133v-52h-133v-430h-61v430z" />
    <glyph glyph-name="g" unicode="g" horiz-adv-x="560" 
d="M480 482v-479q0 -101 -50.5 -158t-161.5 -57q-95 0 -151 42t-60 123h64q1 -55 40.5 -84t105.5 -29q153 0 153 154v86q-26 -44 -69 -66.5t-100 -22.5q-71 0 -117.5 34.5t-68 91.5t-21.5 126t22 125.5t68.5 91t116.5 34.5q56 0 99.5 -23t69.5 -67v78h60zM379 94
q41 48 41 135v27q0 57 -18.5 98t-53.5 62.5t-82 21.5q-55 0 -90.5 -26.5t-51.5 -71t-16 -98.5q0 -55 16 -99t51.5 -70.5t90.5 -26.5q72 0 113 48z" />
    <glyph glyph-name="h" unicode="h" horiz-adv-x="548" 
d="M472 292v-292h-61v281q0 81 -31 119t-97 38q-68 0 -105 -39.5t-37 -114.5v-284h-61v706h61v-293q24 41 64 61t93 20q174 0 174 -202z" />
    <glyph glyph-name="i" unicode="i" horiz-adv-x="220" 
d="M77 615q-13 13 -13 33t13 33.5t34 13.5q20 0 33.5 -13.5t13.5 -33.5t-13.5 -33t-33.5 -13q-21 0 -34 13zM80 482h61v-482h-61v482z" />
    <glyph glyph-name="j" unicode="j" horiz-adv-x="220" 
d="M76 615q-13 13 -13 33t13 33.5t34 13.5q20 0 33.5 -13.5t13.5 -33.5t-13.5 -33t-33.5 -13q-21 0 -34 13zM-22 -201v55q14 -2 33 -2q37 0 53 17t16 58v555h61v-559q0 -67 -29 -97t-93 -30q-19 0 -41 3z" />
    <glyph glyph-name="k" unicode="k" horiz-adv-x="443" 
d="M366 0l-225 251v-251h-61v706h61v-416l200 192h79l-222 -212l247 -270h-79z" />
    <glyph glyph-name="l" unicode="l" horiz-adv-x="220" 
d="M80 706h61v-706h-61v706z" />
    <glyph glyph-name="m" unicode="m" horiz-adv-x="850" 
d="M774 290v-290h-62v281q0 81 -29 119t-91 38q-65 0 -99.5 -40t-34.5 -115v-283h-62v281q0 81 -29 119t-91 38q-65 0 -100 -40t-35 -115v-283h-61v482h61v-67q23 39 61.5 59t89.5 20q119 0 152 -101q22 51 63.5 76t99.5 25q167 0 167 -204z" />
    <glyph glyph-name="n" unicode="n" horiz-adv-x="548" 
d="M472 292v-292h-61v281q0 81 -31 119t-97 38q-68 0 -105 -39.5t-37 -114.5v-284h-61v482h61v-69q24 41 64 61t93 20q174 0 174 -202z" />
    <glyph glyph-name="o" unicode="o" horiz-adv-x="534" 
d="M141 24q-50 35 -73.5 91.5t-23.5 124.5q0 69 24 126.5t74 92.5t125 35q77 0 127 -35.5t73 -93t23 -125.5t-23.5 -124.5t-73.5 -91.5t-126 -35t-126 35zM389 100q37 56 37 140q0 88 -38 143t-121 55q-84 0 -121.5 -56.5t-37.5 -141.5q0 -86 38 -141t121 -55q85 0 122 56z
" />
    <glyph glyph-name="p" unicode="p" horiz-adv-x="561" 
d="M426.5 459q46.5 -35 68.5 -92t22 -125q0 -70 -22 -127t-69 -91t-117 -34q-56 0 -99 22t-69 66v-279h-61v683h60v-79q26 45 69.5 68t99.5 23q71 0 117.5 -35zM385.5 72q35.5 27 51.5 71t16 99q0 54 -16 98.5t-51.5 71t-90.5 26.5q-47 0 -82 -22t-54 -63.5t-19 -98.5v-25
q0 -58 19 -99.5t54 -63t82 -21.5q55 0 90.5 27z" />
    <glyph glyph-name="q" unicode="q" horiz-adv-x="561" 
d="M481 482v-683h-60v281q-26 -44 -69.5 -67t-99.5 -23q-70 0 -116.5 34t-69 91t-22.5 127q0 68 22 125t68.5 92t117.5 35q56 0 99.5 -23t69.5 -68v79h60zM349 66.5q35 21.5 53.5 63t18.5 99.5v25q0 57 -18.5 98.5t-53.5 63.5t-83 22q-55 0 -90.5 -26.5t-51.5 -71t-16 -98.5
q0 -55 16 -99t51.5 -71t90.5 -27q48 0 83 21.5z" />
    <glyph glyph-name="r" unicode="r" horiz-adv-x="327" 
d="M312 482v-56q-20 5 -45 5q-62 0 -94 -38.5t-32 -107.5v-285h-61v482h60v-67q18 35 49.5 54t77.5 19q24 0 45 -6z" />
    <glyph glyph-name="s" unicode="s" horiz-adv-x="456" 
d="M86 35.5q-44 46.5 -44 125.5h60q0 -56 30 -88.5t97 -32.5q61 0 91 23.5t30 65.5q0 31 -17 49t-42 26.5t-73 20.5q-51 12 -85 27.5t-53.5 41.5t-19.5 67q0 39 18 69t55 47t91 17q86 0 128 -41.5t42 -113.5h-60q0 49 -27 77.5t-84 28.5q-52 0 -77 -21.5t-25 -57.5
q0 -29 18 -45.5t40.5 -24t75.5 -20.5q53 -14 87 -30.5t53.5 -43.5t19.5 -69q0 -68 -48.5 -106t-137.5 -38q-99 0 -143 46.5z" />
    <glyph glyph-name="t" unicode="t" horiz-adv-x="350" 
d="M135 28q-32 35 -32 110v292h-80v52h80v118h61v-118h149v-52h-149v-286q0 -50 21.5 -73.5t64.5 -23.5q30 0 60 8v-53q-40 -9 -74 -9q-69 0 -101 35z" />
    <glyph glyph-name="u" unicode="u" horiz-adv-x="548" 
d="M468 482v-482h-61v70q-46 -81 -157 -81q-174 0 -174 202v291h61v-281q0 -81 31 -118.5t97 -37.5q68 0 105 39.5t37 114.5v283h61z" />
    <glyph glyph-name="v" unicode="v" horiz-adv-x="478" 
d="M19 482h67l153 -410l154 410h66l-185 -482h-70z" />
    <glyph glyph-name="w" unicode="w" horiz-adv-x="724" 
d="M705 482l-165 -482h-62l-116 399l-115 -399h-62l-166 482h66l129 -402l119 402h59l117 -403l130 403h66z" />
    <glyph glyph-name="x" unicode="x" horiz-adv-x="499" 
d="M211 246l-183 236h75l147 -194l146 194h74l-182 -236l186 -246h-74l-150 204l-152 -204h-73z" />
    <glyph glyph-name="y" unicode="y" horiz-adv-x="493" 
d="M474 482l-291 -683h-63l86 203l-187 480h68l153 -410l167 410h67z" />
    <glyph glyph-name="z" unicode="z" horiz-adv-x="450" 
d="M129 53h293v-53h-399l296 430h-271v52h374z" />
    <glyph glyph-name="braceleft" unicode="{" horiz-adv-x="338" 
d="M188.5 355.5q-6.5 -23.5 -22.5 -36.5t-46 -17q30 -4 46 -16.5t22.5 -36t6.5 -64.5v-249q0 -44 21 -66.5t72 -22.5h27v-48h-46q-63 0 -95 34t-32 91v251q1 40 -6.5 60.5t-28 29.5t-62.5 9v55q43 0 63.5 9.5t27.5 30t6 61.5v249q0 58 32 92.5t95 34.5h46v-49h-27
q-51 0 -72 -22.5t-21 -66.5v-248q0 -41 -6.5 -64.5z" />
    <glyph glyph-name="bar" unicode="|" horiz-adv-x="406" 
d="M172 756h62v-957h-62v957z" />
    <glyph glyph-name="braceright" unicode="}" horiz-adv-x="338" 
d="M202 368.5q7 -20.5 28 -30t64 -9.5v-55q-43 0 -63.5 -9t-28 -29.5t-6.5 -60.5v-251q0 -57 -32 -91t-95 -34h-46v48h27q51 0 72 22.5t21 66.5v249q0 40 6.5 64t22.5 36.5t46 16.5q-30 4 -46 17t-22.5 37t-6.5 64v248q0 44 -21 66.5t-72 22.5h-27v49h46q63 0 95 -34.5
t32 -92.5v-249q-1 -41 6 -61.5z" />
    <glyph glyph-name="asciitilde" unicode="~" horiz-adv-x="571" 
d="M326 207q-26 18 -54 51q-24 30 -41.5 43.5t-42.5 13.5q-36 0 -52.5 -32t-23.5 -91h-50q6 86 35 132.5t88 46.5q25 0 45.5 -9.5t35 -23t33.5 -35.5q25 -31 42.5 -45t42.5 -14q36 0 52.5 32t22.5 90h51q-13 -177 -122 -177q-36 0 -62 18z" />
    <glyph glyph-name="uni00A0" unicode="&#xa0;" horiz-adv-x="181" 
 />
    <glyph glyph-name="exclamdown" unicode="&#xa1;" horiz-adv-x="261" 
d="M165 504.5q14 -13.5 14 -34.5t-14 -35t-35 -14q-22 0 -35 13.5t-13 35.5t13 35t35 13q21 0 35 -13.5zM157 325l7 -526h-67l7 526h53z" />
    <glyph glyph-name="cent" unicode="&#xa2;" horiz-adv-x="512" 
d="M369.5 195.5q31.5 34.5 33.5 86.5h64q-1 -54 -25.5 -93t-65.5 -61t-93 -25v-103h-44v103q-66 6 -110 41t-64.5 89.5t-20.5 120.5q0 67 21 121.5t64.5 89.5t109.5 41v100h44v-100q55 -3 96 -26t64.5 -63.5t24.5 -93.5h-65q-3 56 -34.5 90.5t-85.5 38.5v-395
q55 4 86.5 38.5zM140 221.5q32 -54.5 100 -63.5v393q-69 -9 -100.5 -64t-31.5 -133t32 -132.5z" />
    <glyph glyph-name="sterling" unicode="&#xa3;" horiz-adv-x="600" 
d="M553 250q-2 -86 -23 -140t-72.5 -82t-142.5 -28h-273v53h80v276h-80v46h80v81q0 87 19.5 144.5t67.5 89t133 31.5q80 0 126 -30.5t64 -85t19 -135.5h-61q-1 65 -13 107t-44 65.5t-91 23.5q-62 0 -96 -25t-46.5 -70t-12.5 -113v-83h205v-46h-205v-276h116q74 0 115.5 22
t57.5 64.5t16 110.5h61z" />
    <glyph glyph-name="currency" unicode="&#xa4;" horiz-adv-x="535" 
d="M462.5 271q-14.5 -39 -41.5 -67l84 -98h-64l-59 67q-49 -30 -115 -30q-65 0 -115 29l-58 -66h-64l83 96q-28 29 -42 68t-14 83t14.5 83t41.5 68l-83 97h64l58 -66q50 29 115 29q67 0 116 -30l58 67h64l-84 -98q27 -29 41.5 -68t14.5 -82t-14.5 -82zM130 271.5
q18 -36.5 53 -57.5t84 -21q50 0 84.5 21.5t52 58t17.5 80.5q0 45 -17.5 81.5t-52.5 58t-84 21.5q-51 0 -86 -22.5t-52 -59t-17 -79.5q0 -45 18 -81.5z" />
    <glyph glyph-name="yen" unicode="&#xa5;" horiz-adv-x="536" 
d="M306 341h181v-44h-185v-86h185v-45h-185v-166h-66v166h-186v45h186v86h-186v44h182l-228 365h73l194 -314l192 314h70z" />
    <glyph glyph-name="brokenbar" unicode="&#xa6;" horiz-adv-x="406" 
d="M172 756h62v-328h-62v328zM172 128h62v-329h-62v329z" />
    <glyph glyph-name="section" unicode="&#xa7;" horiz-adv-x="478" 
d="M355.5 67q29.5 -19 47.5 -49.5t18 -75.5q0 -74 -46 -114t-136 -40q-93 0 -137 43.5t-44 123.5h61q0 -58 28.5 -88t92.5 -30q61 0 89.5 26t28.5 76q0 38 -16.5 62t-43 38.5t-76.5 33.5q-59 23 -94.5 44.5t-56 54.5t-20.5 82q0 66 41 107t119 47q-48 21 -79.5 40.5
t-51.5 50.5t-20 76q0 69 46 107.5t131 38.5q90 0 135.5 -42.5t45.5 -116.5h-60q0 54 -30.5 82.5t-92.5 28.5q-59 0 -87 -25.5t-28 -69.5q0 -36 18 -59t43.5 -36.5t78.5 -35.5q60 -26 95 -48t54 -54.5t19 -81.5q0 -67 -39 -108.5t-108 -50.5q45 -18 74.5 -37zM141.5 340.5
q-33.5 -29.5 -33.5 -81.5q0 -34 15.5 -60.5t45 -41t72.5 -14.5q62 0 95 31t33 84q0 54 -33 83t-96 29q-65 0 -98.5 -29.5z" />
    <glyph glyph-name="dieresis" unicode="&#xa8;" horiz-adv-x="375" 
d="M63 605.5q-13 12.5 -13 32.5t13 33.5t34 13.5q19 0 32.5 -13.5t13.5 -33.5q0 -19 -13.5 -32t-32.5 -13q-21 0 -34 12.5zM246 605.5q-13 12.5 -13 32.5t13 33.5t33 13.5t33 -13.5t13 -33.5q0 -19 -13 -32t-33 -13t-33 12.5z" />
    <glyph glyph-name="copyright" unicode="&#xa9;" horiz-adv-x="813" 
d="M220 31.5q-80 46.5 -123.5 130t-43.5 191.5q0 109 44 192.5t124.5 129.5t186.5 46t186 -46.5t123.5 -130.5t43.5 -192q0 -109 -44 -192t-124 -129t-186 -46q-107 0 -187 46.5zM571.5 68.5q69.5 40.5 107 114.5t37.5 171t-37.5 170.5t-107 113.5t-163.5 40
q-95 0 -165 -40.5t-108 -114t-38 -170.5t38 -170.5t108.5 -114t164.5 -40.5t163.5 40.5zM296.5 136.5q-46.5 28.5 -72.5 82.5q-23 52 -23 135q0 82 23 136q25 53 72 81.5t112 28.5q84 0 137 -48t55 -133h-55q-3 62 -37 96q-37 36 -102 36q-47 0 -80.5 -20.5t-50.5 -59.5
q-10 -23 -14.5 -50t-4.5 -66q0 -38 5 -66t15 -50q17 -40 50.5 -60t80.5 -20q68 0 103 38q18 19 26.5 41t10.5 52h55q-2 -87 -54 -134q-54 -48 -140 -48q-65 0 -111.5 28.5z" />
    <glyph glyph-name="ordfeminine" unicode="&#xaa;" horiz-adv-x="374" 
d="M289.5 678.5q31.5 -36.5 31.5 -107.5v-202h-52v46q-18 -26 -49 -40t-70 -14q-59 0 -89.5 28t-30.5 77q0 55 41.5 80.5t120.5 25.5h77v7q0 50 -20 73t-70 23q-44 0 -63 -18t-19 -53h-52q0 111 136 111q77 0 108.5 -36.5zM229 419q23 15 31.5 41.5t8.5 66.5v7h-73
q-56 0 -83 -15t-27 -51q0 -64 79 -64q41 0 64 15z" />
    <glyph glyph-name="guillemotleft" unicode="&#xab;" horiz-adv-x="452" 
d="M22 278l153 159h71l-152 -159l152 -160h-71zM206 278l153 159h71l-152 -159l152 -160h-71z" />
    <glyph glyph-name="logicalnot" unicode="&#xac;" horiz-adv-x="571" 
d="M463 369h-410v52h464v-374h-54v322z" />
    <glyph glyph-name="uni00AD" unicode="&#xad;" horiz-adv-x="378" 
d="M53 310h272v-58h-272v58z" />
    <glyph glyph-name="registered" unicode="&#xae;" horiz-adv-x="493" 
d="M359.5 692.5q45.5 -27.5 67.5 -75t22 -105.5q0 -59 -22.5 -106t-68 -74.5t-111.5 -27.5q-67 0 -112.5 28t-68 75t-22.5 105q0 59 22.5 106t68.5 74.5t112 27.5q67 0 112.5 -27.5zM343.5 357q38.5 23 56.5 63t18 92q0 82 -42.5 130t-128.5 48q-59 0 -97.5 -24t-56.5 -64
t-18 -90q0 -51 19 -91t57.5 -63.5t95.5 -23.5q58 0 96.5 23zM340.5 527q-10.5 -15 -31.5 -22q19 -7 27.5 -22t8.5 -37v-64h-37v61q0 25 -12 35t-43 10h-61v-106h-39v259h103q49 0 72 -18t23 -55q0 -26 -10.5 -41zM297 531.5q15 11.5 15 34.5q0 22 -14.5 32t-46.5 10h-59v-88
h58q32 0 47 11.5z" />
    <glyph glyph-name="macron" unicode="&#xaf;" horiz-adv-x="375" 
d="M50 661h275v-47h-275v47z" />
    <glyph glyph-name="degree" unicode="&#xb0;" horiz-adv-x="296" 
d="M81.5 490.5q-28.5 15.5 -44.5 43t-16 63.5q0 37 16 65t44.5 43.5t66.5 15.5t67.5 -15.5t45.5 -43.5t16 -65q0 -36 -16 -63.5t-45.5 -43t-67.5 -15.5t-66.5 15.5zM204 543q21 21 21 54q0 36 -21 57.5t-55 21.5t-54.5 -21.5t-20.5 -57.5q0 -33 20.5 -54t54.5 -21t55 21z
" />
    <glyph glyph-name="plusminus" unicode="&#xb1;" horiz-adv-x="571" 
d="M258 306h-205v53h205v176h55v-176h204v-53h-204v-180h-55v180zM518 80v-53h-465v53h465z" />
    <glyph glyph-name="twosuperior" unicode="&#xb2;" horiz-adv-x="340" 
d="M23 441l166 166q37 37 50.5 59.5t13.5 49.5q0 35 -20.5 55t-62.5 20q-49 0 -68 -24.5t-19 -67.5h-51q0 65 34 101t104 36q67 0 101 -32.5t34 -87.5q0 -33 -14 -60.5t-50 -61.5l-112 -107h176v-49h-282v3z" />
    <glyph glyph-name="threesuperior" unicode="&#xb3;" horiz-adv-x="367" 
d="M310.5 608q18.5 -26 18.5 -64q0 -54 -37.5 -85t-107.5 -31q-80 0 -116 40t-36 110h48q0 -50 24.5 -78t77.5 -28q48 0 71 20t23 56q0 39 -26 56t-80 17h-12v41h12q51 0 74.5 16.5t23.5 49.5q0 30 -21 47t-63 17q-49 0 -72 -24.5t-23 -61.5h-48q0 59 37.5 94.5t109.5 35.5
q42 0 72 -13.5t45 -37.5t15 -54q0 -32 -17 -54.5t-50 -32.5q39 -10 57.5 -36z" />
    <glyph glyph-name="acute" unicode="&#xb4;" horiz-adv-x="262" 
d="M145 726h67l-101 -153h-61z" />
    <glyph glyph-name="mu" unicode="&#xb5;" horiz-adv-x="552" 
d="M472 482v-482h-60v76q-22 -43 -62.5 -65t-94.5 -22q-80 0 -119 53q4 -47 4 -110v-133h-60v683h60v-279q0 -82 31 -120.5t97 -38.5q69 0 106 40t37 116v282h61z" />
    <glyph glyph-name="paragraph" unicode="&#xb6;" horiz-adv-x="624" 
d="M296 317h-72q-110 0 -154.5 50.5t-44.5 145.5q0 63 19 105t63 65t119 23h373v-56h-68v-851h-58v851h-120v-851h-57v518z" />
    <glyph glyph-name="periodcentered" unicode="&#xb7;" horiz-adv-x="261" 
d="M95 249q-13 13 -13 35t13 35.5t35 13.5q21 0 35 -14t14 -35t-14 -34.5t-35 -13.5q-22 0 -35 13z" />
    <glyph glyph-name="cedilla" unicode="&#xb8;" horiz-adv-x="286" 
d="M210.5 -75.5q25.5 -21.5 25.5 -56.5q0 -41 -29.5 -62t-83.5 -21q-40 0 -73 12l8 40q30 -11 61 -11q67 0 67 43q0 42 -69 42h-50l28 94h48l-17 -59h13q46 0 71.5 -21.5z" />
    <glyph glyph-name="onesuperior" unicode="&#xb9;" horiz-adv-x="254" 
d="M109 778h-82l8 48h127v-388h-53v340z" />
    <glyph glyph-name="ordmasculine" unicode="&#xba;" horiz-adv-x="379" 
d="M100 385.5q-36 23.5 -53 63.5t-17 90t17 89.5t53 63t90 23.5q53 0 88.5 -23.5t52.5 -63t17 -89.5t-17 -90t-52.5 -63.5t-88.5 -23.5q-54 0 -90 23.5zM270.5 445q24.5 36 24.5 94q0 57 -24.5 94t-80.5 37q-57 0 -81.5 -37t-24.5 -94q0 -58 24.5 -94t81.5 -36q56 0 80.5 36
z" />
    <glyph glyph-name="guillemotright" unicode="&#xbb;" horiz-adv-x="452" 
d="M22 118l152 160l-152 159h71l153 -159l-153 -160h-71zM206 118l152 160l-152 159h71l153 -159l-153 -160h-71z" />
    <glyph glyph-name="onequarter" unicode="&#xbc;" horiz-adv-x="749" 
d="M109 658h-82l8 48h127v-388h-53v340zM529 706h54l-417 -706h-54zM624 101h-230v2l187 285h94v-242h58v-45h-58v-101h-51v101zM624 146v223l-146 -223h146z" />
    <glyph glyph-name="onehalf" unicode="&#xbd;" horiz-adv-x="778" 
d="M109 658h-82l8 48h127v-388h-53v340zM529 706h54l-417 -706h-54zM461 3l166 166q37 37 50.5 59.5t13.5 49.5q0 35 -20.5 55t-62.5 20q-49 0 -68 -24.5t-19 -67.5h-51q0 65 34 101t104 36q67 0 101 -32.5t34 -87.5q0 -33 -14 -60.5t-50 -61.5l-112 -107h176v-49h-282v3z
" />
    <glyph glyph-name="threequarters" unicode="&#xbe;" horiz-adv-x="861" 
d="M310.5 488q18.5 -26 18.5 -64q0 -54 -37.5 -85t-107.5 -31q-80 0 -116 40t-36 110h48q0 -50 24.5 -78t77.5 -28q48 0 71 20t23 56q0 39 -26 56t-80 17h-12v41h12q51 0 74.5 16.5t23.5 49.5q0 30 -21 47t-63 17q-49 0 -72 -24.5t-23 -61.5h-48q0 59 37.5 94.5t109.5 35.5
q42 0 72 -13.5t45 -37.5t15 -54q0 -32 -17 -54.5t-50 -32.5q39 -10 57.5 -36zM641 706h54l-417 -706h-54zM736 101h-230v2l187 285h94v-242h58v-45h-58v-101h-51v101zM736 146v223l-146 -223h146z" />
    <glyph glyph-name="questiondown" unicode="&#xbf;" horiz-adv-x="479" 
d="M280.5 510q13.5 -13 13.5 -35t-13.5 -35.5t-35.5 -13.5q-21 0 -35 14t-14 35t14 34.5t35 13.5q22 0 35.5 -13zM164 133.5q-37 -67.5 -49.5 -103t-12.5 -66.5q0 -121 136 -121q56 0 87.5 19t43 52t11.5 83h62q0 -101 -47.5 -154.5t-158.5 -53.5q-101 0 -150.5 47
t-49.5 127q0 34 12.5 71t48 102.5t111.5 193.5h71q-78 -129 -115 -196.5z" />
    <glyph glyph-name="Agrave" unicode="&#xc0;" horiz-adv-x="605" 
d="M463 192h-320l-66 -192h-68l244 706h99l244 -706h-68zM444 247l-140 410h-2l-140 -410h282zM305 779l-128 123h76l122 -123h-70z" />
    <glyph glyph-name="Aacute" unicode="&#xc1;" horiz-adv-x="605" 
d="M463 192h-320l-66 -192h-68l244 706h99l244 -706h-68zM444 247l-140 410h-2l-140 -410h282zM352 902h77l-128 -123h-70z" />
    <glyph glyph-name="Acircumflex" unicode="&#xc2;" horiz-adv-x="605" 
d="M463 192h-320l-66 -192h-68l244 706h99l244 -706h-68zM444 247l-140 410h-2l-140 -410h282zM263 902h80l123 -123h-71l-93 91l-91 -91h-71z" />
    <glyph glyph-name="Atilde" unicode="&#xc3;" horiz-adv-x="605" 
d="M463 192h-320l-66 -192h-68l244 706h99l244 -706h-68zM444 247l-140 410h-2l-140 -410h282zM335.5 786q-20.5 11 -41.5 33q-4 4 -16.5 16t-25 18t-27.5 6q-28 0 -41 -22.5t-16 -59.5h-46q3 60 27.5 94t73.5 34q28 0 48 -10.5t43 -33.5l15 -15t24.5 -18t25.5 -6
q28 0 41.5 21.5t16.5 59.5h47q-8 -128 -101 -128q-27 0 -47.5 11z" />
    <glyph glyph-name="Adieresis" unicode="&#xc4;" horiz-adv-x="605" 
d="M463 192h-320l-66 -192h-68l244 706h99l244 -706h-68zM444 247l-140 410h-2l-140 -410h282zM169 819.5q-13 12.5 -13 31.5q0 20 13 33.5t33 13.5q19 0 32.5 -13.5t13.5 -33.5q0 -19 -13.5 -31.5t-32.5 -12.5q-20 0 -33 12.5zM372 819.5q-13 12.5 -13 31.5q0 20 13 33.5
t33 13.5q19 0 32.5 -13.5t13.5 -33.5q0 -19 -13.5 -31.5t-32.5 -12.5q-20 0 -33 12.5z" />
    <glyph glyph-name="Aring" unicode="&#xc5;" horiz-adv-x="605" 
d="M463 192h-320l-66 -192h-68l244 706h99l244 -706h-68zM444 247l-140 410h-2l-140 -410h282zM226.5 773.5q-28.5 27.5 -28.5 72.5t28.5 72.5t75.5 27.5q32 0 55.5 -12.5t36.5 -35.5t13 -52q0 -45 -28.5 -72.5t-76.5 -27.5q-47 0 -75.5 27.5zM347 801.5q17 16.5 17 44.5
q0 27 -17.5 44t-44.5 17q-28 0 -44.5 -16.5t-16.5 -44.5t16.5 -44.5t44.5 -16.5t45 16.5z" />
    <glyph glyph-name="AE" unicode="&#xc6;" horiz-adv-x="766" 
d="M411 649l32 -260h270v-57h-263l34 -275h232v-57h-292l-23 194h-244l-79 -194h-69l294 706h413v-57h-305zM395 249l-47 405h-2l-166 -405h215z" />
    <glyph glyph-name="Ccedilla" unicode="&#xc7;" horiz-adv-x="692" 
d="M610 109.5q-33 -57.5 -92.5 -89t-139.5 -35.5l-11 -39h13q46 0 71.5 -21.5t25.5 -56.5q0 -41 -29.5 -62t-83.5 -21q-40 0 -73 12l8 40q30 -11 61 -11q67 0 67 43q0 42 -70 42h-49l22 75q-99 7 -161 57.5t-89 130.5t-27 179q0 103 30 185.5t98.5 132.5t178.5 50
q82 0 144.5 -30.5t98.5 -88.5t39 -136h-65q-3 63 -30.5 107t-76 67t-113.5 23q-128 0 -181.5 -85t-53.5 -225q0 -310 236 -310q67 0 115.5 23.5t76 69t30.5 110.5h64q-1 -79 -34 -136.5z" />
    <glyph glyph-name="Egrave" unicode="&#xc8;" horiz-adv-x="534" 
d="M95 706h389v-57h-323v-259h320v-58h-320v-275h323v-57h-389v706zM293 779l-128 123h76l122 -123h-70z" />
    <glyph glyph-name="Eacute" unicode="&#xc9;" horiz-adv-x="534" 
d="M95 706h389v-57h-323v-259h320v-58h-320v-275h323v-57h-389v706zM340 902h77l-128 -123h-70z" />
    <glyph glyph-name="Ecircumflex" unicode="&#xca;" horiz-adv-x="534" 
d="M95 706h389v-57h-323v-259h320v-58h-320v-275h323v-57h-389v706zM251 902h80l123 -123h-71l-93 91l-91 -91h-71z" />
    <glyph glyph-name="Edieresis" unicode="&#xcb;" horiz-adv-x="534" 
d="M95 706h389v-57h-323v-259h320v-58h-320v-275h323v-57h-389v706zM157 819.5q-13 12.5 -13 31.5q0 20 13 33.5t33 13.5q19 0 32.5 -13.5t13.5 -33.5q0 -19 -13.5 -31.5t-32.5 -12.5q-20 0 -33 12.5zM360 819.5q-13 12.5 -13 31.5q0 20 13 33.5t33 13.5q19 0 32.5 -13.5
t13.5 -33.5q0 -19 -13.5 -31.5t-32.5 -12.5q-20 0 -33 12.5z" />
    <glyph glyph-name="Igrave" unicode="&#xcc;" horiz-adv-x="256" 
d="M95 706h66v-706h-66v706zM130 779l-128 123h76l122 -123h-70z" />
    <glyph glyph-name="Iacute" unicode="&#xcd;" horiz-adv-x="256" 
d="M95 706h66v-706h-66v706zM177 902h77l-128 -123h-70z" />
    <glyph glyph-name="Icircumflex" unicode="&#xce;" horiz-adv-x="256" 
d="M95 706h66v-706h-66v706zM91 902h72l85 -123h-60l-60 89l-61 -89h-59z" />
    <glyph glyph-name="Idieresis" unicode="&#xcf;" horiz-adv-x="256" 
d="M95 706h66v-706h-66v706zM33 808.5q-12 11.5 -12 28.5q0 19 12 31t30 12q17 0 29.5 -12t12.5 -31q0 -17 -12.5 -28.5t-29.5 -11.5q-18 0 -30 11.5zM165.5 807.5q-11.5 11.5 -11.5 28.5q0 19 11.5 31t29.5 12t30 -12t12 -31q0 -17 -12 -28.5t-30 -11.5t-29.5 11.5z" />
    <glyph glyph-name="Eth" unicode="&#xd0;" horiz-adv-x="679" 
d="M552.5 610.5q73.5 -95.5 73.5 -257.5q0 -353 -318 -353h-213v334h-59v52h59v320h213q171 0 244.5 -95.5zM455.5 94.5q56.5 37.5 79 102.5t22.5 156q0 92 -23 157t-79.5 102t-153.5 37h-140v-263h179v-52h-179v-277h140q98 0 154.5 37.5z" />
    <glyph glyph-name="Ntilde" unicode="&#xd1;" horiz-adv-x="697" 
d="M95 706h71l373 -607v607h63v-706h-71l-372 607v-607h-64v706zM381.5 786q-20.5 11 -41.5 33q-4 4 -16.5 16t-25 18t-27.5 6q-28 0 -41 -22.5t-16 -59.5h-46q3 60 27.5 94t73.5 34q28 0 48 -10.5t43 -33.5l15 -15t24.5 -18t25.5 -6q28 0 41.5 21.5t16.5 59.5h47
q-8 -128 -101 -128q-27 0 -47.5 11z" />
    <glyph glyph-name="Ograve" unicode="&#xd2;" horiz-adv-x="720" 
d="M180.5 35.5q-68.5 50.5 -98 132.5t-29.5 185q0 104 30 186t98.5 132t178.5 50q111 0 179.5 -49.5t98.5 -131.5t30 -187t-30.5 -187.5t-99 -131.5t-178.5 -49q-111 0 -179.5 50.5zM545 129q54 86 54 224q0 139 -54.5 224.5t-184.5 85.5t-184 -85.5t-54 -224.5t54 -224.5
t184 -85.5q131 0 185 86zM362 779l-128 123h76l122 -123h-70z" />
    <glyph glyph-name="Oacute" unicode="&#xd3;" horiz-adv-x="720" 
d="M180.5 35.5q-68.5 50.5 -98 132.5t-29.5 185q0 104 30 186t98.5 132t178.5 50q111 0 179.5 -49.5t98.5 -131.5t30 -187t-30.5 -187.5t-99 -131.5t-178.5 -49q-111 0 -179.5 50.5zM545 129q54 86 54 224q0 139 -54.5 224.5t-184.5 85.5t-184 -85.5t-54 -224.5t54 -224.5
t184 -85.5q131 0 185 86zM409 902h77l-128 -123h-70z" />
    <glyph glyph-name="Ocircumflex" unicode="&#xd4;" horiz-adv-x="720" 
d="M180.5 35.5q-68.5 50.5 -98 132.5t-29.5 185q0 104 30 186t98.5 132t178.5 50q111 0 179.5 -49.5t98.5 -131.5t30 -187t-30.5 -187.5t-99 -131.5t-178.5 -49q-111 0 -179.5 50.5zM545 129q54 86 54 224q0 139 -54.5 224.5t-184.5 85.5t-184 -85.5t-54 -224.5t54 -224.5
t184 -85.5q131 0 185 86zM320 902h80l123 -123h-71l-93 91l-91 -91h-71z" />
    <glyph glyph-name="Otilde" unicode="&#xd5;" horiz-adv-x="720" 
d="M180.5 35.5q-68.5 50.5 -98 132.5t-29.5 185q0 104 30 186t98.5 132t178.5 50q111 0 179.5 -49.5t98.5 -131.5t30 -187t-30.5 -187.5t-99 -131.5t-178.5 -49q-111 0 -179.5 50.5zM545 129q54 86 54 224q0 139 -54.5 224.5t-184.5 85.5t-184 -85.5t-54 -224.5t54 -224.5
t184 -85.5q131 0 185 86zM392.5 786q-20.5 11 -41.5 33q-4 4 -16.5 16t-25 18t-27.5 6q-28 0 -41 -22.5t-16 -59.5h-46q3 60 27.5 94t73.5 34q28 0 48 -10.5t43 -33.5l15 -15t24.5 -18t25.5 -6q28 0 41.5 21.5t16.5 59.5h47q-8 -128 -101 -128q-27 0 -47.5 11z" />
    <glyph glyph-name="Odieresis" unicode="&#xd6;" horiz-adv-x="720" 
d="M180.5 35.5q-68.5 50.5 -98 132.5t-29.5 185q0 104 30 186t98.5 132t178.5 50q111 0 179.5 -49.5t98.5 -131.5t30 -187t-30.5 -187.5t-99 -131.5t-178.5 -49q-111 0 -179.5 50.5zM545 129q54 86 54 224q0 139 -54.5 224.5t-184.5 85.5t-184 -85.5t-54 -224.5t54 -224.5
t184 -85.5q131 0 185 86zM226 819.5q-13 12.5 -13 31.5q0 20 13 33.5t33 13.5q19 0 32.5 -13.5t13.5 -33.5q0 -19 -13.5 -31.5t-32.5 -12.5q-20 0 -33 12.5zM429 819.5q-13 12.5 -13 31.5q0 20 13 33.5t33 13.5q19 0 32.5 -13.5t13.5 -33.5q0 -19 -13.5 -31.5t-32.5 -12.5
q-20 0 -33 12.5z" />
    <glyph glyph-name="multiply" unicode="&#xd7;" horiz-adv-x="571" 
d="M323 281l171 -171l-38 -39l-171 172l-171 -171l-37 38l171 171l-171 171l37 37l171 -171l171 171l38 -37z" />
    <glyph glyph-name="Oslash" unicode="&#xd8;" horiz-adv-x="720" 
d="M604 606q64 -93 64 -253q0 -105 -30.5 -187.5t-99 -131.5t-178.5 -49q-137 0 -214 79l-53 -64h-61l85 100q-33 49 -48.5 114t-15.5 139q0 104 30 186t98.5 132t178.5 50q137 0 214 -79l53 64h62zM176 577.5q-54 -85.5 -54 -224.5q0 -126 41 -203l367 446q-60 67 -170 67
q-130 0 -184 -85.5zM545 129q54 86 54 224q0 127 -41 202l-368 -444q60 -68 170 -68q131 0 185 86z" />
    <glyph glyph-name="Ugrave" unicode="&#xd9;" horiz-adv-x="626" 
d="M134 41q-58 56 -58 171v494h66v-491q0 -89 40.5 -130.5t130.5 -41.5q91 0 131.5 41.5t40.5 130.5v491h65v-494q0 -115 -57.5 -171t-179.5 -56q-121 0 -179 56zM316 779l-128 123h76l122 -123h-70z" />
    <glyph glyph-name="Uacute" unicode="&#xda;" horiz-adv-x="626" 
d="M134 41q-58 56 -58 171v494h66v-491q0 -89 40.5 -130.5t130.5 -41.5q91 0 131.5 41.5t40.5 130.5v491h65v-494q0 -115 -57.5 -171t-179.5 -56q-121 0 -179 56zM363 902h77l-128 -123h-70z" />
    <glyph glyph-name="Ucircumflex" unicode="&#xdb;" horiz-adv-x="626" 
d="M134 41q-58 56 -58 171v494h66v-491q0 -89 40.5 -130.5t130.5 -41.5q91 0 131.5 41.5t40.5 130.5v491h65v-494q0 -115 -57.5 -171t-179.5 -56q-121 0 -179 56zM274 902h80l123 -123h-71l-93 91l-91 -91h-71z" />
    <glyph glyph-name="Udieresis" unicode="&#xdc;" horiz-adv-x="626" 
d="M134 41q-58 56 -58 171v494h66v-491q0 -89 40.5 -130.5t130.5 -41.5q91 0 131.5 41.5t40.5 130.5v491h65v-494q0 -115 -57.5 -171t-179.5 -56q-121 0 -179 56zM180 819.5q-13 12.5 -13 31.5q0 20 13 33.5t33 13.5q19 0 32.5 -13.5t13.5 -33.5q0 -19 -13.5 -31.5
t-32.5 -12.5q-20 0 -33 12.5zM383 819.5q-13 12.5 -13 31.5q0 20 13 33.5t33 13.5q19 0 32.5 -13.5t13.5 -33.5q0 -19 -13.5 -31.5t-32.5 -12.5q-20 0 -33 12.5z" />
    <glyph glyph-name="Yacute" unicode="&#xdd;" horiz-adv-x="546" 
d="M241 305l-232 401h74l191 -336l190 336h72l-230 -401v-305h-65v305zM322 902h77l-128 -123h-70z" />
    <glyph glyph-name="Thorn" unicode="&#xde;" horiz-adv-x="560" 
d="M95 706h66v-128h123q133 0 192.5 -56.5t59.5 -164.5q0 -109 -59.5 -165.5t-192.5 -56.5h-123v-135h-66v706zM275 191q103 0 147.5 41.5t44.5 124.5q0 82 -45 123.5t-147 41.5h-114v-331h114z" />
    <glyph glyph-name="germandbls" unicode="&#xdf;" horiz-adv-x="549" 
d="M469.5 326.5q35.5 -52.5 35.5 -124.5q0 -94 -60.5 -148.5t-184.5 -54.5q-23 0 -47 2v53q18 -2 39 -2q187 0 187 152q0 74 -45 118.5t-133 44.5h-48v51h46q81 0 118.5 34t37.5 95q0 57 -33 90t-101 33q-79 0 -109.5 -43t-30.5 -121v-506h-61v503q0 103 47 160.5t155 57.5
q64 0 108 -22.5t66 -61t22 -87.5q0 -59 -29 -99.5t-89 -54.5q74 -17 109.5 -69.5z" />
    <glyph glyph-name="agrave" unicode="&#xe0;" horiz-adv-x="525" 
d="M405.5 441q43.5 -53 43.5 -152v-289h-61v76q-24 -43 -68 -65t-106 -22q-83 0 -127 39t-44 105q0 78 58.5 112t169.5 34h117v18q0 48 -12 79.5t-41 48t-80 16.5q-67 0 -99 -27.5t-32 -79.5h-63q0 75 49.5 117.5t144.5 42.5q107 0 150.5 -53zM352 90.5q36 49.5 36 136.5v4
h-112q-82 0 -125 -21.5t-43 -71.5q0 -45 30.5 -71t89.5 -26q88 0 124 49.5zM253 573l-100 153h67l95 -153h-62z" />
    <glyph glyph-name="aacute" unicode="&#xe1;" horiz-adv-x="525" 
d="M405.5 441q43.5 -53 43.5 -152v-289h-61v76q-24 -43 -68 -65t-106 -22q-83 0 -127 39t-44 105q0 78 58.5 112t169.5 34h117v18q0 48 -12 79.5t-41 48t-80 16.5q-67 0 -99 -27.5t-32 -79.5h-63q0 75 49.5 117.5t144.5 42.5q107 0 150.5 -53zM352 90.5q36 49.5 36 136.5v4
h-112q-82 0 -125 -21.5t-43 -71.5q0 -45 30.5 -71t89.5 -26q88 0 124 49.5zM290 726h67l-101 -153h-61z" />
    <glyph glyph-name="acircumflex" unicode="&#xe2;" horiz-adv-x="525" 
d="M405.5 441q43.5 -53 43.5 -152v-289h-61v76q-24 -43 -68 -65t-106 -22q-83 0 -127 39t-44 105q0 78 58.5 112t169.5 34h117v18q0 48 -12 79.5t-41 48t-80 16.5q-67 0 -99 -27.5t-32 -79.5h-63q0 75 49.5 117.5t144.5 42.5q107 0 150.5 -53zM352 90.5q36 49.5 36 136.5v4
h-112q-82 0 -125 -21.5t-43 -71.5q0 -45 30.5 -71t89.5 -26q88 0 124 49.5zM214 726h82l104 -154h-64l-81 121l-81 -121h-64z" />
    <glyph glyph-name="atilde" unicode="&#xe3;" horiz-adv-x="525" 
d="M405.5 441q43.5 -53 43.5 -152v-289h-61v76q-24 -43 -68 -65t-106 -22q-83 0 -127 39t-44 105q0 78 58.5 112t169.5 34h117v18q0 48 -12 79.5t-41 48t-80 16.5q-67 0 -99 -27.5t-32 -79.5h-63q0 75 49.5 117.5t144.5 42.5q107 0 150.5 -53zM352 90.5q36 49.5 36 136.5v4
h-112q-82 0 -125 -21.5t-43 -71.5q0 -45 30.5 -71t89.5 -26q88 0 124 49.5zM282.5 581.5q-17.5 12.5 -39.5 47.5q-2 3 -12.5 20t-21.5 24.5t-23 7.5q-25 0 -35 -26t-12 -83h-46q2 80 22.5 118.5t66.5 38.5q26 0 43.5 -13t40.5 -48q9 -13 18 -25.5t18.5 -19t21.5 -6.5
q17 0 26.5 12t14 35t6.5 62h46q-2 -80 -22.5 -118.5t-66.5 -38.5q-28 0 -45.5 12.5z" />
    <glyph glyph-name="adieresis" unicode="&#xe4;" horiz-adv-x="525" 
d="M405.5 441q43.5 -53 43.5 -152v-289h-61v76q-24 -43 -68 -65t-106 -22q-83 0 -127 39t-44 105q0 78 58.5 112t169.5 34h117v18q0 48 -12 79.5t-41 48t-80 16.5q-67 0 -99 -27.5t-32 -79.5h-63q0 75 49.5 117.5t144.5 42.5q107 0 150.5 -53zM352 90.5q36 49.5 36 136.5v4
h-112q-82 0 -125 -21.5t-43 -71.5q0 -45 30.5 -71t89.5 -26q88 0 124 49.5zM130 605.5q-13 12.5 -13 32.5t13 33.5t34 13.5q19 0 32.5 -13.5t13.5 -33.5q0 -19 -13.5 -32t-32.5 -13q-21 0 -34 12.5zM313 605.5q-13 12.5 -13 32.5t13 33.5t33 13.5t33 -13.5t13 -33.5
q0 -19 -13 -32t-33 -13t-33 12.5z" />
    <glyph glyph-name="aring" unicode="&#xe5;" horiz-adv-x="525" 
d="M405.5 441q43.5 -53 43.5 -152v-289h-61v76q-24 -43 -68 -65t-106 -22q-83 0 -127 39t-44 105q0 78 58.5 112t169.5 34h117v18q0 48 -12 79.5t-41 48t-80 16.5q-67 0 -99 -27.5t-32 -79.5h-63q0 75 49.5 117.5t144.5 42.5q107 0 150.5 -53zM352 90.5q36 49.5 36 136.5v4
h-112q-82 0 -125 -21.5t-43 -71.5q0 -45 30.5 -71t89.5 -26q88 0 124 49.5zM178.5 583.5q-28.5 27.5 -28.5 72.5t28.5 72.5t75.5 27.5q32 0 55.5 -12.5t36.5 -35.5t13 -52q0 -45 -28.5 -72.5t-76.5 -27.5q-47 0 -75.5 27.5zM299 611.5q17 16.5 17 44.5q0 27 -17.5 44
t-44.5 17q-28 0 -44.5 -16.5t-16.5 -44.5t16.5 -44.5t44.5 -16.5t45 16.5z" />
    <glyph glyph-name="ae" unicode="&#xe6;" horiz-adv-x="853" 
d="M699 70q35 28 43 81h63q-10 -78 -63 -120t-135 -42q-73 0 -120 32t-71 88q-52 -120 -199 -120q-86 0 -130 38.5t-44 105.5q0 79 58 113t170 34h117v16q0 48 -12 79.5t-41 48.5t-80 17q-67 0 -99 -27.5t-32 -79.5h-63q0 75 49.5 117.5t144.5 42.5q72 0 114 -24t60 -70
q25 44 68 69t103 25q67 0 113 -30t71 -84q14 -31 20 -67.5t6 -81.5h-360q2 -86 39.5 -137.5t116.5 -51.5q58 0 93 28zM492.5 397q-34.5 -43 -41.5 -117h294q-4 73 -38 116.5t-106 43.5q-74 0 -108.5 -43zM388 232h-112q-82 0 -125 -21.5t-43 -72.5q0 -45 31.5 -71t89.5 -26
q87 0 123 49t36 137v5z" />
    <glyph glyph-name="ccedilla" unicode="&#xe7;" horiz-adv-x="512" 
d="M337 60.5q30 15.5 46.5 43.5t17.5 65h66q-1 -53 -25 -92.5t-65.5 -61.5t-95.5 -25l-13 -44h13q47 0 72 -21t25 -57q0 -41 -29 -62t-84 -21q-40 0 -73 12l8 40q30 -11 61 -11q67 0 67 43q0 42 -69 42h-49l23 81q-64 7 -106.5 42t-62.5 89t-20 119q0 70 24 127t74 91
t124 34q58 0 103 -22t71 -64t28 -99h-66q-3 60 -39.5 94.5t-96.5 34.5q-55 0 -90.5 -26.5t-51 -71t-15.5 -98.5q0 -87 38 -142t119 -55q41 0 71 15.5z" />
    <glyph glyph-name="egrave" unicode="&#xe8;" horiz-adv-x="536" 
d="M375 71q38 28 49 80h63q-8 -52 -37 -88t-74.5 -54.5t-101.5 -18.5q-78 0 -129.5 33.5t-76 90t-24.5 128.5q0 71 24.5 128t75.5 90.5t127 33.5q72 0 121.5 -31t74.5 -86q13 -30 18.5 -64t6.5 -81h-385q2 -87 41.5 -138t125.5 -51q63 0 101 28zM156 397.5
q-39 -42.5 -47 -115.5h318q-12 158 -156 158q-76 0 -115 -42.5zM269 573l-100 153h67l95 -153h-62z" />
    <glyph glyph-name="eacute" unicode="&#xe9;" horiz-adv-x="536" 
d="M375 71q38 28 49 80h63q-8 -52 -37 -88t-74.5 -54.5t-101.5 -18.5q-78 0 -129.5 33.5t-76 90t-24.5 128.5q0 71 24.5 128t75.5 90.5t127 33.5q72 0 121.5 -31t74.5 -86q13 -30 18.5 -64t6.5 -81h-385q2 -87 41.5 -138t125.5 -51q63 0 101 28zM156 397.5
q-39 -42.5 -47 -115.5h318q-12 158 -156 158q-76 0 -115 -42.5zM306 726h67l-101 -153h-61z" />
    <glyph glyph-name="ecircumflex" unicode="&#xea;" horiz-adv-x="536" 
d="M375 71q38 28 49 80h63q-8 -52 -37 -88t-74.5 -54.5t-101.5 -18.5q-78 0 -129.5 33.5t-76 90t-24.5 128.5q0 71 24.5 128t75.5 90.5t127 33.5q72 0 121.5 -31t74.5 -86q13 -30 18.5 -64t6.5 -81h-385q2 -87 41.5 -138t125.5 -51q63 0 101 28zM156 397.5
q-39 -42.5 -47 -115.5h318q-12 158 -156 158q-76 0 -115 -42.5zM230 726h82l104 -154h-64l-81 121l-81 -121h-64z" />
    <glyph glyph-name="edieresis" unicode="&#xeb;" horiz-adv-x="536" 
d="M375 71q38 28 49 80h63q-8 -52 -37 -88t-74.5 -54.5t-101.5 -18.5q-78 0 -129.5 33.5t-76 90t-24.5 128.5q0 71 24.5 128t75.5 90.5t127 33.5q72 0 121.5 -31t74.5 -86q13 -30 18.5 -64t6.5 -81h-385q2 -87 41.5 -138t125.5 -51q63 0 101 28zM156 397.5
q-39 -42.5 -47 -115.5h318q-12 158 -156 158q-76 0 -115 -42.5zM147 605.5q-13 12.5 -13 32.5t13 33.5t34 13.5q19 0 32.5 -13.5t13.5 -33.5q0 -19 -13.5 -32t-32.5 -13q-21 0 -34 12.5zM330 605.5q-13 12.5 -13 32.5t13 33.5t33 13.5t33 -13.5t13 -33.5q0 -19 -13 -32
t-33 -13t-33 12.5z" />
    <glyph glyph-name="igrave" unicode="&#xec;" horiz-adv-x="220" 
d="M80 482h61v-482h-61v482zM96 573l-84 153h65l78 -153h-59z" />
    <glyph glyph-name="iacute" unicode="&#xed;" horiz-adv-x="220" 
d="M80 482h61v-482h-61v482zM145 726h65l-84 -153h-59z" />
    <glyph glyph-name="icircumflex" unicode="&#xee;" horiz-adv-x="220" 
d="M80 482h61v-482h-61v482zM77 726h69l89 -154h-56l-67 117l-68 -117h-56z" />
    <glyph glyph-name="idieresis" unicode="&#xef;" horiz-adv-x="220" 
d="M80 482h61v-482h-61v482zM16.5 604.5q-11.5 11.5 -11.5 29.5t11.5 29.5t30.5 11.5q17 0 28.5 -11.5t11.5 -29.5t-11.5 -29.5t-28.5 -11.5q-19 0 -30.5 11.5zM144.5 604.5q-11.5 11.5 -11.5 29.5t11.5 29.5t29.5 11.5q17 0 29 -11.5t12 -29.5t-12 -29.5t-29 -11.5
q-18 0 -29.5 11.5z" />
    <glyph glyph-name="eth" unicode="&#xf0;" horiz-adv-x="536" 
d="M457 430.5q35 -89.5 35 -183.5q0 -116 -53.5 -186.5t-174.5 -70.5q-76 0 -125 32.5t-72 87.5t-23 123t22 123.5t69 89t120 33.5q91 0 143 -58q-34 81 -97 169l-199 -74v47l172 64q-32 41 -62 77v2h70q19 -21 48 -58l110 41v-47l-83 -31q65 -91 100 -180.5zM390 98
q37 54 37 141q0 85 -36.5 136.5t-122.5 51.5q-85 0 -122 -54.5t-37 -137.5q0 -84 37.5 -137.5t121.5 -53.5q85 0 122 54z" />
    <glyph glyph-name="ntilde" unicode="&#xf1;" horiz-adv-x="548" 
d="M472 292v-292h-61v281q0 81 -31 119t-97 38q-68 0 -105 -39.5t-37 -114.5v-284h-61v482h61v-69q24 41 64 61t93 20q174 0 174 -202zM310.5 581.5q-17.5 12.5 -39.5 47.5q-2 3 -12.5 20t-21.5 24.5t-23 7.5q-25 0 -35 -26t-12 -83h-46q2 80 22.5 118.5t66.5 38.5
q26 0 43.5 -13t40.5 -48q9 -13 18 -25.5t18.5 -19t21.5 -6.5q17 0 26.5 12t14 35t6.5 62h46q-2 -80 -22.5 -118.5t-66.5 -38.5q-28 0 -45.5 12.5z" />
    <glyph glyph-name="ograve" unicode="&#xf2;" horiz-adv-x="534" 
d="M141 24q-50 35 -73.5 91.5t-23.5 124.5q0 69 24 126.5t74 92.5t125 35q77 0 127 -35.5t73 -93t23 -125.5t-23.5 -124.5t-73.5 -91.5t-126 -35t-126 35zM389 100q37 56 37 140q0 88 -38 143t-121 55q-84 0 -121.5 -56.5t-37.5 -141.5q0 -86 38 -141t121 -55q85 0 122 56z
M266 573l-100 153h67l95 -153h-62z" />
    <glyph glyph-name="oacute" unicode="&#xf3;" horiz-adv-x="534" 
d="M141 24q-50 35 -73.5 91.5t-23.5 124.5q0 69 24 126.5t74 92.5t125 35q77 0 127 -35.5t73 -93t23 -125.5t-23.5 -124.5t-73.5 -91.5t-126 -35t-126 35zM389 100q37 56 37 140q0 88 -38 143t-121 55q-84 0 -121.5 -56.5t-37.5 -141.5q0 -86 38 -141t121 -55q85 0 122 56z
M302 726h67l-101 -153h-61z" />
    <glyph glyph-name="ocircumflex" unicode="&#xf4;" horiz-adv-x="534" 
d="M141 24q-50 35 -73.5 91.5t-23.5 124.5q0 69 24 126.5t74 92.5t125 35q77 0 127 -35.5t73 -93t23 -125.5t-23.5 -124.5t-73.5 -91.5t-126 -35t-126 35zM389 100q37 56 37 140q0 88 -38 143t-121 55q-84 0 -121.5 -56.5t-37.5 -141.5q0 -86 38 -141t121 -55q85 0 122 56z
M227 726h82l104 -154h-64l-81 121l-81 -121h-64z" />
    <glyph glyph-name="otilde" unicode="&#xf5;" horiz-adv-x="534" 
d="M141 24q-50 35 -73.5 91.5t-23.5 124.5q0 69 24 126.5t74 92.5t125 35q77 0 127 -35.5t73 -93t23 -125.5t-23.5 -124.5t-73.5 -91.5t-126 -35t-126 35zM389 100q37 56 37 140q0 88 -38 143t-121 55q-84 0 -121.5 -56.5t-37.5 -141.5q0 -86 38 -141t121 -55q85 0 122 56z
M294.5 581.5q-17.5 12.5 -39.5 47.5q-2 3 -12.5 20t-21.5 24.5t-23 7.5q-25 0 -35 -26t-12 -83h-46q2 80 22.5 118.5t66.5 38.5q26 0 43.5 -13t40.5 -48q9 -13 18 -25.5t18.5 -19t21.5 -6.5q17 0 26.5 12t14 35t6.5 62h46q-2 -80 -22.5 -118.5t-66.5 -38.5q-28 0 -45.5 12.5
z" />
    <glyph glyph-name="odieresis" unicode="&#xf6;" horiz-adv-x="534" 
d="M141 24q-50 35 -73.5 91.5t-23.5 124.5q0 69 24 126.5t74 92.5t125 35q77 0 127 -35.5t73 -93t23 -125.5t-23.5 -124.5t-73.5 -91.5t-126 -35t-126 35zM389 100q37 56 37 140q0 88 -38 143t-121 55q-84 0 -121.5 -56.5t-37.5 -141.5q0 -86 38 -141t121 -55q85 0 122 56z
M143 605.5q-13 12.5 -13 32.5t13 33.5t34 13.5q19 0 32.5 -13.5t13.5 -33.5q0 -19 -13.5 -32t-32.5 -13q-21 0 -34 12.5zM326 605.5q-13 12.5 -13 32.5t13 33.5t33 13.5t33 -13.5t13 -33.5q0 -19 -13 -32t-33 -13t-33 12.5z" />
    <glyph glyph-name="divide" unicode="&#xf7;" horiz-adv-x="571" 
d="M254.5 456q-11.5 11 -11.5 30t11.5 30.5t31.5 11.5q17 0 29.5 -11.5t12.5 -30.5q0 -18 -12.5 -29.5t-29.5 -11.5q-20 0 -31.5 11zM53 307h465v-53h-465v53zM255 44.5q-12 11.5 -12 30.5t11.5 30.5t31.5 11.5q17 0 29.5 -11.5t12.5 -30.5q0 -18 -12.5 -30t-29.5 -12
q-19 0 -31 11.5z" />
    <glyph glyph-name="oslash" unicode="&#xf8;" horiz-adv-x="534" 
d="M436 418q27 -35 40.5 -81t13.5 -97q0 -68 -23.5 -124.5t-73.5 -91.5t-126 -35q-85 0 -142 47l-30 -36h-54l55 66q-26 34 -39 79t-13 95q0 69 24 126.5t74 92.5t125 35q84 0 141 -46l29 34h53zM145.5 381.5q-37.5 -56.5 -37.5 -141.5q0 -77 28 -126l234 289
q-40 35 -103 35q-84 0 -121.5 -56.5zM389 100q37 56 37 140q0 79 -29 130l-235 -289q40 -37 105 -37q85 0 122 56z" />
    <glyph glyph-name="ugrave" unicode="&#xf9;" horiz-adv-x="548" 
d="M468 482v-482h-61v70q-46 -81 -157 -81q-174 0 -174 202v291h61v-281q0 -81 31 -118.5t97 -37.5q68 0 105 39.5t37 114.5v283h61zM272 573l-100 153h67l95 -153h-62z" />
    <glyph glyph-name="uacute" unicode="&#xfa;" horiz-adv-x="548" 
d="M468 482v-482h-61v70q-46 -81 -157 -81q-174 0 -174 202v291h61v-281q0 -81 31 -118.5t97 -37.5q68 0 105 39.5t37 114.5v283h61zM309 726h67l-101 -153h-61z" />
    <glyph glyph-name="ucircumflex" unicode="&#xfb;" horiz-adv-x="548" 
d="M468 482v-482h-61v70q-46 -81 -157 -81q-174 0 -174 202v291h61v-281q0 -81 31 -118.5t97 -37.5q68 0 105 39.5t37 114.5v283h61zM233 726h82l104 -154h-64l-81 121l-81 -121h-64z" />
    <glyph glyph-name="udieresis" unicode="&#xfc;" horiz-adv-x="548" 
d="M468 482v-482h-61v70q-46 -81 -157 -81q-174 0 -174 202v291h61v-281q0 -81 31 -118.5t97 -37.5q68 0 105 39.5t37 114.5v283h61zM149 605.5q-13 12.5 -13 32.5t13 33.5t34 13.5q19 0 32.5 -13.5t13.5 -33.5q0 -19 -13.5 -32t-32.5 -13q-21 0 -34 12.5zM332 605.5
q-13 12.5 -13 32.5t13 33.5t33 13.5t33 -13.5t13 -33.5q0 -19 -13 -32t-33 -13t-33 12.5z" />
    <glyph glyph-name="yacute" unicode="&#xfd;" horiz-adv-x="493" 
d="M474 482l-291 -683h-63l86 203l-187 480h68l153 -410l167 410h67zM282 726h67l-101 -153h-61z" />
    <glyph glyph-name="thorn" unicode="&#xfe;" horiz-adv-x="561" 
d="M426.5 459q46.5 -35 68.5 -92t22 -125q0 -70 -22 -127t-69 -91t-117 -34q-56 0 -99.5 24.5t-68.5 71.5v-287h-61v907h61v-309q25 48 68.5 72.5t99.5 24.5q71 0 117.5 -35zM385.5 72q35.5 27 51.5 71t16 99q0 54 -16 98.5t-51.5 71t-90.5 26.5q-47 0 -82 -22t-54 -63.5
t-19 -98.5v-25q0 -58 19 -99.5t54 -63t82 -21.5q55 0 90.5 27z" />
    <glyph glyph-name="ydieresis" unicode="&#xff;" horiz-adv-x="493" 
d="M474 482l-291 -683h-63l86 203l-187 480h68l153 -410l167 410h67zM123 605.5q-13 12.5 -13 32.5t13 33.5t34 13.5q19 0 32.5 -13.5t13.5 -33.5q0 -19 -13.5 -32t-32.5 -13q-21 0 -34 12.5zM306 605.5q-13 12.5 -13 32.5t13 33.5t33 13.5t33 -13.5t13 -33.5q0 -19 -13 -32
t-33 -13t-33 12.5z" />
    <glyph glyph-name="Amacron" unicode="&#x100;" horiz-adv-x="605" 
d="M463 192h-320l-66 -192h-68l244 706h99l244 -706h-68zM444 247l-140 410h-2l-140 -410h282zM160 865h286v-49h-286v49z" />
    <glyph glyph-name="amacron" unicode="&#x101;" horiz-adv-x="525" 
d="M405.5 441q43.5 -53 43.5 -152v-289h-61v76q-24 -43 -68 -65t-106 -22q-83 0 -127 39t-44 105q0 78 58.5 112t169.5 34h117v18q0 48 -12 79.5t-41 48t-80 16.5q-67 0 -99 -27.5t-32 -79.5h-63q0 75 49.5 117.5t144.5 42.5q107 0 150.5 -53zM352 90.5q36 49.5 36 136.5v4
h-112q-82 0 -125 -21.5t-43 -71.5q0 -45 30.5 -71t89.5 -26q88 0 124 49.5zM117 661h275v-47h-275v47z" />
    <glyph glyph-name="Abreve" unicode="&#x102;" horiz-adv-x="605" 
d="M463 192h-320l-66 -192h-68l244 706h99l244 -706h-68zM444 247l-140 410h-2l-140 -410h282zM201 807q-35 32 -38 95h50q4 -44 25.5 -64.5t64.5 -20.5t64.5 20.5t26.5 64.5h48q-6 -127 -139 -127q-67 0 -102 32z" />
    <glyph glyph-name="abreve" unicode="&#x103;" horiz-adv-x="525" 
d="M405.5 441q43.5 -53 43.5 -152v-289h-61v76q-24 -43 -68 -65t-106 -22q-83 0 -127 39t-44 105q0 78 58.5 112t169.5 34h117v18q0 48 -12 79.5t-41 48t-80 16.5q-67 0 -99 -27.5t-32 -79.5h-63q0 75 49.5 117.5t144.5 42.5q107 0 150.5 -53zM352 90.5q36 49.5 36 136.5v4
h-112q-82 0 -125 -21.5t-43 -71.5q0 -45 30.5 -71t89.5 -26q88 0 124 49.5zM148 609q-34 39 -37 117h51q3 -59 23.5 -86t68.5 -27t69 27t25 86h50q-4 -79 -37.5 -117.5t-106.5 -38.5q-72 0 -106 39z" />
    <glyph glyph-name="Aogonek" unicode="&#x104;" horiz-adv-x="605" 
d="M609 -157v-44q-26 -10 -59 -10q-43 0 -69.5 22t-26.5 60q0 35 21 64t65 65h-12l-65 192h-320l-66 -192h-68l244 706h99l244 -706q-47 -41 -67 -67.5t-20 -54.5q0 -22 13.5 -33t35.5 -11q26 0 51 9zM444 247l-140 410h-2l-140 -410h282z" />
    <glyph glyph-name="aogonek" unicode="&#x105;" horiz-adv-x="525" 
d="M462 -157v-44q-26 -10 -59 -10q-43 0 -69 21.5t-26 60.5q0 35 21 64.5t65 64.5h-6v76q-24 -43 -68 -65t-106 -22q-83 0 -127 39t-44 105q0 78 58.5 112t169.5 34h117v18q0 48 -12 79.5t-41 48t-80 16.5q-67 0 -99 -27.5t-32 -79.5h-63q0 75 49.5 117.5t144.5 42.5
q107 0 150.5 -53t43.5 -152v-289q-47 -41 -67 -67.5t-20 -54.5q0 -22 13.5 -33t35.5 -11q26 0 51 9zM352 90.5q36 49.5 36 136.5v4h-112q-82 0 -125 -21.5t-43 -71.5q0 -45 30.5 -71t89.5 -26q88 0 124 49.5z" />
    <glyph glyph-name="Cacute" unicode="&#x106;" horiz-adv-x="692" 
d="M180.5 34.5q-68.5 49.5 -98 132t-29.5 186.5q0 103 30 185.5t98.5 132.5t178.5 50q82 0 144.5 -30.5t98.5 -88.5t39 -136h-65q-3 63 -30.5 107t-76 67t-113.5 23q-128 0 -181.5 -85t-53.5 -225q0 -310 236 -310q67 0 115.5 23.5t76 69t30.5 110.5h64q-1 -82 -36.5 -141
t-99 -89.5t-148.5 -30.5q-111 0 -179.5 49.5zM409 902h77l-128 -123h-70z" />
    <glyph glyph-name="cacute" unicode="&#x107;" horiz-adv-x="512" 
d="M140.5 24q-49.5 34 -73 90.5t-23.5 127.5q0 70 24 127t74 91t124 34q58 0 103 -22t71 -64t28 -99h-66q-3 60 -39.5 94.5t-96.5 34.5q-55 0 -90.5 -26.5t-51 -71t-15.5 -98.5q0 -87 38 -142t119 -55q41 0 71 15.5t46.5 43.5t17.5 65h66q-1 -55 -27 -95.5t-71 -62
t-103 -21.5q-76 0 -125.5 34zM301 726h67l-101 -153h-61z" />
    <glyph glyph-name="Ccircumflex" unicode="&#x108;" horiz-adv-x="692" 
d="M180.5 34.5q-68.5 49.5 -98 132t-29.5 186.5q0 103 30 185.5t98.5 132.5t178.5 50q82 0 144.5 -30.5t98.5 -88.5t39 -136h-65q-3 63 -30.5 107t-76 67t-113.5 23q-128 0 -181.5 -85t-53.5 -225q0 -310 236 -310q67 0 115.5 23.5t76 69t30.5 110.5h64q-1 -82 -36.5 -141
t-99 -89.5t-148.5 -30.5q-111 0 -179.5 49.5zM320 902h80l123 -123h-71l-93 91l-91 -91h-71z" />
    <glyph glyph-name="ccircumflex" unicode="&#x109;" horiz-adv-x="512" 
d="M140.5 24q-49.5 34 -73 90.5t-23.5 127.5q0 70 24 127t74 91t124 34q58 0 103 -22t71 -64t28 -99h-66q-3 60 -39.5 94.5t-96.5 34.5q-55 0 -90.5 -26.5t-51 -71t-15.5 -98.5q0 -87 38 -142t119 -55q41 0 71 15.5t46.5 43.5t17.5 65h66q-1 -55 -27 -95.5t-71 -62
t-103 -21.5q-76 0 -125.5 34zM225 726h82l104 -154h-64l-81 121l-81 -121h-64z" />
    <glyph glyph-name="Cdotaccent" unicode="&#x10a;" horiz-adv-x="692" 
d="M180.5 34.5q-68.5 49.5 -98 132t-29.5 186.5q0 103 30 185.5t98.5 132.5t178.5 50q82 0 144.5 -30.5t98.5 -88.5t39 -136h-65q-3 63 -30.5 107t-76 67t-113.5 23q-128 0 -181.5 -85t-53.5 -225q0 -310 236 -310q67 0 115.5 23.5t76 69t30.5 110.5h64q-1 -82 -36.5 -141
t-99 -89.5t-148.5 -30.5q-111 0 -179.5 49.5zM328.5 811q-12.5 12 -12.5 30q0 19 12.5 31t31.5 12t31.5 -12t12.5 -31q0 -18 -12.5 -30t-31.5 -12t-31.5 12z" />
    <glyph glyph-name="cdotaccent" unicode="&#x10b;" horiz-adv-x="512" 
d="M140.5 24q-49.5 34 -73 90.5t-23.5 127.5q0 70 24 127t74 91t124 34q58 0 103 -22t71 -64t28 -99h-66q-3 60 -39.5 94.5t-96.5 34.5q-55 0 -90.5 -26.5t-51 -71t-15.5 -98.5q0 -87 38 -142t119 -55q41 0 71 15.5t46.5 43.5t17.5 65h66q-1 -55 -27 -95.5t-71 -62
t-103 -21.5q-76 0 -125.5 34zM232 616.5q-13 12.5 -13 32.5q0 21 13 34.5t34 13.5q20 0 33.5 -13.5t13.5 -34.5q0 -19 -13.5 -32t-33.5 -13q-21 0 -34 12.5z" />
    <glyph glyph-name="Ccaron" unicode="&#x10c;" horiz-adv-x="692" 
d="M180.5 34.5q-68.5 49.5 -98 132t-29.5 186.5q0 103 30 185.5t98.5 132.5t178.5 50q82 0 144.5 -30.5t98.5 -88.5t39 -136h-65q-3 63 -30.5 107t-76 67t-113.5 23q-128 0 -181.5 -85t-53.5 -225q0 -310 236 -310q67 0 115.5 23.5t76 69t30.5 110.5h64q-1 -82 -36.5 -141
t-99 -89.5t-148.5 -30.5q-111 0 -179.5 49.5zM268 902l91 -90l93 90h71l-123 -123h-80l-123 123h71z" />
    <glyph glyph-name="ccaron" unicode="&#x10d;" horiz-adv-x="512" 
d="M140.5 24q-49.5 34 -73 90.5t-23.5 127.5q0 70 24 127t74 91t124 34q58 0 103 -22t71 -64t28 -99h-66q-3 60 -39.5 94.5t-96.5 34.5q-55 0 -90.5 -26.5t-51 -71t-15.5 -98.5q0 -87 38 -142t119 -55q41 0 71 15.5t46.5 43.5t17.5 65h66q-1 -55 -27 -95.5t-71 -62
t-103 -21.5q-76 0 -125.5 34zM307 571h-82l-104 154h64l81 -121l81 121h64z" />
    <glyph glyph-name="Dcaron" unicode="&#x10e;" horiz-adv-x="679" 
d="M95 706h213q171 0 244.5 -95.5t73.5 -257.5q0 -353 -318 -353h-213v706zM301 57q98 0 154.5 37.5t79 102.5t22.5 156q0 92 -23 157t-79.5 102t-153.5 37h-140v-592h140zM229 902l91 -90l93 90h71l-123 -123h-80l-123 123h71z" />
    <glyph glyph-name="dcaron" unicode="&#x10f;" horiz-adv-x="597" 
d="M481 706v-706h-60v84q-26 -47 -69.5 -70.5t-99.5 -23.5q-70 0 -116.5 34t-69 91t-22.5 127q0 68 22 125t68.5 92t117.5 35q56 0 99.5 -24.5t69.5 -71.5v308h60zM349 66.5q35 21.5 53.5 63t18.5 99.5v26q0 57 -18.5 98t-53.5 63t-83 22q-55 0 -90.5 -26.5t-51.5 -71
t-16 -98.5q0 -55 16 -99.5t51.5 -71t90.5 -26.5q48 0 83 21.5zM560 706h57l-36 -166h-51z" />
    <glyph glyph-name="Dcroat" unicode="&#x110;" horiz-adv-x="679" 
d="M552.5 610.5q73.5 -95.5 73.5 -257.5q0 -353 -318 -353h-213v334h-59v52h59v320h213q171 0 244.5 -95.5zM455.5 94.5q56.5 37.5 79 102.5t22.5 156q0 92 -23 157t-79.5 102t-153.5 37h-140v-263h179v-52h-179v-277h140q98 0 154.5 37.5z" />
    <glyph glyph-name="dcroat" unicode="&#x111;" horiz-adv-x="561" 
d="M539 582h-58v-582h-60v84q-26 -47 -69.5 -70.5t-99.5 -23.5q-70 0 -116.5 34t-69 91t-22.5 127q0 68 22 125t68.5 92t117.5 35q56 0 99.5 -24.5t69.5 -71.5v184h-175v46h175v78h60v-78h58v-46zM349 66.5q35 21.5 53.5 63t18.5 99.5v26q0 57 -18.5 98t-53.5 63t-83 22
q-55 0 -90.5 -26.5t-51.5 -71t-16 -98.5q0 -55 16 -99.5t51.5 -71t90.5 -26.5q48 0 83 21.5z" />
    <glyph glyph-name="Emacron" unicode="&#x112;" horiz-adv-x="534" 
d="M95 706h389v-57h-323v-259h320v-58h-320v-275h323v-57h-389v706zM148 865h286v-49h-286v49z" />
    <glyph glyph-name="emacron" unicode="&#x113;" horiz-adv-x="536" 
d="M375 71q38 28 49 80h63q-8 -52 -37 -88t-74.5 -54.5t-101.5 -18.5q-78 0 -129.5 33.5t-76 90t-24.5 128.5q0 71 24.5 128t75.5 90.5t127 33.5q72 0 121.5 -31t74.5 -86q13 -30 18.5 -64t6.5 -81h-385q2 -87 41.5 -138t125.5 -51q63 0 101 28zM156 397.5
q-39 -42.5 -47 -115.5h318q-12 158 -156 158q-76 0 -115 -42.5zM133 661h275v-47h-275v47z" />
    <glyph glyph-name="Ebreve" unicode="&#x114;" horiz-adv-x="534" 
d="M95 706h389v-57h-323v-259h320v-58h-320v-275h323v-57h-389v706zM189 807q-35 32 -38 95h50q4 -44 25.5 -64.5t64.5 -20.5t64.5 20.5t26.5 64.5h48q-6 -127 -139 -127q-67 0 -102 32z" />
    <glyph glyph-name="ebreve" unicode="&#x115;" horiz-adv-x="536" 
d="M375 71q38 28 49 80h63q-8 -52 -37 -88t-74.5 -54.5t-101.5 -18.5q-78 0 -129.5 33.5t-76 90t-24.5 128.5q0 71 24.5 128t75.5 90.5t127 33.5q72 0 121.5 -31t74.5 -86q13 -30 18.5 -64t6.5 -81h-385q2 -87 41.5 -138t125.5 -51q63 0 101 28zM156 397.5
q-39 -42.5 -47 -115.5h318q-12 158 -156 158q-76 0 -115 -42.5zM164 609q-34 39 -37 117h51q3 -59 23.5 -86t68.5 -27t69 27t25 86h50q-4 -79 -37.5 -117.5t-106.5 -38.5q-72 0 -106 39z" />
    <glyph glyph-name="Edotaccent" unicode="&#x116;" horiz-adv-x="534" 
d="M95 706h389v-57h-323v-259h320v-58h-320v-275h323v-57h-389v706zM258.5 811q-12.5 12 -12.5 30q0 19 12.5 31t31.5 12t31.5 -12t12.5 -31q0 -18 -12.5 -30t-31.5 -12t-31.5 12z" />
    <glyph glyph-name="edotaccent" unicode="&#x117;" horiz-adv-x="536" 
d="M375 71q38 28 49 80h63q-8 -52 -37 -88t-74.5 -54.5t-101.5 -18.5q-78 0 -129.5 33.5t-76 90t-24.5 128.5q0 71 24.5 128t75.5 90.5t127 33.5q72 0 121.5 -31t74.5 -86q13 -30 18.5 -64t6.5 -81h-385q2 -87 41.5 -138t125.5 -51q63 0 101 28zM156 397.5
q-39 -42.5 -47 -115.5h318q-12 158 -156 158q-76 0 -115 -42.5zM237 616.5q-13 12.5 -13 32.5q0 21 13 34.5t34 13.5q20 0 33.5 -13.5t13.5 -34.5q0 -19 -13.5 -32t-33.5 -13q-21 0 -34 12.5z" />
    <glyph glyph-name="Eogonek" unicode="&#x118;" horiz-adv-x="534" 
d="M497 -157v-44q-26 -10 -59 -10q-43 0 -69 21.5t-26 60.5q0 35 21 64.5t65 64.5h-334v706h389v-57h-323v-259h320v-58h-320v-275h323v-57q-47 -41 -67 -67.5t-20 -54.5q0 -22 13.5 -33t35.5 -11q26 0 51 9z" />
    <glyph glyph-name="eogonek" unicode="&#x119;" horiz-adv-x="526" 
d="M375 71q38 28 49 80h63q-6 -38 -25.5 -70t-60.5 -70q-32 -31 -50 -50.5t-27 -38.5t-9 -39q0 -25 13.5 -37t36.5 -12q27 0 50 10v-45q-28 -11 -59 -11q-43 0 -69 23.5t-26 64.5q0 33 17 60.5t52 58.5q-28 -5 -56 -5q-78 0 -129.5 33.5t-76 90t-24.5 128.5q0 71 24.5 128
t75.5 90.5t127 33.5q72 0 121.5 -31t74.5 -86q13 -30 18.5 -64t6.5 -81h-385q2 -87 41.5 -138t125.5 -51q63 0 101 28zM156 397.5q-39 -42.5 -47 -115.5h318q-12 158 -156 158q-76 0 -115 -42.5z" />
    <glyph glyph-name="Ecaron" unicode="&#x11a;" horiz-adv-x="534" 
d="M95 706h389v-57h-323v-259h320v-58h-320v-275h323v-57h-389v706zM199 902l91 -90l93 90h71l-123 -123h-80l-123 123h71z" />
    <glyph glyph-name="ecaron" unicode="&#x11b;" horiz-adv-x="536" 
d="M375 71q38 28 49 80h63q-8 -52 -37 -88t-74.5 -54.5t-101.5 -18.5q-78 0 -129.5 33.5t-76 90t-24.5 128.5q0 71 24.5 128t75.5 90.5t127 33.5q72 0 121.5 -31t74.5 -86q13 -30 18.5 -64t6.5 -81h-385q2 -87 41.5 -138t125.5 -51q63 0 101 28zM156 397.5
q-39 -42.5 -47 -115.5h318q-12 158 -156 158q-76 0 -115 -42.5zM312 571h-82l-104 154h64l81 -121l81 121h64z" />
    <glyph glyph-name="Gcircumflex" unicode="&#x11c;" horiz-adv-x="700" 
d="M648 363v-47q0 -150 -68 -240.5t-220 -90.5q-109 0 -177.5 49t-99 131.5t-30.5 187.5q0 108 31.5 190t100.5 130t179 48q83 0 143.5 -29.5t95 -85t38.5 -133.5h-63q-7 95 -62 142.5t-153 47.5q-133 0 -187 -85t-54 -225q0 -310 240 -310q120 0 170.5 69t50.5 186v7h-199
v58h264zM320 902h80l123 -123h-71l-93 91l-91 -91h-71z" />
    <glyph glyph-name="gcircumflex" unicode="&#x11d;" horiz-adv-x="560" 
d="M480 482v-479q0 -101 -50.5 -158t-161.5 -57q-95 0 -151 42t-60 123h64q1 -55 40.5 -84t105.5 -29q153 0 153 154v86q-26 -44 -69 -66.5t-100 -22.5q-71 0 -117.5 34.5t-68 91.5t-21.5 126t22 125.5t68.5 91t116.5 34.5q56 0 99.5 -23t69.5 -67v78h60zM379 94
q41 48 41 135v27q0 57 -18.5 98t-53.5 62.5t-82 21.5q-55 0 -90.5 -26.5t-51.5 -71t-16 -98.5q0 -55 16 -99t51.5 -70.5t90.5 -26.5q72 0 113 48zM228 726h82l104 -154h-64l-81 121l-81 -121h-64z" />
    <glyph glyph-name="Gbreve" unicode="&#x11e;" horiz-adv-x="700" 
d="M648 363v-47q0 -150 -68 -240.5t-220 -90.5q-109 0 -177.5 49t-99 131.5t-30.5 187.5q0 108 31.5 190t100.5 130t179 48q83 0 143.5 -29.5t95 -85t38.5 -133.5h-63q-7 95 -62 142.5t-153 47.5q-133 0 -187 -85t-54 -225q0 -310 240 -310q120 0 170.5 69t50.5 186v7h-199
v58h264zM258 807q-35 32 -38 95h50q4 -44 25.5 -64.5t64.5 -20.5t64.5 20.5t26.5 64.5h48q-6 -127 -139 -127q-67 0 -102 32z" />
    <glyph glyph-name="gbreve" unicode="&#x11f;" horiz-adv-x="560" 
d="M480 482v-479q0 -101 -50.5 -158t-161.5 -57q-95 0 -151 42t-60 123h64q1 -55 40.5 -84t105.5 -29q153 0 153 154v86q-26 -44 -69 -66.5t-100 -22.5q-71 0 -117.5 34.5t-68 91.5t-21.5 126t22 125.5t68.5 91t116.5 34.5q56 0 99.5 -23t69.5 -67v78h60zM379 94
q41 48 41 135v27q0 57 -18.5 98t-53.5 62.5t-82 21.5q-55 0 -90.5 -26.5t-51.5 -71t-16 -98.5q0 -55 16 -99t51.5 -70.5t90.5 -26.5q72 0 113 48zM162 609q-34 39 -37 117h51q3 -59 23.5 -86t68.5 -27t69 27t25 86h50q-4 -79 -37.5 -117.5t-106.5 -38.5q-72 0 -106 39z" />
    <glyph glyph-name="Gdotaccent" unicode="&#x120;" horiz-adv-x="700" 
d="M648 363v-47q0 -150 -68 -240.5t-220 -90.5q-109 0 -177.5 49t-99 131.5t-30.5 187.5q0 108 31.5 190t100.5 130t179 48q83 0 143.5 -29.5t95 -85t38.5 -133.5h-63q-7 95 -62 142.5t-153 47.5q-133 0 -187 -85t-54 -225q0 -310 240 -310q120 0 170.5 69t50.5 186v7h-199
v58h264zM328.5 811q-12.5 12 -12.5 30q0 19 12.5 31t31.5 12t31.5 -12t12.5 -31q0 -18 -12.5 -30t-31.5 -12t-31.5 12z" />
    <glyph glyph-name="gdotaccent" unicode="&#x121;" horiz-adv-x="560" 
d="M480 482v-479q0 -101 -50.5 -158t-161.5 -57q-95 0 -151 42t-60 123h64q1 -55 40.5 -84t105.5 -29q153 0 153 154v86q-26 -44 -69 -66.5t-100 -22.5q-71 0 -117.5 34.5t-68 91.5t-21.5 126t22 125.5t68.5 91t116.5 34.5q56 0 99.5 -23t69.5 -67v78h60zM379 94
q41 48 41 135v27q0 57 -18.5 98t-53.5 62.5t-82 21.5q-55 0 -90.5 -26.5t-51.5 -71t-16 -98.5q0 -55 16 -99t51.5 -70.5t90.5 -26.5q72 0 113 48zM235 616.5q-13 12.5 -13 32.5q0 21 13 34.5t34 13.5q20 0 33.5 -13.5t13.5 -34.5q0 -19 -13.5 -32t-33.5 -13q-21 0 -34 12.5z
" />
    <glyph glyph-name="Gcommaaccent" unicode="&#x122;" horiz-adv-x="700" 
d="M648 363v-47q0 -150 -68 -240.5t-220 -90.5q-109 0 -177.5 49t-99 131.5t-30.5 187.5q0 108 31.5 190t100.5 130t179 48q83 0 143.5 -29.5t95 -85t38.5 -133.5h-63q-7 95 -62 142.5t-153 47.5q-133 0 -187 -85t-54 -225q0 -310 240 -310q120 0 170.5 69t50.5 186v7h-199
v58h264zM331 -54h63l-37 -147h-57z" />
    <glyph glyph-name="gcommaaccent" unicode="&#x123;" horiz-adv-x="560" 
d="M480 482v-479q0 -101 -50.5 -158t-161.5 -57q-95 0 -151 42t-60 123h64q1 -55 40.5 -84t105.5 -29q153 0 153 154v86q-26 -44 -69 -66.5t-100 -22.5q-71 0 -117.5 34.5t-68 91.5t-21.5 126t22 125.5t68.5 91t116.5 34.5q56 0 99.5 -23t69.5 -67v78h60zM379 94
q41 48 41 135v27q0 57 -18.5 98t-53.5 62.5t-82 21.5q-55 0 -90.5 -26.5t-51.5 -71t-16 -98.5q0 -55 16 -99t51.5 -70.5t90.5 -26.5q72 0 113 48zM284 573h-63l37 147h57z" />
    <glyph glyph-name="Hcircumflex" unicode="&#x124;" horiz-adv-x="670" 
d="M95 706h66v-316h348v316h66v-706h-66v332h-348v-332h-66v706zM295 902h80l123 -123h-71l-93 91l-91 -91h-71z" />
    <glyph glyph-name="hcircumflex" unicode="&#x125;" horiz-adv-x="548" 
d="M472 292v-292h-61v281q0 81 -31 119t-97 38q-68 0 -105 -39.5t-37 -114.5v-284h-61v706h61v-293q24 41 64 61t93 20q174 0 174 -202zM236 902h80l123 -123h-71l-93 91l-91 -91h-71z" />
    <glyph glyph-name="Hbar" unicode="&#x126;" horiz-adv-x="670" 
d="M575 706v-706h-66v332h-348v-332h-66v706h66v-127h348v127h66zM509 390v142h-348v-142h348z" />
    <glyph glyph-name="hbar" unicode="&#x127;" horiz-adv-x="548" 
d="M472 292v-292h-61v281q0 81 -31 119t-97 38q-68 0 -105 -39.5t-37 -114.5v-284h-61v582h-61v46h61v78h61v-78h172v-46h-172v-169q24 41 64 61t93 20q174 0 174 -202z" />
    <glyph glyph-name="Itilde" unicode="&#x128;" horiz-adv-x="256" 
d="M95 706h66v-706h-66v706zM147 787q-15 11 -30 33q-14 21 -24 30.5t-25 9.5q-21 0 -29.5 -20.5t-10.5 -60.5h-42q2 64 21.5 94.5t60.5 30.5q26 0 40.5 -11t29.5 -33q14 -21 24 -30t24 -9q22 0 30.5 19.5t10.5 61.5h42q-2 -65 -21 -95.5t-60 -30.5q-26 0 -41 11z" />
    <glyph glyph-name="itilde" unicode="&#x129;" horiz-adv-x="220" 
d="M80 482h61v-482h-61v482zM124.5 583.5q-14.5 14.5 -27.5 47.5q-1 3 -7.5 20t-13.5 24.5t-16 7.5q-12 0 -18.5 -12t-9.5 -35.5t-4 -63.5h-43q2 57 8.5 90.5t21.5 50t41 16.5t40.5 -14.5t27.5 -47.5q9 -27 16.5 -39.5t20.5 -12.5q12 0 18.5 12t9.5 35.5t4 63.5h43
q-2 -57 -8.5 -90.5t-21.5 -50t-42 -16.5q-25 0 -39.5 14.5z" />
    <glyph glyph-name="Imacron" unicode="&#x12a;" horiz-adv-x="256" 
d="M95 706h66v-706h-66v706zM21 865h214v-49h-214v49z" />
    <glyph glyph-name="imacron" unicode="&#x12b;" horiz-adv-x="220" 
d="M80 482h61v-482h-61v482zM11 661h199v-47h-199v47z" />
    <glyph glyph-name="Ibreve" unicode="&#x12c;" horiz-adv-x="256" 
d="M95 706h66v-706h-66v706zM41 806.5q-27 31.5 -27 95.5h49q2 -45 16 -64.5t49 -19.5t49.5 19.5t15.5 64.5h50q-1 -64 -27.5 -95.5t-87.5 -31.5q-60 0 -87 31.5z" />
    <glyph glyph-name="ibreve" unicode="&#x12d;" horiz-adv-x="220" 
d="M80 482h61v-482h-61v482zM25 608.5q-27 38.5 -28 117.5h48q1 -61 15.5 -87.5t49.5 -26.5q25 0 39.5 12t20.5 36.5t7 65.5h47q-1 -79 -28 -117.5t-86 -38.5q-58 0 -85 38.5z" />
    <glyph glyph-name="Iogonek" unicode="&#x12e;" horiz-adv-x="256" 
d="M179 -157v-44q-21 -10 -49 -10q-39 0 -62 20t-23 55q0 37 15.5 68t47.5 68h-13v706h66v-706q-33 -43 -47.5 -71t-14.5 -58q0 -19 11 -28t29 -9q19 0 40 9z" />
    <glyph glyph-name="iogonek" unicode="&#x12f;" horiz-adv-x="220" 
d="M77 615q-13 13 -13 33t13 33.5t34 13.5q20 0 33.5 -13.5t13.5 -33.5t-13.5 -33t-33.5 -13q-21 0 -34 13zM90 -157q11 -9 29 -9q20 0 39 9v-44q-20 -10 -48 -10q-39 0 -62.5 20t-23.5 55q0 36 16 67.5t48 68.5h-8v482h61v-482q-33 -43 -47.5 -71t-14.5 -58q0 -19 11 -28z
" />
    <glyph glyph-name="Idotaccent" unicode="&#x130;" horiz-adv-x="256" 
d="M95 706h66v-706h-66v706zM96.5 811q-12.5 12 -12.5 30q0 19 12.5 31t31.5 12t31.5 -12t12.5 -31q0 -18 -12.5 -30t-31.5 -12t-31.5 12z" />
    <glyph glyph-name="dotlessi" unicode="&#x131;" horiz-adv-x="220" 
d="M80 482h61v-482h-61v482z" />
    <glyph glyph-name="IJ" unicode="&#x132;" horiz-adv-x="607" 
d="M95 706h66v-706h-66v706zM280 2v61q28 -5 53 -5q48 0 76.5 15t42 48t13.5 88v497h65v-507q0 -70 -19.5 -114.5t-60.5 -66t-107 -21.5q-28 0 -63 5z" />
    <glyph glyph-name="ij" unicode="&#x133;" horiz-adv-x="441" 
d="M77 615q-13 13 -13 33t13 33.5t34 13.5q20 0 33.5 -13.5t13.5 -33.5t-13.5 -33t-33.5 -13q-21 0 -34 13zM80 482h61v-482h-61v482zM296 615q-13 13 -13 33t13 33.5t34 13.5q20 0 33.5 -13.5t13.5 -33.5t-13.5 -33t-33.5 -13q-21 0 -34 13zM198 -201v55q14 -2 33 -2
q37 0 53 17t16 58v555h61v-559q0 -67 -29 -97t-93 -30q-19 0 -41 3z" />
    <glyph glyph-name="Jcircumflex" unicode="&#x134;" horiz-adv-x="350" 
d="M24 2v61q28 -5 53 -5q48 0 76.5 15t42 48t13.5 88v497h65v-507q0 -70 -19.5 -114.5t-60.5 -66t-107 -21.5q-28 0 -63 5zM204 902h72l85 -123h-60l-60 89l-61 -89h-59z" />
    <glyph glyph-name="jcircumflex" unicode="&#x135;" horiz-adv-x="220" 
d="M-22 -201v55q14 -2 33 -2q37 0 53 17t16 58v555h61v-559q0 -67 -29 -97t-93 -30q-19 0 -41 3zM76 726h69l89 -154h-56l-67 117l-68 -117h-56z" />
    <glyph glyph-name="Kcommaaccent" unicode="&#x136;" horiz-adv-x="556" 
d="M466 0l-305 361v-361h-66v706h66v-301l267 301h77l-284 -320l326 -386h-81zM274 -54h63l-37 -147h-57z" />
    <glyph glyph-name="kcommaaccent" unicode="&#x137;" horiz-adv-x="443" 
d="M366 0l-225 251v-251h-61v706h61v-416l200 192h79l-222 -212l247 -270h-79zM221 -54h63l-37 -147h-57z" />
    <glyph glyph-name="kgreenlandic" unicode="&#x138;" horiz-adv-x="443" 
d="M366 0l-225 251v-251h-61v482h61v-192l200 192h79l-222 -212l247 -270h-79z" />
    <glyph glyph-name="Lacute" unicode="&#x139;" horiz-adv-x="475" 
d="M95 706h66v-647h289v-59h-355v706zM175 902h77l-128 -123h-70z" />
    <glyph glyph-name="lacute" unicode="&#x13a;" horiz-adv-x="220" 
d="M80 706h61v-706h-61v706zM159 902h77l-128 -123h-70z" />
    <glyph glyph-name="Lcommaaccent" unicode="&#x13b;" horiz-adv-x="475" 
d="M95 706h66v-647h289v-59h-355v706zM237 -54h63l-37 -147h-57z" />
    <glyph glyph-name="lcommaaccent" unicode="&#x13c;" horiz-adv-x="220" 
d="M80 706h61v-706h-61v706zM81 -54h63l-37 -147h-57z" />
    <glyph glyph-name="Lcaron" unicode="&#x13d;" horiz-adv-x="475" 
d="M95 706h66v-647h289v-59h-355v706zM288 706h57l-36 -166h-51z" />
    <glyph glyph-name="lcaron" unicode="&#x13e;" horiz-adv-x="241" 
d="M80 706h61v-706h-61v706zM213 706h57l-36 -166h-51z" />
    <glyph glyph-name="Ldot" unicode="&#x13f;" horiz-adv-x="511" 
d="M95 706h66v-647h289v-59h-355v706zM349 352q-13 13 -13 35t13 35.5t35 13.5q21 0 35 -14t14 -35t-14 -34.5t-35 -13.5q-22 0 -35 13z" />
    <glyph glyph-name="ldot" unicode="&#x140;" horiz-adv-x="331" 
d="M80 706h61v-706h-61v706zM240 298q-13 13 -13 35t13 35.5t35 13.5q21 0 35 -14t14 -35t-14 -34.5t-35 -13.5q-22 0 -35 13z" />
    <glyph glyph-name="Lslash" unicode="&#x141;" horiz-adv-x="475" 
d="M450 59v-59h-355v327l-64 -43v59l64 43v320h66v-283l143 97v-60l-143 -97v-304h289z" />
    <glyph glyph-name="lslash" unicode="&#x142;" horiz-adv-x="236" 
d="M225 429l-76 -56v-373h-61v342l-76 -54v59l76 55v304h61v-272l76 55v-60z" />
    <glyph glyph-name="Nacute" unicode="&#x143;" horiz-adv-x="697" 
d="M95 706h71l373 -607v607h63v-706h-71l-372 607v-607h-64v706zM398 902h77l-128 -123h-70z" />
    <glyph glyph-name="nacute" unicode="&#x144;" horiz-adv-x="548" 
d="M472 292v-292h-61v281q0 81 -31 119t-97 38q-68 0 -105 -39.5t-37 -114.5v-284h-61v482h61v-69q24 41 64 61t93 20q174 0 174 -202zM318 726h67l-101 -153h-61z" />
    <glyph glyph-name="Ncommaaccent" unicode="&#x145;" horiz-adv-x="697" 
d="M95 706h71l373 -607v607h63v-706h-71l-372 607v-607h-64v706zM314 -54h63l-37 -147h-57z" />
    <glyph glyph-name="ncommaaccent" unicode="&#x146;" horiz-adv-x="548" 
d="M472 292v-292h-61v281q0 81 -31 119t-97 38q-68 0 -105 -39.5t-37 -114.5v-284h-61v482h61v-69q24 41 64 61t93 20q174 0 174 -202zM256 -54h63l-37 -147h-57z" />
    <glyph glyph-name="Ncaron" unicode="&#x147;" horiz-adv-x="697" 
d="M95 706h71l373 -607v607h63v-706h-71l-372 607v-607h-64v706zM258 902l91 -90l93 90h71l-123 -123h-80l-123 123h71z" />
    <glyph glyph-name="ncaron" unicode="&#x148;" horiz-adv-x="548" 
d="M472 292v-292h-61v281q0 81 -31 119t-97 38q-68 0 -105 -39.5t-37 -114.5v-284h-61v482h61v-69q24 41 64 61t93 20q174 0 174 -202zM325 571h-82l-104 154h64l81 -121l81 121h64z" />
    <glyph glyph-name="napostrophe" unicode="&#x149;" horiz-adv-x="679" 
d="M603 292v-292h-61v281q0 81 -31 119t-97 38q-68 0 -105 -39.5t-37 -114.5v-284h-61v482h61v-69q24 41 64 61t93 20q174 0 174 -202zM113 706h65l-83 -281h-50z" />
    <glyph glyph-name="Eng" unicode="&#x14a;" horiz-adv-x="697" 
d="M602 706v-787q0 -64 -27.5 -93t-89.5 -29q-29 0 -47 2v55q26 -2 31 -2q37 0 53.5 18t16.5 60v69l-380 607v-606h-64v706h71l373 -597v597h63z" />
    <glyph glyph-name="eng" unicode="&#x14b;" horiz-adv-x="548" 
d="M472 292v-368q0 -67 -29 -97t-92 -30q-26 0 -41 2v56q21 -3 33 -3q36 0 52 17t16 58v354q0 81 -31 119t-97 38q-68 0 -105 -39.5t-37 -114.5v-284h-61v482h61v-69q24 41 64 61t93 20q174 0 174 -202z" />
    <glyph glyph-name="Omacron" unicode="&#x14c;" horiz-adv-x="720" 
d="M180.5 35.5q-68.5 50.5 -98 132.5t-29.5 185q0 104 30 186t98.5 132t178.5 50q111 0 179.5 -49.5t98.5 -131.5t30 -187t-30.5 -187.5t-99 -131.5t-178.5 -49q-111 0 -179.5 50.5zM545 129q54 86 54 224q0 139 -54.5 224.5t-184.5 85.5t-184 -85.5t-54 -224.5t54 -224.5
t184 -85.5q131 0 185 86zM217 865h286v-49h-286v49z" />
    <glyph glyph-name="omacron" unicode="&#x14d;" horiz-adv-x="534" 
d="M141 24q-50 35 -73.5 91.5t-23.5 124.5q0 69 24 126.5t74 92.5t125 35q77 0 127 -35.5t73 -93t23 -125.5t-23.5 -124.5t-73.5 -91.5t-126 -35t-126 35zM389 100q37 56 37 140q0 88 -38 143t-121 55q-84 0 -121.5 -56.5t-37.5 -141.5q0 -86 38 -141t121 -55q85 0 122 56z
M130 661h275v-47h-275v47z" />
    <glyph glyph-name="Obreve" unicode="&#x14e;" horiz-adv-x="720" 
d="M180.5 35.5q-68.5 50.5 -98 132.5t-29.5 185q0 104 30 186t98.5 132t178.5 50q111 0 179.5 -49.5t98.5 -131.5t30 -187t-30.5 -187.5t-99 -131.5t-178.5 -49q-111 0 -179.5 50.5zM545 129q54 86 54 224q0 139 -54.5 224.5t-184.5 85.5t-184 -85.5t-54 -224.5t54 -224.5
t184 -85.5q131 0 185 86zM258 807q-35 32 -38 95h50q4 -44 25.5 -64.5t64.5 -20.5t64.5 20.5t26.5 64.5h48q-6 -127 -139 -127q-67 0 -102 32z" />
    <glyph glyph-name="obreve" unicode="&#x14f;" horiz-adv-x="534" 
d="M141 24q-50 35 -73.5 91.5t-23.5 124.5q0 69 24 126.5t74 92.5t125 35q77 0 127 -35.5t73 -93t23 -125.5t-23.5 -124.5t-73.5 -91.5t-126 -35t-126 35zM389 100q37 56 37 140q0 88 -38 143t-121 55q-84 0 -121.5 -56.5t-37.5 -141.5q0 -86 38 -141t121 -55q85 0 122 56z
M161 609q-34 39 -37 117h51q3 -59 23.5 -86t68.5 -27t69 27t25 86h50q-4 -79 -37.5 -117.5t-106.5 -38.5q-72 0 -106 39z" />
    <glyph glyph-name="Ohungarumlaut" unicode="&#x150;" horiz-adv-x="720" 
d="M180.5 35.5q-68.5 50.5 -98 132.5t-29.5 185q0 104 30 186t98.5 132t178.5 50q111 0 179.5 -49.5t98.5 -131.5t30 -187t-30.5 -187.5t-99 -131.5t-178.5 -49q-111 0 -179.5 50.5zM545 129q54 86 54 224q0 139 -54.5 224.5t-184.5 85.5t-184 -85.5t-54 -224.5t54 -224.5
t184 -85.5q131 0 185 86zM364 902h67l-123 -122h-58zM502 902h66l-122 -122h-58z" />
    <glyph glyph-name="ohungarumlaut" unicode="&#x151;" horiz-adv-x="534" 
d="M141 24q-50 35 -73.5 91.5t-23.5 124.5q0 69 24 126.5t74 92.5t125 35q77 0 127 -35.5t73 -93t23 -125.5t-23.5 -124.5t-73.5 -91.5t-126 -35t-126 35zM389 100q37 56 37 140q0 88 -38 143t-121 55q-84 0 -121.5 -56.5t-37.5 -141.5q0 -86 38 -141t121 -55q85 0 122 56z
M273 726h63l-121 -153h-53zM408 726h63l-119 -153h-54z" />
    <glyph glyph-name="OE" unicode="&#x152;" horiz-adv-x="1006" 
d="M634 649v-260h319v-57h-319v-275h322v-57h-384v108q-71 -122 -227 -122q-106 0 -171.5 50.5t-93 132.5t-27.5 184t28.5 184t93.5 132.5t170 50.5q81 0 137.5 -32t89.5 -90v108h384v-57h-322zM519.5 131.5q50.5 85.5 50.5 221.5q0 138 -50.5 222.5t-173.5 84.5
q-124 0 -174 -85t-50 -222q0 -139 51 -223t173 -84q123 0 173.5 85.5z" />
    <glyph glyph-name="oe" unicode="&#x153;" horiz-adv-x="869" 
d="M716 73q34 30 42 78h62q-8 -47 -32.5 -83.5t-66 -57.5t-98.5 -21q-70 0 -116.5 29.5t-71.5 80.5q-24 -51 -68.5 -80t-110.5 -29q-72 0 -120 35t-70 92t-22 125t22.5 125.5t70.5 92t119 34.5q66 0 110.5 -29.5t68.5 -81.5q25 52 69.5 81.5t110.5 29.5q68 0 114.5 -30
t70.5 -84q14 -30 19.5 -66.5t5.5 -81.5h-360q2 -85 40 -137t116 -52q61 0 95 30zM467 281h294q-5 74 -39.5 117t-105.5 43q-136 0 -149 -160zM367.5 100q34.5 55 34.5 142q0 85 -34.5 140.5t-111.5 55.5q-79 0 -113 -55t-34 -141q0 -88 35 -142.5t112 -54.5t111.5 55z" />
    <glyph glyph-name="Racute" unicode="&#x154;" horiz-adv-x="606" 
d="M273 330h-112v-330h-66v706h230q118 0 172.5 -49.5t54.5 -136.5q0 -181 -203 -189l243 -331h-77zM161 384h153q90 0 129.5 33.5t39.5 100.5t-40 100t-129 33h-153v-267zM357 902h77l-128 -123h-70z" />
    <glyph glyph-name="racute" unicode="&#x155;" horiz-adv-x="327" 
d="M312 482v-56q-20 5 -45 5q-62 0 -94 -38.5t-32 -107.5v-285h-61v482h60v-67q18 35 49.5 54t77.5 19q24 0 45 -6zM234 726h67l-101 -153h-61z" />
    <glyph glyph-name="Rcommaaccent" unicode="&#x156;" horiz-adv-x="606" 
d="M273 330h-112v-330h-66v706h230q118 0 172.5 -49.5t54.5 -136.5q0 -181 -203 -189l243 -331h-77zM161 384h153q90 0 129.5 33.5t39.5 100.5t-40 100t-129 33h-153v-267zM304 -54h63l-37 -147h-57z" />
    <glyph glyph-name="rcommaaccent" unicode="&#x157;" horiz-adv-x="327" 
d="M312 482v-56q-20 5 -45 5q-62 0 -94 -38.5t-32 -107.5v-285h-61v482h60v-67q18 35 49.5 54t77.5 19q24 0 45 -6zM81 -54h63l-37 -147h-57z" />
    <glyph glyph-name="Rcaron" unicode="&#x158;" horiz-adv-x="606" 
d="M273 330h-112v-330h-66v706h230q118 0 172.5 -49.5t54.5 -136.5q0 -181 -203 -189l243 -331h-77zM161 384h153q90 0 129.5 33.5t39.5 100.5t-40 100t-129 33h-153v-267zM216 902l91 -90l93 90h71l-123 -123h-80l-123 123h71z" />
    <glyph glyph-name="rcaron" unicode="&#x159;" horiz-adv-x="327" 
d="M312 482v-56q-20 5 -45 5q-62 0 -94 -38.5t-32 -107.5v-285h-61v482h60v-67q18 35 49.5 54t77.5 19q24 0 45 -6zM241 571h-82l-104 154h64l81 -121l81 121h64z" />
    <glyph glyph-name="Sacute" unicode="&#x15a;" horiz-adv-x="586" 
d="M98.5 52.5q-59.5 67.5 -59.5 181.5h70q0 -92 42.5 -142.5t144.5 -50.5q59 0 99.5 18t61 50t20.5 74q0 48 -26 76.5t-67 44t-116 34.5q-71 18 -116.5 40.5t-71.5 59t-26 93.5q0 53 26 96t78 68.5t125 25.5q121 0 177.5 -65t56.5 -172h-68q0 181 -167 181q-52 0 -88 -17
t-54 -46t-18 -66q0 -46 24.5 -72.5t61 -39.5t119.5 -35q78 -22 124 -44.5t71 -60t25 -96.5q0 -61 -28.5 -106.5t-85.5 -71t-138 -25.5q-137 0 -196.5 67.5zM342 902h77l-128 -123h-70z" />
    <glyph glyph-name="sacute" unicode="&#x15b;" horiz-adv-x="456" 
d="M86 35.5q-44 46.5 -44 125.5h60q0 -56 30 -88.5t97 -32.5q61 0 91 23.5t30 65.5q0 31 -17 49t-42 26.5t-73 20.5q-51 12 -85 27.5t-53.5 41.5t-19.5 67q0 39 18 69t55 47t91 17q86 0 128 -41.5t42 -113.5h-60q0 49 -27 77.5t-84 28.5q-52 0 -77 -21.5t-25 -57.5
q0 -29 18 -45.5t40.5 -24t75.5 -20.5q53 -14 87 -30.5t53.5 -43.5t19.5 -69q0 -68 -48.5 -106t-137.5 -38q-99 0 -143 46.5zM258 726h67l-101 -153h-61z" />
    <glyph glyph-name="Scircumflex" unicode="&#x15c;" horiz-adv-x="586" 
d="M98.5 52.5q-59.5 67.5 -59.5 181.5h70q0 -92 42.5 -142.5t144.5 -50.5q59 0 99.5 18t61 50t20.5 74q0 48 -26 76.5t-67 44t-116 34.5q-71 18 -116.5 40.5t-71.5 59t-26 93.5q0 53 26 96t78 68.5t125 25.5q121 0 177.5 -65t56.5 -172h-68q0 181 -167 181q-52 0 -88 -17
t-54 -46t-18 -66q0 -46 24.5 -72.5t61 -39.5t119.5 -35q78 -22 124 -44.5t71 -60t25 -96.5q0 -61 -28.5 -106.5t-85.5 -71t-138 -25.5q-137 0 -196.5 67.5zM253 902h80l123 -123h-71l-93 91l-91 -91h-71z" />
    <glyph glyph-name="scircumflex" unicode="&#x15d;" horiz-adv-x="456" 
d="M86 35.5q-44 46.5 -44 125.5h60q0 -56 30 -88.5t97 -32.5q61 0 91 23.5t30 65.5q0 31 -17 49t-42 26.5t-73 20.5q-51 12 -85 27.5t-53.5 41.5t-19.5 67q0 39 18 69t55 47t91 17q86 0 128 -41.5t42 -113.5h-60q0 49 -27 77.5t-84 28.5q-52 0 -77 -21.5t-25 -57.5
q0 -29 18 -45.5t40.5 -24t75.5 -20.5q53 -14 87 -30.5t53.5 -43.5t19.5 -69q0 -68 -48.5 -106t-137.5 -38q-99 0 -143 46.5zM182 726h82l104 -154h-64l-81 121l-81 -121h-64z" />
    <glyph glyph-name="Scedilla" unicode="&#x15e;" horiz-adv-x="586" 
d="M520.5 84.5q-26.5 -44.5 -79.5 -70.5t-129 -29l-12 -39h13q47 0 72 -21t25 -57q0 -41 -29 -62t-84 -21q-40 0 -73 12l9 40q28 -11 60 -11q68 0 68 43q0 42 -70 42h-49l22 75q-120 8 -172.5 74.5t-52.5 173.5h70q0 -92 42.5 -142.5t144.5 -50.5q59 0 99.5 18t61 50
t20.5 74q0 48 -26 76.5t-67 44t-116 34.5q-71 18 -116.5 40.5t-71.5 59t-26 93.5q0 53 26 96t78 68.5t125 25.5q121 0 177.5 -65t56.5 -172h-68q0 181 -167 181q-52 0 -88 -17t-54 -46t-18 -66q0 -46 24.5 -72.5t61 -39.5t119.5 -35q78 -22 124 -44.5t71 -60t25 -96.5
t-26.5 -103.5z" />
    <glyph glyph-name="scedilla" unicode="&#x15f;" horiz-adv-x="456" 
d="M373 32.5q-42 -37.5 -119 -42.5l-13 -44h13q47 0 72 -21t25 -57q0 -41 -29 -62t-84 -21q-40 0 -73 12l9 40q28 -11 60 -11q68 0 68 43q0 42 -70 42h-49l23 79q-86 6 -125 51.5t-39 119.5h60q0 -56 30 -88.5t97 -32.5q61 0 91 23.5t30 65.5q0 31 -17 49t-42 26.5t-73 20.5
q-51 12 -85 27.5t-53.5 41.5t-19.5 67q0 39 18 69t55 47t91 17q86 0 128 -41.5t42 -113.5h-60q0 49 -27 77.5t-84 28.5q-52 0 -77 -21.5t-25 -57.5q0 -29 18 -45.5t40.5 -24t75.5 -20.5q53 -14 87 -30.5t53.5 -43.5t19.5 -69q0 -63 -42 -100.5z" />
    <glyph glyph-name="Scaron" unicode="&#x160;" horiz-adv-x="586" 
d="M98.5 52.5q-59.5 67.5 -59.5 181.5h70q0 -92 42.5 -142.5t144.5 -50.5q59 0 99.5 18t61 50t20.5 74q0 48 -26 76.5t-67 44t-116 34.5q-71 18 -116.5 40.5t-71.5 59t-26 93.5q0 53 26 96t78 68.5t125 25.5q121 0 177.5 -65t56.5 -172h-68q0 181 -167 181q-52 0 -88 -17
t-54 -46t-18 -66q0 -46 24.5 -72.5t61 -39.5t119.5 -35q78 -22 124 -44.5t71 -60t25 -96.5q0 -61 -28.5 -106.5t-85.5 -71t-138 -25.5q-137 0 -196.5 67.5zM201 902l91 -90l93 90h71l-123 -123h-80l-123 123h71z" />
    <glyph glyph-name="scaron" unicode="&#x161;" horiz-adv-x="456" 
d="M86 35.5q-44 46.5 -44 125.5h60q0 -56 30 -88.5t97 -32.5q61 0 91 23.5t30 65.5q0 31 -17 49t-42 26.5t-73 20.5q-51 12 -85 27.5t-53.5 41.5t-19.5 67q0 39 18 69t55 47t91 17q86 0 128 -41.5t42 -113.5h-60q0 49 -27 77.5t-84 28.5q-52 0 -77 -21.5t-25 -57.5
q0 -29 18 -45.5t40.5 -24t75.5 -20.5q53 -14 87 -30.5t53.5 -43.5t19.5 -69q0 -68 -48.5 -106t-137.5 -38q-99 0 -143 46.5zM264 571h-82l-104 154h64l81 -121l81 121h64z" />
    <glyph glyph-name="uni0162" unicode="&#x162;" horiz-adv-x="553" 
d="M300 0l-16 -54h13q47 0 72 -21t25 -57q0 -41 -29 -62t-84 -21q-40 0 -73 12l8 40q30 -11 61 -11q67 0 67 43q0 42 -69 42h-49l26 89h-8v649h-220v57h504v-57h-219v-649h-9z" />
    <glyph glyph-name="uni0163" unicode="&#x163;" horiz-adv-x="350" 
d="M302.5 -75.5q25.5 -21.5 25.5 -56.5q0 -41 -29.5 -62t-83.5 -21q-40 0 -73 12l8 40q28 -11 60 -11q68 0 68 43q0 42 -70 42h-49l26 88q-42 11 -62 45t-20 94v292h-80v52h80v118h61v-118h149v-52h-149v-286q0 -50 21.5 -73.5t64.5 -23.5q30 0 60 8v-53q-40 -9 -74 -9h-5
l-13 -47h12q47 0 72.5 -21.5z" />
    <glyph glyph-name="Tcaron" unicode="&#x164;" horiz-adv-x="553" 
d="M244 649h-220v57h504v-57h-219v-649h-65v649zM183 902l91 -90l93 90h71l-123 -123h-80l-123 123h71z" />
    <glyph glyph-name="tcaron" unicode="&#x165;" horiz-adv-x="368" 
d="M135 28q-32 35 -32 110v292h-80v52h80v118h61v-118h149v-52h-149v-286q0 -50 21.5 -73.5t64.5 -23.5q30 0 60 8v-53q-40 -9 -74 -9q-69 0 -101 35zM244 704h57l-36 -166h-51z" />
    <glyph glyph-name="Tbar" unicode="&#x166;" horiz-adv-x="553" 
d="M309 649v-208h135v-50h-135v-391h-65v391h-136v50h136v208h-220v57h504v-57h-219z" />
    <glyph glyph-name="tbar" unicode="&#x167;" horiz-adv-x="350" 
d="M164 245v-101q0 -50 21.5 -73.5t64.5 -23.5q30 0 60 8v-53q-40 -9 -74 -9q-69 0 -101 35t-32 110v107h-81v48h81v137h-80v52h80v118h61v-118h149v-52h-149v-137h150v-48h-150z" />
    <glyph glyph-name="Utilde" unicode="&#x168;" horiz-adv-x="626" 
d="M134 41q-58 56 -58 171v494h66v-491q0 -89 40.5 -130.5t130.5 -41.5q91 0 131.5 41.5t40.5 130.5v491h65v-494q0 -115 -57.5 -171t-179.5 -56q-121 0 -179 56zM346.5 786q-20.5 11 -41.5 33q-4 4 -16.5 16t-25 18t-27.5 6q-28 0 -41 -22.5t-16 -59.5h-46q3 60 27.5 94
t73.5 34q28 0 48 -10.5t43 -33.5l15 -15t24.5 -18t25.5 -6q28 0 41.5 21.5t16.5 59.5h47q-8 -128 -101 -128q-27 0 -47.5 11z" />
    <glyph glyph-name="utilde" unicode="&#x169;" horiz-adv-x="548" 
d="M468 482v-482h-61v70q-46 -81 -157 -81q-174 0 -174 202v291h61v-281q0 -81 31 -118.5t97 -37.5q68 0 105 39.5t37 114.5v283h61zM301.5 581.5q-17.5 12.5 -39.5 47.5q-2 3 -12.5 20t-21.5 24.5t-23 7.5q-25 0 -35 -26t-12 -83h-46q2 80 22.5 118.5t66.5 38.5
q26 0 43.5 -13t40.5 -48q9 -13 18 -25.5t18.5 -19t21.5 -6.5q17 0 26.5 12t14 35t6.5 62h46q-2 -80 -22.5 -118.5t-66.5 -38.5q-28 0 -45.5 12.5z" />
    <glyph glyph-name="Umacron" unicode="&#x16a;" horiz-adv-x="626" 
d="M134 41q-58 56 -58 171v494h66v-491q0 -89 40.5 -130.5t130.5 -41.5q91 0 131.5 41.5t40.5 130.5v491h65v-494q0 -115 -57.5 -171t-179.5 -56q-121 0 -179 56zM171 865h286v-49h-286v49z" />
    <glyph glyph-name="umacron" unicode="&#x16b;" horiz-adv-x="548" 
d="M468 482v-482h-61v70q-46 -81 -157 -81q-174 0 -174 202v291h61v-281q0 -81 31 -118.5t97 -37.5q68 0 105 39.5t37 114.5v283h61zM136 661h275v-47h-275v47z" />
    <glyph glyph-name="Ubreve" unicode="&#x16c;" horiz-adv-x="626" 
d="M134 41q-58 56 -58 171v494h66v-491q0 -89 40.5 -130.5t130.5 -41.5q91 0 131.5 41.5t40.5 130.5v491h65v-494q0 -115 -57.5 -171t-179.5 -56q-121 0 -179 56zM212 807q-35 32 -38 95h50q4 -44 25.5 -64.5t64.5 -20.5t64.5 20.5t26.5 64.5h48q-6 -127 -139 -127
q-67 0 -102 32z" />
    <glyph glyph-name="ubreve" unicode="&#x16d;" horiz-adv-x="548" 
d="M468 482v-482h-61v70q-46 -81 -157 -81q-174 0 -174 202v291h61v-281q0 -81 31 -118.5t97 -37.5q68 0 105 39.5t37 114.5v283h61zM167 609q-34 39 -37 117h51q3 -59 23.5 -86t68.5 -27t69 27t25 86h50q-4 -79 -37.5 -117.5t-106.5 -38.5q-72 0 -106 39z" />
    <glyph glyph-name="Uring" unicode="&#x16e;" horiz-adv-x="626" 
d="M134 41q-58 56 -58 171v494h66v-491q0 -89 40.5 -130.5t130.5 -41.5q91 0 131.5 41.5t40.5 130.5v491h65v-494q0 -115 -57.5 -171t-179.5 -56q-121 0 -179 56zM237.5 773.5q-28.5 27.5 -28.5 72.5t28.5 72.5t75.5 27.5q32 0 55.5 -12.5t36.5 -35.5t13 -52
q0 -45 -28.5 -72.5t-76.5 -27.5q-47 0 -75.5 27.5zM358 801.5q17 16.5 17 44.5q0 27 -17.5 44t-44.5 17q-28 0 -44.5 -16.5t-16.5 -44.5t16.5 -44.5t44.5 -16.5t45 16.5z" />
    <glyph glyph-name="uring" unicode="&#x16f;" horiz-adv-x="548" 
d="M468 482v-482h-61v70q-46 -81 -157 -81q-174 0 -174 202v291h61v-281q0 -81 31 -118.5t97 -37.5q68 0 105 39.5t37 114.5v283h61zM197.5 583.5q-28.5 27.5 -28.5 72.5t28.5 72.5t75.5 27.5q32 0 55.5 -12.5t36.5 -35.5t13 -52q0 -45 -28.5 -72.5t-76.5 -27.5
q-47 0 -75.5 27.5zM318 611.5q17 16.5 17 44.5q0 27 -17.5 44t-44.5 17q-28 0 -44.5 -16.5t-16.5 -44.5t16.5 -44.5t44.5 -16.5t45 16.5z" />
    <glyph glyph-name="Uhungarumlaut" unicode="&#x170;" horiz-adv-x="626" 
d="M134 41q-58 56 -58 171v494h66v-491q0 -89 40.5 -130.5t130.5 -41.5q91 0 131.5 41.5t40.5 130.5v491h65v-494q0 -115 -57.5 -171t-179.5 -56q-121 0 -179 56zM318 902h67l-123 -122h-58zM456 902h66l-122 -122h-58z" />
    <glyph glyph-name="uhungarumlaut" unicode="&#x171;" horiz-adv-x="548" 
d="M468 482v-482h-61v70q-46 -81 -157 -81q-174 0 -174 202v291h61v-281q0 -81 31 -118.5t97 -37.5q68 0 105 39.5t37 114.5v283h61zM280 726h63l-121 -153h-53zM415 726h63l-119 -153h-54z" />
    <glyph glyph-name="Uogonek" unicode="&#x172;" horiz-adv-x="626" 
d="M550 706v-494q0 -72 -21.5 -118t-64.5 -84q-47 -42 -67 -69.5t-20 -57.5q0 -25 13.5 -37.5t36.5 -12.5q22 0 50 10v-44q-30 -10 -58 -10q-43 0 -69.5 23t-26.5 64q0 31 16 58t49 57q-34 -6 -75 -6q-121 0 -179 56t-58 171v494h66v-491q0 -88 40.5 -129t130.5 -41
q91 0 131.5 41t40.5 129v491h65z" />
    <glyph glyph-name="uogonek" unicode="&#x173;" horiz-adv-x="548" 
d="M481 -157v-44q-26 -10 -59 -10q-43 0 -69.5 22t-26.5 60q0 35 21 64t65 65h-5v70q-46 -81 -157 -81q-174 0 -174 202v291h61v-281q0 -81 31 -118.5t97 -37.5q68 0 105 39.5t37 114.5v283h61v-482q-47 -41 -67 -67.5t-20 -54.5q0 -22 13.5 -33t35.5 -11q25 0 51 9z" />
    <glyph glyph-name="Wcircumflex" unicode="&#x174;" horiz-adv-x="879" 
d="M869 706l-195 -706h-71l-163 617l-164 -617h-70l-197 706h66l167 -613l162 613h72l162 -610l168 610h63zM400 902h80l123 -123h-71l-93 91l-91 -91h-71z" />
    <glyph glyph-name="wcircumflex" unicode="&#x175;" horiz-adv-x="724" 
d="M705 482l-165 -482h-62l-116 399l-115 -399h-62l-166 482h66l129 -402l119 402h59l117 -403l130 403h66zM321 726h82l104 -154h-64l-81 121l-81 -121h-64z" />
    <glyph glyph-name="Ycircumflex" unicode="&#x176;" horiz-adv-x="546" 
d="M241 305l-232 401h74l191 -336l190 336h72l-230 -401v-305h-65v305zM233 902h80l123 -123h-71l-93 91l-91 -91h-71z" />
    <glyph glyph-name="ycircumflex" unicode="&#x177;" horiz-adv-x="493" 
d="M474 482l-291 -683h-63l86 203l-187 480h68l153 -410l167 410h67zM207 726h82l104 -154h-64l-81 121l-81 -121h-64z" />
    <glyph glyph-name="Ydieresis" unicode="&#x178;" horiz-adv-x="546" 
d="M241 305l-232 401h74l191 -336l190 336h72l-230 -401v-305h-65v305zM139 819.5q-13 12.5 -13 31.5q0 20 13 33.5t33 13.5q19 0 32.5 -13.5t13.5 -33.5q0 -19 -13.5 -31.5t-32.5 -12.5q-20 0 -33 12.5zM342 819.5q-13 12.5 -13 31.5q0 20 13 33.5t33 13.5q19 0 32.5 -13.5
t13.5 -33.5q0 -19 -13.5 -31.5t-32.5 -12.5q-20 0 -33 12.5z" />
    <glyph glyph-name="Zacute" unicode="&#x179;" horiz-adv-x="556" 
d="M412 648h-372v58h478l-387 -648h399v-58h-507zM323 902h77l-128 -123h-70z" />
    <glyph glyph-name="zacute" unicode="&#x17a;" horiz-adv-x="450" 
d="M129 53h293v-53h-399l296 430h-271v52h374zM268 726h67l-101 -153h-61z" />
    <glyph glyph-name="Zdotaccent" unicode="&#x17b;" horiz-adv-x="556" 
d="M412 648h-372v58h478l-387 -648h399v-58h-507zM242.5 811q-12.5 12 -12.5 30q0 19 12.5 31t31.5 12t31.5 -12t12.5 -31q0 -18 -12.5 -30t-31.5 -12t-31.5 12z" />
    <glyph glyph-name="zdotaccent" unicode="&#x17c;" horiz-adv-x="450" 
d="M129 53h293v-53h-399l296 430h-271v52h374zM199 616.5q-13 12.5 -13 32.5q0 21 13 34.5t34 13.5q20 0 33.5 -13.5t13.5 -34.5q0 -19 -13.5 -32t-33.5 -13q-21 0 -34 12.5z" />
    <glyph glyph-name="Zcaron" unicode="&#x17d;" horiz-adv-x="556" 
d="M412 648h-372v58h478l-387 -648h399v-58h-507zM182 902l91 -90l93 90h71l-123 -123h-80l-123 123h71z" />
    <glyph glyph-name="zcaron" unicode="&#x17e;" horiz-adv-x="450" 
d="M129 53h293v-53h-399l296 430h-271v52h374zM274 571h-82l-104 154h64l81 -121l81 121h64z" />
    <glyph glyph-name="Schwa" unicode="&#x18f;" horiz-adv-x="700" 
d="M515.5 673q69.5 -48 101 -130t31.5 -190q0 -105 -30.5 -187.5t-99.5 -131.5t-178 -49q-152 0 -219.5 90.5t-67.5 240.5v47h525q-2 137 -56 218.5t-184 81.5q-99 0 -154 -47.5t-62 -142.5h-63q4 78 38.5 133.5t95.5 85t143 29.5q110 0 179.5 -48zM577 308h-460v-10
q0 -117 50.5 -186t170.5 -69q223 0 239 265z" />
    <glyph glyph-name="florin" unicode="&#x192;" horiz-adv-x="377" 
d="M23 0v53q21 -6 48 -6q44 0 66 24t22 71v244h-133v46h133v140q0 72 34 107.5t106 35.5q25 0 55 -5v-54q-24 6 -48 6q-45 0 -65.5 -23.5t-20.5 -72.5v-134h131v-46h-131v-249q0 -73 -34.5 -108t-107.5 -35q-23 0 -55 6z" />
    <glyph glyph-name="Aringacute" unicode="&#x1fa;" horiz-adv-x="605" 
d="M463 192h-320l-66 -192h-68l244 706h99l244 -706h-68zM444 247l-140 410h-2l-140 -410h282zM226.5 773.5q-28.5 27.5 -28.5 72.5t28.5 72.5t75.5 27.5q32 0 55.5 -12.5t36.5 -35.5t13 -52q0 -45 -28.5 -72.5t-76.5 -27.5q-47 0 -75.5 27.5zM347 801.5q17 16.5 17 44.5
q0 27 -17.5 44t-44.5 17q-28 0 -44.5 -16.5t-16.5 -44.5t16.5 -44.5t44.5 -16.5t45 16.5zM352 1142h77l-128 -123h-70z" />
    <glyph glyph-name="aringacute" unicode="&#x1fb;" horiz-adv-x="525" 
d="M405.5 441q43.5 -53 43.5 -152v-289h-61v76q-24 -43 -68 -65t-106 -22q-83 0 -127 39t-44 105q0 78 58.5 112t169.5 34h117v18q0 48 -12 79.5t-41 48t-80 16.5q-67 0 -99 -27.5t-32 -79.5h-63q0 75 49.5 117.5t144.5 42.5q107 0 150.5 -53zM352 90.5q36 49.5 36 136.5v4
h-112q-82 0 -125 -21.5t-43 -71.5q0 -45 30.5 -71t89.5 -26q88 0 124 49.5zM178.5 583.5q-28.5 27.5 -28.5 72.5t28.5 72.5t75.5 27.5q32 0 55.5 -12.5t36.5 -35.5t13 -52q0 -45 -28.5 -72.5t-76.5 -27.5q-47 0 -75.5 27.5zM299 611.5q17 16.5 17 44.5q0 27 -17.5 44
t-44.5 17q-28 0 -44.5 -16.5t-16.5 -44.5t16.5 -44.5t44.5 -16.5t45 16.5zM290 1000h67l-101 -153h-61z" />
    <glyph glyph-name="AEacute" unicode="&#x1fc;" horiz-adv-x="766" 
d="M411 649l32 -260h270v-57h-263l34 -275h232v-57h-292l-23 194h-244l-79 -194h-69l294 706h413v-57h-305zM395 249l-47 405h-2l-166 -405h215zM486 902h77l-128 -123h-70z" />
    <glyph glyph-name="aeacute" unicode="&#x1fd;" horiz-adv-x="853" 
d="M699 70q35 28 43 81h63q-10 -78 -63 -120t-135 -42q-73 0 -120 32t-71 88q-52 -120 -199 -120q-86 0 -130 38.5t-44 105.5q0 79 58 113t170 34h117v16q0 48 -12 79.5t-41 48.5t-80 17q-67 0 -99 -27.5t-32 -79.5h-63q0 75 49.5 117.5t144.5 42.5q72 0 114 -24t60 -70
q25 44 68 69t103 25q67 0 113 -30t71 -84q14 -31 20 -67.5t6 -81.5h-360q2 -86 39.5 -137.5t116.5 -51.5q58 0 93 28zM492.5 397q-34.5 -43 -41.5 -117h294q-4 73 -38 116.5t-106 43.5q-74 0 -108.5 -43zM388 232h-112q-82 0 -125 -21.5t-43 -72.5q0 -45 31.5 -71t89.5 -26
q87 0 123 49t36 137v5zM463 726h67l-101 -153h-61z" />
    <glyph glyph-name="Oslashacute" unicode="&#x1fe;" horiz-adv-x="720" 
d="M604 606q64 -93 64 -253q0 -105 -30.5 -187.5t-99 -131.5t-178.5 -49q-137 0 -214 79l-53 -64h-61l85 100q-33 49 -48.5 114t-15.5 139q0 104 30 186t98.5 132t178.5 50q137 0 214 -79l53 64h62zM176 577.5q-54 -85.5 -54 -224.5q0 -126 41 -203l367 446q-60 67 -170 67
q-130 0 -184 -85.5zM545 129q54 86 54 224q0 127 -41 202l-368 -444q60 -68 170 -68q131 0 185 86zM409 902h77l-128 -123h-70z" />
    <glyph glyph-name="oslashacute" unicode="&#x1ff;" horiz-adv-x="534" 
d="M436 418q27 -35 40.5 -81t13.5 -97q0 -68 -23.5 -124.5t-73.5 -91.5t-126 -35q-85 0 -142 47l-30 -36h-54l55 66q-26 34 -39 79t-13 95q0 69 24 126.5t74 92.5t125 35q84 0 141 -46l29 34h53zM145.5 381.5q-37.5 -56.5 -37.5 -141.5q0 -77 28 -126l234 289
q-40 35 -103 35q-84 0 -121.5 -56.5zM389 100q37 56 37 140q0 79 -29 130l-235 -289q40 -37 105 -37q85 0 122 56zM302 726h67l-101 -153h-61z" />
    <glyph glyph-name="Scommaaccent" unicode="&#x218;" horiz-adv-x="586" 
d="M98.5 52.5q-59.5 67.5 -59.5 181.5h70q0 -92 42.5 -142.5t144.5 -50.5q59 0 99.5 18t61 50t20.5 74q0 48 -26 76.5t-67 44t-116 34.5q-71 18 -116.5 40.5t-71.5 59t-26 93.5q0 53 26 96t78 68.5t125 25.5q121 0 177.5 -65t56.5 -172h-68q0 181 -167 181q-52 0 -88 -17
t-54 -46t-18 -66q0 -46 24.5 -72.5t61 -39.5t119.5 -35q78 -22 124 -44.5t71 -60t25 -96.5q0 -61 -28.5 -106.5t-85.5 -71t-138 -25.5q-137 0 -196.5 67.5zM263 -54h63l-37 -147h-57z" />
    <glyph glyph-name="scommaaccent" unicode="&#x219;" horiz-adv-x="456" 
d="M86 35.5q-44 46.5 -44 125.5h60q0 -56 30 -88.5t97 -32.5q61 0 91 23.5t30 65.5q0 31 -17 49t-42 26.5t-73 20.5q-51 12 -85 27.5t-53.5 41.5t-19.5 67q0 39 18 69t55 47t91 17q86 0 128 -41.5t42 -113.5h-60q0 49 -27 77.5t-84 28.5q-52 0 -77 -21.5t-25 -57.5
q0 -29 18 -45.5t40.5 -24t75.5 -20.5q53 -14 87 -30.5t53.5 -43.5t19.5 -69q0 -68 -48.5 -106t-137.5 -38q-99 0 -143 46.5zM204 -54h63l-37 -147h-57z" />
    <glyph glyph-name="uni021A" unicode="&#x21a;" horiz-adv-x="553" 
d="M244 649h-220v57h504v-57h-219v-649h-65v649zM247 -54h63l-37 -147h-57z" />
    <glyph glyph-name="uni021B" unicode="&#x21b;" horiz-adv-x="350" 
d="M135 28q-32 35 -32 110v292h-80v52h80v118h61v-118h149v-52h-149v-286q0 -50 21.5 -73.5t64.5 -23.5q30 0 60 8v-53q-40 -9 -74 -9q-69 0 -101 35zM181 -54h63l-37 -147h-57z" />
    <glyph glyph-name="dotlessj" unicode="&#x237;" horiz-adv-x="220" 
d="M-22 -201v55q14 -2 33 -2q37 0 53 17t16 58v555h61v-559q0 -67 -29 -97t-93 -30q-19 0 -41 3z" />
    <glyph glyph-name="schwa" unicode="&#x259;" horiz-adv-x="536" 
d="M391.5 459.5q51.5 -33.5 76 -90.5t24.5 -129q0 -71 -24.5 -127.5t-75.5 -90t-127 -33.5q-71 0 -121 31t-75 86q-13 30 -18.5 63.5t-6.5 80.5h385q-2 87 -41.5 138.5t-125.5 51.5q-62 0 -100.5 -28.5t-49.5 -80.5h-63q8 52 37 88t74.5 55t101.5 19q78 0 129.5 -33.5z
M381 85q39 43 46 116h-318q12 -159 156 -159q77 0 116 43z" />
    <glyph glyph-name="circumflex" unicode="&#x2c6;" horiz-adv-x="390" 
d="M154 726h82l104 -154h-64l-81 121l-81 -121h-64z" />
    <glyph glyph-name="caron" unicode="&#x2c7;" horiz-adv-x="390" 
d="M236 571h-82l-104 154h64l81 -121l81 121h64z" />
    <glyph glyph-name="uni02C9" unicode="&#x2c9;" horiz-adv-x="375" 
d="M50 661h275v-47h-275v47z" />
    <glyph glyph-name="breve" unicode="&#x2d8;" horiz-adv-x="387" 
d="M87 609q-34 39 -37 117h51q3 -59 23.5 -86t68.5 -27t69 27t25 86h50q-4 -79 -37.5 -117.5t-106.5 -38.5q-72 0 -106 39z" />
    <glyph glyph-name="dotaccent" unicode="&#x2d9;" horiz-adv-x="194" 
d="M63 616.5q-13 12.5 -13 32.5q0 21 13 34.5t34 13.5q20 0 33.5 -13.5t13.5 -34.5q0 -19 -13.5 -32t-33.5 -13q-21 0 -34 12.5z" />
    <glyph glyph-name="ring" unicode="&#x2da;" horiz-adv-x="309" 
d="M78.5 583.5q-28.5 27.5 -28.5 72.5t28.5 72.5t75.5 27.5q32 0 55.5 -12.5t36.5 -35.5t13 -52q0 -45 -28.5 -72.5t-76.5 -27.5q-47 0 -75.5 27.5zM199 611.5q17 16.5 17 44.5q0 27 -17.5 44t-44.5 17q-28 0 -44.5 -16.5t-16.5 -44.5t16.5 -44.5t44.5 -16.5t45 16.5z" />
    <glyph glyph-name="ogonek" unicode="&#x2db;" horiz-adv-x="254" 
d="M76 -189.5q-26 21.5 -26 60.5q0 37 23.5 67.5t73.5 70.5l45 -9q-48 -41 -68 -67.5t-20 -54.5q0 -22 14 -33t36 -11q26 0 50 9v-44q-26 -10 -58 -10q-44 0 -70 21.5z" />
    <glyph glyph-name="tilde" unicode="&#x2dc;" horiz-adv-x="424" 
d="M239.5 581.5q-17.5 12.5 -39.5 47.5q-2 3 -12.5 20t-21.5 24.5t-23 7.5q-25 0 -35 -26t-12 -83h-46q2 80 22.5 118.5t66.5 38.5q26 0 43.5 -13t40.5 -48q9 -13 18 -25.5t18.5 -19t21.5 -6.5q17 0 26.5 12t14 35t6.5 62h46q-2 -80 -22.5 -118.5t-66.5 -38.5
q-28 0 -45.5 12.5z" />
    <glyph glyph-name="hungarumlaut" unicode="&#x2dd;" horiz-adv-x="409" 
d="M161 726h63l-121 -153h-53zM296 726h63l-119 -153h-54z" />
    <glyph glyph-name="gravecomb" unicode="&#x300;" 
d="M-112 573l-100 153h67l95 -153h-62z" />
    <glyph glyph-name="acutecomb" unicode="&#x301;" 
d="M-117 726h67l-101 -153h-61z" />
    <glyph glyph-name="circumflexcomb" unicode="&#x302;" 
d="M-236 726h82l104 -154h-64l-81 121l-81 -121h-64z" />
    <glyph glyph-name="tildecomb" unicode="&#x303;" 
d="M-184.5 581.5q-17.5 12.5 -39.5 47.5q-2 3 -12.5 20t-21.5 24.5t-23 7.5q-25 0 -35 -26t-12 -83h-46q2 80 22.5 118.5t66.5 38.5q26 0 43.5 -13t40.5 -48q9 -13 18 -25.5t18.5 -19t21.5 -6.5q17 0 26.5 12t14 35t6.5 62h46q-2 -80 -22.5 -118.5t-66.5 -38.5
q-28 0 -45.5 12.5z" />
    <glyph glyph-name="macroncomb" unicode="&#x304;" 
d="M-325 661h275v-47h-275v47z" />
    <glyph glyph-name="brevecomb" unicode="&#x306;" 
d="M-300 609q-34 39 -37 117h51q3 -59 23.5 -86t68.5 -27t69 27t25 86h50q-4 -79 -37.5 -117.5t-106.5 -38.5q-72 0 -106 39z" />
    <glyph glyph-name="dotaccentcomb" unicode="&#x307;" 
d="M-131 616.5q-13 12.5 -13 32.5q0 21 13 34.5t34 13.5q20 0 33.5 -13.5t13.5 -34.5q0 -19 -13.5 -32t-33.5 -13q-21 0 -34 12.5z" />
    <glyph glyph-name="dieresiscomb" unicode="&#x308;" 
d="M-312 605.5q-13 12.5 -13 32.5t13 33.5t34 13.5q19 0 32.5 -13.5t13.5 -33.5q0 -19 -13.5 -32t-32.5 -13q-21 0 -34 12.5zM-129 605.5q-13 12.5 -13 32.5t13 33.5t33 13.5t33 -13.5t13 -33.5q0 -19 -13 -32t-33 -13t-33 12.5z" />
    <glyph glyph-name="ringcomb" unicode="&#x30a;" 
d="M-230.5 583.5q-28.5 27.5 -28.5 72.5t28.5 72.5t75.5 27.5q32 0 55.5 -12.5t36.5 -35.5t13 -52q0 -45 -28.5 -72.5t-76.5 -27.5q-47 0 -75.5 27.5zM-110 611.5q17 16.5 17 44.5q0 27 -17.5 44t-44.5 17q-28 0 -44.5 -16.5t-16.5 -44.5t16.5 -44.5t44.5 -16.5t45 16.5z
" />
    <glyph glyph-name="hungarumlautcomb" unicode="&#x30b;" 
d="M-248 726h63l-121 -153h-53zM-113 726h63l-119 -153h-54z" />
    <glyph glyph-name="caroncomb" unicode="&#x30c;" 
d="M-154 571h-82l-104 154h64l81 -121l81 121h64z" />
    <glyph glyph-name="commaturnedabovecomb" unicode="&#x312;" 
d="M-81 573h-63l37 147h57z" />
    <glyph glyph-name="commaaccent" unicode="&#x326;" 
d="M-113 -54h63l-37 -147h-57z" />
    <glyph glyph-name="cedillacomb" unicode="&#x327;" 
d="M-75.5 -75.5q25.5 -21.5 25.5 -56.5q0 -41 -29.5 -62t-83.5 -21q-40 0 -73 12l8 40q30 -11 61 -11q67 0 67 43q0 42 -69 42h-50l28 94h48l-17 -59h13q46 0 71.5 -21.5z" />
    <glyph glyph-name="ogonekcomb" unicode="&#x328;" 
d="M-178 -189.5q-26 21.5 -26 60.5q0 37 23.5 67.5t73.5 70.5l45 -9q-48 -41 -68 -67.5t-20 -54.5q0 -22 14 -33t36 -11q26 0 50 9v-44q-26 -10 -58 -10q-44 0 -70 21.5z" />
    <glyph glyph-name="uni0335" unicode="&#x335;" 
d="M-342 346h292v-47h-292v47z" />
    <glyph glyph-name="uni0336" unicode="&#x336;" 
d="M-389 654h389v-47h-389v47z" />
    <glyph glyph-name="uni0337" unicode="&#x337;" 
d="M-97 419l97 70v-60l-97 -71v61zM-213 347l96 69v-60l-96 -68v59z" />
    <glyph glyph-name="uni0338" unicode="&#x338;" 
d="M-408 97l2 2l263 326l4 3l46 54h53l-81 -97l-2 -2l-263 -324l-3 -4l-46 -55h-54z" />
    <glyph glyph-name="delta" unicode="&#x394;" horiz-adv-x="605" 
d="M596 0h-587l244 706h99zM509 56l-205 600h-2l-206 -600h413z" />
    <glyph glyph-name="delta" unicode="&#x3b4;" horiz-adv-x="605" 
d="M596 0h-587l244 706h99zM509 56l-205 600h-2l-206 -600h413z" />
    <glyph glyph-name="omega" unicode="&#x3a9;" horiz-adv-x="691" 
d="M452 54h164v-54h-221v182q96 15 135.5 80t39.5 164q0 70 -23 123.5t-73.5 84.5t-128.5 31t-128.5 -31.5t-73.5 -85t-23 -122.5q0 -100 40.5 -164.5t136.5 -79.5v-182h-221v54h163v84q-96 27 -141 104t-45 184q0 86 31.5 152.5t96.5 104.5t164 38q100 0 165.5 -38
t96.5 -104.5t31 -152.5q0 -108 -45 -185t-141 -103v-84z" />
    <glyph glyph-name="omega" unicode="&#x3c9;" horiz-adv-x="691" 
d="M452 54h164v-54h-221v182q96 15 135.5 80t39.5 164q0 70 -23 123.5t-73.5 84.5t-128.5 31t-128.5 -31.5t-73.5 -85t-23 -122.5q0 -100 40.5 -164.5t136.5 -79.5v-182h-221v54h163v84q-96 27 -141 104t-45 184q0 86 31.5 152.5t96.5 104.5t164 38q100 0 165.5 -38
t96.5 -104.5t31 -152.5q0 -108 -45 -185t-141 -103v-84z" />
    <glyph glyph-name="uni03BC" unicode="&#x3bc;" horiz-adv-x="552" 
d="M472 482v-482h-60v76q-22 -43 -62.5 -65t-94.5 -22q-80 0 -119 53q4 -47 4 -110v-133h-60v683h60v-279q0 -82 31 -120.5t97 -38.5q69 0 106 40t37 116v282h61z" />
    <glyph glyph-name="pi" unicode="&#x3c0;" horiz-adv-x="660" 
d="M474 28q-32 35 -32 110v292h-224v-430h-61v430h-104v52h553v-52h-103v-286q0 -50 21 -73.5t64 -23.5q6 0 18 2v-55q-10 -1 -31 -1q-69 0 -101 35z" />
    <glyph glyph-name="Wgrave" unicode="&#x1e80;" horiz-adv-x="879" 
d="M869 706l-195 -706h-71l-163 617l-164 -617h-70l-197 706h66l167 -613l162 613h72l162 -610l168 610h63zM442 779l-128 123h76l122 -123h-70z" />
    <glyph glyph-name="wgrave" unicode="&#x1e81;" horiz-adv-x="724" 
d="M705 482l-165 -482h-62l-116 399l-115 -399h-62l-166 482h66l129 -402l119 402h59l117 -403l130 403h66zM360 573l-100 153h67l95 -153h-62z" />
    <glyph glyph-name="Wacute" unicode="&#x1e82;" horiz-adv-x="879" 
d="M869 706l-195 -706h-71l-163 617l-164 -617h-70l-197 706h66l167 -613l162 613h72l162 -610l168 610h63zM489 902h77l-128 -123h-70z" />
    <glyph glyph-name="wacute" unicode="&#x1e83;" horiz-adv-x="724" 
d="M705 482l-165 -482h-62l-116 399l-115 -399h-62l-166 482h66l129 -402l119 402h59l117 -403l130 403h66zM397 726h67l-101 -153h-61z" />
    <glyph glyph-name="Wdieresis" unicode="&#x1e84;" horiz-adv-x="879" 
d="M869 706l-195 -706h-71l-163 617l-164 -617h-70l-197 706h66l167 -613l162 613h72l162 -610l168 610h63zM306 819.5q-13 12.5 -13 31.5q0 20 13 33.5t33 13.5q19 0 32.5 -13.5t13.5 -33.5q0 -19 -13.5 -31.5t-32.5 -12.5q-20 0 -33 12.5zM509 819.5q-13 12.5 -13 31.5
q0 20 13 33.5t33 13.5q19 0 32.5 -13.5t13.5 -33.5q0 -19 -13.5 -31.5t-32.5 -12.5q-20 0 -33 12.5z" />
    <glyph glyph-name="wdieresis" unicode="&#x1e85;" horiz-adv-x="724" 
d="M705 482l-165 -482h-62l-116 399l-115 -399h-62l-166 482h66l129 -402l119 402h59l117 -403l130 403h66zM237 605.5q-13 12.5 -13 32.5t13 33.5t34 13.5q19 0 32.5 -13.5t13.5 -33.5q0 -19 -13.5 -32t-32.5 -13q-21 0 -34 12.5zM420 605.5q-13 12.5 -13 32.5t13 33.5
t33 13.5t33 -13.5t13 -33.5q0 -19 -13 -32t-33 -13t-33 12.5z" />
    <glyph glyph-name="Germandbls" unicode="&#x1e9e;" horiz-adv-x="647" 
d="M517.5 376q42.5 -28 63 -72t20.5 -99q0 -99 -60 -153.5t-181 -54.5q-64 0 -105 8v60q37 -8 97 -8q180 0 180 149q0 75 -41.5 114t-133.5 39q-22 0 -38 -2v2l152 289h-310v-648h-66v706h471v-4l-154 -292q63 -6 105.5 -34z" />
    <glyph glyph-name="Ygrave" unicode="&#x1ef2;" horiz-adv-x="546" 
d="M241 305l-232 401h74l191 -336l190 336h72l-230 -401v-305h-65v305zM275 779l-128 123h76l122 -123h-70z" />
    <glyph glyph-name="ygrave" unicode="&#x1ef3;" horiz-adv-x="493" 
d="M474 482l-291 -683h-63l86 203l-187 480h68l153 -410l167 410h67zM245 573l-100 153h67l95 -153h-62z" />
    <glyph glyph-name="uni2009" unicode="&#x2009;" horiz-adv-x="72" 
 />
    <glyph glyph-name="uni2011" unicode="&#x2011;" horiz-adv-x="378" 
d="M53 310h272v-58h-272v58z" />
    <glyph glyph-name="endash" unicode="&#x2013;" horiz-adv-x="490" 
d="M53 309h384v-56h-384v56z" />
    <glyph glyph-name="emdash" unicode="&#x2014;" horiz-adv-x="959" 
d="M53 309h853v-56h-853v56z" />
    <glyph glyph-name="quoteleft" unicode="&#x2018;" horiz-adv-x="223" 
d="M110 425h-65l83 281h50z" />
    <glyph glyph-name="quoteright" unicode="&#x2019;" horiz-adv-x="223" 
d="M113 706h65l-83 -281h-50z" />
    <glyph glyph-name="quotesinglbase" unicode="&#x201a;" horiz-adv-x="223" 
d="M113 146h65l-83 -281h-50z" />
    <glyph glyph-name="quotedblleft" unicode="&#x201c;" horiz-adv-x="384" 
d="M110 425h-65l83 281h50zM272 425h-65l82 281h51z" />
    <glyph glyph-name="quotedblright" unicode="&#x201d;" horiz-adv-x="384" 
d="M275 706h65l-83 -281h-50zM113 706h65l-83 -281h-50z" />
    <glyph glyph-name="quotedblbase" unicode="&#x201e;" horiz-adv-x="384" 
d="M275 146h65l-83 -281h-50zM113 146h65l-83 -281h-50z" />
    <glyph glyph-name="dagger" unicode="&#x2020;" horiz-adv-x="378" 
d="M354 479h-133v-479h-63v479h-134v57h134v170h63v-170h133v-57z" />
    <glyph glyph-name="daggerdbl" unicode="&#x2021;" horiz-adv-x="378" 
d="M221 484v-262h133v-56h-133v-166h-63v166h-134v56h134v262h-134v57h134v165h63v-165h133v-57h-133z" />
    <glyph glyph-name="bullet" unicode="&#x2022;" horiz-adv-x="413" 
d="M133.5 294.5q-27.5 27.5 -27.5 73.5q0 47 27 73.5t73 26.5t73 -26.5t27 -73.5q0 -46 -27.5 -73.5t-72.5 -27.5t-72.5 27.5z" />
    <glyph glyph-name="ellipsis" unicode="&#x2026;" horiz-adv-x="664" 
d="M296 0q-13 13 -13 35t13 35.5t35 13.5q21 0 35 -14t14 -35t-14 -34.5t-35 -13.5q-22 0 -35 13zM498 0q-13 13 -13 35t13 35.5t35 13.5q21 0 35 -14t14 -35t-14 -34.5t-35 -13.5q-22 0 -35 13zM95 0q-13 13 -13 35t13 35.5t35 13.5q21 0 35 -14t14 -35t-14 -34.5
t-35 -13.5q-22 0 -35 13z" />
    <glyph glyph-name="perthousand" unicode="&#x2030;" horiz-adv-x="1100" 
d="M79.5 450.5q-31.5 42.5 -31.5 109.5t31.5 109.5t101.5 42.5t101.5 -42.5t31.5 -109.5t-31.5 -109.5t-101.5 -42.5t-101.5 42.5zM582 706h58l-483 -706h-58zM248 481q18 29 18 79q0 52 -18 80.5t-67 28.5t-67 -29t-18 -80t18 -79.5t67 -28.5t67 29zM456.5 36
q-31.5 42 -31.5 109q0 68 31.5 110.5t101.5 42.5t101 -42.5t31 -110.5q0 -67 -31.5 -109t-100.5 -42q-70 0 -101.5 42zM818.5 36q-31.5 42 -31.5 109q0 68 31.5 110.5t101.5 42.5t101 -42.5t31 -110.5q0 -67 -31.5 -109t-100.5 -42q-70 0 -101.5 42zM624.5 66.5
q17.5 28.5 17.5 78.5q0 52 -18 80.5t-66 28.5q-50 0 -67.5 -29t-17.5 -80t18 -79t67 -28t66.5 28.5zM986.5 66.5q17.5 28.5 17.5 78.5q0 52 -18 80.5t-66 28.5q-50 0 -67.5 -29t-17.5 -80t18 -79t67 -28t66.5 28.5z" />
    <glyph glyph-name="guilsinglleft" unicode="&#x2039;" horiz-adv-x="268" 
d="M22 278l153 159h71l-152 -159l152 -160h-71z" />
    <glyph glyph-name="guilsinglright" unicode="&#x203a;" horiz-adv-x="268" 
d="M22 118l152 160l-152 159h71l153 -159l-153 -160h-71z" />
    <glyph glyph-name="fraction" unicode="&#x2044;" horiz-adv-x="186" 
d="M275 706h54l-417 -706h-54z" />
    <glyph glyph-name="zero.superior" unicode="&#x2070;" horiz-adv-x="423" 
d="M51 632q0 202 160 202q88 0 125 -55t37 -147t-37.5 -147t-124.5 -55q-160 0 -160 202zM295.5 518.5q23.5 41.5 23.5 113.5q0 73 -23 114t-85 41q-60 0 -83.5 -41.5t-23.5 -113.5q0 -73 24 -114t83 -41q61 0 84.5 41.5z" />
    <glyph glyph-name="four.superior" unicode="&#x2074;" horiz-adv-x="358" 
d="M234 539h-230v2l187 285h94v-242h58v-45h-58v-101h-51v101zM234 584v223l-146 -223h146z" />
    <glyph glyph-name="five.superior" unicode="&#x2075;" horiz-adv-x="368" 
d="M75 464.5q-36 34.5 -36 93.5h51q0 -39 22.5 -62t70.5 -23q49 0 72 23.5t23 62.5q0 44 -31 68t-95 24q-54 0 -96 -15l32 190h216l-6 -42h-166l-19 -100q30 7 62 7q52 0 87 -17t52 -46.5t17 -67.5q0 -37 -16.5 -66.5t-49.5 -46.5t-82 -17q-72 0 -108 34.5z" />
    <glyph glyph-name="six.superior" unicode="&#x2076;" horiz-adv-x="409" 
d="M300 673q32 -18 47.5 -47t15.5 -63q0 -37 -17 -67.5t-51.5 -48t-84.5 -17.5q-89 0 -128.5 55.5t-39.5 144.5q0 91 39 147.5t128 56.5q63 0 97.5 -28t45.5 -85h-51q-10 37 -30.5 54t-60.5 17q-66 0 -91 -43.5t-25 -112.5v-13q15 31 47.5 49.5t79.5 18.5t79 -18z
M284.5 496.5q24.5 23.5 24.5 63.5q0 41 -25 65t-72 24q-33 0 -56.5 -12.5t-35 -33t-11.5 -44.5t11.5 -43.5t34.5 -31t55 -11.5q50 0 74.5 23.5z" />
    <glyph glyph-name="seven.superior" unicode="&#x2077;" horiz-adv-x="320" 
d="M220 779h-193v47h274l-180 -388h-59z" />
    <glyph glyph-name="eight.superior" unicode="&#x2078;" horiz-adv-x="384" 
d="M345 546q0 -55 -39.5 -85.5t-113.5 -30.5t-114 30.5t-40 85.5q0 77 81 98q-35 11 -52.5 34.5t-17.5 53.5q0 49 37.5 75.5t105.5 26.5q69 0 106 -26.5t37 -75.5q0 -30 -17.5 -53.5t-52.5 -34.5q80 -20 80 -98zM124.5 682q24.5 -17 67.5 -17t67.5 17t24.5 48t-22 48t-70 17
q-92 0 -92 -65q0 -31 24.5 -48zM265.5 492q27.5 20 27.5 54t-26 54.5t-75 20.5q-50 0 -75.5 -20.5t-25.5 -54.5t27.5 -54t73.5 -20t73.5 20z" />
    <glyph glyph-name="nine.superior" unicode="&#x2079;" horiz-adv-x="409" 
d="M327.5 778.5q39.5 -55.5 39.5 -144.5q0 -91 -39 -147.5t-128 -56.5q-63 0 -97.5 28t-45.5 85h51q10 -37 30.5 -54t60.5 -17q66 0 91 43.5t25 112.5v13q-15 -31 -47.5 -49.5t-79.5 -18.5t-79 18t-47.5 47t-15.5 63q0 37 17 67.5t51.5 48t84.5 17.5q89 0 128.5 -55.5z
M253.5 627.5q23.5 12.5 35 33t11.5 44.5t-11.5 43.5t-34.5 31t-55 11.5q-50 0 -74.5 -23.5t-24.5 -63.5q0 -41 25 -65t72 -24q33 0 56.5 12.5z" />
    <glyph glyph-name="uni207A" unicode="&#x207a;" horiz-adv-x="344" 
d="M312 615h-119v-116h-42v116h-119v43h119v116h42v-116h119v-43z" />
    <glyph glyph-name="uni207B" unicode="&#x207b;" horiz-adv-x="344" 
d="M32 658h280v-43h-280v43z" />
    <glyph glyph-name="uni207C" unicode="&#x207c;" horiz-adv-x="343" 
d="M32 709h279v-39h-279v39zM32 602h279v-40h-279v40z" />
    <glyph glyph-name="uni207D" unicode="&#x207d;" horiz-adv-x="239" 
d="M98 490.5q-20 62.5 -20 141.5t20 141.5t62 126.5h47q-41 -62 -62 -127t-21 -141t21 -140.5t62 -127.5h-47q-42 64 -62 126.5z" />
    <glyph glyph-name="uni207E" unicode="&#x207e;" horiz-adv-x="239" 
d="M31 364q42 63 63 127.5t21 140.5t-21.5 141t-62.5 127h48q42 -64 62 -126.5t20 -141.5t-20 -141.5t-62 -126.5h-48z" />
    <glyph glyph-name="n.superior" unicode="&#x207f;" horiz-adv-x="372" 
d="M287.5 707q27.5 -30 27.5 -89v-180h-48v170q0 44 -18.5 64.5t-56.5 20.5q-41 0 -62 -21.5t-21 -63.5v-170h-49v292h49v-39q15 23 39.5 34.5t57.5 11.5q54 0 81.5 -30z" />
    <glyph glyph-name="zero.inferior" unicode="&#x2080;" horiz-adv-x="423" 
d="M51 74q0 202 160 202q88 0 125 -55t37 -147t-37.5 -147t-124.5 -55q-160 0 -160 202zM295.5 -39.5q23.5 41.5 23.5 113.5q0 73 -23 114t-85 41q-60 0 -83.5 -41.5t-23.5 -113.5q0 -73 24 -114t83 -41q61 0 84.5 41.5z" />
    <glyph glyph-name="one.inferior" unicode="&#x2081;" horiz-adv-x="254" 
d="M109 220h-82l8 48h127v-388h-53v340z" />
    <glyph glyph-name="two.inferior" unicode="&#x2082;" horiz-adv-x="340" 
d="M23 -117l166 166q37 37 50.5 59.5t13.5 49.5q0 35 -20.5 55t-62.5 20q-49 0 -68 -24.5t-19 -67.5h-51q0 65 34 101t104 36q67 0 101 -32.5t34 -87.5q0 -33 -14 -60.5t-50 -61.5l-112 -107h176v-49h-282v3z" />
    <glyph glyph-name="three.inferior" unicode="&#x2083;" horiz-adv-x="367" 
d="M310.5 50q18.5 -26 18.5 -64q0 -54 -37.5 -85t-107.5 -31q-80 0 -116 40t-36 110h48q0 -50 24.5 -78t77.5 -28q48 0 71 20t23 56q0 39 -26 56t-80 17h-12v41h12q51 0 74.5 16.5t23.5 49.5q0 30 -21 47t-63 17q-49 0 -72 -24.5t-23 -61.5h-48q0 59 37.5 94.5t109.5 35.5
q42 0 72 -13.5t45 -37.5t15 -54q0 -32 -17 -54.5t-50 -32.5q39 -10 57.5 -36z" />
    <glyph glyph-name="four.inferior" unicode="&#x2084;" horiz-adv-x="358" 
d="M234 -19h-230v2l187 285h94v-242h58v-45h-58v-101h-51v101zM234 26v223l-146 -223h146z" />
    <glyph glyph-name="five.inferior" unicode="&#x2085;" horiz-adv-x="368" 
d="M75 -93.5q-36 34.5 -36 93.5h51q0 -39 22.5 -62t70.5 -23q49 0 72 23.5t23 62.5q0 44 -31 68t-95 24q-54 0 -96 -15l32 190h216l-6 -42h-166l-19 -100q30 7 62 7q52 0 87 -17t52 -46.5t17 -67.5q0 -37 -16.5 -66.5t-49.5 -46.5t-82 -17q-72 0 -108 34.5z" />
    <glyph glyph-name="six.inferior" unicode="&#x2086;" horiz-adv-x="409" 
d="M300 115q32 -18 47.5 -47t15.5 -63q0 -37 -17 -67.5t-51.5 -48t-84.5 -17.5q-89 0 -128.5 55.5t-39.5 144.5q0 91 39 147.5t128 56.5q63 0 97.5 -28t45.5 -85h-51q-10 37 -30.5 54t-60.5 17q-66 0 -91 -43.5t-25 -112.5v-13q15 31 47.5 49.5t79.5 18.5t79 -18z
M284.5 -61.5q24.5 23.5 24.5 63.5q0 41 -25 65t-72 24q-33 0 -56.5 -12.5t-35 -33t-11.5 -44.5t11.5 -43.5t34.5 -31t55 -11.5q50 0 74.5 23.5z" />
    <glyph glyph-name="seven.inferior" unicode="&#x2087;" horiz-adv-x="320" 
d="M220 221h-193v47h274l-180 -388h-59z" />
    <glyph glyph-name="eight.inferior" unicode="&#x2088;" horiz-adv-x="384" 
d="M345 -12q0 -55 -39.5 -85.5t-113.5 -30.5t-114 30.5t-40 85.5q0 77 81 98q-35 11 -52.5 34.5t-17.5 53.5q0 49 37.5 75.5t105.5 26.5q69 0 106 -26.5t37 -75.5q0 -30 -17.5 -53.5t-52.5 -34.5q80 -20 80 -98zM124.5 124q24.5 -17 67.5 -17t67.5 17t24.5 48t-22 48t-70 17
q-92 0 -92 -65q0 -31 24.5 -48zM265.5 -66q27.5 20 27.5 54t-26 54.5t-75 20.5q-50 0 -75.5 -20.5t-25.5 -54.5t27.5 -54t73.5 -20t73.5 20z" />
    <glyph glyph-name="nine.inferior" unicode="&#x2089;" horiz-adv-x="409" 
d="M327.5 220.5q39.5 -55.5 39.5 -144.5q0 -91 -39 -147.5t-128 -56.5q-63 0 -97.5 28t-45.5 85h51q10 -37 30.5 -54t60.5 -17q66 0 91 43.5t25 112.5v13q-15 -31 -47.5 -49.5t-79.5 -18.5t-79 18t-47.5 47t-15.5 63q0 37 17 67.5t51.5 48t84.5 17.5q89 0 128.5 -55.5z
M253.5 69.5q23.5 12.5 35 33t11.5 44.5t-11.5 43.5t-34.5 31t-55 11.5q-50 0 -74.5 -23.5t-24.5 -63.5q0 -41 25 -65t72 -24q33 0 56.5 12.5z" />
    <glyph glyph-name="uni208A" unicode="&#x208a;" horiz-adv-x="344" 
d="M312 57h-119v-116h-42v116h-119v43h119v116h42v-116h119v-43z" />
    <glyph glyph-name="uni208B" unicode="&#x208b;" horiz-adv-x="344" 
d="M32 100h280v-43h-280v43z" />
    <glyph glyph-name="uni208C" unicode="&#x208c;" horiz-adv-x="343" 
d="M32 151h279v-39h-279v39zM32 44h279v-40h-279v40z" />
    <glyph glyph-name="uni208D" unicode="&#x208d;" horiz-adv-x="239" 
d="M98 -67.5q-20 62.5 -20 141.5t20 141.5t62 126.5h47q-41 -62 -62 -127t-21 -141t21 -140.5t62 -127.5h-47q-42 64 -62 126.5z" />
    <glyph glyph-name="uni208E" unicode="&#x208e;" horiz-adv-x="239" 
d="M31 -194q42 63 63 127.5t21 140.5t-21.5 141t-62.5 127h48q42 -64 62 -126.5t20 -141.5t-20 -141.5t-62 -126.5h-48z" />
    <glyph glyph-name="uni2099" unicode="&#x2099;" horiz-adv-x="372" 
d="M287.5 149q27.5 -30 27.5 -89v-180h-48v170q0 44 -18.5 64.5t-56.5 20.5q-41 0 -62 -21.5t-21 -63.5v-170h-49v292h49v-39q15 23 39.5 34.5t57.5 11.5q54 0 81.5 -30z" />
    <glyph glyph-name="Euro" unicode="&#x20ac;" horiz-adv-x="727" 
d="M679 246q-1 -82 -36.5 -141t-99 -89.5t-148.5 -30.5q-138 0 -210.5 75t-90.5 201h-52v45h48q-2 15 -2 47q0 17 2 47h-48v45h52q19 125 92 200.5t209 75.5q82 0 145 -30.5t99 -88.5t38 -136h-65q-3 63 -30.5 107t-76 67t-113.5 23q-104 0 -158.5 -58.5t-70.5 -159.5h285
v-45h-289q-2 -15 -2 -47t1 -47h290v-45h-285q32 -218 230 -218q67 0 115.5 23.5t76 69t30.5 110.5h64z" />
    <glyph glyph-name="uni20B9" unicode="&#x20b9;" horiz-adv-x="644" 
d="M458.5 352.5q-50.5 -44.5 -161.5 -44.5h-47l292 -308h-80l-336 356h152q61 0 97.5 14.5t53 42.5t19.5 71h-371v45h371q-5 62 -39 94t-109 32h-224v51h545v-46h-167q55 -41 60 -131h108v-45h-108q-5 -87 -55.5 -131.5z" />
    <glyph glyph-name="uni20BA" unicode="&#x20ba;" horiz-adv-x="565" 
d="M541 300q0 -99 -26 -164.5t-89.5 -100.5t-172.5 -35h-136v244l-75 -34v49l75 34v106l-75 -34v49l75 34v258h65v-232l195 91v-49l-195 -90v-106l195 90v-50l-195 -89v-214h65q93 0 143.5 27.5t69 79.5t18.5 136h63z" />
    <glyph glyph-name="uni20BC" unicode="&#x20bc;" horiz-adv-x="797" 
d="M641 553.5q60 -79.5 60 -215.5v-338h-65v340q0 69 -17 121t-62 84.5t-126 32.5v-578h-65v578q-81 0 -126 -32.5t-62 -84.5t-17 -121v-340h-66v338q0 136 60.5 215.5t210.5 80.5v72h65v-72q150 -1 210 -80.5z" />
    <glyph glyph-name="uni2113" unicode="&#x2113;" horiz-adv-x="393" 
d="M165 79q28 -32 84 -32q50 0 93 22v-54q-48 -20 -103 -20q-79 0 -120.5 43.5t-45.5 140.5q-38 -2 -59 -2v48q22 0 58 2v244q0 87 15 140t46.5 77t81.5 24q49 0 79.5 -21t45.5 -68t15 -127q0 -94 -23 -157.5t-72 -100.5t-127 -52q4 -75 32 -107zM132 236q59 13 94.5 44
t51.5 83.5t16 132.5q0 65 -9 101.5t-26.5 51t-44.5 14.5q-28 0 -46 -16t-27 -53.5t-9 -101.5v-256z" />
    <glyph glyph-name="uni2117" unicode="&#x2117;" horiz-adv-x="813" 
d="M220 31.5q-80 46.5 -123.5 130t-43.5 191.5q0 109 44 192.5t124.5 129.5t186.5 46t186 -46.5t123.5 -130.5t43.5 -192q0 -109 -44 -192t-124 -129t-186 -46q-107 0 -187 46.5zM571.5 68.5q69.5 40.5 107 114.5t37.5 171t-37.5 170.5t-107 113.5t-163.5 40
q-95 0 -165 -40.5t-108 -114t-38 -170.5t38 -170.5t108.5 -114t164.5 -40.5t163.5 40.5zM292 591h136q101 0 128 -65q13 -31 13 -68q0 -38 -13 -67q-27 -64 -128 -64h-84v-208h-52v472zM421 370q34 0 55 10t30 31q9 18 9 47q0 30 -9 49q-9 21 -30 30.5t-55 9.5h-77v-177h77z
" />
    <glyph glyph-name="trademark" unicode="&#x2122;" horiz-adv-x="637" 
d="M94 666h-79v40h205v-40h-79v-270h-47v270zM254 706h58l105 -250l105 250h57v-310h-43v246l-105 -246h-29l-104 246v-246h-44v310z" />
    <glyph glyph-name="Omega" unicode="&#x2126;" horiz-adv-x="691" 
d="M452 54h164v-54h-221v182q96 15 135.5 80t39.5 164q0 70 -23 123.5t-73.5 84.5t-128.5 31t-128.5 -31.5t-73.5 -85t-23 -122.5q0 -100 40.5 -164.5t136.5 -79.5v-182h-221v54h163v84q-96 27 -141 104t-45 184q0 86 31.5 152.5t96.5 104.5t164 38q100 0 165.5 -38
t96.5 -104.5t31 -152.5q0 -108 -45 -185t-141 -103v-84z" />
    <glyph glyph-name="estimated" unicode="&#x212e;" horiz-adv-x="850" 
d="M239 32.5q-87 43.5 -139.5 121.5t-52.5 176q0 96 51 174t138 122.5t190 44.5q102 0 188.5 -45t138 -124.5t51.5 -177.5h-608q-6 0 -8 -2.5t-2 -8.5v-197q47 -51 110 -78.5t130 -27.5q73 0 139 32.5t113 88.5h57q-56 -68 -138 -105t-171 -37q-100 0 -187 43.5zM657 347
q5 0 7 2.5t2 8.5v184q-44 51 -108 79.5t-132 28.5q-70 0 -133 -28.5t-107 -78.5v-185q0 -6 2 -8.5t8 -2.5h461z" />
    <glyph glyph-name="partialdiff" unicode="&#x2202;" horiz-adv-x="606" 
d="M500.5 616.5q58.5 -104.5 58.5 -267.5t-65 -263.5t-208 -100.5q-79 0 -134.5 32t-83 86t-27.5 120t27 118.5t79.5 82.5t127.5 30q87 0 143 -40.5t76 -107.5q1 16 1 49q0 137 -44 224t-153 87q-51 0 -87 -22t-56 -56t-26 -73h-63q7 57 35.5 103.5t78.5 74.5t119 28
q143 0 201.5 -104.5zM388 65.5q41 24.5 61 66t20 90.5q0 51 -21 91.5t-62 64t-99 23.5q-59 0 -98.5 -23t-59 -62.5t-19.5 -90.5q0 -52 20 -94t60 -66t98 -24q59 0 100 24.5z" />
    <glyph glyph-name="Delta" unicode="&#x2206;" horiz-adv-x="605" 
d="M596 0h-587l244 706h99zM509 56l-205 600h-2l-206 -600h413z" />
    <glyph glyph-name="product" unicode="&#x220f;" horiz-adv-x="672" 
d="M95 706h482v-907h-67v848h-348v-848h-67v907z" />
    <glyph glyph-name="summation" unicode="&#x2211;" horiz-adv-x="501" 
d="M274 261l-239 445h432v-58h-327l207 -387l-218 -404h348v-58h-451z" />
    <glyph glyph-name="minus" unicode="&#x2212;" horiz-adv-x="571" 
d="M53 307h465v-53h-465v53z" />
    <glyph glyph-name="uni2215" unicode="&#x2215;" horiz-adv-x="571" 
d="M399 706h60l-280 -706h-60z" />
    <glyph glyph-name="uni2219" unicode="&#x2219;" horiz-adv-x="571" 
d="M250 337q-13 13 -13 35t13 35.5t35 13.5q21 0 35 -14t14 -35t-14 -34.5t-35 -13.5q-22 0 -35 13z" />
    <glyph glyph-name="radical" unicode="&#x221a;" horiz-adv-x="603" 
d="M594 706l-273 -913h-69l-159 427l-83 -31v64l127 43l149 -421l241 831h67z" />
    <glyph glyph-name="infinity" unicode="&#x221e;" horiz-adv-x="830" 
d="M711 419q39 -28 57 -74.5t18 -102.5q0 -57 -18.5 -103.5t-57 -74t-96.5 -27.5q-48 0 -84 20.5t-62.5 54t-53.5 81.5q-27 -48 -53.5 -81.5t-62 -54t-82.5 -20.5q-59 0 -97.5 28t-56.5 74.5t-18 102.5q0 57 18.5 103.5t57 74t96.5 27.5q47 0 83 -21t62.5 -54t53.5 -82
q26 48 52.5 81.5t62.5 54.5t84 21q58 0 97 -28zM288 111.5q29 19.5 50 50.5t46 80q-25 49 -46 80t-50 50.5t-67 19.5q-41 0 -67.5 -20.5t-39 -54.5t-12.5 -75t13 -75.5t40 -54.5t66 -20q38 0 67 19.5zM677 113q27 21 39.5 55.5t12.5 73.5q0 40 -13 74t-39.5 55t-67.5 21
q-38 0 -67 -19.5t-50 -51t-45 -79.5q24 -48 45 -79.5t50 -51t67 -19.5q41 0 68 21z" />
    <glyph glyph-name="integral" unicode="&#x222b;" horiz-adv-x="337" 
d="M0 -201l10 56q15 -2 33 -2q36 0 53 17t21 56l49 657q5 65 35 95.5t91 30.5q19 0 45 -3l-10 -57q-18 3 -28 3q-35 0 -52.5 -18.5t-19.5 -57.5l-50 -656q-5 -65 -35 -95t-91 -30q-24 0 -51 4z" />
    <glyph glyph-name="approxequal" unicode="&#x2248;" horiz-adv-x="571" 
d="M338.5 314.5q-18.5 6.5 -31 15t-31.5 23.5q-4 3 -20 14t-30.5 16t-29.5 5q-34 0 -49.5 -19.5t-20.5 -53.5h-45q5 55 31 88t78 33q32 0 55 -11t50 -32q22 -18 39 -27t41 -9q32 0 48 18.5t20 51.5h46q-6 -58 -32 -88.5t-77 -30.5q-23 0 -41.5 6.5zM338.5 132.5
q-18.5 6.5 -31 14.5t-31.5 22q-27 20 -42.5 28t-37.5 8q-34 0 -49.5 -19.5t-20.5 -53.5h-45q5 55 31 88t78 33q33 0 56 -10.5t49 -31.5q22 -18 39 -27t41 -9q33 0 48.5 18.5t19.5 51.5h46q-6 -58 -32 -88.5t-77 -30.5q-23 0 -41.5 6.5z" />
    <glyph glyph-name="notequal" unicode="&#x2260;" horiz-adv-x="571" 
d="M356 352l-97 -143h259v-53h-293l-83 -121h-51l82 121h-120v53h154l98 143h-252v54h286l82 120h51l-82 -120h128v-54h-162z" />
    <glyph glyph-name="lessequal" unicode="&#x2264;" horiz-adv-x="571" 
d="M518 475l-424 -143l424 -143v-57l-464 160v79l464 162v-58zM53 82h465v-54h-465v54z" />
    <glyph glyph-name="greaterequal" unicode="&#x2265;" horiz-adv-x="571" 
d="M53 132v57l424 143l-424 143v58l464 -162v-79zM518 82v-54h-465v54h465z" />
    <glyph glyph-name="lozenge" unicode="&#x25ca;" horiz-adv-x="489" 
d="M24 253l185 453h72l184 -453l-184 -454h-72zM401 253l-156 391l-157 -391l157 -393z" />
    <glyph glyph-name="ff" unicode="&#xfb00;" horiz-adv-x="646" 
d="M103 430h-80v52h80v89q0 73 35 108.5t109 35.5q27 0 52 -5v-54q-22 5 -45 5q-90 0 -90 -94v-85h133v-52h-133v-430h-61v430zM426 430h-80v52h80v89q0 73 35 108.5t109 35.5q27 0 52 -5v-54q-22 5 -45 5q-90 0 -90 -94v-85h133v-52h-133v-430h-61v430z" />
    <glyph glyph-name="fi" unicode="&#xfb01;" horiz-adv-x="543" 
d="M103 430h-80v52h80v89q0 73 35 108.5t109 35.5q27 0 52 -5v-54q-22 5 -45 5q-90 0 -90 -94v-85h133v-52h-133v-430h-61v430zM399 615q-13 13 -13 33t13 33.5t34 13.5q20 0 33.5 -13.5t13.5 -33.5t-13.5 -33t-33.5 -13q-21 0 -34 13zM402 482h61v-482h-61v482z" />
    <glyph glyph-name="fl" unicode="&#xfb02;" horiz-adv-x="543" 
d="M103 430h-80v52h80v89q0 73 35 108.5t109 35.5q27 0 52 -5v-54q-22 5 -45 5q-90 0 -90 -94v-85h133v-52h-133v-430h-61v430zM402 706h61v-706h-61v706z" />
    <glyph glyph-name="ffi" unicode="&#xfb03;" horiz-adv-x="866" 
d="M103 430h-80v52h80v89q0 73 35 108.5t109 35.5q27 0 52 -5v-54q-22 5 -45 5q-90 0 -90 -94v-85h133v-52h-133v-430h-61v430zM426 430h-80v52h80v89q0 73 35 108.5t109 35.5q27 0 52 -5v-54q-22 5 -45 5q-90 0 -90 -94v-85h133v-52h-133v-430h-61v430zM723 615
q-13 13 -13 33t13 33.5t34 13.5q20 0 33.5 -13.5t13.5 -33.5t-13.5 -33t-33.5 -13q-21 0 -34 13zM726 482h61v-482h-61v482z" />
    <glyph glyph-name="ffl" unicode="&#xfb04;" horiz-adv-x="866" 
d="M103 430h-80v52h80v89q0 73 35 108.5t109 35.5q27 0 52 -5v-54q-22 5 -45 5q-90 0 -90 -94v-85h133v-52h-133v-430h-61v430zM426 430h-80v52h80v89q0 73 35 108.5t109 35.5q27 0 52 -5v-54q-22 5 -45 5q-90 0 -90 -94v-85h133v-52h-133v-430h-61v430zM726 706h61v-706
h-61v706z" />
    <glyph glyph-name="uniFEFF" unicode="&#xfeff;" 
 />
    <glyph glyph-name="uni00A40301" horiz-adv-x="350" 
d="M24 2v61q28 -5 53 -5q48 0 76.5 15t42 48t13.5 88v497h65v-507q0 -70 -19.5 -114.5t-60.5 -66t-107 -21.5q-28 0 -63 5zM290 902h77l-128 -123h-70z" />
    <glyph glyph-name="M.ss01" horiz-adv-x="780" 
d="M95 706h85l211 -332l208 332h85v-706h-63v629l-216 -341h-30l-216 341v-629h-64v706z" />
    <glyph glyph-name="Q.ss02" horiz-adv-x="720" 
d="M624 135q-44 -92 -139 -129l75 -140l-59 -28l-76 152q-33 -5 -65 -5q-111 0 -179.5 50.5t-98 132.5t-29.5 185q0 104 30 186t98.5 132t178.5 50q111 0 179.5 -49.5t98.5 -131.5t30 -187q0 -126 -44 -218zM545 129q54 86 54 224q0 139 -54.5 224.5t-184.5 85.5t-184 -85.5
t-54 -224.5t54 -224.5t184 -85.5q131 0 185 86z" />
    <glyph glyph-name="Oslash.ss04" horiz-adv-x="720" 
d="M597 616q37 -49 54 -116.5t17 -146.5q0 -105 -30.5 -187.5t-99 -131.5t-178.5 -49q-120 0 -195 62l-79 -99l-49 39l86 105q-37 49 -53.5 116t-16.5 145q0 104 30 186t98.5 132t178.5 50q120 0 195 -61l79 98l49 -38zM545 129q54 86 54 224q0 139 -54.5 224.5t-184.5 85.5
t-184 -85.5t-54 -224.5t54 -224.5t184 -85.5q131 0 185 86z" />
    <glyph glyph-name="i.loclTRK" horiz-adv-x="220" 
d="M80 482h61v-482h-61v482zM77 614.5q-13 12.5 -13 32.5q0 21 13 34.5t34 13.5q20 0 33.5 -13.5t13.5 -34.5q0 -19 -13.5 -32t-33.5 -13q-21 0 -34 12.5z" />
    <glyph glyph-name="uni006A0301" horiz-adv-x="220" 
d="M-22 -201v55q14 -2 33 -2q37 0 53 17t16 58v555h61v-559q0 -67 -29 -97t-93 -30q-19 0 -41 3zM145 726h65l-84 -153h-59z" />
    <glyph glyph-name="oslash.ss04" horiz-adv-x="534" 
d="M475.5 341.5q14.5 -48.5 14.5 -101.5q0 -68 -23.5 -124.5t-73.5 -91.5t-126 -35q-72 0 -125 34l-43 -64l-48 28l51 72q-29 35 -43.5 82t-14.5 99q0 69 24 126.5t74 92.5t125 35q73 0 123 -33l45 65l48 -29l-52 -72q30 -35 44.5 -83.5zM389 100q37 56 37 140q0 88 -38 143
t-121 55q-84 0 -121.5 -56.5t-37.5 -141.5q0 -86 38 -141t121 -55q85 0 122 56z" />
    <glyph glyph-name="f_i" horiz-adv-x="543" 
d="M103 430h-80v52h80v89q0 73 35 108.5t109 35.5q27 0 52 -5v-54q-22 5 -45 5q-90 0 -90 -94v-85h133v-52h-133v-430h-61v430zM399 615q-13 13 -13 33t13 33.5t34 13.5q20 0 33.5 -13.5t13.5 -33.5t-13.5 -33t-33.5 -13q-21 0 -34 13zM402 482h61v-482h-61v482z" />
    <glyph glyph-name="f_l" horiz-adv-x="543" 
d="M103 430h-80v52h80v89q0 73 35 108.5t109 35.5q27 0 52 -5v-54q-22 5 -45 5q-90 0 -90 -94v-85h133v-52h-133v-430h-61v430zM402 706h61v-706h-61v706z" />
    <glyph glyph-name="a.sc" horiz-adv-x="527" 
d="M398 150h-269l-53 -150h-67l206 580h97l205 -580h-66zM378 206l-114 325h-2l-114 -325h230z" />
    <glyph glyph-name="aacute.sc" horiz-adv-x="527" 
d="M398 150h-269l-53 -150h-67l206 580h97l205 -580h-66zM378 206l-114 325h-2l-114 -325h230zM298 824h67l-101 -153h-61z" />
    <glyph glyph-name="abreve.sc" horiz-adv-x="527" 
d="M398 150h-269l-53 -150h-67l206 580h97l205 -580h-66zM378 206l-114 325h-2l-114 -325h230zM157 707q-34 39 -37 117h51q3 -59 23.5 -86t68.5 -27t69 27t25 86h50q-4 -79 -37.5 -117.5t-106.5 -38.5q-72 0 -106 39z" />
    <glyph glyph-name="acircumflex.sc" horiz-adv-x="527" 
d="M398 150h-269l-53 -150h-67l206 580h97l205 -580h-66zM378 206l-114 325h-2l-114 -325h230zM222 824h82l104 -154h-64l-81 121l-81 -121h-64z" />
    <glyph glyph-name="adieresis.sc" horiz-adv-x="527" 
d="M398 150h-269l-53 -150h-67l206 580h97l205 -580h-66zM378 206l-114 325h-2l-114 -325h230zM139 703.5q-13 12.5 -13 32.5t13 33.5t34 13.5q19 0 32.5 -13.5t13.5 -33.5q0 -19 -13.5 -32t-32.5 -13q-21 0 -34 12.5zM322 703.5q-13 12.5 -13 32.5t13 33.5t33 13.5
t33 -13.5t13 -33.5q0 -19 -13 -32t-33 -13t-33 12.5z" />
    <glyph glyph-name="agrave.sc" horiz-adv-x="527" 
d="M398 150h-269l-53 -150h-67l206 580h97l205 -580h-66zM378 206l-114 325h-2l-114 -325h230zM261 671l-100 153h67l95 -153h-62z" />
    <glyph glyph-name="amacron.sc" horiz-adv-x="527" 
d="M398 150h-269l-53 -150h-67l206 580h97l205 -580h-66zM378 206l-114 325h-2l-114 -325h230zM125 759h275v-47h-275v47z" />
    <glyph glyph-name="aogonek.sc" horiz-adv-x="527" 
d="M530 -157v-44q-26 -10 -59 -10q-43 0 -69 21.5t-26 60.5q0 35 21 64.5t65 64.5h-11l-53 150h-269l-53 -150h-67l206 580h97l205 -580q-47 -41 -67 -67.5t-20 -54.5q0 -22 13.5 -33t35.5 -11q26 0 51 9zM378 206l-114 325h-2l-114 -325h230z" />
    <glyph glyph-name="aring.sc" horiz-adv-x="527" 
d="M398 150h-269l-53 -150h-67l206 580h97l205 -580h-66zM378 206l-114 325h-2l-114 -325h230zM187.5 681.5q-28.5 27.5 -28.5 72.5t28.5 72.5t75.5 27.5q32 0 55.5 -12.5t36.5 -35.5t13 -52q0 -45 -28.5 -72.5t-76.5 -27.5q-47 0 -75.5 27.5zM308 709.5q17 16.5 17 44.5
q0 27 -17.5 44t-44.5 17q-28 0 -44.5 -16.5t-16.5 -44.5t16.5 -44.5t44.5 -16.5t45 16.5z" />
    <glyph glyph-name="aringacute.sc" horiz-adv-x="527" 
d="M398 150h-269l-53 -150h-67l206 580h97l205 -580h-66zM378 206l-114 325h-2l-114 -325h230zM187.5 681.5q-28.5 27.5 -28.5 72.5t28.5 72.5t75.5 27.5q32 0 55.5 -12.5t36.5 -35.5t13 -52q0 -45 -28.5 -72.5t-76.5 -27.5q-47 0 -75.5 27.5zM308 709.5q17 16.5 17 44.5
q0 27 -17.5 44t-44.5 17q-28 0 -44.5 -16.5t-16.5 -44.5t16.5 -44.5t44.5 -16.5t45 16.5zM298 1098h67l-101 -153h-61z" />
    <glyph glyph-name="atilde.sc" horiz-adv-x="527" 
d="M398 150h-269l-53 -150h-67l206 580h97l205 -580h-66zM378 206l-114 325h-2l-114 -325h230zM290.5 679.5q-17.5 12.5 -39.5 47.5q-2 3 -12.5 20t-21.5 24.5t-23 7.5q-25 0 -35 -26t-12 -83h-46q2 80 22.5 118.5t66.5 38.5q26 0 43.5 -13t40.5 -48q9 -13 18 -25.5
t18.5 -19t21.5 -6.5q17 0 26.5 12t14 35t6.5 62h46q-2 -80 -22.5 -118.5t-66.5 -38.5q-28 0 -45.5 12.5z" />
    <glyph glyph-name="ae.sc" horiz-adv-x="667" 
d="M362 523l26 -199h227v-57h-220l27 -210h196v-57h-254l-18 152h-205l-64 -152h-68l248 580h361v-57h-256zM339 207l-39 320h-2l-134 -320h175z" />
    <glyph glyph-name="aeacute.sc" horiz-adv-x="667" 
d="M362 523l26 -199h227v-57h-220l27 -210h196v-57h-254l-18 152h-205l-64 -152h-68l248 580h361v-57h-256zM339 207l-39 320h-2l-134 -320h175zM411 824h67l-101 -153h-61z" />
    <glyph glyph-name="b.sc" horiz-adv-x="530" 
d="M453.5 252.5q28.5 -36.5 28.5 -94.5q0 -77 -51 -117.5t-153 -40.5h-183v580h183q90 0 137 -39t47 -106q0 -49 -24.5 -83.5t-76.5 -48.5q64 -14 92.5 -50.5zM159 325h105q67 0 99.5 27.5t32.5 76.5t-34 74.5t-102 25.5h-101v-204zM377.5 78.5q36.5 26.5 36.5 82.5
q0 57 -36.5 84.5t-111.5 27.5h-107v-221h101q81 0 117.5 26.5z" />
    <glyph glyph-name="c.sc" horiz-adv-x="609" 
d="M164 27.5q-59 40.5 -85 108.5t-26 154t26 153.5t85 108.5t153 41q70 0 124 -26t85 -74t33 -113h-67q-2 48 -24 83t-61.5 53t-92.5 18q-106 0 -150 -67t-44 -176q0 -111 43.5 -178t150.5 -67q82 0 129.5 41.5t51.5 116.5h66q-1 -68 -32 -117t-85.5 -74.5t-126.5 -25.5
q-94 0 -153 40.5z" />
    <glyph glyph-name="cacute.sc" horiz-adv-x="609" 
d="M164 27.5q-59 40.5 -85 108.5t-26 154t26 153.5t85 108.5t153 41q70 0 124 -26t85 -74t33 -113h-67q-2 48 -24 83t-61.5 53t-92.5 18q-106 0 -150 -67t-44 -176q0 -111 43.5 -178t150.5 -67q82 0 129.5 41.5t51.5 116.5h66q-1 -68 -32 -117t-85.5 -74.5t-126.5 -25.5
q-94 0 -153 40.5zM351 824h67l-101 -153h-61z" />
    <glyph glyph-name="ccaron.sc" horiz-adv-x="609" 
d="M164 27.5q-59 40.5 -85 108.5t-26 154t26 153.5t85 108.5t153 41q70 0 124 -26t85 -74t33 -113h-67q-2 48 -24 83t-61.5 53t-92.5 18q-106 0 -150 -67t-44 -176q0 -111 43.5 -178t150.5 -67q82 0 129.5 41.5t51.5 116.5h66q-1 -68 -32 -117t-85.5 -74.5t-126.5 -25.5
q-94 0 -153 40.5zM358 669h-82l-104 154h64l81 -121l81 121h64z" />
    <glyph glyph-name="ccedilla.sc" horiz-adv-x="609" 
d="M531.5 91.5q-28.5 -47.5 -78.5 -74t-116 -29.5l-13 -42h13q47 0 72 -21t25 -57q0 -41 -29.5 -62t-83.5 -21q-40 0 -73 12l8 40q30 -11 61 -11q67 0 67 43q0 42 -69 42h-49l22 77q-84 6 -136.5 48t-75.5 107.5t-23 146.5q0 86 26 153.5t85 108.5t153 41q70 0 124 -26
t85 -74t33 -113h-67q-2 48 -24 83t-61.5 53t-92.5 18q-106 0 -150 -67t-44 -176q0 -111 43.5 -178t150.5 -67q82 0 129.5 41.5t51.5 116.5h66q-1 -65 -29.5 -112.5z" />
    <glyph glyph-name="ccircumflex.sc" horiz-adv-x="609" 
d="M164 27.5q-59 40.5 -85 108.5t-26 154t26 153.5t85 108.5t153 41q70 0 124 -26t85 -74t33 -113h-67q-2 48 -24 83t-61.5 53t-92.5 18q-106 0 -150 -67t-44 -176q0 -111 43.5 -178t150.5 -67q82 0 129.5 41.5t51.5 116.5h66q-1 -68 -32 -117t-85.5 -74.5t-126.5 -25.5
q-94 0 -153 40.5zM276 824h82l104 -154h-64l-81 121l-81 -121h-64z" />
    <glyph glyph-name="cdotaccent.sc" horiz-adv-x="609" 
d="M164 27.5q-59 40.5 -85 108.5t-26 154t26 153.5t85 108.5t153 41q70 0 124 -26t85 -74t33 -113h-67q-2 48 -24 83t-61.5 53t-92.5 18q-106 0 -150 -67t-44 -176q0 -111 43.5 -178t150.5 -67q82 0 129.5 41.5t51.5 116.5h66q-1 -68 -32 -117t-85.5 -74.5t-126.5 -25.5
q-94 0 -153 40.5zM283 714.5q-13 12.5 -13 32.5q0 21 13 34.5t34 13.5q20 0 33.5 -13.5t13.5 -34.5q0 -19 -13.5 -32t-33.5 -13q-21 0 -34 12.5z" />
    <glyph glyph-name="d.sc" horiz-adv-x="606" 
d="M95 580h187q145 0 208.5 -78.5t63.5 -211.5q0 -134 -64 -212t-208 -78h-187v580zM274 57q118 0 165 61.5t47 171.5q0 73 -19 124t-65.5 80t-127.5 29h-115v-466h115z" />
    <glyph glyph-name="eth.sc" horiz-adv-x="606" 
d="M490.5 501.5q63.5 -78.5 63.5 -211.5q0 -134 -64 -212t-208 -78h-187v273h-64v48h64v259h187q145 0 208.5 -78.5zM439 118.5q47 61.5 47 171.5q0 73 -19 124t-65.5 80t-127.5 29h-115v-202h164v-48h-164v-216h115q118 0 165 61.5z" />
    <glyph glyph-name="dcaron.sc" horiz-adv-x="606" 
d="M95 580h187q145 0 208.5 -78.5t63.5 -211.5q0 -134 -64 -212t-208 -78h-187v580zM274 57q118 0 165 61.5t47 171.5q0 73 -19 124t-65.5 80t-127.5 29h-115v-466h115zM333 669h-82l-104 154h64l81 -121l81 121h64z" />
    <glyph glyph-name="dcroat.sc" horiz-adv-x="606" 
d="M490.5 501.5q63.5 -78.5 63.5 -211.5q0 -134 -64 -212t-208 -78h-187v273h-64v48h64v259h187q145 0 208.5 -78.5zM439 118.5q47 61.5 47 171.5q0 73 -19 124t-65.5 80t-127.5 29h-115v-202h164v-48h-164v-216h115q118 0 165 61.5z" />
    <glyph glyph-name="e.sc" horiz-adv-x="480" 
d="M95 580h336v-57h-272v-198h269v-58h-269v-210h272v-57h-336v580z" />
    <glyph glyph-name="eacute.sc" horiz-adv-x="480" 
d="M95 580h336v-57h-272v-198h269v-58h-269v-210h272v-57h-336v580zM299 824h67l-101 -153h-61z" />
    <glyph glyph-name="ebreve.sc" horiz-adv-x="480" 
d="M95 580h336v-57h-272v-198h269v-58h-269v-210h272v-57h-336v580zM157 707q-34 39 -37 117h51q3 -59 23.5 -86t68.5 -27t69 27t25 86h50q-4 -79 -37.5 -117.5t-106.5 -38.5q-72 0 -106 39z" />
    <glyph glyph-name="ecaron.sc" horiz-adv-x="480" 
d="M95 580h336v-57h-272v-198h269v-58h-269v-210h272v-57h-336v580zM305 669h-82l-104 154h64l81 -121l81 121h64z" />
    <glyph glyph-name="ecircumflex.sc" horiz-adv-x="480" 
d="M95 580h336v-57h-272v-198h269v-58h-269v-210h272v-57h-336v580zM223 824h82l104 -154h-64l-81 121l-81 -121h-64z" />
    <glyph glyph-name="edieresis.sc" horiz-adv-x="480" 
d="M95 580h336v-57h-272v-198h269v-58h-269v-210h272v-57h-336v580zM140 703.5q-13 12.5 -13 32.5t13 33.5t34 13.5q19 0 32.5 -13.5t13.5 -33.5q0 -19 -13.5 -32t-32.5 -13q-21 0 -34 12.5zM323 703.5q-13 12.5 -13 32.5t13 33.5t33 13.5t33 -13.5t13 -33.5q0 -19 -13 -32
t-33 -13t-33 12.5z" />
    <glyph glyph-name="edotaccent.sc" horiz-adv-x="480" 
d="M95 580h336v-57h-272v-198h269v-58h-269v-210h272v-57h-336v580zM230 714.5q-13 12.5 -13 32.5q0 21 13 34.5t34 13.5q20 0 33.5 -13.5t13.5 -34.5q0 -19 -13.5 -32t-33.5 -13q-21 0 -34 12.5z" />
    <glyph glyph-name="egrave.sc" horiz-adv-x="480" 
d="M95 580h336v-57h-272v-198h269v-58h-269v-210h272v-57h-336v580zM262 671l-100 153h67l95 -153h-62z" />
    <glyph glyph-name="emacron.sc" horiz-adv-x="480" 
d="M95 580h336v-57h-272v-198h269v-58h-269v-210h272v-57h-336v580zM126 759h275v-47h-275v47z" />
    <glyph glyph-name="eogonek.sc" horiz-adv-x="480" 
d="M443 -157v-44q-26 -10 -59 -10q-43 0 -69 21.5t-26 60.5q0 35 21 64t65 65h-280v580h336v-57h-272v-198h269v-58h-269v-210h272v-57q-48 -41 -68 -67.5t-20 -54.5q0 -22 14 -33t36 -11q26 0 50 9z" />
    <glyph glyph-name="uni0259.sc" horiz-adv-x="599" 
d="M436 553.5q58 -39.5 84 -107.5t26 -157q0 -86 -25.5 -153.5t-83 -108t-147.5 -40.5q-125 0 -181 75.5t-56 199.5v38h425q-2 108 -44.5 172t-144.5 64q-77 0 -120 -38t-48 -111h-63q3 64 32 110.5t79.5 71t118.5 24.5q90 0 148 -39.5zM426 98.5q44 54.5 51 149.5h-360v-6
q0 -198 172 -198q93 0 137 54.5z" />
    <glyph glyph-name="f.sc" horiz-adv-x="467" 
d="M95 580h329v-57h-265v-198h263v-58h-263v-267h-64v580z" />
    <glyph glyph-name="g.sc" horiz-adv-x="616" 
d="M564 301v-39q0 -124 -58.5 -199.5t-188.5 -75.5q-93 0 -152 40t-85.5 108t-26.5 155q0 88 27 156t87 107.5t153 39.5q71 0 123 -24.5t82 -71t33 -110.5h-64q-6 73 -50.5 110t-124.5 37q-110 0 -154 -66.5t-44 -177.5q0 -113 44.5 -178.5t153.5 -65.5q181 0 181 196v3
h-165v56h229z" />
    <glyph glyph-name="gbreve.sc" horiz-adv-x="616" 
d="M564 301v-39q0 -124 -58.5 -199.5t-188.5 -75.5q-93 0 -152 40t-85.5 108t-26.5 155q0 88 27 156t87 107.5t153 39.5q71 0 123 -24.5t82 -71t33 -110.5h-64q-6 73 -50.5 110t-124.5 37q-110 0 -154 -66.5t-44 -177.5q0 -113 44.5 -178.5t153.5 -65.5q181 0 181 196v3
h-165v56h229zM210 707q-34 39 -37 117h51q3 -59 23.5 -86t68.5 -27t69 27t25 86h50q-4 -79 -37.5 -117.5t-106.5 -38.5q-72 0 -106 39z" />
    <glyph glyph-name="gcircumflex.sc" horiz-adv-x="616" 
d="M564 301v-39q0 -124 -58.5 -199.5t-188.5 -75.5q-93 0 -152 40t-85.5 108t-26.5 155q0 88 27 156t87 107.5t153 39.5q71 0 123 -24.5t82 -71t33 -110.5h-64q-6 73 -50.5 110t-124.5 37q-110 0 -154 -66.5t-44 -177.5q0 -113 44.5 -178.5t153.5 -65.5q181 0 181 196v3
h-165v56h229zM276 824h82l104 -154h-64l-81 121l-81 -121h-64z" />
    <glyph glyph-name="uni0123.sc" horiz-adv-x="616" 
d="M564 301v-39q0 -124 -58.5 -199.5t-188.5 -75.5q-93 0 -152 40t-85.5 108t-26.5 155q0 88 27 156t87 107.5t153 39.5q71 0 123 -24.5t82 -71t33 -110.5h-64q-6 73 -50.5 110t-124.5 37q-110 0 -154 -66.5t-44 -177.5q0 -113 44.5 -178.5t153.5 -65.5q181 0 181 196v3
h-165v56h229zM287 -54h63l-37 -147h-57z" />
    <glyph glyph-name="gdotaccent.sc" horiz-adv-x="616" 
d="M564 301v-39q0 -124 -58.5 -199.5t-188.5 -75.5q-93 0 -152 40t-85.5 108t-26.5 155q0 88 27 156t87 107.5t153 39.5q71 0 123 -24.5t82 -71t33 -110.5h-64q-6 73 -50.5 110t-124.5 37q-110 0 -154 -66.5t-44 -177.5q0 -113 44.5 -178.5t153.5 -65.5q181 0 181 196v3
h-165v56h229zM283 714.5q-13 12.5 -13 32.5q0 21 13 34.5t34 13.5q20 0 33.5 -13.5t13.5 -34.5q0 -19 -13.5 -32t-33.5 -13q-21 0 -34 12.5z" />
    <glyph glyph-name="h.sc" horiz-adv-x="608" 
d="M95 580h64v-255h289v255h64v-580h-64v267h-289v-267h-64v580z" />
    <glyph glyph-name="hbar.sc" horiz-adv-x="608" 
d="M512 580v-580h-64v267h-289v-267h-64v580h64v-99h289v99h64zM448 325v109h-289v-109h289z" />
    <glyph glyph-name="hcircumflex.sc" horiz-adv-x="608" 
d="M95 580h64v-255h289v255h64v-580h-64v267h-289v-267h-64v580zM263 824h82l104 -154h-64l-81 121l-81 -121h-64z" />
    <glyph glyph-name="i.sc" horiz-adv-x="255" 
d="M95 580h64v-580h-64v580z" />
    <glyph glyph-name="dotlessi.sc" horiz-adv-x="255" 
d="M95 580h64v-580h-64v580z" />
    <glyph glyph-name="iacute.sc" horiz-adv-x="255" 
d="M95 580h64v-580h-64v580zM161 824h65l-84 -153h-59z" />
    <glyph glyph-name="ibreve.sc" horiz-adv-x="255" 
d="M95 580h64v-580h-64v580zM41 706.5q-27 38.5 -28 117.5h48q1 -61 15.5 -87.5t49.5 -26.5q25 0 39.5 12t20.5 36.5t7 65.5h47q-1 -79 -28 -117.5t-86 -38.5q-58 0 -85 38.5z" />
    <glyph glyph-name="icircumflex.sc" horiz-adv-x="255" 
d="M95 580h64v-580h-64v580zM92 824h69l89 -154h-56l-67 117l-68 -117h-56z" />
    <glyph glyph-name="idieresis.sc" horiz-adv-x="255" 
d="M95 580h64v-580h-64v580zM32.5 702.5q-11.5 11.5 -11.5 29.5t11.5 29.5t30.5 11.5q17 0 28.5 -11.5t11.5 -29.5t-11.5 -29.5t-28.5 -11.5q-19 0 -30.5 11.5zM160.5 702.5q-11.5 11.5 -11.5 29.5t11.5 29.5t29.5 11.5q17 0 29 -11.5t12 -29.5t-12 -29.5t-29 -11.5
q-18 0 -29.5 11.5z" />
    <glyph glyph-name="i.sc.loclTRK" horiz-adv-x="255" 
d="M95 580h64v-580h-64v580zM93 712.5q-13 12.5 -13 32.5q0 21 13 34.5t34 13.5q20 0 33.5 -13.5t13.5 -34.5q0 -19 -13.5 -32t-33.5 -13q-21 0 -34 12.5z" />
    <glyph glyph-name="igrave.sc" horiz-adv-x="255" 
d="M95 580h64v-580h-64v580zM112 671l-84 153h65l78 -153h-59z" />
    <glyph glyph-name="ij.sc" horiz-adv-x="572" 
d="M95 580h64v-580h-64v580zM279 2v60q21 -3 43 -3q41 0 64.5 11.5t34.5 37.5t11 70v402h64v-412q0 -88 -39 -129t-125 -41q-29 0 -53 4z" />
    <glyph glyph-name="imacron.sc" horiz-adv-x="255" 
d="M95 580h64v-580h-64v580zM27 759h199v-47h-199v47z" />
    <glyph glyph-name="iogonek.sc" horiz-adv-x="255" 
d="M177 -157v-44q-21 -10 -48 -10q-39 0 -62.5 20t-23.5 55q0 36 16 67.5t48 68.5h-12v580h64v-580q-34 -44 -48 -72t-14 -57q0 -19 11.5 -28t29.5 -9q19 0 39 9z" />
    <glyph glyph-name="itilde.sc" horiz-adv-x="255" 
d="M95 580h64v-580h-64v580zM140.5 681.5q-14.5 14.5 -27.5 47.5q-1 3 -7.5 20t-13.5 24.5t-16 7.5q-12 0 -18.5 -12t-9.5 -35.5t-4 -63.5h-43q2 57 8.5 90.5t21.5 50t41 16.5t40.5 -14.5t27.5 -47.5q9 -27 16.5 -39.5t20.5 -12.5q12 0 18.5 12t9.5 35.5t4 63.5h43
q-2 -57 -8.5 -90.5t-21.5 -50t-42 -16.5q-25 0 -39.5 14.5z" />
    <glyph glyph-name="j.sc" horiz-adv-x="317" 
d="M24 2v60q21 -3 43 -3q41 0 64.5 11.5t34.5 37.5t11 70v402h64v-412q0 -88 -39 -129t-125 -41q-29 0 -53 4z" />
    <glyph glyph-name="uni006A0301.sc" horiz-adv-x="317" 
d="M24 2v60q21 -3 43 -3q41 0 64.5 11.5t34.5 37.5t11 70v402h64v-412q0 -88 -39 -129t-125 -41q-29 0 -53 4zM244 824h65l-84 -153h-59z" />
    <glyph glyph-name="jcircumflex.sc" horiz-adv-x="317" 
d="M24 2v60q21 -3 43 -3q41 0 64.5 11.5t34.5 37.5t11 70v402h64v-412q0 -88 -39 -129t-125 -41q-29 0 -53 4zM175 824h69l89 -154h-56l-67 117l-68 -117h-56z" />
    <glyph glyph-name="k.sc" horiz-adv-x="502" 
d="M413 0l-254 295v-295h-64v580h64v-244l223 244h75l-238 -263l273 -317h-79z" />
    <glyph glyph-name="uni0137.sc" horiz-adv-x="502" 
d="M413 0l-254 295v-295h-64v580h64v-244l223 244h75l-238 -263l273 -317h-79zM248 -54h63l-37 -147h-57z" />
    <glyph glyph-name="kgreenlandic.sc" horiz-adv-x="502" 
d="M413 0l-254 295v-295h-64v580h64v-244l223 244h75l-238 -263l273 -317h-79z" />
    <glyph glyph-name="l.sc" horiz-adv-x="425" 
d="M95 580h64v-521h242v-59h-306v580z" />
    <glyph glyph-name="lacute.sc" horiz-adv-x="425" 
d="M95 580h64v-521h242v-59h-306v580zM188 824h67l-101 -153h-61z" />
    <glyph glyph-name="lcaron.sc" horiz-adv-x="425" 
d="M95 580h64v-521h242v-59h-306v580zM247 580h57l-36 -166h-51z" />
    <glyph glyph-name="uni013C.sc" horiz-adv-x="425" 
d="M95 580h64v-521h242v-59h-306v580zM219 -54h63l-37 -147h-57z" />
    <glyph glyph-name="ldot.sc" horiz-adv-x="454" 
d="M95 580h64v-521h242v-59h-306v580zM300 302q-13 13 -13 35t13 35.5t35 13.5q21 0 35 -14t14 -35t-14 -34.5t-35 -13.5q-22 0 -35 13z" />
    <glyph glyph-name="lslash.sc" horiz-adv-x="425" 
d="M401 59v-59h-306v263l-66 -44v59l66 43v259h64v-223l144 97v-59l-144 -97v-239h242z" />
    <glyph glyph-name="m.sc" horiz-adv-x="751" 
d="M95 580h81l199 -471l200 471h80v-580h-61v477l-201 -477h-34l-203 477v-477h-61v580z" />
    <glyph glyph-name="n.sc" horiz-adv-x="630" 
d="M95 580h68l310 -478v478h61v-580h-68l-309 479v-479h-62v580z" />
    <glyph glyph-name="nacute.sc" horiz-adv-x="630" 
d="M95 580h68l310 -478v478h61v-580h-68l-309 479v-479h-62v580zM351 824h67l-101 -153h-61z" />
    <glyph glyph-name="napostrophe.sc" horiz-adv-x="769" 
d="M254 580h68l310 -478v478h61v-580h-68l-309 479v-479h-62v580zM113 706h65l-83 -281h-50z" />
    <glyph glyph-name="ncaron.sc" horiz-adv-x="630" 
d="M95 580h68l310 -478v478h61v-580h-68l-309 479v-479h-62v580zM357 669h-82l-104 154h64l81 -121l81 121h64z" />
    <glyph glyph-name="uni0146.sc" horiz-adv-x="630" 
d="M95 580h68l310 -478v478h61v-580h-68l-309 479v-479h-62v580zM281 -54h63l-37 -147h-57z" />
    <glyph glyph-name="eng.sc" horiz-adv-x="630" 
d="M534 580v-641q0 -56 -24.5 -81t-79.5 -25q-8 0 -42 2v54q24 -2 27 -2q30 0 44 14.5t14 46.5v52l-316 478v-478h-62v580h68l310 -471v471h61z" />
    <glyph glyph-name="ntilde.sc" horiz-adv-x="630" 
d="M95 580h68l310 -478v478h61v-580h-68l-309 479v-479h-62v580zM343.5 679.5q-17.5 12.5 -39.5 47.5q-2 3 -12.5 20t-21.5 24.5t-23 7.5q-25 0 -35 -26t-12 -83h-46q2 80 22.5 118.5t66.5 38.5q26 0 43.5 -13t40.5 -48q9 -13 18 -25.5t18.5 -19t21.5 -6.5q17 0 26.5 12
t14 35t6.5 62h46q-2 -80 -22.5 -118.5t-66.5 -38.5q-28 0 -45.5 12.5z" />
    <glyph glyph-name="o.sc" horiz-adv-x="634" 
d="M163 28.5q-59 41.5 -84.5 109t-25.5 152.5q0 86 26 153.5t85 108.5t153 41q95 0 154 -40.5t85 -108.5t26 -154q0 -87 -26.5 -154.5t-85.5 -108t-153 -40.5q-95 0 -154 41.5zM469.5 113.5q44.5 67.5 44.5 176.5t-44.5 176t-152.5 67q-197 0 -197 -243q0 -109 45 -176.5
t152 -67.5q108 0 152.5 67.5z" />
    <glyph glyph-name="oacute.sc" horiz-adv-x="634" 
d="M163 28.5q-59 41.5 -84.5 109t-25.5 152.5q0 86 26 153.5t85 108.5t153 41q95 0 154 -40.5t85 -108.5t26 -154q0 -87 -26.5 -154.5t-85.5 -108t-153 -40.5q-95 0 -154 41.5zM469.5 113.5q44.5 67.5 44.5 176.5t-44.5 176t-152.5 67q-197 0 -197 -243q0 -109 45 -176.5
t152 -67.5q108 0 152.5 67.5zM351 824h67l-101 -153h-61z" />
    <glyph glyph-name="obreve.sc" horiz-adv-x="634" 
d="M163 28.5q-59 41.5 -84.5 109t-25.5 152.5q0 86 26 153.5t85 108.5t153 41q95 0 154 -40.5t85 -108.5t26 -154q0 -87 -26.5 -154.5t-85.5 -108t-153 -40.5q-95 0 -154 41.5zM469.5 113.5q44.5 67.5 44.5 176.5t-44.5 176t-152.5 67q-197 0 -197 -243q0 -109 45 -176.5
t152 -67.5q108 0 152.5 67.5zM210 707q-34 39 -37 117h51q3 -59 23.5 -86t68.5 -27t69 27t25 86h50q-4 -79 -37.5 -117.5t-106.5 -38.5q-72 0 -106 39z" />
    <glyph glyph-name="ocircumflex.sc" horiz-adv-x="634" 
d="M163 28.5q-59 41.5 -84.5 109t-25.5 152.5q0 86 26 153.5t85 108.5t153 41q95 0 154 -40.5t85 -108.5t26 -154q0 -87 -26.5 -154.5t-85.5 -108t-153 -40.5q-95 0 -154 41.5zM469.5 113.5q44.5 67.5 44.5 176.5t-44.5 176t-152.5 67q-197 0 -197 -243q0 -109 45 -176.5
t152 -67.5q108 0 152.5 67.5zM276 824h82l104 -154h-64l-81 121l-81 -121h-64z" />
    <glyph glyph-name="odieresis.sc" horiz-adv-x="634" 
d="M163 28.5q-59 41.5 -84.5 109t-25.5 152.5q0 86 26 153.5t85 108.5t153 41q95 0 154 -40.5t85 -108.5t26 -154q0 -87 -26.5 -154.5t-85.5 -108t-153 -40.5q-95 0 -154 41.5zM469.5 113.5q44.5 67.5 44.5 176.5t-44.5 176t-152.5 67q-197 0 -197 -243q0 -109 45 -176.5
t152 -67.5q108 0 152.5 67.5zM192 703.5q-13 12.5 -13 32.5t13 33.5t34 13.5q19 0 32.5 -13.5t13.5 -33.5q0 -19 -13.5 -32t-32.5 -13q-21 0 -34 12.5zM375 703.5q-13 12.5 -13 32.5t13 33.5t33 13.5t33 -13.5t13 -33.5q0 -19 -13 -32t-33 -13t-33 12.5z" />
    <glyph glyph-name="ograve.sc" horiz-adv-x="634" 
d="M163 28.5q-59 41.5 -84.5 109t-25.5 152.5q0 86 26 153.5t85 108.5t153 41q95 0 154 -40.5t85 -108.5t26 -154q0 -87 -26.5 -154.5t-85.5 -108t-153 -40.5q-95 0 -154 41.5zM469.5 113.5q44.5 67.5 44.5 176.5t-44.5 176t-152.5 67q-197 0 -197 -243q0 -109 45 -176.5
t152 -67.5q108 0 152.5 67.5zM315 671l-100 153h67l95 -153h-62z" />
    <glyph glyph-name="ohungarumlaut.sc" horiz-adv-x="634" 
d="M163 28.5q-59 41.5 -84.5 109t-25.5 152.5q0 86 26 153.5t85 108.5t153 41q95 0 154 -40.5t85 -108.5t26 -154q0 -87 -26.5 -154.5t-85.5 -108t-153 -40.5q-95 0 -154 41.5zM469.5 113.5q44.5 67.5 44.5 176.5t-44.5 176t-152.5 67q-197 0 -197 -243q0 -109 45 -176.5
t152 -67.5q108 0 152.5 67.5zM322 824h63l-121 -153h-53zM457 824h63l-119 -153h-54z" />
    <glyph glyph-name="omacron.sc" horiz-adv-x="634" 
d="M163 28.5q-59 41.5 -84.5 109t-25.5 152.5q0 86 26 153.5t85 108.5t153 41q95 0 154 -40.5t85 -108.5t26 -154q0 -87 -26.5 -154.5t-85.5 -108t-153 -40.5q-95 0 -154 41.5zM469.5 113.5q44.5 67.5 44.5 176.5t-44.5 176t-152.5 67q-197 0 -197 -243q0 -109 45 -176.5
t152 -67.5q108 0 152.5 67.5zM179 759h275v-47h-275v47z" />
    <glyph glyph-name="oslash.sc" horiz-adv-x="634" 
d="M522 505q31 -40 45.5 -95t14.5 -120q0 -87 -26.5 -154.5t-85.5 -108t-153 -40.5q-107 0 -172 55l-36 -42h-60l63 76q-30 41 -44.5 96t-14.5 118q0 86 26 153.5t85 108.5t153 41q107 0 173 -55l35 42h60zM120 290q0 -102 36 -163l292 362q-47 44 -131 44q-197 0 -197 -243
zM469.5 113.5q44.5 67.5 44.5 176.5q0 102 -36 163l-294 -362q50 -45 133 -45q108 0 152.5 67.5z" />
    <glyph glyph-name="oslashacute.sc" horiz-adv-x="634" 
d="M522 505q31 -40 45.5 -95t14.5 -120q0 -87 -26.5 -154.5t-85.5 -108t-153 -40.5q-107 0 -172 55l-36 -42h-60l63 76q-30 41 -44.5 96t-14.5 118q0 86 26 153.5t85 108.5t153 41q107 0 173 -55l35 42h60zM120 290q0 -102 36 -163l292 362q-47 44 -131 44q-197 0 -197 -243
zM469.5 113.5q44.5 67.5 44.5 176.5q0 102 -36 163l-294 -362q50 -45 133 -45q108 0 152.5 67.5zM351 824h67l-101 -153h-61z" />
    <glyph glyph-name="otilde.sc" horiz-adv-x="634" 
d="M163 28.5q-59 41.5 -84.5 109t-25.5 152.5q0 86 26 153.5t85 108.5t153 41q95 0 154 -40.5t85 -108.5t26 -154q0 -87 -26.5 -154.5t-85.5 -108t-153 -40.5q-95 0 -154 41.5zM469.5 113.5q44.5 67.5 44.5 176.5t-44.5 176t-152.5 67q-197 0 -197 -243q0 -109 45 -176.5
t152 -67.5q108 0 152.5 67.5zM343.5 679.5q-17.5 12.5 -39.5 47.5q-2 3 -12.5 20t-21.5 24.5t-23 7.5q-25 0 -35 -26t-12 -83h-46q2 80 22.5 118.5t66.5 38.5q26 0 43.5 -13t40.5 -48q9 -13 18 -25.5t18.5 -19t21.5 -6.5q17 0 26.5 12t14 35t6.5 62h46q-2 -80 -22.5 -118.5
t-66.5 -38.5q-28 0 -45.5 12.5z" />
    <glyph glyph-name="oe.sc" horiz-adv-x="874" 
d="M553 523v-199h268v-57h-268v-210h271v-57h-330v83q-61 -94 -190 -94q-91 0 -147 41t-80 108.5t-24 151.5t24.5 151.5t80.5 108.5t146 41q129 0 190 -93v82h330v-57h-271zM449.5 114.5q41.5 67.5 41.5 175.5q0 109 -42 176t-143 67q-102 0 -144 -67.5t-42 -175.5
q0 -109 42.5 -176t143.5 -67q102 0 143.5 67.5z" />
    <glyph glyph-name="p.sc" horiz-adv-x="500" 
d="M95 580h191q97 0 143.5 -40.5t46.5 -116.5q0 -77 -47.5 -118t-142.5 -41h-127v-264h-64v580zM273 319q70 0 103 25.5t33 77.5t-33 77.5t-103 25.5h-114v-206h114z" />
    <glyph glyph-name="thorn.sc" horiz-adv-x="501" 
d="M95 580h64v-102h104q112 0 163 -47t51 -136q0 -91 -50.5 -138.5t-163.5 -47.5h-104v-109h-64v580zM252 164q84 0 121 33t37 98q0 63 -37 95.5t-121 32.5h-93v-259h93z" />
    <glyph glyph-name="q.sc" horiz-adv-x="634" 
d="M544.5 111.5q-37.5 -75.5 -118.5 -106.5l68 -104l-50 -31l-76 120q-24 -3 -51 -3q-95 0 -154 41.5t-84.5 109t-25.5 152.5q0 86 26 153.5t85 108.5t153 41q95 0 154 -40.5t85 -108.5t26 -154q0 -103 -37.5 -178.5zM514 290q0 109 -44.5 176t-152.5 67q-197 0 -197 -243
q0 -109 45 -176.5t152 -67.5h15l-43 69l45 29l57 -87q123 41 123 233z" />
    <glyph glyph-name="r.sc" horiz-adv-x="539" 
d="M249 265h-90v-265h-64v580h201q101 0 147.5 -41t46.5 -114q0 -70 -40.5 -112t-128.5 -47l203 -266h-74zM159 317h124q74 0 107 26.5t33 79.5q0 52 -33 77.5t-107 25.5h-124v-209z" />
    <glyph glyph-name="racute.sc" horiz-adv-x="539" 
d="M249 265h-90v-265h-64v580h201q101 0 147.5 -41t46.5 -114q0 -70 -40.5 -112t-128.5 -47l203 -266h-74zM159 317h124q74 0 107 26.5t33 79.5q0 52 -33 77.5t-107 25.5h-124v-209zM314 824h67l-101 -153h-61z" />
    <glyph glyph-name="rcaron.sc" horiz-adv-x="539" 
d="M249 265h-90v-265h-64v580h201q101 0 147.5 -41t46.5 -114q0 -70 -40.5 -112t-128.5 -47l203 -266h-74zM159 317h124q74 0 107 26.5t33 79.5q0 52 -33 77.5t-107 25.5h-124v-209zM320 669h-82l-104 154h64l81 -121l81 121h64z" />
    <glyph glyph-name="uni0157.sc" horiz-adv-x="539" 
d="M249 265h-90v-265h-64v580h201q101 0 147.5 -41t46.5 -114q0 -70 -40.5 -112t-128.5 -47l203 -266h-74zM159 317h124q74 0 107 26.5t33 79.5q0 52 -33 77.5t-107 25.5h-124v-209zM271 -54h63l-37 -147h-57z" />
    <glyph glyph-name="s.sc" horiz-adv-x="515" 
d="M91 42q-52 55 -52 148h69q0 -70 34 -108.5t118 -38.5q72 0 110 29.5t38 78.5q0 37 -21.5 59t-55.5 34.5t-99 29.5q-60 16 -98 34.5t-60 48.5t-22 76q0 45 22.5 81.5t67.5 57.5t108 21q103 0 151.5 -53t48.5 -140h-66q0 139 -136 139q-42 0 -71.5 -13t-44 -35.5
t-14.5 -50.5q0 -33 18 -53t47.5 -31t86.5 -26l21 -6q65 -18 104 -37t60 -49.5t21 -79.5q0 -52 -24.5 -90.5t-73.5 -59.5t-119 -21q-116 0 -168 55z" />
    <glyph glyph-name="sacute.sc" horiz-adv-x="515" 
d="M91 42q-52 55 -52 148h69q0 -70 34 -108.5t118 -38.5q72 0 110 29.5t38 78.5q0 37 -21.5 59t-55.5 34.5t-99 29.5q-60 16 -98 34.5t-60 48.5t-22 76q0 45 22.5 81.5t67.5 57.5t108 21q103 0 151.5 -53t48.5 -140h-66q0 139 -136 139q-42 0 -71.5 -13t-44 -35.5
t-14.5 -50.5q0 -33 18 -53t47.5 -31t86.5 -26l21 -6q65 -18 104 -37t60 -49.5t21 -79.5q0 -52 -24.5 -90.5t-73.5 -59.5t-119 -21q-116 0 -168 55zM293 824h67l-101 -153h-61z" />
    <glyph glyph-name="scaron.sc" horiz-adv-x="515" 
d="M91 42q-52 55 -52 148h69q0 -70 34 -108.5t118 -38.5q72 0 110 29.5t38 78.5q0 37 -21.5 59t-55.5 34.5t-99 29.5q-60 16 -98 34.5t-60 48.5t-22 76q0 45 22.5 81.5t67.5 57.5t108 21q103 0 151.5 -53t48.5 -140h-66q0 139 -136 139q-42 0 -71.5 -13t-44 -35.5
t-14.5 -50.5q0 -33 18 -53t47.5 -31t86.5 -26l21 -6q65 -18 104 -37t60 -49.5t21 -79.5q0 -52 -24.5 -90.5t-73.5 -59.5t-119 -21q-116 0 -168 55zM299 669h-82l-104 154h64l81 -121l81 121h64z" />
    <glyph glyph-name="scedilla.sc" horiz-adv-x="515" 
d="M453.5 71.5q-22.5 -37.5 -67 -59.5t-108.5 -25l-12 -41h12q47 0 72.5 -21.5t25.5 -56.5q0 -41 -29.5 -62t-84.5 -21q-39 0 -72 12l8 40q28 -11 60 -11q68 0 68 43q0 42 -70 42h-49l23 77q-101 7 -146 61t-45 141h69q0 -70 34 -108.5t118 -38.5q72 0 110 29.5t38 78.5
q0 37 -21.5 59t-55.5 34.5t-99 29.5q-60 16 -98 34.5t-60 48.5t-22 76q0 45 22.5 81.5t67.5 57.5t108 21q103 0 151.5 -53t48.5 -140h-66q0 139 -136 139q-42 0 -71.5 -13t-44 -35.5t-14.5 -50.5q0 -33 18 -53t47.5 -31t86.5 -26l21 -6q65 -18 104 -37t60 -49.5t21 -79.5
t-22.5 -86.5z" />
    <glyph glyph-name="scircumflex.sc" horiz-adv-x="515" 
d="M91 42q-52 55 -52 148h69q0 -70 34 -108.5t118 -38.5q72 0 110 29.5t38 78.5q0 37 -21.5 59t-55.5 34.5t-99 29.5q-60 16 -98 34.5t-60 48.5t-22 76q0 45 22.5 81.5t67.5 57.5t108 21q103 0 151.5 -53t48.5 -140h-66q0 139 -136 139q-42 0 -71.5 -13t-44 -35.5
t-14.5 -50.5q0 -33 18 -53t47.5 -31t86.5 -26l21 -6q65 -18 104 -37t60 -49.5t21 -79.5q0 -52 -24.5 -90.5t-73.5 -59.5t-119 -21q-116 0 -168 55zM217 824h82l104 -154h-64l-81 121l-81 -121h-64z" />
    <glyph glyph-name="uni0219.sc" horiz-adv-x="515" 
d="M91 42q-52 55 -52 148h69q0 -70 34 -108.5t118 -38.5q72 0 110 29.5t38 78.5q0 37 -21.5 59t-55.5 34.5t-99 29.5q-60 16 -98 34.5t-60 48.5t-22 76q0 45 22.5 81.5t67.5 57.5t108 21q103 0 151.5 -53t48.5 -140h-66q0 139 -136 139q-42 0 -71.5 -13t-44 -35.5
t-14.5 -50.5q0 -33 18 -53t47.5 -31t86.5 -26l21 -6q65 -18 104 -37t60 -49.5t21 -79.5q0 -52 -24.5 -90.5t-73.5 -59.5t-119 -21q-116 0 -168 55zM228 -54h63l-37 -147h-57z" />
    <glyph glyph-name="germandbls.sc" horiz-adv-x="577" 
d="M493 285q39 -46 39 -114q0 -82 -51.5 -128t-155.5 -46q-51 0 -89 7v59q34 -7 80 -7q149 0 149 117q0 119 -144 119q-18 0 -32 -2v2l122 231h-252v-523h-64v580h408v-3l-126 -238q77 -8 116 -54z" />
    <glyph glyph-name="t.sc" horiz-adv-x="479" 
d="M207 523h-183v57h431v-57h-184v-523h-64v523z" />
    <glyph glyph-name="tbar.sc" horiz-adv-x="479" 
d="M271 523v-160h115v-48h-115v-315h-64v315h-114v48h114v160h-183v57h431v-57h-184z" />
    <glyph glyph-name="tcaron.sc" horiz-adv-x="492" 
d="M207 523h-183v57h431v-57h-184v-523h-64v523zM281 669h-82l-104 154h64l81 -121l81 121h64z" />
    <glyph glyph-name="uni0163.sc" horiz-adv-x="479" 
d="M263 0l-16 -54h13q47 0 72 -21t25 -57q0 -41 -29 -62t-84 -21q-40 0 -73 12l8 40q30 -11 61 -11q67 0 67 43q0 42 -69 42h-49l26 89h-8v523h-183v57h431v-57h-184v-523h-8z" />
    <glyph glyph-name="uni021B.sc" horiz-adv-x="479" 
d="M207 523h-183v57h431v-57h-184v-523h-64v523zM210 -54h63l-37 -147h-57z" />
    <glyph glyph-name="u.sc" horiz-adv-x="564" 
d="M126 34.5q-50 47.5 -50 143.5v402h64v-398q0 -70 33 -103t108 -33q76 0 109.5 33t33.5 103v398h64v-402q0 -97 -50.5 -144t-156.5 -47q-105 0 -155 47.5z" />
    <glyph glyph-name="uacute.sc" horiz-adv-x="564" 
d="M126 34.5q-50 47.5 -50 143.5v402h64v-398q0 -70 33 -103t108 -33q76 0 109.5 33t33.5 103v398h64v-402q0 -97 -50.5 -144t-156.5 -47q-105 0 -155 47.5zM317 824h67l-101 -153h-61z" />
    <glyph glyph-name="ubreve.sc" horiz-adv-x="564" 
d="M126 34.5q-50 47.5 -50 143.5v402h64v-398q0 -70 33 -103t108 -33q76 0 109.5 33t33.5 103v398h64v-402q0 -97 -50.5 -144t-156.5 -47q-105 0 -155 47.5zM176 707q-34 39 -37 117h51q3 -59 23.5 -86t68.5 -27t69 27t25 86h50q-4 -79 -37.5 -117.5t-106.5 -38.5
q-72 0 -106 39z" />
    <glyph glyph-name="ucircumflex.sc" horiz-adv-x="564" 
d="M126 34.5q-50 47.5 -50 143.5v402h64v-398q0 -70 33 -103t108 -33q76 0 109.5 33t33.5 103v398h64v-402q0 -97 -50.5 -144t-156.5 -47q-105 0 -155 47.5zM242 824h82l104 -154h-64l-81 121l-81 -121h-64z" />
    <glyph glyph-name="udieresis.sc" horiz-adv-x="564" 
d="M126 34.5q-50 47.5 -50 143.5v402h64v-398q0 -70 33 -103t108 -33q76 0 109.5 33t33.5 103v398h64v-402q0 -97 -50.5 -144t-156.5 -47q-105 0 -155 47.5zM158 703.5q-13 12.5 -13 32.5t13 33.5t34 13.5q19 0 32.5 -13.5t13.5 -33.5q0 -19 -13.5 -32t-32.5 -13
q-21 0 -34 12.5zM341 703.5q-13 12.5 -13 32.5t13 33.5t33 13.5t33 -13.5t13 -33.5q0 -19 -13 -32t-33 -13t-33 12.5z" />
    <glyph glyph-name="ugrave.sc" horiz-adv-x="564" 
d="M126 34.5q-50 47.5 -50 143.5v402h64v-398q0 -70 33 -103t108 -33q76 0 109.5 33t33.5 103v398h64v-402q0 -97 -50.5 -144t-156.5 -47q-105 0 -155 47.5zM280 671l-100 153h67l95 -153h-62z" />
    <glyph glyph-name="uhungarumlaut.sc" horiz-adv-x="564" 
d="M126 34.5q-50 47.5 -50 143.5v402h64v-398q0 -70 33 -103t108 -33q76 0 109.5 33t33.5 103v398h64v-402q0 -97 -50.5 -144t-156.5 -47q-105 0 -155 47.5zM288 824h63l-121 -153h-53zM423 824h63l-119 -153h-54z" />
    <glyph glyph-name="umacron.sc" horiz-adv-x="564" 
d="M126 34.5q-50 47.5 -50 143.5v402h64v-398q0 -70 33 -103t108 -33q76 0 109.5 33t33.5 103v398h64v-402q0 -97 -50.5 -144t-156.5 -47q-105 0 -155 47.5zM145 759h275v-47h-275v47z" />
    <glyph glyph-name="uogonek.sc" horiz-adv-x="564" 
d="M488 580v-402q0 -59 -17.5 -97t-56.5 -71q-47 -41 -68 -68.5t-21 -55.5q0 -22 14 -33t36 -11q26 0 50 9v-44q-26 -10 -58 -10q-44 0 -70 21.5t-26 60.5q0 30 16 56.5t49 55.5q-21 -4 -55 -4q-105 0 -155 47.5t-50 143.5v402h64v-398q0 -70 33 -103t108 -33q76 0 109.5 33
t33.5 103v398h64z" />
    <glyph glyph-name="uring.sc" horiz-adv-x="564" 
d="M126 34.5q-50 47.5 -50 143.5v402h64v-398q0 -70 33 -103t108 -33q76 0 109.5 33t33.5 103v398h64v-402q0 -97 -50.5 -144t-156.5 -47q-105 0 -155 47.5zM206.5 681.5q-28.5 27.5 -28.5 72.5t28.5 72.5t75.5 27.5q32 0 55.5 -12.5t36.5 -35.5t13 -52q0 -45 -28.5 -72.5
t-76.5 -27.5q-47 0 -75.5 27.5zM327 709.5q17 16.5 17 44.5q0 27 -17.5 44t-44.5 17q-28 0 -44.5 -16.5t-16.5 -44.5t16.5 -44.5t44.5 -16.5t45 16.5z" />
    <glyph glyph-name="utilde.sc" horiz-adv-x="564" 
d="M126 34.5q-50 47.5 -50 143.5v402h64v-398q0 -70 33 -103t108 -33q76 0 109.5 33t33.5 103v398h64v-402q0 -97 -50.5 -144t-156.5 -47q-105 0 -155 47.5zM309.5 679.5q-17.5 12.5 -39.5 47.5q-2 3 -12.5 20t-21.5 24.5t-23 7.5q-25 0 -35 -26t-12 -83h-46
q2 80 22.5 118.5t66.5 38.5q26 0 43.5 -13t40.5 -48q9 -13 18 -25.5t18.5 -19t21.5 -6.5q17 0 26.5 12t14 35t6.5 62h46q-2 -80 -22.5 -118.5t-66.5 -38.5q-28 0 -45.5 12.5z" />
    <glyph glyph-name="v.sc" horiz-adv-x="519" 
d="M510 580l-217 -580h-66l-218 580h68l183 -503l184 503h66z" />
    <glyph glyph-name="w.sc" horiz-adv-x="757" 
d="M747 580l-165 -580h-69l-134 492l-135 -492h-67l-168 580h64l138 -484l133 484h70l133 -483l138 483h62z" />
    <glyph glyph-name="wacute.sc" horiz-adv-x="757" 
d="M747 580l-165 -580h-69l-134 492l-135 -492h-67l-168 580h64l138 -484l133 484h70l133 -483l138 483h62zM414 824h67l-101 -153h-61z" />
    <glyph glyph-name="wcircumflex.sc" horiz-adv-x="757" 
d="M747 580l-165 -580h-69l-134 492l-135 -492h-67l-168 580h64l138 -484l133 484h70l133 -483l138 483h62zM339 824h82l104 -154h-64l-81 121l-81 -121h-64z" />
    <glyph glyph-name="wdieresis.sc" horiz-adv-x="757" 
d="M747 580l-165 -580h-69l-134 492l-135 -492h-67l-168 580h64l138 -484l133 484h70l133 -483l138 483h62zM255 703.5q-13 12.5 -13 32.5t13 33.5t34 13.5q19 0 32.5 -13.5t13.5 -33.5q0 -19 -13.5 -32t-32.5 -13q-21 0 -34 12.5zM438 703.5q-13 12.5 -13 32.5t13 33.5
t33 13.5t33 -13.5t13 -33.5q0 -19 -13 -32t-33 -13t-33 12.5z" />
    <glyph glyph-name="wgrave.sc" horiz-adv-x="757" 
d="M747 580l-165 -580h-69l-134 492l-135 -492h-67l-168 580h64l138 -484l133 484h70l133 -483l138 483h62zM378 671l-100 153h67l95 -153h-62z" />
    <glyph glyph-name="x.sc" horiz-adv-x="550" 
d="M236 308l-200 272h75l165 -222l164 222h75l-200 -272l226 -308h-76l-189 256l-190 -256h-77z" />
    <glyph glyph-name="y.sc" horiz-adv-x="473" 
d="M206 250l-197 330h71l158 -264l156 264h70l-195 -330v-250h-63v250z" />
    <glyph glyph-name="yacute.sc" horiz-adv-x="473" 
d="M206 250l-197 330h71l158 -264l156 264h70l-195 -330v-250h-63v250zM272 824h67l-101 -153h-61z" />
    <glyph glyph-name="ycircumflex.sc" horiz-adv-x="473" 
d="M206 250l-197 330h71l158 -264l156 264h70l-195 -330v-250h-63v250zM197 824h82l104 -154h-64l-81 121l-81 -121h-64z" />
    <glyph glyph-name="ydieresis.sc" horiz-adv-x="473" 
d="M206 250l-197 330h71l158 -264l156 264h70l-195 -330v-250h-63v250zM113 703.5q-13 12.5 -13 32.5t13 33.5t34 13.5q19 0 32.5 -13.5t13.5 -33.5q0 -19 -13.5 -32t-32.5 -13q-21 0 -34 12.5zM296 703.5q-13 12.5 -13 32.5t13 33.5t33 13.5t33 -13.5t13 -33.5
q0 -19 -13 -32t-33 -13t-33 12.5z" />
    <glyph glyph-name="ygrave.sc" horiz-adv-x="473" 
d="M206 250l-197 330h71l158 -264l156 264h70l-195 -330v-250h-63v250zM236 671l-100 153h67l95 -153h-62z" />
    <glyph glyph-name="z.sc" horiz-adv-x="484" 
d="M346 523h-309v57h411l-322 -522h333v-58h-436z" />
    <glyph glyph-name="zacute.sc" horiz-adv-x="484" 
d="M346 523h-309v57h411l-322 -522h333v-58h-436zM274 824h67l-101 -153h-61z" />
    <glyph glyph-name="zcaron.sc" horiz-adv-x="484" 
d="M346 523h-309v57h411l-322 -522h333v-58h-436zM280 669h-82l-104 154h64l81 -121l81 121h64z" />
    <glyph glyph-name="zdotaccent.sc" horiz-adv-x="484" 
d="M346 523h-309v57h411l-322 -522h333v-58h-436zM205 714.5q-13 12.5 -13 32.5q0 21 13 34.5t34 13.5q20 0 33.5 -13.5t13.5 -34.5q0 -19 -13.5 -32t-33.5 -13q-21 0 -34 12.5z" />
    <glyph glyph-name="m.sc.ss01" horiz-adv-x="702" 
d="M95 580h82l175 -263l172 263h82v-580h-61v501l-180 -271h-29l-179 271v-501h-62v580z" />
    <glyph glyph-name="q.sc.ss02" horiz-adv-x="634" 
d="M546.5 114.5q-35.5 -74.5 -112.5 -106.5l62 -114l-58 -28l-64 125q-24 -4 -57 -4q-95 0 -154 41.5t-84.5 109t-25.5 152.5q0 86 26 153.5t85 108.5t153 41q95 0 154 -40.5t85 -108.5t26 -154q0 -101 -35.5 -175.5zM469.5 113.5q44.5 67.5 44.5 176.5t-44.5 176t-152.5 67
q-197 0 -197 -243q0 -109 45 -176.5t152 -67.5q108 0 152.5 67.5z" />
    <glyph glyph-name="oslash.sc.ss04" horiz-adv-x="634" 
d="M517 511q34 -40 49.5 -97t15.5 -124q0 -87 -26.5 -154.5t-85.5 -108t-153 -40.5q-96 0 -157 44l-60 -79l-48 33l65 85q-33 41 -48.5 97.5t-15.5 122.5q0 86 26 153.5t85 108.5t153 41q95 0 157 -43l59 79l49 -33zM469.5 113.5q44.5 67.5 44.5 176.5t-44.5 176t-152.5 67
q-197 0 -197 -243q0 -109 45 -176.5t152 -67.5q108 0 152.5 67.5z" />
    <glyph glyph-name="A.subs" horiz-adv-x="369" 
d="M274 -24h-180l-34 -96h-52l138 388h77l138 -388h-53zM259 19l-74 210h-2l-74 -210h150z" />
    <glyph glyph-name="B.subs" horiz-adv-x="377" 
d="M322 49.5q19 -24.5 19 -62.5q0 -52 -34.5 -79.5t-103.5 -27.5h-131v388h131q62 0 93.5 -26.5t31.5 -70.5q0 -32 -16.5 -55t-51.5 -32q43 -10 62 -34.5zM123 100h66q44 0 65 17.5t21 48.5t-22 47t-67 16h-63v-129zM264 -63.5q24 17.5 24 52.5q0 74 -98 74h-67v-144h63
q54 0 78 17.5z" />
    <glyph glyph-name="C.subs" horiz-adv-x="426" 
d="M83.5 -72.5q-43.5 56.5 -43.5 146.5q0 89 43.5 146t137.5 57q49 0 86 -17.5t58.5 -50.5t23.5 -77h-55q-1 48 -32 74t-83 26q-125 0 -125 -158q0 -72 28 -114.5t98 -42.5q53 0 83.5 26.5t32.5 73.5h54q-1 -45 -22.5 -78t-59 -50.5t-87.5 -17.5q-94 0 -137.5 56.5z" />
    <glyph glyph-name="D.subs" horiz-adv-x="429" 
d="M72 268h131q99 0 142.5 -52.5t43.5 -141.5q0 -90 -43.5 -142t-142.5 -52h-131v388zM196 -75q78 0 109 39t31 110q0 72 -31 111t-109 39h-73v-299h73z" />
    <glyph glyph-name="E.subs" horiz-adv-x="341" 
d="M72 268h232v-44h-181v-124h179v-45h-179v-130h181v-45h-232v388z" />
    <glyph glyph-name="F.subs" horiz-adv-x="330" 
d="M72 268h226v-44h-175v-125h174v-44h-174v-175h-51v388z" />
    <glyph glyph-name="G.subs" horiz-adv-x="431" 
d="M391 83v-26q0 -84 -40.5 -135t-129.5 -51q-94 0 -137.5 56.5t-43.5 146.5q0 92 44.5 147.5t138.5 55.5q49 0 85 -17t56.5 -48t22.5 -74h-51q-4 47 -33.5 71t-80.5 24q-71 0 -99.5 -43.5t-28.5 -115.5q0 -74 29 -116t100 -42q64 0 90.5 33t27.5 90h-109v44h159z" />
    <glyph glyph-name="H.subs" horiz-adv-x="435" 
d="M72 268h51v-167h189v167h51v-388h-51v175h-189v-175h-51v388z" />
    <glyph glyph-name="I.subs" horiz-adv-x="195" 
d="M72 268h51v-388h-51v388z" />
    <glyph glyph-name="J.subs" horiz-adv-x="229" 
d="M19 -119v48q8 -1 28 -1q39 0 55.5 17t16.5 59v264h52v-272q0 -61 -27.5 -89.5t-88.5 -28.5q-18 0 -36 3z" />
    <glyph glyph-name="K.subs" horiz-adv-x="362" 
d="M291 -120l-168 194v-194h-51v388h51v-161l147 161h60l-160 -175l184 -213h-63z" />
    <glyph glyph-name="L.subs" horiz-adv-x="301" 
d="M72 268h51v-341h159v-47h-210v388z" />
    <glyph glyph-name="M.subs" horiz-adv-x="533" 
d="M72 268h61l133 -304l134 304h61v-388h-49v307l-133 -307h-24l-135 307v-307h-48v388z" />
    <glyph glyph-name="N.subs" horiz-adv-x="450" 
d="M72 268h53l204 -307v307h49v-388h-53l-204 307v-307h-49v388z" />
    <glyph glyph-name="O.subs" horiz-adv-x="444" 
d="M83 -72q-43 57 -43 146t43.5 146t137.5 57q96 0 139.5 -56.5t43.5 -146.5t-44 -146.5t-139 -56.5t-138 57zM350 74q0 156 -129 156q-127 0 -127 -156q0 -155 127 -155q129 0 129 155z" />
    <glyph glyph-name="P.subs" horiz-adv-x="355" 
d="M72 268h135q129 0 129 -107q0 -53 -32 -81t-97 -28h-84v-172h-51v388zM195 93q46 0 67.5 16.5t21.5 50.5t-21.5 50.5t-67.5 16.5h-72v-134h72z" />
    <glyph glyph-name="Q.subs" horiz-adv-x="444" 
d="M378.5 -44.5q-25.5 -50.5 -80.5 -71.5l45 -66l-37 -24l-51 79q-22 -2 -34 -2q-95 0 -138 57t-43 146t43.5 146t137.5 57q96 0 139.5 -56.5t43.5 -146.5q0 -68 -25.5 -118.5zM350 74q0 156 -129 156q-127 0 -127 -156q0 -155 127 -155h4l-27 42l33 22l39 -57q80 25 80 148
z" />
    <glyph glyph-name="R.subs" horiz-adv-x="380" 
d="M180 52h-57v-172h-51v388h141q69 0 100.5 -28t31.5 -78q0 -99 -109 -109l133 -173h-58zM123 92h78q48 0 69.5 16.5t21.5 51.5q0 34 -21 50.5t-70 16.5h-78v-135z" />
    <glyph glyph-name="S.subs" horiz-adv-x="361" 
d="M65 -92.5q-36 36.5 -36 97.5h56q0 -43 22 -66.5t75 -23.5q46 0 70 18t24 49q0 23 -14 37t-36.5 22t-66.5 20q-40 11 -66 24t-40.5 33t-14.5 50q0 31 16 55.5t47 39t75 14.5q71 0 104.5 -35t33.5 -94h-53q0 87 -87 87q-40 0 -62 -17t-22 -44q0 -21 13.5 -34t36.5 -21.5
t65 -19.5q44 -12 71 -25t41.5 -34t14.5 -54q0 -34 -17.5 -60t-51.5 -40.5t-82 -14.5q-80 0 -116 36.5z" />
    <glyph glyph-name="T.subs" horiz-adv-x="331" 
d="M140 224h-121v44h294v-44h-122v-344h-51v344z" />
    <glyph glyph-name="U.subs" horiz-adv-x="402" 
d="M93 -96.5q-35 32.5 -35 98.5v266h50v-262q0 -46 22 -67.5t71 -21.5t71 21.5t22 67.5v262h50v-266q0 -67 -34.5 -99t-108.5 -32q-73 0 -108 32.5z" />
    <glyph glyph-name="V.subs" horiz-adv-x="363" 
d="M355 268l-147 -388h-52l-148 388h54l120 -326l120 326h53z" />
    <glyph glyph-name="W.subs" horiz-adv-x="523" 
d="M516 268l-113 -388h-53l-88 317l-88 -317h-53l-113 388h50l90 -315l87 315h54l87 -311l90 311h50z" />
    <glyph glyph-name="X.subs" horiz-adv-x="384" 
d="M160 87l-135 181h60l107 -141l107 141h59l-134 -182l152 -206h-60l-124 164l-124 -164h-60z" />
    <glyph glyph-name="Y.subs" horiz-adv-x="330" 
d="M140 47l-132 221h56l102 -168l102 168h55l-132 -221v-167h-51v167z" />
    <glyph glyph-name="Z.subs" horiz-adv-x="337" 
d="M226 222h-199v46h284l-209 -342h216v-46h-301z" />
    <glyph glyph-name="a.subs" horiz-adv-x="354" 
d="M269 147q28 -32 28 -93v-174h-49v44q-15 -25 -42.5 -38t-65.5 -13q-53 0 -80 23.5t-27 64.5q0 49 37.5 70t108.5 21h69v9q0 40 -16.5 59.5t-60.5 19.5q-39 0 -58.5 -15.5t-19.5 -43.5h-49q0 46 32.5 72t94.5 26q70 0 98 -32zM227 -60q21 27 21 74v3h-65q-48 0 -73 -12
t-25 -39q0 -25 17.5 -39t52.5 -14q51 0 72 27z" />
    <glyph glyph-name="b.subs" horiz-adv-x="376" 
d="M286.5 158q29.5 -21 43 -55.5t13.5 -75.5q0 -43 -14 -77.5t-43.5 -55t-73.5 -20.5q-36 0 -62.5 13.5t-42.5 40.5v-48h-47v424h49v-177q15 26 42 39t61 13q45 0 74.5 -21zM269 -51.5q22 30.5 22 78.5t-22 78t-71 30q-42 0 -66 -26.5t-24 -73.5v-18q0 -47 24 -73t66 -26
q49 0 71 30.5z" />
    <glyph glyph-name="c.subs" horiz-adv-x="341" 
d="M68.5 -83q-35.5 43 -35.5 110q0 43 15.5 77t47.5 54.5t80 20.5q58 0 94 -30.5t38 -83.5h-53q-1 33 -22.5 51.5t-56.5 18.5q-47 0 -69 -30.5t-22 -77.5q0 -48 22 -78.5t69 -30.5q36 0 57 18.5t22 48.5h53q-1 -35 -18 -60t-46.5 -38t-67.5 -13q-72 0 -107.5 43z" />
    <glyph glyph-name="d.subs" horiz-adv-x="376" 
d="M316 304v-424h-47v48q-33 -54 -105 -54q-44 0 -73.5 20.5t-43.5 55t-14 77.5q0 41 13.5 75.5t43 55.5t74.5 21q35 0 61.5 -13.5t42.5 -39.5v178h48zM268 35q0 47 -24 73.5t-66 26.5q-48 0 -70.5 -30.5t-22.5 -77.5q0 -48 22 -78.5t71 -30.5q42 0 66 26t24 73v18z" />
    <glyph glyph-name="e.subs" horiz-adv-x="355" 
d="M244 -68.5q23 17.5 27 49.5h49q-4 -50 -42 -78.5t-96 -28.5q-75 0 -112 42.5t-37 110.5q0 43 16 77.5t48.5 54.5t81.5 20q46 0 79 -19.5t48 -53.5q9 -18 12 -38.5t4 -51.5h-239q5 -102 98 -102q40 0 63 17.5zM111.5 115.5q-22.5 -23.5 -27.5 -64.5h187q-7 88 -92 88
q-45 0 -67.5 -23.5z" />
    <glyph glyph-name="f.subs" horiz-adv-x="213" 
d="M65 130h-48v42h48v47q0 47 23 69t73 22q22 0 35 -4v-41q-12 3 -28 3q-55 0 -55 -52v-44h82v-42h-82v-250h-48v250z" />
    <glyph glyph-name="g.subs" horiz-adv-x="376" 
d="M316 172v-287q0 -63 -33 -97.5t-105 -34.5q-61 0 -97 25t-40 73h52q1 -29 23.5 -43.5t60.5 -14.5q48 0 69.5 22.5t21.5 61.5v53q-16 -27 -42.5 -41t-61.5 -14q-45 0 -74.5 21t-43 55t-13.5 76t14 76.5t43.5 55t73.5 20.5q36 0 62.5 -14.5t42.5 -42.5v50h47zM267 35
q0 47 -24 73.5t-66 26.5q-48 0 -70 -30.5t-22 -77.5q0 -48 22 -78.5t70 -30.5q42 0 66 26t24 73v18z" />
    <glyph glyph-name="h.subs" horiz-adv-x="372" 
d="M287.5 149q27.5 -30 27.5 -89v-180h-48v170q0 44 -18.5 64.5t-56.5 20.5q-41 0 -62 -21.5t-21 -63.5v-170h-49v424h49v-171q15 23 39.5 34.5t57.5 11.5q54 0 81.5 -30z" />
    <glyph glyph-name="i.subs" horiz-adv-x="168" 
d="M59.5 245.5q-9.5 9.5 -9.5 23.5t9.5 24t24.5 10q14 0 24 -10t10 -24t-10 -23.5t-24 -9.5q-15 0 -24.5 9.5zM59 172h49v-292h-49v292z" />
    <glyph glyph-name="j.subs" horiz-adv-x="168" 
d="M59.5 245.5q-9.5 9.5 -9.5 23.5t9.5 24t24.5 10q14 0 24 -10t10 -24q0 -13 -10 -23t-24 -10q-15 0 -24.5 9.5zM-2 -240v45q8 -2 20 -2q22 0 31.5 9.5t9.5 31.5v328h49v-332q0 -43 -19.5 -62.5t-62.5 -19.5q-17 0 -28 2z" />
    <glyph glyph-name="k.subs" horiz-adv-x="304" 
d="M242 -120l-133 146v-146h-49v424h49v-246l118 114h62l-136 -130l152 -162h-63z" />
    <glyph glyph-name="l.subs" horiz-adv-x="168" 
d="M59 304h49v-424h-49v424z" />
    <glyph glyph-name="m.subs" horiz-adv-x="561" 
d="M477.5 148.5q26.5 -30.5 26.5 -89.5v-179h-48v170q0 44 -17.5 64.5t-53.5 20.5q-38 0 -58.5 -22t-20.5 -63v-170h-48v170q0 44 -17 64.5t-54 20.5q-38 0 -58 -22t-20 -63v-170h-49v292h49v-38q14 22 38 33.5t56 11.5q36 0 60.5 -14.5t34.5 -43.5q14 29 40 43.5t61 14.5
q52 0 78.5 -30.5z" />
    <glyph glyph-name="n.subs" horiz-adv-x="372" 
d="M287.5 149q27.5 -30 27.5 -89v-180h-48v170q0 44 -18.5 64.5t-56.5 20.5q-41 0 -62 -21.5t-21 -63.5v-170h-49v292h49v-39q15 23 39.5 34.5t57.5 11.5q54 0 81.5 -30z" />
    <glyph glyph-name="o.subs" horiz-adv-x="355" 
d="M96.5 -106q-32.5 21 -48 55.5t-15.5 76.5t15.5 77t48 55.5t81.5 20.5t81.5 -21t47.5 -56t15 -76q0 -42 -15.5 -76.5t-47.5 -55.5t-81 -21t-81.5 21zM249 -52.5q21 30.5 21 78.5q0 49 -21.5 79t-70.5 30q-51 0 -72 -30.5t-21 -78.5t22 -78.5t71 -30.5q50 0 71 30.5z" />
    <glyph glyph-name="p.subs" horiz-adv-x="376" 
d="M286.5 158q29.5 -21 43 -55.5t13.5 -75.5q0 -43 -14 -77.5t-43.5 -55t-73.5 -20.5q-35 0 -61 13t-42 39v-167h-49v413h47v-50q31 57 105 57q45 0 74.5 -21zM269 -51.5q22 30.5 22 78.5t-22 78t-71 30q-42 0 -66 -26.5t-24 -74.5v-15q0 -48 24 -74.5t66 -26.5
q49 0 71 30.5z" />
    <glyph glyph-name="q.subs" horiz-adv-x="376" 
d="M316 172v-413h-48v168q-15 -27 -42 -40t-62 -13q-44 0 -73.5 20.5t-43.5 55t-14 77.5q0 41 13.5 75.5t43 55.5t74.5 21q36 0 62.5 -14t42.5 -42v49h47zM244 -55.5q24 26.5 24 74.5v15q0 48 -24 74.5t-66 26.5q-48 0 -70.5 -30.5t-22.5 -77.5q0 -48 22 -78.5t71 -30.5
q42 0 66 26.5z" />
    <glyph glyph-name="r.subs" horiz-adv-x="227" 
d="M216 172v-46q-12 3 -29 3q-38 0 -58 -23t-20 -66v-160h-49v292h48v-40q11 21 31 32.5t48 11.5q11 0 29 -4z" />
    <glyph glyph-name="s.subs" horiz-adv-x="304" 
d="M60 -100q-29 28 -29 77h48q0 -65 73 -65q35 0 52.5 12.5t17.5 34.5q0 16 -10 26t-25.5 15t-44.5 12q-32 8 -53.5 17.5t-34 26t-12.5 41.5q0 38 27.5 60t80.5 22q56 0 82.5 -25t26.5 -69h-46q0 27 -15.5 42t-48.5 15q-30 0 -44 -11t-14 -30q0 -20 16 -29t37 -14.5t28 -7.5
q51 -12 75.5 -31t24.5 -56q0 -43 -31 -67t-89 -24q-63 0 -92 28z" />
    <glyph glyph-name="t.subs" horiz-adv-x="232" 
d="M87 -103q-21 21 -21 69v164h-49v42h49v71h49v-71h89v-42h-89v-157q0 -28 12.5 -41t38.5 -13q17 0 37 5v-43q-27 -5 -50 -5q-45 0 -66 21z" />
    <glyph glyph-name="u.subs" horiz-adv-x="372" 
d="M312 172v-292h-49v39q-29 -46 -97 -46q-54 0 -81.5 30t-27.5 88v181h48v-170q0 -44 18.5 -64.5t56.5 -20.5q41 0 62 21.5t21 62.5v171h49z" />
    <glyph glyph-name="v.subs" horiz-adv-x="315" 
d="M14 172h53l91 -232l90 232h53l-115 -292h-57z" />
    <glyph glyph-name="w.subs" horiz-adv-x="473" 
d="M459 172l-105 -292h-48l-69 227l-70 -227h-48l-105 292h53l75 -230l72 230h45l71 -228l77 228h52z" />
    <glyph glyph-name="x.subs" horiz-adv-x="332" 
d="M136 29l-115 143h58l87 -108l87 108h58l-115 -143l118 -149h-58l-90 114l-90 -114h-58z" />
    <glyph glyph-name="y.subs" horiz-adv-x="323" 
d="M309 172l-180 -412h-50l53 122l-118 290h54l91 -237l97 237h53z" />
    <glyph glyph-name="z.subs" horiz-adv-x="297" 
d="M104 -77h171v-43h-258l177 250h-161v42h243z" />
    <glyph glyph-name="A.sups" horiz-adv-x="369" 
d="M274 534h-180l-34 -96h-52l138 388h77l138 -388h-53zM259 577l-74 210h-2l-74 -210h150z" />
    <glyph glyph-name="B.sups" horiz-adv-x="377" 
d="M322 607.5q19 -24.5 19 -62.5q0 -52 -34.5 -79.5t-103.5 -27.5h-131v388h131q62 0 93.5 -26.5t31.5 -70.5q0 -32 -16.5 -55t-51.5 -32q43 -10 62 -34.5zM123 658h66q44 0 65 17.5t21 48.5t-22 47t-67 16h-63v-129zM264 494.5q24 17.5 24 52.5q0 74 -98 74h-67v-144h63
q54 0 78 17.5z" />
    <glyph glyph-name="C.sups" horiz-adv-x="426" 
d="M83.5 485.5q-43.5 56.5 -43.5 146.5q0 89 43.5 146t137.5 57q49 0 86 -17.5t58.5 -50.5t23.5 -77h-55q-1 48 -32 74t-83 26q-125 0 -125 -158q0 -72 28 -114.5t98 -42.5q53 0 83.5 26.5t32.5 73.5h54q-1 -45 -22.5 -78t-59 -50.5t-87.5 -17.5q-94 0 -137.5 56.5z" />
    <glyph glyph-name="D.sups" horiz-adv-x="429" 
d="M72 826h131q99 0 142.5 -52.5t43.5 -141.5q0 -90 -43.5 -142t-142.5 -52h-131v388zM196 483q78 0 109 39t31 110q0 72 -31 111t-109 39h-73v-299h73z" />
    <glyph glyph-name="E.sups" horiz-adv-x="341" 
d="M72 826h232v-44h-181v-124h179v-45h-179v-130h181v-45h-232v388z" />
    <glyph glyph-name="F.sups" horiz-adv-x="330" 
d="M72 826h226v-44h-175v-125h174v-44h-174v-175h-51v388z" />
    <glyph glyph-name="G.sups" horiz-adv-x="431" 
d="M391 641v-26q0 -84 -40.5 -135t-129.5 -51q-94 0 -137.5 56.5t-43.5 146.5q0 92 44.5 147.5t138.5 55.5q49 0 85 -17t56.5 -48t22.5 -74h-51q-4 47 -33.5 71t-80.5 24q-71 0 -99.5 -43.5t-28.5 -115.5q0 -74 29 -116t100 -42q64 0 90.5 33t27.5 90h-109v44h159z" />
    <glyph glyph-name="H.sups" horiz-adv-x="435" 
d="M72 826h51v-167h189v167h51v-388h-51v175h-189v-175h-51v388z" />
    <glyph glyph-name="I.sups" horiz-adv-x="195" 
d="M72 826h51v-388h-51v388z" />
    <glyph glyph-name="J.sups" horiz-adv-x="229" 
d="M19 439v48q8 -1 28 -1q39 0 55.5 17t16.5 59v264h52v-272q0 -61 -27.5 -89.5t-88.5 -28.5q-18 0 -36 3z" />
    <glyph glyph-name="K.sups" horiz-adv-x="362" 
d="M291 438l-168 194v-194h-51v388h51v-161l147 161h60l-160 -175l184 -213h-63z" />
    <glyph glyph-name="L.sups" horiz-adv-x="301" 
d="M72 826h51v-341h159v-47h-210v388z" />
    <glyph glyph-name="M.sups" horiz-adv-x="533" 
d="M72 826h61l133 -304l134 304h61v-388h-49v307l-133 -307h-24l-135 307v-307h-48v388z" />
    <glyph glyph-name="N.sups" horiz-adv-x="450" 
d="M72 826h53l204 -307v307h49v-388h-53l-204 307v-307h-49v388z" />
    <glyph glyph-name="O.sups" horiz-adv-x="444" 
d="M83 486q-43 57 -43 146t43.5 146t137.5 57q96 0 139.5 -56.5t43.5 -146.5t-44 -146.5t-139 -56.5t-138 57zM350 632q0 156 -129 156q-127 0 -127 -156q0 -155 127 -155q129 0 129 155z" />
    <glyph glyph-name="P.sups" horiz-adv-x="355" 
d="M72 826h135q129 0 129 -107q0 -53 -32 -81t-97 -28h-84v-172h-51v388zM195 651q46 0 67.5 16.5t21.5 50.5t-21.5 50.5t-67.5 16.5h-72v-134h72z" />
    <glyph glyph-name="Q.sups" horiz-adv-x="444" 
d="M378.5 513.5q-25.5 -50.5 -80.5 -71.5l45 -66l-37 -24l-51 79q-22 -2 -34 -2q-95 0 -138 57t-43 146t43.5 146t137.5 57q96 0 139.5 -56.5t43.5 -146.5q0 -68 -25.5 -118.5zM350 632q0 156 -129 156q-127 0 -127 -156q0 -155 127 -155h4l-27 42l33 22l39 -57
q80 25 80 148z" />
    <glyph glyph-name="R.sups" horiz-adv-x="380" 
d="M180 610h-57v-172h-51v388h141q69 0 100.5 -28t31.5 -78q0 -99 -109 -109l133 -173h-58zM123 650h78q48 0 69.5 16.5t21.5 51.5q0 34 -21 50.5t-70 16.5h-78v-135z" />
    <glyph glyph-name="S.sups" horiz-adv-x="361" 
d="M65 465.5q-36 36.5 -36 97.5h56q0 -43 22 -66.5t75 -23.5q46 0 70 18t24 49q0 23 -14 37t-36.5 22t-66.5 20q-40 11 -66 24t-40.5 33t-14.5 50q0 31 16 55.5t47 39t75 14.5q71 0 104.5 -35t33.5 -94h-53q0 87 -87 87q-40 0 -62 -17t-22 -44q0 -21 13.5 -34t36.5 -21.5
t65 -19.5q44 -12 71 -25t41.5 -34t14.5 -54q0 -34 -17.5 -60t-51.5 -40.5t-82 -14.5q-80 0 -116 36.5z" />
    <glyph glyph-name="T.sups" horiz-adv-x="331" 
d="M140 782h-121v44h294v-44h-122v-344h-51v344z" />
    <glyph glyph-name="U.sups" horiz-adv-x="402" 
d="M93 461.5q-35 32.5 -35 98.5v266h50v-262q0 -46 22 -67.5t71 -21.5t71 21.5t22 67.5v262h50v-266q0 -67 -34.5 -99t-108.5 -32q-73 0 -108 32.5z" />
    <glyph glyph-name="V.sups" horiz-adv-x="363" 
d="M355 826l-147 -388h-52l-148 388h54l120 -326l120 326h53z" />
    <glyph glyph-name="W.sups" horiz-adv-x="523" 
d="M516 826l-113 -388h-53l-88 317l-88 -317h-53l-113 388h50l90 -315l87 315h54l87 -311l90 311h50z" />
    <glyph glyph-name="X.sups" horiz-adv-x="384" 
d="M160 645l-135 181h60l107 -141l107 141h59l-134 -182l152 -206h-60l-124 164l-124 -164h-60z" />
    <glyph glyph-name="Y.sups" horiz-adv-x="330" 
d="M140 605l-132 221h56l102 -168l102 168h55l-132 -221v-167h-51v167z" />
    <glyph glyph-name="Z.sups" horiz-adv-x="337" 
d="M226 780h-199v46h284l-209 -342h216v-46h-301z" />
    <glyph glyph-name="a.sups" horiz-adv-x="354" 
d="M269 705q28 -32 28 -93v-174h-49v44q-15 -25 -42.5 -38t-65.5 -13q-53 0 -80 23.5t-27 64.5q0 49 37.5 70t108.5 21h69v9q0 40 -16.5 59.5t-60.5 19.5q-39 0 -58.5 -15.5t-19.5 -43.5h-49q0 46 32.5 72t94.5 26q70 0 98 -32zM227 498q21 27 21 74v3h-65q-48 0 -73 -12
t-25 -39q0 -25 17.5 -39t52.5 -14q51 0 72 27z" />
    <glyph glyph-name="b.sups" horiz-adv-x="376" 
d="M286.5 716q29.5 -21 43 -55.5t13.5 -75.5q0 -43 -14 -77.5t-43.5 -55t-73.5 -20.5q-36 0 -62.5 13.5t-42.5 40.5v-48h-47v424h49v-177q15 26 42 39t61 13q45 0 74.5 -21zM269 506.5q22 30.5 22 78.5t-22 78t-71 30q-42 0 -66 -26.5t-24 -73.5v-18q0 -47 24 -73t66 -26
q49 0 71 30.5z" />
    <glyph glyph-name="c.sups" horiz-adv-x="341" 
d="M68.5 475q-35.5 43 -35.5 110q0 43 15.5 77t47.5 54.5t80 20.5q58 0 94 -30.5t38 -83.5h-53q-1 33 -22.5 51.5t-56.5 18.5q-47 0 -69 -30.5t-22 -77.5q0 -48 22 -78.5t69 -30.5q36 0 57 18.5t22 48.5h53q-1 -35 -18 -60t-46.5 -38t-67.5 -13q-72 0 -107.5 43z" />
    <glyph glyph-name="d.sups" horiz-adv-x="376" 
d="M316 862v-424h-47v48q-33 -54 -105 -54q-44 0 -73.5 20.5t-43.5 55t-14 77.5q0 41 13.5 75.5t43 55.5t74.5 21q35 0 61.5 -13.5t42.5 -39.5v178h48zM268 593q0 47 -24 73.5t-66 26.5q-48 0 -70.5 -30.5t-22.5 -77.5q0 -48 22 -78.5t71 -30.5q42 0 66 26t24 73v18z" />
    <glyph glyph-name="e.sups" horiz-adv-x="355" 
d="M244 489.5q23 17.5 27 49.5h49q-4 -50 -42 -78.5t-96 -28.5q-75 0 -112 42.5t-37 110.5q0 43 16 77.5t48.5 54.5t81.5 20q46 0 79 -19.5t48 -53.5q9 -18 12 -38.5t4 -51.5h-239q5 -102 98 -102q40 0 63 17.5zM111.5 673.5q-22.5 -23.5 -27.5 -64.5h187q-7 88 -92 88
q-45 0 -67.5 -23.5z" />
    <glyph glyph-name="f.sups" horiz-adv-x="213" 
d="M65 688h-48v42h48v47q0 47 23 69t73 22q22 0 35 -4v-41q-12 3 -28 3q-55 0 -55 -52v-44h82v-42h-82v-250h-48v250z" />
    <glyph glyph-name="g.sups" horiz-adv-x="376" 
d="M316 730v-287q0 -63 -33 -97.5t-105 -34.5q-61 0 -97 25t-40 73h52q1 -29 23.5 -43.5t60.5 -14.5q48 0 69.5 22.5t21.5 61.5v53q-16 -27 -42.5 -41t-61.5 -14q-45 0 -74.5 21t-43 55t-13.5 76t14 76.5t43.5 55t73.5 20.5q36 0 62.5 -14.5t42.5 -42.5v50h47zM267 593
q0 47 -24 73.5t-66 26.5q-48 0 -70 -30.5t-22 -77.5q0 -48 22 -78.5t70 -30.5q42 0 66 26t24 73v18z" />
    <glyph glyph-name="h.sups" horiz-adv-x="372" 
d="M287.5 707q27.5 -30 27.5 -89v-180h-48v170q0 44 -18.5 64.5t-56.5 20.5q-41 0 -62 -21.5t-21 -63.5v-170h-49v424h49v-171q15 23 39.5 34.5t57.5 11.5q54 0 81.5 -30z" />
    <glyph glyph-name="i.sups" horiz-adv-x="168" 
d="M59.5 803.5q-9.5 9.5 -9.5 23.5t9.5 24t24.5 10q14 0 24 -10t10 -24t-10 -23.5t-24 -9.5q-15 0 -24.5 9.5zM59 730h49v-292h-49v292z" />
    <glyph glyph-name="j.sups" horiz-adv-x="168" 
d="M59.5 803.5q-9.5 9.5 -9.5 23.5t9.5 24t24.5 10q14 0 24 -10t10 -24q0 -13 -10 -23t-24 -10q-15 0 -24.5 9.5zM-2 318v45q8 -2 20 -2q22 0 31.5 9.5t9.5 31.5v328h49v-332q0 -43 -19.5 -62.5t-62.5 -19.5q-17 0 -28 2z" />
    <glyph glyph-name="k.sups" horiz-adv-x="304" 
d="M242 438l-133 146v-146h-49v424h49v-246l118 114h62l-136 -130l152 -162h-63z" />
    <glyph glyph-name="l.sups" horiz-adv-x="168" 
d="M59 862h49v-424h-49v424z" />
    <glyph glyph-name="m.sups" horiz-adv-x="561" 
d="M477.5 706.5q26.5 -30.5 26.5 -89.5v-179h-48v170q0 44 -17.5 64.5t-53.5 20.5q-38 0 -58.5 -22t-20.5 -63v-170h-48v170q0 44 -17 64.5t-54 20.5q-38 0 -58 -22t-20 -63v-170h-49v292h49v-38q14 22 38 33.5t56 11.5q36 0 60.5 -14.5t34.5 -43.5q14 29 40 43.5t61 14.5
q52 0 78.5 -30.5z" />
    <glyph glyph-name="n.sups" horiz-adv-x="372" 
d="M287.5 707q27.5 -30 27.5 -89v-180h-48v170q0 44 -18.5 64.5t-56.5 20.5q-41 0 -62 -21.5t-21 -63.5v-170h-49v292h49v-39q15 23 39.5 34.5t57.5 11.5q54 0 81.5 -30z" />
    <glyph glyph-name="o.sups" horiz-adv-x="355" 
d="M96.5 452q-32.5 21 -48 55.5t-15.5 76.5t15.5 77t48 55.5t81.5 20.5t81.5 -21t47.5 -56t15 -76q0 -42 -15.5 -76.5t-47.5 -55.5t-81 -21t-81.5 21zM249 505.5q21 30.5 21 78.5q0 49 -21.5 79t-70.5 30q-51 0 -72 -30.5t-21 -78.5t22 -78.5t71 -30.5q50 0 71 30.5z" />
    <glyph glyph-name="p.sups" horiz-adv-x="376" 
d="M286.5 716q29.5 -21 43 -55.5t13.5 -75.5q0 -43 -14 -77.5t-43.5 -55t-73.5 -20.5q-35 0 -61 13t-42 39v-167h-49v413h47v-50q31 57 105 57q45 0 74.5 -21zM269 506.5q22 30.5 22 78.5t-22 78t-71 30q-42 0 -66 -26.5t-24 -74.5v-15q0 -48 24 -74.5t66 -26.5
q49 0 71 30.5z" />
    <glyph glyph-name="q.sups" horiz-adv-x="376" 
d="M316 730v-413h-48v168q-15 -27 -42 -40t-62 -13q-44 0 -73.5 20.5t-43.5 55t-14 77.5q0 41 13.5 75.5t43 55.5t74.5 21q36 0 62.5 -14t42.5 -42v49h47zM244 502.5q24 26.5 24 74.5v15q0 48 -24 74.5t-66 26.5q-48 0 -70.5 -30.5t-22.5 -77.5q0 -48 22 -78.5t71 -30.5
q42 0 66 26.5z" />
    <glyph glyph-name="r.sups" horiz-adv-x="227" 
d="M216 730v-46q-12 3 -29 3q-38 0 -58 -23t-20 -66v-160h-49v292h48v-40q11 21 31 32.5t48 11.5q11 0 29 -4z" />
    <glyph glyph-name="s.sups" horiz-adv-x="304" 
d="M60 458q-29 28 -29 77h48q0 -65 73 -65q35 0 52.5 12.5t17.5 34.5q0 16 -10 26t-25.5 15t-44.5 12q-32 8 -53.5 17.5t-34 26t-12.5 41.5q0 38 27.5 60t80.5 22q56 0 82.5 -25t26.5 -69h-46q0 27 -15.5 42t-48.5 15q-30 0 -44 -11t-14 -30q0 -20 16 -29t37 -14.5t28 -7.5
q51 -12 75.5 -31t24.5 -56q0 -43 -31 -67t-89 -24q-63 0 -92 28z" />
    <glyph glyph-name="t.sups" horiz-adv-x="232" 
d="M87 455q-21 21 -21 69v164h-49v42h49v71h49v-71h89v-42h-89v-157q0 -28 12.5 -41t38.5 -13q17 0 37 5v-43q-27 -5 -50 -5q-45 0 -66 21z" />
    <glyph glyph-name="u.sups" horiz-adv-x="372" 
d="M312 730v-292h-49v39q-29 -46 -97 -46q-54 0 -81.5 30t-27.5 88v181h48v-170q0 -44 18.5 -64.5t56.5 -20.5q41 0 62 21.5t21 62.5v171h49z" />
    <glyph glyph-name="v.sups" horiz-adv-x="315" 
d="M14 730h53l91 -232l90 232h53l-115 -292h-57z" />
    <glyph glyph-name="w.sups" horiz-adv-x="473" 
d="M459 730l-105 -292h-48l-69 227l-70 -227h-48l-105 292h53l75 -230l72 230h45l71 -228l77 228h52z" />
    <glyph glyph-name="x.sups" horiz-adv-x="332" 
d="M136 587l-115 143h58l87 -108l87 108h58l-115 -143l118 -149h-58l-90 114l-90 -114h-58z" />
    <glyph glyph-name="y.sups" horiz-adv-x="323" 
d="M309 730l-180 -412h-50l53 122l-118 290h54l91 -237l97 237h53z" />
    <glyph glyph-name="z.sups" horiz-adv-x="297" 
d="M104 481h171v-43h-258l177 250h-161v42h243z" />
    <glyph glyph-name="zero.lf" horiz-adv-x="650" 
d="M122.5 87q-59.5 102 -59.5 266q0 165 60 266.5t202 101.5q143 0 202.5 -102t59.5 -266q0 -165 -60 -266.5t-202 -101.5q-143 0 -202.5 102zM445 85.5q43 41.5 58.5 109t15.5 158.5q0 92 -15.5 159.5t-58.5 108.5t-120 41t-120 -41.5t-58.5 -109t-15.5 -158.5t15.5 -158.5
t58.5 -109t120 -41.5t120 41.5z" />
    <glyph glyph-name="one.lf" horiz-adv-x="336" 
d="M157 646h-123l13 60h174v-706h-64v646z" />
    <glyph glyph-name="two.lf" horiz-adv-x="545" 
d="M29 3l281 297q45 46 70 78.5t36.5 63t11.5 66.5q0 45 -17 79.5t-52 54.5t-89 20q-162 0 -162 -193h-64q0 116 55 184t173 68q75 0 125 -28t74 -76t24 -110q0 -41 -11 -74.5t-35 -68t-68 -79.5q-142 -146 -223 -227h343v-58h-472v3z" />
    <glyph glyph-name="three.lf" horiz-adv-x="581" 
d="M487.5 311.5q36.5 -47.5 36.5 -118.5q0 -96 -59.5 -152t-178.5 -56q-133 0 -190 68t-57 194h64q0 -98 40 -151.5t140 -53.5q88 0 130.5 41t42.5 114q0 77 -50 113.5t-150 36.5h-19v52h19q93 0 139 34.5t46 99.5q0 62 -38 98t-115 36q-93 0 -132 -49t-40 -135h-63
q0 114 58.5 176t180.5 62q71 0 119 -23t71.5 -64t23.5 -96q0 -63 -32 -105t-98 -58q75 -16 111.5 -63.5z" />
    <glyph glyph-name="four.lf" horiz-adv-x="573" 
d="M553 187h-101v-187h-64v187h-383v4l332 515h115v-463h101v-56zM388 243v434h-1l-279 -434h280z" />
    <glyph glyph-name="five.lf" horiz-adv-x="569" 
d="M105 49.5q-56 64.5 -56 173.5h63q0 -82 40.5 -131.5t129.5 -49.5q88 0 130.5 47t42.5 125q0 89 -52.5 138t-162.5 49q-41 0 -84 -7t-80 -20l53 332h354l-12 -58h-289l-34 -207q52 15 110 15q88 0 147.5 -30.5t88 -85t28.5 -126.5q0 -68 -26 -119.5t-79.5 -80.5
t-132.5 -29q-123 0 -179 64.5z" />
    <glyph glyph-name="six.lf" horiz-adv-x="637" 
d="M474 424.5q53 -30.5 79 -83t26 -118.5q0 -67 -28 -121t-83 -85.5t-133 -31.5q-97 0 -158 48.5t-87.5 129.5t-26.5 185q0 165 60.5 269t205.5 104q68 0 119 -25t81.5 -71.5t38.5 -109.5h-64q-13 73 -57 112t-117 39q-113 0 -157.5 -87t-44.5 -222q0 -23 1 -35
q23 60 78.5 96.5t137.5 36.5q76 0 129 -30.5zM433.5 67q40.5 25 60 65.5t19.5 89.5t-19 89t-59.5 64t-99.5 24q-61 0 -102.5 -24.5t-61 -65t-19.5 -90.5q0 -47 20.5 -87.5t61.5 -65t100 -24.5t99.5 25z" />
    <glyph glyph-name="seven.lf" horiz-adv-x="498" 
d="M378 646h-344v60h440l-302 -706h-73z" />
    <glyph glyph-name="eight.lf" horiz-adv-x="620" 
d="M525 309.5q37 -49.5 37 -120.5q0 -62 -28 -108t-84.5 -71t-139.5 -25q-84 0 -141 26t-84.5 72t-27.5 106q0 69 38 119.5t114 67.5q-66 16 -100 60.5t-34 104.5q0 55 27.5 95.5t80.5 62.5t127 22q76 0 128.5 -22t79 -62.5t26.5 -95.5q0 -62 -33.5 -106t-98.5 -59
q76 -17 113 -66.5zM161.5 465q19.5 -31 57.5 -48t91 -17q54 0 92 17.5t57 49t19 71.5q0 60 -42.5 96t-125.5 36t-125.5 -35.5t-42.5 -96.5q0 -42 19.5 -73zM447.5 81q46.5 41 46.5 110q0 46 -20.5 81t-62 54.5t-101.5 19.5q-61 0 -102.5 -20t-62 -55t-20.5 -80q0 -44 21 -78
t62.5 -53.5t101.5 -19.5q91 0 137.5 41z" />
    <glyph glyph-name="nine.lf" horiz-adv-x="631" 
d="M459.5 674.5q60.5 -48.5 87 -130t26.5 -184.5q0 -165 -60 -269t-205 -104q-69 0 -120 25t-81.5 71.5t-38.5 109.5h64q14 -73 58 -112t117 -39q112 0 156.5 87t44.5 222q0 23 -1 34q-23 -60 -78 -96t-138 -36q-76 0 -128.5 30.5t-79 83t-26.5 118.5q0 67 28 121t83.5 85.5
t133.5 31.5q97 0 157.5 -48.5zM404 333.5q41 24.5 60.5 65t19.5 90.5q0 47 -20.5 87.5t-61.5 65t-100 24.5t-99 -25t-59.5 -65.5t-19.5 -89.5t19 -89t59 -64t99 -24q62 0 103 24.5z" />
    <glyph glyph-name="zero.dnom" horiz-adv-x="423" 
d="M51 194q0 202 160 202q88 0 125 -55t37 -147t-37.5 -147t-124.5 -55q-160 0 -160 202zM295.5 80.5q23.5 41.5 23.5 113.5q0 73 -23 114t-85 41q-60 0 -83.5 -41.5t-23.5 -113.5q0 -73 24 -114t83 -41q61 0 84.5 41.5z" />
    <glyph glyph-name="one.dnom" horiz-adv-x="254" 
d="M109 340h-82l8 48h127v-388h-53v340z" />
    <glyph glyph-name="two.dnom" horiz-adv-x="340" 
d="M23 3l166 166q37 37 50.5 59.5t13.5 49.5q0 35 -20.5 55t-62.5 20q-49 0 -68 -24.5t-19 -67.5h-51q0 65 34 101t104 36q67 0 101 -32.5t34 -87.5q0 -33 -14 -60.5t-50 -61.5l-112 -107h176v-49h-282v3z" />
    <glyph glyph-name="three.dnom" horiz-adv-x="367" 
d="M310.5 170q18.5 -26 18.5 -64q0 -54 -37.5 -85t-107.5 -31q-80 0 -116 40t-36 110h48q0 -50 24.5 -78t77.5 -28q48 0 71 20t23 56q0 39 -26 56t-80 17h-12v41h12q51 0 74.5 16.5t23.5 49.5q0 30 -21 47t-63 17q-49 0 -72 -24.5t-23 -61.5h-48q0 59 37.5 94.5t109.5 35.5
q42 0 72 -13.5t45 -37.5t15 -54q0 -32 -17 -54.5t-50 -32.5q39 -10 57.5 -36z" />
    <glyph glyph-name="four.dnom" horiz-adv-x="358" 
d="M234 101h-230v2l187 285h94v-242h58v-45h-58v-101h-51v101zM234 146v223l-146 -223h146z" />
    <glyph glyph-name="five.dnom" horiz-adv-x="368" 
d="M75 26.5q-36 34.5 -36 93.5h51q0 -39 22.5 -62t70.5 -23q49 0 72 23.5t23 62.5q0 44 -31 68t-95 24q-54 0 -96 -15l32 190h216l-6 -42h-166l-19 -100q30 7 62 7q52 0 87 -17t52 -46.5t17 -67.5q0 -37 -16.5 -66.5t-49.5 -46.5t-82 -17q-72 0 -108 34.5z" />
    <glyph glyph-name="six.dnom" horiz-adv-x="409" 
d="M300 235q32 -18 47.5 -47t15.5 -63q0 -37 -17 -67.5t-51.5 -48t-84.5 -17.5q-89 0 -128.5 55.5t-39.5 144.5q0 91 39 147.5t128 56.5q63 0 97.5 -28t45.5 -85h-51q-10 37 -30.5 54t-60.5 17q-66 0 -91 -43.5t-25 -112.5v-13q15 31 47.5 49.5t79.5 18.5t79 -18z
M284.5 58.5q24.5 23.5 24.5 63.5q0 41 -25 65t-72 24q-33 0 -56.5 -12.5t-35 -33t-11.5 -44.5t11.5 -43.5t34.5 -31t55 -11.5q50 0 74.5 23.5z" />
    <glyph glyph-name="seven.dnom" horiz-adv-x="320" 
d="M220 341h-193v47h274l-180 -388h-59z" />
    <glyph glyph-name="eight.dnom" horiz-adv-x="384" 
d="M345 108q0 -55 -39.5 -85.5t-113.5 -30.5t-114 30.5t-40 85.5q0 77 81 98q-35 11 -52.5 34.5t-17.5 53.5q0 49 37.5 75.5t105.5 26.5q69 0 106 -26.5t37 -75.5q0 -30 -17.5 -53.5t-52.5 -34.5q80 -20 80 -98zM124.5 244q24.5 -17 67.5 -17t67.5 17t24.5 48t-22 48t-70 17
q-92 0 -92 -65q0 -31 24.5 -48zM265.5 54q27.5 20 27.5 54t-26 54.5t-75 20.5q-50 0 -75.5 -20.5t-25.5 -54.5t27.5 -54t73.5 -20t73.5 20z" />
    <glyph glyph-name="nine.dnom" horiz-adv-x="409" 
d="M327.5 340.5q39.5 -55.5 39.5 -144.5q0 -91 -39 -147.5t-128 -56.5q-63 0 -97.5 28t-45.5 85h51q10 -37 30.5 -54t60.5 -17q66 0 91 43.5t25 112.5v13q-15 -31 -47.5 -49.5t-79.5 -18.5t-79 18t-47.5 47t-15.5 63q0 37 17 67.5t51.5 48t84.5 17.5q89 0 128.5 -55.5z
M253.5 189.5q23.5 12.5 35 33t11.5 44.5t-11.5 43.5t-34.5 31t-55 11.5q-50 0 -74.5 -23.5t-24.5 -63.5q0 -41 25 -65t72 -24q33 0 56.5 12.5z" />
    <glyph glyph-name="zero.numr" horiz-adv-x="423" 
d="M51 512q0 202 160 202q88 0 125 -55t37 -147t-37.5 -147t-124.5 -55q-160 0 -160 202zM295.5 398.5q23.5 41.5 23.5 113.5q0 73 -23 114t-85 41q-60 0 -83.5 -41.5t-23.5 -113.5q0 -73 24 -114t83 -41q61 0 84.5 41.5z" />
    <glyph glyph-name="one.numr" horiz-adv-x="254" 
d="M109 658h-82l8 48h127v-388h-53v340z" />
    <glyph glyph-name="two.numr" horiz-adv-x="340" 
d="M23 321l166 166q37 37 50.5 59.5t13.5 49.5q0 35 -20.5 55t-62.5 20q-49 0 -68 -24.5t-19 -67.5h-51q0 65 34 101t104 36q67 0 101 -32.5t34 -87.5q0 -33 -14 -60.5t-50 -61.5l-112 -107h176v-49h-282v3z" />
    <glyph glyph-name="three.numr" horiz-adv-x="367" 
d="M310.5 488q18.5 -26 18.5 -64q0 -54 -37.5 -85t-107.5 -31q-80 0 -116 40t-36 110h48q0 -50 24.5 -78t77.5 -28q48 0 71 20t23 56q0 39 -26 56t-80 17h-12v41h12q51 0 74.5 16.5t23.5 49.5q0 30 -21 47t-63 17q-49 0 -72 -24.5t-23 -61.5h-48q0 59 37.5 94.5t109.5 35.5
q42 0 72 -13.5t45 -37.5t15 -54q0 -32 -17 -54.5t-50 -32.5q39 -10 57.5 -36z" />
    <glyph glyph-name="four.numr" horiz-adv-x="358" 
d="M234 419h-230v2l187 285h94v-242h58v-45h-58v-101h-51v101zM234 464v223l-146 -223h146z" />
    <glyph glyph-name="five.numr" horiz-adv-x="368" 
d="M75 344.5q-36 34.5 -36 93.5h51q0 -39 22.5 -62t70.5 -23q49 0 72 23.5t23 62.5q0 44 -31 68t-95 24q-54 0 -96 -15l32 190h216l-6 -42h-166l-19 -100q30 7 62 7q52 0 87 -17t52 -46.5t17 -67.5q0 -37 -16.5 -66.5t-49.5 -46.5t-82 -17q-72 0 -108 34.5z" />
    <glyph glyph-name="six.numr" horiz-adv-x="409" 
d="M300 553q32 -18 47.5 -47t15.5 -63q0 -37 -17 -67.5t-51.5 -48t-84.5 -17.5q-89 0 -128.5 55.5t-39.5 144.5q0 91 39 147.5t128 56.5q63 0 97.5 -28t45.5 -85h-51q-10 37 -30.5 54t-60.5 17q-66 0 -91 -43.5t-25 -112.5v-13q15 31 47.5 49.5t79.5 18.5t79 -18z
M284.5 376.5q24.5 23.5 24.5 63.5q0 41 -25 65t-72 24q-33 0 -56.5 -12.5t-35 -33t-11.5 -44.5t11.5 -43.5t34.5 -31t55 -11.5q50 0 74.5 23.5z" />
    <glyph glyph-name="seven.numr" horiz-adv-x="320" 
d="M220 659h-193v47h274l-180 -388h-59z" />
    <glyph glyph-name="eight.numr" horiz-adv-x="384" 
d="M345 426q0 -55 -39.5 -85.5t-113.5 -30.5t-114 30.5t-40 85.5q0 77 81 98q-35 11 -52.5 34.5t-17.5 53.5q0 49 37.5 75.5t105.5 26.5q69 0 106 -26.5t37 -75.5q0 -30 -17.5 -53.5t-52.5 -34.5q80 -20 80 -98zM124.5 562q24.5 -17 67.5 -17t67.5 17t24.5 48t-22 48t-70 17
q-92 0 -92 -65q0 -31 24.5 -48zM265.5 372q27.5 20 27.5 54t-26 54.5t-75 20.5q-50 0 -75.5 -20.5t-25.5 -54.5t27.5 -54t73.5 -20t73.5 20z" />
    <glyph glyph-name="nine.numr" horiz-adv-x="409" 
d="M327.5 658.5q39.5 -55.5 39.5 -144.5q0 -91 -39 -147.5t-128 -56.5q-63 0 -97.5 28t-45.5 85h51q10 -37 30.5 -54t60.5 -17q66 0 91 43.5t25 112.5v13q-15 -31 -47.5 -49.5t-79.5 -18.5t-79 18t-47.5 47t-15.5 63q0 37 17 67.5t51.5 48t84.5 17.5q89 0 128.5 -55.5z
M253.5 507.5q23.5 12.5 35 33t11.5 44.5t-11.5 43.5t-34.5 31t-55 11.5q-50 0 -74.5 -23.5t-24.5 -63.5q0 -41 25 -65t72 -24q33 0 56.5 12.5z" />
    <glyph glyph-name="zero.sc" horiz-adv-x="591" 
d="M121 70.5q-51 83.5 -51 219.5t51.5 219.5t173.5 83.5q123 0 174.5 -83.5t51.5 -219.5t-52 -219.5t-174 -83.5q-123 0 -174 83.5zM394.5 79q35.5 32 48 84.5t12.5 126.5t-13 127t-48 85t-99 32q-63 0 -98.5 -32.5t-48 -85.5t-12.5 -126t12.5 -126t47.5 -85t99 -32t99.5 32
z" />
    <glyph glyph-name="one.sc" horiz-adv-x="330" 
d="M141 520h-104l13 60h154v-580h-63v520z" />
    <glyph glyph-name="two.sc" horiz-adv-x="488" 
d="M32 3l240 248q37 38 57 63.5t29.5 49.5t9.5 52q0 53 -31.5 85.5t-96.5 32.5q-133 0 -133 -150h-62q0 96 47.5 152.5t149.5 56.5q64 0 107 -23t64 -63t21 -92q0 -33 -9 -59.5t-29 -54t-56 -63.5q-92 -92 -185 -179h285v-59h-408v3z" />
    <glyph glyph-name="three.sc" horiz-adv-x="523" 
d="M430 255q30 -38 30 -96q0 -79 -50.5 -125.5t-153.5 -46.5q-115 0 -164 56.5t-49 161.5h62q0 -78 33 -120t115 -42q72 0 107 32.5t35 89.5q0 59 -41 87t-124 28h-16v51h16q76 0 114 27t38 77q0 49 -31 77t-95 28q-75 0 -107 -37.5t-33 -103.5h-61q0 93 50.5 143.5
t154.5 50.5q61 0 102.5 -19.5t62 -54t20.5 -79.5q0 -106 -108 -133q63 -14 93 -52z" />
    <glyph glyph-name="four.sc" horiz-adv-x="503" 
d="M482 148h-87v-148h-62v148h-327v3l275 429h114v-376h87v-56zM333 204v349h-2l-227 -349h229z" />
    <glyph glyph-name="five.sc" horiz-adv-x="514" 
d="M102 41q-48 54 -48 146h62q0 -65 33 -104t106 -39q72 0 107 36.5t35 96.5q0 72 -44.5 110t-137.5 38q-34 0 -70.5 -5t-66.5 -15l45 275h307l-12 -57h-243l-28 -159q42 12 89 12q76 0 126.5 -25.5t75 -70t24.5 -103.5q0 -56 -22.5 -99t-68.5 -67t-114 -24q-107 0 -155 54z
" />
    <glyph glyph-name="six.sc" horiz-adv-x="578" 
d="M424.5 350q45.5 -25 68 -68t22.5 -97q0 -56 -24.5 -101t-72 -71t-114.5 -26q-123 0 -178.5 82.5t-55.5 216.5q0 136 52 221.5t177 85.5q88 0 142 -45t65 -124h-63q-11 55 -47.5 85t-95.5 30q-93 0 -130 -68t-37 -174v-24q21 47 67 74.5t114 27.5q65 0 110.5 -25z
M384.5 62.5q32.5 19.5 48.5 51.5t16 70q0 39 -15.5 70t-48 49.5t-81.5 18.5q-51 0 -84.5 -19t-49.5 -51t-16 -71q0 -37 16.5 -68t50 -50.5t82.5 -19.5t81.5 19.5z" />
    <glyph glyph-name="seven.sc" horiz-adv-x="447" 
d="M326 520h-288v60h382l-258 -580h-71z" />
    <glyph glyph-name="eight.sc" horiz-adv-x="561" 
d="M466.5 255.5q30.5 -40.5 30.5 -98.5q0 -52 -24 -90t-72.5 -59t-119.5 -21q-72 0 -121 21.5t-73 59.5t-24 89q0 57 31.5 98t94.5 55q-54 14 -82.5 50t-28.5 84q0 46 24 79.5t69.5 51.5t109.5 18q65 0 110 -18t68 -51.5t23 -79.5q0 -50 -27.5 -85.5t-81.5 -48.5
q63 -14 93.5 -54.5zM179 361q36 -29 102 -29q44 0 75 14t47 38.5t16 55.5q0 47 -35 75t-103 28q-69 0 -103.5 -27.5t-34.5 -75.5q0 -50 36 -79zM393.5 72.5q38.5 32.5 38.5 87.5q0 35 -17 62t-51 42.5t-83 15.5q-50 0 -84 -15.5t-51 -43t-17 -61.5q0 -54 39 -87t113 -33
t112.5 32.5z" />
    <glyph glyph-name="nine.sc" horiz-adv-x="577" 
d="M452 510q55 -83 55 -217q0 -136 -52 -221t-177 -85q-88 0 -141.5 45t-64.5 123h62q11 -55 48 -84.5t96 -29.5q93 0 130 68t37 174v24q-21 -47 -67.5 -75t-114.5 -28q-65 0 -110 25t-67.5 68t-22.5 97q0 56 24 101t72 71.5t115 26.5q123 0 178 -83zM358 276q34 19 50 51
t16 71q0 36 -16.5 67.5t-50.5 51t-82 19.5q-49 0 -82 -19.5t-49 -51t-16 -69.5q0 -39 15.5 -70.5t48.5 -50t82 -18.5q50 0 84 19z" />
    <glyph glyph-name="colon.case" horiz-adv-x="265" 
d="M95 139q-13 13 -13 35t13 35.5t35 13.5q21 0 35 -14t14 -35t-14 -34.5t-35 -13.5q-22 0 -35 13zM95 502q-13 13 -13 35t13 35.5t35 13.5q21 0 35 -14t14 -35t-14 -34.5t-35 -13.5q-22 0 -35 13z" />
    <glyph glyph-name="semicolon.case" horiz-adv-x="286" 
d="M121 295h61l-77 -325h-49zM120 502q-13 13 -13 35t13 35.5t35 13.5q21 0 35 -14t14 -35t-14 -34.5t-35 -13.5q-22 0 -35 13z" />
    <glyph glyph-name="exclamdown.case" horiz-adv-x="261" 
d="M165.5 702q13.5 -13 13.5 -35t-13.5 -35.5t-35.5 -13.5q-20 0 -34 14t-14 35t13.5 34.5t34.5 13.5q22 0 35.5 -13zM164 -4h-68l8 526h52z" />
    <glyph glyph-name="questiondown.case" horiz-adv-x="479" 
d="M280.5 707q13.5 -13 13.5 -35t-13.5 -35.5t-35.5 -13.5q-21 0 -35 14t-14 35t14 34.5t35 13.5q22 0 35.5 -13zM164 330.5q-37 -67.5 -49.5 -103t-12.5 -66.5q0 -121 136 -121q56 0 87.5 19t43 52t11.5 83h62q0 -101 -47.5 -154.5t-158.5 -53.5q-101 0 -150.5 47
t-49.5 127q0 34 12.5 71t48 102.5t111.5 193.5h71q-78 -129 -115 -196.5z" />
    <glyph glyph-name="periodcentered.case" horiz-adv-x="261" 
d="M95 341q-13 13 -13 35t13 35.5t35 13.5q21 0 35 -14t14 -35t-14 -34.5t-35 -13.5q-22 0 -35 13z" />
    <glyph glyph-name="periodcentered.loclCAT.case" horiz-adv-x="37" 
d="M-126 352q-13 13 -13 35t13 35.5t35 13.5q21 0 35 -14t14 -35t-14 -34.5t-35 -13.5q-22 0 -35 13z" />
    <glyph glyph-name="slash.case" horiz-adv-x="431" 
d="M342 756h64l-306 -806h-63z" />
    <glyph glyph-name="periodcentered.loclCAT" horiz-adv-x="111" 
d="M20 298q-13 13 -13 35t13 35.5t35 13.5q21 0 35 -14t14 -35t-14 -34.5t-35 -13.5q-22 0 -35 13z" />
    <glyph glyph-name="parenleft.case" horiz-adv-x="381" 
d="M164 99q-34 114 -34 254q0 141 34 254.5t103 229.5h62q-70 -111 -105.5 -228t-35.5 -256t35.5 -256t105.5 -227h-62q-69 115 -103 229z" />
    <glyph glyph-name="parenright.case" horiz-adv-x="381" 
d="M52 -130q70 110 105.5 227.5t35.5 255.5t-35.5 255.5t-105.5 228.5h61q70 -115 103.5 -229t33.5 -255t-33.5 -255t-103.5 -228h-61z" />
    <glyph glyph-name="braceleft.case" horiz-adv-x="338" 
d="M188 405q-7 -24 -24 -36.5t-48 -15.5q32 -4 48.5 -16t23.5 -35.5t7 -65.5v-229q0 -44 21 -66.5t72 -22.5h27v-48h-46q-64 0 -95.5 34t-31.5 91v230q1 41 -6.5 62t-28 30t-62.5 9v54q43 0 63.5 9.5t27.5 30t6 61.5v230q0 57 32 91.5t95 34.5h46v-48h-27q-51 0 -72 -22.5
t-21 -67.5v-229q0 -41 -7 -65z" />
    <glyph glyph-name="braceright.case" horiz-adv-x="338" 
d="M202 419.5q7 -20.5 28 -30t64 -9.5v-54q-43 0 -63.5 -9t-28 -30t-6.5 -62v-230q0 -57 -31.5 -91t-95.5 -34h-46v48h27q51 0 72 22.5t21 66.5v229q0 41 7 65t24 36t48 16q-31 3 -48 15.5t-24 36.5t-7 65v229q0 45 -21 67.5t-72 22.5h-27v48h46q63 0 95 -34.5t32 -91.5
v-230q-1 -41 6 -61.5z" />
    <glyph glyph-name="bracketleft.case" horiz-adv-x="372" 
d="M163 837h186v-50h-131v-867h131v-50h-186v967z" />
    <glyph glyph-name="bracketright.case" horiz-adv-x="372" 
d="M23 -130v50h131v867h-131v50h186v-967h-186z" />
    </font>
</defs>
</svg>
