<?xml version="1.0" standalone="no"?>
<!DOCTYPE svg PUBLIC "-//W3C//DTD SVG 1.1//EN" "http://www.w3.org/Graphics/SVG/1.1/DTD/svg11.dtd" >
<svg xmlns="http://www.w3.org/2000/svg" xmlns:xlink="http://www.w3.org/1999/xlink" version="1.1">
<metadata>
Created by FontForge 20201107 at Tue Mar 19 07:28:06 2019
 By 
(c) 2018 Stephane Elbaz under exclusive license to General Type LLC. All rights reserved.
</metadata>
<defs>
<font id="MierB-Light" horiz-adv-x="567" >
  <font-face 
    font-family="Mier B Light"
    font-weight="350"
    font-stretch="normal"
    units-per-em="1000"
    panose-1="2 11 4 1 3 0 0 0 0 6"
    ascent="750"
    descent="-250"
    x-height="462"
    cap-height="700"
    bbox="-166 -255 1169 1079"
    underline-thickness="39"
    underline-position="-172"
    unicode-range="U+000D-FB02"
  />
<missing-glyph horiz-adv-x="700" 
d="M369 -80q-113 0 -190 78.5t-77 187.5v18l-19 31q-15 25 -9 53q6 29 31 44l7 4q18 13 43 11q-7 24 0.5 46t28.5 35l7 4q20 12 41 11l-76 120q-12 21 -12 39q0 30 21.5 52.5t51.5 22.5q42 0 65 -35l139 -221v224q0 31 21.5 53t52.5 22t52.5 -22t21.5 -53v-286
q30 -15 48 -43t18 -63v-62q0 -65 -30 -126t-92.5 -103t-143.5 -42zM451 645v-274h66q17 0 22 -2v276q0 18 -13 31t-31 13t-31 -13t-13 -31zM182 579l127 -203l24 -37q6 14 20 23t30 9h33l-160 255q-12 20 -37 20q-18 0 -31 -13t-13 -31q0 -12 7 -23zM313 220l8 5
q14 9 17.5 25.5t-5.5 29.5l-72 114q-9 14 -24.5 17.5t-29.5 -4.5l-8 -5q-13 -9 -17 -24.5t5 -30.5l72 -114q9 -14 25 -17.5t29 4.5zM359 138q0 24 13 49.5t29 33.5q-16 1 -34 15q-7 -25 -29 -37l-7 -4q-18 -11 -43 -11q17 -49 -29 -81l-8 -5q-24 -15 -51.5 -8.5t-44.5 31.5
l-20 30q12 -85 79.5 -143t153.5 -58q99 0 168 72t69 169v62q0 36 -26 62t-62 26h-134q-10 0 -17 -7.5t-7 -19.5q0 -27 19 -47.5t48 -20.5h42q6 0 10.5 -4.5t4.5 -10.5t-4.5 -10.5t-10.5 -4.5q-34 0 -55.5 -23.5t-21.5 -54.5q0 -6 -5 -10.5t-11 -4.5t-11 4.5t-5 10.5z
M235 124l8 5q14 9 17.5 25.5t-5.5 29.5l-72 114q-9 14 -24.5 17.5t-29.5 -4.5l-8 -5q-13 -9 -17 -24.5t5 -30.5l72 -114q9 -14 25 -17.5t29 4.5z" />
    <glyph glyph-name="f_f" unicode="ff" horiz-adv-x="605" 
d="M118 416h-99v47h99v98q0 71 36 112.5t108 41.5q36 0 60 -8v-46q-28 7 -51 7q-51 0 -75.5 -30t-24.5 -81v-94h231v98q0 71 36 112.5t108 41.5q36 0 60 -8v-46q-28 7 -51 7q-51 0 -75.5 -30t-24.5 -81v-94h151v-47h-151v-416h-53v416h-231v-416h-53v416z" />
    <glyph glyph-name="fi" unicode="fi" horiz-adv-x="549" 
d="M118 416h-99v47h99v98q0 71 36 112.5t108 41.5q36 0 60 -8v-46q-28 7 -51 7q-51 0 -75.5 -30t-24.5 -81v-94h151v-47h-151v-416h-53v416zM462 700v-96h-53v96h53zM462 463v-463h-53v463h53z" />
    <glyph glyph-name="fl" unicode="fl" horiz-adv-x="549" 
d="M118 416h-99v47h99v98q0 71 36 112.5t108 41.5q36 0 60 -8v-46q-28 7 -51 7q-51 0 -75.5 -30t-24.5 -81v-94h151v-47h-151v-416h-53v416zM409 0v700h53v-700h-53z" />
    <glyph glyph-name=".notdef" horiz-adv-x="700" 
d="M369 -80q-113 0 -190 78.5t-77 187.5v18l-19 31q-15 25 -9 53q6 29 31 44l7 4q18 13 43 11q-7 24 0.5 46t28.5 35l7 4q20 12 41 11l-76 120q-12 21 -12 39q0 30 21.5 52.5t51.5 22.5q42 0 65 -35l139 -221v224q0 31 21.5 53t52.5 22t52.5 -22t21.5 -53v-286
q30 -15 48 -43t18 -63v-62q0 -65 -30 -126t-92.5 -103t-143.5 -42zM451 645v-274h66q17 0 22 -2v276q0 18 -13 31t-31 13t-31 -13t-13 -31zM182 579l127 -203l24 -37q6 14 20 23t30 9h33l-160 255q-12 20 -37 20q-18 0 -31 -13t-13 -31q0 -12 7 -23zM313 220l8 5
q14 9 17.5 25.5t-5.5 29.5l-72 114q-9 14 -24.5 17.5t-29.5 -4.5l-8 -5q-13 -9 -17 -24.5t5 -30.5l72 -114q9 -14 25 -17.5t29 4.5zM359 138q0 24 13 49.5t29 33.5q-16 1 -34 15q-7 -25 -29 -37l-7 -4q-18 -11 -43 -11q17 -49 -29 -81l-8 -5q-24 -15 -51.5 -8.5t-44.5 31.5
l-20 30q12 -85 79.5 -143t153.5 -58q99 0 168 72t69 169v62q0 36 -26 62t-62 26h-134q-10 0 -17 -7.5t-7 -19.5q0 -27 19 -47.5t48 -20.5h42q6 0 10.5 -4.5t4.5 -10.5t-4.5 -10.5t-10.5 -4.5q-34 0 -55.5 -23.5t-21.5 -54.5q0 -6 -5 -10.5t-11 -4.5t-11 4.5t-5 10.5z
M235 124l8 5q14 9 17.5 25.5t-5.5 29.5l-72 114q-9 14 -24.5 17.5t-29.5 -4.5l-8 -5q-13 -9 -17 -24.5t5 -30.5l72 -114q9 -14 25 -17.5t29 4.5z" />
    <glyph glyph-name=".null" horiz-adv-x="0" 
 />
    <glyph glyph-name="nonmarkingreturn" horiz-adv-x="333" 
 />
    <glyph glyph-name="CR" unicode="&#xd;" horiz-adv-x="250" 
 />
    <glyph glyph-name="space" unicode=" " horiz-adv-x="228" 
 />
    <glyph glyph-name="exclam" unicode="!" horiz-adv-x="296" 
d="M179 700l-8 -506h-46l-9 506h63zM178 0h-61v82h61v-82z" />
    <glyph glyph-name="quotedbl" unicode="&#x22;" horiz-adv-x="346" 
d="M124 700l-4 -239h-44l-5 239h53zM275 700l-4 -239h-44l-5 239h53z" />
    <glyph glyph-name="numbersign" unicode="#" 
d="M385 210l-45 -210h-44l45 210h-175l-45 -210h-45l45 210h-113v43h122l42 194h-113v43h123l45 210h45l-46 -210h175l46 210h44l-46 -210h114v-43h-123l-42 -194h114v-43h-123zM173 251h178l43 197h-178z" />
    <glyph glyph-name="dollar" unicode="$" 
d="M310 3v-104h-46v105q-72 7 -128 48q-55 42 -66 122l50 12q8 -68 58 -102t118 -34q72 0 114 38.5t42 102.5q0 42 -20.5 70t-53 42t-72 23.5t-79.5 21t-72.5 29.5t-53 54t-20.5 88q0 76 51.5 124t131.5 53v106h46v-106q78 -8 125.5 -53.5t56.5 -111.5l-51 -13
q-6 57 -49 94.5t-113 37.5q-62 0 -102.5 -34t-40.5 -93q0 -42 20.5 -70t53.5 -41.5t72.5 -23.5t79 -21.5t72.5 -29t53.5 -53.5t20.5 -88q0 -83 -55 -135t-143 -58z" />
    <glyph glyph-name="percent" unicode="%" horiz-adv-x="751" 
d="M182 325q-66 0 -105 53.5t-39 141.5t39 141.5t105 53.5t105.5 -53.5t39.5 -141.5t-39.5 -141.5t-105.5 -53.5zM582 700h45l-459 -700h-46zM182 367q47 0 74 41.5t27 111.5t-27 111.5t-74 41.5t-73.5 -41.5t-26.5 -111.5t26.5 -111.5t73.5 -41.5zM569 -15q-66 0 -105.5 54
t-39.5 141t39.5 141t105.5 54t105.5 -54t39.5 -141t-39.5 -141t-105.5 -54zM569 27q47 0 74 41.5t27 111.5t-27 111.5t-74 41.5q-48 0 -74.5 -41.5t-26.5 -111.5t26.5 -111.5t74.5 -41.5z" />
    <glyph glyph-name="ampersand" unicode="&#x26;" horiz-adv-x="660" 
d="M525 348v-348h-210q-121 0 -183.5 54.5t-62.5 140.5q0 68 39.5 118.5t110.5 62.5q-56 12 -92 54t-36 102q0 75 59.5 125t170.5 50q58 0 95 -8l-7 -48q-33 7 -84 7q-89 0 -133 -38.5t-44 -93.5q0 -58 42.5 -93.5t114.5 -35.5h166v136h54v-136h110v-49h-110zM315 49h156
v299h-182q-80 0 -121.5 -44t-41.5 -105q0 -64 46 -107t143 -43z" />
    <glyph glyph-name="quotesingle" unicode="'" horiz-adv-x="195" 
d="M124 700l-4 -239h-44l-5 239h53z" />
    <glyph glyph-name="parenleft" unicode="(" horiz-adv-x="279" 
d="M46 295q0 145 47 251t106 154h56q-71 -60 -115 -165t-44 -240t44 -240t115 -165h-56q-59 50 -106 155.5t-47 249.5z" />
    <glyph glyph-name="parenright" unicode=")" horiz-adv-x="279" 
d="M233 295q0 -144 -47 -250t-106 -155h-56q71 58 115 164t44 241t-44 241t-115 164h56q59 -47 106 -153.5t47 -251.5z" />
    <glyph glyph-name="asterisk" unicode="*" horiz-adv-x="364" 
d="M293 425l-34 -25l-77 114l-77 -114l-34 25l83 110l-128 38l13 41l126 -47l-5 133h44l-5 -133l126 47l13 -41l-128 -38z" />
    <glyph glyph-name="plus" unicode="+" horiz-adv-x="600" 
d="M279 308h-208v43h208v217h43v-217h207v-43h-207v-218h-43v218z" />
    <glyph glyph-name="comma" unicode="," horiz-adv-x="254" 
d="M183 107l-78 -239h-45l70 239h53z" />
    <glyph glyph-name="hyphen" unicode="-" horiz-adv-x="270" 
d="M250 257h-230v43h230v-43z" />
    <glyph glyph-name="period" unicode="." horiz-adv-x="254" 
d="M156 0h-58v96h58v-96z" />
    <glyph glyph-name="slash" unicode="/" horiz-adv-x="430" 
d="M383 700h47l-383 -786h-47z" />
    <glyph glyph-name="zero" unicode="0" horiz-adv-x="588" 
d="M294 -15q-115 0 -180 101.5t-65 263.5t65 263.5t180 101.5t180 -101.5t65 -263.5t-65 -263.5t-180 -101.5zM294 35q90 0 139 87.5t49 227.5q0 139 -49.5 227t-138.5 88q-90 0 -139 -87.5t-49 -227.5t49 -227.5t139 -87.5z" />
    <glyph glyph-name="one" unicode="1" horiz-adv-x="411" 
d="M32 543l-9 54l212 103h49v-700h-54v642z" />
    <glyph glyph-name="two" unicode="2" 
d="M74 0v49l229 225q77 77 108 131t31 113q0 53 -37.5 99.5t-115.5 46.5q-43 0 -76.5 -17t-52 -43.5t-27.5 -53t-10 -51.5l-53 5q2 34 15 68t37 67.5t67.5 54.5t99.5 21q101 0 155 -60t54 -132q0 -75 -36 -137t-123 -149l-188 -186h352v-51h-429z" />
    <glyph glyph-name="three" unicode="3" 
d="M284 -15q-93 0 -161 56.5t-71 135.5l54 7q1 -61 53.5 -105t123.5 -44q83 0 129.5 52.5t46.5 128.5q0 75 -47.5 121t-122.5 46q-46 0 -81 -35v49l237 252h-362v51h428v-48l-189 -202q-17 -20 -23 -24v-4q3 3 20 3q86 0 141.5 -58.5t55.5 -148.5q0 -98 -63 -165.5
t-169 -67.5z" />
    <glyph glyph-name="four" unicode="4" 
d="M442 161v-161h-55v161h-355v50l316 489h94v-489h102v-50h-102zM383 665l-295 -454h299v454h-4z" />
    <glyph glyph-name="five" unicode="5" 
d="M278 -15q-85 0 -148.5 47t-77.5 115l54 14q11 -53 59 -89.5t113 -36.5q80 0 133 55t53 134q0 82 -50.5 136.5t-130.5 54.5q-51 0 -91.5 -23t-57.5 -62h-52v370h407v-51h-356v-253q22 31 66 49.5t96 18.5q99 0 163 -67t64 -169t-69 -172.5t-175 -70.5z" />
    <glyph glyph-name="six" unicode="6" 
d="M305 -15q-250 0 -250 360q0 177 66 273.5t186 96.5q80 0 136 -41.5t72 -109.5l-54 -11q-11 50 -52.5 81t-100.5 31q-93 0 -145.5 -80.5t-52.5 -226.5q0 -12 2 -44q21 61 72 93.5t121 32.5q100 0 163 -62.5t63 -162.5q0 -99 -63.5 -164.5t-162.5 -65.5zM302 35
q79 0 126 51t47 126q0 76 -47 127t-126 51q-80 0 -127 -51t-47 -127q0 -75 47 -126t127 -51z" />
    <glyph glyph-name="seven" unicode="7" 
d="M75 700h429v-51l-354 -649h-62l358 649h-371v51z" />
    <glyph glyph-name="eight" unicode="8" 
d="M284 -15q-110 0 -171 59.5t-61 140.5q0 65 35 114.5t92 65.5q-49 15 -78 61t-29 105q0 68 54.5 126t157.5 58t157.5 -58t54.5 -126q0 -59 -29.5 -105t-78.5 -61q58 -16 93 -65.5t35 -114.5q0 -81 -61 -140.5t-171 -59.5zM283 386q72 0 114 40t42 99q0 52 -40.5 96
t-115.5 44q-74 0 -115 -44t-41 -96q0 -58 42.5 -98.5t113.5 -40.5zM283 35q82 0 128.5 44.5t46.5 108.5q0 65 -47.5 108.5t-127.5 43.5q-79 0 -126.5 -43.5t-47.5 -108.5q0 -63 47 -108t127 -45z" />
    <glyph glyph-name="nine" unicode="9" 
d="M262 715q250 0 250 -360q0 -177 -66 -273.5t-186 -96.5q-80 0 -135 41.5t-73 109.5l54 11q11 -50 52.5 -81t101.5 -31q93 0 145 80.5t52 226.5q0 33 -2 44q-22 -60 -73 -93t-120 -33q-99 0 -162.5 63t-63.5 162q0 100 63.5 165t162.5 65zM266 665q-79 0 -126.5 -51
t-47.5 -126q0 -76 47.5 -127t126.5 -51t126.5 51t47.5 127q0 75 -47.5 126t-126.5 51z" />
    <glyph glyph-name="colon" unicode=":" horiz-adv-x="254" 
d="M155 366h-58v96h58v-96zM155 0h-58v96h58v-96z" />
    <glyph glyph-name="semicolon" unicode=";" horiz-adv-x="258" 
d="M159 366h-58v96h58v-96zM183 107l-78 -239h-45l70 239h53z" />
    <glyph glyph-name="less" unicode="&#x3c;" horiz-adv-x="600" 
d="M530 174v-47l-457 183v38l457 183v-47l-389 -154v-3z" />
    <glyph glyph-name="equal" unicode="=" horiz-adv-x="600" 
d="M509 421h-418v43h418v-43zM509 194h-418v44h418v-44z" />
    <glyph glyph-name="greater" unicode="&#x3e;" horiz-adv-x="600" 
d="M73 483v47l457 -183v-38l-457 -183v47l389 154v3z" />
    <glyph glyph-name="question" unicode="?" horiz-adv-x="498" 
d="M277 203v-9h-54v14q0 35 12.5 66.5t31.5 53t41.5 45.5t41.5 45t31.5 50.5t12.5 63.5q0 53 -36.5 92.5t-99.5 39.5q-74 0 -113 -53t-41 -122l-53 4q3 56 24 104.5t68.5 83t114.5 34.5q90 0 141.5 -54.5t51.5 -127.5q0 -48 -18 -87t-43.5 -66t-51 -51.5t-43.5 -56.5
t-18 -69zM280 0h-60v82h60v-82z" />
    <glyph glyph-name="at" unicode="@" horiz-adv-x="896" 
d="M419 54q-71 0 -112.5 48t-41.5 126q0 100 53 170t142 70q44 0 76.5 -21t42.5 -57h2l8 58h51l-35 -251q-6 -48 9.5 -73.5t48.5 -25.5q53 0 88 56t35 142q0 146 -95 242.5t-240 96.5q-144 0 -241.5 -108.5t-97.5 -270.5q0 -159 98.5 -265t244.5 -106q62 0 125 24t103 64
l25 -33q-38 -42 -111.5 -71t-146.5 -29q-164 0 -274.5 118t-110.5 296q0 182 111.5 304t274.5 122q164 0 273 -109t109 -272q0 -106 -50 -175.5t-125 -69.5q-40 0 -65.5 22t-28.5 61h-2q-17 -37 -56 -60t-87 -23zM426 98q62 0 103.5 55t41.5 133q0 64 -30 101t-83 37
q-61 0 -103 -55t-42 -133q0 -64 30 -101t83 -37z" />
    <glyph glyph-name="A" unicode="A" horiz-adv-x="667" 
d="M365 711l273 -711h-60l-88 233h-313l-88 -233h-59l273 711h62zM336 645h-4l-136 -361h276z" />
    <glyph glyph-name="B" unicode="B" horiz-adv-x="636" 
d="M532 522q0 -53 -28 -99q-28 -45 -88 -58q74 -11 112.5 -58.5t38.5 -113.5q0 -84 -54 -138.5t-156 -54.5h-250v700h228q94 0 145.5 -49.5t51.5 -128.5zM330 648h-167v-262h178q70 0 101 39q33 39 33 91q0 55 -36.5 93.5t-108.5 38.5zM510 196q0 60 -40 100.5t-124 40.5
h-183v-285h190q78 0 117.5 42.5t39.5 101.5z" />
    <glyph glyph-name="C" unicode="C" horiz-adv-x="741" 
d="M65 350q0 165 94 265t239 100q100 0 177.5 -56t107.5 -151l-57 -10q-24 72 -84 118q-61 47 -144 47q-119 0 -198 -87.5t-79 -225.5t78.5 -225t197.5 -87q80 0 142 45t88 122l54 -14q-27 -93 -104.5 -149.5t-177.5 -56.5q-144 0 -239 100.5t-95 264.5z" />
    <glyph glyph-name="D" unicode="D" horiz-adv-x="726" 
d="M662 350q0 -114 -50 -194.5t-129.5 -118t-178.5 -37.5h-197v700h204q154 0 252.5 -95t98.5 -255zM604 350q0 137 -82.5 217.5t-209.5 80.5h-149v-596h150q127 0 209 80.5t82 217.5z" />
    <glyph glyph-name="E" unicode="E" horiz-adv-x="623" 
d="M107 700h445v-52h-389v-266h295v-52h-295v-278h389v-52h-445v700z" />
    <glyph glyph-name="F" unicode="F" horiz-adv-x="596" 
d="M107 700h442v-52h-386v-268h292v-52h-292v-328h-56v700z" />
    <glyph glyph-name="G" unicode="G" horiz-adv-x="768" 
d="M682 518l-53 -19q-25 73 -86.5 118.5t-143.5 45.5q-120 0 -199 -87.5t-79 -225.5t79 -225t201 -87q111 0 174 71t73 184h-242v52h302v-24q-8 -152 -89.5 -244t-217.5 -92q-146 0 -241 101.5t-95 263.5t95 263.5t238 101.5q98 0 176 -54t108 -143z" />
    <glyph glyph-name="H" unicode="H" horiz-adv-x="743" 
d="M580 700h56v-700h-56v323h-417v-323h-56v700h56v-326h417v326z" />
    <glyph glyph-name="I" unicode="I" horiz-adv-x="270" 
d="M107 700h56v-700h-56v700z" />
    <glyph glyph-name="J" unicode="J" horiz-adv-x="428" 
d="M127 -10q-51 0 -91 23v54q40 -25 84 -25q158 0 158 194v412h-199v52h255v-471q0 -122 -55 -180.5t-152 -58.5z" />
    <glyph glyph-name="K" unicode="K" horiz-adv-x="622" 
d="M163 338v-338h-56v700h56v-339l327 339h68l-335 -346l377 -354h-77z" />
    <glyph glyph-name="L" unicode="L" horiz-adv-x="523" 
d="M107 0v700h56v-648h349v-52h-405z" />
    <glyph glyph-name="M" unicode="M" horiz-adv-x="897" 
d="M790 700v-700h-55v619h-4l-258 -619h-50l-256 619h-4v-619h-56v700h85l256 -615h4l256 615h82z" />
    <glyph glyph-name="N" unicode="N" horiz-adv-x="785" 
d="M678 700v-711h-61l-454 634v-623h-56v711h61l454 -634v623h56z" />
    <glyph glyph-name="O" unicode="O" horiz-adv-x="809" 
d="M745 350q0 -160 -98.5 -262.5t-241.5 -102.5t-241.5 102.5t-98.5 262.5t98.5 262.5t241.5 102.5t241.5 -102.5t98.5 -262.5zM688 350q0 139 -82 226t-201 87q-118 0 -201 -87.5t-83 -225.5t83 -225t201 -87q119 0 201 87t82 225z" />
    <glyph glyph-name="P" unicode="P" horiz-adv-x="615" 
d="M350 288h-187v-288h-56v700h239q99 0 161.5 -59t62.5 -147q0 -85 -61 -145.5t-159 -60.5zM513 494q0 62 -45.5 108t-129.5 46h-175v-309h179q80 0 125.5 46.5t45.5 108.5z" />
    <glyph glyph-name="Q" unicode="Q" horiz-adv-x="809" 
d="M678 -72l-53 -8l-60 105q-73 -40 -160 -40q-143 0 -241.5 102.5t-98.5 262.5t98.5 262.5t241.5 102.5t241.5 -102.5t98.5 -262.5q0 -96 -37 -172.5t-101 -126.5zM688 350q0 139 -82 226t-201 87q-118 0 -201 -87.5t-83 -225.5t83 -225t201 -87q72 0 133 34l-58 101l52 8
l47 -81q109 89 109 250z" />
    <glyph glyph-name="R" unicode="R" horiz-adv-x="631" 
d="M579 0h-66l-200 321h-150v-321h-56v700h235q92 0 149 -54t57 -137q0 -72 -46 -124t-127 -62zM491 508q0 56 -40 98t-118 42h-170v-280h172q78 0 117 42t39 98z" />
    <glyph glyph-name="S" unicode="S" horiz-adv-x="597" 
d="M305 -15q-89 0 -159 47.5t-80 136.5l54 10q10 -73 63.5 -108.5t123.5 -35.5q77 0 125 41t48 107q0 44 -21.5 73.5t-55.5 44.5t-75.5 25.5t-83 23t-75.5 31t-55.5 56t-21.5 91.5q0 85 60.5 136t152.5 51q95 0 155.5 -52.5t71.5 -133.5l-54 -9q-9 64 -55 104.5t-121 40.5
q-66 0 -110 -35.5t-44 -97.5q0 -44 21.5 -73t55.5 -43.5t75.5 -25t83 -23t75.5 -31t55.5 -56t21.5 -91.5q0 -92 -65 -148t-166 -56z" />
    <glyph glyph-name="T" unicode="T" horiz-adv-x="571" 
d="M33 700h505v-52h-224v-648h-56v648h-225v52z" />
    <glyph glyph-name="U" unicode="U" horiz-adv-x="730" 
d="M365 -15q-125 0 -198 74t-73 220v421h55v-412q0 -125 58 -187.5t158 -62.5t158 62.5t58 187.5v412h55v-421q0 -146 -73 -220t-198 -74z" />
    <glyph glyph-name="V" unicode="V" horiz-adv-x="667" 
d="M638 700l-273 -711h-62l-273 711h61l242 -636h4l242 636h59z" />
    <glyph glyph-name="W" unicode="W" horiz-adv-x="973" 
d="M234 -11l-199 711h62l169 -615h4l190 615h57l190 -615h5l168 615h58l-197 -711h-60l-192 622h-4l-192 -622h-59z" />
    <glyph glyph-name="X" unicode="X" horiz-adv-x="678" 
d="M373 364l250 -364h-65l-220 319l-218 -319h-65l249 364l-229 336h65l200 -291l199 291h65z" />
    <glyph glyph-name="Y" unicode="Y" horiz-adv-x="607" 
d="M331 304v-304h-55v304l-245 396h66l207 -339h4l206 339h62z" />
    <glyph glyph-name="Z" unicode="Z" horiz-adv-x="617" 
d="M555 52v-52h-489v49l415 599h-390v52h459v-49l-415 -599h420z" />
    <glyph glyph-name="bracketleft" unicode="[" horiz-adv-x="261" 
d="M231 -67v-43h-159v810h159v-43h-111v-724h111z" />
    <glyph glyph-name="backslash" unicode="\" horiz-adv-x="430" 
d="M430 -86h-47l-383 786h47z" />
    <glyph glyph-name="bracketright" unicode="]" horiz-adv-x="261" 
d="M30 657v43h159v-810h-159v43h111v724h-111z" />
    <glyph glyph-name="asciicircum" unicode="^" horiz-adv-x="600" 
d="M317 700l211 -506h-48l-179 435h-2l-179 -435h-48l211 506h34z" />
    <glyph glyph-name="underscore" unicode="_" horiz-adv-x="500" 
d="M500 -119h-500v43h500v-43z" />
    <glyph glyph-name="grave" unicode="`" horiz-adv-x="500" 
d="M173 700h65l89 -144h-51z" />
    <glyph glyph-name="a" unicode="a" horiz-adv-x="516" 
d="M438 311v-311h-51v64h-2q-19 -36 -60.5 -57t-94.5 -21q-71 0 -116 39.5t-45 100.5q0 66 51.5 107t137.5 41q77 0 126 -27v61q0 58 -31 91t-88 33q-94 0 -123 -85l-52 7q16 58 63.5 90.5t115.5 32.5q79 0 124 -44.5t45 -121.5zM123 130q0 -43 33 -71.5t82 -28.5
q59 0 103 36.5t44 80.5v55q-46 30 -122 30q-66 0 -103 -28t-37 -74z" />
    <glyph glyph-name="b" unicode="b" horiz-adv-x="577" 
d="M535 231q0 -108 -61.5 -177t-158.5 -69q-58 0 -104.5 25.5t-69.5 71.5h-2v-82h-50v700h54v-321q23 47 68 72.5t103 25.5q98 0 159.5 -68.5t61.5 -177.5zM482 231q0 84 -47.5 141.5t-125.5 57.5q-77 0 -122.5 -55t-45.5 -144q0 -87 46 -142.5t122 -55.5q78 0 125.5 57
t47.5 141z" />
    <glyph glyph-name="c" unicode="c" horiz-adv-x="507" 
d="M264 478q156 0 201 -147l-51 -9q-39 108 -149 108q-77 0 -120 -56.5t-43 -142.5t43 -142t120 -56q109 0 149 108l50 -13q-48 -143 -198 -143q-99 0 -158.5 70.5t-59.5 175.5q0 107 59.5 177t156.5 70z" />
    <glyph glyph-name="d" unicode="d" horiz-adv-x="583" 
d="M48 231q0 108 62 177t159 69q56 0 102 -24t71 -67v314h53v-700h-50v90h-1q-52 -105 -175 -105q-97 0 -159 69t-62 177zM102 231q0 -86 48.5 -142t124.5 -56t122 55.5t46 142.5q0 89 -45.5 144t-122.5 55q-78 0 -125.5 -57.5t-47.5 -141.5z" />
    <glyph glyph-name="e" unicode="e" horiz-adv-x="527" 
d="M419 120l45 -14q-57 -121 -188 -121q-102 0 -165 70t-63 176q0 105 59 176t158 71q88 0 150.5 -61t65.5 -173v-23h-380q3 -84 50.5 -137t124.5 -53q99 0 143 89zM266 434q-71 0 -114 -47.5t-50 -126.5h324q-6 88 -51 131t-109 43z" />
    <glyph glyph-name="f" unicode="f" horiz-adv-x="322" 
d="M118 416h-99v47h99v98q0 71 36 112.5t108 41.5q36 0 60 -8v-46q-28 7 -51 7q-51 0 -75.5 -30t-24.5 -81v-94h151v-47h-151v-416h-53v416z" />
    <glyph glyph-name="g" unicode="g" horiz-adv-x="565" 
d="M50 247q0 102 59.5 166t154.5 64q53 0 95 -22t64 -60h2v67h51v-445q0 -103 -53 -160t-149 -57q-79 0 -133 36q-55 36 -65 90l53 12q10 -42 50 -67.5t95 -25.5q71 0 110 43t39 120v100q-18 -40 -63 -65.5t-101 -25.5q-91 0 -150 65t-59 165zM104 247q0 -81 44.5 -132
t115.5 -51q73 0 117.5 51.5t44.5 131.5t-44.5 131.5t-117.5 51.5q-71 0 -115.5 -51t-44.5 -132z" />
    <glyph glyph-name="h" unicode="h" horiz-adv-x="541" 
d="M89 0v700h53v-318q19 44 61 69.5t96 25.5q75 0 119.5 -49.5t44.5 -133.5v-294h-53v280q0 71 -31 110.5t-89 39.5q-63 0 -105.5 -47t-42.5 -115v-268h-53z" />
    <glyph glyph-name="i" unicode="i" horiz-adv-x="230" 
d="M142 700v-96h-53v96h53zM142 463v-463h-53v463h53z" />
    <glyph glyph-name="j" unicode="j" horiz-adv-x="230" 
d="M142 700v-96h-53v96h53zM-5 -192q-7 0 -20.5 2t-17.5 2v48q21 -3 29 -3q54 0 78.5 32.5t24.5 82.5v491h53v-495q0 -75 -37.5 -117.5t-109.5 -42.5z" />
    <glyph glyph-name="k" unicode="k" horiz-adv-x="466" 
d="M142 232v-232h-53v700h53v-439l227 202h66l-241 -212l271 -251h-71z" />
    <glyph glyph-name="l" unicode="l" horiz-adv-x="230" 
d="M89 0v700h53v-700h-53z" />
    <glyph glyph-name="m" unicode="m" horiz-adv-x="829" 
d="M751 297v-297h-53v279q0 69 -30.5 110t-84.5 41q-57 0 -97 -44.5t-40 -108.5v-277h-53v279q0 70 -30.5 110.5t-84.5 40.5q-57 0 -96.5 -44.5t-39.5 -108.5v-277h-53v462h50v-72h4q18 38 57.5 62.5t88.5 24.5q53 0 93.5 -29t51.5 -74q23 49 64.5 76t94.5 27
q73 0 115.5 -48.5t42.5 -131.5z" />
    <glyph glyph-name="n" unicode="n" horiz-adv-x="541" 
d="M463 294v-294h-53v280q0 71 -31 110.5t-89 39.5q-63 0 -105.5 -47t-42.5 -115v-268h-53v462h50v-79h4q20 44 61 69t95 25q75 0 119.5 -49.5t44.5 -133.5z" />
    <glyph glyph-name="o" unicode="o" horiz-adv-x="550" 
d="M48 232q0 108 64 177t163 69q100 0 163.5 -69t63.5 -177t-64 -177.5t-163 -69.5t-163 70t-64 177zM102 232q0 -85 47.5 -142t125.5 -57q79 0 126.5 56.5t47.5 142.5q0 85 -47.5 141.5t-126.5 56.5q-78 0 -125.5 -56.5t-47.5 -141.5z" />
    <glyph glyph-name="p" unicode="p" horiz-adv-x="583" 
d="M535 232q0 -108 -62 -177.5t-159 -69.5q-56 0 -101.5 24.5t-70.5 67.5v-277h-53v662h49v-90h2q24 50 69.5 77.5t104.5 27.5q98 0 159.5 -68.5t61.5 -176.5zM482 232q0 86 -48.5 141.5t-124.5 55.5q-77 0 -123 -55q-45 -55 -45 -142q0 -89 46 -144.5t122 -55.5
q78 0 125.5 57.5t47.5 142.5z" />
    <glyph glyph-name="q" unicode="q" horiz-adv-x="583" 
d="M48 232q0 108 61.5 176.5t159.5 68.5q58 0 104.5 -25.5t69.5 -71.5h1v82h51v-662h-54v284q-50 -99 -172 -99q-97 0 -159 69.5t-62 177.5zM102 232q0 -85 47.5 -142.5t125.5 -57.5q76 0 122 55.5t46 144.5q0 88 -45.5 142.5t-122.5 54.5q-78 0 -125.5 -56.5t-47.5 -140.5z
" />
    <glyph glyph-name="r" unicode="r" horiz-adv-x="328" 
d="M89 0v462h50v-79h4q17 42 54 67t82 25q26 0 39 -7v-51q-15 7 -40 7q-60 0 -98 -49.5t-38 -127.5v-247h-53z" />
    <glyph glyph-name="s" unicode="s" horiz-adv-x="438" 
d="M228 -15q-68 0 -116.5 33t-59.5 88l49 11q11 -42 45.5 -66t83.5 -24q52 0 80 27.5t28 69.5q0 37 -28 58t-68 30t-80 19.5t-68 39.5t-28 79q0 58 42.5 93t111.5 35q65 0 111 -34q47 -35 54 -86l-50 -10q-4 38 -36.5 62.5t-77.5 24.5q-50 0 -76 -23.5t-26 -58.5
q0 -32 20 -52t50.5 -27.5t65.5 -17t65.5 -20.5t50.5 -38.5t20 -70.5q0 -66 -45 -104t-118 -38z" />
    <glyph glyph-name="t" unicode="t" horiz-adv-x="346" 
d="M254 -9q-138 0 -138 159v266h-99v47h99v139l53 11v-150h160v-47h-160v-256q0 -66 22.5 -94.5t71.5 -28.5q38 0 60 13l9 -43q-27 -16 -78 -16z" />
    <glyph glyph-name="u" unicode="u" horiz-adv-x="541" 
d="M452 462v-462h-50v79h-3q-19 -43 -61 -68.5t-96 -25.5q-75 0 -119 49.5t-44 133.5v294h52v-280q0 -70 31.5 -109.5t88.5 -39.5q64 0 106.5 46t42.5 115v268h52z" />
    <glyph glyph-name="v" unicode="v" horiz-adv-x="487" 
d="M461 463l-194 -473h-48l-193 473h58l160 -402h2l161 402h54z" />
    <glyph glyph-name="w" unicode="w" horiz-adv-x="735" 
d="M704 463l-150 -473h-49l-137 403l-137 -403h-50l-150 473h56l122 -395h1l135 395h50l134 -394h2l122 394h51z" />
    <glyph glyph-name="x" unicode="x" horiz-adv-x="450" 
d="M258 239l172 -239h-62l-144 202l-144 -202h-60l171 237l-161 226h61l135 -190l136 190h59z" />
    <glyph glyph-name="y" unicode="y" horiz-adv-x="488" 
d="M462 463l-269 -655h-54l85 204l-200 451h59l170 -387l155 387h54z" />
    <glyph glyph-name="z" unicode="z" horiz-adv-x="448" 
d="M75 463h331v-44l-294 -373h308v-46h-371v44l294 373h-268v46z" />
    <glyph glyph-name="braceleft" unicode="{" horiz-adv-x="297" 
d="M268 -68v-42q-31 2 -50.5 5t-43.5 13.5t-38 28.5t-23.5 50.5t-9.5 78.5v133q0 46 -15 60.5t-77 15.5v40q62 1 77 16t15 60v133q0 46 9.5 78.5t23.5 50.5t38 28.5t43.5 13.5t50.5 5v-42q-64 -2 -91 -29t-27 -108v-134q0 -47 -15.5 -67t-56.5 -23v-4q41 -3 56.5 -22.5
t15.5 -67.5v-134q0 -81 26.5 -107.5t91.5 -29.5z" />
    <glyph glyph-name="bar" unicode="|" horiz-adv-x="224" 
d="M130 -110h-36v861h36v-861z" />
    <glyph glyph-name="braceright" unicode="}" horiz-adv-x="297" 
d="M29 658v42q39 -2 63 -7.5t50.5 -22.5t39 -53t12.5 -93v-133q0 -45 15 -60t77 -16v-40q-62 -1 -77 -15.5t-15 -60.5v-133q0 -57 -12.5 -93t-39 -53t-50.5 -22.5t-63 -7.5v42q65 3 91.5 29.5t26.5 107.5v134q0 48 15.5 67.5t56.5 22.5v4q-41 3 -56.5 22.5t-15.5 67.5v134
q0 81 -27 108t-91 29z" />
    <glyph glyph-name="asciitilde" unicode="~" horiz-adv-x="600" 
d="M402 275q-45 0 -105 33t-100 33q-66 0 -106 -61v50q15 21 43 37.5t64 16.5q45 0 105 -33t100 -33q67 0 106 61v-50q-15 -21 -43 -37.5t-64 -16.5z" />
    <glyph glyph-name="exclamdown" unicode="&#xa1;" horiz-adv-x="296" 
d="M118 460h61v-82h-61v82zM117 -240l8 506h46l9 -506h-63z" />
    <glyph glyph-name="cent" unicode="&#xa2;" horiz-adv-x="528" 
d="M300 -14v-87h-46v87q-94 10 -149.5 81.5t-55.5 176.5q0 106 55.5 178.5t149.5 81.5v87h46v-87q144 -10 189 -150l-51 -13q-41 116 -160 116q-83 0 -129.5 -60.5t-46.5 -152.5q0 -91 46.5 -151t129.5 -60q118 0 159 116l52 -11q-45 -141 -189 -152z" />
    <glyph glyph-name="sterling" unicode="&#xa3;" 
d="M499 51v-51h-429v44q20 11 33 21t30.5 29t26.5 49.5t9 70.5q0 39 -15 116h-100v40h92q-18 94 -18 145q0 99 55.5 149.5t139.5 50.5q72 0 117 -35t62 -85l-51 -16q-11 34 -42.5 60t-85.5 26q-57 0 -98.5 -35t-41.5 -112q0 -35 20 -148h187v-40h-179q14 -65 14 -111
q0 -111 -79 -164v-4h353z" />
    <glyph glyph-name="currency" unicode="&#xa4;" horiz-adv-x="600" 
d="M299 180q-51 0 -89 29l-107 -107l-31 31l108 107q-30 38 -30 89q0 50 30 89l-107 108l31 31l106 -109q41 31 89 31q50 0 89 -31l108 109l31 -31l-108 -109q30 -37 30 -88t-30 -89l109 -107l-31 -31l-109 108q-36 -30 -89 -30zM299 218q47 0 79 32q33 33 33 79
q0 47 -32.5 79t-79.5 32q-45 0 -79 -32q-32 -32 -32 -79q0 -46 32.5 -78.5t78.5 -32.5z" />
    <glyph glyph-name="yen" unicode="&#xa5;" 
d="M311 253v-253h-54v253h-211v40h211v20l-59 94h-152v40h128l-157 253h66l201 -330h4l201 330h62l-158 -253h129v-40h-153l-58 -94v-20h211v-40h-211z" />
    <glyph glyph-name="brokenbar" unicode="&#xa6;" horiz-adv-x="224" 
d="M130 401h-36v350h36v-350zM130 -110h-36v350h36v-350z" />
    <glyph glyph-name="section" unicode="&#xa7;" horiz-adv-x="575" 
d="M300 -170q-88 0 -145.5 45t-68.5 113l52 10q7 -49 49 -85q43 -37 114 -37q64 0 103 31t39 82q0 44 -27.5 72t-68.5 39t-89.5 24.5t-89.5 28t-68.5 49.5t-27.5 88q0 51 25.5 85.5t67.5 49.5q-76 41 -76 127q0 74 55.5 118.5t142.5 44.5t143.5 -44.5t70.5 -111.5l-52 -11
q-7 51 -50.5 86t-112.5 35q-64 0 -102.5 -31t-38.5 -81q0 -39 20.5 -64.5t53 -39t72 -23t79 -21t72 -27.5t53 -48.5t20.5 -78.5q0 -51 -26 -85.5t-68 -49.5q77 -43 77 -126q0 -73 -55.5 -118.5t-142.5 -45.5zM461 249q0 35 -15 59t-44 38t-57.5 22t-69.5 18t-66 19
q-38 -12 -60.5 -40t-22.5 -68q0 -35 15 -59t44 -38t57.5 -22t69.5 -18.5t66 -19.5q37 12 60 40.5t23 68.5z" />
    <glyph glyph-name="dieresis" unicode="&#xa8;" horiz-adv-x="500" 
d="M181 677v-98h-51v98h51zM370 677v-98h-50v98h50z" />
    <glyph glyph-name="copyright" unicode="&#xa9;" horiz-adv-x="781" 
d="M730 350q0 -160 -98.5 -262.5t-241.5 -102.5t-241.5 102.5t-98.5 262.5t98.5 262.5t241.5 102.5t241.5 -102.5t98.5 -262.5zM691 350q0 144 -87.5 236t-213.5 92t-213.5 -92t-87.5 -236t87.5 -235.5t213.5 -91.5q127 0 214 91.5t87 235.5zM396 144q-82 0 -136.5 57
t-54.5 149q0 94 53.5 150t136.5 56q57 0 100.5 -30t60.5 -82l-42 -12q-13 39 -45 62t-74 23q-61 0 -104 -45q-42 -45 -42 -122q0 -76 42 -122q43 -45 105 -45q41 0 73 23.5t45 61.5l41 -15q-19 -50 -61.5 -79.5t-97.5 -29.5z" />
    <glyph glyph-name="ordfeminine" unicode="&#xaa;" horiz-adv-x="406" 
d="M343 584v-234h-46v46h-1q-16 -25 -47.5 -41t-68.5 -16q-53 0 -87 30t-34 76q0 55 38.5 85.5t106.5 30.5q53 0 91 -20v43q0 40 -22 62t-64 22q-31 0 -55 -15t-33 -41l-46 9q14 42 51 66t86 24q60 0 95.5 -34t35.5 -93zM107 449q0 -31 23 -49t62 -18q40 0 71.5 25.5
t31.5 55.5v38q-35 21 -89 21q-47 0 -73 -19.5t-26 -53.5z" />
    <glyph glyph-name="guillemotleft" unicode="&#xab;" horiz-adv-x="430" 
d="M118 278l99 -202h-52l-99 202l99 202h52zM269 278l99 -202h-52l-99 202l99 202h52z" />
    <glyph glyph-name="logicalnot" unicode="&#xac;" horiz-adv-x="600" 
d="M516 351v-248h-43v205h-423v43h466z" />
    <glyph glyph-name="registered" unicode="&#xae;" horiz-adv-x="781" 
d="M730 350q0 -160 -98.5 -262.5t-241.5 -102.5t-241.5 102.5t-98.5 262.5t98.5 262.5t241.5 102.5t241.5 -102.5t98.5 -262.5zM691 350q0 144 -87.5 236t-213.5 92t-213.5 -92t-87.5 -236t87.5 -235.5t213.5 -91.5q127 0 214 91.5t87 235.5zM313 329v-176h-43v394h131
q56 0 89 -29.5t33 -80.5q0 -42 -23.5 -70t-67.5 -36l110 -178h-50l-106 176h-73zM397 508h-84v-143h87q41 0 60 20.5t19 50.5q0 31 -19 51.5t-63 20.5z" />
    <glyph glyph-name="overscore" unicode="&#xaf;" horiz-adv-x="500" 
d="M412 648v-40h-324v40h324z" />
    <glyph glyph-name="degree" unicode="&#xb0;" horiz-adv-x="338" 
d="M169 446q-56 0 -95 39.5t-39 96.5t39 96.5t95 39.5t95 -39.5t39 -96.5t-39 -96.5t-95 -39.5zM169 482q41 0 69.5 29t28.5 71q0 41 -28.5 70.5t-69.5 29.5q-42 0 -70 -29t-28 -71t28 -71t70 -29z" />
    <glyph glyph-name="plusminus" unicode="&#xb1;" horiz-adv-x="600" 
d="M279 428h-168v43h168v152h43v-152h167v-43h-167v-152h-43v152zM489 114h-378v43h378v-43z" />
    <glyph glyph-name="twosuperior" unicode="&#xb2;" horiz-adv-x="345" 
d="M307 440v-40h-262v33l136 135q47 47 64.5 78t17.5 62q0 35 -24.5 58t-61.5 23q-39 0 -65.5 -26t-28.5 -67l-41 4q3 56 42 92.5t95 36.5t92 -32.5t36 -84.5q0 -41 -20.5 -78t-73.5 -90l-104 -104h198z" />
    <glyph glyph-name="threesuperior" unicode="&#xb3;" horiz-adv-x="345" 
d="M173 391q-57 0 -98 34t-44 82l42 4q5 -36 32.5 -58.5t66.5 -22.5q44 0 71 28t27 72q0 43 -25 68t-69 25q-28 0 -50 -17v41l128 133h-204v40h258v-37l-108 -113q-11 -11 -14 -12v-4q6 2 13 2q52 0 83.5 -34.5t31.5 -89.5q0 -62 -39.5 -101.5t-101.5 -39.5z" />
    <glyph glyph-name="acute" unicode="&#xb4;" horiz-adv-x="500" 
d="M333 700l-109 -144h-51l95 144h65z" />
    <glyph glyph-name="mu" unicode="&#xb5;" horiz-adv-x="547" 
d="M141 -180h-53v642h52v-243h1v-61q5 -59 36 -92t83 -33q64 0 106.5 46t42.5 115v268h52v-462h-50v79h-3q-19 -43 -61 -68.5t-96 -25.5q-67 0 -110 40v-205z" />
    <glyph glyph-name="paragraph" unicode="&#xb6;" horiz-adv-x="565" 
d="M303 700v-810h-40v458h-14q-78 0 -131.5 49.5t-53.5 125.5q0 84 57 130.5t139 46.5h43zM444 700v-810h-40v810h40z" />
    <glyph glyph-name="middot" unicode="&#xb7;" horiz-adv-x="255" 
d="M156 237h-58v96h58v-96z" />
    <glyph glyph-name="cedilla" unicode="&#xb8;" horiz-adv-x="500" 
d="M292 0l-44 -200l-48 7l44 193h48z" />
    <glyph glyph-name="onesuperior" unicode="&#xb9;" horiz-adv-x="321" 
d="M56 717l-8 42l126 61h38v-420h-42v375z" />
    <glyph glyph-name="ordmasculine" unicode="&#xba;" horiz-adv-x="422" 
d="M38 525q0 81 49.5 134t124.5 53q76 0 124 -52.5t48 -134.5q0 -81 -48.5 -134t-123.5 -53t-124.5 53t-49.5 134zM85 525q0 -62 35 -103t92 -41q58 0 91.5 40.5t33.5 103.5q0 64 -33.5 104t-91.5 40q-57 0 -92 -40.5t-35 -103.5z" />
    <glyph glyph-name="guillemotright" unicode="&#xbb;" horiz-adv-x="430" 
d="M213 278l-99 -202h-52l99 202l-99 202h52zM364 278l-99 -202h-52l99 202l-99 202h52z" />
    <glyph glyph-name="onequarter" unicode="&#xbc;" horiz-adv-x="746" 
d="M616 700h45l-459 -700h-46zM56 597l-8 42l126 61h38v-420h-42v375zM673 99v-98h-42v98h-214v37l184 285h72v-282h56v-40h-56zM627 390l-166 -251h170v251h-4z" />
    <glyph glyph-name="onehalf" unicode="&#xbd;" horiz-adv-x="831" 
d="M616 700h45l-459 -700h-46zM56 597l-8 42l126 61h38v-420h-42v375zM791 40v-40h-262v33l136 135q47 47 64.5 78t17.5 62q0 35 -24.5 58t-61.5 23q-39 0 -65.5 -26t-28.5 -67l-41 4q3 56 42 92.5t95 36.5t92 -32.5t36 -84.5q0 -41 -20.5 -78t-73.5 -90l-104 -104h198z" />
    <glyph glyph-name="threequarters" unicode="&#xbe;" horiz-adv-x="765" 
d="M636 700h45l-459 -700h-46zM173 271q-57 0 -98 34t-44 82l42 4q5 -36 32.5 -58.5t66.5 -22.5q44 0 71 28t27 72q0 43 -25 68t-69 25q-28 0 -50 -17v41l128 133h-204v40h258v-37l-108 -113q-11 -11 -14 -12v-4q6 2 13 2q52 0 83.5 -34.5t31.5 -89.5q0 -62 -39.5 -101.5
t-101.5 -39.5zM693 98v-98h-42v98h-214v37l184 285h72v-282h56v-40h-56zM647 389l-166 -251h170v251h-4z" />
    <glyph glyph-name="questiondown" unicode="&#xbf;" horiz-adv-x="498" 
d="M246 460h60v-82h-60v82zM249 257v9h54v-14q0 -42 -17.5 -77.5t-43 -61.5t-50.5 -51.5t-42.5 -59.5t-17.5 -74q0 -52 37 -92t99 -40q74 0 114 53.5t40 121.5l53 -4q-3 -89 -56.5 -155.5t-150.5 -66.5q-90 0 -141.5 54.5t-51.5 127.5q0 48 18 87t43.5 66t51 51.5t43.5 56.5
t18 69z" />
    <glyph glyph-name="Agrave" unicode="&#xc0;" horiz-adv-x="667" 
d="M284 846l75 -106h-51l-88 106h64zM365 711l273 -711h-60l-88 233h-313l-88 -233h-59l273 711h62zM336 645h-4l-136 -361h276z" />
    <glyph glyph-name="Aacute" unicode="&#xc1;" horiz-adv-x="667" 
d="M446 846l-89 -106h-50l74 106h65zM365 711l273 -711h-60l-88 233h-313l-88 -233h-59l273 711h62zM336 645h-4l-136 -361h276z" />
    <glyph glyph-name="Acircumflex" unicode="&#xc2;" horiz-adv-x="667" 
d="M371 846l102 -106h-54l-86 83l-86 -83h-54l101 106h77zM365 711l273 -711h-60l-88 233h-313l-88 -233h-59l273 711h62zM336 645h-4l-136 -361h276z" />
    <glyph glyph-name="Atilde" unicode="&#xc3;" horiz-adv-x="667" 
d="M399 750q-29 0 -69.5 25t-60.5 25q-37 0 -48 -48h-35q7 42 28.5 63.5t52.5 21.5q28 0 69.5 -25t61.5 -25q36 0 47 48h35q-7 -42 -28.5 -63.5t-52.5 -21.5zM365 711l273 -711h-60l-88 233h-313l-88 -233h-59l273 711h62zM336 645h-4l-136 -361h276z" />
    <glyph glyph-name="Adieresis" unicode="&#xc4;" horiz-adv-x="667" 
d="M264 840v-94h-51v94h51zM453 840v-94h-50v94h50zM365 711l273 -711h-60l-88 233h-313l-88 -233h-59l273 711h62zM336 645h-4l-136 -361h276z" />
    <glyph glyph-name="Aring" unicode="&#xc5;" horiz-adv-x="667" 
d="M334 746q-42 0 -71 28t-29 68q0 41 28.5 69t71.5 28q44 0 72 -27.5t28 -69.5q0 -40 -28 -68t-72 -28zM334 777q29 0 47 19t18 46q0 28 -18 46.5t-47 18.5t-47 -18.5t-18 -46.5q0 -27 18 -46t47 -19zM365 711l273 -711h-60l-88 233h-313l-88 -233h-59l273 711h62zM336 645
h-4l-136 -361h276z" />
    <glyph glyph-name="AE" unicode="&#xc6;" horiz-adv-x="952" 
d="M881 52v-52h-444v232h-248l-128 -232h-61l385 700h496v-52h-389v-266h295v-52h-295v-278h389zM437 648h-19l-201 -364h220v364z" />
    <glyph glyph-name="Ccedilla" unicode="&#xc7;" horiz-adv-x="741" 
d="M65 350q0 165 94 265t239 100q100 0 177.5 -56t107.5 -151l-57 -10q-24 72 -84 118q-61 47 -144 47q-119 0 -198 -87.5t-79 -225.5t78.5 -225t197.5 -87q80 0 142 45t88 122l54 -14q-27 -92 -101.5 -147.5t-173.5 -58.5l-41 -185l-48 7l41 180q-129 15 -211 113t-82 250z
" />
    <glyph glyph-name="Egrave" unicode="&#xc8;" horiz-adv-x="623" 
d="M281 846l75 -106h-51l-88 106h64zM107 700h445v-52h-389v-266h295v-52h-295v-278h389v-52h-445v700z" />
    <glyph glyph-name="Eacute" unicode="&#xc9;" horiz-adv-x="623" 
d="M443 846l-89 -106h-50l74 106h65zM107 700h445v-52h-389v-266h295v-52h-295v-278h389v-52h-445v700z" />
    <glyph glyph-name="Ecircumflex" unicode="&#xca;" horiz-adv-x="623" 
d="M368 846l102 -106h-54l-86 83l-86 -83h-54l101 106h77zM107 700h445v-52h-389v-266h295v-52h-295v-278h389v-52h-445v700z" />
    <glyph glyph-name="Edieresis" unicode="&#xcb;" horiz-adv-x="623" 
d="M261 840v-94h-51v94h51zM450 840v-94h-50v94h50zM107 700h445v-52h-389v-266h295v-52h-295v-278h389v-52h-445v700z" />
    <glyph glyph-name="Igrave" unicode="&#xcc;" horiz-adv-x="270" 
d="M86 846l75 -106h-51l-88 106h64zM107 700h56v-700h-56v700z" />
    <glyph glyph-name="Iacute" unicode="&#xcd;" horiz-adv-x="270" 
d="M248 846l-89 -106h-50l74 106h65zM107 700h56v-700h-56v700z" />
    <glyph glyph-name="Icircumflex" unicode="&#xce;" horiz-adv-x="270" 
d="M172 846l102 -106h-54l-86 83l-86 -83h-54l101 106h77zM107 700h56v-700h-56v700z" />
    <glyph glyph-name="Idieresis" unicode="&#xcf;" horiz-adv-x="270" 
d="M65 840v-94h-51v94h51zM254 840v-94h-50v94h50zM107 700h56v-700h-56v700z" />
    <glyph glyph-name="Eth" unicode="&#xd0;" horiz-adv-x="726" 
d="M662 350q0 -114 -50 -194.5t-129.5 -118t-178.5 -37.5h-197v332h-107v48h107v320h204q154 0 252.5 -95t98.5 -255zM342 380v-48h-179v-280h150q127 0 209 80.5t82 217.5t-82.5 217.5t-209.5 80.5h-149v-268h179z" />
    <glyph glyph-name="Ntilde" unicode="&#xd1;" horiz-adv-x="785" 
d="M458 750q-29 0 -69.5 25t-60.5 25q-38 0 -48 -48h-35q7 42 28.5 63.5t52.5 21.5q28 0 69.5 -25t61.5 -25q37 0 47 48h35q-7 -42 -28.5 -63.5t-52.5 -21.5zM678 700v-711h-61l-454 634v-623h-56v711h61l454 -634v623h56z" />
    <glyph glyph-name="Ograve" unicode="&#xd2;" horiz-adv-x="809" 
d="M356 846l75 -106h-51l-88 106h64zM745 350q0 -160 -98.5 -262.5t-241.5 -102.5t-241.5 102.5t-98.5 262.5t98.5 262.5t241.5 102.5t241.5 -102.5t98.5 -262.5zM688 350q0 139 -82 226t-201 87q-118 0 -201 -87.5t-83 -225.5t83 -225t201 -87q119 0 201 87t82 225z" />
    <glyph glyph-name="Oacute" unicode="&#xd3;" horiz-adv-x="809" 
d="M518 846l-89 -106h-50l74 106h65zM745 350q0 -160 -98.5 -262.5t-241.5 -102.5t-241.5 102.5t-98.5 262.5t98.5 262.5t241.5 102.5t241.5 -102.5t98.5 -262.5zM688 350q0 139 -82 226t-201 87q-118 0 -201 -87.5t-83 -225.5t83 -225t201 -87q119 0 201 87t82 225z" />
    <glyph glyph-name="Ocircumflex" unicode="&#xd4;" horiz-adv-x="809" 
d="M442 846l102 -106h-54l-86 83l-86 -83h-54l101 106h77zM745 350q0 -160 -98.5 -262.5t-241.5 -102.5t-241.5 102.5t-98.5 262.5t98.5 262.5t241.5 102.5t241.5 -102.5t98.5 -262.5zM688 350q0 139 -82 226t-201 87q-118 0 -201 -87.5t-83 -225.5t83 -225t201 -87
q119 0 201 87t82 225z" />
    <glyph glyph-name="Otilde" unicode="&#xd5;" horiz-adv-x="809" 
d="M470 750q-29 0 -69.5 25t-60.5 25q-38 0 -48 -48h-35q7 42 28.5 63.5t52.5 21.5q28 0 69.5 -25t61.5 -25q37 0 47 48h35q-7 -42 -28.5 -63.5t-52.5 -21.5zM745 350q0 -160 -98.5 -262.5t-241.5 -102.5t-241.5 102.5t-98.5 262.5t98.5 262.5t241.5 102.5t241.5 -102.5
t98.5 -262.5zM688 350q0 139 -82 226t-201 87q-118 0 -201 -87.5t-83 -225.5t83 -225t201 -87q119 0 201 87t82 225z" />
    <glyph glyph-name="Odieresis" unicode="&#xd6;" horiz-adv-x="809" 
d="M335 840v-94h-51v94h51zM524 840v-94h-50v94h50zM745 350q0 -160 -98.5 -262.5t-241.5 -102.5t-241.5 102.5t-98.5 262.5t98.5 262.5t241.5 102.5t241.5 -102.5t98.5 -262.5zM688 350q0 139 -82 226t-201 87q-118 0 -201 -87.5t-83 -225.5t83 -225t201 -87q119 0 201 87
t82 225z" />
    <glyph glyph-name="multiply" unicode="&#xd7;" horiz-adv-x="600" 
d="M270 330l-168 167l31 31l168 -167l167 167l31 -32l-167 -167l167 -167l-31 -31l-167 167l-168 -167l-31 31z" />
    <glyph glyph-name="Oslash" unicode="&#xd8;" horiz-adv-x="809" 
d="M191 61l-63 -76h-63l91 110q-91 102 -91 255q0 160 98.5 262.5t241.5 102.5q122 0 214 -76l63 76h63l-91 -109q91 -104 91 -256q0 -160 -98.5 -262.5t-241.5 -102.5q-122 0 -214 76zM121 350q0 -125 73 -214l390 461q-75 66 -179 66q-118 0 -201 -87.5t-83 -225.5z
M688 350q0 127 -72 214l-390 -460q79 -66 179 -66q119 0 201 87t82 225z" />
    <glyph glyph-name="Ugrave" unicode="&#xd9;" horiz-adv-x="730" 
d="M316 846l75 -106h-51l-88 106h64zM365 -15q-125 0 -198 74t-73 220v421h55v-412q0 -125 58 -187.5t158 -62.5t158 62.5t58 187.5v412h55v-421q0 -146 -73 -220t-198 -74z" />
    <glyph glyph-name="Uacute" unicode="&#xda;" horiz-adv-x="730" 
d="M479 846l-89 -106h-50l74 106h65zM365 -15q-125 0 -198 74t-73 220v421h55v-412q0 -125 58 -187.5t158 -62.5t158 62.5t58 187.5v412h55v-421q0 -146 -73 -220t-198 -74z" />
    <glyph glyph-name="Ucircumflex" unicode="&#xdb;" horiz-adv-x="730" 
d="M403 846l102 -106h-54l-86 83l-86 -83h-54l101 106h77zM365 -15q-125 0 -198 74t-73 220v421h55v-412q0 -125 58 -187.5t158 -62.5t158 62.5t58 187.5v412h55v-421q0 -146 -73 -220t-198 -74z" />
    <glyph glyph-name="Udieresis" unicode="&#xdc;" horiz-adv-x="730" 
d="M296 840v-94h-51v94h51zM485 840v-94h-50v94h50zM365 -15q-125 0 -198 74t-73 220v421h55v-412q0 -125 58 -187.5t158 -62.5t158 62.5t58 187.5v412h55v-421q0 -146 -73 -220t-198 -74z" />
    <glyph glyph-name="Yacute" unicode="&#xdd;" horiz-adv-x="607" 
d="M420 846l-89 -106h-50l74 106h65zM331 304v-304h-55v304l-245 396h66l207 -339h4l206 339h62z" />
    <glyph glyph-name="Thorn" unicode="&#xde;" horiz-adv-x="612" 
d="M107 700h56v-143h183q99 0 161.5 -59t62.5 -147q0 -85 -61 -145.5t-159 -60.5h-187v-145h-56v700zM338 505h-175v-309h179q80 0 125.5 46.5t45.5 108.5t-45.5 108t-129.5 46z" />
    <glyph glyph-name="germandbls" unicode="&#xdf;" horiz-adv-x="538" 
d="M270 -12q-28 0 -58 5v48q30 -5 53 -5q77 0 125 46.5t48 120.5q0 72 -47 116t-126 44h-25v46h4q72 0 111.5 33.5t39.5 93.5q0 58 -35.5 94.5t-91.5 36.5q-60 0 -95 -41t-35 -111v-515h-54v509q0 95 48.5 150.5t132.5 55.5q81 0 131.5 -49t50.5 -127q0 -55 -26.5 -93.5
t-74.5 -52.5v-3q68 -13 107 -63.5t39 -125.5q0 -94 -62 -153.5t-160 -59.5z" />
    <glyph glyph-name="agrave" unicode="&#xe0;" horiz-adv-x="512" 
d="M130 700h65l89 -144h-51zM438 311v-311h-51v64h-2q-19 -36 -60.5 -57t-94.5 -21q-71 0 -116 39.5t-45 100.5q0 66 51.5 107t137.5 41q77 0 126 -27v61q0 58 -31 91t-88 33q-94 0 -123 -85l-52 7q16 58 63.5 90.5t115.5 32.5q79 0 124 -44.5t45 -121.5zM123 130
q0 -43 33 -71.5t82 -28.5q59 0 103 36.5t44 80.5v55q-46 30 -122 30q-66 0 -103 -28t-37 -74z" />
    <glyph glyph-name="aacute" unicode="&#xe1;" horiz-adv-x="512" 
d="M388 700l-109 -144h-51l95 144h65zM438 311v-311h-51v64h-2q-19 -36 -60.5 -57t-94.5 -21q-71 0 -116 39.5t-45 100.5q0 66 51.5 107t137.5 41q77 0 126 -27v61q0 58 -31 91t-88 33q-94 0 -123 -85l-52 7q16 58 63.5 90.5t115.5 32.5q79 0 124 -44.5t45 -121.5zM123 130
q0 -43 33 -71.5t82 -28.5q59 0 103 36.5t44 80.5v55q-46 30 -122 30q-66 0 -103 -28t-37 -74z" />
    <glyph glyph-name="acircumflex" unicode="&#xe2;" horiz-adv-x="512" 
d="M289 700l111 -144h-53l-91 115l-91 -115h-52l110 144h66zM438 311v-311h-51v64h-2q-19 -36 -60.5 -57t-94.5 -21q-71 0 -116 39.5t-45 100.5q0 66 51.5 107t137.5 41q77 0 126 -27v61q0 58 -31 91t-88 33q-94 0 -123 -85l-52 7q16 58 63.5 90.5t115.5 32.5
q79 0 124 -44.5t45 -121.5zM123 130q0 -43 33 -71.5t82 -28.5q59 0 103 36.5t44 80.5v55q-46 30 -122 30q-66 0 -103 -28t-37 -74z" />
    <glyph glyph-name="atilde" unicode="&#xe3;" horiz-adv-x="512" 
d="M322 576q-30 0 -68.5 31.5t-59.5 31.5q-41 0 -49 -62h-40q9 104 83 104q30 0 69 -31.5t59 -31.5q41 0 49 62h40q-9 -104 -83 -104zM438 311v-311h-51v64h-2q-19 -36 -60.5 -57t-94.5 -21q-71 0 -116 39.5t-45 100.5q0 66 51.5 107t137.5 41q77 0 126 -27v61q0 58 -31 91
t-88 33q-94 0 -123 -85l-52 7q16 58 63.5 90.5t115.5 32.5q79 0 124 -44.5t45 -121.5zM123 130q0 -43 33 -71.5t82 -28.5q59 0 103 36.5t44 80.5v55q-46 30 -122 30q-66 0 -103 -28t-37 -74z" />
    <glyph glyph-name="adieresis" unicode="&#xe4;" horiz-adv-x="512" 
d="M187 677v-98h-51v98h51zM376 677v-98h-50v98h50zM438 311v-311h-51v64h-2q-19 -36 -60.5 -57t-94.5 -21q-71 0 -116 39.5t-45 100.5q0 66 51.5 107t137.5 41q77 0 126 -27v61q0 58 -31 91t-88 33q-94 0 -123 -85l-52 7q16 58 63.5 90.5t115.5 32.5q79 0 124 -44.5
t45 -121.5zM123 130q0 -43 33 -71.5t82 -28.5q59 0 103 36.5t44 80.5v55q-46 30 -122 30q-66 0 -103 -28t-37 -74z" />
    <glyph glyph-name="aring" unicode="&#xe5;" horiz-adv-x="512" 
d="M267 538q-42 0 -71 28t-29 68q0 41 28.5 69t71.5 28q44 0 72 -27.5t28 -69.5q0 -40 -28 -68t-72 -28zM267 569q29 0 47 19t18 46q0 28 -18 46.5t-47 18.5t-47 -18.5t-18 -46.5q0 -27 18 -46t47 -19zM438 311v-311h-51v64h-2q-19 -36 -60.5 -57t-94.5 -21q-71 0 -116 39.5
t-45 100.5q0 66 51.5 107t137.5 41q77 0 126 -27v61q0 58 -31 91t-88 33q-94 0 -123 -85l-52 7q16 58 63.5 90.5t115.5 32.5q79 0 124 -44.5t45 -121.5zM123 130q0 -43 33 -71.5t82 -28.5q59 0 103 36.5t44 80.5v55q-46 30 -122 30q-66 0 -103 -28t-37 -74z" />
    <glyph glyph-name="ae" unicode="&#xe6;" horiz-adv-x="863" 
d="M237 -14q-75 0 -121 40q-47 41 -47 101q0 66 52 106q53 41 137 41q77 0 126 -27v61q0 58 -31 91t-88 33q-94 0 -123 -85l-52 7q16 57 63 90t113 33q65 0 105.5 -31.5t50.5 -88.5q21 55 68 87.5t111 32.5q88 0 152 -61t64 -172v-23h-379q2 -82 49.5 -135.5t125.5 -53.5
q98 0 143 88l45 -9q-54 -125 -189 -125q-68 0 -119.5 34.5t-78.5 93.5q-14 -58 -61.5 -93t-115.5 -35zM602 433q-71 0 -113.5 -47t-49.5 -126h324q-6 88 -51.5 130.5t-109.5 42.5zM240 30q62 0 103.5 40t41.5 92v40q-46 30 -122 30q-66 0 -103 -28t-37 -74q0 -43 33 -71.5
t84 -28.5z" />
    <glyph glyph-name="ccedilla" unicode="&#xe7;" horiz-adv-x="507" 
d="M296 -13l-41 -187l-48 7l41 179q-92 7 -146 76t-54 169q0 107 59.5 177t156.5 70q156 0 201 -147l-51 -9q-39 108 -149 108q-77 0 -120 -56.5t-43 -142.5t43 -142t120 -56q109 0 149 108l50 -13q-44 -128 -168 -141z" />
    <glyph glyph-name="egrave" unicode="&#xe8;" horiz-adv-x="527" 
d="M142 700h65l89 -144h-51zM419 120l45 -14q-57 -121 -188 -121q-102 0 -165 70t-63 176q0 105 59 176t158 71q88 0 150.5 -61t65.5 -173v-23h-380q3 -84 50.5 -137t124.5 -53q99 0 143 89zM266 434q-71 0 -114 -47.5t-50 -126.5h324q-6 88 -51 131t-109 43z" />
    <glyph glyph-name="eacute" unicode="&#xe9;" horiz-adv-x="527" 
d="M399 700l-109 -144h-51l95 144h65zM419 120l45 -14q-57 -121 -188 -121q-102 0 -165 70t-63 176q0 105 59 176t158 71q88 0 150.5 -61t65.5 -173v-23h-380q3 -84 50.5 -137t124.5 -53q99 0 143 89zM266 434q-71 0 -114 -47.5t-50 -126.5h324q-6 88 -51 131t-109 43z" />
    <glyph glyph-name="ecircumflex" unicode="&#xea;" horiz-adv-x="527" 
d="M300 700l111 -144h-53l-91 115l-91 -115h-52l110 144h66zM419 120l45 -14q-57 -121 -188 -121q-102 0 -165 70t-63 176q0 105 59 176t158 71q88 0 150.5 -61t65.5 -173v-23h-380q3 -84 50.5 -137t124.5 -53q99 0 143 89zM266 434q-71 0 -114 -47.5t-50 -126.5h324
q-6 88 -51 131t-109 43z" />
    <glyph glyph-name="edieresis" unicode="&#xeb;" horiz-adv-x="527" 
d="M198 677v-98h-51v98h51zM387 677v-98h-50v98h50zM419 120l45 -14q-57 -121 -188 -121q-102 0 -165 70t-63 176q0 105 59 176t158 71q88 0 150.5 -61t65.5 -173v-23h-380q3 -84 50.5 -137t124.5 -53q99 0 143 89zM266 434q-71 0 -114 -47.5t-50 -126.5h324q-6 88 -51 131
t-109 43z" />
    <glyph glyph-name="igrave" unicode="&#xec;" horiz-adv-x="230" 
d="M-12 700h65l89 -144h-51zM142 463v-463h-53v463h53z" />
    <glyph glyph-name="iacute" unicode="&#xed;" horiz-adv-x="230" 
d="M256 700l-109 -144h-51l95 144h65zM142 463v-463h-53v463h53z" />
    <glyph glyph-name="icircumflex" unicode="&#xee;" horiz-adv-x="230" 
d="M146 700l111 -144h-53l-91 115l-91 -115h-52l110 144h66zM142 463v-463h-53v463h53z" />
    <glyph glyph-name="idieresis" unicode="&#xef;" horiz-adv-x="230" 
d="M44 677v-98h-51v98h51zM233 677v-98h-50v98h50zM142 463v-463h-53v463h53z" />
    <glyph glyph-name="eth" unicode="&#xf0;" horiz-adv-x="538" 
d="M274 -14q-99 0 -162.5 70t-63.5 175t62 175t160 70q88 0 137 -62q-36 79 -95 147l-145 -37v44l112 29q-54 52 -126 100l57 16q57 -35 124 -102l107 27v-45l-74 -19q132 -157 132 -331q0 -112 -61.5 -184.5t-163.5 -72.5zM276 34q78 0 124.5 56.5t46.5 140.5t-46.5 140.5
t-124.5 56.5t-126.5 -56.5t-48.5 -140.5q0 -83 48.5 -140t126.5 -57z" />
    <glyph glyph-name="ntilde" unicode="&#xf1;" horiz-adv-x="541" 
d="M341 576q-30 0 -68.5 31.5t-59.5 31.5q-41 0 -49 -62h-40q9 104 83 104q29 0 68 -31.5t60 -31.5q41 0 49 62h40q-9 -104 -83 -104zM463 294v-294h-53v280q0 71 -31 110.5t-89 39.5q-63 0 -105.5 -47t-42.5 -115v-268h-53v462h50v-79h4q20 44 61 69t95 25
q75 0 119.5 -49.5t44.5 -133.5z" />
    <glyph glyph-name="ograve" unicode="&#xf2;" horiz-adv-x="550" 
d="M146 700h65l89 -144h-51zM48 232q0 108 64 177t163 69q100 0 163.5 -69t63.5 -177t-64 -177.5t-163 -69.5t-163 70t-64 177zM102 232q0 -85 47.5 -142t125.5 -57q79 0 126.5 56.5t47.5 142.5q0 85 -47.5 141.5t-126.5 56.5q-78 0 -125.5 -56.5t-47.5 -141.5z" />
    <glyph glyph-name="oacute" unicode="&#xf3;" horiz-adv-x="550" 
d="M408 700l-109 -144h-51l95 144h65zM48 232q0 108 64 177t163 69q100 0 163.5 -69t63.5 -177t-64 -177.5t-163 -69.5t-163 70t-64 177zM102 232q0 -85 47.5 -142t125.5 -57q79 0 126.5 56.5t47.5 142.5q0 85 -47.5 141.5t-126.5 56.5q-78 0 -125.5 -56.5t-47.5 -141.5z
" />
    <glyph glyph-name="ocircumflex" unicode="&#xf4;" horiz-adv-x="550" 
d="M307 700l111 -144h-53l-91 115l-91 -115h-52l110 144h66zM48 232q0 108 64 177t163 69q100 0 163.5 -69t63.5 -177t-64 -177.5t-163 -69.5t-163 70t-64 177zM102 232q0 -85 47.5 -142t125.5 -57q79 0 126.5 56.5t47.5 142.5q0 85 -47.5 141.5t-126.5 56.5
q-78 0 -125.5 -56.5t-47.5 -141.5z" />
    <glyph glyph-name="otilde" unicode="&#xf5;" horiz-adv-x="550" 
d="M340 576q-30 0 -68.5 31.5t-59.5 31.5q-41 0 -49 -62h-40q9 104 83 104q29 0 68.5 -31.5t59.5 -31.5q41 0 49 62h40q-9 -104 -83 -104zM48 232q0 108 64 177t163 69q100 0 163.5 -69t63.5 -177t-64 -177.5t-163 -69.5t-163 70t-64 177zM102 232q0 -85 47.5 -142
t125.5 -57q79 0 126.5 56.5t47.5 142.5q0 85 -47.5 141.5t-126.5 56.5q-78 0 -125.5 -56.5t-47.5 -141.5z" />
    <glyph glyph-name="odieresis" unicode="&#xf6;" horiz-adv-x="550" 
d="M204 677v-98h-51v98h51zM393 677v-98h-50v98h50zM48 232q0 108 64 177t163 69q100 0 163.5 -69t63.5 -177t-64 -177.5t-163 -69.5t-163 70t-64 177zM102 232q0 -85 47.5 -142t125.5 -57q79 0 126.5 56.5t47.5 142.5q0 85 -47.5 141.5t-126.5 56.5q-78 0 -125.5 -56.5
t-47.5 -141.5z" />
    <glyph glyph-name="divide" unicode="&#xf7;" horiz-adv-x="600" 
d="M324 567v-66h-47v66h47zM489 351v-43h-378v43h378zM324 157v-66h-47v66h47z" />
    <glyph glyph-name="oslash" unicode="&#xf8;" horiz-adv-x="550" 
d="M139 30l-35 -44h-56l59 73q-59 70 -59 173q0 108 64 177t163 69q79 0 137 -45l34 44h57l-60 -74q59 -69 59 -171q0 -108 -64 -177.5t-163 -69.5q-79 0 -136 45zM102 232q0 -80 40 -133l240 294q-45 37 -107 37q-78 0 -125.5 -56.5t-47.5 -141.5zM449 232q0 80 -41 133
l-240 -294q44 -38 107 -38q79 0 126.5 56.5t47.5 142.5z" />
    <glyph glyph-name="ugrave" unicode="&#xf9;" horiz-adv-x="541" 
d="M135 700h65l89 -144h-51zM452 462v-462h-50v79h-3q-19 -43 -61 -68.5t-96 -25.5q-75 0 -119 49.5t-44 133.5v294h52v-280q0 -70 31.5 -109.5t88.5 -39.5q64 0 106.5 46t42.5 115v268h52z" />
    <glyph glyph-name="uacute" unicode="&#xfa;" horiz-adv-x="541" 
d="M397 700l-109 -144h-51l95 144h65zM452 462v-462h-50v79h-3q-19 -43 -61 -68.5t-96 -25.5q-75 0 -119 49.5t-44 133.5v294h52v-280q0 -70 31.5 -109.5t88.5 -39.5q64 0 106.5 46t42.5 115v268h52z" />
    <glyph glyph-name="ucircumflex" unicode="&#xfb;" horiz-adv-x="541" 
d="M296 700l111 -144h-53l-91 115l-91 -115h-52l110 144h66zM452 462v-462h-50v79h-3q-19 -43 -61 -68.5t-96 -25.5q-75 0 -119 49.5t-44 133.5v294h52v-280q0 -70 31.5 -109.5t88.5 -39.5q64 0 106.5 46t42.5 115v268h52z" />
    <glyph glyph-name="udieresis" unicode="&#xfc;" horiz-adv-x="541" 
d="M194 677v-98h-51v98h51zM383 677v-98h-50v98h50zM452 462v-462h-50v79h-3q-19 -43 -61 -68.5t-96 -25.5q-75 0 -119 49.5t-44 133.5v294h52v-280q0 -70 31.5 -109.5t88.5 -39.5q64 0 106.5 46t42.5 115v268h52z" />
    <glyph glyph-name="yacute" unicode="&#xfd;" horiz-adv-x="488" 
d="M378 700l-109 -144h-51l95 144h65zM462 463l-269 -655h-54l85 204l-200 451h59l170 -387l155 387h54z" />
    <glyph glyph-name="thorn" unicode="&#xfe;" horiz-adv-x="583" 
d="M535 232q0 -108 -62 -177.5t-159 -69.5q-56 0 -101.5 24.5t-70.5 67.5v-277h-53v900h53v-326q49 103 172 103q98 0 159.5 -68.5t61.5 -176.5zM482 232q0 86 -48.5 141.5t-124.5 55.5q-77 0 -123 -55q-45 -55 -45 -142q0 -88 46 -143.5t122 -55.5q78 0 125.5 57.5
t47.5 141.5z" />
    <glyph glyph-name="ydieresis" unicode="&#xff;" horiz-adv-x="488" 
d="M175 677v-98h-51v98h51zM364 677v-98h-50v98h50zM462 463l-269 -655h-54l85 204l-200 451h59l170 -387l155 387h54z" />
    <glyph glyph-name="Amacron" unicode="&#x100;" horiz-adv-x="667" 
d="M495 813v-40h-324v40h324zM365 711l273 -711h-60l-88 233h-313l-88 -233h-59l273 711h62zM336 645h-4l-136 -361h276z" />
    <glyph glyph-name="amacron" unicode="&#x101;" horiz-adv-x="512" 
d="M417 648v-40h-324v40h324zM438 311v-311h-51v64h-2q-19 -36 -60.5 -57t-94.5 -21q-71 0 -116 39.5t-45 100.5q0 66 51.5 107t137.5 41q77 0 126 -27v61q0 58 -31 91t-88 33q-94 0 -123 -85l-52 7q16 58 63.5 90.5t115.5 32.5q79 0 124 -44.5t45 -121.5zM123 130
q0 -43 33 -71.5t82 -28.5q59 0 103 36.5t44 80.5v55q-46 30 -122 30q-66 0 -103 -28t-37 -74z" />
    <glyph glyph-name="Abreve" unicode="&#x102;" horiz-adv-x="667" 
d="M333 736q-48 0 -88.5 26t-55.5 84h44q11 -36 40 -55t60 -19q32 0 60.5 18.5t39.5 55.5h44q-14 -58 -55 -84t-89 -26zM365 711l273 -711h-60l-88 233h-313l-88 -233h-59l273 711h62zM336 645h-4l-136 -361h276z" />
    <glyph glyph-name="abreve" unicode="&#x103;" horiz-adv-x="512" 
d="M256 563q-54 0 -93 33t-51 97h44q11 -44 38 -68t62 -24t63 24t37 68h44q-12 -64 -51 -97t-93 -33zM438 311v-311h-51v64h-2q-19 -36 -60.5 -57t-94.5 -21q-71 0 -116 39.5t-45 100.5q0 66 51.5 107t137.5 41q77 0 126 -27v61q0 58 -31 91t-88 33q-94 0 -123 -85l-52 7
q16 58 63.5 90.5t115.5 32.5q79 0 124 -44.5t45 -121.5zM123 130q0 -43 33 -71.5t82 -28.5q59 0 103 36.5t44 80.5v55q-46 30 -122 30q-66 0 -103 -28t-37 -74z" />
    <glyph glyph-name="Aogonek" unicode="&#x104;" horiz-adv-x="667" 
d="M594 -200q-45 0 -74.5 20.5t-29.5 58.5q0 69 87 124l-87 230h-313l-88 -233h-59l273 711h62l273 -711h-5q-95 -55 -95 -113q0 -25 18 -38t45 -13q20 0 32 3v-36q-17 -3 -39 -3zM336 645h-4l-136 -361h276z" />
    <glyph glyph-name="aogonek" unicode="&#x105;" horiz-adv-x="512" 
d="M380 -200q-45 0 -74.5 20.5t-29.5 58.5q0 73 111 138v47h-2q-19 -36 -60.5 -57t-94.5 -21q-71 0 -116 39.5t-45 100.5q0 66 51.5 107t137.5 41q77 0 126 -27v61q0 58 -31 91t-88 33q-94 0 -123 -85l-52 7q16 58 63.5 90.5t115.5 32.5q79 0 124 -44.5t45 -121.5v-311h-19
q-95 -55 -95 -113q0 -25 18 -38t45 -13q20 0 32 3v-36q-17 -3 -39 -3zM123 130q0 -43 33 -71.5t82 -28.5q59 0 103 36.5t44 80.5v55q-46 30 -122 30q-66 0 -103 -28t-37 -74z" />
    <glyph glyph-name="Cacute" unicode="&#x106;" horiz-adv-x="744" 
d="M498 846l-89 -106h-50l74 106h65zM65 350q0 165 94 265t239 100q100 0 177.5 -56t107.5 -151l-57 -10q-24 72 -84 118q-61 47 -144 47q-119 0 -198 -87.5t-79 -225.5t78.5 -225t197.5 -87q80 0 142 45t88 122l54 -14q-27 -93 -104.5 -149.5t-177.5 -56.5
q-144 0 -239 100.5t-95 264.5z" />
    <glyph glyph-name="cacute" unicode="&#x107;" horiz-adv-x="507" 
d="M399 700l-109 -144h-51l95 144h65zM264 478q156 0 201 -147l-51 -9q-39 108 -149 108q-77 0 -120 -56.5t-43 -142.5t43 -142t120 -56q109 0 149 108l50 -13q-48 -143 -198 -143q-99 0 -158.5 70.5t-59.5 175.5q0 107 59.5 177t156.5 70z" />
    <glyph glyph-name="Ccircumflex" unicode="&#x108;" horiz-adv-x="741" 
d="M423 846l102 -106h-54l-86 83l-86 -83h-54l101 106h77zM65 350q0 165 94 265t239 100q100 0 177.5 -56t107.5 -151l-57 -10q-24 72 -84 118q-61 47 -144 47q-119 0 -198 -87.5t-79 -225.5t78.5 -225t197.5 -87q80 0 142 45t88 122l54 -14q-27 -93 -104.5 -149.5
t-177.5 -56.5q-144 0 -239 100.5t-95 264.5z" />
    <glyph glyph-name="ccircumflex" unicode="&#x109;" horiz-adv-x="507" 
d="M300 700l111 -144h-53l-91 115l-91 -115h-52l110 144h66zM264 478q156 0 201 -147l-51 -9q-39 108 -149 108q-77 0 -120 -56.5t-43 -142.5t43 -142t120 -56q109 0 149 108l50 -13q-48 -143 -198 -143q-99 0 -158.5 70.5t-59.5 175.5q0 107 59.5 177t156.5 70z" />
    <glyph glyph-name="Cdotaccent" unicode="&#x10a;" horiz-adv-x="741" 
d="M411 824v-61h-52v61h52zM65 350q0 165 94 265t239 100q100 0 177.5 -56t107.5 -151l-57 -10q-24 72 -84 118q-61 47 -144 47q-119 0 -198 -87.5t-79 -225.5t78.5 -225t197.5 -87q80 0 142 45t88 122l54 -14q-27 -93 -104.5 -149.5t-177.5 -56.5q-144 0 -239 100.5
t-95 264.5z" />
    <glyph glyph-name="cdotaccent" unicode="&#x10b;" horiz-adv-x="507" 
d="M293 662v-67h-52v67h52zM264 478q156 0 201 -147l-51 -9q-39 108 -149 108q-77 0 -120 -56.5t-43 -142.5t43 -142t120 -56q109 0 149 108l50 -13q-48 -143 -198 -143q-99 0 -158.5 70.5t-59.5 175.5q0 107 59.5 177t156.5 70z" />
    <glyph glyph-name="Ccaron" unicode="&#x10c;" horiz-adv-x="741" 
d="M385 763l86 83h54l-102 -106h-77l-101 106h54zM65 350q0 165 94 265t239 100q100 0 177.5 -56t107.5 -151l-57 -10q-24 72 -84 118q-61 47 -144 47q-119 0 -198 -87.5t-79 -225.5t78.5 -225t197.5 -87q80 0 142 45t88 122l54 -14q-27 -93 -104.5 -149.5t-177.5 -56.5
q-144 0 -239 100.5t-95 264.5z" />
    <glyph glyph-name="ccaron" unicode="&#x10d;" horiz-adv-x="507" 
d="M267 585l91 115h53l-111 -144h-66l-110 144h52zM264 478q156 0 201 -147l-51 -9q-39 108 -149 108q-77 0 -120 -56.5t-43 -142.5t43 -142t120 -56q109 0 149 108l50 -13q-48 -143 -198 -143q-99 0 -158.5 70.5t-59.5 175.5q0 107 59.5 177t156.5 70z" />
    <glyph glyph-name="Dcaron" unicode="&#x10e;" horiz-adv-x="705" 
d="M319 763l86 83h54l-102 -106h-77l-101 106h54zM662 350q0 -114 -50 -194.5t-129.5 -118t-178.5 -37.5h-197v700h204q154 0 252.5 -95t98.5 -255zM604 350q0 137 -82.5 217.5t-209.5 80.5h-149v-596h150q127 0 209 80.5t82 217.5z" />
    <glyph glyph-name="dcaron" unicode="&#x10f;" horiz-adv-x="650" 
d="M671 700l-56 -205h-42l46 205h52zM48 231q0 108 62 177t159 69q56 0 102 -24t71 -67v314h53v-700h-50v90h-1q-52 -105 -175 -105q-97 0 -159 69t-62 177zM102 231q0 -86 48.5 -142t124.5 -56t122 55.5t46 142.5q0 89 -45.5 144t-122.5 55q-78 0 -125.5 -57.5
t-47.5 -141.5z" />
    <glyph glyph-name="Dcroat" unicode="&#x110;" horiz-adv-x="726" 
d="M662 350q0 -114 -50 -194.5t-129.5 -118t-178.5 -37.5h-197v332h-107v48h107v320h204q154 0 252.5 -95t98.5 -255zM342 380v-48h-179v-280h150q127 0 209 80.5t82 217.5t-82.5 217.5t-209.5 80.5h-149v-268h179z" />
    <glyph glyph-name="dslash" unicode="&#x111;" horiz-adv-x="584" 
d="M48 231q0 108 62 177t159 69q56 0 102 -24t71 -67v172h-165v44h165v98h53v-98h62v-44h-62v-558h-50v90h-1q-52 -105 -175 -105q-97 0 -159 69t-62 177zM102 231q0 -86 48.5 -142t124.5 -56t122 55.5t46 142.5q0 89 -45.5 144t-122.5 55q-78 0 -125.5 -57.5t-47.5 -141.5z
" />
    <glyph glyph-name="Emacron" unicode="&#x112;" horiz-adv-x="623" 
d="M492 813v-40h-324v40h324zM107 700h445v-52h-389v-266h295v-52h-295v-278h389v-52h-445v700z" />
    <glyph glyph-name="emacron" unicode="&#x113;" horiz-adv-x="527" 
d="M429 648v-40h-324v40h324zM419 120l45 -14q-57 -121 -188 -121q-102 0 -165 70t-63 176q0 105 59 176t158 71q88 0 150.5 -61t65.5 -173v-23h-380q3 -84 50.5 -137t124.5 -53q99 0 143 89zM266 434q-71 0 -114 -47.5t-50 -126.5h324q-6 88 -51 131t-109 43z" />
    <glyph glyph-name="Ebreve" unicode="&#x114;" horiz-adv-x="623" 
d="M330 736q-48 0 -88.5 26t-55.5 84h44q11 -36 40 -55t60 -19q32 0 60.5 18.5t39.5 55.5h44q-14 -58 -55 -84t-89 -26zM107 700h445v-52h-389v-266h295v-52h-295v-278h389v-52h-445v700z" />
    <glyph glyph-name="ebreve" unicode="&#x115;" horiz-adv-x="527" 
d="M267 563q-54 0 -93 33t-51 97h44q11 -44 38 -68t62 -24t63 24t37 68h44q-12 -64 -51 -97t-93 -33zM419 120l45 -14q-57 -121 -188 -121q-102 0 -165 70t-63 176q0 105 59 176t158 71q88 0 150.5 -61t65.5 -173v-23h-380q3 -84 50.5 -137t124.5 -53q99 0 143 89zM266 434
q-71 0 -114 -47.5t-50 -126.5h324q-6 88 -51 131t-109 43z" />
    <glyph glyph-name="Edotaccent" unicode="&#x116;" horiz-adv-x="623" 
d="M356 824v-61h-52v61h52zM107 700h445v-52h-389v-266h295v-52h-295v-278h389v-52h-445v700z" />
    <glyph glyph-name="edotaccent" unicode="&#x117;" horiz-adv-x="527" 
d="M293 662v-67h-52v67h52zM419 120l45 -14q-57 -121 -188 -121q-102 0 -165 70t-63 176q0 105 59 176t158 71q88 0 150.5 -61t65.5 -173v-23h-380q3 -84 50.5 -137t124.5 -53q99 0 143 89zM266 434q-71 0 -114 -47.5t-50 -126.5h324q-6 88 -51 131t-109 43z" />
    <glyph glyph-name="Eogonek" unicode="&#x118;" horiz-adv-x="597" 
d="M473 -200q-45 0 -74.5 20.5t-29.5 58.5q0 65 83 121h-345v700h445v-52h-389v-266h295v-52h-295v-278h389v-52h-40q-95 -55 -95 -113q0 -25 18 -38t45 -13q20 0 32 3v-36q-16 -3 -39 -3z" />
    <glyph glyph-name="eogonek" unicode="&#x119;" horiz-adv-x="527" 
d="M370 -200q-52 0 -79.5 21t-27.5 61q0 49 64 112v3q-20 -11 -57 -11q-99 0 -160.5 70.5t-61.5 175.5q0 106 59.5 175.5t157.5 69.5q88 0 150.5 -60.5t65.5 -172.5v-23h-380q3 -83 50.5 -136.5t123.5 -53.5q50 0 87.5 24.5t56.5 65.5l47 -10q-14 -35 -42 -67.5t-52.5 -51.5
t-43 -46t-18.5 -56q0 -54 66 -54q9 0 30 3v-36q-16 -3 -36 -3zM266 434q-71 0 -114 -47.5t-50 -126.5h324q-6 88 -51 131t-109 43z" />
    <glyph glyph-name="Ecaron" unicode="&#x11a;" horiz-adv-x="623" 
d="M330 763l86 83h54l-102 -106h-77l-101 106h54zM107 700h445v-52h-389v-266h295v-52h-295v-278h389v-52h-445v700z" />
    <glyph glyph-name="ecaron" unicode="&#x11b;" horiz-adv-x="527" 
d="M267 585l91 115h53l-111 -144h-66l-110 144h52zM419 120l45 -14q-57 -121 -188 -121q-102 0 -165 70t-63 176q0 105 59 176t158 71q88 0 150.5 -61t65.5 -173v-23h-380q3 -84 50.5 -137t124.5 -53q99 0 143 89zM266 434q-71 0 -114 -47.5t-50 -126.5h324q-6 88 -51 131
t-109 43z" />
    <glyph glyph-name="Gcircumflex" unicode="&#x11c;" horiz-adv-x="768" 
d="M420 846l102 -106h-54l-86 83l-86 -83h-54l101 106h77zM682 518l-53 -19q-25 73 -86.5 118.5t-143.5 45.5q-120 0 -199 -87.5t-79 -225.5t79 -225t201 -87q111 0 174 71t73 184h-242v52h302v-24q-8 -152 -89.5 -244t-217.5 -92q-146 0 -241 101.5t-95 263.5t95 263.5
t238 101.5q98 0 176 -54t108 -143z" />
    <glyph glyph-name="gcircumflex" unicode="&#x11d;" horiz-adv-x="565" 
d="M302 700l111 -144h-53l-91 115l-91 -115h-52l110 144h66zM50 247q0 102 59.5 166t154.5 64q53 0 95 -22t64 -60h2v67h51v-445q0 -103 -53 -160t-149 -57q-79 0 -133 36q-55 36 -65 90l53 12q10 -42 50 -67.5t95 -25.5q71 0 110 43t39 120v100q-18 -40 -63 -65.5
t-101 -25.5q-91 0 -150 65t-59 165zM104 247q0 -81 44.5 -132t115.5 -51q73 0 117.5 51.5t44.5 131.5t-44.5 131.5t-117.5 51.5q-71 0 -115.5 -51t-44.5 -132z" />
    <glyph glyph-name="Gbreve" unicode="&#x11e;" horiz-adv-x="768" 
d="M382 736q-48 0 -88.5 26t-55.5 84h44q11 -36 40 -55t60 -19q32 0 60.5 18.5t39.5 55.5h44q-14 -58 -55 -84t-89 -26zM682 518l-53 -19q-25 73 -86.5 118.5t-143.5 45.5q-120 0 -199 -87.5t-79 -225.5t79 -225t201 -87q111 0 174 71t73 184h-242v52h302v-24
q-8 -152 -89.5 -244t-217.5 -92q-146 0 -241 101.5t-95 263.5t95 263.5t238 101.5q98 0 176 -54t108 -143z" />
    <glyph glyph-name="gbreve" unicode="&#x11f;" horiz-adv-x="565" 
d="M269 563q-54 0 -93 33t-51 97h44q11 -44 38 -68t62 -24t63 24t37 68h44q-12 -64 -51 -97t-93 -33zM50 247q0 102 59.5 166t154.5 64q53 0 95 -22t64 -60h2v67h51v-445q0 -103 -53 -160t-149 -57q-79 0 -133 36q-55 36 -65 90l53 12q10 -42 50 -67.5t95 -25.5q71 0 110 43
t39 120v100q-18 -40 -63 -65.5t-101 -25.5q-91 0 -150 65t-59 165zM104 247q0 -81 44.5 -132t115.5 -51q73 0 117.5 51.5t44.5 131.5t-44.5 131.5t-117.5 51.5q-71 0 -115.5 -51t-44.5 -132z" />
    <glyph glyph-name="Gdotaccent" unicode="&#x120;" horiz-adv-x="768" 
d="M408 824v-61h-52v61h52zM682 518l-53 -19q-25 73 -86.5 118.5t-143.5 45.5q-120 0 -199 -87.5t-79 -225.5t79 -225t201 -87q111 0 174 71t73 184h-242v52h302v-24q-8 -152 -89.5 -244t-217.5 -92q-146 0 -241 101.5t-95 263.5t95 263.5t238 101.5q98 0 176 -54t108 -143z
" />
    <glyph glyph-name="gdotaccent" unicode="&#x121;" horiz-adv-x="565" 
d="M295 662v-67h-52v67h52zM50 247q0 102 59.5 166t154.5 64q53 0 95 -22t64 -60h2v67h51v-445q0 -103 -53 -160t-149 -57q-79 0 -133 36q-55 36 -65 90l53 12q10 -42 50 -67.5t95 -25.5q71 0 110 43t39 120v100q-18 -40 -63 -65.5t-101 -25.5q-91 0 -150 65t-59 165z
M104 247q0 -81 44.5 -132t115.5 -51q73 0 117.5 51.5t44.5 131.5t-44.5 131.5t-117.5 51.5q-71 0 -115.5 -51t-44.5 -132z" />
    <glyph glyph-name="Gcommaaccent" unicode="&#x122;" horiz-adv-x="768" 
d="M682 518l-53 -19q-25 73 -86.5 118.5t-143.5 45.5q-120 0 -199 -87.5t-79 -225.5t79 -225t201 -87q111 0 174 71t73 184h-242v52h302v-24q-8 -152 -89.5 -244t-217.5 -92q-146 0 -241 101.5t-95 263.5t95 263.5t238 101.5q98 0 176 -54t108 -143zM413 -62l-52 -138h-44
l45 138h51z" />
    <glyph glyph-name="gcommaaccent" unicode="&#x123;" horiz-adv-x="565" 
d="M243 562l51 138h45l-45 -138h-51zM50 247q0 102 59.5 166t154.5 64q53 0 95 -22t64 -60h2v67h51v-445q0 -103 -53 -160t-149 -57q-79 0 -133 36q-55 36 -65 90l53 12q10 -42 50 -67.5t95 -25.5q71 0 110 43t39 120v100q-18 -40 -63 -65.5t-101 -25.5q-91 0 -150 65
t-59 165zM104 247q0 -81 44.5 -132t115.5 -51q73 0 117.5 51.5t44.5 131.5t-44.5 131.5t-117.5 51.5q-71 0 -115.5 -51t-44.5 -132z" />
    <glyph glyph-name="Hcircumflex" unicode="&#x124;" horiz-adv-x="722" 
d="M409 846l102 -106h-54l-86 83l-86 -83h-54l101 106h77zM580 700h56v-700h-56v323h-417v-323h-56v700h56v-326h417v326z" />
    <glyph glyph-name="hcircumflex" unicode="&#x125;" horiz-adv-x="542" 
d="M152 846l102 -106h-54l-86 83l-86 -83h-54l101 106h77zM89 0v700h53v-318q19 44 61 69.5t96 25.5q75 0 119.5 -49.5t44.5 -133.5v-294h-53v280q0 71 -31 110.5t-89 39.5q-63 0 -105.5 -47t-42.5 -115v-268h-53z" />
    <glyph glyph-name="Hbar" unicode="&#x126;" horiz-adv-x="722" 
d="M704 558v-49h-68v-509h-56v323h-417v-323h-56v509h-68v49h68v142h56v-142h417v142h56v-142h68zM163 509v-135h417v135h-417z" />
    <glyph glyph-name="hbar" unicode="&#x127;" horiz-adv-x="542" 
d="M89 558h-68v44h68v98h53v-98h159v-44h-159v-176q19 44 61 69.5t96 25.5q75 0 119.5 -49.5t44.5 -133.5v-294h-53v280q0 71 -31 110.5t-89 39.5q-63 0 -105.5 -47t-42.5 -115v-268h-53v558z" />
    <glyph glyph-name="Itilde" unicode="&#x128;" horiz-adv-x="270" 
d="M200 750q-29 0 -69.5 25t-60.5 25q-38 0 -48 -48h-35q7 42 28.5 63.5t52.5 21.5q28 0 69.5 -25t61.5 -25q36 0 47 48h35q-7 -42 -28.5 -63.5t-52.5 -21.5zM107 700h56v-700h-56v700z" />
    <glyph glyph-name="itilde" unicode="&#x129;" horiz-adv-x="230" 
d="M180 576q-30 0 -68.5 31.5t-59.5 31.5q-41 0 -49 -62h-40q9 104 83 104q30 0 69 -31.5t59 -31.5q41 0 49 62h40q-9 -104 -83 -104zM142 463v-463h-53v463h53z" />
    <glyph glyph-name="Imacron" unicode="&#x12a;" horiz-adv-x="270" 
d="M296 813v-40h-324v40h324zM107 700h56v-700h-56v700z" />
    <glyph glyph-name="imacron" unicode="&#x12b;" horiz-adv-x="230" 
d="M275 648v-40h-324v40h324zM142 463v-463h-53v463h53z" />
    <glyph glyph-name="Ibreve" unicode="&#x12c;" horiz-adv-x="270" 
d="M134 736q-48 0 -88.5 26t-55.5 84h44q11 -36 40 -55t60 -19q32 0 60.5 18.5t39.5 55.5h44q-14 -58 -55 -84t-89 -26zM107 700h56v-700h-56v700z" />
    <glyph glyph-name="ibreve" unicode="&#x12d;" horiz-adv-x="230" 
d="M124 563q-54 0 -93 33t-51 97h44q11 -44 38 -68t62 -24t63 24t37 68h44q-12 -64 -51 -97t-93 -33zM142 463v-463h-53v463h53z" />
    <glyph glyph-name="Iogonek" unicode="&#x12e;" horiz-adv-x="270" 
d="M123 -200q-45 0 -74.5 20.5t-29.5 58.5q0 69 88 124v697h56v-700h-1q-95 -55 -95 -113q0 -25 18 -38t45 -13q20 0 32 3v-36q-16 -3 -39 -3z" />
    <glyph glyph-name="iogonek" unicode="&#x12f;" horiz-adv-x="230" 
d="M142 700v-96h-53v96h53zM142 463v-463h-1q-95 -55 -95 -113q0 -25 18 -38t45 -13q20 0 32 3v-36q-17 -3 -39 -3q-45 0 -74.5 20.5t-29.5 58.5q0 69 91 126v458h53z" />
    <glyph glyph-name="Idot" unicode="&#x130;" horiz-adv-x="270" 
d="M161 824v-61h-52v61h52zM107 700h56v-700h-56v700z" />
    <glyph glyph-name="dotlessi" unicode="&#x131;" horiz-adv-x="230" 
d="M142 463v-463h-53v463h53z" />
    <glyph glyph-name="IJ" unicode="&#x132;" horiz-adv-x="697" 
d="M107 700h56v-700h-56v700zM397 -10q-51 0 -91 23v54q40 -25 84 -25q158 0 158 194v412h-199v52h255v-471q0 -122 -55 -180.5t-152 -58.5z" />
    <glyph glyph-name="ij" unicode="&#x133;" horiz-adv-x="444" 
d="M142 700v-96h-53v96h53zM356 700v-96h-53v96h53zM142 463v-463h-53v463h53zM209 -192q-7 0 -20.5 2t-17.5 2v48q21 -3 29 -3q54 0 78.5 32.5t24.5 82.5v491h53v-495q0 -75 -37.5 -117.5t-109.5 -42.5z" />
    <glyph glyph-name="Jcircumflex" unicode="&#x134;" horiz-adv-x="428" 
d="M238 941l111 -144h-53l-91 115l-91 -115h-52l110 144h66zM127 -10q-51 0 -91 23v54q40 -25 84 -25q158 0 158 194v412h-199v52h255v-471q0 -122 -55 -180.5t-152 -58.5z" />
    <glyph glyph-name="jcircumflex" unicode="&#x135;" horiz-adv-x="230" 
d="M146 700l111 -144h-53l-91 115l-91 -115h-52l110 144h66zM-5 -192q-7 0 -20.5 2t-17.5 2v48q21 -3 29 -3q54 0 78.5 32.5t24.5 82.5v491h53v-495q0 -75 -37.5 -117.5t-109.5 -42.5z" />
    <glyph glyph-name="Kcommaaccent" unicode="&#x136;" horiz-adv-x="601" 
d="M163 338v-338h-56v700h56v-339l327 339h68l-335 -346l377 -354h-77zM323 -62l-52 -138h-44l45 138h51z" />
    <glyph glyph-name="kcommaaccent" unicode="&#x137;" horiz-adv-x="466" 
d="M142 232v-232h-53v700h53v-439l227 202h66l-241 -212l271 -251h-71zM286 -62l-52 -138h-44l45 138h51z" />
    <glyph glyph-name="Lacute" unicode="&#x139;" horiz-adv-x="523" 
d="M248 846l-89 -106h-50l74 106h65zM107 0v700h56v-648h349v-52h-405z" />
    <glyph glyph-name="lacute" unicode="&#x13a;" horiz-adv-x="230" 
d="M233 846l-89 -106h-50l74 106h65zM89 0v700h53v-700h-53z" />
    <glyph glyph-name="Lcommaaccent" unicode="&#x13b;" horiz-adv-x="523" 
d="M107 0v700h56v-648h349v-52h-405zM314 -62l-52 -138h-44l45 138h51z" />
    <glyph glyph-name="lcommaaccent" unicode="&#x13c;" horiz-adv-x="231" 
d="M89 0v700h53v-700h-53zM156 -62l-52 -138h-44l45 138h51z" />
    <glyph glyph-name="Lcaron" unicode="&#x13d;" horiz-adv-x="523" 
d="M107 0v700h56v-648h349v-52h-405zM358 700l-56 -205h-42l46 205h52z" />
    <glyph glyph-name="lcaron" unicode="&#x13e;" horiz-adv-x="303" 
d="M323 700l-56 -205h-42l46 205h52zM89 0v700h53v-700h-53z" />
    <glyph glyph-name="Ldot" unicode="&#x13f;" horiz-adv-x="523" 
d="M107 0v700h56v-648h349v-52h-405zM419 379v-67h-52v67h52z" />
    <glyph glyph-name="ldot" unicode="&#x140;" horiz-adv-x="332" 
d="M89 0v700h53v-700h-53zM309 307v-67h-52v67h52z" />
    <glyph glyph-name="Lslash" unicode="&#x141;" horiz-adv-x="523" 
d="M365 406v-49l-202 -58v-247h349v-52h-405v283l-89 -26v49l89 26v368h56v-352z" />
    <glyph glyph-name="lslash" unicode="&#x142;" horiz-adv-x="227" 
d="M85 345l-61 -49v52l61 49v303h53v-261l88 70v-52l-88 -70v-387h-53v345z" />
    <glyph glyph-name="Nacute" unicode="&#x143;" horiz-adv-x="785" 
d="M505 846l-89 -106h-50l74 106h65zM678 700v-711h-61l-454 634v-623h-56v711h61l454 -634v623h56z" />
    <glyph glyph-name="nacute" unicode="&#x144;" horiz-adv-x="541" 
d="M409 700l-109 -144h-51l95 144h65zM463 294v-294h-53v280q0 71 -31 110.5t-89 39.5q-63 0 -105.5 -47t-42.5 -115v-268h-53v462h50v-79h4q20 44 61 69t95 25q75 0 119.5 -49.5t44.5 -133.5z" />
    <glyph glyph-name="Ncommaaccent" unicode="&#x145;" horiz-adv-x="785" 
d="M678 700v-711h-61l-454 634v-623h-56v711h61l454 -634v623h56zM407 -62l-52 -138h-44l45 138h51z" />
    <glyph glyph-name="ncommaaccent" unicode="&#x146;" horiz-adv-x="541" 
d="M463 294v-294h-53v280q0 71 -31 110.5t-89 39.5q-63 0 -105.5 -47t-42.5 -115v-268h-53v462h50v-79h4q20 44 61 69t95 25q75 0 119.5 -49.5t44.5 -133.5zM300 -62l-52 -138h-44l45 138h51z" />
    <glyph glyph-name="Ncaron" unicode="&#x147;" horiz-adv-x="785" 
d="M392 763l86 83h54l-102 -106h-77l-101 106h54zM678 700v-711h-61l-454 634v-623h-56v711h61l454 -634v623h56z" />
    <glyph glyph-name="ncaron" unicode="&#x148;" horiz-adv-x="541" 
d="M274 585l91 115h53l-111 -144h-66l-110 144h52zM463 294v-294h-53v280q0 71 -31 110.5t-89 39.5q-63 0 -105.5 -47t-42.5 -115v-268h-53v462h50v-79h4q20 44 61 69t95 25q75 0 119.5 -49.5t44.5 -133.5z" />
    <glyph glyph-name="Eng" unicode="&#x14a;" horiz-adv-x="779" 
d="M465 -200q-51 0 -91 23v53q39 -24 84 -24q69 0 108.5 38t46.5 107l-450 618v-615h-56v711h54l455 -626v615h56v-661q0 -124 -56 -181.5t-151 -57.5z" />
    <glyph glyph-name="eng" unicode="&#x14b;" horiz-adv-x="541" 
d="M316 -192q-22 0 -38 4v48q21 -3 29 -3q54 0 78.5 32.5t24.5 82.5v308q0 71 -31 110.5t-89 39.5q-63 0 -105.5 -47t-42.5 -115v-268h-53v462h50v-79h4q21 43 62 68.5t94 25.5q75 0 119.5 -49.5t44.5 -133.5v-326q0 -75 -38 -117.5t-109 -42.5z" />
    <glyph glyph-name="Omacron" unicode="&#x14c;" horiz-adv-x="809" 
d="M566 813v-40h-324v40h324zM745 350q0 -160 -98.5 -262.5t-241.5 -102.5t-241.5 102.5t-98.5 262.5t98.5 262.5t241.5 102.5t241.5 -102.5t98.5 -262.5zM688 350q0 139 -82 226t-201 87q-118 0 -201 -87.5t-83 -225.5t83 -225t201 -87q119 0 201 87t82 225z" />
    <glyph glyph-name="omacron" unicode="&#x14d;" horiz-adv-x="550" 
d="M435 648v-40h-324v40h324zM48 232q0 108 64 177t163 69q100 0 163.5 -69t63.5 -177t-64 -177.5t-163 -69.5t-163 70t-64 177zM102 232q0 -85 47.5 -142t125.5 -57q79 0 126.5 56.5t47.5 142.5q0 85 -47.5 141.5t-126.5 56.5q-78 0 -125.5 -56.5t-47.5 -141.5z" />
    <glyph glyph-name="Obreve" unicode="&#x14e;" horiz-adv-x="809" 
d="M404 736q-48 0 -88.5 26t-55.5 84h44q11 -36 40 -55t60 -19q32 0 60.5 18.5t39.5 55.5h44q-14 -58 -55 -84t-89 -26zM745 350q0 -160 -98.5 -262.5t-241.5 -102.5t-241.5 102.5t-98.5 262.5t98.5 262.5t241.5 102.5t241.5 -102.5t98.5 -262.5zM688 350q0 139 -82 226
t-201 87q-118 0 -201 -87.5t-83 -225.5t83 -225t201 -87q119 0 201 87t82 225z" />
    <glyph glyph-name="obreve" unicode="&#x14f;" horiz-adv-x="550" 
d="M274 563q-54 0 -93 33t-51 97h44q11 -44 38 -68t62 -24t63 24t37 68h44q-12 -64 -51 -97t-93 -33zM48 232q0 108 64 177t163 69q100 0 163.5 -69t63.5 -177t-64 -177.5t-163 -69.5t-163 70t-64 177zM102 232q0 -85 47.5 -142t125.5 -57q79 0 126.5 56.5t47.5 142.5
q0 85 -47.5 141.5t-126.5 56.5q-78 0 -125.5 -56.5t-47.5 -141.5z" />
    <glyph glyph-name="Ohungarumlaut" unicode="&#x150;" horiz-adv-x="809" 
d="M452 846l-88 -106h-51l74 106h65zM604 846l-88 -106h-51l74 106h65zM745 350q0 -160 -98.5 -262.5t-241.5 -102.5t-241.5 102.5t-98.5 262.5t98.5 262.5t241.5 102.5t241.5 -102.5t98.5 -262.5zM688 350q0 139 -82 226t-201 87q-118 0 -201 -87.5t-83 -225.5t83 -225
t201 -87q119 0 201 87t82 225z" />
    <glyph glyph-name="ohungarumlaut" unicode="&#x151;" horiz-adv-x="550" 
d="M333 700l-109 -144h-51l95 144h65zM485 700l-109 -144h-51l95 144h65zM48 232q0 108 64 177t163 69q100 0 163.5 -69t63.5 -177t-64 -177.5t-163 -69.5t-163 70t-64 177zM102 232q0 -85 47.5 -142t125.5 -57q79 0 126.5 56.5t47.5 142.5q0 85 -47.5 141.5t-126.5 56.5
q-78 0 -125.5 -56.5t-47.5 -141.5z" />
    <glyph glyph-name="OE" unicode="&#x152;" horiz-adv-x="1080" 
d="M1009 52v-52h-593q-153 0 -252 95t-99 255q0 169 101.5 259.5t255.5 90.5h587v-52h-390v-266h296v-52h-296v-278h390zM415 52h149v596h-150q-127 0 -209.5 -80.5t-82.5 -217.5t82.5 -217.5t210.5 -80.5z" />
    <glyph glyph-name="oe" unicode="&#x153;" horiz-adv-x="928" 
d="M48 232q0 108 64 177t163 69q67 0 119 -32.5t80 -89.5q27 56 76.5 89t114.5 33q88 0 150.5 -61t65.5 -173v-23h-379v-6q4 -79 51 -132q46 -52 123 -52q99 0 143 89l45 -14q-57 -121 -188 -121q-68 0 -120.5 33.5t-80.5 89.5q-28 -58 -80.5 -90.5t-119.5 -32.5
q-99 0 -163 70t-64 177zM666 434q-71 0 -114 -47.5t-50 -126.5h324q-6 88 -51 131t-109 43zM102 232q0 -85 47.5 -142t125.5 -57q75 0 121.5 51t51.5 130v17v18q-5 79 -51.5 130t-121.5 51q-78 0 -125.5 -56.5t-47.5 -141.5z" />
    <glyph glyph-name="Racute" unicode="&#x154;" horiz-adv-x="631" 
d="M416 835l-89 -106h-50l74 106h65zM579 0h-66l-200 321h-150v-321h-56v700h235q92 0 149 -54t57 -137q0 -72 -46 -124t-127 -62zM491 508q0 56 -40 98t-118 42h-170v-280h172q78 0 117 42t39 98z" />
    <glyph glyph-name="racute" unicode="&#x155;" horiz-adv-x="327" 
d="M348 700l-109 -144h-51l95 144h65zM89 0v462h50v-79h4q17 42 54 67t82 25q26 0 39 -7v-51q-15 7 -40 7q-60 0 -98 -49.5t-38 -127.5v-247h-53z" />
    <glyph glyph-name="Rcommaaccent" unicode="&#x156;" horiz-adv-x="631" 
d="M579 0h-66l-200 321h-150v-321h-56v700h235q92 0 149 -54t57 -137q0 -72 -46 -124t-127 -62zM491 508q0 56 -40 98t-118 42h-170v-280h172q78 0 117 42t39 98zM344 -62l-52 -138h-44l45 138h51z" />
    <glyph glyph-name="rcommaaccent" unicode="&#x157;" horiz-adv-x="327" 
d="M89 0v462h50v-79h4q17 42 54 67t82 25q26 0 39 -7v-51q-15 7 -40 7q-60 0 -98 -49.5t-38 -127.5v-247h-53zM139 -62l-52 -138h-44l45 138h51z" />
    <glyph glyph-name="Rcaron" unicode="&#x158;" horiz-adv-x="631" 
d="M303 752l86 83h54l-102 -106h-77l-101 106h54zM579 0h-66l-200 321h-150v-321h-56v700h235q92 0 149 -54t57 -137q0 -72 -46 -124t-127 -62zM491 508q0 56 -40 98t-118 42h-170v-280h172q78 0 117 42t39 98z" />
    <glyph glyph-name="rcaron" unicode="&#x159;" horiz-adv-x="327" 
d="M214 585l91 115h53l-111 -144h-66l-110 144h52zM89 0v462h50v-79h4q17 42 54 67t82 25q26 0 39 -7v-51q-15 7 -40 7q-60 0 -98 -49.5t-38 -127.5v-247h-53z" />
    <glyph glyph-name="Sacute" unicode="&#x15a;" horiz-adv-x="597" 
d="M415 846l-89 -106h-50l74 106h65zM305 -15q-89 0 -159 47.5t-80 136.5l54 10q10 -73 63.5 -108.5t123.5 -35.5q77 0 125 41t48 107q0 44 -21.5 73.5t-55.5 44.5t-75.5 25.5t-83 23t-75.5 31t-55.5 56t-21.5 91.5q0 85 60.5 136t152.5 51q95 0 155.5 -52.5t71.5 -133.5
l-54 -9q-9 64 -55 104.5t-121 40.5q-66 0 -110 -35.5t-44 -97.5q0 -44 21.5 -73t55.5 -43.5t75.5 -25t83 -23t75.5 -31t55.5 -56t21.5 -91.5q0 -92 -65 -148t-166 -56z" />
    <glyph glyph-name="sacute" unicode="&#x15b;" horiz-adv-x="438" 
d="M351 700l-109 -144h-51l95 144h65zM228 -15q-68 0 -116.5 33t-59.5 88l49 11q11 -42 45.5 -66t83.5 -24q52 0 80 27.5t28 69.5q0 37 -28 58t-68 30t-80 19.5t-68 39.5t-28 79q0 58 42.5 93t111.5 35q65 0 111 -34q47 -35 54 -86l-50 -10q-4 38 -36.5 62.5t-77.5 24.5
q-50 0 -76 -23.5t-26 -58.5q0 -32 20 -52t50.5 -27.5t65.5 -17t65.5 -20.5t50.5 -38.5t20 -70.5q0 -66 -45 -104t-118 -38z" />
    <glyph glyph-name="Scircumflex" unicode="&#x15c;" horiz-adv-x="597" 
d="M340 846l102 -106h-54l-86 83l-86 -83h-54l101 106h77zM305 -15q-89 0 -159 47.5t-80 136.5l54 10q10 -73 63.5 -108.5t123.5 -35.5q77 0 125 41t48 107q0 44 -21.5 73.5t-55.5 44.5t-75.5 25.5t-83 23t-75.5 31t-55.5 56t-21.5 91.5q0 85 60.5 136t152.5 51
q95 0 155.5 -52.5t71.5 -133.5l-54 -9q-9 64 -55 104.5t-121 40.5q-66 0 -110 -35.5t-44 -97.5q0 -44 21.5 -73t55.5 -43.5t75.5 -25t83 -23t75.5 -31t55.5 -56t21.5 -91.5q0 -92 -65 -148t-166 -56z" />
    <glyph glyph-name="scircumflex" unicode="&#x15d;" horiz-adv-x="438" 
d="M250 700l111 -144h-53l-91 115l-91 -115h-52l110 144h66zM228 -15q-68 0 -116.5 33t-59.5 88l49 11q11 -42 45.5 -66t83.5 -24q52 0 80 27.5t28 69.5q0 37 -28 58t-68 30t-80 19.5t-68 39.5t-28 79q0 58 42.5 93t111.5 35q65 0 111 -34q47 -35 54 -86l-50 -10
q-4 38 -36.5 62.5t-77.5 24.5q-50 0 -76 -23.5t-26 -58.5q0 -32 20 -52t50.5 -27.5t65.5 -17t65.5 -20.5t50.5 -38.5t20 -70.5q0 -66 -45 -104t-118 -38z" />
    <glyph glyph-name="Scedilla" unicode="&#x15e;" horiz-adv-x="597" 
d="M328 -14l-41 -186l-48 7l41 179q-82 7 -143 53.5t-71 129.5l54 10q10 -73 63.5 -108.5t123.5 -35.5q77 0 125 41t48 107q0 44 -21.5 73.5t-55.5 44.5t-75.5 25.5t-83 23t-75.5 31t-55.5 56t-21.5 91.5q0 85 60.5 136t152.5 51q95 0 155.5 -52.5t71.5 -133.5l-54 -9
q-9 64 -55 104.5t-121 40.5q-66 0 -110 -35.5t-44 -97.5q0 -44 21.5 -73t55.5 -43.5t75.5 -25t83 -23t75.5 -31t55.5 -56t21.5 -91.5q0 -88 -58 -142.5t-150 -60.5z" />
    <glyph glyph-name="scedilla" unicode="&#x15f;" horiz-adv-x="438" 
d="M251 -14l-41 -186l-48 7l41 179q-59 6 -99.5 38.5t-51.5 81.5l49 11q11 -42 45.5 -66t83.5 -24q52 0 80 27.5t28 69.5q0 37 -28 58t-68 30t-80 19.5t-68 39.5t-28 79q0 58 42.5 93t111.5 35q65 0 111 -34q47 -35 54 -86l-50 -10q-4 38 -36.5 62.5t-77.5 24.5
q-50 0 -76 -23.5t-26 -58.5q0 -32 20 -52t50.5 -27.5t65.5 -17t65.5 -20.5t50.5 -38.5t20 -70.5q0 -60 -38.5 -97.5t-101.5 -43.5z" />
    <glyph glyph-name="Scaron" unicode="&#x160;" horiz-adv-x="597" 
d="M302 763l86 83h54l-102 -106h-77l-101 106h54zM305 -15q-89 0 -159 47.5t-80 136.5l54 10q10 -73 63.5 -108.5t123.5 -35.5q77 0 125 41t48 107q0 44 -21.5 73.5t-55.5 44.5t-75.5 25.5t-83 23t-75.5 31t-55.5 56t-21.5 91.5q0 85 60.5 136t152.5 51q95 0 155.5 -52.5
t71.5 -133.5l-54 -9q-9 64 -55 104.5t-121 40.5q-66 0 -110 -35.5t-44 -97.5q0 -44 21.5 -73t55.5 -43.5t75.5 -25t83 -23t75.5 -31t55.5 -56t21.5 -91.5q0 -92 -65 -148t-166 -56z" />
    <glyph glyph-name="scaron" unicode="&#x161;" horiz-adv-x="438" 
d="M217 585l91 115h53l-111 -144h-66l-110 144h52zM228 -15q-68 0 -116.5 33t-59.5 88l49 11q11 -42 45.5 -66t83.5 -24q52 0 80 27.5t28 69.5q0 37 -28 58t-68 30t-80 19.5t-68 39.5t-28 79q0 58 42.5 93t111.5 35q65 0 111 -34q47 -35 54 -86l-50 -10q-4 38 -36.5 62.5
t-77.5 24.5q-50 0 -76 -23.5t-26 -58.5q0 -32 20 -52t50.5 -27.5t65.5 -17t65.5 -20.5t50.5 -38.5t20 -70.5q0 -66 -45 -104t-118 -38z" />
    <glyph glyph-name="Tcaron" unicode="&#x164;" horiz-adv-x="571" 
d="M286 763l86 83h54l-102 -106h-77l-101 106h54zM33 700h505v-52h-224v-648h-56v648h-225v52z" />
    <glyph glyph-name="tcaron" unicode="&#x165;" horiz-adv-x="346" 
d="M322 724l-56 -205h-42l46 205h52zM254 -9q-138 0 -138 159v266h-99v47h99v139l53 11v-150h160v-47h-160v-256q0 -66 22.5 -94.5t71.5 -28.5q38 0 60 13l9 -43q-27 -16 -78 -16z" />
    <glyph glyph-name="Tbar" unicode="&#x166;" horiz-adv-x="571" 
d="M497 361v-48h-183v-313h-56v313h-184v48h184v287h-225v52h505v-52h-224v-287h183z" />
    <glyph glyph-name="tbar" unicode="&#x167;" horiz-adv-x="346" 
d="M254 -9q-138 0 -138 159v64h-89v43h89v159h-99v47h99v139l53 11v-150h160v-47h-160v-159h145v-43h-145v-54q0 -66 22.5 -94.5t71.5 -28.5q38 0 60 13l9 -43q-27 -16 -78 -16z" />
    <glyph glyph-name="Utilde" unicode="&#x168;" horiz-adv-x="730" 
d="M431 750q-29 0 -69.5 25t-60.5 25q-37 0 -48 -48h-35q7 42 28.5 63.5t52.5 21.5q28 0 69.5 -25t61.5 -25q36 0 47 48h35q-7 -42 -28.5 -63.5t-52.5 -21.5zM365 -15q-125 0 -198 74t-73 220v421h55v-412q0 -125 58 -187.5t158 -62.5t158 62.5t58 187.5v412h55v-421
q0 -146 -73 -220t-198 -74z" />
    <glyph glyph-name="utilde" unicode="&#x169;" horiz-adv-x="541" 
d="M330 576q-30 0 -68.5 31.5t-59.5 31.5q-41 0 -49 -62h-40q9 104 83 104q30 0 69 -31.5t59 -31.5q41 0 49 62h40q-9 -104 -83 -104zM452 462v-462h-50v79h-3q-19 -43 -61 -68.5t-96 -25.5q-75 0 -119 49.5t-44 133.5v294h52v-280q0 -70 31.5 -109.5t88.5 -39.5
q64 0 106.5 46t42.5 115v268h52z" />
    <glyph glyph-name="Umacron" unicode="&#x16a;" horiz-adv-x="730" 
d="M527 813v-40h-324v40h324zM365 -15q-125 0 -198 74t-73 220v421h55v-412q0 -125 58 -187.5t158 -62.5t158 62.5t58 187.5v412h55v-421q0 -146 -73 -220t-198 -74z" />
    <glyph glyph-name="umacron" unicode="&#x16b;" horiz-adv-x="541" 
d="M424 648v-40h-324v40h324zM452 462v-462h-50v79h-3q-19 -43 -61 -68.5t-96 -25.5q-75 0 -119 49.5t-44 133.5v294h52v-280q0 -70 31.5 -109.5t88.5 -39.5q64 0 106.5 46t42.5 115v268h52z" />
    <glyph glyph-name="Ubreve" unicode="&#x16c;" horiz-adv-x="730" 
d="M365 736q-48 0 -88.5 26t-55.5 84h44q11 -36 40 -55t60 -19q32 0 60.5 18.5t39.5 55.5h44q-14 -58 -55 -84t-89 -26zM365 -15q-125 0 -198 74t-73 220v421h55v-412q0 -125 58 -187.5t158 -62.5t158 62.5t58 187.5v412h55v-421q0 -146 -73 -220t-198 -74z" />
    <glyph glyph-name="ubreve" unicode="&#x16d;" horiz-adv-x="541" 
d="M263 563q-54 0 -93 33t-51 97h44q11 -44 38 -68t62 -24t63 24t37 68h44q-12 -64 -51 -97t-93 -33zM452 462v-462h-50v79h-3q-19 -43 -61 -68.5t-96 -25.5q-75 0 -119 49.5t-44 133.5v294h52v-280q0 -70 31.5 -109.5t88.5 -39.5q64 0 106.5 46t42.5 115v268h52z" />
    <glyph glyph-name="Uring" unicode="&#x16e;" horiz-adv-x="730" 
d="M365 746q-42 0 -71 28t-29 68q0 41 28.5 69t71.5 28q44 0 72 -27.5t28 -69.5q0 -40 -28 -68t-72 -28zM365 777q29 0 47 19t18 46q0 28 -18 46.5t-47 18.5t-47 -18.5t-18 -46.5q0 -27 18 -46t47 -19zM365 -15q-125 0 -198 74t-73 220v421h55v-412q0 -125 58 -187.5
t158 -62.5t158 62.5t58 187.5v412h55v-421q0 -146 -73 -220t-198 -74z" />
    <glyph glyph-name="uring" unicode="&#x16f;" horiz-adv-x="541" 
d="M263 538q-42 0 -71 28t-29 68q0 41 28.5 69t71.5 28q44 0 72 -27.5t28 -69.5q0 -40 -28 -68t-72 -28zM263 569q29 0 47 19t18 46q0 28 -18 46.5t-47 18.5t-47 -18.5t-18 -46.5q0 -27 18 -46t47 -19zM452 462v-462h-50v79h-3q-19 -43 -61 -68.5t-96 -25.5q-75 0 -119 49.5
t-44 133.5v294h52v-280q0 -70 31.5 -109.5t88.5 -39.5q64 0 106.5 46t42.5 115v268h52z" />
    <glyph glyph-name="Uhungarumlaut" unicode="&#x170;" horiz-adv-x="730" 
d="M424 911l-109 -144h-51l95 144h65zM576 911l-109 -144h-51l95 144h65zM365 -15q-125 0 -198 74t-73 220v421h55v-412q0 -125 58 -187.5t158 -62.5t158 62.5t58 187.5v412h55v-421q0 -146 -73 -220t-198 -74z" />
    <glyph glyph-name="uhungarumlaut" unicode="&#x171;" horiz-adv-x="541" 
d="M322 700l-109 -144h-51l95 144h65zM474 700l-109 -144h-51l95 144h65zM452 462v-462h-50v79h-3q-19 -43 -61 -68.5t-96 -25.5q-75 0 -119 49.5t-44 133.5v294h52v-280q0 -70 31.5 -109.5t88.5 -39.5q64 0 106.5 46t42.5 115v268h52z" />
    <glyph glyph-name="Uogonek" unicode="&#x172;" horiz-adv-x="730" 
d="M434 -200q-45 0 -74.5 21t-29.5 62q0 59 60 101v4q-4 0 -18.5 -1t-18.5 -1q-115 0 -187 75t-72 215v424h55v-412q0 -125 58 -187.5t158 -62.5t158 62.5t58 187.5v412h55v-421q0 -203 -153 -275q-57 -27 -81.5 -53.5t-24.5 -59.5q0 -27 18.5 -41t45.5 -14q8 0 32 3v-36
q-18 -3 -39 -3z" />
    <glyph glyph-name="uogonek" unicode="&#x173;" horiz-adv-x="541" 
d="M452 462v-462h-1q-95 -55 -95 -113q0 -25 18 -38t45 -13q20 0 32 3v-36q-17 -3 -39 -3q-45 0 -74.5 20.5t-29.5 58.5q0 71 94 128v72h-3q-19 -43 -61 -68.5t-96 -25.5q-75 0 -119 49.5t-44 133.5v294h52v-280q0 -70 31.5 -109.5t88.5 -39.5q64 0 106.5 46t42.5 115v268
h52z" />
    <glyph glyph-name="Wcircumflex" unicode="&#x174;" horiz-adv-x="973" 
d="M526 846l102 -106h-54l-86 83l-86 -83h-54l101 106h77zM234 -11l-199 711h62l169 -615h4l190 615h57l190 -615h5l168 615h58l-197 -711h-60l-192 622h-4l-192 -622h-59z" />
    <glyph glyph-name="wcircumflex" unicode="&#x175;" horiz-adv-x="735" 
d="M401 700l111 -144h-53l-91 115l-91 -115h-52l110 144h66zM704 463l-150 -473h-49l-137 403l-137 -403h-50l-150 473h56l122 -395h1l135 395h50l134 -394h2l122 394h51z" />
    <glyph glyph-name="Ycircumflex" unicode="&#x176;" horiz-adv-x="607" 
d="M344 846l102 -106h-54l-86 83l-86 -83h-54l101 106h77zM331 304v-304h-55v304l-245 396h66l207 -339h4l206 339h62z" />
    <glyph glyph-name="ycircumflex" unicode="&#x177;" horiz-adv-x="488" 
d="M277 700l111 -144h-53l-91 115l-91 -115h-52l110 144h66zM462 463l-269 -655h-54l85 204l-200 451h59l170 -387l155 387h54z" />
    <glyph glyph-name="Ydieresis" unicode="&#x178;" horiz-adv-x="607" 
d="M237 840v-94h-51v94h51zM426 840v-94h-50v94h50zM331 304v-304h-55v304l-245 396h66l207 -339h4l206 339h62z" />
    <glyph glyph-name="Zacute" unicode="&#x179;" horiz-adv-x="617" 
d="M434 846l-89 -106h-50l74 106h65zM555 52v-52h-489v49l415 599h-390v52h459v-49l-415 -599h420z" />
    <glyph glyph-name="zacute" unicode="&#x17a;" horiz-adv-x="448" 
d="M374 700l-109 -144h-51l95 144h65zM75 463h331v-44l-294 -373h308v-46h-371v44l294 373h-268v46z" />
    <glyph glyph-name="Zdotaccent" unicode="&#x17b;" horiz-adv-x="617" 
d="M347 824v-61h-52v61h52zM555 52v-52h-489v49l415 599h-390v52h459v-49l-415 -599h420z" />
    <glyph glyph-name="zdotaccent" unicode="&#x17c;" horiz-adv-x="448" 
d="M266 662v-67h-52v67h52zM75 463h331v-44l-294 -373h308v-46h-371v44l294 373h-268v46z" />
    <glyph glyph-name="Zcaron" unicode="&#x17d;" horiz-adv-x="617" 
d="M321 763l86 83h54l-102 -106h-77l-101 106h54zM555 52v-52h-489v49l415 599h-390v52h459v-49l-415 -599h420z" />
    <glyph glyph-name="zcaron" unicode="&#x17e;" horiz-adv-x="448" 
d="M239 585l91 115h53l-111 -144h-66l-110 144h52zM75 463h331v-44l-294 -373h308v-46h-371v44l294 373h-268v46z" />
    <glyph glyph-name="florin" unicode="&#x192;" horiz-adv-x="563" 
d="M511 370v-40h-254v-431h-54v431h-151v40h151v95q0 122 62 186t158 64q48 0 79 -12v-51q-24 13 -79 13q-69 0 -117.5 -49.5t-48.5 -156.5v-89h254z" />
    <glyph glyph-name="Aringacute" unicode="&#x1fa;" horiz-adv-x="667" 
d="M448 1079l-89 -106h-50l74 106h65zM334 746q-42 0 -71 28t-29 68q0 41 28.5 69t71.5 28q44 0 72 -27.5t28 -69.5q0 -40 -28 -68t-72 -28zM334 777q29 0 47 19t18 46q0 28 -18 46.5t-47 18.5t-47 -18.5t-18 -46.5q0 -27 18 -46t47 -19zM365 711l273 -711h-60l-88 233h-313
l-88 -233h-59l273 711h62zM336 645h-4l-136 -361h276z" />
    <glyph glyph-name="aringacute" unicode="&#x1fb;" horiz-adv-x="512" 
d="M379 884l-89 -106h-50l74 106h65zM267 538q-42 0 -71 28t-29 68q0 41 28.5 69t71.5 28q44 0 72 -27.5t28 -69.5q0 -40 -28 -68t-72 -28zM267 569q29 0 47 19t18 46q0 28 -18 46.5t-47 18.5t-47 -18.5t-18 -46.5q0 -27 18 -46t47 -19zM438 311v-311h-51v64h-2
q-19 -36 -60.5 -57t-94.5 -21q-71 0 -116 39.5t-45 100.5q0 66 51.5 107t137.5 41q77 0 126 -27v61q0 58 -31 91t-88 33q-94 0 -123 -85l-52 7q16 58 63.5 90.5t115.5 32.5q79 0 124 -44.5t45 -121.5zM123 130q0 -43 33 -71.5t82 -28.5q59 0 103 36.5t44 80.5v55
q-46 30 -122 30q-66 0 -103 -28t-37 -74z" />
    <glyph glyph-name="AEacute" unicode="&#x1fc;" horiz-adv-x="952" 
d="M579 846l-89 -106h-50l74 106h65zM881 52v-52h-444v232h-248l-128 -232h-61l385 700h496v-52h-389v-266h295v-52h-295v-278h389zM437 648h-19l-201 -364h220v364z" />
    <glyph glyph-name="aeacute" unicode="&#x1fd;" horiz-adv-x="860" 
d="M551 700l-109 -144h-51l95 144h65zM237 -14q-75 0 -121 40q-47 41 -47 101q0 66 52 106q53 41 137 41q77 0 126 -27v61q0 58 -31 91t-88 33q-94 0 -123 -85l-52 7q16 57 63 90t113 33q65 0 105.5 -31.5t50.5 -88.5q21 55 68 87.5t111 32.5q88 0 152 -61t64 -172v-23h-379
q2 -82 49.5 -135.5t125.5 -53.5q98 0 143 88l45 -9q-54 -125 -189 -125q-68 0 -119.5 34.5t-78.5 93.5q-14 -58 -61.5 -93t-115.5 -35zM602 433q-71 0 -113.5 -47t-49.5 -126h324q-6 88 -51.5 130.5t-109.5 42.5zM240 30q62 0 103.5 40t41.5 92v40q-46 30 -122 30
q-66 0 -103 -28t-37 -74q0 -43 33 -71.5t84 -28.5z" />
    <glyph glyph-name="Oslashacute" unicode="&#x1fe;" horiz-adv-x="809" 
d="M518 846l-89 -106h-50l74 106h65zM191 61l-63 -76h-63l91 110q-91 102 -91 255q0 160 98.5 262.5t241.5 102.5q122 0 214 -76l63 76h63l-91 -109q91 -104 91 -256q0 -160 -98.5 -262.5t-241.5 -102.5q-122 0 -214 76zM121 350q0 -125 73 -214l390 461q-75 66 -179 66
q-118 0 -201 -87.5t-83 -225.5zM688 350q0 127 -72 214l-390 -460q79 -66 179 -66q119 0 201 87t82 225z" />
    <glyph glyph-name="oslashacute" unicode="&#x1ff;" horiz-adv-x="550" 
d="M408 700l-109 -144h-51l95 144h65zM139 30l-35 -44h-56l59 73q-59 70 -59 173q0 108 64 177t163 69q79 0 137 -45l34 44h57l-60 -74q59 -69 59 -171q0 -108 -64 -177.5t-163 -69.5q-79 0 -136 45zM102 232q0 -80 40 -133l240 294q-45 37 -107 37q-78 0 -125.5 -56.5
t-47.5 -141.5zM449 232q0 80 -40 133l-241 -294q44 -38 107 -38q79 0 126.5 56.5t47.5 142.5z" />
    <glyph glyph-name="Scommaaccent" unicode="&#x218;" horiz-adv-x="597" 
d="M305 -15q-89 0 -159 47.5t-80 136.5l54 10q10 -73 63.5 -108.5t123.5 -35.5q77 0 125 41t48 107q0 44 -21.5 73.5t-55.5 44.5t-75.5 25.5t-83 23t-75.5 31t-55.5 56t-21.5 91.5q0 85 60.5 136t152.5 51q95 0 155.5 -52.5t71.5 -133.5l-54 -9q-9 64 -55 104.5t-121 40.5
q-66 0 -110 -35.5t-44 -97.5q0 -44 21.5 -73t55.5 -43.5t75.5 -25t83 -23t75.5 -31t55.5 -56t21.5 -91.5q0 -92 -65 -148t-166 -56zM332 -62l-52 -138h-44l45 138h51z" />
    <glyph glyph-name="scommaaccent" unicode="&#x219;" horiz-adv-x="438" 
d="M228 -15q-68 0 -116.5 33t-59.5 88l49 11q11 -42 45.5 -66t83.5 -24q52 0 80 27.5t28 69.5q0 37 -28 58t-68 30t-80 19.5t-68 39.5t-28 79q0 58 42.5 93t111.5 35q65 0 111 -34q47 -35 54 -86l-50 -10q-4 38 -36.5 62.5t-77.5 24.5q-50 0 -76 -23.5t-26 -58.5
q0 -32 20 -52t50.5 -27.5t65.5 -17t65.5 -20.5t50.5 -38.5t20 -70.5q0 -66 -45 -104t-118 -38zM256 -62l-52 -138h-44l45 138h51z" />
    <glyph glyph-name="Tcommaaccent" unicode="&#x21a;" horiz-adv-x="571" 
d="M33 700h505v-52h-224v-648h-56v648h-225v52zM312 -62l-52 -138h-44l45 138h51z" />
    <glyph glyph-name="tcommaaccent" unicode="&#x21b;" horiz-adv-x="346" 
d="M254 -9q-138 0 -138 159v266h-99v47h99v139l53 11v-150h160v-47h-160v-256q0 -66 22.5 -94.5t71.5 -28.5q38 0 60 13l9 -43q-27 -16 -78 -16zM265 -62l-52 -138h-44l45 138h51z" />
    <glyph glyph-name="circumflex" unicode="&#x2c6;" horiz-adv-x="500" 
d="M283 700l111 -144h-53l-91 115l-91 -115h-52l110 144h66z" />
    <glyph glyph-name="caron" unicode="&#x2c7;" horiz-adv-x="500" 
d="M250 585l91 115h53l-111 -144h-66l-110 144h52z" />
    <glyph glyph-name="breve" unicode="&#x2d8;" horiz-adv-x="500" 
d="M250 563q-54 0 -93 33t-51 97h44q11 -44 38 -68t62 -24t63 24t37 68h44q-12 -64 -51 -97t-93 -33z" />
    <glyph glyph-name="dotaccent" unicode="&#x2d9;" horiz-adv-x="500" 
d="M276 662v-67h-52v67h52z" />
    <glyph glyph-name="ring" unicode="&#x2da;" horiz-adv-x="500" 
d="M250 538q-42 0 -71 28t-29 68q0 41 28.5 69t71.5 28q44 0 72 -27.5t28 -69.5q0 -40 -28 -68t-72 -28zM250 569q29 0 47 19t18 46q0 28 -18 46.5t-47 18.5t-47 -18.5t-18 -46.5q0 -27 18 -46t47 -19z" />
    <glyph glyph-name="ogonek" unicode="&#x2db;" horiz-adv-x="500" 
d="M292 -200q-45 0 -74.5 20.5t-29.5 58.5q0 77 118 142l25 -21q-95 -55 -95 -113q0 -25 18 -38t45 -13q20 0 32 3v-36q-17 -3 -39 -3z" />
    <glyph glyph-name="tilde" unicode="&#x2dc;" horiz-adv-x="500" 
d="M316 576q-30 0 -68.5 31.5t-59.5 31.5q-41 0 -49 -62h-40q9 104 83 104q30 0 69 -31.5t59 -31.5q41 0 49 62h40q-9 -104 -83 -104z" />
    <glyph glyph-name="hungarumlaut" unicode="&#x2dd;" horiz-adv-x="500" 
d="M257 700l-109 -144h-51l95 144h65zM409 700l-109 -144h-51l95 144h65z" />
    <glyph glyph-name="commaaccent" unicode="&#x326;" horiz-adv-x="500" 
d="M298 -62l-52 -138h-44l45 138h51z" />
    <glyph glyph-name="pi" unicode="&#x3c0;" horiz-adv-x="605" 
d="M511 -6q-114 0 -114 144v274h-215v-412h-53v412h-90v48h516v-48h-105v-269q0 -101 68 -101q21 0 37 9v-49q-21 -8 -44 -8z" />
    <glyph glyph-name="Wgrave" unicode="&#x1e80;" horiz-adv-x="973" 
d="M439 846l75 -106h-51l-88 106h64zM234 -11l-199 711h62l169 -615h4l190 615h57l190 -615h5l168 615h58l-197 -711h-60l-192 622h-4l-192 -622h-59z" />
    <glyph glyph-name="wgrave" unicode="&#x1e81;" horiz-adv-x="735" 
d="M241 700h65l89 -144h-51zM704 463l-150 -473h-49l-137 403l-137 -403h-50l-150 473h56l122 -395h1l135 395h50l134 -394h2l122 394h51z" />
    <glyph glyph-name="Wacute" unicode="&#x1e82;" horiz-adv-x="973" 
d="M601 846l-89 -106h-50l74 106h65zM234 -11l-199 711h62l169 -615h4l190 615h57l190 -615h5l168 615h58l-197 -711h-60l-192 622h-4l-192 -622h-59z" />
    <glyph glyph-name="wacute" unicode="&#x1e83;" horiz-adv-x="735" 
d="M502 700l-109 -144h-51l95 144h65zM704 463l-150 -473h-49l-137 403l-137 -403h-50l-150 473h56l122 -395h1l135 395h50l134 -394h2l122 394h51z" />
    <glyph glyph-name="Wdieresis" unicode="&#x1e84;" horiz-adv-x="973" 
d="M418 840v-94h-51v94h51zM607 840v-94h-50v94h50zM234 -11l-199 711h62l169 -615h4l190 615h57l190 -615h5l168 615h58l-197 -711h-60l-192 622h-4l-192 -622h-59z" />
    <glyph glyph-name="wdieresis" unicode="&#x1e85;" horiz-adv-x="735" 
d="M299 677v-98h-51v98h51zM488 677v-98h-50v98h50zM704 463l-150 -473h-49l-137 403l-137 -403h-50l-150 473h56l122 -395h1l135 395h50l134 -394h2l122 394h51z" />
    <glyph glyph-name="Ygrave" unicode="&#x1ef2;" horiz-adv-x="607" 
d="M257 846l75 -106h-51l-88 106h64zM331 304v-304h-55v304l-245 396h66l207 -339h4l206 339h62z" />
    <glyph glyph-name="ygrave" unicode="&#x1ef3;" horiz-adv-x="488" 
d="M116 700h65l89 -144h-51zM462 463l-269 -655h-54l85 204l-200 451h59l170 -387l155 387h54z" />
    <glyph glyph-name="endash" unicode="&#x2013;" horiz-adv-x="500" 
d="M480 257h-460v43h460v-43z" />
    <glyph glyph-name="emdash" unicode="&#x2014;" horiz-adv-x="1000" 
d="M980 257h-960v43h960v-43z" />
    <glyph glyph-name="quoteleft" unicode="&#x2018;" horiz-adv-x="254" 
d="M67 461l78 239h45l-70 -239h-53z" />
    <glyph glyph-name="quoteright" unicode="&#x2019;" horiz-adv-x="254" 
d="M188 700l-78 -239h-45l70 239h53z" />
    <glyph glyph-name="quotesinglbase" unicode="&#x201a;" horiz-adv-x="255" 
d="M183 107l-78 -239h-45l70 239h53z" />
    <glyph glyph-name="quotedblleft" unicode="&#x201c;" horiz-adv-x="406" 
d="M67 461l78 239h45l-70 -239h-53zM219 461l78 239h45l-70 -239h-53z" />
    <glyph glyph-name="quotedblright" unicode="&#x201d;" horiz-adv-x="406" 
d="M188 700l-78 -239h-45l70 239h53zM339 700l-78 -239h-45l70 239h53z" />
    <glyph glyph-name="quotedblbase" unicode="&#x201e;" horiz-adv-x="406" 
d="M183 107l-78 -239h-45l70 239h53zM335 107l-78 -239h-45l70 239h53z" />
    <glyph glyph-name="dagger" unicode="&#x2020;" horiz-adv-x="410" 
d="M224 432v-509h-38v509h-138v39h138v229h38v-229h138v-39h-138z" />
    <glyph glyph-name="daggerdbl" unicode="&#x2021;" horiz-adv-x="410" 
d="M224 152v-229h-38v229h-138v39h138v241h-138v39h138v229h38v-229h138v-39h-138v-241h138v-39h-138z" />
    <glyph glyph-name="bullet" unicode="&#x2022;" horiz-adv-x="442" 
d="M221 115q-69 0 -116 45.5t-47 117.5t47 117.5t116 45.5t116 -45.5t47 -117.5t-47 -117.5t-116 -45.5z" />
    <glyph glyph-name="ellipsis" unicode="&#x2026;" horiz-adv-x="764" 
d="M156 0h-58v96h58v-96zM411 0h-58v96h58v-96zM666 0h-58v96h58v-96z" />
    <glyph glyph-name="perthousand" unicode="&#x2030;" horiz-adv-x="1092" 
d="M182 325q-66 0 -105 53.5t-39 141.5t39 141.5t105 53.5t105.5 -53.5t39.5 -141.5t-39.5 -141.5t-105.5 -53.5zM582 700h45l-459 -700h-46zM182 367q47 0 74 41.5t27 111.5t-27 111.5t-74 41.5t-73.5 -41.5t-26.5 -111.5t26.5 -111.5t73.5 -41.5zM569 -15q-66 0 -105.5 54
t-39.5 141t39.5 141t105.5 54t105.5 -54t39.5 -141t-39.5 -141t-105.5 -54zM910 -15q-66 0 -105.5 54t-39.5 141t39.5 141t105.5 54t105.5 -54t39.5 -141t-39.5 -141t-105.5 -54zM569 27q47 0 74 41.5t27 111.5t-27 111.5t-74 41.5q-48 0 -74.5 -41.5t-26.5 -111.5
t26.5 -111.5t74.5 -41.5zM910 27q47 0 74 41.5t27 111.5t-27 111.5t-74 41.5q-48 0 -74.5 -41.5t-26.5 -111.5t26.5 -111.5t74.5 -41.5z" />
    <glyph glyph-name="guilsinglleft" unicode="&#x2039;" horiz-adv-x="279" 
d="M118 278l99 -202h-52l-99 202l99 202h52z" />
    <glyph glyph-name="guilsinglright" unicode="&#x203a;" horiz-adv-x="279" 
d="M213 278l-99 -202h-52l99 202l-99 202h52z" />
    <glyph glyph-name="fraction" unicode="&#x2044;" horiz-adv-x="173" 
d="M294 700h45l-459 -700h-46z" />
    <glyph glyph-name="zerosuperior" unicode="&#x2070;" horiz-adv-x="381" 
d="M191 391q-75 0 -118 61t-43 158t43 158t117 61q76 0 119 -61t43 -158t-43 -158t-118 -61zM191 430q58 0 88 51q30 53 30 129q0 81 -31 130.5t-88 49.5q-56 0 -86.5 -50t-30.5 -130q0 -76 30 -129q30 -51 88 -51z" />
    <glyph glyph-name="foursuperior" unicode="&#x2074;" horiz-adv-x="345" 
d="M275 498v-98h-42v98h-214v37l184 285h72v-282h56v-40h-56zM229 789l-166 -251h170v251h-4z" />
    <glyph glyph-name="fivesuperior" unicode="&#x2075;" horiz-adv-x="351" 
d="M175 391q-54 0 -94.5 31t-43.5 75h41q5 -28 33 -47.5t63 -19.5q45 0 74 29.5t29 75.5q0 47 -28 76.5t-73 29.5q-29 0 -52.5 -13t-32.5 -33h-37v225h247v-40h-207v-135q28 35 91 35q61 0 98.5 -39.5t37.5 -103.5q0 -62 -41.5 -104t-104.5 -42z" />
    <glyph glyph-name="sixsuperior" unicode="&#x2076;" horiz-adv-x="351" 
d="M190 391q-153 0 -153 217q0 104 39 162.5t109 58.5q49 0 86 -26t49 -66l-42 -8q-8 27 -33 44.5t-58 17.5q-51 0 -79 -44.5t-28 -126.5v-23q12 32 44 50.5t72 18.5q58 0 95 -37.5t37 -96.5q0 -61 -39 -101t-99 -40zM187 430q44 0 70.5 28t26.5 71q0 44 -26.5 71t-70.5 27
q-43 0 -70.5 -27t-27.5 -71q0 -43 27.5 -71t70.5 -28z" />
    <glyph glyph-name="sevensuperior" unicode="&#x2077;" horiz-adv-x="345" 
d="M46 820h261v-38l-209 -382h-47l210 380h-215v40z" />
    <glyph glyph-name="eightsuperior" unicode="&#x2078;" horiz-adv-x="351" 
d="M176 391q-63 0 -102.5 35t-39.5 89q0 38 18.5 66t51.5 39q-26 12 -41.5 38.5t-15.5 57.5q0 49 36 81t93 32t93 -32t36 -81q0 -32 -15.5 -58t-42.5 -38q33 -12 51.5 -40t18.5 -66q0 -54 -39 -88.5t-102 -34.5zM176 638q38 0 61.5 22t23.5 56q0 31 -24 53t-61 22
q-38 0 -62 -22t-24 -53q0 -34 23.5 -56t62.5 -22zM176 430q42 0 69 24t27 60q0 39 -26 62.5t-70 23.5q-43 0 -70 -24t-27 -62q0 -36 27.5 -60t69.5 -24z" />
    <glyph glyph-name="ninesuperior" unicode="&#x2079;" horiz-adv-x="351" 
d="M161 829q153 0 153 -217q0 -105 -39 -163t-110 -58q-48 0 -85.5 26.5t-48.5 66.5l42 7q8 -27 33 -44.5t58 -17.5q51 0 79 44.5t28 126.5v23q-12 -31 -43.5 -50t-72.5 -19q-58 0 -95 38t-37 96q0 62 38.5 101.5t99.5 39.5zM164 790q-44 0 -71 -27.5t-27 -71.5
q0 -43 27 -70.5t71 -27.5t71 27.5t27 70.5q0 44 -27 71.5t-71 27.5z" />
    <glyph glyph-name="plussuperior" unicode="&#x207a;" horiz-adv-x="430" 
d="M198 593h-144v35h144v153h35v-153h143v-35h-143v-154h-35v154z" />
    <glyph glyph-name="minussuperior" unicode="&#x207b;" horiz-adv-x="350" 
d="M296 593h-242v35h242v-35z" />
    <glyph glyph-name="equalsuperior" unicode="&#x207c;" horiz-adv-x="350" 
d="M296 661h-242v35h242v-35zM296 525h-242v34h242v-34z" />
    <glyph glyph-name="parenleftsuperior" unicode="&#x207d;" horiz-adv-x="276" 
d="M88 610q0 86 31.5 151.5t67.5 91.5h45q-44 -36 -74 -99t-30 -144t29.5 -143.5t74.5 -99.5h-45q-36 26 -67.5 91.5t-31.5 151.5z" />
    <glyph glyph-name="parenrightsuperior" unicode="&#x207e;" horiz-adv-x="276" 
d="M188 610q0 -86 -31.5 -151.5t-67.5 -91.5h-45q44 36 74 99t30 144t-29.5 143.5t-74.5 99.5h45q36 -26 67.5 -91.5t31.5 -151.5z" />
    <glyph glyph-name="zeroinferior" unicode="&#x2080;" horiz-adv-x="381" 
d="M191 -129q-75 0 -118 61t-43 158t43 158t117 61q76 0 119 -61t43 -158t-43 -158t-118 -61zM191 -90q58 0 88 52q30 51 30 128q0 81 -31 130.5t-88 49.5q-56 0 -86.5 -50t-30.5 -130q0 -77 30 -128q30 -52 88 -52z" />
    <glyph glyph-name="oneinferior" unicode="&#x2081;" horiz-adv-x="321" 
d="M56 197l-8 42l126 61h38v-420h-42v375z" />
    <glyph glyph-name="twoinferior" unicode="&#x2082;" horiz-adv-x="345" 
d="M307 -80v-40h-262v33l136 135q47 47 64.5 78t17.5 62q0 35 -24.5 58t-61.5 23q-39 0 -65.5 -26t-28.5 -67l-41 4q3 56 42 92.5t95 36.5t92 -32.5t36 -84.5q0 -41 -20.5 -78t-73.5 -90l-104 -104h198z" />
    <glyph glyph-name="threeinferior" unicode="&#x2083;" horiz-adv-x="345" 
d="M173 -129q-57 0 -98 34t-44 82l42 4q5 -36 32.5 -58.5t66.5 -22.5q44 0 71 28t27 72q0 43 -25 68t-69 25q-28 0 -50 -17v41l128 133h-204v40h258v-37l-108 -113q-11 -11 -14 -12v-4q6 2 13 2q52 0 83.5 -34.5t31.5 -89.5q0 -62 -39.5 -101.5t-101.5 -39.5z" />
    <glyph glyph-name="fourinferior" unicode="&#x2084;" horiz-adv-x="345" 
d="M275 -22v-98h-42v98h-214v37l184 285h72v-282h56v-40h-56zM229 269l-166 -251h170v251h-4z" />
    <glyph glyph-name="fiveinferior" unicode="&#x2085;" horiz-adv-x="345" 
d="M175 -129q-54 0 -94.5 31t-43.5 75h41q5 -28 33 -47.5t63 -19.5q45 0 74 29.5t29 75.5q0 47 -28 76.5t-73 29.5q-29 0 -52.5 -13t-32.5 -33h-37v225h247v-40h-207v-135q28 35 91 35q61 0 98.5 -39.5t37.5 -103.5q0 -62 -41.5 -104t-104.5 -42z" />
    <glyph glyph-name="sixinferior" unicode="&#x2086;" horiz-adv-x="345" 
d="M190 -129q-153 0 -153 217q0 104 39 162.5t109 58.5q49 0 86 -26t49 -66l-42 -8q-8 27 -33 44.5t-58 17.5q-51 0 -79 -44.5t-28 -126.5v-23q12 32 44 50.5t72 18.5q58 0 95 -37.5t37 -96.5q0 -61 -39 -101t-99 -40zM187 -90q44 0 70.5 28t26.5 71q0 44 -26.5 71t-70.5 27
q-43 0 -70.5 -27t-27.5 -71q0 -43 27.5 -71t70.5 -28z" />
    <glyph glyph-name="seveninferior" unicode="&#x2087;" horiz-adv-x="345" 
d="M46 300h261v-38l-209 -382h-47l210 380h-215v40z" />
    <glyph glyph-name="eightinferior" unicode="&#x2088;" horiz-adv-x="345" 
d="M176 -129q-63 0 -102.5 35t-39.5 89q0 38 18.5 66t51.5 39q-26 12 -41.5 38.5t-15.5 57.5q0 49 36 81t93 32t93 -32t36 -81q0 -32 -15.5 -58t-42.5 -38q33 -12 51.5 -40t18.5 -66q0 -54 -39 -88.5t-102 -34.5zM176 118q38 0 61.5 22t23.5 56q0 31 -24 53t-61 22
q-38 0 -62 -22t-24 -53q0 -34 23.5 -56t62.5 -22zM176 -90q42 0 69 24t27 60q0 39 -26 62.5t-70 23.5q-43 0 -70 -24t-27 -62q0 -36 27.5 -60t69.5 -24z" />
    <glyph glyph-name="nineinferior" unicode="&#x2089;" horiz-adv-x="345" 
d="M161 309q153 0 153 -217q0 -105 -39 -163t-110 -58q-48 0 -85.5 26.5t-48.5 66.5l42 7q8 -27 33 -44.5t58 -17.5q51 0 79 44.5t28 126.5v23q-12 -31 -43.5 -50t-72.5 -19q-58 0 -95 38t-37 96q0 62 38.5 101.5t99.5 39.5zM164 270q-44 0 -71 -27.5t-27 -71.5
q0 -43 27 -70.5t71 -27.5t71 27.5t27 70.5q0 44 -27 71.5t-71 27.5z" />
    <glyph glyph-name="plusinferior" unicode="&#x208a;" horiz-adv-x="430" 
d="M198 73h-144v35h144v153h35v-153h143v-35h-143v-154h-35v154z" />
    <glyph glyph-name="minusinferior" unicode="&#x208b;" horiz-adv-x="350" 
d="M296 73h-242v35h242v-35z" />
    <glyph glyph-name="equalinferior" unicode="&#x208c;" horiz-adv-x="350" 
d="M296 141h-242v35h242v-35zM296 5h-242v34h242v-34z" />
    <glyph glyph-name="parenleftinferior" unicode="&#x208d;" horiz-adv-x="276" 
d="M88 90q0 86 31.5 151.5t67.5 91.5h45q-44 -36 -74 -99t-30 -144t29.5 -143.5t74.5 -99.5h-45q-36 26 -67.5 91.5t-31.5 151.5z" />
    <glyph glyph-name="parenrightinferior" unicode="&#x208e;" horiz-adv-x="276" 
d="M188 90q0 -86 -31.5 -151.5t-67.5 -91.5h-45q44 36 74 99t30 144t-29.5 143.5t-74.5 99.5h45q36 -26 67.5 -91.5t31.5 -151.5z" />
    <glyph glyph-name="Euro" unicode="&#x20ac;" 
d="M335 -15q-104 0 -164.5 72t-77.5 196h-87v40h83q-2 38 -2 57q0 23 2 57h-83v40h87q17 125 78 196.5t166 71.5q131 0 187 -122l-54 -16q-38 88 -135 88q-86 0 -129 -61q-44 -60 -57 -157h266v-40h-270q-2 -34 -2 -57q0 -19 2 -57h270v-40h-266q13 -96 57 -158
q44 -60 129 -60q46 0 81.5 23t53.5 65l53 -17q-26 -58 -75 -89.5t-113 -31.5z" />
    <glyph glyph-name="litre" unicode="&#x2113;" horiz-adv-x="428" 
d="M246 -15q-66 0 -101 44.5t-35 129.5v26l-58 -32l-19 36q18 9 77 43v264q0 98 35 158.5t109 60.5q61 0 97.5 -44t36.5 -134q0 -99 -47.5 -169t-176.5 -151v-62q0 -69 26 -98t65 -29q51 0 92 39l23 -33q-51 -49 -124 -49zM164 503v-238q105 68 140.5 126t35.5 146
q0 60 -21.5 97.5t-64.5 37.5q-90 0 -90 -169z" />
    <glyph glyph-name="numero" unicode="&#x2116;" horiz-adv-x="1207" 
d="M823 525q0 81 49.5 134t124.5 53q76 0 124 -52.5t48 -134.5q0 -81 -48.5 -134t-123.5 -53t-124.5 53t-49.5 134zM678 700v-711h-61l-454 634v-623h-56v711h61l454 -634v623h56zM870 525q0 -62 35 -103t92 -41q58 0 91.5 40.5t33.5 103.5q0 64 -33.5 104t-91.5 40
q-57 0 -92 -40.5t-35 -103.5z" />
    <glyph glyph-name="published" unicode="&#x2117;" horiz-adv-x="781" 
d="M730 350q0 -160 -98.5 -262.5t-241.5 -102.5t-241.5 102.5t-98.5 262.5t98.5 262.5t241.5 102.5t241.5 -102.5t98.5 -262.5zM691 350q0 144 -87.5 236t-213.5 92t-213.5 -92t-87.5 -236t87.5 -235.5t213.5 -91.5q127 0 214 91.5t87 235.5zM324 310v-157h-42v394h136
q57 0 92.5 -32t35.5 -85t-35 -86.5t-93 -33.5h-94zM412 508h-88v-159h90q43 0 65.5 23.5t22.5 56.5t-23 56t-67 23z" />
    <glyph glyph-name="trademark" unicode="&#x2122;" horiz-adv-x="798" 
d="M172 660v-310h-43v310h-109v40h260v-40h-108zM722 700v-350h-43v291h-2l-122 -291h-34l-120 291h-4v-291h-42v350h65l118 -281h3l118 281h63z" />
    <glyph glyph-name="Omega" unicode="&#x2126;" horiz-adv-x="799" 
d="M736 52v-52h-278v79q36 9 70 28.5t67.5 53.5t54 89.5t20.5 125.5q0 128 -79 207.5t-191 79.5q-113 0 -192 -79.5t-79 -207.5q0 -70 20.5 -125.5t54.5 -89.5t68 -53.5t70 -28.5v-79h-278v52h225v4q-38 12 -73.5 35.5t-69 61t-54 95.5t-20.5 129q0 149 95 243.5t233 94.5
t232.5 -94.5t94.5 -243.5q0 -71 -20.5 -129.5t-53.5 -96t-69 -61t-73 -34.5v-4h225z" />
    <glyph glyph-name="estimated" unicode="&#x212e;" horiz-adv-x="835" 
d="M427 -15q-163 0 -278.5 107.5t-115.5 258.5t115.5 257.5t279.5 106.5t279 -106.5t115 -257.5v-11h-634v-240q100 -85 240 -85q103 0 189.5 49t129.5 128h36q-47 -93 -143.5 -150t-212.5 -57zM188 601v-230h470v238q-99 76 -230 76q-145 0 -240 -84z" />
    <glyph glyph-name="arrowleft" unicode="&#x2190;" horiz-adv-x="896" 
d="M164 374h680v-49h-680v-5l322 -320h-71l-347 347v5l347 348h71l-322 -321v-5z" />
    <glyph glyph-name="arrowup" unicode="&#x2191;" horiz-adv-x="896" 
d="M472 642v-680h-49v680h-5l-320 -321v70l347 347h5l348 -347v-71l-321 322h-5z" />
    <glyph glyph-name="arrowright" unicode="&#x2192;" horiz-adv-x="896" 
d="M741 326h-680v49h680v5l-322 320h71l347 -347v-5l-347 -348h-71l322 321v5z" />
    <glyph glyph-name="arrowdown" unicode="&#x2193;" horiz-adv-x="897" 
d="M423 738h49v-680h5l321 322v-71l-348 -347h-5l-347 347v70l320 -321h5v680z" />
    <glyph glyph-name="arrowupleft" unicode="&#x2196;" horiz-adv-x="896" 
d="M252 648l482 -482l-36 -34l-481 481l-3 -3v-455l-49 51v490l3 4h492l51 -50l-456 1z" />
    <glyph glyph-name="arrowupright" unicode="&#x2197;" horiz-adv-x="897" 
d="M199 132l-36 34l482 482l-3 3l-456 -1l51 50h492l3 -4v-490l-49 -51v455l-3 3z" />
    <glyph glyph-name="arrowdownright" unicode="&#x2198;" horiz-adv-x="897" 
d="M645 52l-482 482l36 34l481 -481l3 3v455l49 -51v-490l-3 -4h-492l-51 50l456 -1z" />
    <glyph glyph-name="arrowdownleft" unicode="&#x2199;" horiz-adv-x="897" 
d="M698 568l36 -34l-482 -482l3 -3l456 1l-51 -50h-492l-3 4v490l49 51v-455l3 -3z" />
    <glyph glyph-name="arrowuptipleft" unicode="&#x21b0;" horiz-adv-x="897" 
d="M59 429l271 271h62l-247 -246v-5h689v-449h-47v404h-642v-5l247 -246h-62l-271 271v5z" />
    <glyph glyph-name="arrowuptipright" unicode="&#x21b1;" horiz-adv-x="897" 
d="M505 700h62l271 -271v-5l-271 -271h-62l247 246v5h-642v-404h-47v449h689v5z" />
    <glyph glyph-name="arrowdowntipleft" unicode="&#x21b2;" horiz-adv-x="897" 
d="M392 0h-62l-271 271v5l271 271h62l-247 -246v-5h642v404h47v-449h-689v-5z" />
    <glyph glyph-name="arrowdowntipright" unicode="&#x21b3;" horiz-adv-x="897" 
d="M838 271l-271 -271h-62l247 246v5h-689v449h47v-404h642v5l-247 246h62l271 -271v-5z" />
    <glyph glyph-name="partialdiff" unicode="&#x2202;" horiz-adv-x="546" 
d="M274 -15q-97 0 -159.5 69t-62.5 174t62 174.5t157 69.5q60 0 107 -32t66 -83q-20 310 -232 310q-61 0 -96 -26v51q37 23 98 23q142 0 215 -107.5t73 -306.5q0 -152 -62.5 -234t-165.5 -82zM276 33q83 0 126.5 63.5t43.5 151.5q0 69 -46.5 122.5t-122.5 53.5
q-75 0 -123.5 -55.5t-48.5 -140.5q0 -86 47.5 -140.5t123.5 -54.5z" />
    <glyph glyph-name="increment" unicode="&#x2206;" horiz-adv-x="673" 
d="M368 711l273 -711h-608l273 711h62zM338 645h-4l-225 -594h453z" />
    <glyph glyph-name="product" unicode="&#x220f;" horiz-adv-x="733" 
d="M626 700v-865h-56v813h-407v-813h-56v865h519z" />
    <glyph glyph-name="summation" unicode="&#x2211;" horiz-adv-x="619" 
d="M546 -113v-52h-491v48l303 390v4l-293 376v47h471v-52h-395l267 -344v-52l-283 -365h421z" />
    <glyph glyph-name="minus" unicode="&#x2212;" horiz-adv-x="600" 
d="M489 308h-378v43h378v-43z" />
    <glyph glyph-name="radical" unicode="&#x221a;" horiz-adv-x="520" 
d="M517 803l-222 -906h-49l-164 452l-58 -16l-10 37l99 27l153 -429h4l204 835h43z" />
    <glyph glyph-name="infinity" unicode="&#x221e;" horiz-adv-x="769" 
d="M570 155q-60 0 -101.5 35.5t-84.5 100.5q-40 -64 -82.5 -100t-102.5 -36q-75 0 -121 51.5t-46 122.5q0 72 46 123.5t121 51.5q60 0 102.5 -36t82.5 -101q42 65 84 101t102 36q76 0 121 -51t45 -124q0 -72 -45 -123t-121 -51zM568 196q55 0 90 37.5t35 95.5t-35 95.5
t-90 37.5q-49 0 -84.5 -34t-75.5 -99q29 -44 46 -67t48.5 -44.5t65.5 -21.5zM76 329q0 -58 35 -95.5t90 -37.5q26 0 48.5 10t43.5 32.5t33.5 39.5t34.5 51q-28 44 -46 67.5t-49 44.5t-65 21q-55 0 -90 -37.5t-35 -95.5z" />
    <glyph glyph-name="integral" unicode="&#x222b;" horiz-adv-x="306" 
d="M55 -199q-27 0 -48 7v39q20 -7 42 -7q82 0 82 98v679q0 57 29 95t91 38q27 0 48 -7v-39q-20 7 -42 7q-82 0 -82 -98v-679q0 -57 -29 -95t-91 -38z" />
    <glyph glyph-name="approxequal" unicode="&#x2248;" horiz-adv-x="600" 
d="M402 379q-45 0 -105 33t-100 33q-66 0 -106 -61v50q15 21 43 37.5t64 16.5q45 0 105 -33t100 -33q67 0 106 61v-50q-15 -21 -43 -37.5t-64 -16.5zM402 171q-45 0 -105 33t-100 33q-66 0 -106 -61v50q15 21 43 37.5t64 16.5q45 0 105 -33t100 -33q67 0 106 61v-50
q-15 -21 -43 -37.5t-64 -16.5z" />
    <glyph glyph-name="notequal" unicode="&#x2260;" horiz-adv-x="600" 
d="M268 194l-79 -194h-46l79 194h-131v44h149l74 183h-223v43h241l79 194h46l-79 -194h131v-43h-149l-74 -183h223v-44h-241z" />
    <glyph glyph-name="lessequal" unicode="&#x2264;" horiz-adv-x="600" 
d="M530 255v-45l-457 176v38l457 176v-45l-386 -149v-3zM530 70h-460v43h460v-43z" />
    <glyph glyph-name="greaterequal" unicode="&#x2265;" horiz-adv-x="600" 
d="M527 386l-457 -176v45l386 148v3l-386 149v45l457 -176v-38zM530 113v-43h-460v43h460z" />
    <glyph glyph-name="blacksquare" unicode="&#x25a0;" horiz-adv-x="800" 
d="M725 675v-651h-651v651h651z" />
    <glyph glyph-name="whitesquare" unicode="&#x25a1;" horiz-adv-x="800" 
d="M725 675v-651h-651v651h651zM112 62h576v576h-576v-576z" />
    <glyph glyph-name="squarewhitewithsmallblack" unicode="&#x25a3;" horiz-adv-x="800" 
d="M725 675v-651h-651v651h651zM112 62h576v576h-576v-576zM515 465v-231h-231v231h231z" />
    <glyph glyph-name="blackuppointingtriangle" unicode="&#x25b2;" horiz-adv-x="833" 
d="M417 681l352 -661h-704z" />
    <glyph glyph-name="whiteuppointingtriangle" unicode="&#x25b3;" horiz-adv-x="833" 
d="M424 681l352 -661h-704zM713 58l-287 540h-4l-288 -540h579z" />
    <glyph glyph-name="blackrightpointingtriangle" unicode="&#x25b6;" horiz-adv-x="833" 
d="M778 350l-661 -352v704z" />
    <glyph glyph-name="whiterightpointingtriangle" unicode="&#x25b7;" horiz-adv-x="833" 
d="M778 350l-661 -352v704zM155 61l540 287v4l-540 287v-578z" />
    <glyph glyph-name="blackdownpointingtriangle" unicode="&#x25bc;" horiz-adv-x="833" 
d="M65 681h704l-352 -661z" />
    <glyph glyph-name="whitedownpointingtriangle" unicode="&#x25bd;" horiz-adv-x="833" 
d="M72 681h704l-352 -661zM422 103h4l287 540h-579z" />
    <glyph glyph-name="blackleftpointingtriangle" unicode="&#x25c0;" horiz-adv-x="833" 
d="M716 702v-704l-661 352z" />
    <glyph glyph-name="whiteleftpointingtriangle" unicode="&#x25c1;" horiz-adv-x="833" 
d="M716 702v-704l-661 352zM138 352v-4l540 -287v578z" />
    <glyph glyph-name="blackdiamond" unicode="&#x25c6;" horiz-adv-x="600" 
d="M582 350l-282 -282l-282 282l282 282z" />
    <glyph glyph-name="fisheye" unicode="&#x25c9;" horiz-adv-x="800" 
d="M56 350q0 141 101.5 242.5t242.5 101.5t242.5 -101.5t101.5 -242.5t-101.5 -242.5t-242.5 -101.5t-242.5 101.5t-101.5 242.5zM95 350q0 -126 89.5 -215.5t215.5 -89.5t215.5 89.5t89.5 215.5t-89.5 215.5t-215.5 89.5t-215.5 -89.5t-89.5 -215.5zM271 350q0 54 37.5 90
t91.5 36t90 -36t36 -90t-36 -91.5t-90 -37.5q-53 0 -91 38t-38 91z" />
    <glyph glyph-name="lozenge" unicode="&#x25ca;" horiz-adv-x="479" 
d="M267 678l184 -349l-184 -349h-55l-183 349l183 349h55zM240 21l163 308l-163 308l-163 -308z" />
    <glyph glyph-name="whitecircle" unicode="&#x25cb;" horiz-adv-x="800" 
d="M56 350q0 141 101.5 242.5t242.5 101.5t242.5 -101.5t101.5 -242.5t-101.5 -242.5t-242.5 -101.5t-242.5 101.5t-101.5 242.5zM95 350q0 -126 89.5 -215.5t215.5 -89.5t215.5 89.5t89.5 215.5t-89.5 215.5t-215.5 89.5t-215.5 -89.5t-89.5 -215.5z" />
    <glyph glyph-name="blackcircle" unicode="&#x25cf;" horiz-adv-x="800" 
d="M56 350q0 141 101.5 242.5t242.5 101.5t242.5 -101.5t101.5 -242.5t-101.5 -242.5t-242.5 -101.5t-242.5 101.5t-101.5 242.5z" />
    <glyph glyph-name="germandbls.cap" horiz-adv-x="1193" 
d="M305 -15q-89 0 -159 47.5t-80 136.5l54 10q10 -73 63.5 -108.5t123.5 -35.5q77 0 125 41t48 107q0 44 -21.5 73.5t-55.5 44.5t-75.5 25.5t-83 23t-75.5 31t-55.5 56t-21.5 91.5q0 85 60.5 136t152.5 51q95 0 155.5 -52.5t71.5 -133.5l-54 -9q-9 64 -55 104.5t-121 40.5
q-66 0 -110 -35.5t-44 -97.5q0 -44 21.5 -73t55.5 -43.5t75.5 -25t83 -23t75.5 -31t55.5 -56t21.5 -91.5q0 -92 -65 -148t-166 -56zM902 -15q-89 0 -159 47.5t-80 136.5l54 10q10 -73 63.5 -108.5t123.5 -35.5q77 0 125 41t48 107q0 44 -21.5 73.5t-55.5 44.5t-75.5 25.5
t-83 23t-75.5 31t-55.5 56t-21.5 91.5q0 85 61 136t152 51q95 0 155.5 -52.5t71.5 -133.5l-54 -9q-9 64 -55 104.5t-121 40.5q-66 0 -110 -35.5t-44 -97.5q0 -44 21.5 -73t55.5 -43.5t75.5 -25t83 -23t75.5 -31t55.5 -56t21.5 -91.5q0 -92 -65 -148t-166 -56z" />
    <glyph glyph-name="i.TRK" horiz-adv-x="230" 
d="M142 700v-96h-53v96h53zM142 463v-463h-53v463h53z" />
    <glyph glyph-name="A.small" horiz-adv-x="535" 
d="M299 547l207 -547h-58l-64 169h-234l-63 -169h-57l208 547h61zM270 481h-4l-98 -263h200z" />
    <glyph glyph-name="Agrave.small" horiz-adv-x="535" 
d="M216 685l75 -106h-51l-88 106h64zM299 547l207 -547h-58l-64 169h-234l-63 -169h-57l208 547h61zM270 481h-4l-98 -263h200z" />
    <glyph glyph-name="Aacute.small" horiz-adv-x="535" 
d="M379 685l-89 -106h-50l74 106h65zM299 547l207 -547h-58l-64 169h-234l-63 -169h-57l208 547h61zM270 481h-4l-98 -263h200z" />
    <glyph glyph-name="Acircumflex.small" horiz-adv-x="535" 
d="M303 685l102 -106h-54l-86 83l-86 -83h-54l101 106h77zM299 547l207 -547h-58l-64 169h-234l-63 -169h-57l208 547h61zM270 481h-4l-98 -263h200z" />
    <glyph glyph-name="Atilde.small" horiz-adv-x="535" 
d="M331 589q-29 0 -69.5 25t-60.5 25q-37 0 -48 -48h-35q7 42 28.5 63.5t52.5 21.5q28 0 69.5 -25t61.5 -25q36 0 47 48h35q-7 -42 -28.5 -63.5t-52.5 -21.5zM299 547l207 -547h-58l-64 169h-234l-63 -169h-57l208 547h61zM270 481h-4l-98 -263h200z" />
    <glyph glyph-name="Adieresis.small" horiz-adv-x="535" 
d="M196 679v-94h-51v94h51zM385 679v-94h-50v94h50zM299 547l207 -547h-58l-64 169h-234l-63 -169h-57l208 547h61zM270 481h-4l-98 -263h200z" />
    <glyph glyph-name="Amacron.small" horiz-adv-x="535" 
d="M427 652v-40h-324v40h324zM299 547l207 -547h-58l-64 169h-234l-63 -169h-57l208 547h61zM270 481h-4l-98 -263h200z" />
    <glyph glyph-name="Abreve.small" horiz-adv-x="535" 
d="M265 575q-48 0 -88.5 26t-55.5 84h44q11 -36 40 -55t60 -19q32 0 60.5 18.5t39.5 55.5h44q-14 -58 -55 -84t-89 -26zM299 547l207 -547h-58l-64 169h-234l-63 -169h-57l208 547h61zM270 481h-4l-98 -263h200z" />
    <glyph glyph-name="Aring.small" horiz-adv-x="535" 
d="M265 585q-42 0 -71 28t-29 68q0 41 28.5 69t71.5 28q44 0 72 -27.5t28 -69.5q0 -40 -28 -68t-72 -28zM265 616q29 0 47 19t18 46q0 28 -18 46.5t-47 18.5t-47 -18.5t-18 -46.5q0 -27 18 -46t47 -19zM299 547l207 -547h-58l-64 169h-234l-63 -169h-57l208 547h61zM270 481
h-4l-98 -263h200z" />
    <glyph glyph-name="Aringacute.small" horiz-adv-x="535" 
d="M379 919l-89 -106h-50l74 106h65zM265 585q-42 0 -71 28t-29 68q0 41 28.5 69t71.5 28q44 0 72 -27.5t28 -69.5q0 -40 -28 -68t-72 -28zM265 616q29 0 47 19t18 46q0 28 -18 46.5t-47 18.5t-47 -18.5t-18 -46.5q0 -27 18 -46t47 -19zM299 547l207 -547h-58l-64 169h-234
l-63 -169h-57l208 547h61zM270 481h-4l-98 -263h200z" />
    <glyph glyph-name="Aogonek.small" horiz-adv-x="535" 
d="M464 -200q-45 0 -74.5 20.5t-29.5 58.5q0 69 87 124l-63 166h-234l-63 -169h-57l208 547h61l207 -547h-3q-95 -55 -95 -113q0 -25 18 -38t45 -13q20 0 32 3v-36q-17 -3 -39 -3zM270 481h-4l-98 -263h200z" />
    <glyph glyph-name="AE.small" horiz-adv-x="759" 
d="M691 50v-50h-356v168h-185l-90 -168h-60l289 540h402v-50h-302v-191h226v-49h-226v-200h302zM335 489h-13l-145 -271h158v271z" />
    <glyph glyph-name="AEacute.small" horiz-adv-x="759" 
d="M476 685l-89 -106h-50l74 106h65zM691 50v-50h-356v168h-185l-90 -168h-60l289 540h402v-50h-302v-191h226v-49h-226v-200h302zM335 489h-13l-145 -271h158v271z" />
    <glyph glyph-name="B.small" horiz-adv-x="537" 
d="M441 401q0 -44 -22.5 -77.5t-67.5 -42.5q57 -8 86.5 -44t29.5 -87q0 -67 -42.5 -108.5t-121.5 -41.5h-198v540h183q72 0 112.5 -38.5t40.5 -100.5zM281 491h-121v-190h128q47 0 72 27t25 67q0 41 -25.5 68.5t-78.5 27.5zM411 153q0 39 -27 71t-92 32h-132v-208h137
q57 0 85.5 31t28.5 74z" />
    <glyph glyph-name="C.small" horiz-adv-x="597" 
d="M65 270q0 126 73.5 203.5t183.5 77.5q79 0 141 -44q60 -42 83 -115l-55 -12q-18 52 -63.5 85.5t-104.5 33.5q-88 0 -145.5 -63.5t-57.5 -165.5t58 -166t145 -64q61 0 105.5 32.5t62.5 85.5l54 -11q-20 -72 -80.5 -115t-141.5 -43q-112 0 -185 77t-73 204z" />
    <glyph glyph-name="Cacute.small" horiz-adv-x="597" 
d="M437 685l-89 -106h-50l74 106h65zM65 270q0 126 73.5 203.5t183.5 77.5q79 0 141 -44q60 -42 83 -115l-55 -12q-18 52 -63.5 85.5t-104.5 33.5q-88 0 -145.5 -63.5t-57.5 -165.5t58 -166t145 -64q61 0 105.5 32.5t62.5 85.5l54 -11q-20 -72 -80.5 -115t-141.5 -43
q-112 0 -185 77t-73 204z" />
    <glyph glyph-name="Ccircumflex.small" horiz-adv-x="597" 
d="M361 685l102 -106h-54l-86 83l-86 -83h-54l101 106h77zM65 270q0 126 73.5 203.5t183.5 77.5q79 0 141 -44q60 -42 83 -115l-55 -12q-18 52 -63.5 85.5t-104.5 33.5q-88 0 -145.5 -63.5t-57.5 -165.5t58 -166t145 -64q61 0 105.5 32.5t62.5 85.5l54 -11
q-20 -72 -80.5 -115t-141.5 -43q-112 0 -185 77t-73 204z" />
    <glyph glyph-name="Ccaron.small" horiz-adv-x="597" 
d="M323 602l86 83h54l-102 -106h-77l-101 106h54zM65 270q0 126 73.5 203.5t183.5 77.5q79 0 141 -44q60 -42 83 -115l-55 -12q-18 52 -63.5 85.5t-104.5 33.5q-88 0 -145.5 -63.5t-57.5 -165.5t58 -166t145 -64q61 0 105.5 32.5t62.5 85.5l54 -11q-20 -72 -80.5 -115
t-141.5 -43q-112 0 -185 77t-73 204z" />
    <glyph glyph-name="Cdotaccent.small" horiz-adv-x="597" 
d="M349 663v-61h-52v61h52zM65 270q0 126 73.5 203.5t183.5 77.5q79 0 141 -44q60 -42 83 -115l-55 -12q-18 52 -63.5 85.5t-104.5 33.5q-88 0 -145.5 -63.5t-57.5 -165.5t58 -166t145 -64q61 0 105.5 32.5t62.5 85.5l54 -11q-20 -72 -80.5 -115t-141.5 -43q-112 0 -185 77
t-73 204z" />
    <glyph glyph-name="Ccedilla.small" horiz-adv-x="597" 
d="M65 270q0 126 73.5 203.5t183.5 77.5q79 0 141 -44q60 -42 83 -115l-55 -12q-18 52 -63.5 85.5t-104.5 33.5q-88 0 -145.5 -63.5t-57.5 -165.5t58 -166t145 -64q61 0 105.5 32.5t62.5 85.5l54 -11q-19 -66 -73 -108.5t-126 -48.5l-42 -190l-48 7l42 183q-103 9 -168 85
t-65 195z" />
    <glyph glyph-name="D.small" horiz-adv-x="603" 
d="M539 270q0 -128 -78 -199t-204 -71h-152v540h158q121 0 198.5 -72.5t77.5 -197.5zM482 270q0 102 -60.5 160.5t-156.5 58.5h-105v-438h106q94 0 155 58.5t61 160.5z" />
    <glyph glyph-name="Dcaron.small" horiz-adv-x="603" 
d="M289 602l86 83h54l-102 -106h-77l-101 106h54zM539 270q0 -128 -78 -199t-204 -71h-152v540h158q121 0 198.5 -72.5t77.5 -197.5zM482 270q0 102 -60.5 160.5t-156.5 58.5h-105v-438h106q94 0 155 58.5t61 160.5z" />
    <glyph glyph-name="Dcroat.small" horiz-adv-x="603" 
d="M539 270q0 -128 -78 -199t-204 -71h-152v251h-82v45h82v244h158q121 0 198.5 -72.5t77.5 -197.5zM292 296v-45h-132v-200h106q94 0 155 58.5t61 160.5t-60.5 160.5t-156.5 58.5h-105v-193h132z" />
    <glyph glyph-name="Eth.small" horiz-adv-x="603" 
d="M539 270q0 -128 -78 -199t-204 -71h-152v251h-82v45h82v244h158q121 0 198.5 -72.5t77.5 -197.5zM292 296v-45h-132v-200h106q94 0 155 58.5t61 160.5t-60.5 160.5t-156.5 58.5h-105v-193h132z" />
    <glyph glyph-name="E.small" horiz-adv-x="530" 
d="M105 540h356v-50h-301v-191h225v-49h-225v-200h301v-50h-356v540z" />
    <glyph glyph-name="Egrave.small" horiz-adv-x="530" 
d="M235 685l75 -106h-51l-88 106h64zM105 540h356v-50h-301v-191h225v-49h-225v-200h301v-50h-356v540z" />
    <glyph glyph-name="Eacute.small" horiz-adv-x="530" 
d="M397 685l-89 -106h-50l74 106h65zM105 540h356v-50h-301v-191h225v-49h-225v-200h301v-50h-356v540z" />
    <glyph glyph-name="Ecircumflex.small" horiz-adv-x="530" 
d="M321 685l102 -106h-54l-86 83l-86 -83h-54l101 106h77zM105 540h356v-50h-301v-191h225v-49h-225v-200h301v-50h-356v540z" />
    <glyph glyph-name="Ecaron.small" horiz-adv-x="530" 
d="M284 602l86 83h54l-102 -106h-77l-101 106h54zM105 540h356v-50h-301v-191h225v-49h-225v-200h301v-50h-356v540z" />
    <glyph glyph-name="Edieresis.small" horiz-adv-x="530" 
d="M214 679v-94h-51v94h51zM403 679v-94h-50v94h50zM105 540h356v-50h-301v-191h225v-49h-225v-200h301v-50h-356v540z" />
    <glyph glyph-name="Emacron.small" horiz-adv-x="530" 
d="M445 652v-40h-324v40h324zM105 540h356v-50h-301v-191h225v-49h-225v-200h301v-50h-356v540z" />
    <glyph glyph-name="Ebreve.small" horiz-adv-x="530" 
d="M283 575q-48 0 -88.5 26t-55.5 84h44q11 -36 40 -55t60 -19q32 0 60.5 18.5t39.5 55.5h44q-14 -58 -55 -84t-89 -26zM105 540h356v-50h-301v-191h225v-49h-225v-200h301v-50h-356v540z" />
    <glyph glyph-name="Edotaccent.small" horiz-adv-x="530" 
d="M310 663v-61h-52v61h52zM105 540h356v-50h-301v-191h225v-49h-225v-200h301v-50h-356v540z" />
    <glyph glyph-name="Eogonek.small" horiz-adv-x="516" 
d="M422 -200q-45 0 -74.5 20.5t-29.5 58.5q0 65 83 121h-296v540h356v-50h-301v-191h225v-49h-225v-200h301v-50q-95 -55 -95 -113q0 -25 18 -38t45 -13q20 0 32 3v-36q-17 -3 -39 -3z" />
    <glyph glyph-name="F.small" horiz-adv-x="505" 
d="M105 540h353v-50h-298v-195h222v-49h-222v-246h-55v540z" />
    <glyph glyph-name="G.small" horiz-adv-x="625" 
d="M546 396l-54 -17q-19 54 -64.5 87t-104.5 33q-87 0 -145 -63.5t-58 -165.5q0 -104 58.5 -167.5t148.5 -63.5q79 0 126.5 51t53.5 132h-178v49h236v-21q-6 -119 -69.5 -190t-169.5 -71q-114 0 -187.5 78t-73.5 203t73 203t183 78q80 0 140.5 -42.5t84.5 -112.5z" />
    <glyph glyph-name="Gcircumflex.small" horiz-adv-x="625" 
d="M360 685l102 -106h-54l-86 83l-86 -83h-54l101 106h77zM546 396l-54 -17q-19 54 -64.5 87t-104.5 33q-87 0 -145 -63.5t-58 -165.5q0 -104 58.5 -167.5t148.5 -63.5q79 0 126.5 51t53.5 132h-178v49h236v-21q-6 -119 -69.5 -190t-169.5 -71q-114 0 -187.5 78t-73.5 203
t73 203t183 78q80 0 140.5 -42.5t84.5 -112.5z" />
    <glyph glyph-name="Gbreve.small" horiz-adv-x="625" 
d="M322 575q-48 0 -88.5 26t-55.5 84h44q11 -36 40 -55t60 -19q32 0 60.5 18.5t39.5 55.5h44q-14 -58 -55 -84t-89 -26zM546 396l-54 -17q-19 54 -64.5 87t-104.5 33q-87 0 -145 -63.5t-58 -165.5q0 -104 58.5 -167.5t148.5 -63.5q79 0 126.5 51t53.5 132h-178v49h236v-21
q-6 -119 -69.5 -190t-169.5 -71q-114 0 -187.5 78t-73.5 203t73 203t183 78q80 0 140.5 -42.5t84.5 -112.5z" />
    <glyph glyph-name="Gdotaccent.small" horiz-adv-x="625" 
d="M348 663v-61h-52v61h52zM546 396l-54 -17q-19 54 -64.5 87t-104.5 33q-87 0 -145 -63.5t-58 -165.5q0 -104 58.5 -167.5t148.5 -63.5q79 0 126.5 51t53.5 132h-178v49h236v-21q-6 -119 -69.5 -190t-169.5 -71q-114 0 -187.5 78t-73.5 203t73 203t183 78q80 0 140.5 -42.5
t84.5 -112.5z" />
    <glyph glyph-name="Gcommaaccent.small" horiz-adv-x="625" 
d="M546 396l-54 -17q-19 54 -64.5 87t-104.5 33q-87 0 -145 -63.5t-58 -165.5q0 -104 58.5 -167.5t148.5 -63.5q79 0 126.5 51t53.5 132h-178v49h236v-21q-6 -119 -69.5 -190t-169.5 -71q-114 0 -187.5 78t-73.5 203t73 203t183 78q80 0 140.5 -42.5t84.5 -112.5zM352 -62
l-52 -138h-44l45 138h51z" />
    <glyph glyph-name="H.small" horiz-adv-x="627" 
d="M467 540h55v-540h-55v244h-307v-244h-55v540h55v-245h307v245z" />
    <glyph glyph-name="Hcircumflex.small" horiz-adv-x="627" 
d="M352 686l102 -106h-54l-86 83l-86 -83h-54l101 106h77zM467 540h55v-540h-55v244h-307v-244h-55v540h55v-245h307v245z" />
    <glyph glyph-name="Hbar.small" horiz-adv-x="627" 
d="M589 436v-45h-67v-391h-55v244h-307v-244h-55v391h-68v45h68v104h55v-104h307v104h55v-104h67zM160 391v-96h307v96h-307z" />
    <glyph glyph-name="I.small" horiz-adv-x="265" 
d="M105 540h55v-540h-55v540z" />
    <glyph glyph-name="Igrave.small" horiz-adv-x="265" 
d="M82 685l75 -106h-51l-88 106h64zM105 540h55v-540h-55v540z" />
    <glyph glyph-name="Iacute.small" horiz-adv-x="265" 
d="M245 685l-89 -106h-50l74 106h65zM105 540h55v-540h-55v540z" />
    <glyph glyph-name="Icircumflex.small" horiz-adv-x="265" 
d="M169 685l102 -106h-54l-86 83l-86 -83h-54l101 106h77zM105 540h55v-540h-55v540z" />
    <glyph glyph-name="Itilde.small" horiz-adv-x="265" 
d="M197 589q-29 0 -69.5 25t-60.5 25q-37 0 -48 -48h-35q7 42 28.5 63.5t52.5 21.5q28 0 69.5 -25t61.5 -25q37 0 47 48h35q-7 -42 -28.5 -63.5t-52.5 -21.5zM105 540h55v-540h-55v540z" />
    <glyph glyph-name="Idieresis.small" horiz-adv-x="265" 
d="M62 679v-94h-51v94h51zM251 679v-94h-50v94h50zM105 540h55v-540h-55v540z" />
    <glyph glyph-name="Imacron.small" horiz-adv-x="265" 
d="M293 652v-40h-324v40h324zM105 540h55v-540h-55v540z" />
    <glyph glyph-name="Ibreve.small" horiz-adv-x="265" 
d="M131 575q-48 0 -88.5 26t-55.5 84h44q11 -36 40 -55t60 -19q32 0 60.5 18.5t39.5 55.5h44q-14 -58 -55 -84t-89 -26zM105 540h55v-540h-55v540z" />
    <glyph glyph-name="Idotaccent.small" horiz-adv-x="265" 
d="M157 663v-61h-52v61h52zM105 540h55v-540h-55v540z" />
    <glyph glyph-name="Iogonek.small" horiz-adv-x="265" 
d="M121 -200q-45 0 -74.5 20.5t-29.5 58.5q0 69 88 124v537h55v-540q-95 -55 -95 -113q0 -25 18 -38t45 -13q20 0 32 3v-36q-16 -3 -39 -3z" />
    <glyph glyph-name="IJ.small" horiz-adv-x="631" 
d="M105 540h55v-540h-55v540zM376 -8q-41 0 -73 16v52q32 -17 64 -17q116 0 116 143v303h-149v51h204v-358q0 -190 -162 -190z" />
    <glyph glyph-name="J.small" horiz-adv-x="362" 
d="M109 -8q-41 0 -73 16v52q32 -17 64 -17q116 0 116 143v303h-149v51h204v-358q0 -190 -162 -190z" />
    <glyph glyph-name="Jcircumflex.small" horiz-adv-x="362" 
d="M206 685l102 -106h-54l-86 83l-86 -83h-54l101 106h77zM109 -8q-41 0 -73 16v52q32 -17 64 -17q116 0 116 143v303h-149v51h204v-358q0 -190 -162 -190z" />
    <glyph glyph-name="K.small" horiz-adv-x="520" 
d="M160 259v-259h-55v540h55v-258l243 258h65l-250 -264l280 -276h-73z" />
    <glyph glyph-name="Kcommaaccent.small" horiz-adv-x="520" 
d="M160 259v-259h-55v540h55v-258l243 258h65l-250 -264l280 -276h-73zM299 -62l-52 -138h-44l45 138h51z" />
    <glyph glyph-name="L.small" horiz-adv-x="432" 
d="M105 0v540h55v-489h261v-51h-316z" />
    <glyph glyph-name="Lacute.small" horiz-adv-x="432" 
d="M245 685l-89 -106h-50l74 106h65zM105 0v540h55v-489h261v-51h-316z" />
    <glyph glyph-name="Lcaron.small" horiz-adv-x="432" 
d="M105 0v540h55v-489h261v-51h-316zM335 539l-56 -205h-42l46 205h52z" />
    <glyph glyph-name="Lcommaaccent.small" horiz-adv-x="432" 
d="M105 0v540h55v-489h261v-51h-316zM291 -62l-52 -138h-44l45 138h51z" />
    <glyph glyph-name="Lslash.small" horiz-adv-x="434" 
d="M321 325v-47l-159 -46v-181h261v-51h-316v217l-83 -24v46l83 24v277h55v-261z" />
    <glyph glyph-name="Ldot.small" horiz-adv-x="432" 
d="M105 0v540h55v-489h261v-51h-316zM379 309v-67h-52v67h52z" />
    <glyph glyph-name="M.small" horiz-adv-x="750" 
d="M645 540v-540h-54v463h-3l-189 -463h-48l-188 463h-3v-463h-55v540h84l186 -456h3l187 456h80z" />
    <glyph glyph-name="N.small" horiz-adv-x="653" 
d="M548 540v-548h-54l-334 462v-454h-55v547h54l335 -461v454h54z" />
    <glyph glyph-name="Nacute.small" horiz-adv-x="653" 
d="M443 685l-89 -106h-50l74 106h65zM548 540v-548h-54l-334 462v-454h-55v547h54l335 -461v454h54z" />
    <glyph glyph-name="Ncaron.small" horiz-adv-x="653" 
d="M329 602l86 83h54l-102 -106h-77l-101 106h54zM548 540v-548h-54l-334 462v-454h-55v547h54l335 -461v454h54z" />
    <glyph glyph-name="Ntilde.small" horiz-adv-x="653" 
d="M395 589q-29 0 -69.5 25t-60.5 25q-37 0 -48 -48h-35q7 42 28.5 63.5t52.5 21.5q28 0 69.5 -25t61.5 -25q36 0 47 48h35q-7 -42 -28.5 -63.5t-52.5 -21.5zM548 540v-548h-54l-334 462v-454h-55v547h54l335 -461v454h54z" />
    <glyph glyph-name="Ncommaaccent.small" horiz-adv-x="653" 
d="M548 540v-548h-54l-334 462v-454h-55v547h54l335 -461v454h54zM348 -62l-52 -138h-44l45 138h51z" />
    <glyph glyph-name="Eng.small" horiz-adv-x="651" 
d="M383 -154q-39 0 -71 15v53q32 -18 64 -18q50 0 79.5 27t34.5 75l-330 453v-451h-55v547h52l334 -459v452h55v-504q0 -190 -163 -190z" />
    <glyph glyph-name="O.small" horiz-adv-x="658" 
d="M593 270q0 -123 -76 -202t-187 -79q-112 0 -188.5 79t-76.5 202q0 124 76.5 202.5t188.5 78.5q111 0 187 -78.5t76 -202.5zM538 270q0 101 -60.5 165t-147.5 64q-88 0 -149 -64t-61 -165t61 -165.5t149 -64.5q87 0 147.5 64.5t60.5 165.5z" />
    <glyph glyph-name="Ograve.small" horiz-adv-x="658" 
d="M281 685l75 -106h-51l-88 106h64zM593 270q0 -123 -76 -202t-187 -79q-112 0 -188.5 79t-76.5 202q0 124 76.5 202.5t188.5 78.5q111 0 187 -78.5t76 -202.5zM538 270q0 101 -60.5 165t-147.5 64q-88 0 -149 -64t-61 -165t61 -165.5t149 -64.5q87 0 147.5 64.5
t60.5 165.5z" />
    <glyph glyph-name="Oacute.small" horiz-adv-x="658" 
d="M444 685l-89 -106h-50l74 106h65zM593 270q0 -123 -76 -202t-187 -79q-112 0 -188.5 79t-76.5 202q0 124 76.5 202.5t188.5 78.5q111 0 187 -78.5t76 -202.5zM538 270q0 101 -60.5 165t-147.5 64q-88 0 -149 -64t-61 -165t61 -165.5t149 -64.5q87 0 147.5 64.5
t60.5 165.5z" />
    <glyph glyph-name="Ocircumflex.small" horiz-adv-x="658" 
d="M368 685l102 -106h-54l-86 83l-86 -83h-54l101 106h77zM593 270q0 -123 -76 -202t-187 -79q-112 0 -188.5 79t-76.5 202q0 124 76.5 202.5t188.5 78.5q111 0 187 -78.5t76 -202.5zM538 270q0 101 -60.5 165t-147.5 64q-88 0 -149 -64t-61 -165t61 -165.5t149 -64.5
q87 0 147.5 64.5t60.5 165.5z" />
    <glyph glyph-name="Otilde.small" horiz-adv-x="658" 
d="M396 589q-29 0 -69.5 25t-60.5 25q-38 0 -48 -48h-35q7 42 28.5 63.5t52.5 21.5q28 0 69.5 -25t61.5 -25q37 0 47 48h35q-7 -42 -28.5 -63.5t-52.5 -21.5zM593 270q0 -123 -76 -202t-187 -79q-112 0 -188.5 79t-76.5 202q0 124 76.5 202.5t188.5 78.5q111 0 187 -78.5
t76 -202.5zM538 270q0 101 -60.5 165t-147.5 64q-88 0 -149 -64t-61 -165t61 -165.5t149 -64.5q87 0 147.5 64.5t60.5 165.5z" />
    <glyph glyph-name="Odieresis.small" horiz-adv-x="658" 
d="M261 679v-94h-51v94h51zM450 679v-94h-50v94h50zM593 270q0 -123 -76 -202t-187 -79q-112 0 -188.5 79t-76.5 202q0 124 76.5 202.5t188.5 78.5q111 0 187 -78.5t76 -202.5zM538 270q0 101 -60.5 165t-147.5 64q-88 0 -149 -64t-61 -165t61 -165.5t149 -64.5
q87 0 147.5 64.5t60.5 165.5z" />
    <glyph glyph-name="Omacron.small" horiz-adv-x="658" 
d="M492 652v-40h-324v40h324zM593 270q0 -123 -76 -202t-187 -79q-112 0 -188.5 79t-76.5 202q0 124 76.5 202.5t188.5 78.5q111 0 187 -78.5t76 -202.5zM538 270q0 101 -60.5 165t-147.5 64q-88 0 -149 -64t-61 -165t61 -165.5t149 -64.5q87 0 147.5 64.5t60.5 165.5z" />
    <glyph glyph-name="Obreve.small" horiz-adv-x="658" 
d="M330 575q-48 0 -88.5 26t-55.5 84h44q11 -36 40 -55t60 -19q32 0 60.5 18.5t39.5 55.5h44q-14 -58 -55 -84t-89 -26zM593 270q0 -123 -76 -202t-187 -79q-112 0 -188.5 79t-76.5 202q0 124 76.5 202.5t188.5 78.5q111 0 187 -78.5t76 -202.5zM538 270q0 101 -60.5 165
t-147.5 64q-88 0 -149 -64t-61 -165t61 -165.5t149 -64.5q87 0 147.5 64.5t60.5 165.5z" />
    <glyph glyph-name="Ohungarumlaut.small" horiz-adv-x="658" 
d="M362 685l-88 -106h-51l74 106h65zM514 685l-88 -106h-51l74 106h65zM593 270q0 -123 -76 -202t-187 -79q-112 0 -188.5 79t-76.5 202q0 124 76.5 202.5t188.5 78.5q111 0 187 -78.5t76 -202.5zM538 270q0 101 -60.5 165t-147.5 64q-88 0 -149 -64t-61 -165t61 -165.5
t149 -64.5q87 0 147.5 64.5t60.5 165.5z" />
    <glyph glyph-name="Oslash.small" horiz-adv-x="658" 
d="M168 43l-44 -54h-59l69 86q-69 79 -69 195q0 124 76.5 202.5t188.5 78.5q89 0 159 -53l43 53h61l-69 -86q69 -79 69 -195q0 -123 -76 -202t-187 -79q-93 0 -162 54zM120 270q0 -91 51 -155l284 341q-53 43 -125 43q-88 0 -149 -64t-61 -165zM538 270q0 92 -51 154
l-283 -341q53 -43 126 -43q87 0 147.5 64.5t60.5 165.5z" />
    <glyph glyph-name="Oslashacute.small" horiz-adv-x="658" 
d="M431 685l-89 -106h-50l74 106h65zM168 43l-44 -54h-59l69 86q-69 79 -69 195q0 124 76.5 202.5t188.5 78.5q89 0 159 -53l43 53h61l-69 -86q69 -79 69 -195q0 -123 -76 -202t-187 -79q-93 0 -162 54zM120 270q0 -91 51 -155l284 341q-53 43 -125 43q-88 0 -149 -64
t-61 -165zM538 270q0 92 -51 154l-283 -341q53 -43 126 -43q87 0 147.5 64.5t60.5 165.5z" />
    <glyph glyph-name="OE.small" horiz-adv-x="872" 
d="M68 270q0 128 78.5 199t203.5 71h453v-50h-301v-191h225v-49h-225v-200h301v-50h-459q-121 0 -198.5 72.5t-77.5 197.5zM125 270q0 -101 61 -160t156 -59h105v438h-106q-94 0 -155 -58.5t-61 -160.5z" />
    <glyph glyph-name="P.small" horiz-adv-x="514" 
d="M297 216h-137v-216h-55v540h188q77 0 126.5 -45.5t49.5 -116.5q0 -68 -48 -115t-124 -47zM414 377q0 45 -33.5 79t-94.5 34h-126v-225h130q58 0 91 34t33 78z" />
    <glyph glyph-name="Q.small" horiz-adv-x="658" 
d="M524 -53l-50 -9l-41 72q-47 -21 -103 -21q-112 0 -188.5 79t-76.5 202q0 124 76.5 202.5t188.5 78.5q111 0 187 -78.5t76 -202.5q0 -77 -31.5 -139t-86.5 -99zM538 270q0 101 -60.5 165t-147.5 64q-88 0 -149 -64t-61 -165t61 -165.5t149 -64.5q41 0 77 15l-49 86l49 8
l42 -71q89 67 89 192z" />
    <glyph glyph-name="R.small" horiz-adv-x="531" 
d="M479 0h-64l-144 238h-111v-238h-55v540h184q73 0 118.5 -42t45.5 -111q0 -55 -33 -95t-91 -51zM398 387q0 42 -29 72.5t-87 30.5h-122v-205h126q56 0 84 30t28 72z" />
    <glyph glyph-name="Racute.small" horiz-adv-x="531" 
d="M375 678l-89 -106h-50l74 106h65zM479 0h-64l-144 238h-111v-238h-55v540h184q73 0 118.5 -42t45.5 -111q0 -55 -33 -95t-91 -51zM398 387q0 42 -29 72.5t-87 30.5h-122v-205h126q56 0 84 30t28 72z" />
    <glyph glyph-name="Rcaron.small" horiz-adv-x="531" 
d="M261 595l86 83h54l-102 -106h-77l-101 106h54zM479 0h-64l-144 238h-111v-238h-55v540h184q73 0 118.5 -42t45.5 -111q0 -55 -33 -95t-91 -51zM398 387q0 42 -29 72.5t-87 30.5h-122v-205h126q56 0 84 30t28 72z" />
    <glyph glyph-name="Rcommaaccent.small" horiz-adv-x="531" 
d="M479 0h-64l-144 238h-111v-238h-55v540h184q73 0 118.5 -42t45.5 -111q0 -55 -33 -95t-91 -51zM398 387q0 42 -29 72.5t-87 30.5h-122v-205h126q56 0 84 30t28 72zM300 -62l-52 -138h-44l45 138h51z" />
    <glyph glyph-name="S.small" horiz-adv-x="495" 
d="M254 -11q-72 0 -126 36t-62 107l53 9q7 -53 46.5 -79t88.5 -26q56 0 90.5 29t34.5 78q0 37 -22 60t-54.5 32t-70.5 20t-70.5 23.5t-54.5 44.5t-22 80q0 67 48.5 107.5t120.5 40.5q75 0 122 -39.5t57 -103.5l-54 -10q-7 47 -40 76.5t-88 29.5q-47 0 -78.5 -25.5
t-31.5 -69.5q0 -32 16 -53.5t42 -32t57 -18t62.5 -17.5t57.5 -24.5t42 -43.5t16 -71q0 -72 -50.5 -116t-129.5 -44z" />
    <glyph glyph-name="Sacute.small" horiz-adv-x="495" 
d="M363 685l-89 -106h-50l74 106h65zM254 -11q-72 0 -126 36t-62 107l53 9q7 -53 46.5 -79t88.5 -26q56 0 90.5 29t34.5 78q0 37 -22 60t-54.5 32t-70.5 20t-70.5 23.5t-54.5 44.5t-22 80q0 67 48.5 107.5t120.5 40.5q75 0 122 -39.5t57 -103.5l-54 -10q-7 47 -40 76.5
t-88 29.5q-47 0 -78.5 -25.5t-31.5 -69.5q0 -32 16 -53.5t42 -32t57 -18t62.5 -17.5t57.5 -24.5t42 -43.5t16 -71q0 -72 -50.5 -116t-129.5 -44z" />
    <glyph glyph-name="Scircumflex.small" horiz-adv-x="495" 
d="M287 685l102 -106h-54l-86 83l-86 -83h-54l101 106h77zM254 -11q-72 0 -126 36t-62 107l53 9q7 -53 46.5 -79t88.5 -26q56 0 90.5 29t34.5 78q0 37 -22 60t-54.5 32t-70.5 20t-70.5 23.5t-54.5 44.5t-22 80q0 67 48.5 107.5t120.5 40.5q75 0 122 -39.5t57 -103.5l-54 -10
q-7 47 -40 76.5t-88 29.5q-47 0 -78.5 -25.5t-31.5 -69.5q0 -32 16 -53.5t42 -32t57 -18t62.5 -17.5t57.5 -24.5t42 -43.5t16 -71q0 -72 -50.5 -116t-129.5 -44z" />
    <glyph glyph-name="Scaron.small" horiz-adv-x="495" 
d="M249 602l86 83h54l-102 -106h-77l-101 106h54zM254 -11q-72 0 -126 36t-62 107l53 9q7 -53 46.5 -79t88.5 -26q56 0 90.5 29t34.5 78q0 37 -22 60t-54.5 32t-70.5 20t-70.5 23.5t-54.5 44.5t-22 80q0 67 48.5 107.5t120.5 40.5q75 0 122 -39.5t57 -103.5l-54 -10
q-7 47 -40 76.5t-88 29.5q-47 0 -78.5 -25.5t-31.5 -69.5q0 -32 16 -53.5t42 -32t57 -18t62.5 -17.5t57.5 -24.5t42 -43.5t16 -71q0 -72 -50.5 -116t-129.5 -44z" />
    <glyph glyph-name="Scedilla.small" horiz-adv-x="495" 
d="M276 -10l-42 -190l-48 7l42 183q-63 6 -108 42t-54 100l53 9q7 -53 46.5 -79t88.5 -26q56 0 90.5 29t34.5 78q0 37 -22 60t-54.5 32t-70.5 20t-70.5 23.5t-54.5 44.5t-22 80q0 67 48.5 107.5t120.5 40.5q75 0 122 -39.5t57 -103.5l-54 -10q-7 47 -40 76.5t-88 29.5
q-47 0 -78.5 -25.5t-31.5 -69.5q0 -32 16 -53.5t42 -32t57 -18t62.5 -17.5t57.5 -24.5t42 -43.5t16 -71q0 -68 -44 -110.5t-114 -48.5z" />
    <glyph glyph-name="Scommaaccent.small" horiz-adv-x="495" 
d="M254 -11q-72 0 -126 36t-62 107l53 9q7 -53 46.5 -79t88.5 -26q56 0 90.5 29t34.5 78q0 37 -22 60t-54.5 32t-70.5 20t-70.5 23.5t-54.5 44.5t-22 80q0 67 48.5 107.5t120.5 40.5q75 0 122 -39.5t57 -103.5l-54 -10q-7 47 -40 76.5t-88 29.5q-47 0 -78.5 -25.5
t-31.5 -69.5q0 -32 16 -53.5t42 -32t57 -18t62.5 -17.5t57.5 -24.5t42 -43.5t16 -71q0 -72 -50.5 -116t-129.5 -44zM279 -62l-52 -138h-44l45 138h51z" />
    <glyph glyph-name="germandbls.small" horiz-adv-x="988" 
d="M748 -11q-73 0 -127.5 39t-61.5 113h55q7 -53 45.5 -79.5t89.5 -26.5q56 0 90 29.5t34 78.5q0 43 -30.5 67t-74 34.5t-87 22.5t-74 45.5t-30.5 90.5q0 67 48 107.5t119 40.5q78 0 126 -43t55 -110h-54q-7 47 -40 76.5t-88 29.5q-48 0 -79 -25.5t-31 -69.5q0 -43 30.5 -67
t74 -34.5t87 -22.5t74 -45.5t30.5 -90.5q0 -72 -51 -116t-130 -44zM254 -11q-72 0 -126 36t-62 107l53 9q7 -53 46.5 -79t88.5 -26q56 0 90.5 29t34.5 78q0 37 -22 60t-54.5 32t-70.5 20t-70.5 23.5t-54.5 44.5t-22 80q0 67 48.5 107.5t120.5 40.5q75 0 122 -39.5t57 -103.5
l-54 -10q-7 47 -40 76.5t-88 29.5q-47 0 -78.5 -25.5t-31.5 -69.5q0 -32 16 -53.5t42 -32t57 -18t62.5 -17.5t57.5 -24.5t42 -43.5t16 -71q0 -72 -50.5 -116t-129.5 -44z" />
    <glyph glyph-name="T.small" horiz-adv-x="460" 
d="M33 540h394v-51h-169v-489h-55v489h-170v51z" />
    <glyph glyph-name="Tcaron.small" horiz-adv-x="460" 
d="M229 602l86 83h54l-102 -106h-77l-101 106h54zM33 540h394v-51h-169v-489h-55v489h-170v51z" />
    <glyph glyph-name="Tcommaaccent.small" horiz-adv-x="460" 
d="M33 540h394v-51h-169v-489h-55v489h-170v51zM255 -62l-52 -138h-44l45 138h51z" />
    <glyph glyph-name="Tbar.small" horiz-adv-x="460" 
d="M396 277v-45h-138v-232h-55v232h-139v45h139v212h-170v51h394v-51h-169v-212h138z" />
    <glyph glyph-name="Thorn.small" horiz-adv-x="514" 
d="M105 540h55v-108h133q77 0 126.5 -45.5t49.5 -116.5q0 -68 -48 -115t-124 -47h-137v-108h-55v540zM286 383h-126v-226h130q58 0 91 34t33 78q0 46 -33.5 80t-94.5 34z" />
    <glyph glyph-name="U.small" horiz-adv-x="605" 
d="M302 -11q-98 0 -154.5 57.5t-56.5 170.5v323h54v-319q0 -89 42.5 -134.5t114.5 -45.5q74 0 116 45t42 135v319h54v-322q0 -114 -56.5 -171.5t-155.5 -57.5z" />
    <glyph glyph-name="Ugrave.small" horiz-adv-x="605" 
d="M254 685l75 -106h-51l-88 106h64zM302 -11q-98 0 -154.5 57.5t-56.5 170.5v323h54v-319q0 -89 42.5 -134.5t114.5 -45.5q74 0 116 45t42 135v319h54v-322q0 -114 -56.5 -171.5t-155.5 -57.5z" />
    <glyph glyph-name="Uacute.small" horiz-adv-x="605" 
d="M417 685l-89 -106h-50l74 106h65zM302 -11q-98 0 -154.5 57.5t-56.5 170.5v323h54v-319q0 -89 42.5 -134.5t114.5 -45.5q74 0 116 45t42 135v319h54v-322q0 -114 -56.5 -171.5t-155.5 -57.5z" />
    <glyph glyph-name="Ucircumflex.small" horiz-adv-x="605" 
d="M341 685l102 -106h-54l-86 83l-86 -83h-54l101 106h77zM302 -11q-98 0 -154.5 57.5t-56.5 170.5v323h54v-319q0 -89 42.5 -134.5t114.5 -45.5q74 0 116 45t42 135v319h54v-322q0 -114 -56.5 -171.5t-155.5 -57.5z" />
    <glyph glyph-name="Utilde.small" horiz-adv-x="605" 
d="M369 589q-29 0 -69.5 25t-60.5 25q-37 0 -48 -48h-35q7 42 28.5 63.5t52.5 21.5q28 0 69.5 -25t61.5 -25q36 0 47 48h35q-7 -42 -28.5 -63.5t-52.5 -21.5zM302 -11q-98 0 -154.5 57.5t-56.5 170.5v323h54v-319q0 -89 42.5 -134.5t114.5 -45.5q74 0 116 45t42 135v319h54
v-322q0 -114 -56.5 -171.5t-155.5 -57.5z" />
    <glyph glyph-name="Udieresis.small" horiz-adv-x="605" 
d="M234 679v-94h-51v94h51zM423 679v-94h-50v94h50zM302 -11q-98 0 -154.5 57.5t-56.5 170.5v323h54v-319q0 -89 42.5 -134.5t114.5 -45.5q74 0 116 45t42 135v319h54v-322q0 -114 -56.5 -171.5t-155.5 -57.5z" />
    <glyph glyph-name="Umacron.small" horiz-adv-x="605" 
d="M465 652v-40h-324v40h324zM302 -11q-98 0 -154.5 57.5t-56.5 170.5v323h54v-319q0 -89 42.5 -134.5t114.5 -45.5q74 0 116 45t42 135v319h54v-322q0 -114 -56.5 -171.5t-155.5 -57.5z" />
    <glyph glyph-name="Ubreve.small" horiz-adv-x="605" 
d="M303 575q-48 0 -88.5 26t-55.5 84h44q11 -36 40 -55t60 -19q32 0 60.5 18.5t39.5 55.5h44q-14 -58 -55 -84t-89 -26zM302 -11q-98 0 -154.5 57.5t-56.5 170.5v323h54v-319q0 -89 42.5 -134.5t114.5 -45.5q74 0 116 45t42 135v319h54v-322q0 -114 -56.5 -171.5
t-155.5 -57.5z" />
    <glyph glyph-name="Uring.small" horiz-adv-x="605" 
d="M303 585q-42 0 -71 28t-29 68q0 41 28.5 69t71.5 28q44 0 72 -27.5t28 -69.5q0 -40 -28 -68t-72 -28zM303 616q29 0 47 19t18 46q0 28 -18 46.5t-47 18.5t-47 -18.5t-18 -46.5q0 -27 18 -46t47 -19zM302 -11q-98 0 -154.5 57.5t-56.5 170.5v323h54v-319
q0 -89 42.5 -134.5t114.5 -45.5q74 0 116 45t42 135v319h54v-322q0 -114 -56.5 -171.5t-155.5 -57.5z" />
    <glyph glyph-name="Uhungarumlaut.small" horiz-adv-x="605" 
d="M335 685l-88 -106h-51l74 106h65zM487 685l-88 -106h-51l74 106h65zM302 -11q-98 0 -154.5 57.5t-56.5 170.5v323h54v-319q0 -89 42.5 -134.5t114.5 -45.5q74 0 116 45t42 135v319h54v-322q0 -114 -56.5 -171.5t-155.5 -57.5z" />
    <glyph glyph-name="Uogonek.small" horiz-adv-x="605" 
d="M351 -200q-50 0 -78.5 22t-28.5 59q0 63 62 106v4q-1 0 -8.5 -0.5t-12.5 -0.5q-90 5 -142 62t-52 165v323h54v-319q0 -89 42.5 -134.5t114.5 -45.5q74 0 116 45t42 135v319h54v-322q0 -85 -31 -137.5t-99 -81.5q-93 -39 -93 -107q0 -26 17.5 -41t48.5 -15q8 0 29 3v-36
q-16 -3 -35 -3z" />
    <glyph glyph-name="V.small" horiz-adv-x="535" 
d="M505 540l-209 -548h-58l-208 548h59l178 -475h3l178 475h57z" />
    <glyph glyph-name="W.small" horiz-adv-x="773" 
d="M185 -8l-150 548h59l123 -454h4l139 454h56l141 -454h4l121 454h56l-149 -548h-58l-143 462h-2l-143 -462h-58z" />
    <glyph glyph-name="Wgrave.small" horiz-adv-x="773" 
d="M338 685l75 -106h-51l-88 106h64zM185 -8l-150 548h59l123 -454h4l139 454h56l141 -454h4l121 454h56l-149 -548h-58l-143 462h-2l-143 -462h-58z" />
    <glyph glyph-name="Wacute.small" horiz-adv-x="773" 
d="M500 685l-89 -106h-50l74 106h65zM185 -8l-150 548h59l123 -454h4l139 454h56l141 -454h4l121 454h56l-149 -548h-58l-143 462h-2l-143 -462h-58z" />
    <glyph glyph-name="Wcircumflex.small" horiz-adv-x="773" 
d="M425 685l102 -106h-54l-86 83l-86 -83h-54l101 106h77zM185 -8l-150 548h59l123 -454h4l139 454h56l141 -454h4l121 454h56l-149 -548h-58l-143 462h-2l-143 -462h-58z" />
    <glyph glyph-name="Wdieresis.small" horiz-adv-x="773" 
d="M318 679v-94h-51v94h51zM507 679v-94h-50v94h50zM185 -8l-150 548h59l123 -454h4l139 454h56l141 -454h4l121 454h56l-149 -548h-58l-143 462h-2l-143 -462h-58z" />
    <glyph glyph-name="X.small" horiz-adv-x="559" 
d="M312 281l192 -281h-63l-162 237l-161 -237h-63l191 281l-176 259h64l146 -216l147 216h62z" />
    <glyph glyph-name="Y.small" horiz-adv-x="493" 
d="M274 232v-232h-54v232l-189 308h65l151 -252h4l151 252h60z" />
    <glyph glyph-name="Ygrave.small" horiz-adv-x="493" 
d="M197 685l75 -106h-51l-88 106h64zM274 232v-232h-54v232l-189 308h65l151 -252h4l151 252h60z" />
    <glyph glyph-name="Yacute.small" horiz-adv-x="493" 
d="M360 685l-89 -106h-50l74 106h65zM274 232v-232h-54v232l-189 308h65l151 -252h4l151 252h60z" />
    <glyph glyph-name="Ycircumflex.small" horiz-adv-x="493" 
d="M284 685l102 -106h-54l-86 83l-86 -83h-54l101 106h77zM274 232v-232h-54v232l-189 308h65l151 -252h4l151 252h60z" />
    <glyph glyph-name="Ydieresis.small" horiz-adv-x="493" 
d="M177 679v-94h-51v94h51zM366 679v-94h-50v94h50zM274 232v-232h-54v232l-189 308h65l151 -252h4l151 252h60z" />
    <glyph glyph-name="Z.small" horiz-adv-x="510" 
d="M449 51v-51h-383v49l310 440h-291v51h360v-49l-310 -440h314z" />
    <glyph glyph-name="Zacute.small" horiz-adv-x="510" 
d="M378 685l-89 -106h-50l74 106h65zM449 51v-51h-383v49l310 440h-291v51h360v-49l-310 -440h314z" />
    <glyph glyph-name="Zcaron.small" horiz-adv-x="510" 
d="M264 602l86 83h54l-102 -106h-77l-101 106h54zM449 51v-51h-383v49l310 440h-291v51h360v-49l-310 -440h314z" />
    <glyph glyph-name="Zdotaccent.small" horiz-adv-x="510" 
d="M290 663v-61h-52v61h52zM449 51v-51h-383v49l310 440h-291v51h360v-49l-310 -440h314z" />
    <glyph glyph-name="a.superior" horiz-adv-x="411" 
d="M343 584v-234h-46v46h-1q-16 -25 -47.5 -41t-68.5 -16q-53 0 -87 30t-34 76q0 55 38.5 85.5t106.5 30.5q53 0 91 -20v43q0 40 -22 62t-64 22q-31 0 -55 -15t-33 -41l-46 9q14 42 51 66t86 24q60 0 95.5 -34t35.5 -93zM107 449q0 -31 23 -49t62 -18q40 0 71.5 25.5
t31.5 55.5v38q-35 21 -89 21q-47 0 -73 -19.5t-26 -53.5z" />
    <glyph glyph-name="b.superior" horiz-adv-x="456" 
d="M419 525q0 -80 -47 -133.5t-121 -53.5q-42 0 -76.5 17.5t-50.5 45.5h-2v-51h-44v499h47v-203q16 29 51 47.5t77 18.5q73 0 119.5 -53t46.5 -134zM372 525q0 62 -34 103t-92 41q-55 0 -88.5 -40t-33.5 -104t33.5 -104t88.5 -40q58 0 92 41t34 103z" />
    <glyph glyph-name="c.superior" horiz-adv-x="389" 
d="M203 712q59 0 98.5 -29t55.5 -81l-46 -10q-27 77 -108 77q-56 0 -87 -40.5t-31 -103.5t31 -103.5t87 -40.5q80 0 108 78l45 -11q-16 -52 -55 -81t-98 -29q-74 0 -119.5 53t-45.5 134t45.5 134t119.5 53z" />
    <glyph glyph-name="d.superior" horiz-adv-x="456" 
d="M37 525q0 81 48.5 134t123.5 53q41 0 74 -16.5t48 -45.5v199h48v-499h-44v56h-3q-16 -31 -50 -49.5t-76 -18.5q-73 0 -121 53t-48 134zM85 525q0 -62 34.5 -103t90.5 -41t89.5 40t33.5 104t-33.5 104t-89.5 40t-90.5 -41t-34.5 -103z" />
    <glyph glyph-name="e.superior" horiz-adv-x="404" 
d="M315 442l39 -14q-39 -90 -143 -90q-78 0 -125.5 53t-47.5 134t45 134t120 53q68 0 116 -47t49 -132v-17h-283q3 -61 36.5 -99t90.5 -38q71 0 103 63zM203 674q-50 0 -80.5 -33.5t-36.5 -89.5h234q-4 61 -37 92t-80 31z" />
    <glyph glyph-name="f.superior" horiz-adv-x="229" 
d="M82 659h-73v41h73v42q0 55 28 86.5t83 31.5q28 0 46 -6v-40q-17 5 -38 5q-72 0 -72 -81v-38h110v-41h-110v-309h-47v309z" />
    <glyph glyph-name="g.superior" horiz-adv-x="443" 
d="M40 537q0 77 46 126t117 49q80 0 115 -56h2v44h45v-326q0 -79 -42 -123t-116 -44q-52 0 -93 27t-55 70l49 9q8 -28 35.5 -45.5t64.5 -17.5q53 0 81.5 30.5t28.5 86.5v60q-15 -30 -49 -47t-74 -17q-67 0 -111 48.5t-44 125.5zM87 538q0 -58 32.5 -95t83.5 -37
q53 0 85.5 37t32.5 95t-32 94.5t-86 36.5q-51 0 -83.5 -36.5t-32.5 -94.5z" />
    <glyph glyph-name="h.superior" horiz-adv-x="433" 
d="M78 350v499h47v-194q37 57 111 57q59 0 94.5 -38t35.5 -101v-223h-48v208q0 53 -22 82t-64 29q-45 0 -76 -32.5t-31 -80.5v-206h-47z" />
    <glyph glyph-name="i.superior" horiz-adv-x="202" 
d="M125 849v-75h-47v75h47zM125 700v-350h-47v350h47z" />
    <glyph glyph-name="j.superior" horiz-adv-x="176" 
d="M99 849v-75h-47v75h47zM-14 214q-16 0 -30 3v42q15 -3 22 -3q74 0 74 86v358h47v-362q0 -59 -29 -91.5t-84 -32.5z" />
    <glyph glyph-name="k.superior" horiz-adv-x="361" 
d="M125 524v-174h-47v499h47v-301l166 152h57l-176 -160l197 -190h-62z" />
    <glyph glyph-name="l.superior" horiz-adv-x="203" 
d="M78 350v499h47v-499h-47z" />
    <glyph glyph-name="m.superior" horiz-adv-x="652" 
d="M583 576v-226h-46v211q0 108 -83 108q-42 0 -71 -31t-29 -75v-213h-47v211q0 108 -83 108q-40 0 -70 -31q-29 -32 -29 -75v-213h-47v350h44v-46h2q31 58 104 58q42 0 72.5 -20t37.5 -51q13 32 45.5 51.5t75.5 19.5q58 0 91 -36.5t33 -99.5z" />
    <glyph glyph-name="n.superior" horiz-adv-x="433" 
d="M366 573v-223h-48v208q0 51 -21.5 81t-64.5 30q-44 0 -75.5 -32.5t-31.5 -80.5v-206h-47v350h44v-49h3q33 61 113 61q61 0 94.5 -37t33.5 -102z" />
    <glyph glyph-name="o.superior" horiz-adv-x="422" 
d="M38 525q0 81 49.5 134t124.5 53q76 0 124 -52.5t48 -134.5q0 -81 -48.5 -134t-123.5 -53t-124.5 53t-49.5 134zM85 525q0 -62 35 -103t92 -41q58 0 91.5 40.5t33.5 103.5q0 64 -33.5 104t-91.5 40q-57 0 -92 -40.5t-35 -103.5z" />
    <glyph glyph-name="p.superior" horiz-adv-x="456" 
d="M419 525q0 -81 -48 -134t-124 -53q-86 0 -122 62v-199h-47v499h44v-56h3q16 31 50 49.5t76 18.5q73 0 120.5 -52.5t47.5 -134.5zM372 525q0 62 -34 103t-92 41q-55 0 -89 -40t-34 -104t34 -104t89 -40q58 0 92 41t34 103z" />
    <glyph glyph-name="q.superior" horiz-adv-x="457" 
d="M37 525q0 81 47.5 134t121.5 53q41 0 76 -17.5t51 -44.5h2v50h44v-499h-48v203q-16 -30 -51 -48t-77 -18q-72 0 -119 53.5t-47 133.5zM85 525q0 -62 34.5 -103t90.5 -41t89.5 40t33.5 104t-33.5 104t-89.5 40t-90.5 -41t-34.5 -103z" />
    <glyph glyph-name="r.superior" horiz-adv-x="256" 
d="M78 350v350h44v-54h2q25 63 101 63q19 0 31 -5v-45q-13 5 -30 5q-44 0 -72.5 -34t-28.5 -94v-186h-47z" />
    <glyph glyph-name="s.superior" horiz-adv-x="340" 
d="M177 338q-54 0 -89.5 25.5t-42.5 67.5l43 7q6 -29 30 -45.5t61 -16.5t57 19t20 50q0 27 -21 41.5t-50.5 21t-59.5 14.5t-51 30t-21 60q0 43 33 71.5t87 28.5q52 0 87 -27.5t39 -65.5l-44 -7q-3 25 -25.5 43.5t-56.5 18.5q-36 0 -55 -17t-19 -42q0 -26 21 -40.5t51 -21
t60 -14.5t51 -30.5t21 -60.5q0 -51 -35.5 -80.5t-90.5 -29.5z" />
    <glyph glyph-name="t.superior" horiz-adv-x="250" 
d="M187 343q-108 0 -108 121v195h-72v41h72v78l47 9v-87h117v-41h-117v-186q0 -47 17 -68t55 -21q28 0 42 11l8 -38q-24 -14 -61 -14z" />
    <glyph glyph-name="u.superior" horiz-adv-x="433" 
d="M355 700v-350h-43v49h-3q-36 -61 -114 -61q-60 0 -93.5 37.5t-33.5 101.5v223h47v-208q0 -50 21.5 -80.5t64.5 -30.5q45 0 76 32.5t31 80.5v206h47z" />
    <glyph glyph-name="v.superior" horiz-adv-x="364" 
d="M349 700l-146 -356h-42l-145 356h51l116 -296h2l116 296h48z" />
    <glyph glyph-name="w.superior" horiz-adv-x="549" 
d="M530 700l-111 -356h-45l-99 294l-99 -294h-47l-110 356h49l88 -289h2l97 289h44l97 -289h1l87 289h46z" />
    <glyph glyph-name="x.superior" horiz-adv-x="335" 
d="M197 531l129 -181h-54l-106 149l-104 -149h-52l128 179l-121 171h53l99 -139l98 139h52z" />
    <glyph glyph-name="y.superior" horiz-adv-x="364" 
d="M349 700l-202 -493h-47l64 153l-150 340h51l124 -285l113 285h47z" />
    <glyph glyph-name="z.superior" horiz-adv-x="338" 
d="M57 700h253v-38l-216 -272h226v-40h-281v37l216 274h-198v39z" />
    <glyph glyph-name="grave.cap" horiz-adv-x="500" 
d="M242 846l75 -106h-51l-88 106h64z" />
    <glyph glyph-name="acute.cap" horiz-adv-x="500" 
d="M323 846l-89 -106h-50l74 106h65z" />
    <glyph glyph-name="circumflex.cap" horiz-adv-x="500" 
d="M288 846l102 -106h-54l-86 83l-86 -83h-54l101 106h77z" />
    <glyph glyph-name="caron.cap" horiz-adv-x="500" 
d="M250 763l86 83h54l-102 -106h-77l-101 106h54z" />
    <glyph glyph-name="caronSlovak" horiz-adv-x="500" 
d="M299 700l-56 -205h-42l46 205h52z" />
    <glyph glyph-name="tilde.cap" horiz-adv-x="500" 
d="M315 750q-29 0 -69.5 25t-60.5 25q-37 0 -48 -48h-35q7 42 28.5 63.5t52.5 21.5q28 0 69.5 -25t61.5 -25q36 0 47 48h35q-7 -42 -28.5 -63.5t-52.5 -21.5z" />
    <glyph glyph-name="dieresis.cap" horiz-adv-x="500" 
d="M181 840v-94h-51v94h51zM370 840v-94h-50v94h50z" />
    <glyph glyph-name="macron.cap" horiz-adv-x="500" 
d="M412 813v-40h-324v40h324z" />
    <glyph glyph-name="breve.cap" horiz-adv-x="500" 
d="M250 736q-48 0 -88.5 26t-55.5 84h44q11 -36 40 -55t60 -19q32 0 60.5 18.5t39.5 55.5h44q-14 -58 -55 -84t-89 -26z" />
    <glyph glyph-name="ring.cap" horiz-adv-x="500" 
d="M250 746q-42 0 -71 28t-29 68q0 41 28.5 69t71.5 28q44 0 72 -27.5t28 -69.5q0 -40 -28 -68t-72 -28zM250 777q29 0 47 19t18 46q0 28 -18 46.5t-47 18.5t-47 -18.5t-18 -46.5q0 -27 18 -46t47 -19z" />
    <glyph glyph-name="hungarumlaut.cap" horiz-adv-x="500" 
d="M246 846l-88 -106h-51l74 106h65zM398 846l-88 -106h-51l74 106h65z" />
    <glyph glyph-name="dotaccent.cap" horiz-adv-x="500" 
d="M276 824v-61h-52v61h52z" />
    <glyph glyph-name="commaaccent.alt" horiz-adv-x="500" 
d="M202 562l51 138h45l-45 -138h-51z" />
    <glyph glyph-name="hyphen.cap" horiz-adv-x="270" 
d="M250 328h-230v43h230v-43z" />
    <glyph glyph-name="exclamdown.cap" horiz-adv-x="296" 
d="M118 700h61v-82h-61v82zM117 0l8 506h46l9 -506h-63z" />
    <glyph glyph-name="questiondown.cap" horiz-adv-x="498" 
d="M246 700h60v-82h-60v82zM249 497v9h54v-14q0 -42 -17.5 -77.5t-43 -61.5t-50.5 -51.5t-42.5 -59.5t-17.5 -74q0 -52 37 -92t99 -40q74 0 114 53.5t40 121.5l53 -4q-3 -89 -56.5 -155.5t-150.5 -66.5q-90 0 -141.5 54.5t-51.5 127.5q0 48 18 87t43.5 66t51 51.5t43.5 56.5
t18 69z" />
    <glyph glyph-name="guilsinglleft.cap" horiz-adv-x="279" 
d="M118 350l99 -202h-52l-99 202l99 202h52z" />
    <glyph glyph-name="guilsinglright.cap" horiz-adv-x="279" 
d="M213 350l-99 -202h-52l99 202l-99 202h52z" />
    <glyph glyph-name="guillemotleft.cap" horiz-adv-x="430" 
d="M118 350l99 -202h-52l-99 202l99 202h52zM269 350l99 -202h-52l-99 202l99 202h52z" />
    <glyph glyph-name="guillemotright.cap" horiz-adv-x="430" 
d="M213 350l-99 -202h-52l99 202l-99 202h52zM364 350l-99 -202h-52l99 202l-99 202h52z" />
    <glyph glyph-name="endash.cap" horiz-adv-x="500" 
d="M480 328h-460v43h460v-43z" />
    <glyph glyph-name="emdash.cap" horiz-adv-x="1000" 
d="M980 328h-960v43h960v-43z" />
    <glyph glyph-name="periodcentered.cap" horiz-adv-x="255" 
d="M156 309h-58v96h58v-96z" />
    <glyph glyph-name="parenleft.cap" horiz-adv-x="279" 
d="M46 350q0 145 47 251t106 154h56q-71 -60 -115 -165t-44 -240t44 -240t115 -165h-56q-58 47 -105.5 154t-47.5 251z" />
    <glyph glyph-name="parenright.cap" horiz-adv-x="279" 
d="M233 350q0 -144 -47 -251.5t-106 -153.5h-56q71 58 115 164t44 241t-44 241t-115 164h56q59 -47 106 -153.5t47 -251.5z" />
    <glyph glyph-name="parenleft.small" horiz-adv-x="220" 
d="M36 269q0 111 35.5 194t79.5 119h51q-54 -47 -87.5 -128.5t-33.5 -184.5q0 -102 33.5 -183t87.5 -128h-51q-44 35 -79.5 118t-35.5 193z" />
    <glyph glyph-name="parenright.small" horiz-adv-x="220" 
d="M184 271q0 -110 -35.5 -193t-79.5 -120h-51q54 47 87.5 128.5t33.5 184.5q0 102 -34 184t-87 127h51q44 -35 79.5 -118t35.5 -193z" />
    <glyph glyph-name="bracketleft.cap" horiz-adv-x="261" 
d="M231 -12v-43h-159v810h159v-43h-111v-724h111z" />
    <glyph glyph-name="bracketright.cap" horiz-adv-x="261" 
d="M30 712v43h159v-810h-159v43h111v724h-111z" />
    <glyph glyph-name="bracketleft.small" horiz-adv-x="207" 
d="M184 -1v-41h-128v624h128v-42h-82v-541h82z" />
    <glyph glyph-name="bracketright.small" horiz-adv-x="207" 
d="M23 541v41h128v-624h-128v42h82v541h-82z" />
    <glyph glyph-name="braceleft.cap" horiz-adv-x="297" 
d="M268 -13v-42q-31 2 -50.5 5t-43.5 13.5t-38 28.5t-23.5 50.5t-9.5 78.5v133q0 46 -15 60.5t-77 15.5v40q62 1 77 16t15 60v133q0 46 9.5 78.5t23.5 50.5t38 28.5t43.5 13.5t50.5 5v-42q-64 -2 -91 -29t-27 -108v-134q0 -47 -15.5 -67t-56.5 -23v-4q41 -3 56.5 -22.5
t15.5 -67.5v-134q0 -80 26.5 -107t91.5 -30z" />
    <glyph glyph-name="braceright.cap" horiz-adv-x="297" 
d="M29 713v42q39 -2 63 -7.5t50.5 -22.5t39 -53t12.5 -93v-133q0 -45 15 -60t77 -16v-40q-62 -1 -77 -15.5t-15 -60.5v-133q0 -57 -12.5 -93t-39 -53t-50.5 -22.5t-63 -7.5v42q65 3 91.5 30t26.5 107v134q0 48 15.5 67.5t56.5 22.5v4q-41 3 -56.5 22.5t-15.5 67.5v134
q0 81 -27 108t-91 29z" />
    <glyph glyph-name="braceleft.small" horiz-adv-x="236" 
d="M213 -2v-40q-67 3 -99 31.5t-32 107.5v96q0 33 -12 44t-60 12v41q49 1 60.5 11.5t11.5 43.5v97q0 80 32 108.5t99 31.5v-40q-47 -1 -66.5 -20.5t-19.5 -77.5v-98q0 -40 -13 -56t-47 -19v-3q34 -3 47 -19.5t13 -58.5v-93q0 -59 19 -78t67 -21z" />
    <glyph glyph-name="braceright.small" horiz-adv-x="236" 
d="M23 542v40q66 -2 98.5 -31t32.5 -108v-96q0 -32 12 -43.5t60 -12.5v-41q-48 -1 -60 -11.5t-12 -43.5v-97q0 -80 -32 -108.5t-99 -31.5v40q43 1 65 19q21 18 21 79v98q0 41 13 56.5t47 18.5v3q-34 3 -47 19.5t-13 58.5v93q0 59 -19 78t-67 21z" />
    <glyph glyph-name="at.small" horiz-adv-x="896" 
d="M419 64q-71 0 -112.5 48t-41.5 126q0 100 53 170t142 70q44 0 76.5 -21t42.5 -57h2l8 58h51l-35 -251q-6 -48 9.5 -73.5t48.5 -25.5q53 0 88 56t35 142q0 146 -95 242.5t-240 96.5q-144 0 -241.5 -108.5t-97.5 -270.5q0 -159 98.5 -265t244.5 -106q62 0 125 24t103 64
l25 -33q-38 -42 -111.5 -71t-146.5 -29q-164 0 -274.5 118t-110.5 296q0 182 111.5 304t274.5 122q164 0 273 -109t109 -272q0 -107 -50 -176t-125 -69q-40 0 -65.5 22t-28.5 61h-2q-17 -37 -56 -60t-87 -23zM426 108q62 0 103.5 55t41.5 133q0 64 -30 101t-83 37
q-61 0 -103 -55t-42 -133q0 -64 30 -101t83 -37z" />
    <glyph glyph-name="at.cap" horiz-adv-x="896" 
d="M419 144q-71 0 -112.5 48t-41.5 126q0 100 53 170t142 70q44 0 76.5 -21t42.5 -57h2l8 58h51l-35 -251q-6 -48 9.5 -73.5t48.5 -25.5q53 0 88 56t35 142q0 146 -95 242.5t-240 96.5q-144 0 -241.5 -108.5t-97.5 -270.5q0 -159 98.5 -265t244.5 -106q62 0 125 24t103 64
l25 -33q-38 -42 -111.5 -71t-146.5 -29q-164 0 -274.5 118t-110.5 296q0 182 111.5 304t274.5 122q164 0 273 -109t109 -272q0 -106 -50 -175.5t-125 -69.5q-40 0 -65.5 22t-28.5 61h-2q-17 -37 -56 -60t-87 -23zM426 188q62 0 103.5 55t41.5 133q0 64 -30 101t-83 37
q-61 0 -103 -55t-42 -133q0 -64 30 -101t83 -37z" />
    <glyph glyph-name="zero.slash" horiz-adv-x="588" 
d="M294 -15q-115 0 -180 101.5t-65 263.5t65 263.5t180 101.5t180 -101.5t65 -263.5t-65 -263.5t-180 -101.5zM106 350q0 -123 39 -209l271 461q-46 63 -122 63q-90 0 -139 -87.5t-49 -227.5zM294 35q90 0 139 87.5t49 227.5q0 128 -40 209l-272 -460q50 -64 124 -64z" />
    <glyph glyph-name="numbersign.LT" 
d="M385 210l-45 -210h-44l45 210h-175l-45 -210h-45l45 210h-113v43h122l42 194h-113v43h123l45 210h45l-46 -210h175l46 210h44l-46 -210h114v-43h-123l-42 -194h114v-43h-123zM173 251h178l43 197h-178z" />
    <glyph glyph-name="Euro.LT" 
d="M335 -15q-104 0 -164.5 72t-77.5 196h-87v40h83q-2 38 -2 57q0 23 2 57h-83v40h87q17 125 78 196.5t166 71.5q131 0 187 -122l-54 -16q-38 88 -135 88q-86 0 -129 -61q-44 -60 -57 -157h266v-40h-270q-2 -34 -2 -57q0 -19 2 -57h270v-40h-266q13 -96 57 -158
q44 -60 129 -60q46 0 81.5 23t53.5 65l53 -17q-26 -58 -75 -89.5t-113 -31.5z" />
    <glyph glyph-name="dollar.LT" 
d="M310 3v-104h-46v105q-72 7 -128 48q-55 42 -66 122l50 12q8 -68 58 -102t118 -34q72 0 114 38.5t42 102.5q0 42 -20.5 70t-53 42t-72 23.5t-79.5 21t-72.5 29.5t-53 54t-20.5 88q0 76 51.5 124t131.5 53v106h46v-106q78 -8 125.5 -53.5t56.5 -111.5l-51 -13
q-6 57 -49 94.5t-113 37.5q-62 0 -102.5 -34t-40.5 -93q0 -42 20.5 -70t53.5 -41.5t72.5 -23.5t79 -21.5t72.5 -29t53.5 -53.5t20.5 -88q0 -83 -55 -135t-143 -58z" />
    <glyph glyph-name="cent.LT" 
d="M317 -14v-87h-46v87q-94 10 -149.5 81.5t-55.5 176.5q0 106 55.5 178.5t149.5 81.5v87h46v-87q144 -10 189 -150l-51 -13q-41 116 -160 116q-83 0 -129.5 -60.5t-46.5 -152.5q0 -91 46.5 -151t129.5 -60q118 0 159 116l52 -11q-45 -141 -189 -152z" />
    <glyph glyph-name="sterling.LT" 
d="M499 51v-51h-429v44q20 11 33 21t30.5 29t26.5 49.5t9 70.5q0 39 -15 116h-100v40h92q-18 94 -18 145q0 99 55.5 149.5t139.5 50.5q72 0 117 -35t62 -85l-51 -16q-11 34 -42.5 60t-85.5 26q-57 0 -98.5 -35t-41.5 -112q0 -35 20 -148h187v-40h-179q14 -65 14 -111
q0 -111 -79 -164v-4h353z" />
    <glyph glyph-name="florin.LT" 
d="M513 370v-40h-254v-431h-54v431h-151v40h151v95q0 122 62 186t158 64q48 0 79 -12v-51q-24 13 -79 13q-69 0 -117.5 -49.5t-48.5 -156.5v-89h254z" />
    <glyph glyph-name="yen.LT" 
d="M311 253v-253h-54v253h-211v40h211v20l-59 94h-152v40h128l-157 253h66l201 -330h4l201 330h62l-158 -253h129v-40h-153l-58 -94v-20h211v-40h-211z" />
    <glyph glyph-name="zero.slash.LT" 
d="M284 -15q-80 0 -132.5 53.5t-73 132t-20.5 179.5q0 74 12.5 137.5t38 115.5t70 82t104.5 30q80 0 132.5 -53.5t73 -132t20.5 -179.5q0 -74 -12.5 -137.5t-38 -115.5t-70 -82t-104.5 -30zM114 350q0 -108 24 -183l271 413q-44 85 -126 85q-60 0 -99.5 -46.5t-54.5 -114
t-15 -154.5zM284 35q60 0 99.5 46.5t54.5 114t15 154.5q0 108 -24 181l-271 -412q44 -84 126 -84z" />
    <glyph glyph-name="zero.LT" 
d="M284 -15q-80 0 -132.5 53.5t-73 132t-20.5 179.5q0 74 12.5 137.5t38 115.5t70 82t104.5 30q80 0 132.5 -53.5t73 -132t20.5 -179.5q0 -74 -12.5 -137.5t-38 -115.5t-70 -82t-104.5 -30zM284 35q60 0 99.5 46.5t54.5 114t15 154.5q0 135 -41.5 225t-128.5 90
q-60 0 -99.5 -46.5t-54.5 -114t-15 -154.5q0 -135 41.5 -225t128.5 -90z" />
    <glyph glyph-name="one.LT" 
d="M103 543l-9 54l212 103h49v-700h-54v642z" />
    <glyph glyph-name="two.LT" 
d="M74 0v49l229 225q77 77 108 131t31 113q0 53 -37.5 99.5t-115.5 46.5q-43 0 -76.5 -17t-52 -43.5t-27.5 -53t-10 -51.5l-53 5q2 34 15 68t37 67.5t67.5 54.5t99.5 21q101 0 155 -60t54 -132q0 -75 -36 -137t-123 -149l-188 -186h352v-51h-429z" />
    <glyph glyph-name="three.LT" 
d="M284 -15q-93 0 -161 56.5t-71 135.5l54 7q1 -61 53.5 -105t123.5 -44q83 0 129.5 52.5t46.5 128.5q0 75 -47.5 121t-122.5 46q-46 0 -81 -35v49l237 252h-362v51h428v-48l-189 -202q-17 -20 -23 -24v-4q3 3 20 3q86 0 141.5 -58.5t55.5 -148.5q0 -98 -63 -165.5
t-169 -67.5z" />
    <glyph glyph-name="four.LT" 
d="M442 161v-161h-55v161h-355v50l316 489h94v-489h102v-50h-102zM383 665l-295 -454h299v454h-4z" />
    <glyph glyph-name="five.LT" 
d="M278 -15q-85 0 -148.5 47t-77.5 115l54 14q11 -53 59 -89.5t113 -36.5q80 0 133 55t53 134q0 82 -50.5 136.5t-130.5 54.5q-51 0 -91.5 -23t-57.5 -62h-52v370h407v-51h-356v-253q22 31 66 49.5t96 18.5q99 0 163 -67t64 -169t-69 -172.5t-175 -70.5z" />
    <glyph glyph-name="six.LT" 
d="M305 -15q-250 0 -250 360q0 177 66 273.5t186 96.5q80 0 136 -41.5t72 -109.5l-54 -11q-11 50 -52.5 81t-100.5 31q-93 0 -145.5 -80.5t-52.5 -226.5q0 -12 2 -44q21 61 72 93.5t121 32.5q100 0 163 -62.5t63 -162.5q0 -99 -63.5 -164.5t-162.5 -65.5zM302 35
q79 0 126 51t47 126q0 76 -47 127t-126 51q-80 0 -127 -51t-47 -127q0 -75 47 -126t127 -51z" />
    <glyph glyph-name="seven.LT" 
d="M75 700h429v-51l-354 -649h-62l358 649h-371v51z" />
    <glyph glyph-name="eight.LT" 
d="M284 -15q-110 0 -171 59.5t-61 140.5q0 65 35 114.5t92 65.5q-49 15 -78 61t-29 105q0 68 54.5 126t157.5 58t157.5 -58t54.5 -126q0 -59 -29.5 -105t-78.5 -61q58 -16 93 -65.5t35 -114.5q0 -81 -61 -140.5t-171 -59.5zM283 386q72 0 114 40t42 99q0 52 -40.5 96
t-115.5 44q-74 0 -115 -44t-41 -96q0 -58 42.5 -98.5t113.5 -40.5zM283 35q82 0 128.5 44.5t46.5 108.5q0 65 -47.5 108.5t-127.5 43.5q-79 0 -126.5 -43.5t-47.5 -108.5q0 -63 47 -108t127 -45z" />
    <glyph glyph-name="nine.LT" 
d="M262 715q250 0 250 -360q0 -177 -66 -273.5t-186 -96.5q-80 0 -135 41.5t-73 109.5l54 11q11 -50 52.5 -81t101.5 -31q93 0 145 80.5t52 226.5q0 33 -2 44q-22 -60 -73 -93t-120 -33q-99 0 -162.5 63t-63.5 162q0 100 63.5 165t162.5 65zM266 665q-79 0 -126.5 -51
t-47.5 -126q0 -76 47.5 -127t126.5 -51t126.5 51t47.5 127q0 75 -47.5 126t-126.5 51z" />
    <glyph glyph-name="numbersign.OT" 
d="M376 151l-33 -151h-44l32 151h-170l-33 -151h-44l32 151h-117v43h126l32 150h-117v43h127l33 153h44l-33 -153h171l33 153h44l-33 -153h117v-43h-126l-32 -150h117v-43h-126zM167 192h174l33 154h-173z" />
    <glyph glyph-name="Euro.OT" 
d="M330 -15q-90 0 -151 52t-81 146h-92v39h85q-2 30 -2 48q0 17 2 47h-85v38h91q20 94 81.5 147t151.5 53q64 0 117 -30.5t76 -83.5l-53 -15q-18 37 -56 58t-83 21q-139 0 -177 -150h261v-38h-267q-3 -23 -3 -47q0 -26 3 -48h267v-39h-260q18 -69 63 -108.5t113 -39.5
q45 0 83 21t56 58l53 -15q-21 -51 -74 -82.5t-119 -31.5z" />
    <glyph glyph-name="dollar.OT" 
d="M312 -14v-87h-46v87q-82 6 -141 46t-70 95l54 9q8 -42 63 -73.5t124 -31.5q70 0 114 32.5t44 81.5q0 38 -28.5 61t-71 30.5t-92 17t-92 21t-71 43.5t-28.5 82q0 66 52.5 108.5t142.5 46.5v86h46v-88q76 -7 129 -47t62 -92l-54 -11q-5 41 -54 73t-117 32q-74 0 -113 -31
t-39 -72q0 -38 28.5 -60.5t71 -30t92 -17.5t92 -21.5t71 -43t28.5 -81.5q0 -72 -56 -116t-141 -49z" />
    <glyph glyph-name="cent.OT" 
d="M317 -14v-87h-46v87q-94 10 -149.5 81.5t-55.5 176.5q0 106 55.5 178.5t149.5 81.5v87h46v-87q144 -10 189 -150l-51 -13q-41 116 -160 116q-83 0 -129.5 -60.5t-46.5 -152.5q0 -91 46.5 -151t129.5 -60q118 0 159 116l52 -11q-45 -141 -189 -152z" />
    <glyph glyph-name="sterling.OT" 
d="M390 289v-39h-179q15 -47 15 -80q0 -71 -72 -115v-4h345v-51h-429v44q101 45 101 120q0 28 -18 86h-99v39h87q-12 43 -12 90q0 84 55 130t134 46q70 0 117.5 -31.5t66.5 -89.5l-51 -12q-13 39 -47.5 60.5t-84.5 21.5q-54 0 -94 -30.5t-40 -95.5q0 -42 14 -89h191z" />
    <glyph glyph-name="florin.OT" 
d="M513 289v-39h-233v-351h-54v351h-172v39h172v66q0 100 56 150t147 50q34 0 58 -7v-51q-18 7 -56 7q-63 0 -107 -34.5t-44 -115.5v-65h233z" />
    <glyph glyph-name="yen.OT" 
d="M310 183v-183h-54v183h-210v39h203l-60 95h-143v38h121l-116 185h63l169 -279h4l168 279h60l-115 -185h121v-38h-145l-59 -95h204v-39h-211z" />
    <glyph glyph-name="zero.slash.OT" 
d="M285 -15q-107 0 -172.5 78.5t-65.5 200.5t65.5 201t171.5 79q107 0 172.5 -79t65.5 -201t-65 -200.5t-172 -78.5zM104 264q0 -79 32 -138l267 317q-47 50 -119 50q-82 0 -131 -65t-49 -164zM284 35q83 0 132 65.5t49 163.5q0 86 -36 144l-267 -319q51 -54 122 -54z" />
    <glyph glyph-name="zero.OT" 
d="M284 -15q-107 0 -172.5 78.5t-65.5 200.5t65.5 201t171.5 79q107 0 172.5 -79t65.5 -201t-65 -200.5t-172 -78.5zM283 35q83 0 132 65.5t49 163.5q0 99 -49 164t-132 65q-82 0 -131 -65t-49 -164q0 -97 49 -163t131 -66z" />
    <glyph glyph-name="one.OT" 
d="M358 540v-540h-54v482l-199 -100l-8 55l212 103h49z" />
    <glyph glyph-name="two.OT" 
d="M503 51v-51h-429v48l158 102q114 73 155 121t41 106q0 55 -39.5 91t-101.5 36q-74 0 -115.5 -49t-48.5 -111l-51 9q3 35 17.5 69t39.5 64.5t66.5 49.5t92.5 19q86 0 141 -49t55 -126q0 -73 -45 -128t-171 -136l-101 -65h336z" />
    <glyph glyph-name="three.OT" 
d="M284 -176q-93 0 -161 56.5t-71 135.5l54 7q1 -61 53.5 -105t123.5 -44q83 0 129.5 52.5t46.5 128.5q0 75 -47.5 121t-122.5 46q-46 0 -81 -35v49l237 252h-362v51h428v-48l-189 -202q-17 -20 -23 -24v-4q3 3 20 3q86 0 141.5 -58.5t55.5 -148.5q0 -98 -63 -165.5
t-169 -67.5z" />
    <glyph glyph-name="four.OT" 
d="M442 0v-161h-55v161h-355v50l316 489h94v-489h102v-50h-102zM383 504l-295 -454h299v454h-4z" />
    <glyph glyph-name="five.OT" 
d="M278 -176q-85 0 -148.5 47t-77.5 115l54 14q11 -53 59 -89.5t113 -36.5q80 0 133 55t53 134q0 82 -50.5 136.5t-130.5 54.5q-51 0 -91.5 -23t-57.5 -62h-52v370h407v-51h-356v-253q22 31 66 49.5t96 18.5q99 0 163 -67t64 -169t-69 -172.5t-175 -70.5z" />
    <glyph glyph-name="six.OT" 
d="M305 -15q-250 0 -250 360q0 177 66 273.5t186 96.5q80 0 136 -41.5t72 -109.5l-54 -11q-11 50 -52.5 81t-100.5 31q-93 0 -145.5 -80.5t-52.5 -226.5q0 -12 2 -44q21 61 72 93.5t121 32.5q100 0 163 -62.5t63 -162.5q0 -99 -63.5 -164.5t-162.5 -65.5zM302 35
q79 0 126 51t47 126q0 76 -47 127t-126 51q-80 0 -127 -51t-47 -127q0 -75 47 -126t127 -51z" />
    <glyph glyph-name="seven.OT" 
d="M75 539h429v-51l-354 -649h-62l358 649h-371v51z" />
    <glyph glyph-name="eight.OT" 
d="M284 -15q-110 0 -171 59.5t-61 140.5q0 65 35 114.5t92 65.5q-49 15 -78 61t-29 105q0 68 54.5 126t157.5 58t157.5 -58t54.5 -126q0 -59 -29.5 -105t-78.5 -61q58 -16 93 -65.5t35 -114.5q0 -81 -61 -140.5t-171 -59.5zM283 386q72 0 114 40t42 99q0 52 -40.5 96
t-115.5 44q-74 0 -115 -44t-41 -96q0 -58 42.5 -98.5t113.5 -40.5zM283 35q82 0 128.5 44.5t46.5 108.5q0 65 -47.5 108.5t-127.5 43.5q-79 0 -126.5 -43.5t-47.5 -108.5q0 -63 47 -108t127 -45z" />
    <glyph glyph-name="nine.OT" 
d="M262 554q250 0 250 -360q0 -177 -66 -273.5t-186 -96.5q-80 0 -135 41.5t-73 109.5l54 11q11 -50 52.5 -81t101.5 -31q93 0 145 80.5t52 226.5q0 33 -2 44q-22 -60 -73 -93t-120 -33q-99 0 -162.5 63t-63.5 162q0 100 63.5 165t162.5 65zM266 504q-79 0 -126.5 -51
t-47.5 -126q0 -76 47.5 -127t126.5 -51t126.5 51t47.5 127q0 75 -47.5 126t-126.5 51z" />
    <glyph glyph-name="numbersign.OP" 
d="M376 151l-33 -151h-44l32 151h-170l-33 -151h-44l32 151h-117v43h126l32 150h-117v43h127l33 153h44l-33 -153h171l33 153h44l-33 -153h117v-43h-126l-32 -150h117v-43h-126zM167 192h174l33 154h-173z" />
    <glyph glyph-name="Euro.OP" 
d="M330 -15q-90 0 -151 52t-81 146h-92v39h85q-2 30 -2 48q0 17 2 47h-85v38h91q20 94 81.5 147t151.5 53q64 0 117 -30.5t76 -83.5l-53 -15q-18 37 -56 58t-83 21q-139 0 -177 -150h261v-38h-267q-3 -23 -3 -47q0 -26 3 -48h267v-39h-260q18 -69 63 -108.5t113 -39.5
q45 0 83 21t56 58l53 -15q-21 -51 -74 -82.5t-119 -31.5z" />
    <glyph glyph-name="dollar.OP" 
d="M312 -14v-87h-46v87q-82 6 -141 46t-70 95l54 9q8 -42 63 -73.5t124 -31.5q70 0 114 32.5t44 81.5q0 38 -28.5 61t-71 30.5t-92 17t-92 21t-71 43.5t-28.5 82q0 66 52.5 108.5t142.5 46.5v86h46v-88q76 -7 129 -47t62 -92l-54 -11q-5 41 -54 73t-117 32q-74 0 -113 -31
t-39 -72q0 -38 28.5 -60.5t71 -30t92 -17.5t92 -21.5t71 -43t28.5 -81.5q0 -72 -56 -116t-141 -49z" />
    <glyph glyph-name="cent.OP" horiz-adv-x="528" 
d="M300 -14v-87h-46v87q-94 10 -149.5 81.5t-55.5 176.5q0 106 55.5 178.5t149.5 81.5v87h46v-87q144 -10 189 -150l-51 -13q-41 116 -160 116q-83 0 -129.5 -60.5t-46.5 -152.5q0 -91 46.5 -151t129.5 -60q118 0 159 116l52 -11q-45 -141 -189 -152z" />
    <glyph glyph-name="sterling.OP" 
d="M388 289v-39h-179q15 -47 15 -80q0 -71 -72 -115v-4h345v-51h-429v44q101 45 101 120q0 28 -18 86h-99v39h87q-12 43 -12 90q0 84 55 130t134 46q70 0 117.5 -31.5t66.5 -89.5l-51 -12q-13 39 -47.5 60.5t-84.5 21.5q-54 0 -94 -30.5t-40 -95.5q0 -42 14 -89h191z" />
    <glyph glyph-name="florin.OP" 
d="M513 289v-39h-233v-351h-54v351h-172v39h172v66q0 100 56 150t147 50q34 0 58 -7v-51q-18 7 -56 7q-63 0 -107 -34.5t-44 -115.5v-65h233z" />
    <glyph glyph-name="yen.OP" 
d="M310 183v-183h-54v183h-210v39h203l-60 95h-143v38h121l-116 185h63l169 -279h4l168 279h60l-115 -185h121v-38h-145l-59 -95h204v-39h-211z" />
    <glyph glyph-name="zero.slash.OP" horiz-adv-x="622" 
d="M312 -15q-113 0 -189.5 79.5t-76.5 200.5t76 200t189 79t189 -79t76 -200t-75.5 -200.5t-188.5 -79.5zM103 265q0 -85 48 -151l284 338q-53 41 -124 41q-92 0 -150 -65.5t-58 -162.5zM312 36q91 0 149.5 66t58.5 163q0 95 -54 158l-284 -341q56 -46 130 -46z" />
    <glyph glyph-name="zero.OP" horiz-adv-x="622" 
d="M312 -15q-113 0 -189.5 79.5t-76.5 200.5t76 200t189 79t189 -79t76 -200t-75.5 -200.5t-188.5 -79.5zM312 36q91 0 149.5 66t58.5 163t-58.5 162.5t-150.5 65.5t-150 -65.5t-58 -162.5t58.5 -163t150.5 -66z" />
    <glyph glyph-name="one.OP" horiz-adv-x="411" 
d="M286 540v-540h-54v482l-199 -100l-8 55l212 103h49z" />
    <glyph glyph-name="two.OP" 
d="M503 51v-51h-429v48l158 102q114 73 155 121t41 106q0 55 -39.5 91t-101.5 36q-74 0 -115.5 -49t-48.5 -111l-51 9q3 35 17.5 69t39.5 64.5t66.5 49.5t92.5 19q86 0 141 -49t55 -126q0 -73 -45 -128t-171 -136l-101 -65h336z" />
    <glyph glyph-name="three.OP" 
d="M284 -176q-93 0 -161 56.5t-71 135.5l54 7q1 -61 53.5 -105t123.5 -44q83 0 129.5 52.5t46.5 128.5q0 75 -47.5 121t-122.5 46q-46 0 -81 -35v49l237 252h-362v51h428v-48l-189 -202q-17 -20 -23 -24v-4q3 3 20 3q86 0 141.5 -58.5t55.5 -148.5q0 -98 -63 -165.5
t-169 -67.5z" />
    <glyph glyph-name="four.OP" 
d="M442 0v-161h-55v161h-355v50l316 489h94v-489h102v-50h-102zM383 504l-295 -454h299v454h-4z" />
    <glyph glyph-name="five.OP" 
d="M278 -176q-85 0 -148.5 47t-77.5 115l54 14q11 -53 59 -89.5t113 -36.5q80 0 133 55t53 134q0 82 -50.5 136.5t-130.5 54.5q-51 0 -91.5 -23t-57.5 -62h-52v370h407v-51h-356v-253q22 31 66 49.5t96 18.5q99 0 163 -67t64 -169t-69 -172.5t-175 -70.5z" />
    <glyph glyph-name="six.OP" 
d="M305 -15q-250 0 -250 360q0 177 66 273.5t186 96.5q80 0 136 -41.5t72 -109.5l-54 -11q-11 50 -52.5 81t-100.5 31q-93 0 -145.5 -80.5t-52.5 -226.5q0 -12 2 -44q21 61 72 93.5t121 32.5q100 0 163 -62.5t63 -162.5q0 -99 -63.5 -164.5t-162.5 -65.5zM302 35
q79 0 126 51t47 126q0 76 -47 127t-126 51q-80 0 -127 -51t-47 -127q0 -75 47 -126t127 -51z" />
    <glyph glyph-name="seven.OP" 
d="M75 539h429v-51l-354 -649h-62l358 649h-371v51z" />
    <glyph glyph-name="eight.OP" 
d="M284 -15q-110 0 -171 59.5t-61 140.5q0 65 35 114.5t92 65.5q-49 15 -78 61t-29 105q0 68 54.5 126t157.5 58t157.5 -58t54.5 -126q0 -59 -29.5 -105t-78.5 -61q58 -16 93 -65.5t35 -114.5q0 -81 -61 -140.5t-171 -59.5zM283 386q72 0 114 40t42 99q0 52 -40.5 96
t-115.5 44q-74 0 -115 -44t-41 -96q0 -58 42.5 -98.5t113.5 -40.5zM283 35q82 0 128.5 44.5t46.5 108.5q0 65 -47.5 108.5t-127.5 43.5q-79 0 -126.5 -43.5t-47.5 -108.5q0 -63 47 -108t127 -45z" />
    <glyph glyph-name="nine.OP" 
d="M262 554q250 0 250 -360q0 -177 -66 -273.5t-186 -96.5q-80 0 -135 41.5t-73 109.5l54 11q11 -50 52.5 -81t101.5 -31q93 0 145 80.5t52 226.5q0 33 -2 44q-22 -60 -73 -93t-120 -33q-99 0 -162.5 63t-63.5 162q0 100 63.5 165t162.5 65zM266 504q-79 0 -126.5 -51
t-47.5 -126q0 -76 47.5 -127t126.5 -51t126.5 51t47.5 127q0 75 -47.5 126t-126.5 51z" />
    <glyph glyph-name="zero.numr" horiz-adv-x="381" 
d="M191 271q-75 0 -118 61t-43 158t43 158t117 61q76 0 119 -61t43 -158t-43 -158t-118 -61zM191 310q58 0 88 51q30 53 30 129q0 81 -31 130.5t-88 49.5q-56 0 -86.5 -50t-30.5 -130q0 -76 30 -129q30 -51 88 -51z" />
    <glyph glyph-name="one.numr" horiz-adv-x="321" 
d="M56 597l-8 42l126 61h38v-420h-42v375z" />
    <glyph glyph-name="two.numr" horiz-adv-x="345" 
d="M307 320v-40h-262v33l136 135q47 47 64.5 78t17.5 62q0 35 -24.5 58t-61.5 23q-39 0 -65.5 -26t-28.5 -67l-41 4q3 56 42 92.5t95 36.5t92 -32.5t36 -84.5q0 -41 -20.5 -78t-73.5 -90l-104 -104h198z" />
    <glyph glyph-name="three.numr" horiz-adv-x="345" 
d="M173 271q-57 0 -98 34t-44 82l42 4q5 -36 32.5 -58.5t66.5 -22.5q44 0 71 28t27 72q0 43 -25 68t-69 25q-28 0 -50 -17v41l128 133h-204v40h258v-37l-108 -113q-11 -11 -14 -12v-4q6 2 13 2q52 0 83.5 -34.5t31.5 -89.5q0 -62 -39.5 -101.5t-101.5 -39.5z" />
    <glyph glyph-name="four.numr" horiz-adv-x="345" 
d="M275 378v-98h-42v98h-214v37l184 285h72v-282h56v-40h-56zM229 669l-166 -251h170v251h-4z" />
    <glyph glyph-name="five.numr" horiz-adv-x="345" 
d="M175 271q-54 0 -94.5 31t-43.5 75h41q5 -28 33 -47.5t63 -19.5q45 0 74 29.5t29 75.5q0 47 -28 76.5t-73 29.5q-29 0 -52.5 -13t-32.5 -33h-37v225h247v-40h-207v-135q28 35 91 35q61 0 98.5 -39.5t37.5 -103.5q0 -62 -41.5 -104t-104.5 -42z" />
    <glyph glyph-name="six.numr" horiz-adv-x="345" 
d="M190 271q-153 0 -153 217q0 104 39 162.5t109 58.5q49 0 86 -26t49 -66l-42 -8q-8 27 -33 44.5t-58 17.5q-51 0 -79 -44.5t-28 -126.5v-23q12 32 44 50.5t72 18.5q58 0 95 -37.5t37 -96.5q0 -61 -39 -101t-99 -40zM187 310q44 0 70.5 28t26.5 71q0 44 -26.5 71t-70.5 27
q-43 0 -70.5 -27t-27.5 -71q0 -43 27.5 -71t70.5 -28z" />
    <glyph glyph-name="seven.numr" horiz-adv-x="345" 
d="M46 700h261v-38l-209 -382h-47l210 380h-215v40z" />
    <glyph glyph-name="eight.numr" horiz-adv-x="345" 
d="M176 271q-63 0 -102.5 35t-39.5 89q0 38 18.5 66t51.5 39q-26 12 -41.5 38.5t-15.5 57.5q0 49 36 81t93 32t93 -32t36 -81q0 -32 -15.5 -58t-42.5 -38q33 -12 51.5 -40t18.5 -66q0 -54 -39 -88.5t-102 -34.5zM176 518q38 0 61.5 22t23.5 56q0 31 -24 53t-61 22
q-38 0 -62 -22t-24 -53q0 -34 23.5 -56t62.5 -22zM176 310q42 0 69 24t27 60q0 39 -26 62.5t-70 23.5q-43 0 -70 -24t-27 -62q0 -36 27.5 -60t69.5 -24z" />
    <glyph glyph-name="nine.numr" horiz-adv-x="345" 
d="M161 709q153 0 153 -217q0 -105 -39 -163t-110 -58q-48 0 -85.5 26.5t-48.5 66.5l42 7q8 -27 33 -44.5t58 -17.5q51 0 79 44.5t28 126.5v23q-12 -31 -43.5 -50t-72.5 -19q-58 0 -95 38t-37 96q0 62 38.5 101.5t99.5 39.5zM164 670q-44 0 -71 -27.5t-27 -71.5
q0 -43 27 -70.5t71 -27.5t71 27.5t27 70.5q0 44 -27 71.5t-71 27.5z" />
    <glyph glyph-name="zero.dnom" horiz-adv-x="381" 
d="M191 -9q-75 0 -118 61t-43 158t43 158t117 61q76 0 119 -61t43 -158t-43 -158t-118 -61zM191 30q58 0 88 51q30 53 30 129q0 81 -31 130.5t-88 49.5q-56 0 -86.5 -50t-30.5 -130q0 -76 30 -129q30 -51 88 -51z" />
    <glyph glyph-name="one.dnom" horiz-adv-x="321" 
d="M56 317l-8 42l126 61h38v-420h-42v375z" />
    <glyph glyph-name="two.dnom" horiz-adv-x="345" 
d="M307 40v-40h-262v33l136 135q47 47 64.5 78t17.5 62q0 35 -24.5 58t-61.5 23q-39 0 -65.5 -26t-28.5 -67l-41 4q3 56 42 92.5t95 36.5t92 -32.5t36 -84.5q0 -41 -20.5 -78t-73.5 -90l-104 -104h198z" />
    <glyph glyph-name="three.dnom" horiz-adv-x="345" 
d="M173 -9q-57 0 -98 34t-44 82l42 4q5 -36 32.5 -58.5t66.5 -22.5q44 0 71 28t27 72q0 43 -25 68t-69 25q-28 0 -50 -17v41l128 133h-204v40h258v-37l-108 -113q-11 -11 -14 -12v-4q6 2 13 2q52 0 83.5 -34.5t31.5 -89.5q0 -62 -39.5 -101.5t-101.5 -39.5z" />
    <glyph glyph-name="four.dnom" horiz-adv-x="345" 
d="M275 98v-98h-42v98h-214v37l184 285h72v-282h56v-40h-56zM229 389l-166 -251h170v251h-4z" />
    <glyph glyph-name="five.dnom" horiz-adv-x="345" 
d="M175 -9q-54 0 -94.5 31t-43.5 75h41q5 -28 33 -47.5t63 -19.5q45 0 74 29.5t29 75.5q0 47 -28 76.5t-73 29.5q-29 0 -52.5 -13t-32.5 -33h-37v225h247v-40h-207v-135q28 35 91 35q61 0 98.5 -39.5t37.5 -103.5q0 -62 -41.5 -104t-104.5 -42z" />
    <glyph glyph-name="six.dnom" horiz-adv-x="345" 
d="M190 -9q-153 0 -153 217q0 104 39 162.5t109 58.5q49 0 86 -26t49 -66l-42 -8q-8 27 -33 44.5t-58 17.5q-51 0 -79 -44.5t-28 -126.5v-23q12 32 44 50.5t72 18.5q58 0 95 -37.5t37 -96.5q0 -61 -39 -101t-99 -40zM187 30q44 0 70.5 28t26.5 71q0 44 -26.5 71t-70.5 27
q-43 0 -70.5 -27t-27.5 -71q0 -43 27.5 -71t70.5 -28z" />
    <glyph glyph-name="seven.dnom" horiz-adv-x="345" 
d="M46 420h261v-38l-209 -382h-47l210 380h-215v40z" />
    <glyph glyph-name="eight.dnom" horiz-adv-x="345" 
d="M176 -9q-63 0 -102.5 35t-39.5 89q0 38 18.5 66t51.5 39q-26 12 -41.5 38.5t-15.5 57.5q0 49 36 81t93 32t93 -32t36 -81q0 -32 -15.5 -58t-42.5 -38q33 -12 51.5 -40t18.5 -66q0 -54 -39 -88.5t-102 -34.5zM176 238q38 0 61.5 22t23.5 56q0 31 -24 53t-61 22
q-38 0 -62 -22t-24 -53q0 -34 23.5 -56t62.5 -22zM176 30q42 0 69 24t27 60q0 39 -26 62.5t-70 23.5q-43 0 -70 -24t-27 -62q0 -36 27.5 -60t69.5 -24z" />
    <glyph glyph-name="nine.dnom" horiz-adv-x="345" 
d="M161 429q153 0 153 -217q0 -105 -39 -163t-110 -58q-48 0 -85.5 26.5t-48.5 66.5l42 7q8 -27 33 -44.5t58 -17.5q51 0 79 44.5t28 126.5v23q-12 -31 -43.5 -50t-72.5 -19q-58 0 -95 38t-37 96q0 62 38.5 101.5t99.5 39.5zM164 390q-44 0 -71 -27.5t-27 -71.5
q0 -43 27 -70.5t71 -27.5t71 27.5t27 70.5q0 44 -27 71.5t-71 27.5z" />
    <glyph glyph-name="fraction.osf" horiz-adv-x="428" 
d="M382 540h46l-382 -540h-46z" />
    <glyph glyph-name="percent.osf" horiz-adv-x="717" 
d="M34 384q0 78 37.5 124.5t100.5 46.5t100 -46.5t37 -124.5t-37 -124.5t-100 -46.5t-100.5 46.5t-37.5 124.5zM527 540h46l-382 -540h-46zM76 384q0 -59 25 -94.5t71 -35.5t70.5 35.5t24.5 94.5t-24.5 94t-70.5 35t-71 -35t-25 -94zM408 156q0 78 37.5 124.5t100.5 46.5
t100 -46.5t37 -124.5t-37 -124.5t-100 -46.5t-100.5 46.5t-37.5 124.5zM450 156q0 -59 25 -94.5t71 -35.5t70.5 35.5t24.5 94.5t-24.5 94.5t-70.5 35.5t-71 -35.5t-25 -94.5z" />
    <glyph glyph-name="perthousand.osf" horiz-adv-x="1034" 
d="M34 384q0 78 37.5 124.5t100.5 46.5t100 -46.5t37 -124.5t-37 -124.5t-100 -46.5t-100.5 46.5t-37.5 124.5zM527 540h46l-382 -540h-46zM76 384q0 -59 25 -94.5t71 -35.5t70.5 35.5t24.5 94.5t-24.5 94t-70.5 35t-71 -35t-25 -94zM408 156q0 78 37.5 124.5t100.5 46.5
t100 -46.5t37 -124.5t-37 -124.5t-100 -46.5t-100.5 46.5t-37.5 124.5zM725 156q0 78 37 124.5t100 46.5t100.5 -46.5t37.5 -124.5t-37.5 -124.5t-100.5 -46.5t-100 46.5t-37 124.5zM450 156q0 -59 25 -94.5t71 -35.5t70.5 35.5t24.5 94.5t-24.5 94.5t-70.5 35.5t-71 -35.5
t-25 -94.5zM767 156q0 -58 25 -94t70 -36q46 0 71 35.5t25 94.5t-25 94.5t-71 35.5q-45 0 -70 -36t-25 -94z" />
    <glyph glyph-name="ampersand.small" horiz-adv-x="511" 
d="M410 264v-264h-169q-94 0 -142.5 42t-48.5 109q0 52 29.5 91.5t82.5 48.5q-43 9 -69 40.5t-26 76.5q0 56 44 97q46 41 135 41q46 0 72 -6l-6 -45q-17 4 -64 4q-64 0 -95 -28t-31 -68q0 -42 30.5 -67.5t81.5 -25.5h123v97h53v-97h83v-46h-83zM245 46h112v218h-133
q-58 0 -88.5 -31.5t-30.5 -76.5q0 -47 34.5 -78.5t105.5 -31.5z" />
    <glyph glyph-name="fi.cap" horiz-adv-x="865" 
d="M107 700h442v-52h-386v-268h292v-52h-292v-328h-56v700zM703 700h56v-700h-56v700z" />
    <glyph glyph-name="fl.cap" horiz-adv-x="1119" 
d="M107 700h442v-52h-386v-268h292v-52h-292v-328h-56v700zM703 0v700h56v-648h349v-52h-405z" />
    <glyph glyph-name="fi.small" horiz-adv-x="763" 
d="M105 540h313v-51h-258v-192h258v-51h-258v-246h-55v540zM604 540h55v-540h-55v540z" />
    <glyph glyph-name="fl.small" horiz-adv-x="931" 
d="M105 540h313v-51h-258v-192h258v-51h-258v-246h-55v540zM603 0v540h55v-489h261v-51h-316z" />
    <glyph glyph-name="J.alt" horiz-adv-x="531" 
d="M241 -10q-85 0 -142 43.5t-72 119.5l51 9q14 -58 55.5 -89t104.5 -31q65 0 104.5 48.5t39.5 127.5v482h55v-484q0 -101 -54 -163.5t-142 -62.5z" />
    <glyph glyph-name="Jcircumflex.alt" horiz-adv-x="531" 
d="M447 846l102 -106h-54l-86 83l-86 -83h-54l101 106h77zM241 -10q-85 0 -142 43.5t-72 119.5l51 9q14 -58 55.5 -89t104.5 -31q65 0 104.5 48.5t39.5 127.5v482h55v-484q0 -101 -54 -163.5t-142 -62.5z" />
    <glyph glyph-name="IJ.alt" horiz-adv-x="801" 
d="M107 700h56v-700h-56v700zM511 -10q-85 0 -142 43.5t-72 119.5l51 9q14 -58 55.5 -89t104.5 -31q65 0 104.5 48.5t39.5 127.5v482h55v-484q0 -101 -54 -163.5t-142 -62.5z" />
    <glyph glyph-name="J.small.alt" horiz-adv-x="452" 
d="M203 -11q-68 0 -115 36.5t-61 100.5l52 10q26 -95 122 -95q47 0 76 38t29 101v360h55v-364q0 -84 -43.5 -135.5t-114.5 -51.5z" />
    <glyph glyph-name="Jcircumflex.small.alt" horiz-adv-x="452" 
d="M371 685l102 -106h-54l-86 83l-86 -83h-54l101 106h77zM203 -11q-68 0 -115 36.5t-61 100.5l52 10q26 -95 122 -95q47 0 76 38t29 101v360h55v-364q0 -84 -43.5 -135.5t-114.5 -51.5z" />
    <glyph glyph-name="IJ.small.alt" horiz-adv-x="716" 
d="M105 540h55v-540h-55v540zM468 -11q-68 0 -115 36.5t-61 100.5l52 10q26 -95 122 -95q47 0 76 38t29 101v360h55v-364q0 -84 -43.5 -135.5t-114.5 -51.5z" />
    <glyph glyph-name="M.alt" horiz-adv-x="916" 
d="M38 0l154 711h77l189 -605h4l190 605h71l154 -711h-57l-135 625h-4l-196 -625h-53l-196 625h-4l-134 -625h-60z" />
    <glyph glyph-name="M.small.alt" horiz-adv-x="741" 
d="M45 0l115 547h70l140 -454h3l141 454h66l116 -547h-57l-96 464h-3l-144 -464h-52l-144 464h-3l-96 -464h-56z" />
    <glyph glyph-name="a.alt" horiz-adv-x="583" 
d="M48 231q0 108 62 177t159 69q56 0 102 -24t71 -67v76h53v-462h-50v90h-1q-52 -105 -175 -105q-97 0 -159 69t-62 177zM102 231q0 -86 48.5 -142t124.5 -56t122 55.5t46 142.5q0 89 -45.5 144t-122.5 55q-78 0 -125.5 -57.5t-47.5 -141.5z" />
    <glyph glyph-name="agrave.alt" horiz-adv-x="583" 
d="M152 699h65l89 -144h-51zM48 231q0 108 62 177t159 69q56 0 102 -24t71 -67v76h53v-462h-50v90h-1q-52 -105 -175 -105q-97 0 -159 69t-62 177zM102 231q0 -86 48.5 -142t124.5 -56t122 55.5t46 142.5q0 89 -45.5 144t-122.5 55q-78 0 -125.5 -57.5t-47.5 -141.5z" />
    <glyph glyph-name="aacute.alt" horiz-adv-x="583" 
d="M410 699l-109 -144h-51l95 144h65zM48 231q0 108 62 177t159 69q56 0 102 -24t71 -67v76h53v-462h-50v90h-1q-52 -105 -175 -105q-97 0 -159 69t-62 177zM102 231q0 -86 48.5 -142t124.5 -56t122 55.5t46 142.5q0 89 -45.5 144t-122.5 55q-78 0 -125.5 -57.5
t-47.5 -141.5z" />
    <glyph glyph-name="acircumflex.alt" horiz-adv-x="583" 
d="M310 699l111 -144h-53l-91 115l-91 -115h-52l110 144h66zM48 231q0 108 62 177t159 69q56 0 102 -24t71 -67v76h53v-462h-50v90h-1q-52 -105 -175 -105q-97 0 -159 69t-62 177zM102 231q0 -86 48.5 -142t124.5 -56t122 55.5t46 142.5q0 89 -45.5 144t-122.5 55
q-78 0 -125.5 -57.5t-47.5 -141.5z" />
    <glyph glyph-name="atilde.alt" horiz-adv-x="583" 
d="M344 575q-30 0 -68.5 31.5t-59.5 31.5q-41 0 -49 -62h-40q9 104 83 104q30 0 69 -31.5t59 -31.5q41 0 49 62h40q-9 -104 -83 -104zM48 231q0 108 62 177t159 69q56 0 102 -24t71 -67v76h53v-462h-50v90h-1q-52 -105 -175 -105q-97 0 -159 69t-62 177zM102 231
q0 -86 48.5 -142t124.5 -56t122 55.5t46 142.5q0 89 -45.5 144t-122.5 55q-78 0 -125.5 -57.5t-47.5 -141.5z" />
    <glyph glyph-name="adieresis.alt" horiz-adv-x="583" 
d="M208 676v-98h-51v98h51zM397 676v-98h-50v98h50zM48 231q0 108 62 177t159 69q56 0 102 -24t71 -67v76h53v-462h-50v90h-1q-52 -105 -175 -105q-97 0 -159 69t-62 177zM102 231q0 -86 48.5 -142t124.5 -56t122 55.5t46 142.5q0 89 -45.5 144t-122.5 55
q-78 0 -125.5 -57.5t-47.5 -141.5z" />
    <glyph glyph-name="amacron.alt" horiz-adv-x="583" 
d="M439 647v-40h-324v40h324zM48 231q0 108 62 177t159 69q56 0 102 -24t71 -67v76h53v-462h-50v90h-1q-52 -105 -175 -105q-97 0 -159 69t-62 177zM102 231q0 -86 48.5 -142t124.5 -56t122 55.5t46 142.5q0 89 -45.5 144t-122.5 55q-78 0 -125.5 -57.5t-47.5 -141.5z" />
    <glyph glyph-name="abreve.alt" horiz-adv-x="583" 
d="M277 562q-54 0 -93 33t-51 97h44q11 -44 38 -68t62 -24t63 24t37 68h44q-12 -64 -51 -97t-93 -33zM48 231q0 108 62 177t159 69q56 0 102 -24t71 -67v76h53v-462h-50v90h-1q-52 -105 -175 -105q-97 0 -159 69t-62 177zM102 231q0 -86 48.5 -142t124.5 -56t122 55.5
t46 142.5q0 89 -45.5 144t-122.5 55q-78 0 -125.5 -57.5t-47.5 -141.5z" />
    <glyph glyph-name="aring.alt" horiz-adv-x="583" 
d="M282 538q-42 0 -71 28t-29 68q0 41 28.5 69t71.5 28q44 0 72 -27.5t28 -69.5q0 -40 -28 -68t-72 -28zM282 569q29 0 47 19t18 46q0 28 -18 46.5t-47 18.5t-47 -18.5t-18 -46.5q0 -27 18 -46t47 -19zM48 231q0 108 62 177t159 69q56 0 102 -24t71 -67v76h53v-462h-50v90
h-1q-52 -105 -175 -105q-97 0 -159 69t-62 177zM102 231q0 -86 48.5 -142t124.5 -56t122 55.5t46 142.5q0 89 -45.5 144t-122.5 55q-78 0 -125.5 -57.5t-47.5 -141.5z" />
    <glyph glyph-name="aringacute.alt" horiz-adv-x="583" 
d="M394 884l-89 -106h-50l74 106h65zM282 538q-42 0 -71 28t-29 68q0 41 28.5 69t71.5 28q44 0 72 -27.5t28 -69.5q0 -40 -28 -68t-72 -28zM282 569q29 0 47 19t18 46q0 28 -18 46.5t-47 18.5t-47 -18.5t-18 -46.5q0 -27 18 -46t47 -19zM48 231q0 108 62 177t159 69
q56 0 102 -24t71 -67v76h53v-462h-50v90h-1q-52 -105 -175 -105q-97 0 -159 69t-62 177zM102 231q0 -86 48.5 -142t124.5 -56t122 55.5t46 142.5q0 89 -45.5 144t-122.5 55q-78 0 -125.5 -57.5t-47.5 -141.5z" />
    <glyph glyph-name="aogonek.alt" horiz-adv-x="583" 
d="M48 231q0 108 62 177t159 69q56 0 102 -24t71 -67v76h53v-462h-2q-95 -55 -95 -113q0 -25 18 -38t45 -13q20 0 32 3v-36q-17 -3 -39 -3q-45 0 -74.5 20.5t-29.5 58.5q0 70 95 129v82h-1q-52 -105 -175 -105q-97 0 -159 69t-62 177zM102 231q0 -86 48.5 -142t124.5 -56
t122 55.5t46 142.5q0 89 -45.5 144t-122.5 55q-78 0 -125.5 -57.5t-47.5 -141.5z" />
    <glyph glyph-name="a.superior.alt" horiz-adv-x="456" 
d="M37 525q0 81 48.5 134t123.5 53q41 0 74 -16.5t48 -45.5v50h48v-350h-44v56h-3q-16 -31 -50 -49.5t-76 -18.5q-73 0 -121 53t-48 134zM85 525q0 -62 34.5 -103t90.5 -41t89.5 40t33.5 104t-33.5 104t-89.5 40t-90.5 -41t-34.5 -103z" />
    <glyph glyph-name="j.alt" horiz-adv-x="230" 
d="M142 700v-96h-53v96h53zM142 463v-655h-53v655h53z" />
    <glyph glyph-name="ij.alt" horiz-adv-x="444" 
d="M142 700v-96h-53v96h53zM356 700v-96h-53v96h53zM142 463v-463h-53v463h53zM356 463v-655h-53v655h53z" />
    <glyph glyph-name="jcircumflex.alt" horiz-adv-x="230" 
d="M146 700l111 -144h-53l-91 115l-91 -115h-52l110 144h66zM142 463v-655h-53v655h53z" />
    <glyph glyph-name="j.superior.alt" horiz-adv-x="202" 
d="M125 849v-75h-47v75h47zM125 700v-493h-47v493h47z" />
    <glyph glyph-name="l.alt" horiz-adv-x="237" 
d="M193 -7q-55 0 -87.5 32t-32.5 102v573h54v-558q0 -59 21.5 -80t57.5 -21q20 0 26 5v-47q-12 -6 -39 -6z" />
    <glyph glyph-name="lacute.alt" horiz-adv-x="237" 
d="M215 846l-89 -106h-50l74 106h65zM193 -7q-55 0 -87.5 32t-32.5 102v573h54v-558q0 -59 21.5 -80t57.5 -21q20 0 26 5v-47q-12 -6 -39 -6z" />
    <glyph glyph-name="lcaron.alt" horiz-adv-x="315" 
d="M321 700l-56 -205h-42l46 205h52zM193 -7q-55 0 -87.5 32t-32.5 102v573h54v-558q0 -59 21.5 -80t57.5 -21q20 0 26 5v-47q-12 -6 -39 -6z" />
    <glyph glyph-name="lcommaaccent.alt" horiz-adv-x="237" 
d="M193 -7q-55 0 -87.5 32t-32.5 102v573h54v-558q0 -59 21.5 -80t57.5 -21q20 0 26 5v-47q-12 -6 -39 -6zM207 -62l-52 -138h-44l45 138h51z" />
    <glyph glyph-name="lslash.alt" horiz-adv-x="241" 
d="M194 -7q-55 0 -87.5 32t-32.5 102v211l-53 -42v52l53 42v310h54v-267l95 76v-52l-95 -76v-239q0 -59 21.5 -80t57.5 -21q20 0 26 5v-47q-12 -6 -39 -6z" />
    <glyph glyph-name="ldot.alt" horiz-adv-x="340" 
d="M193 -7q-55 0 -87.5 32t-32.5 102v573h54v-558q0 -59 21.5 -80t57.5 -21q20 0 26 5v-47q-12 -6 -39 -6zM313 329v-67h-52v67h52z" />
    <glyph glyph-name="l.superior.alt" horiz-adv-x="202" 
d="M155 346q-100 0 -100 112v391h47v-378q0 -49 17.5 -66t46.5 -17q7 0 22 3v-41q-32 -4 -33 -4z" />
    <glyph glyph-name="t.alt" horiz-adv-x="329" 
d="M169 416v-416h-53v416h-99v47h99v152h53v-152h160v-47h-160z" />
    <glyph glyph-name="tcaron.alt" horiz-adv-x="329" 
d="M323 724l-56 -205h-42l46 205h52zM169 416v-416h-53v416h-99v47h99v152h53v-152h160v-47h-160z" />
    <glyph glyph-name="tcommaaccent.alt" horiz-adv-x="329" 
d="M169 416v-416h-53v416h-99v47h99v152h53v-152h160v-47h-160zM178 -62l-52 -138h-44l45 138h51z" />
    <glyph glyph-name="tbar.alt" horiz-adv-x="329" 
d="M169 200v-200h-53v200h-89v44h89v172h-99v47h99v152h53v-152h160v-47h-160v-172h145v-44h-145z" />
    <glyph glyph-name="t.superior.alt" horiz-adv-x="238" 
d="M128 659v-309h-48v309h-72v41h72v99h48v-99h117v-41h-117z" />
    <glyph glyph-name="u.alt" horiz-adv-x="532" 
d="M266 -14q-89 0 -138 51t-49 139v287h53v-278q0 -73 35 -112t99 -39t99 39t35 112v278h53v-287q0 -88 -49 -139t-138 -51z" />
    <glyph glyph-name="ugrave.alt" horiz-adv-x="532" 
d="M137 700h65l89 -144h-51zM266 -14q-89 0 -138 51t-49 139v287h53v-278q0 -73 35 -112t99 -39t99 39t35 112v278h53v-287q0 -88 -49 -139t-138 -51z" />
    <glyph glyph-name="uacute.alt" horiz-adv-x="532" 
d="M399 700l-109 -144h-51l95 144h65zM266 -14q-89 0 -138 51t-49 139v287h53v-278q0 -73 35 -112t99 -39t99 39t35 112v278h53v-287q0 -88 -49 -139t-138 -51z" />
    <glyph glyph-name="ucircumflex.alt" horiz-adv-x="532" 
d="M297 700l111 -144h-53l-91 115l-91 -115h-52l110 144h66zM266 -14q-89 0 -138 51t-49 139v287h53v-278q0 -73 35 -112t99 -39t99 39t35 112v278h53v-287q0 -88 -49 -139t-138 -51z" />
    <glyph glyph-name="utilde.alt" horiz-adv-x="532" 
d="M331 576q-30 0 -68.5 31.5t-59.5 31.5q-41 0 -49 -62h-40q9 104 83 104q29 0 68 -31.5t60 -31.5q41 0 49 62h40q-9 -104 -83 -104zM266 -14q-89 0 -138 51t-49 139v287h53v-278q0 -73 35 -112t99 -39t99 39t35 112v278h53v-287q0 -88 -49 -139t-138 -51z" />
    <glyph glyph-name="udieresis.alt" horiz-adv-x="532" 
d="M195 677v-98h-51v98h51zM384 677v-98h-50v98h50zM266 -14q-89 0 -138 51t-49 139v287h53v-278q0 -73 35 -112t99 -39t99 39t35 112v278h53v-287q0 -88 -49 -139t-138 -51z" />
    <glyph glyph-name="umacron.alt" horiz-adv-x="532" 
d="M426 648v-40h-324v40h324zM266 -14q-89 0 -138 51t-49 139v287h53v-278q0 -73 35 -112t99 -39t99 39t35 112v278h53v-287q0 -88 -49 -139t-138 -51z" />
    <glyph glyph-name="ubreve.alt" horiz-adv-x="532" 
d="M264 563q-54 0 -93 33t-51 97h44q11 -44 38 -68t62 -24t63 24t37 68h44q-12 -64 -51 -97t-93 -33zM266 -14q-89 0 -138 51t-49 139v287h53v-278q0 -73 35 -112t99 -39t99 39t35 112v278h53v-287q0 -88 -49 -139t-138 -51z" />
    <glyph glyph-name="uring.alt" horiz-adv-x="532" 
d="M264 538q-42 0 -71 28t-29 68q0 41 28.5 69t71.5 28q44 0 72 -27.5t28 -69.5q0 -40 -28 -68t-72 -28zM264 569q29 0 47 19t18 46q0 28 -18 46.5t-47 18.5t-47 -18.5t-18 -46.5q0 -27 18 -46t47 -19zM266 -14q-89 0 -138 51t-49 139v287h53v-278q0 -73 35 -112t99 -39
t99 39t35 112v278h53v-287q0 -88 -49 -139t-138 -51z" />
    <glyph glyph-name="uhungarumlaut.alt" horiz-adv-x="532" 
d="M323 700l-109 -144h-51l95 144h65zM475 700l-109 -144h-51l95 144h65zM266 -14q-89 0 -138 51t-49 139v287h53v-278q0 -73 35 -112t99 -39t99 39t35 112v278h53v-287q0 -88 -49 -139t-138 -51z" />
    <glyph glyph-name="uogonek.alt" horiz-adv-x="532" 
d="M327 -200q-45 0 -74.5 20.5t-29.5 58.5q0 56 56 106v4q-14 -2 -23 -2q-83 0 -130 52.5t-47 136.5v287h53v-277q0 -73 35 -112.5t99 -39.5t99 39.5t35 112.5v277h53v-286q0 -124 -95 -174q-89 -48 -89 -114q0 -25 18.5 -39t46.5 -14q21 0 33 3v-36q-18 -3 -40 -3z" />
    <glyph glyph-name="u.superior.alt" horiz-adv-x="424" 
d="M212 339q-68 0 -106 39t-38 106v216h47v-208q0 -54 25.5 -82.5t71.5 -28.5t71 28.5t25 82.5v208h47v-216q0 -67 -37.5 -106t-105.5 -39z" />
    <glyph glyph-name="six.alt" 
d="M523 220q0 -92 -64.5 -163.5t-173.5 -71.5q-110 0 -174 72t-64 162q0 52 20.5 98.5t65.5 109.5l190 273h66l-208 -293q43 41 118 41q103 0 163.5 -69.5t60.5 -158.5zM467 218q0 70 -48.5 126.5t-133.5 56.5t-133.5 -56.5t-48.5 -126.5t48.5 -126.5t133.5 -56.5
t133.5 56.5t48.5 126.5z" />
    <glyph glyph-name="nine.alt" 
d="M44 480q0 92 64.5 163.5t173.5 71.5q110 0 174 -72t64 -162q0 -52 -21 -100t-65 -108l-190 -273h-66l208 293q-43 -41 -118 -41q-103 0 -163.5 70t-60.5 158zM100 482q0 -70 48.5 -126.5t133.5 -56.5t133.5 56.5t48.5 126.5t-48.5 126.5t-133.5 56.5t-133.5 -56.5
t-48.5 -126.5z" />
    <glyph glyph-name="six.LT.alt" 
d="M523 220q0 -92 -64.5 -163.5t-173.5 -71.5q-110 0 -174 72t-64 162q0 52 20.5 98.5t65.5 109.5l190 273h66l-208 -293q43 41 118 41q103 0 163.5 -69.5t60.5 -158.5zM467 218q0 70 -48.5 126.5t-133.5 56.5t-133.5 -56.5t-48.5 -126.5t48.5 -126.5t133.5 -56.5
t133.5 56.5t48.5 126.5z" />
    <glyph glyph-name="nine.LT.alt" 
d="M44 480q0 92 64.5 163.5t173.5 71.5q110 0 174 -72t64 -162q0 -52 -21 -100t-65 -108l-190 -273h-66l208 293q-43 -41 -118 -41q-103 0 -163.5 70t-60.5 158zM100 482q0 -70 48.5 -126.5t133.5 -56.5t133.5 56.5t48.5 126.5t-48.5 126.5t-133.5 56.5t-133.5 -56.5
t-48.5 -126.5z" />
    <glyph glyph-name="six.OT.alt" 
d="M523 220q0 -92 -64.5 -163.5t-173.5 -71.5q-110 0 -174 72t-64 162q0 52 20.5 98.5t65.5 109.5l190 273h66l-208 -293q43 41 118 41q103 0 163.5 -69.5t60.5 -158.5zM467 218q0 70 -48.5 126.5t-133.5 56.5t-133.5 -56.5t-48.5 -126.5t48.5 -126.5t133.5 -56.5
t133.5 56.5t48.5 126.5z" />
    <glyph glyph-name="nine.OT.alt" 
d="M44 320q0 92 64.5 163.5t173.5 71.5q110 0 174 -72t64 -162q0 -52 -21 -100t-65 -108l-190 -273h-66l208 293q-43 -41 -118 -41q-103 0 -163.5 70t-60.5 158zM100 322q0 -70 48.5 -126.5t133.5 -56.5t133.5 56.5t48.5 126.5t-48.5 126.5t-133.5 56.5t-133.5 -56.5
t-48.5 -126.5z" />
    <glyph glyph-name="six.OP.alt" 
d="M523 220q0 -92 -64.5 -163.5t-173.5 -71.5q-110 0 -174 72t-64 162q0 52 20.5 98.5t65.5 109.5l190 273h66l-208 -293q43 41 118 41q103 0 163.5 -69.5t60.5 -158.5zM467 218q0 70 -48.5 126.5t-133.5 56.5t-133.5 -56.5t-48.5 -126.5t48.5 -126.5t133.5 -56.5
t133.5 56.5t48.5 126.5z" />
    <glyph glyph-name="nine.OP.alt" 
d="M44 320q0 92 64.5 163.5t173.5 71.5q110 0 174 -72t64 -162q0 -52 -21 -100t-65 -108l-190 -273h-66l208 293q-43 -41 -118 -41q-103 0 -163.5 70t-60.5 158zM100 322q0 -70 48.5 -126.5t133.5 -56.5t133.5 56.5t48.5 126.5t-48.5 126.5t-133.5 56.5t-133.5 -56.5
t-48.5 -126.5z" />
    <glyph glyph-name="six.dnom.alt" horiz-adv-x="345" 
d="M318 133q0 -56 -39.5 -99t-105.5 -43q-67 0 -106 43t-39 98q0 65 76 162l98 126h52l-109 -138q-9 -13 -26 -33q24 22 63 22q62 0 99 -42t37 -96zM275 132q0 41 -26.5 71t-75.5 30q-48 0 -74.5 -30.5t-26.5 -70.5t26.5 -71t74.5 -31q49 0 75.5 31t26.5 71z" />
    <glyph glyph-name="nine.dnom.alt" horiz-adv-x="345" 
d="M28 287q0 56 40 99t105 43q67 0 106 -42.5t39 -98.5q0 -65 -76 -162l-98 -126h-52l109 138q9 12 26 33q-23 -21 -63 -21q-63 0 -99.5 41t-36.5 96zM71 288q0 -40 27 -70.5t75 -30.5t74.5 30.5t26.5 70.5q0 41 -26.5 71.5t-74.5 30.5t-75 -30.5t-27 -71.5z" />
    <glyph glyph-name="sixsuperior.alt" horiz-adv-x="345" 
d="M318 533q0 -56 -39.5 -99t-105.5 -43q-67 0 -106 43t-39 98q0 65 76 162l98 126h52l-109 -138q-9 -12 -26 -33q24 22 63 22q62 0 99 -42t37 -96zM275 532q0 41 -26.5 71t-75.5 30q-48 0 -74.5 -30.5t-26.5 -70.5t26.5 -71t74.5 -31q49 0 75.5 30.5t26.5 71.5z" />
    <glyph glyph-name="ninesuperior.alt" horiz-adv-x="345" 
d="M28 690q0 56 40 99t105 43q67 0 106 -42.5t39 -98.5q0 -65 -76 -162l-98 -126h-52l109 138q9 12 26 33q-23 -21 -63 -21q-63 0 -99.5 41t-36.5 96zM71 691q0 -39 27 -70t75 -31t74.5 30.5t26.5 70.5q0 41 -26.5 71.5t-74.5 30.5t-75 -30.5t-27 -71.5z" />
    <glyph glyph-name="sixinferior.alt" horiz-adv-x="345" 
d="M318 13q0 -56 -39.5 -99t-105.5 -43q-67 0 -106 43t-39 98q0 65 76 162l98 126h52l-109 -138q-9 -12 -26 -33q24 22 63 22q62 0 99 -42t37 -96zM275 12q0 41 -26.5 71t-75.5 30q-48 0 -74.5 -30.5t-26.5 -70.5t26.5 -71t74.5 -31q49 0 75.5 31t26.5 71z" />
    <glyph glyph-name="nineinferior.alt" horiz-adv-x="345" 
d="M28 173q0 56 40 99t105 43q67 0 106 -42.5t39 -98.5q0 -65 -76 -162l-98 -126h-52l109 138q9 13 26 33q-23 -21 -63 -21q-63 0 -99.5 41t-36.5 96zM71 174q0 -39 27 -70t75 -31t74.5 30.5t26.5 70.5q0 41 -26.5 71.5t-74.5 30.5t-75 -30.5t-27 -71.5z" />
    <glyph glyph-name="six.numr.alt" horiz-adv-x="345" 
d="M318 413q0 -56 -39.5 -99t-105.5 -43q-67 0 -106 43t-39 98q0 65 76 162l98 126h52l-109 -138q-9 -13 -26 -33q24 22 63 22q62 0 99 -42t37 -96zM275 412q0 41 -26.5 71t-75.5 30q-48 0 -74.5 -30.5t-26.5 -70.5t26.5 -71t74.5 -31q49 0 75.5 31t26.5 71z" />
    <glyph glyph-name="nine.numr.alt" horiz-adv-x="345" 
d="M28 573q0 56 40 99t105 43q67 0 106 -42.5t39 -98.5q0 -65 -76 -162l-98 -126h-52l109 138q9 12 26 33q-23 -21 -63 -21q-63 0 -99.5 41t-36.5 96zM71 574q0 -39 27 -70t75 -31t74.5 30.5t26.5 70.5q0 41 -26.5 71.5t-74.5 30.5t-75 -30.5t-27 -71.5z" />
    <glyph glyph-name="ampersand.alt" horiz-adv-x="670" 
d="M271 -15q-88 0 -144.5 54t-56.5 138q0 128 160 210q-45 50 -64 88t-19 78q0 69 46.5 115.5t116.5 46.5t116.5 -45t46.5 -113q0 -58 -37 -101t-123 -86l166 -191l106 142l50 -16l-125 -163l124 -142h-69l-88 101q-48 -62 -97 -89t-109 -27zM274 415l7 -8q76 38 107.5 71.5
t31.5 76.5q0 47 -32 78t-80 31q-47 0 -77.5 -30.5t-30.5 -77.5q0 -31 16 -62.5t58 -78.5zM126 179q0 -61 41.5 -102t103.5 -41q50 0 89 23.5t84 79.5l-182 210q-70 -35 -103 -76t-33 -94z" />
    <glyph glyph-name="ampersand.small.alt" horiz-adv-x="525" 
d="M203 -15q-68 0 -112 41.5t-44 106.5q0 99 122 164q-61 73 -61 127q0 56 37 93q38 38 95 38t97 -37t40 -88q0 -46 -28.5 -81t-95.5 -68l114 -132l82 105l43 -22l-93 -119l98 -113h-71l-62 72q-73 -87 -161 -87zM215 324l6 -7q61 31 81.5 53.5t20.5 57.5q0 33 -24 56
t-58 23t-57 -22.5t-23 -56.5q0 -40 54 -104zM103 137q0 -45 29.5 -73t77.5 -28q34 0 62 16.5t61 55.5l-130 151q-100 -51 -100 -122z" />
    <glyph glyph-name="NULL" horiz-adv-x="0" 
 />
    </font>
</defs>
</svg>
