<?xml version="1.0" standalone="no"?>
<!DOCTYPE svg PUBLIC "-//W3C//DTD SVG 1.1//EN" "http://www.w3.org/Graphics/SVG/1.1/DTD/svg11.dtd" >
<svg xmlns="http://www.w3.org/2000/svg" xmlns:xlink="http://www.w3.org/1999/xlink" version="1.1">
<metadata>
Created by FontForge 20201107 at Tue Mar 19 07:28:10 2019
 By 
(c) 2018 Stephane Elbaz under exclusive license to General Type LLC. All rights reserved.
</metadata>
<defs>
<font id="MierB-DemiBold" horiz-adv-x="591" >
  <font-face 
    font-family="Mier B DemiBold"
    font-weight="600"
    font-stretch="normal"
    units-per-em="1000"
    panose-1="2 11 7 1 3 0 0 0 0 6"
    ascent="750"
    descent="-250"
    x-height="473"
    cap-height="700"
    bbox="-175 -249 1170 1079"
    underline-thickness="73"
    underline-position="-240"
    unicode-range="U+000D-FB02"
  />
<missing-glyph horiz-adv-x="700" 
d="M369 -80q-113 0 -190 78.5t-77 187.5v18l-19 31q-15 25 -9 53q6 29 31 44l7 4q18 13 43 11q-7 24 0.5 46t28.5 35l7 4q20 12 41 11l-76 120q-12 21 -12 39q0 30 21.5 52.5t51.5 22.5q42 0 65 -35l139 -221v224q0 31 21.5 53t52.5 22t52.5 -22t21.5 -53v-286
q30 -15 48 -43t18 -63v-62q0 -65 -30 -126t-92.5 -103t-143.5 -42zM451 645v-274h66q17 0 22 -2v276q0 18 -13 31t-31 13t-31 -13t-13 -31zM182 579l127 -203l24 -37q6 14 20 23t30 9h33l-160 255q-12 20 -37 20q-18 0 -31 -13t-13 -31q0 -12 7 -23zM313 220l8 5
q14 9 17.5 25.5t-5.5 29.5l-72 114q-9 14 -24.5 17.5t-29.5 -4.5l-8 -5q-13 -9 -17 -24.5t5 -30.5l72 -114q9 -14 25 -17.5t29 4.5zM359 138q0 24 13 49.5t29 33.5q-16 1 -34 15q-7 -25 -29 -37l-7 -4q-18 -11 -43 -11q17 -49 -29 -81l-8 -5q-24 -15 -51.5 -8.5t-44.5 31.5
l-20 30q12 -85 79.5 -143t153.5 -58q99 0 168 72t69 169v62q0 36 -26 62t-62 26h-134q-10 0 -17 -7.5t-7 -19.5q0 -27 19 -47.5t48 -20.5h42q6 0 10.5 -4.5t4.5 -10.5t-4.5 -10.5t-10.5 -4.5q-34 0 -55.5 -23.5t-21.5 -54.5q0 -6 -5 -10.5t-11 -4.5t-11 4.5t-5 10.5z
M235 124l8 5q14 9 17.5 25.5t-5.5 29.5l-72 114q-9 14 -24.5 17.5t-29.5 -4.5l-8 -5q-13 -9 -17 -24.5t5 -30.5l72 -114q9 -14 25 -17.5t29 4.5z" />
    <glyph glyph-name="f_f" unicode="ff" horiz-adv-x="613" 
d="M101 381h-85v92h85v68q0 83 43 128.5t125 45.5q39 0 65 -8v-92q-26 6 -44 6q-80 0 -80 -90v-58h174v68q0 83 43 128.5t125 45.5q39 0 65 -8v-92q-26 6 -44 6q-80 0 -80 -90v-58h124v-92h-124v-381h-109v381h-174v-381h-109v381z" />
    <glyph glyph-name="fi" unicode="fi" horiz-adv-x="564" 
d="M101 381h-85v92h85v68q0 83 43 128.5t125 45.5q39 0 65 -8v-92q-26 6 -44 6q-80 0 -80 -90v-58h124v-92h-124v-381h-109v381zM503 700v-115h-109v115h109zM503 473v-473h-109v473h109z" />
    <glyph glyph-name="fl" unicode="fl" horiz-adv-x="564" 
d="M101 381h-85v92h85v68q0 83 43 128.5t125 45.5q39 0 65 -8v-92q-26 6 -44 6q-80 0 -80 -90v-58h124v-92h-124v-381h-109v381zM394 0v700h109v-700h-109z" />
    <glyph glyph-name=".notdef" horiz-adv-x="700" 
d="M369 -80q-113 0 -190 78.5t-77 187.5v18l-19 31q-15 25 -9 53q6 29 31 44l7 4q18 13 43 11q-7 24 0.5 46t28.5 35l7 4q20 12 41 11l-76 120q-12 21 -12 39q0 30 21.5 52.5t51.5 22.5q42 0 65 -35l139 -221v224q0 31 21.5 53t52.5 22t52.5 -22t21.5 -53v-286
q30 -15 48 -43t18 -63v-62q0 -65 -30 -126t-92.5 -103t-143.5 -42zM451 645v-274h66q17 0 22 -2v276q0 18 -13 31t-31 13t-31 -13t-13 -31zM182 579l127 -203l24 -37q6 14 20 23t30 9h33l-160 255q-12 20 -37 20q-18 0 -31 -13t-13 -31q0 -12 7 -23zM313 220l8 5
q14 9 17.5 25.5t-5.5 29.5l-72 114q-9 14 -24.5 17.5t-29.5 -4.5l-8 -5q-13 -9 -17 -24.5t5 -30.5l72 -114q9 -14 25 -17.5t29 4.5zM359 138q0 24 13 49.5t29 33.5q-16 1 -34 15q-7 -25 -29 -37l-7 -4q-18 -11 -43 -11q17 -49 -29 -81l-8 -5q-24 -15 -51.5 -8.5t-44.5 31.5
l-20 30q12 -85 79.5 -143t153.5 -58q99 0 168 72t69 169v62q0 36 -26 62t-62 26h-134q-10 0 -17 -7.5t-7 -19.5q0 -27 19 -47.5t48 -20.5h42q6 0 10.5 -4.5t4.5 -10.5t-4.5 -10.5t-10.5 -4.5q-34 0 -55.5 -23.5t-21.5 -54.5q0 -6 -5 -10.5t-11 -4.5t-11 4.5t-5 10.5z
M235 124l8 5q14 9 17.5 25.5t-5.5 29.5l-72 114q-9 14 -24.5 17.5t-29.5 -4.5l-8 -5q-13 -9 -17 -24.5t5 -30.5l72 -114q9 -14 25 -17.5t29 4.5z" />
    <glyph glyph-name=".null" horiz-adv-x="0" 
 />
    <glyph glyph-name="nonmarkingreturn" horiz-adv-x="333" 
 />
    <glyph glyph-name="CR" unicode="&#xd;" horiz-adv-x="250" 
 />
    <glyph glyph-name="space" unicode=" " horiz-adv-x="211" 
 />
    <glyph glyph-name="exclam" unicode="!" horiz-adv-x="320" 
d="M226 700l-21 -480h-90l-21 480h132zM219 0h-120v133h120v-133z" />
    <glyph glyph-name="quotedbl" unicode="&#x22;" horiz-adv-x="402" 
d="M165 700l-11 -257h-86l-11 257h108zM346 700l-11 -257h-86l-11 257h108z" />
    <glyph glyph-name="numbersign" unicode="#" 
d="M414 190l-41 -190h-84l40 190h-136l-40 -190h-86l41 190h-94v83h111l34 154h-94v83h113l40 190h86l-41 -190h135l42 190h84l-40 -190h94v-83h-113l-32 -154h94v-83h-113zM206 269h144l35 161h-144z" />
    <glyph glyph-name="dollar" unicode="$" 
d="M343 3v-104h-90v106q-74 12 -123 54t-63 110l101 26q6 -47 46.5 -74t94.5 -27t85.5 27.5t31.5 74.5q0 45 -36 69t-87 36t-102.5 28t-87.5 58.5t-36 114.5q0 78 48 130t128 64v106h90v-105q74 -10 122 -51.5t61 -104.5l-104 -29q-7 42 -40 68t-84 26q-49 0 -77.5 -24
t-28.5 -68q0 -45 35.5 -69t86.5 -36t102.5 -28t87 -58.5t35.5 -114.5q0 -82 -54.5 -138t-141.5 -67z" />
    <glyph glyph-name="percent" unicode="%" horiz-adv-x="782" 
d="M186 325q-69 0 -114 52t-45 143t45 143t114 52t114.5 -52t45.5 -143t-45.5 -143t-114.5 -52zM580 700h86l-465 -700h-86zM186 406q34 0 54 29t20 85t-20 85t-54 29q-33 0 -53 -29t-20 -85t20 -85t53 -29zM595 -15q-69 0 -114 52t-45 143t45 143t114 52t114.5 -52
t45.5 -143t-45.5 -143t-114.5 -52zM595 66q34 0 54 29t20 85t-20 85t-54 29q-33 0 -53 -29t-20 -85t20 -85t53 -29z" />
    <glyph glyph-name="ampersand" unicode="&#x26;" horiz-adv-x="673" 
d="M551 324v-324h-225q-134 0 -204.5 54.5t-70.5 151.5q0 69 36.5 115.5t103.5 58.5q-52 10 -85 51.5t-33 98.5q0 80 64.5 129t181.5 49q52 0 92 -8l-16 -96q-30 5 -65 5q-70 0 -105.5 -25.5t-35.5 -68.5t34 -68t94 -25h122v119h112v-119h106v-98h-106zM327 98h112v226h-143
q-62 0 -95.5 -30.5t-33.5 -79.5q0 -53 40.5 -84.5t119.5 -31.5z" />
    <glyph glyph-name="quotesingle" unicode="'" horiz-adv-x="222" 
d="M165 700l-11 -257h-86l-11 257h108z" />
    <glyph glyph-name="parenleft" unicode="(" horiz-adv-x="314" 
d="M44 295q0 141 44.5 252t98.5 153h105q-65 -60 -106.5 -167t-41.5 -238t41.5 -236.5t106.5 -168.5h-105q-54 44 -98.5 153.5t-44.5 251.5z" />
    <glyph glyph-name="parenright" unicode=")" horiz-adv-x="314" 
d="M270 295q0 -142 -44.5 -252.5t-98.5 -152.5h-105q65 63 106.5 168.5t41.5 236.5t-41.5 238t-106.5 167h105q54 -40 98.5 -151.5t44.5 -253.5z" />
    <glyph glyph-name="asterisk" unicode="*" horiz-adv-x="390" 
d="M328 418l-66 -48l-67 110l-67 -110l-66 48l81 99l-121 30l26 79l115 -50l-10 124h84l-10 -124l115 50l26 -79l-120 -30z" />
    <glyph glyph-name="plus" unicode="+" horiz-adv-x="600" 
d="M258 287h-200v84h200v210h84v-210h200v-84h-200v-210h-84v210z" />
    <glyph glyph-name="comma" unicode="," horiz-adv-x="262" 
d="M206 125l-90 -257h-88l69 257h109z" />
    <glyph glyph-name="hyphen" unicode="-" horiz-adv-x="270" 
d="M250 237h-230v83h230v-83z" />
    <glyph glyph-name="period" unicode="." horiz-adv-x="262" 
d="M191 0h-119v138h119v-138z" />
    <glyph glyph-name="slash" unicode="/" horiz-adv-x="473" 
d="M381 700h92l-381 -786h-92z" />
    <glyph glyph-name="zero" unicode="0" horiz-adv-x="611" 
d="M307 -15q-123 0 -195.5 100t-72.5 265t72 265t193 100q122 0 195 -100t73 -265t-72 -265t-193 -100zM307 87q71 0 110.5 71.5t39.5 191.5q0 119 -40 191t-113 72q-72 0 -111 -72t-39 -191q0 -120 40 -191.5t113 -71.5z" />
    <glyph glyph-name="one" unicode="1" horiz-adv-x="422" 
d="M38 484l-13 112l203 104h100v-700h-111v582z" />
    <glyph glyph-name="two" unicode="2" 
d="M68 0v97l240 226q60 60 84 99t24 80q0 44 -31 77t-85 33q-61 0 -93 -38.5t-39 -96.5l-109 10q11 99 73.5 163.5t166.5 64.5q103 0 168 -60t65 -141q0 -69 -33 -126t-114 -134l-160 -152h311v-102h-468z" />
    <glyph glyph-name="three" unicode="3" 
d="M297 -15q-104 0 -177 58.5t-77 146.5l108 13q5 -51 46 -84.5t98 -33.5q62 0 98 38t36 97q0 58 -35.5 91.5t-94.5 33.5q-49 0 -89 -34v90l192 197h-334v102h468v-95l-133 -140q-34 -33 -38 -37v-4q1 0 3.5 0.5t4.5 0.5q76 0 125 -57t49 -144q0 -105 -68 -172t-182 -67z
" />
    <glyph glyph-name="four" unicode="4" 
d="M480 154v-154h-111v154h-340v102l262 444h189v-444h90v-102h-90zM365 634l-225 -378h229v378h-4z" />
    <glyph glyph-name="five" unicode="5" 
d="M294 -15q-91 0 -158.5 46t-82.5 118l107 29q13 -42 50 -67.5t85 -25.5q64 0 101 40q39 41 39 100q0 63 -39.5 103t-101.5 40q-40 0 -72.5 -18t-46.5 -50h-97v400h438v-102h-334v-189q45 59 145 59t163 -65t63 -168q0 -108 -73 -179t-186 -71z" />
    <glyph glyph-name="six" unicode="6" 
d="M316 -15q-133 0 -202 92.5t-69 269.5q0 174 69.5 271t199.5 97q87 0 150 -42.5t85 -116.5l-113 -21q-10 34 -42 56.5t-80 22.5q-75 0 -115 -60t-40 -173v-22q22 46 68 68.5t102 22.5q99 0 164 -62t65 -160q0 -106 -68.5 -174.5t-173.5 -68.5zM308 83q62 0 99 39.5
t37 98.5t-37 98.5t-99 39.5t-99 -39.5t-37 -98.5t37 -98.5t99 -39.5z" />
    <glyph glyph-name="seven" unicode="7" 
d="M68 700h468v-103l-321 -597h-127l332 598h-352v102z" />
    <glyph glyph-name="eight" unicode="8" 
d="M296 -15q-118 0 -185.5 61.5t-67.5 147.5q0 64 37.5 113t92.5 61q-50 14 -79.5 57.5t-29.5 100.5q0 71 60 130t172 59t172 -59t60 -130q0 -58 -29.5 -101t-79.5 -57q54 -12 91.5 -61t37.5 -113q0 -86 -67 -147.5t-185 -61.5zM295 408q54 0 85.5 29.5t31.5 74.5
q0 40 -30.5 72.5t-86.5 32.5t-86.5 -32.5t-30.5 -72.5q0 -44 32 -74t85 -30zM295 83q61 0 98 33.5t37 83.5q0 51 -37.5 84t-97.5 33t-96.5 -33t-36.5 -84q0 -50 36.5 -83.5t96.5 -33.5z" />
    <glyph glyph-name="nine" unicode="9" 
d="M275 715q133 0 202 -92.5t69 -269.5q0 -174 -69 -271t-199 -97q-87 0 -150.5 42.5t-85.5 116.5l114 21q11 -33 42.5 -56t78.5 -23q75 0 115 60t40 173v22q-22 -46 -67.5 -68.5t-102.5 -22.5q-99 0 -164 62t-65 160q0 107 68.5 175t173.5 68zM283 617q-62 0 -98.5 -38.5
t-36.5 -99.5q0 -60 36.5 -99t98.5 -39q63 0 99.5 39t36.5 99q0 61 -36 99.5t-100 38.5z" />
    <glyph glyph-name="colon" unicode=":" horiz-adv-x="262" 
d="M191 335h-119v138h119v-138zM191 0h-119v138h119v-138z" />
    <glyph glyph-name="semicolon" unicode=";" horiz-adv-x="270" 
d="M199 335h-119v138h119v-138zM206 125l-90 -257h-88l69 257h109z" />
    <glyph glyph-name="less" unicode="&#x3c;" horiz-adv-x="600" 
d="M530 198v-93l-457 183v82l457 182v-92l-338 -129v-4z" />
    <glyph glyph-name="equal" unicode="=" horiz-adv-x="600" 
d="M522 405h-444v85h444v-85zM522 169h-444v84h444v-84z" />
    <glyph glyph-name="greater" unicode="&#x3e;" horiz-adv-x="600" 
d="M73 459v93l457 -183v-82l-457 -182v92l338 129v4z" />
    <glyph glyph-name="question" unicode="?" horiz-adv-x="517" 
d="M307 227v-7h-110v18q0 45 17.5 80t42.5 56.5t49.5 41.5t42 46t17.5 59q0 38 -28.5 64.5t-74.5 26.5q-57 0 -89 -39t-34 -100l-108 8q8 105 68.5 169.5t162.5 64.5q98 0 158.5 -55t60.5 -136q0 -49 -18 -86.5t-44 -60.5t-51.5 -43.5t-43.5 -47t-18 -59.5zM312 0h-121v133
h121v-133z" />
    <glyph glyph-name="at" unicode="@" horiz-adv-x="895" 
d="M407 45q-73 0 -118.5 50.5t-45.5 134.5q0 103 55 175.5t142 72.5q40 0 70.5 -17.5t41.5 -49.5h4l8 49h101l-38 -269q-10 -77 47 -77q43 0 73 49.5t30 132.5q0 138 -84 227.5t-236 89.5q-143 0 -239.5 -102.5t-96.5 -259.5q0 -153 98 -249t242 -96q130 0 217 77l32 -51
q-35 -38 -109.5 -65t-145.5 -27q-172 0 -288.5 111t-116.5 295q0 96 33 178.5t89 138t129.5 86.5t155.5 31q173 0 283 -106t110 -272q0 -113 -55.5 -185t-145.5 -72q-45 0 -73 21t-33 60h-3q-15 -34 -52 -57.5t-81 -23.5zM430 130q51 0 84 46t33 107q0 51 -24.5 80.5
t-67.5 29.5q-53 0 -85 -45.5t-32 -107.5q0 -51 24.5 -80.5t67.5 -29.5z" />
    <glyph glyph-name="A" unicode="A" horiz-adv-x="685" 
d="M406 704l262 -704h-123l-64 181h-280l-63 -181h-121l262 704h127zM344 576h-4l-102 -292h209z" />
    <glyph glyph-name="B" unicode="B" horiz-adv-x="628" 
d="M549 515q0 -57 -31.5 -100t-89.5 -54q73 -7 111 -53t38 -108q0 -93 -61.5 -146.5t-180.5 -53.5h-250v700h238q109 0 167.5 -50t58.5 -135zM314 595h-115v-189h130q51 0 77 26.5t26 68.5t-28.5 68t-89.5 26zM460 207q0 47 -32 74.5t-97 27.5h-132v-205h135q61 0 93.5 29
t32.5 74z" />
    <glyph glyph-name="C" unicode="C" horiz-adv-x="726" 
d="M48 349q0 165 96.5 265.5t247.5 100.5q110 0 189.5 -57t110.5 -159l-118 -18q-16 53 -64 90t-118 37q-100 0 -164 -74t-64 -184t64 -184t163 -74q65 0 113.5 35.5t70.5 97.5l111 -28q-29 -99 -106 -156q-79 -56 -185 -56q-151 0 -249 100.5t-98 263.5z" />
    <glyph glyph-name="D" unicode="D" horiz-adv-x="717" 
d="M669 350q0 -92 -30.5 -161t-85 -109.5t-123 -60t-150.5 -19.5h-195v700h211q171 0 272 -95.5t101 -254.5zM551 350q0 113 -67.5 179t-182.5 66h-102v-491h102q115 0 183 66q67 67 67 180z" />
    <glyph glyph-name="E" unicode="E" horiz-adv-x="610" 
d="M85 700h465v-104h-351v-191h266v-105h-266v-196h351v-104h-465v700z" />
    <glyph glyph-name="F" unicode="F" horiz-adv-x="585" 
d="M85 700h458v-104h-344v-197h258v-104h-258v-295h-114v700z" />
    <glyph glyph-name="G" unicode="G" horiz-adv-x="757" 
d="M690 524l-110 -41q-19 51 -66.5 88t-118.5 37q-102 0 -166.5 -73.5t-64.5 -184.5t63.5 -184.5t166.5 -73.5q90 0 140 49.5t58 126.5h-195v104h317v-38q-3 -159 -88.5 -254t-231.5 -95q-151 0 -248.5 102t-97.5 263q0 160 97 262.5t246 102.5q107 0 184.5 -49.5
t114.5 -141.5z" />
    <glyph glyph-name="H" unicode="H" horiz-adv-x="744" 
d="M545 700h114v-700h-114v295h-346v-295h-114v700h114v-300h346v300z" />
    <glyph glyph-name="I" unicode="I" horiz-adv-x="285" 
d="M85 700h114v-700h-114v700z" />
    <glyph glyph-name="J" unicode="J" horiz-adv-x="417" 
d="M119 -10q-51 0 -88 21v105q32 -22 72 -22q123 0 123 148v353h-162v105h276v-466q0 -244 -221 -244z" />
    <glyph glyph-name="K" unicode="K" horiz-adv-x="652" 
d="M199 332v-332h-114v700h114v-320l282 320h136l-298 -333l323 -367h-152z" />
    <glyph glyph-name="L" unicode="L" horiz-adv-x="531" 
d="M85 0v700h114v-596h310v-104h-424z" />
    <glyph glyph-name="M" unicode="M" horiz-adv-x="921" 
d="M835 700v-700h-114v552h-4l-208 -552h-98l-208 552h-4v-552h-114v700h177l199 -526h4l200 526h170z" />
    <glyph glyph-name="N" unicode="N" horiz-adv-x="778" 
d="M693 700v-704h-127l-367 532v-528h-114v704h127l367 -532v528h114z" />
    <glyph glyph-name="O" unicode="O" horiz-adv-x="800" 
d="M752 350q0 -159 -100.5 -262t-251.5 -103t-251.5 103t-100.5 262t100.5 262t251.5 103t251.5 -103t100.5 -262zM635 350q0 114 -67.5 186t-167.5 72q-99 0 -167 -72t-68 -186t68 -186t167 -72q100 0 167.5 72t67.5 186z" />
    <glyph glyph-name="P" unicode="P" horiz-adv-x="610" 
d="M344 260h-145v-260h-114v700h249q103 0 172.5 -60t69.5 -160q0 -94 -65.5 -157t-166.5 -63zM458 480q0 49 -35.5 82t-108.5 33h-115v-230h126q65 0 99 33t34 82z" />
    <glyph glyph-name="Q" unicode="Q" horiz-adv-x="800" 
d="M695 -70l-110 -10l-52 90q-63 -25 -133 -25q-151 0 -251.5 103t-100.5 262t100.5 262t251.5 103t251.5 -103t100.5 -262q0 -90 -35 -165t-96 -125zM635 350q0 114 -67.5 186t-167.5 72q-99 0 -167 -72t-68 -186t68 -186t167 -72q39 0 78 13l-66 116l111 10l41 -71
q71 73 71 190z" />
    <glyph glyph-name="R" unicode="R" horiz-adv-x="631" 
d="M598 0h-133l-180 294h-86v-294h-114v700h246q98 0 164.5 -54t66.5 -152q0 -69 -41 -120t-113 -71zM445 492q0 42 -32 72.5t-101 30.5h-113v-207h114q68 0 100 30t32 74z" />
    <glyph glyph-name="S" unicode="S" horiz-adv-x="592" 
d="M301 -15q-97 0 -168.5 49t-86.5 134l111 24q9 -51 50.5 -79.5t96.5 -28.5q58 0 93 29.5t35 76.5q0 34 -20 56.5t-51.5 34.5t-69.5 21.5t-76.5 22.5t-70 33t-51.5 58.5t-20 93.5q0 92 65 148.5t167 56.5q98 0 162.5 -52t78.5 -136l-111 -20q-8 49 -43 78.5t-90 29.5
q-50 0 -81.5 -25.5t-31.5 -69.5q0 -34 20 -56t51.5 -33.5t70 -21t77 -22.5t70 -33t51.5 -58.5t20 -93.5q0 -97 -69 -157t-179 -60z" />
    <glyph glyph-name="T" unicode="T" horiz-adv-x="584" 
d="M26 700h531v-105h-208v-595h-114v595h-209v105z" />
    <glyph glyph-name="U" unicode="U" horiz-adv-x="721" 
d="M360 -15q-134 0 -208.5 77.5t-74.5 227.5v410h113v-398q0 -103 45 -156.5t125 -53.5q82 0 126.5 53t44.5 156v399h114v-408q0 -151 -75 -229t-210 -78z" />
    <glyph glyph-name="V" unicode="V" horiz-adv-x="685" 
d="M668 700l-262 -704h-127l-262 704h128l199 -556h4l200 556h120z" />
    <glyph glyph-name="W" unicode="W" horiz-adv-x="980" 
d="M205 -4l-185 704h128l127 -513h5l157 513h117l157 -513h6l126 513h117l-181 -704h-122l-163 530h-4l-163 -530h-122z" />
    <glyph glyph-name="X" unicode="X" horiz-adv-x="697" 
d="M419 365l240 -365h-131l-181 273l-178 -273h-132l241 365l-221 335h132l161 -245l161 245h132z" />
    <glyph glyph-name="Y" unicode="Y" horiz-adv-x="624" 
d="M370 293v-293h-114v293l-244 407h133l169 -295h5l169 295h125z" />
    <glyph glyph-name="Z" unicode="Z" horiz-adv-x="632" 
d="M577 105v-105h-516v98l368 497h-347v105h489v-98l-367 -497h373z" />
    <glyph glyph-name="bracketleft" unicode="[" horiz-adv-x="299" 
d="M270 -27v-83h-198v810h198v-83h-104v-644h104z" />
    <glyph glyph-name="backslash" unicode="\" horiz-adv-x="473" 
d="M473 -86h-92l-381 786h92z" />
    <glyph glyph-name="bracketright" unicode="]" horiz-adv-x="299" 
d="M29 617v83h198v-810h-198v83h104v644h-104z" />
    <glyph glyph-name="asciicircum" unicode="^" horiz-adv-x="600" 
d="M332 700l211 -506h-93l-148 364h-4l-148 -364h-93l211 506h64z" />
    <glyph glyph-name="underscore" unicode="_" horiz-adv-x="500" 
d="M500 -139h-500v83h500v-83z" />
    <glyph glyph-name="grave" unicode="`" horiz-adv-x="500" 
d="M146 700h131l76 -153h-99z" />
    <glyph glyph-name="a" unicode="a" horiz-adv-x="518" 
d="M461 304v-304h-103v51h-3q-18 -29 -57 -47t-84 -18q-73 0 -119.5 41.5t-46.5 105.5q0 73 53.5 114.5t146.5 41.5q69 0 105 -21v41q0 44 -24 68.5t-66 24.5q-70 0 -91 -57l-109 10q20 63 74 98t133 35q92 0 141.5 -47.5t49.5 -136.5zM157 142q0 -32 23.5 -51.5t62.5 -19.5
q45 0 78.5 24.5t33.5 56.5v37q-30 23 -95 23q-48 0 -75.5 -19t-27.5 -51z" />
    <glyph glyph-name="b" unicode="b" horiz-adv-x="578" 
d="M546 236q0 -111 -62.5 -181t-158.5 -70q-48 0 -91 21.5t-65 62.5h-3v-69h-101v700h109v-292q19 36 57.5 58t90.5 22q97 0 160.5 -70t63.5 -182zM437 236q0 68 -36.5 112.5t-97.5 44.5q-60 0 -96.5 -43.5t-36.5 -113.5q0 -69 36.5 -112t96.5 -43q62 0 98 45t36 110z" />
    <glyph glyph-name="c" unicode="c" horiz-adv-x="512" 
d="M268 488q178 0 222 -161l-106 -16q-26 82 -113 82q-61 0 -94.5 -43.5t-33.5 -112.5t33.5 -112.5t94.5 -43.5q84 0 112 81l102 -25q-22 -73 -77 -112.5t-134 -39.5q-108 0 -174 70.5t-66 181.5q0 112 66.5 181.5t167.5 69.5z" />
    <glyph glyph-name="d" unicode="d" horiz-adv-x="580" 
d="M34 236q0 112 63.5 182t159.5 70q52 0 91 -21t58 -55v288h109v-700h-100v72h-3q-22 -44 -64.5 -65.5t-92.5 -21.5q-95 0 -158 70t-63 181zM143 236q0 -68 37 -111.5t97 -43.5q61 0 96.5 43t35.5 112q0 70 -35.5 113.5t-96.5 43.5t-97.5 -44.5t-36.5 -112.5z" />
    <glyph glyph-name="e" unicode="e" horiz-adv-x="535" 
d="M393 142l91 -27q-60 -130 -203 -130q-108 0 -177.5 71t-69.5 179q0 109 66 181t169 72q100 0 166.5 -67.5t67.5 -185.5v-27h-359q8 -60 45 -96.5t93 -36.5q78 0 111 67zM271 404q-52 0 -84.5 -31.5t-41.5 -90.5h245q-4 60 -37 91t-82 31z" />
    <glyph glyph-name="f" unicode="f" horiz-adv-x="334" 
d="M101 381h-85v92h85v68q0 83 43 128.5t125 45.5q39 0 65 -8v-92q-26 6 -44 6q-80 0 -80 -90v-58h124v-92h-124v-381h-109v381z" />
    <glyph glyph-name="g" unicode="g" horiz-adv-x="567" 
d="M39 252q0 107 62.5 171.5t151.5 64.5q93 0 141 -67h3v52h106v-431q0 -116 -59 -179t-168 -63q-84 0 -144 36t-77 95l110 24q8 -30 39.5 -49t73.5 -19q55 0 86 34.5t31 96.5v71q-17 -34 -54.5 -53.5t-87.5 -19.5q-89 0 -151.5 65t-62.5 171zM148 252q0 -65 35.5 -103
t89.5 -38q56 0 91 38.5t35 102.5q0 65 -34.5 103.5t-91.5 38.5q-54 0 -89.5 -38t-35.5 -104z" />
    <glyph glyph-name="h" unicode="h" horiz-adv-x="540" 
d="M65 0v700h108v-286q19 33 58.5 53.5t85.5 20.5q77 0 121.5 -49.5t44.5 -135.5v-303h-109v282q0 54 -23.5 82.5t-65.5 28.5q-48 0 -80 -34t-32 -87v-272h-108z" />
    <glyph glyph-name="i" unicode="i" horiz-adv-x="238" 
d="M174 700v-115h-109v115h109zM174 473v-473h-109v473h109z" />
    <glyph glyph-name="j" unicode="j" horiz-adv-x="238" 
d="M174 700v-115h-109v115h109zM6 -197q-9 0 -26 2t-21 2v95q14 -2 26 -2q44 0 62 25t18 74v474h109v-485q0 -92 -43 -138.5t-125 -46.5z" />
    <glyph glyph-name="k" unicode="k" horiz-adv-x="509" 
d="M174 225v-225h-109v700h109v-426l182 199h130l-204 -213l224 -260h-141z" />
    <glyph glyph-name="l" unicode="l" horiz-adv-x="238" 
d="M65 0v700h109v-700h-109z" />
    <glyph glyph-name="m" unicode="m" horiz-adv-x="828" 
d="M771 308v-308h-109v285q0 51 -22.5 79.5t-63.5 28.5q-44 0 -74 -34t-30 -84v-275h-109v285q0 51 -22.5 79.5t-63.5 28.5q-44 0 -74 -33.5t-30 -84.5v-275h-108v473h101v-60h2q19 33 58 54t87 21q52 0 89 -24t52 -65q24 41 64 65t89 24q77 0 120.5 -48t43.5 -132z" />
    <glyph glyph-name="n" unicode="n" horiz-adv-x="540" 
d="M483 303v-303h-109v282q0 54 -23.5 82.5t-65.5 28.5q-48 0 -80 -34t-32 -87v-272h-108v473h101v-63h2q21 36 60 57t89 21q77 0 121.5 -49t44.5 -136z" />
    <glyph glyph-name="o" unicode="o" horiz-adv-x="559" 
d="M34 237q0 115 70 183t175 68q104 0 175.5 -69t71.5 -182q0 -114 -71.5 -183t-175.5 -69t-174.5 69t-70.5 183zM143 237q0 -70 37.5 -113t98.5 -43q62 0 99.5 43t37.5 113q0 69 -37.5 112.5t-99.5 43.5q-61 0 -98.5 -43.5t-37.5 -112.5z" />
    <glyph glyph-name="p" unicode="p" horiz-adv-x="580" 
d="M546 237q0 -111 -64 -181.5t-160 -70.5q-50 0 -89.5 21.5t-58.5 55.5v-262h-109v673h100v-72h3q46 87 157 87q96 0 158.5 -70t62.5 -181zM437 237q0 68 -37 111.5t-97 43.5t-96.5 -43t-36.5 -112q0 -70 36.5 -113.5t96.5 -43.5q62 0 98 45q36 46 36 112z" />
    <glyph glyph-name="q" unicode="q" horiz-adv-x="580" 
d="M34 237q0 112 62 181.5t159 69.5q50 0 92.5 -21t63.5 -63h3v69h101v-673h-109v265q-43 -80 -149 -80q-96 0 -159.5 70.5t-63.5 181.5zM143 237q0 -66 36 -112q36 -45 98 -45q61 0 96.5 43.5t35.5 113.5q0 69 -35.5 112t-96.5 43q-62 0 -98 -45t-36 -110z" />
    <glyph glyph-name="r" unicode="r" horiz-adv-x="344" 
d="M65 0v473h101v-76h2q18 41 52.5 63.5t76.5 22.5q24 0 37 -7v-105q-14 6 -36 6q-57 0 -91 -38t-34 -118v-221h-108z" />
    <glyph glyph-name="s" unicode="s" horiz-adv-x="452" 
d="M232 -15q-76 0 -128 34t-69 95l99 20q9 -31 36.5 -49.5t64.5 -18.5t57 18t20 49q0 28 -26.5 43t-65 22t-76.5 18t-64.5 42t-26.5 84q0 66 48.5 106t127.5 40q72 0 123 -33.5t64 -87.5l-101 -21q-4 26 -27.5 43t-55.5 17q-34 0 -52.5 -16t-18.5 -40q0 -28 26.5 -43
t64.5 -22t76.5 -18t65 -42t26.5 -84q0 -71 -51.5 -113.5t-136.5 -42.5z" />
    <glyph glyph-name="t" unicode="t" horiz-adv-x="353" 
d="M260 -10q-164 0 -164 166v225h-86v92h86v130l109 21v-151h131v-92h-131v-207q0 -51 18.5 -72t57.5 -21q31 0 48 10l12 -87q-28 -14 -81 -14z" />
    <glyph glyph-name="u" unicode="u" horiz-adv-x="540" 
d="M476 473v-473h-100v63h-5q-19 -35 -58.5 -56.5t-88.5 -21.5q-76 0 -121 49.5t-45 135.5v303h108v-281q0 -54 23.5 -83t66.5 -29q48 0 79.5 34t31.5 87v272h109z" />
    <glyph glyph-name="v" unicode="v" horiz-adv-x="507" 
d="M492 473l-189 -477h-99l-189 477h118l124 -340h3l124 340h108z" />
    <glyph glyph-name="w" unicode="w" horiz-adv-x="756" 
d="M737 473l-152 -477h-100l-105 338l-106 -338h-104l-152 477h115l95 -326h3l103 326h100l101 -326h3l95 326h104z" />
    <glyph glyph-name="x" unicode="x" horiz-adv-x="483" 
d="M309 245l166 -245h-124l-112 171l-111 -171h-120l165 241l-155 232h122l105 -159l104 159h119z" />
    <glyph glyph-name="y" unicode="y" horiz-adv-x="508" 
d="M493 473l-267 -670h-107l86 214l-193 456h119l132 -328l122 328h108z" />
    <glyph glyph-name="z" unicode="z" horiz-adv-x="463" 
d="M64 473h358v-84l-248 -298h260v-91h-389v83l248 299h-229v91z" />
    <glyph glyph-name="braceleft" unicode="{" horiz-adv-x="333" 
d="M304 -29v-81q-35 1 -58.5 4t-52 14.5t-45.5 30.5t-28.5 53.5t-11.5 83.5v115q0 38 -15 50.5t-75 16.5v74q60 4 75 17t15 50v115q0 49 11.5 83.5t28.5 53.5t45.5 30.5t52 14.5t58.5 4v-81q-59 -2 -80.5 -23.5t-21.5 -85.5v-102q0 -59 -17.5 -82.5t-67.5 -28.5v-4
q50 -4 67.5 -28t17.5 -83v-102q0 -65 21 -85.5t81 -23.5z" />
    <glyph glyph-name="bar" unicode="|" horiz-adv-x="243" 
d="M154 -110h-65v861h65v-861z" />
    <glyph glyph-name="braceright" unicode="}" horiz-adv-x="333" 
d="M28 619v81q35 -1 58.5 -4t52 -14.5t45.5 -30.5t28.5 -53.5t11.5 -83.5v-115q0 -37 15 -50t75 -17v-74q-60 -4 -75 -16.5t-15 -50.5v-115q0 -49 -11.5 -83.5t-28.5 -53.5t-45.5 -30.5t-52 -14.5t-58.5 -4v81q60 3 81 23.5t21 85.5v102q0 59 17.5 83t67.5 28v4
q-50 5 -67.5 28.5t-17.5 82.5v102q0 64 -21.5 85.5t-80.5 23.5z" />
    <glyph glyph-name="asciitilde" unicode="~" horiz-adv-x="600" 
d="M410 254q-46 0 -116 33t-107 33q-65 0 -109 -61v91q13 21 43 37.5t69 16.5q46 0 116 -33t107 -33q65 0 109 61v-90q-14 -21 -43 -38t-69 -17z" />
    <glyph glyph-name="exclamdown" unicode="&#xa1;" horiz-adv-x="320" 
d="M101 466h120v-133h-120v133zM94 -234l21 480h90l21 -480h-132z" />
    <glyph glyph-name="cent" unicode="&#xa2;" horiz-adv-x="545" 
d="M326 -13v-88h-90v91q-90 17 -145 86.5t-55 171.5q0 103 55.5 173.5t144.5 85.5v91h90v-90q147 -18 186 -157l-107 -23q-27 87 -122 87q-67 0 -103 -48q-35 -49 -35 -119q0 -74 36.5 -120.5t101.5 -46.5q90 0 121 87l108 -21q-21 -67 -69 -108.5t-117 -51.5z" />
    <glyph glyph-name="sterling" unicode="&#xa3;" 
d="M529 102v-102h-469v85q44 26 65.5 61t21.5 99q0 32 -5 67h-88v76h75q-12 89 -12 112q0 104 60 159q61 56 154 56q76 0 127.5 -36t74.5 -97l-104 -33q-10 29 -34.5 47t-61.5 18q-44 0 -73 -27t-29 -80q0 -42 15 -119h192v-76h-180q3 -27 3 -54q0 -58 -15.5 -92t-45.5 -60
v-4h329z" />
    <glyph glyph-name="currency" unicode="&#xa4;" horiz-adv-x="600" 
d="M300 151q-51 0 -92 26l-90 -90l-60 60l90 90q-26 41 -26 92q0 50 26 91l-90 91l60 60l90 -91q40 27 92 27q48 0 91 -27l91 91l60 -60l-91 -91q26 -41 26 -91q0 -51 -26 -92l91 -90l-60 -60l-90 91q-40 -27 -92 -27zM300 223q44 0 75 31t31 75t-31 75t-75 31t-75 -31
t-31 -75t31 -75t75 -31z" />
    <glyph glyph-name="yen" unicode="&#xa5;" 
d="M351 237v-237h-111v237h-202v76h202v2l-44 72h-158v76h114l-142 237h132l155 -273h5l157 273h123l-143 -237h115v-76h-159l-44 -72v-2h203v-76h-203z" />
    <glyph glyph-name="brokenbar" unicode="&#xa6;" horiz-adv-x="243" 
d="M154 401h-65v350h65v-350zM154 -110h-65v350h65v-350z" />
    <glyph glyph-name="section" unicode="&#xa7;" horiz-adv-x="574" 
d="M299 -176q-92 0 -152.5 44t-76.5 117l107 21q7 -40 39 -65.5t83 -25.5q47 0 74 21.5t27 58.5q0 40 -35.5 64t-86.5 37t-102.5 29.5t-87 54.5t-35.5 98q0 47 24 81.5t64 50.5q-69 47 -69 122q0 80 58.5 131.5t155.5 51.5q88 0 147 -42t81 -116l-105 -24q-7 40 -39 65.5
t-83 25.5q-47 0 -74 -21.5t-27 -58.5q0 -40 35.5 -64t86.5 -37t102 -29.5t86.5 -54.5t35.5 -98q0 -92 -88 -132q69 -42 69 -123q0 -79 -58 -130.5t-156 -51.5zM422 245q0 25 -11 43.5t-34 30t-44 18.5t-55.5 16.5t-55.5 17.5q-58 -19 -58 -77q0 -25 11 -43.5t33 -30
t43 -18.5t55.5 -16.5t55.5 -17.5q60 19 60 77z" />
    <glyph glyph-name="dieresis" unicode="&#xa8;" horiz-adv-x="500" 
d="M196 679v-111h-101v111h101zM405 679v-111h-101v111h101z" />
    <glyph glyph-name="copyright" unicode="&#xa9;" horiz-adv-x="788" 
d="M745 350q0 -159 -101.5 -262t-250.5 -103t-250.5 103t-101.5 262t101.5 262t250.5 103t250.5 -103t101.5 -262zM671 350q0 128 -79.5 211.5t-198.5 83.5q-118 0 -197.5 -84t-79.5 -211t79.5 -211t197.5 -84q119 0 198.5 83.5t79.5 211.5zM400 145q-88 0 -143.5 56.5
t-55.5 148.5t55.5 148.5t141.5 56.5q61 0 106 -29.5t63 -82.5l-83 -24q-7 26 -31 42.5t-56 16.5q-48 0 -80 -35.5t-32 -92.5t33 -92.5t82 -35.5q63 0 84 57l79 -31q-21 -49 -63.5 -76t-99.5 -27z" />
    <glyph glyph-name="ordfeminine" unicode="&#xaa;" horiz-adv-x="394" 
d="M351 572v-222h-89v34h-3q-28 -44 -102 -44q-53 0 -87 30.5t-34 78.5q0 54 40 85.5t109 31.5q47 0 73 -12v24q0 27 -15.5 42.5t-44.5 15.5q-44 0 -57 -33l-90 11q16 47 54.5 72t95.5 25q70 0 110 -36.5t40 -102.5zM128 455q0 -22 15.5 -34t42.5 -12q30 0 51.5 17.5
t21.5 41.5v24q-23 12 -62 12q-69 0 -69 -49z" />
    <glyph glyph-name="guillemotleft" unicode="&#xab;" horiz-adv-x="473" 
d="M151 278l99 -202h-102l-99 202l99 202h102zM329 278l99 -202h-102l-99 202l99 202h102z" />
    <glyph glyph-name="logicalnot" unicode="&#xac;" horiz-adv-x="600" 
d="M537 371v-289h-84v205h-403v84h487z" />
    <glyph glyph-name="registered" unicode="&#xae;" horiz-adv-x="788" 
d="M745 350q0 -159 -101.5 -262t-250.5 -103t-250.5 103t-101.5 262t101.5 262t250.5 103t250.5 -103t101.5 -262zM671 350q0 128 -79.5 211.5t-198.5 83.5q-118 0 -197.5 -84t-79.5 -211t79.5 -211t197.5 -84q119 0 198.5 83.5t79.5 211.5zM338 311v-158h-82v394h139
q59 0 99 -30.5t40 -91.5q0 -78 -75 -104l97 -168h-97l-87 158h-34zM390 471h-52v-93h53q58 0 58 46q0 47 -59 47z" />
    <glyph glyph-name="overscore" unicode="&#xaf;" horiz-adv-x="500" 
d="M412 662v-76h-324v76h324z" />
    <glyph glyph-name="degree" unicode="&#xb0;" horiz-adv-x="355" 
d="M178 418q-63 0 -107 43.5t-44 108.5t44 108.5t107 43.5t107 -43.5t44 -108.5t-44 -108.5t-107 -43.5zM178 484q35 0 59 24.5t24 61.5q0 36 -24 60.5t-59 24.5t-59 -24.5t-24 -60.5q0 -37 24 -61.5t59 -24.5z" />
    <glyph glyph-name="plusminus" unicode="&#xb1;" horiz-adv-x="600" 
d="M258 407h-160v84h160v136h84v-136h160v-84h-160v-135h-84v135zM502 93h-404v84h404v-84z" />
    <glyph glyph-name="twosuperior" unicode="&#xb2;" horiz-adv-x="367" 
d="M334 476v-76h-291v68l144 136q36 36 48 55t12 41q0 23 -17 38t-43 15q-30 0 -48.5 -19t-21.5 -54l-79 8q6 66 47.5 103.5t106.5 37.5t103.5 -33.5t38.5 -88.5q0 -39 -18 -70.5t-68 -78.5l-86 -82h172z" />
    <glyph glyph-name="threesuperior" unicode="&#xb3;" horiz-adv-x="367" 
d="M185 391q-65 0 -110.5 36t-48.5 89l81 9q4 -27 24.5 -43.5t51.5 -16.5q32 0 51 19t19 50q0 30 -18 47t-50 17q-30 0 -55 -19v68l100 97h-189v76h289v-69l-71 -70q-21 -19 -27 -23v-3h6q45 0 73.5 -33t28.5 -85q0 -64 -44 -105t-111 -41z" />
    <glyph glyph-name="acute" unicode="&#xb4;" horiz-adv-x="500" 
d="M368 700l-122 -153h-100l91 153h131z" />
    <glyph glyph-name="mu" unicode="&#xb5;" horiz-adv-x="538" 
d="M173 -171h-109v396h1v248h108v-281q0 -54 23.5 -83t66.5 -29q48 0 79.5 34t31.5 87v272h109v-473h-100v63h-5q-19 -35 -58.5 -56.5t-88.5 -21.5q-31 0 -58 9v-165z" />
    <glyph glyph-name="paragraph" unicode="&#xb6;" horiz-adv-x="587" 
d="M342 700v-810h-75v425h-15q-86 0 -143.5 54.5t-57.5 137.5q0 91 62 142t151 51h78zM496 700v-810h-75v810h75z" />
    <glyph glyph-name="middot" unicode="&#xb7;" horiz-adv-x="262" 
d="M191 211h-119v138h119v-138z" />
    <glyph glyph-name="cedilla" unicode="&#xb8;" horiz-adv-x="500" 
d="M318 0l-44 -200l-95 12l44 188h95z" />
    <glyph glyph-name="onesuperior" unicode="&#xb9;" horiz-adv-x="308" 
d="M40 678l-9 81l118 61h74v-420h-83v333z" />
    <glyph glyph-name="ordmasculine" unicode="&#xba;" horiz-adv-x="415" 
d="M23 525q0 86 53 136t132 50q78 0 131 -50t53 -136q0 -84 -53.5 -135t-130.5 -51q-79 0 -132 50.5t-53 135.5zM116 525q0 -47 26 -76t66 -29t65 28.5t25 76.5q0 47 -25 76t-65 29t-66 -29t-26 -76z" />
    <glyph glyph-name="guillemotright" unicode="&#xbb;" horiz-adv-x="473" 
d="M246 278l-99 -202h-102l99 202l-99 202h102zM424 278l-99 -202h-102l99 202l-99 202h102z" />
    <glyph glyph-name="onequarter" unicode="&#xbc;" horiz-adv-x="791" 
d="M602 700h86l-465 -700h-86zM40 558l-9 81l118 61h74v-420h-83v333zM721 92v-91h-81v91h-201v67l143 262h139v-254h51v-75h-51zM636 369l-113 -202h117v202h-4z" />
    <glyph glyph-name="onehalf" unicode="&#xbd;" horiz-adv-x="856" 
d="M602 700h86l-465 -700h-86zM40 558l-9 81l118 61h74v-420h-83v333zM817 76v-76h-291v68l144 136q36 36 48 55t12 41q0 23 -17 38t-43 15q-30 0 -48.5 -19t-21.5 -54l-79 8q6 66 47.5 103.5t106.5 37.5t103.5 -33.5t38.5 -88.5q0 -39 -18 -70.5t-68 -78.5l-86 -82h172z
" />
    <glyph glyph-name="threequarters" unicode="&#xbe;" horiz-adv-x="840" 
d="M650 700h86l-465 -700h-86zM185 271q-65 0 -110.5 36t-48.5 89l81 9q4 -27 24.5 -43.5t51.5 -16.5q32 0 51 19t19 50q0 30 -18 47t-50 17q-30 0 -55 -19v68l100 97h-189v76h289v-69l-71 -70q-21 -19 -27 -23v-3h6q45 0 73.5 -33t28.5 -85q0 -64 -44 -105t-111 -41z
M770 91v-91h-81v91h-201v67l143 262h139v-254h51v-75h-51zM685 368l-113 -202h117v202h-4z" />
    <glyph glyph-name="questiondown" unicode="&#xbf;" horiz-adv-x="517" 
d="M216 466h121v-133h-121v133zM221 239v7h110v-18q0 -45 -17.5 -80t-42.5 -56.5t-49.5 -41.5t-42 -46t-17.5 -59q0 -38 28.5 -64.5t74.5 -26.5q57 0 89 39t34 100l108 -8q-8 -105 -68 -169.5t-163 -64.5q-98 0 -158.5 55t-60.5 136q0 49 18 86.5t43.5 60.5t51.5 43.5t44 47
t18 59.5z" />
    <glyph glyph-name="Agrave" unicode="&#xc0;" horiz-adv-x="685" 
d="M316 846l73 -106h-100l-104 106h131zM406 704l262 -704h-123l-64 181h-280l-63 -181h-121l262 704h127zM344 576h-4l-102 -292h209z" />
    <glyph glyph-name="Aacute" unicode="&#xc1;" horiz-adv-x="685" 
d="M493 846l-104 -106h-100l73 106h131zM406 704l262 -704h-123l-64 181h-280l-63 -181h-121l262 704h127zM344 576h-4l-102 -292h209z" />
    <glyph glyph-name="Acircumflex" unicode="&#xc2;" horiz-adv-x="685" 
d="M421 846l92 -106h-102l-73 68l-72 -68h-102l92 106h165zM406 704l262 -704h-123l-64 181h-280l-63 -181h-121l262 704h127zM344 576h-4l-102 -292h209z" />
    <glyph glyph-name="Atilde" unicode="&#xc3;" horiz-adv-x="685" 
d="M404 740q-29 0 -71 19t-56 19q-29 0 -36 -37h-64q16 105 97 105q30 0 71.5 -19t55.5 -19q29 0 36 38h64q-16 -106 -97 -106zM406 704l262 -704h-123l-64 181h-280l-63 -181h-121l262 704h127zM344 576h-4l-102 -292h209z" />
    <glyph glyph-name="Adieresis" unicode="&#xc4;" horiz-adv-x="685" 
d="M285 844v-102h-101v102h101zM494 844v-102h-101v102h101zM406 704l262 -704h-123l-64 181h-280l-63 -181h-121l262 704h127zM344 576h-4l-102 -292h209z" />
    <glyph glyph-name="Aring" unicode="&#xc5;" horiz-adv-x="685" 
d="M343 735q-49 0 -82 29t-33 76t32.5 75.5t82.5 28.5t82.5 -28.5t32.5 -75.5t-33 -76t-82 -29zM343 790q23 0 37.5 14t14.5 36q0 21 -14.5 35t-37.5 14t-37.5 -14t-14.5 -35q0 -22 14.5 -36t37.5 -14zM406 704l262 -704h-123l-64 181h-280l-63 -181h-121l262 704h127z
M344 576h-4l-102 -292h209z" />
    <glyph glyph-name="AE" unicode="&#xc6;" horiz-adv-x="954" 
d="M894 104v-104h-465v180h-217l-88 -180h-124l348 700h546v-105h-351v-190h265v-105h-265v-196h351zM429 595h-13l-153 -311h166v311z" />
    <glyph glyph-name="Ccedilla" unicode="&#xc7;" horiz-adv-x="726" 
d="M48 349q0 165 96.5 265.5t247.5 100.5q110 0 189.5 -57t110.5 -159l-118 -18q-16 53 -64 90t-118 37q-100 0 -164 -74t-64 -184t64 -184t163 -74q65 0 113.5 35.5t70.5 97.5l111 -28q-26 -90 -93 -145t-160 -65l-41 -187l-95 12l41 177q-128 18 -209 115.5t-81 244.5z
" />
    <glyph glyph-name="Egrave" unicode="&#xc8;" horiz-adv-x="610" 
d="M295 846l73 -106h-100l-104 106h131zM85 700h465v-104h-351v-191h266v-105h-266v-196h351v-104h-465v700z" />
    <glyph glyph-name="Eacute" unicode="&#xc9;" horiz-adv-x="610" 
d="M471 846l-104 -106h-100l73 106h131zM85 700h465v-104h-351v-191h266v-105h-266v-196h351v-104h-465v700z" />
    <glyph glyph-name="Ecircumflex" unicode="&#xca;" horiz-adv-x="610" 
d="M399 846l92 -106h-102l-73 68l-72 -68h-102l92 106h165zM85 700h465v-104h-351v-191h266v-105h-266v-196h351v-104h-465v700z" />
    <glyph glyph-name="Edieresis" unicode="&#xcb;" horiz-adv-x="610" 
d="M263 844v-102h-101v102h101zM472 844v-102h-101v102h101zM85 700h465v-104h-351v-191h266v-105h-266v-196h351v-104h-465v700z" />
    <glyph glyph-name="Igrave" unicode="&#xcc;" horiz-adv-x="285" 
d="M120 846l73 -106h-100l-104 106h131zM85 700h114v-700h-114v700z" />
    <glyph glyph-name="Iacute" unicode="&#xcd;" horiz-adv-x="285" 
d="M296 846l-104 -106h-100l73 106h131zM85 700h114v-700h-114v700z" />
    <glyph glyph-name="Icircumflex" unicode="&#xce;" horiz-adv-x="285" 
d="M224 846l92 -106h-102l-73 68l-72 -68h-102l92 106h165zM85 700h114v-700h-114v700z" />
    <glyph glyph-name="Idieresis" unicode="&#xcf;" horiz-adv-x="285" 
d="M88 844v-102h-101v102h101zM297 844v-102h-101v102h101zM85 700h114v-700h-114v700z" />
    <glyph glyph-name="Eth" unicode="&#xd0;" horiz-adv-x="717" 
d="M669 350q0 -92 -30.5 -161t-85 -109.5t-123 -60t-150.5 -19.5h-195v304h-85v96h85v300h211q171 0 272 -95.5t101 -254.5zM369 400v-96h-170v-200h102q115 0 183 66q67 67 67 180t-67.5 179t-182.5 66h-102v-195h170z" />
    <glyph glyph-name="Ntilde" unicode="&#xd1;" horiz-adv-x="778" 
d="M452 740q-29 0 -71 19t-56 19q-29 0 -36 -37h-64q16 105 97 105q30 0 71.5 -19t55.5 -19q29 0 36 38h64q-16 -106 -97 -106zM693 700v-704h-127l-367 532v-528h-114v704h127l367 -532v528h114z" />
    <glyph glyph-name="Ograve" unicode="&#xd2;" horiz-adv-x="800" 
d="M377 846l73 -106h-100l-104 106h131zM752 350q0 -159 -100.5 -262t-251.5 -103t-251.5 103t-100.5 262t100.5 262t251.5 103t251.5 -103t100.5 -262zM635 350q0 114 -67.5 186t-167.5 72q-99 0 -167 -72t-68 -186t68 -186t167 -72q100 0 167.5 72t67.5 186z" />
    <glyph glyph-name="Oacute" unicode="&#xd3;" horiz-adv-x="800" 
d="M553 846l-104 -106h-100l73 106h131zM752 350q0 -159 -100.5 -262t-251.5 -103t-251.5 103t-100.5 262t100.5 262t251.5 103t251.5 -103t100.5 -262zM635 350q0 114 -67.5 186t-167.5 72q-99 0 -167 -72t-68 -186t68 -186t167 -72q100 0 167.5 72t67.5 186z" />
    <glyph glyph-name="Ocircumflex" unicode="&#xd4;" horiz-adv-x="800" 
d="M481 846l92 -106h-102l-73 68l-72 -68h-102l92 106h165zM752 350q0 -159 -100.5 -262t-251.5 -103t-251.5 103t-100.5 262t100.5 262t251.5 103t251.5 -103t100.5 -262zM635 350q0 114 -67.5 186t-167.5 72q-99 0 -167 -72t-68 -186t68 -186t167 -72q100 0 167.5 72
t67.5 186z" />
    <glyph glyph-name="Otilde" unicode="&#xd5;" horiz-adv-x="800" 
d="M464 740q-29 0 -71 19t-56 19q-29 0 -36 -37h-64q16 105 97 105q30 0 71.5 -19t55.5 -19q29 0 36 38h64q-16 -106 -97 -106zM752 350q0 -159 -100.5 -262t-251.5 -103t-251.5 103t-100.5 262t100.5 262t251.5 103t251.5 -103t100.5 -262zM635 350q0 114 -67.5 186
t-167.5 72q-99 0 -167 -72t-68 -186t68 -186t167 -72q100 0 167.5 72t67.5 186z" />
    <glyph glyph-name="Odieresis" unicode="&#xd6;" horiz-adv-x="800" 
d="M345 844v-102h-101v102h101zM554 844v-102h-101v102h101zM752 350q0 -159 -100.5 -262t-251.5 -103t-251.5 103t-100.5 262t100.5 262t251.5 103t251.5 -103t100.5 -262zM635 350q0 114 -67.5 186t-167.5 72q-99 0 -167 -72t-68 -186t68 -186t167 -72q100 0 167.5 72
t67.5 186z" />
    <glyph glyph-name="multiply" unicode="&#xd7;" horiz-adv-x="600" 
d="M240 329l-162 162l60 60l162 -162l162 162l61 -60l-163 -162l162 -162l-60 -60l-162 162l-162 -162l-60 60z" />
    <glyph glyph-name="Oslash" unicode="&#xd8;" horiz-adv-x="800" 
d="M214 36l-40 -51h-125l89 114q-90 103 -90 251q0 159 100.5 262t251.5 103q104 0 186 -51l40 51h126l-90 -114q90 -103 90 -251q0 -159 -100.5 -262t-251.5 -103q-104 0 -186 51zM165 350q0 -91 48 -162l308 386q-55 34 -121 34q-99 0 -167 -72t-68 -186zM635 350
q0 95 -48 162l-307 -387q55 -33 120 -33q100 0 167.5 72t67.5 186z" />
    <glyph glyph-name="Ugrave" unicode="&#xd9;" horiz-adv-x="721" 
d="M338 846l73 -106h-100l-104 106h131zM360 -15q-134 0 -208.5 77.5t-74.5 227.5v410h113v-398q0 -103 45 -156.5t125 -53.5q82 0 126.5 53t44.5 156v399h114v-408q0 -151 -75 -229t-210 -78z" />
    <glyph glyph-name="Uacute" unicode="&#xda;" horiz-adv-x="721" 
d="M514 846l-104 -106h-100l73 106h131zM360 -15q-134 0 -208.5 77.5t-74.5 227.5v410h113v-398q0 -103 45 -156.5t125 -53.5q82 0 126.5 53t44.5 156v399h114v-408q0 -151 -75 -229t-210 -78z" />
    <glyph glyph-name="Ucircumflex" unicode="&#xdb;" horiz-adv-x="721" 
d="M443 846l92 -106h-102l-73 68l-72 -68h-102l92 106h165zM360 -15q-134 0 -208.5 77.5t-74.5 227.5v410h113v-398q0 -103 45 -156.5t125 -53.5q82 0 126.5 53t44.5 156v399h114v-408q0 -151 -75 -229t-210 -78z" />
    <glyph glyph-name="Udieresis" unicode="&#xdc;" horiz-adv-x="721" 
d="M307 844v-102h-101v102h101zM516 844v-102h-101v102h101zM360 -15q-134 0 -208.5 77.5t-74.5 227.5v410h113v-398q0 -103 45 -156.5t125 -53.5q82 0 126.5 53t44.5 156v399h114v-408q0 -151 -75 -229t-210 -78z" />
    <glyph glyph-name="Yacute" unicode="&#xdd;" horiz-adv-x="624" 
d="M471 846l-104 -106h-100l73 106h131zM370 293v-293h-114v293l-244 407h133l169 -295h5l169 295h125z" />
    <glyph glyph-name="Thorn" unicode="&#xde;" horiz-adv-x="603" 
d="M85 700h114v-130h135q103 0 172.5 -60t69.5 -160q0 -94 -65.5 -157t-166.5 -63h-145v-130h-114v700zM314 465h-115v-230h126q65 0 99 33t34 82t-35.5 82t-108.5 33z" />
    <glyph glyph-name="germandbls" unicode="&#xdf;" horiz-adv-x="545" 
d="M285 -8q-34 0 -59 5v95q25 -5 48 -5q59 0 96.5 34.5t37.5 89.5t-37.5 87t-102.5 32h-23v93h4q56 0 85.5 25t29.5 71q0 44 -26 72t-69 28q-46 0 -72.5 -32t-26.5 -86v-501h-109v491q0 104 55 164t149 60q89 0 146.5 -51t57.5 -130q0 -51 -24.5 -88.5t-66.5 -50.5v-4
q63 -11 101 -61t38 -121q0 -96 -64.5 -156.5t-167.5 -60.5z" />
    <glyph glyph-name="agrave" unicode="&#xe0;" horiz-adv-x="516" 
d="M101 699h131l76 -153h-99zM461 304v-304h-103v51h-3q-18 -29 -57 -47t-84 -18q-73 0 -119.5 41.5t-46.5 105.5q0 73 53.5 114.5t146.5 41.5q69 0 105 -21v41q0 44 -24 68.5t-66 24.5q-70 0 -91 -57l-109 10q20 63 74 98t133 35q92 0 141.5 -47.5t49.5 -136.5zM157 142
q0 -32 23.5 -51.5t62.5 -19.5q45 0 78.5 24.5t33.5 56.5v37q-30 23 -95 23q-48 0 -75.5 -19t-27.5 -51z" />
    <glyph glyph-name="aacute" unicode="&#xe1;" horiz-adv-x="516" 
d="M430 699l-122 -153h-100l91 153h131zM461 304v-304h-103v51h-3q-18 -29 -57 -47t-84 -18q-73 0 -119.5 41.5t-46.5 105.5q0 73 53.5 114.5t146.5 41.5q69 0 105 -21v41q0 44 -24 68.5t-66 24.5q-70 0 -91 -57l-109 10q20 63 74 98t133 35q92 0 141.5 -47.5t49.5 -136.5z
M157 142q0 -32 23.5 -51.5t62.5 -19.5q45 0 78.5 24.5t33.5 56.5v37q-30 23 -95 23q-48 0 -75.5 -19t-27.5 -51z" />
    <glyph glyph-name="acircumflex" unicode="&#xe2;" horiz-adv-x="516" 
d="M325 699l109 -153h-102l-74 100l-74 -100h-102l109 153h134zM461 304v-304h-103v51h-3q-18 -29 -57 -47t-84 -18q-73 0 -119.5 41.5t-46.5 105.5q0 73 53.5 114.5t146.5 41.5q69 0 105 -21v41q0 44 -24 68.5t-66 24.5q-70 0 -91 -57l-109 10q20 63 74 98t133 35
q92 0 141.5 -47.5t49.5 -136.5zM157 142q0 -32 23.5 -51.5t62.5 -19.5q45 0 78.5 24.5t33.5 56.5v37q-30 23 -95 23q-48 0 -75.5 -19t-27.5 -51z" />
    <glyph glyph-name="atilde" unicode="&#xe3;" horiz-adv-x="516" 
d="M325 557q-31 0 -68 25t-54 25q-33 0 -39 -50h-76q12 132 101 132q32 0 68.5 -25t53.5 -25q33 0 39 49h76q-12 -131 -101 -131zM461 304v-304h-103v51h-3q-18 -29 -57 -47t-84 -18q-73 0 -119.5 41.5t-46.5 105.5q0 73 53.5 114.5t146.5 41.5q69 0 105 -21v41
q0 44 -24 68.5t-66 24.5q-70 0 -91 -57l-109 10q20 63 74 98t133 35q92 0 141.5 -47.5t49.5 -136.5zM157 142q0 -32 23.5 -51.5t62.5 -19.5q45 0 78.5 24.5t33.5 56.5v37q-30 23 -95 23q-48 0 -75.5 -19t-27.5 -51z" />
    <glyph glyph-name="adieresis" unicode="&#xe4;" horiz-adv-x="516" 
d="M204 678v-111h-101v111h101zM413 678v-111h-101v111h101zM461 304v-304h-103v51h-3q-18 -29 -57 -47t-84 -18q-73 0 -119.5 41.5t-46.5 105.5q0 73 53.5 114.5t146.5 41.5q69 0 105 -21v41q0 44 -24 68.5t-66 24.5q-70 0 -91 -57l-109 10q20 63 74 98t133 35
q92 0 141.5 -47.5t49.5 -136.5zM157 142q0 -32 23.5 -51.5t62.5 -19.5q45 0 78.5 24.5t33.5 56.5v37q-30 23 -95 23q-48 0 -75.5 -19t-27.5 -51z" />
    <glyph glyph-name="aring" unicode="&#xe5;" horiz-adv-x="516" 
d="M273 532q-49 0 -82 29.5t-33 74.5q0 47 32.5 75.5t82.5 28.5t82.5 -28.5t32.5 -75.5q0 -45 -33 -74.5t-82 -29.5zM273 586q23 0 37.5 14t14.5 36t-14.5 36t-37.5 14t-37.5 -14t-14.5 -36t14.5 -36t37.5 -14zM461 304v-304h-103v51h-3q-18 -29 -57 -47t-84 -18
q-73 0 -119.5 41.5t-46.5 105.5q0 73 53.5 114.5t146.5 41.5q69 0 105 -21v41q0 44 -24 68.5t-66 24.5q-70 0 -91 -57l-109 10q20 63 74 98t133 35q92 0 141.5 -47.5t49.5 -136.5zM157 142q0 -32 23.5 -51.5t62.5 -19.5q45 0 78.5 24.5t33.5 56.5v37q-30 23 -95 23
q-48 0 -75.5 -19t-27.5 -51z" />
    <glyph glyph-name="ae" unicode="&#xe6;" horiz-adv-x="854" 
d="M228 -15q-82 0 -131 42t-49 107q0 72 54 113.5t146 41.5q69 0 105 -21v41q0 44 -23.5 68.5t-66.5 24.5q-70 0 -91 -57l-109 10q20 64 74 98.5t133 34.5q116 0 153 -82q21 38 66 60t98 22q100 0 167.5 -68t67.5 -185v-28h-359q8 -59 45 -95.5t93 -36.5q78 0 112 67l91 -25
q-27 -63 -79.5 -97.5t-124.5 -34.5q-60 0 -111.5 25.5t-82.5 69.5q-57 -95 -178 -95zM589 404q-52 0 -84.5 -31.5t-40.5 -90.5h245q-4 60 -37.5 91t-82.5 31zM243 71q46 0 79 26.5t33 60.5v31q-30 23 -95 23q-48 0 -75.5 -19t-27.5 -52q0 -31 23.5 -50.5t62.5 -19.5z" />
    <glyph glyph-name="ccedilla" unicode="&#xe7;" horiz-adv-x="512" 
d="M315 -12l-41 -188l-95 12l42 178q-86 17 -137 84q-50 68 -50 163q0 112 66.5 181.5t167.5 69.5q178 0 222 -161l-106 -16q-26 82 -113 82q-61 0 -94.5 -43.5t-33.5 -112.5t33.5 -112.5t94.5 -43.5q84 0 112 81l102 -25q-38 -129 -170 -149z" />
    <glyph glyph-name="egrave" unicode="&#xe8;" horiz-adv-x="535" 
d="M109 699h131l76 -153h-99zM393 142l91 -27q-60 -130 -203 -130q-108 0 -177.5 71t-69.5 179q0 109 66 181t169 72q100 0 166.5 -67.5t67.5 -185.5v-27h-359q8 -60 45 -96.5t93 -36.5q78 0 111 67zM271 404q-52 0 -84.5 -31.5t-41.5 -90.5h245q-4 60 -37 91t-82 31z" />
    <glyph glyph-name="eacute" unicode="&#xe9;" horiz-adv-x="535" 
d="M438 699l-122 -153h-100l91 153h131zM393 142l91 -27q-60 -130 -203 -130q-108 0 -177.5 71t-69.5 179q0 109 66 181t169 72q100 0 166.5 -67.5t67.5 -185.5v-27h-359q8 -60 45 -96.5t93 -36.5q78 0 111 67zM271 404q-52 0 -84.5 -31.5t-41.5 -90.5h245q-4 60 -37 91
t-82 31z" />
    <glyph glyph-name="ecircumflex" unicode="&#xea;" horiz-adv-x="535" 
d="M333 699l109 -153h-102l-74 100l-74 -100h-102l109 153h134zM393 142l91 -27q-60 -130 -203 -130q-108 0 -177.5 71t-69.5 179q0 109 66 181t169 72q100 0 166.5 -67.5t67.5 -185.5v-27h-359q8 -60 45 -96.5t93 -36.5q78 0 111 67zM271 404q-52 0 -84.5 -31.5
t-41.5 -90.5h245q-4 60 -37 91t-82 31z" />
    <glyph glyph-name="edieresis" unicode="&#xeb;" horiz-adv-x="535" 
d="M212 678v-111h-101v111h101zM421 678v-111h-101v111h101zM393 142l91 -27q-60 -130 -203 -130q-108 0 -177.5 71t-69.5 179q0 109 66 181t169 72q100 0 166.5 -67.5t67.5 -185.5v-27h-359q8 -60 45 -96.5t93 -36.5q78 0 111 67zM271 404q-52 0 -84.5 -31.5t-41.5 -90.5
h245q-4 60 -37 91t-82 31z" />
    <glyph glyph-name="igrave" unicode="&#xec;" horiz-adv-x="238" 
d="M-43 699h131l76 -153h-99zM174 473v-473h-109v473h109z" />
    <glyph glyph-name="iacute" unicode="&#xed;" horiz-adv-x="238" 
d="M290 699l-122 -153h-100l91 153h131zM174 473v-473h-109v473h109z" />
    <glyph glyph-name="icircumflex" unicode="&#xee;" horiz-adv-x="238" 
d="M183 699l109 -153h-102l-74 100l-74 -100h-102l109 153h134zM174 473v-473h-109v473h109z" />
    <glyph glyph-name="idieresis" unicode="&#xef;" horiz-adv-x="238" 
d="M62 678v-111h-101v111h101zM271 678v-111h-101v111h101zM174 473v-473h-109v473h109z" />
    <glyph glyph-name="eth" unicode="&#xf0;" horiz-adv-x="542" 
d="M274 -15q-105 0 -172.5 71t-67.5 180q0 107 64 178.5t164 71.5q64 0 97 -33q-21 44 -59 91l-157 -34v88l88 19q-47 43 -100 76l127 20q38 -26 87 -71l117 25v-88l-52 -11q108 -146 108 -305q0 -123 -67 -200.5t-177 -77.5zM278 81q61 0 97.5 43.5t36.5 111.5t-36.5 111
t-97.5 43t-98.5 -43t-37.5 -111q0 -67 38 -111t98 -44z" />
    <glyph glyph-name="ntilde" unicode="&#xf1;" horiz-adv-x="541" 
d="M338 557q-31 0 -68 25t-54 25q-33 0 -39 -50h-76q12 132 101 132q32 0 68.5 -25t53.5 -25q33 0 39 49h76q-12 -131 -101 -131zM483 303v-303h-109v282q0 54 -23.5 82.5t-65.5 28.5q-48 0 -80 -34t-32 -87v-272h-108v473h101v-63h2q21 36 60 57t89 21q77 0 121.5 -49
t44.5 -136z" />
    <glyph glyph-name="ograve" unicode="&#xf2;" horiz-adv-x="559" 
d="M118 699h131l76 -153h-99zM34 237q0 115 70 183t175 68q104 0 175.5 -69t71.5 -182q0 -114 -71.5 -183t-175.5 -69t-174.5 69t-70.5 183zM143 237q0 -70 37.5 -113t98.5 -43q62 0 99.5 43t37.5 113q0 69 -37.5 112.5t-99.5 43.5q-61 0 -98.5 -43.5t-37.5 -112.5z" />
    <glyph glyph-name="oacute" unicode="&#xf3;" horiz-adv-x="559" 
d="M449 699l-122 -153h-100l91 153h131zM34 237q0 115 70 183t175 68q104 0 175.5 -69t71.5 -182q0 -114 -71.5 -183t-175.5 -69t-174.5 69t-70.5 183zM143 237q0 -70 37.5 -113t98.5 -43q62 0 99.5 43t37.5 113q0 69 -37.5 112.5t-99.5 43.5q-61 0 -98.5 -43.5
t-37.5 -112.5z" />
    <glyph glyph-name="ocircumflex" unicode="&#xf4;" horiz-adv-x="559" 
d="M343 699l109 -153h-102l-74 100l-74 -100h-102l109 153h134zM34 237q0 115 70 183t175 68q104 0 175.5 -69t71.5 -182q0 -114 -71.5 -183t-175.5 -69t-174.5 69t-70.5 183zM143 237q0 -70 37.5 -113t98.5 -43q62 0 99.5 43t37.5 113q0 69 -37.5 112.5t-99.5 43.5
q-61 0 -98.5 -43.5t-37.5 -112.5z" />
    <glyph glyph-name="otilde" unicode="&#xf5;" horiz-adv-x="559" 
d="M343 557q-31 0 -68 25t-54 25q-33 0 -39 -50h-76q12 132 101 132q32 0 68.5 -25t53.5 -25q33 0 39 49h76q-12 -131 -101 -131zM34 237q0 115 70 183t175 68q104 0 175.5 -69t71.5 -182q0 -114 -71.5 -183t-175.5 -69t-174.5 69t-70.5 183zM143 237q0 -70 37.5 -113
t98.5 -43q62 0 99.5 43t37.5 113q0 69 -37.5 112.5t-99.5 43.5q-61 0 -98.5 -43.5t-37.5 -112.5z" />
    <glyph glyph-name="odieresis" unicode="&#xf6;" horiz-adv-x="559" 
d="M221 678v-111h-101v111h101zM430 678v-111h-101v111h101zM34 237q0 115 70 183t175 68q104 0 175.5 -69t71.5 -182q0 -114 -71.5 -183t-175.5 -69t-174.5 69t-70.5 183zM143 237q0 -70 37.5 -113t98.5 -43q62 0 99.5 43t37.5 113q0 69 -37.5 112.5t-99.5 43.5
q-61 0 -98.5 -43.5t-37.5 -112.5z" />
    <glyph glyph-name="divide" unicode="&#xf7;" horiz-adv-x="600" 
d="M343 581v-93h-86v93h86zM502 371v-84h-404v84h404zM343 171v-93h-86v93h86z" />
    <glyph glyph-name="oslash" unicode="&#xf8;" horiz-adv-x="559" 
d="M163 12l-20 -26h-110l61 80q-60 70 -60 171q0 115 70 183t175 68q65 0 117 -27l20 26h110l-61 -78q61 -67 61 -172q0 -114 -71.5 -183t-175.5 -69q-65 0 -116 27zM143 237q0 -53 21 -89l177 231q-30 14 -62 14q-61 0 -98.5 -43.5t-37.5 -112.5zM416 237q0 49 -21 89
l-177 -231q30 -14 61 -14q62 0 99.5 43t37.5 113z" />
    <glyph glyph-name="ugrave" unicode="&#xf9;" horiz-adv-x="541" 
d="M102 699h131l76 -153h-99zM476 473v-473h-100v63h-5q-19 -35 -58.5 -56.5t-88.5 -21.5q-76 0 -121 49.5t-45 135.5v303h108v-281q0 -54 23.5 -83t66.5 -29q48 0 79.5 34t31.5 87v272h109z" />
    <glyph glyph-name="uacute" unicode="&#xfa;" horiz-adv-x="541" 
d="M433 699l-122 -153h-100l91 153h131zM476 473v-473h-100v63h-5q-19 -35 -58.5 -56.5t-88.5 -21.5q-76 0 -121 49.5t-45 135.5v303h108v-281q0 -54 23.5 -83t66.5 -29q48 0 79.5 34t31.5 87v272h109z" />
    <glyph glyph-name="ucircumflex" unicode="&#xfb;" horiz-adv-x="541" 
d="M327 699l109 -153h-102l-74 100l-74 -100h-102l109 153h134zM476 473v-473h-100v63h-5q-19 -35 -58.5 -56.5t-88.5 -21.5q-76 0 -121 49.5t-45 135.5v303h108v-281q0 -54 23.5 -83t66.5 -29q48 0 79.5 34t31.5 87v272h109z" />
    <glyph glyph-name="udieresis" unicode="&#xfc;" horiz-adv-x="541" 
d="M206 678v-111h-101v111h101zM415 678v-111h-101v111h101zM476 473v-473h-100v63h-5q-19 -35 -58.5 -56.5t-88.5 -21.5q-76 0 -121 49.5t-45 135.5v303h108v-281q0 -54 23.5 -83t66.5 -29q48 0 79.5 34t31.5 87v272h109z" />
    <glyph glyph-name="yacute" unicode="&#xfd;" horiz-adv-x="508" 
d="M427 699l-122 -153h-100l91 153h131zM493 473l-267 -670h-107l86 214l-193 456h119l132 -328l122 328h108z" />
    <glyph glyph-name="thorn" unicode="&#xfe;" horiz-adv-x="579" 
d="M546 237q0 -111 -64 -181t-160 -70q-50 0 -90 21t-59 55v-262h-108v900h109v-291q45 79 150 79q96 0 159 -70t63 -181zM436 237q0 68 -36.5 111.5t-97.5 43.5q-60 0 -96.5 -43t-36.5 -112t36.5 -112.5t96.5 -43.5q62 0 98 44t36 112z" />
    <glyph glyph-name="ydieresis" unicode="&#xff;" horiz-adv-x="508" 
d="M200 678v-111h-101v111h101zM409 678v-111h-101v111h101zM493 473l-267 -670h-107l86 214l-193 456h119l132 -328l122 328h108z" />
    <glyph glyph-name="Amacron" unicode="&#x100;" horiz-adv-x="685" 
d="M501 831v-76h-324v76h324zM406 704l262 -704h-123l-64 181h-280l-63 -181h-121l262 704h127zM344 576h-4l-102 -292h209z" />
    <glyph glyph-name="amacron" unicode="&#x101;" horiz-adv-x="516" 
d="M419 661v-76h-324v76h324zM461 304v-304h-103v51h-3q-18 -29 -57 -47t-84 -18q-73 0 -119.5 41.5t-46.5 105.5q0 73 53.5 114.5t146.5 41.5q69 0 105 -21v41q0 44 -24 68.5t-66 24.5q-70 0 -91 -57l-109 10q20 63 74 98t133 35q92 0 141.5 -47.5t49.5 -136.5zM157 142
q0 -32 23.5 -51.5t62.5 -19.5q45 0 78.5 24.5t33.5 56.5v37q-30 23 -95 23q-48 0 -75.5 -19t-27.5 -51z" />
    <glyph glyph-name="Abreve" unicode="&#x102;" horiz-adv-x="685" 
d="M339 731q-55 0 -99 27t-58 88h84q8 -23 28 -36t45 -13t45 13t28 36h84q-12 -61 -56.5 -88t-100.5 -27zM406 704l262 -704h-123l-64 181h-280l-63 -181h-121l262 704h127zM344 576h-4l-102 -292h209z" />
    <glyph glyph-name="abreve" unicode="&#x103;" horiz-adv-x="516" 
d="M258 549q-66 0 -107.5 38t-49.5 109h84q5 -35 25 -55t48 -20q30 0 49.5 20t23.5 55h84q-8 -71 -49.5 -109t-107.5 -38zM461 304v-304h-103v51h-3q-18 -29 -57 -47t-84 -18q-73 0 -119.5 41.5t-46.5 105.5q0 73 53.5 114.5t146.5 41.5q69 0 105 -21v41q0 44 -24 68.5
t-66 24.5q-70 0 -91 -57l-109 10q20 63 74 98t133 35q92 0 141.5 -47.5t49.5 -136.5zM157 142q0 -32 23.5 -51.5t62.5 -19.5q45 0 78.5 24.5t33.5 56.5v37q-30 23 -95 23q-48 0 -75.5 -19t-27.5 -51z" />
    <glyph glyph-name="Aogonek" unicode="&#x104;" horiz-adv-x="685" 
d="M608 -200q-62 0 -97 23.5t-35 68.5q0 64 69 109l-64 180h-280l-63 -181h-121l262 704h127l262 -704h-12q-87 -34 -87 -89q0 -21 15.5 -32.5t40.5 -11.5q16 0 31 3v-66q-21 -4 -48 -4zM344 576h-4l-102 -292h209z" />
    <glyph glyph-name="aogonek" unicode="&#x105;" horiz-adv-x="516" 
d="M401 -200q-62 0 -97 23.5t-35 68.5q0 73 89 121v38h-3q-18 -29 -57 -47t-84 -18q-73 0 -119.5 41.5t-46.5 105.5q0 73 53.5 114.5t146.5 41.5q69 0 105 -21v41q0 44 -24 68.5t-66 24.5q-70 0 -91 -57l-109 10q20 63 74 98t133 35q92 0 141.5 -47.5t49.5 -136.5v-304h-12
q-87 -34 -87 -89q0 -21 15.5 -32.5t40.5 -11.5q16 0 31 3v-66q-21 -4 -48 -4zM157 142q0 -32 23.5 -51.5t62.5 -19.5q45 0 78.5 24.5t33.5 56.5v37q-30 23 -95 23q-48 0 -75.5 -19t-27.5 -51z" />
    <glyph glyph-name="Cacute" unicode="&#x106;" horiz-adv-x="733" 
d="M542 846l-104 -106h-100l73 106h131zM48 349q0 165 96.5 265.5t247.5 100.5q110 0 189.5 -57t110.5 -159l-118 -18q-16 53 -64 90t-118 37q-100 0 -164 -74t-64 -184t64 -184t163 -74q65 0 113.5 35.5t70.5 97.5l111 -28q-29 -99 -106 -156q-79 -56 -185 -56
q-151 0 -249 100.5t-98 263.5z" />
    <glyph glyph-name="cacute" unicode="&#x107;" horiz-adv-x="512" 
d="M440 700l-122 -153h-100l91 153h131zM268 488q178 0 222 -161l-106 -16q-26 82 -113 82q-61 0 -94.5 -43.5t-33.5 -112.5t33.5 -112.5t94.5 -43.5q84 0 112 81l102 -25q-22 -73 -77 -112.5t-134 -39.5q-108 0 -174 70.5t-66 181.5q0 112 66.5 181.5t167.5 69.5z" />
    <glyph glyph-name="Ccircumflex" unicode="&#x108;" horiz-adv-x="726" 
d="M471 846l92 -106h-102l-73 68l-72 -68h-102l92 106h165zM48 349q0 165 96.5 265.5t247.5 100.5q110 0 189.5 -57t110.5 -159l-118 -18q-16 53 -64 90t-118 37q-100 0 -164 -74t-64 -184t64 -184t163 -74q65 0 113.5 35.5t70.5 97.5l111 -28q-29 -99 -106 -156
q-79 -56 -185 -56q-151 0 -249 100.5t-98 263.5z" />
    <glyph glyph-name="ccircumflex" unicode="&#x109;" horiz-adv-x="512" 
d="M334 700l109 -153h-102l-74 100l-74 -100h-102l109 153h134zM268 488q178 0 222 -161l-106 -16q-26 82 -113 82q-61 0 -94.5 -43.5t-33.5 -112.5t33.5 -112.5t94.5 -43.5q84 0 112 81l102 -25q-22 -73 -77 -112.5t-134 -39.5q-108 0 -174 70.5t-66 181.5
q0 112 66.5 181.5t167.5 69.5z" />
    <glyph glyph-name="Cdotaccent" unicode="&#x10a;" horiz-adv-x="726" 
d="M443 837v-88h-109v88h109zM48 349q0 165 96.5 265.5t247.5 100.5q110 0 189.5 -57t110.5 -159l-118 -18q-16 53 -64 90t-118 37q-100 0 -164 -74t-64 -184t64 -184t163 -74q65 0 113.5 35.5t70.5 97.5l111 -28q-29 -99 -106 -156q-79 -56 -185 -56q-151 0 -249 100.5
t-98 263.5z" />
    <glyph glyph-name="cdotaccent" unicode="&#x10b;" horiz-adv-x="512" 
d="M322 676v-105h-109v105h109zM268 488q178 0 222 -161l-106 -16q-26 82 -113 82q-61 0 -94.5 -43.5t-33.5 -112.5t33.5 -112.5t94.5 -43.5q84 0 112 81l102 -25q-22 -73 -77 -112.5t-134 -39.5q-108 0 -174 70.5t-66 181.5q0 112 66.5 181.5t167.5 69.5z" />
    <glyph glyph-name="Ccaron" unicode="&#x10c;" horiz-adv-x="726" 
d="M389 778l72 68h102l-92 -106h-165l-92 106h102zM48 349q0 165 96.5 265.5t247.5 100.5q110 0 189.5 -57t110.5 -159l-118 -18q-16 53 -64 90t-118 37q-100 0 -164 -74t-64 -184t64 -184t163 -74q65 0 113.5 35.5t70.5 97.5l111 -28q-29 -99 -106 -156q-79 -56 -185 -56
q-151 0 -249 100.5t-98 263.5z" />
    <glyph glyph-name="ccaron" unicode="&#x10d;" horiz-adv-x="512" 
d="M267 600l74 100h102l-109 -153h-134l-109 153h102zM268 488q178 0 222 -161l-106 -16q-26 82 -113 82q-61 0 -94.5 -43.5t-33.5 -112.5t33.5 -112.5t94.5 -43.5q84 0 112 81l102 -25q-22 -73 -77 -112.5t-134 -39.5q-108 0 -174 70.5t-66 181.5q0 112 66.5 181.5
t167.5 69.5z" />
    <glyph glyph-name="Dcaron" unicode="&#x10e;" horiz-adv-x="709" 
d="M323 778l72 68h102l-92 -106h-165l-92 106h102zM669 350q0 -92 -30.5 -161t-85 -109.5t-123 -60t-150.5 -19.5h-195v700h211q171 0 272 -95.5t101 -254.5zM551 350q0 113 -67.5 179t-182.5 66h-102v-491h102q115 0 183 66q67 67 67 180z" />
    <glyph glyph-name="dcaron" unicode="&#x10f;" horiz-adv-x="691" 
d="M715 700l-70 -208h-81l46 208h105zM34 236q0 112 63.5 182t159.5 70q52 0 91 -21t58 -55v288h109v-700h-100v72h-3q-22 -44 -64.5 -65.5t-92.5 -21.5q-95 0 -158 70t-63 181zM143 236q0 -68 37 -111.5t97 -43.5q61 0 96.5 43t35.5 112q0 70 -35.5 113.5t-96.5 43.5
t-97.5 -44.5t-36.5 -112.5z" />
    <glyph glyph-name="Dcroat" unicode="&#x110;" horiz-adv-x="717" 
d="M669 350q0 -92 -30.5 -161t-85 -109.5t-123 -60t-150.5 -19.5h-195v304h-85v96h85v300h211q171 0 272 -95.5t101 -254.5zM369 400v-96h-170v-200h102q115 0 183 66q67 67 67 180t-67.5 179t-182.5 66h-102v-195h170z" />
    <glyph glyph-name="dslash" unicode="&#x111;" horiz-adv-x="580" 
d="M34 236q0 112 63.5 182t159.5 70q52 0 91 -21t58 -55v126h-140v86h140v76h109v-76h55v-86h-55v-538h-100v72h-3q-22 -44 -64.5 -65.5t-92.5 -21.5q-95 0 -158 70t-63 181zM143 236q0 -68 37 -111.5t97 -43.5q61 0 96.5 43t35.5 112q0 70 -35.5 113.5t-96.5 43.5
t-97.5 -44.5t-36.5 -112.5z" />
    <glyph glyph-name="Emacron" unicode="&#x112;" horiz-adv-x="610" 
d="M479 831v-76h-324v76h324zM85 700h465v-104h-351v-191h266v-105h-266v-196h351v-104h-465v700z" />
    <glyph glyph-name="emacron" unicode="&#x113;" horiz-adv-x="535" 
d="M426 661v-76h-324v76h324zM393 142l91 -27q-60 -130 -203 -130q-108 0 -177.5 71t-69.5 179q0 109 66 181t169 72q100 0 166.5 -67.5t67.5 -185.5v-27h-359q8 -60 45 -96.5t93 -36.5q78 0 111 67zM271 404q-52 0 -84.5 -31.5t-41.5 -90.5h245q-4 60 -37 91t-82 31z" />
    <glyph glyph-name="Ebreve" unicode="&#x114;" horiz-adv-x="610" 
d="M317 731q-55 0 -99 27t-58 88h84q8 -23 28 -36t45 -13t45 13t28 36h84q-12 -61 -56.5 -88t-100.5 -27zM85 700h465v-104h-351v-191h266v-105h-266v-196h351v-104h-465v700z" />
    <glyph glyph-name="ebreve" unicode="&#x115;" horiz-adv-x="535" 
d="M266 549q-66 0 -107.5 38t-49.5 109h84q5 -35 25 -55t48 -20q30 0 49.5 20t23.5 55h84q-8 -71 -49.5 -109t-107.5 -38zM393 142l91 -27q-60 -130 -203 -130q-108 0 -177.5 71t-69.5 179q0 109 66 181t169 72q100 0 166.5 -67.5t67.5 -185.5v-27h-359q8 -60 45 -96.5
t93 -36.5q78 0 111 67zM271 404q-52 0 -84.5 -31.5t-41.5 -90.5h245q-4 60 -37 91t-82 31z" />
    <glyph glyph-name="Edotaccent" unicode="&#x116;" horiz-adv-x="610" 
d="M372 837v-88h-109v88h109zM85 700h465v-104h-351v-191h266v-105h-266v-196h351v-104h-465v700z" />
    <glyph glyph-name="edotaccent" unicode="&#x117;" horiz-adv-x="535" 
d="M321 675v-105h-109v105h109zM393 142l91 -27q-60 -130 -203 -130q-108 0 -177.5 71t-69.5 179q0 109 66 181t169 72q100 0 166.5 -67.5t67.5 -185.5v-27h-359q8 -60 45 -96.5t93 -36.5q78 0 111 67zM271 404q-52 0 -84.5 -31.5t-41.5 -90.5h245q-4 60 -37 91t-82 31z" />
    <glyph glyph-name="Eogonek" unicode="&#x118;" horiz-adv-x="576" 
d="M462 -200q-62 0 -97 23.5t-35 68.5q0 62 67 108h-312v700h465v-104h-351v-191h266v-105h-266v-196h351v-104h-40q-87 -34 -87 -89q0 -21 15.5 -32.5t40.5 -11.5q16 0 31 3v-66q-21 -4 -48 -4z" />
    <glyph glyph-name="eogonek" unicode="&#x119;" horiz-adv-x="535" 
d="M374 -200q-132 0 -132 92q0 49 50 96v3q-7 -4 -24 -4q-100 0 -167 71.5t-67 178.5q0 109 66.5 180t168.5 71q100 0 166.5 -67.5t67.5 -185.5v-27h-359q8 -60 44.5 -96.5t90.5 -36.5q40 0 70.5 19t43.5 48l92 -25q-14 -34 -41 -63.5t-51 -47t-42 -42t-18 -51.5
q0 -21 15.5 -33.5t43.5 -12.5q14 0 32 2v-65q-23 -4 -50 -4zM271 404q-52 0 -84.5 -31.5t-41.5 -90.5h245q-4 60 -37 91t-82 31z" />
    <glyph glyph-name="Ecaron" unicode="&#x11a;" horiz-adv-x="610" 
d="M318 778l72 68h102l-92 -106h-165l-92 106h102zM85 700h465v-104h-351v-191h266v-105h-266v-196h351v-104h-465v700z" />
    <glyph glyph-name="ecaron" unicode="&#x11b;" horiz-adv-x="535" 
d="M266 599l74 100h102l-109 -153h-134l-109 153h102zM393 142l91 -27q-60 -130 -203 -130q-108 0 -177.5 71t-69.5 179q0 109 66 181t169 72q100 0 166.5 -67.5t67.5 -185.5v-27h-359q8 -60 45 -96.5t93 -36.5q78 0 111 67zM271 404q-52 0 -84.5 -31.5t-41.5 -90.5h245
q-4 60 -37 91t-82 31z" />
    <glyph glyph-name="Gcircumflex" unicode="&#x11c;" horiz-adv-x="757" 
d="M464 846l92 -106h-102l-73 68l-72 -68h-102l92 106h165zM690 524l-110 -41q-19 51 -66.5 88t-118.5 37q-102 0 -166.5 -73.5t-64.5 -184.5t63.5 -184.5t166.5 -73.5q90 0 140 49.5t58 126.5h-195v104h317v-38q-3 -159 -88.5 -254t-231.5 -95q-151 0 -248.5 102t-97.5 263
q0 160 97 262.5t246 102.5q107 0 184.5 -49.5t114.5 -141.5z" />
    <glyph glyph-name="gcircumflex" unicode="&#x11d;" horiz-adv-x="567" 
d="M342 699l109 -153h-102l-74 100l-74 -100h-102l109 153h134zM39 252q0 107 62.5 171.5t151.5 64.5q93 0 141 -67h3v52h106v-431q0 -116 -59 -179t-168 -63q-84 0 -144 36t-77 95l110 24q8 -30 39.5 -49t73.5 -19q55 0 86 34.5t31 96.5v71q-17 -34 -54.5 -53.5
t-87.5 -19.5q-89 0 -151.5 65t-62.5 171zM148 252q0 -65 35.5 -103t89.5 -38q56 0 91 38.5t35 102.5q0 65 -34.5 103.5t-91.5 38.5q-54 0 -89.5 -38t-35.5 -104z" />
    <glyph glyph-name="Gbreve" unicode="&#x11e;" horiz-adv-x="757" 
d="M382 731q-55 0 -99 27t-58 88h84q8 -23 28 -36t45 -13t45 13t28 36h84q-12 -61 -56.5 -88t-100.5 -27zM690 524l-110 -41q-19 51 -66.5 88t-118.5 37q-102 0 -166.5 -73.5t-64.5 -184.5t63.5 -184.5t166.5 -73.5q90 0 140 49.5t58 126.5h-195v104h317v-38
q-3 -159 -88.5 -254t-231.5 -95q-151 0 -248.5 102t-97.5 263q0 160 97 262.5t246 102.5q107 0 184.5 -49.5t114.5 -141.5z" />
    <glyph glyph-name="gbreve" unicode="&#x11f;" horiz-adv-x="567" 
d="M275 549q-66 0 -107.5 38t-49.5 109h84q5 -35 25 -55t48 -20q30 0 49.5 20t23.5 55h84q-8 -71 -49.5 -109t-107.5 -38zM39 252q0 107 62.5 171.5t151.5 64.5q93 0 141 -67h3v52h106v-431q0 -116 -59 -179t-168 -63q-84 0 -144 36t-77 95l110 24q8 -30 39.5 -49t73.5 -19
q55 0 86 34.5t31 96.5v71q-17 -34 -54.5 -53.5t-87.5 -19.5q-89 0 -151.5 65t-62.5 171zM148 252q0 -65 35.5 -103t89.5 -38q56 0 91 38.5t35 102.5q0 65 -34.5 103.5t-91.5 38.5q-54 0 -89.5 -38t-35.5 -104z" />
    <glyph glyph-name="Gdotaccent" unicode="&#x120;" horiz-adv-x="757" 
d="M437 837v-88h-109v88h109zM690 524l-110 -41q-19 51 -66.5 88t-118.5 37q-102 0 -166.5 -73.5t-64.5 -184.5t63.5 -184.5t166.5 -73.5q90 0 140 49.5t58 126.5h-195v104h317v-38q-3 -159 -88.5 -254t-231.5 -95q-151 0 -248.5 102t-97.5 263q0 160 97 262.5t246 102.5
q107 0 184.5 -49.5t114.5 -141.5z" />
    <glyph glyph-name="gdotaccent" unicode="&#x121;" horiz-adv-x="567" 
d="M329 675v-105h-109v105h109zM39 252q0 107 62.5 171.5t151.5 64.5q93 0 141 -67h3v52h106v-431q0 -116 -59 -179t-168 -63q-84 0 -144 36t-77 95l110 24q8 -30 39.5 -49t73.5 -19q55 0 86 34.5t31 96.5v71q-17 -34 -54.5 -53.5t-87.5 -19.5q-89 0 -151.5 65t-62.5 171z
M148 252q0 -65 35.5 -103t89.5 -38q56 0 91 38.5t35 102.5q0 65 -34.5 103.5t-91.5 38.5q-54 0 -89.5 -38t-35.5 -104z" />
    <glyph glyph-name="Gcommaaccent" unicode="&#x122;" horiz-adv-x="757" 
d="M690 524l-110 -41q-19 51 -66.5 88t-118.5 37q-102 0 -166.5 -73.5t-64.5 -184.5t63.5 -184.5t166.5 -73.5q90 0 140 49.5t58 126.5h-195v104h317v-38q-3 -159 -88.5 -254t-231.5 -95q-151 0 -248.5 102t-97.5 263q0 160 97 262.5t246 102.5q107 0 184.5 -49.5
t114.5 -141.5zM441 -62l-61 -138h-88l45 138h104z" />
    <glyph glyph-name="gcommaaccent" unicode="&#x123;" horiz-adv-x="567" 
d="M223 561l61 138h88l-45 -138h-104zM39 252q0 107 62.5 171.5t151.5 64.5q93 0 141 -67h3v52h106v-431q0 -116 -59 -179t-168 -63q-84 0 -144 36t-77 95l110 24q8 -30 39.5 -49t73.5 -19q55 0 86 34.5t31 96.5v71q-17 -34 -54.5 -53.5t-87.5 -19.5q-89 0 -151.5 65
t-62.5 171zM148 252q0 -65 35.5 -103t89.5 -38q56 0 91 38.5t35 102.5q0 65 -34.5 103.5t-91.5 38.5q-54 0 -89.5 -38t-35.5 -104z" />
    <glyph glyph-name="Hcircumflex" unicode="&#x124;" horiz-adv-x="736" 
d="M454 846l92 -106h-102l-73 68l-72 -68h-102l92 106h165zM545 700h114v-700h-114v295h-346v-295h-114v700h114v-300h346v300z" />
    <glyph glyph-name="hcircumflex" unicode="&#x125;" horiz-adv-x="541" 
d="M198 846l92 -106h-102l-73 68l-72 -68h-102l92 106h165zM66 0v700h108v-286q19 33 58.5 53.5t85.5 20.5q77 0 121.5 -49.5t44.5 -135.5v-303h-109v282q0 54 -23.5 82.5t-65.5 28.5q-48 0 -80 -34t-32 -87v-272h-108z" />
    <glyph glyph-name="Hbar" unicode="&#x126;" horiz-adv-x="736" 
d="M721 594v-97h-62v-497h-114v295h-346v-295h-114v497h-61v97h61v106h114v-106h346v106h114v-106h62zM199 497v-97h346v97h-346z" />
    <glyph glyph-name="hbar" unicode="&#x127;" horiz-adv-x="541" 
d="M66 538h-58v86h58v76h108v-76h137v-86h-137v-124q19 33 58.5 53.5t85.5 20.5q77 0 121.5 -49.5t44.5 -135.5v-303h-109v282q0 54 -23.5 82.5t-65.5 28.5q-48 0 -80 -34t-32 -87v-272h-108v538z" />
    <glyph glyph-name="Itilde" unicode="&#x128;" horiz-adv-x="285" 
d="M207 740q-29 0 -71 19t-56 19q-29 0 -36 -37h-64q16 105 97 105q30 0 71.5 -19t55.5 -19q29 0 36 38h64q-16 -106 -97 -106zM85 700h114v-700h-114v700z" />
    <glyph glyph-name="itilde" unicode="&#x129;" horiz-adv-x="238" 
d="M183 557q-31 0 -68 25t-54 25q-33 0 -39 -50h-76q12 132 101 132q32 0 68.5 -25t53.5 -25q33 0 39 49h76q-12 -131 -101 -131zM174 473v-473h-109v473h109z" />
    <glyph glyph-name="Imacron" unicode="&#x12a;" horiz-adv-x="285" 
d="M304 831v-76h-324v76h324zM85 700h114v-700h-114v700z" />
    <glyph glyph-name="imacron" unicode="&#x12b;" horiz-adv-x="238" 
d="M277 661v-76h-324v76h324zM174 473v-473h-109v473h109z" />
    <glyph glyph-name="Ibreve" unicode="&#x12c;" horiz-adv-x="285" 
d="M142 731q-55 0 -99 27t-58 88h84q8 -23 28 -36t45 -13t45 13t28 36h84q-12 -61 -56.5 -88t-100.5 -27zM85 700h114v-700h-114v700z" />
    <glyph glyph-name="ibreve" unicode="&#x12d;" horiz-adv-x="238" 
d="M120 549q-66 0 -107.5 38t-49.5 109h84q5 -35 25 -55t48 -20q30 0 49.5 20t23.5 55h84q-8 -71 -49.5 -109t-107.5 -38zM174 473v-473h-109v473h109z" />
    <glyph glyph-name="Iogonek" unicode="&#x12e;" horiz-adv-x="285" 
d="M149 -200q-62 0 -97 23.5t-35 68.5q0 64 68 109v699h114v-700h-2q-87 -34 -87 -89q0 -21 15.5 -32.5t40.5 -11.5q16 0 31 3v-66q-21 -4 -48 -4z" />
    <glyph glyph-name="iogonek" unicode="&#x12f;" horiz-adv-x="238" 
d="M174 700v-115h-109v115h109zM174 473v-473h-5q-87 -34 -87 -89q0 -21 15.5 -32.5t40.5 -11.5q16 0 31 3v-66q-21 -4 -48 -4q-62 0 -97 23.5t-35 68.5q0 68 76 114v467h109z" />
    <glyph glyph-name="Idot" unicode="&#x130;" horiz-adv-x="285" 
d="M197 837v-88h-109v88h109zM85 700h114v-700h-114v700z" />
    <glyph glyph-name="dotlessi" unicode="&#x131;" horiz-adv-x="238" 
d="M174 473v-473h-109v473h109z" />
    <glyph glyph-name="IJ" unicode="&#x132;" horiz-adv-x="701" 
d="M85 700h114v-700h-114v700zM404 -10q-51 0 -88 21v105q32 -22 72 -22q123 0 123 148v353h-162v105h276v-466q0 -244 -221 -244z" />
    <glyph glyph-name="ij" unicode="&#x133;" horiz-adv-x="471" 
d="M174 700v-115h-109v115h109zM407 700v-115h-109v115h109zM174 473v-473h-109v473h109zM239 -197q-9 0 -26 2t-21 2v95q14 -2 26 -2q44 0 62 25t18 74v474h109v-485q0 -92 -43 -138.5t-125 -46.5z" />
    <glyph glyph-name="Jcircumflex" unicode="&#x134;" horiz-adv-x="417" 
d="M268 934l109 -153h-102l-74 100l-74 -100h-102l109 153h134zM119 -10q-51 0 -88 21v105q32 -22 72 -22q123 0 123 148v353h-162v105h276v-466q0 -244 -221 -244z" />
    <glyph glyph-name="jcircumflex" unicode="&#x135;" horiz-adv-x="238" 
d="M183 699l109 -153h-102l-74 100l-74 -100h-102l109 153h134zM6 -197q-9 0 -26 2t-21 2v95q14 -2 26 -2q44 0 62 25t18 74v474h109v-485q0 -92 -43 -138.5t-125 -46.5z" />
    <glyph glyph-name="Kcommaaccent" unicode="&#x136;" horiz-adv-x="644" 
d="M199 332v-332h-114v700h114v-320l282 320h136l-298 -333l323 -367h-152zM374 -62l-61 -138h-88l45 138h104z" />
    <glyph glyph-name="kcommaaccent" unicode="&#x137;" horiz-adv-x="509" 
d="M174 225v-225h-109v700h109v-426l182 199h130l-204 -213l224 -260h-141zM316 -62l-61 -138h-88l45 138h104z" />
    <glyph glyph-name="Lacute" unicode="&#x139;" horiz-adv-x="531" 
d="M296 846l-104 -106h-100l73 106h131zM85 0v700h114v-596h310v-104h-424z" />
    <glyph glyph-name="lacute" unicode="&#x13a;" horiz-adv-x="238" 
d="M276 846l-104 -106h-100l73 106h131zM65 0v700h109v-700h-109z" />
    <glyph glyph-name="Lcommaaccent" unicode="&#x13b;" horiz-adv-x="531" 
d="M85 0v700h114v-596h310v-104h-424zM341 -62l-61 -138h-88l45 138h104z" />
    <glyph glyph-name="lcommaaccent" unicode="&#x13c;" horiz-adv-x="240" 
d="M66 0v700h109v-700h-109zM185 -62l-61 -138h-88l45 138h104z" />
    <glyph glyph-name="Lcaron" unicode="&#x13d;" horiz-adv-x="531" 
d="M85 0v700h114v-596h310v-104h-424zM419 700l-70 -208h-81l46 208h105z" />
    <glyph glyph-name="lcaron" unicode="&#x13e;" horiz-adv-x="352" 
d="M375 700l-70 -208h-81l46 208h105zM65 0v700h109v-700h-109z" />
    <glyph glyph-name="Ldot" unicode="&#x13f;" horiz-adv-x="531" 
d="M85 0v700h114v-596h310v-104h-424zM458 395v-105h-109v105h109z" />
    <glyph glyph-name="ldot" unicode="&#x140;" horiz-adv-x="385" 
d="M66 0v700h109v-700h-109zM365 317v-105h-109v105h109z" />
    <glyph glyph-name="Lslash" unicode="&#x141;" horiz-adv-x="531" 
d="M375 445v-99l-176 -51v-191h310v-104h-424v263l-72 -21v99l72 21v338h114v-306z" />
    <glyph glyph-name="lslash" unicode="&#x142;" horiz-adv-x="255" 
d="M71 301l-51 -35v100l51 35v299h109v-225l71 48v-100l-71 -48v-375h-109v301z" />
    <glyph glyph-name="Nacute" unicode="&#x143;" horiz-adv-x="778" 
d="M541 846l-104 -106h-100l73 106h131zM693 700v-704h-127l-367 532v-528h-114v704h127l367 -532v528h114z" />
    <glyph glyph-name="nacute" unicode="&#x144;" horiz-adv-x="541" 
d="M443 699l-122 -153h-100l91 153h131zM483 303v-303h-109v282q0 54 -23.5 82.5t-65.5 28.5q-48 0 -80 -34t-32 -87v-272h-108v473h101v-63h2q21 36 60 57t89 21q77 0 121.5 -49t44.5 -136z" />
    <glyph glyph-name="Ncommaaccent" unicode="&#x145;" horiz-adv-x="778" 
d="M693 700v-704h-127l-367 532v-528h-114v704h127l367 -532v528h114zM444 -62l-61 -138h-88l45 138h104z" />
    <glyph glyph-name="ncommaaccent" unicode="&#x146;" horiz-adv-x="541" 
d="M483 303v-303h-109v282q0 54 -23.5 82.5t-65.5 28.5q-48 0 -80 -34t-32 -87v-272h-108v473h101v-63h2q21 36 60 57t89 21q77 0 121.5 -49t44.5 -136zM322 -62l-61 -138h-88l45 138h104z" />
    <glyph glyph-name="Ncaron" unicode="&#x147;" horiz-adv-x="778" 
d="M388 778l72 68h102l-92 -106h-165l-92 106h102zM693 700v-704h-127l-367 532v-528h-114v704h127l367 -532v528h114z" />
    <glyph glyph-name="ncaron" unicode="&#x148;" horiz-adv-x="541" 
d="M270 599l74 100h102l-109 -153h-134l-109 153h102zM483 303v-303h-109v282q0 54 -23.5 82.5t-65.5 28.5q-48 0 -80 -34t-32 -87v-272h-108v473h101v-63h2q21 36 60 57t89 21q77 0 121.5 -49t44.5 -136z" />
    <glyph glyph-name="Eng" unicode="&#x14a;" horiz-adv-x="763" 
d="M457 -200q-51 0 -88 21v105q32 -22 72 -22q109 0 120 103l-362 500v-507h-114v704h110l369 -511v507h114v-656q0 -244 -221 -244z" />
    <glyph glyph-name="eng" unicode="&#x14b;" horiz-adv-x="540" 
d="M314 -197q-7 0 -24 2t-22 2v95q16 -2 25 -2q45 0 63 24.5t18 74.5v283q0 53 -23.5 81.5t-65.5 28.5q-48 0 -80 -33.5t-32 -86.5v-272h-108v473h101v-64h3q21 36 59.5 57.5t88.5 21.5q77 0 121.5 -49.5t44.5 -135.5v-314q0 -92 -43.5 -139t-125.5 -47z" />
    <glyph glyph-name="Omacron" unicode="&#x14c;" horiz-adv-x="800" 
d="M561 831v-76h-324v76h324zM752 350q0 -159 -100.5 -262t-251.5 -103t-251.5 103t-100.5 262t100.5 262t251.5 103t251.5 -103t100.5 -262zM635 350q0 114 -67.5 186t-167.5 72q-99 0 -167 -72t-68 -186t68 -186t167 -72q100 0 167.5 72t67.5 186z" />
    <glyph glyph-name="omacron" unicode="&#x14d;" horiz-adv-x="559" 
d="M436 661v-76h-324v76h324zM34 237q0 115 70 183t175 68q104 0 175.5 -69t71.5 -182q0 -114 -71.5 -183t-175.5 -69t-174.5 69t-70.5 183zM143 237q0 -70 37.5 -113t98.5 -43q62 0 99.5 43t37.5 113q0 69 -37.5 112.5t-99.5 43.5q-61 0 -98.5 -43.5t-37.5 -112.5z" />
    <glyph glyph-name="Obreve" unicode="&#x14e;" horiz-adv-x="800" 
d="M399 731q-55 0 -99 27t-58 88h84q8 -23 28 -36t45 -13t45 13t28 36h84q-12 -61 -56.5 -88t-100.5 -27zM752 350q0 -159 -100.5 -262t-251.5 -103t-251.5 103t-100.5 262t100.5 262t251.5 103t251.5 -103t100.5 -262zM635 350q0 114 -67.5 186t-167.5 72q-99 0 -167 -72
t-68 -186t68 -186t167 -72q100 0 167.5 72t67.5 186z" />
    <glyph glyph-name="obreve" unicode="&#x14f;" horiz-adv-x="559" 
d="M276 550q-66 0 -107.5 38t-49.5 109h84q5 -35 25 -55t48 -20q30 0 49.5 20t23.5 55h84q-8 -71 -49.5 -109t-107.5 -38zM34 237q0 115 70 183t175 68q104 0 175.5 -69t71.5 -182q0 -114 -71.5 -183t-175.5 -69t-174.5 69t-70.5 183zM143 237q0 -70 37.5 -113t98.5 -43
q62 0 99.5 43t37.5 113q0 69 -37.5 112.5t-99.5 43.5q-61 0 -98.5 -43.5t-37.5 -112.5z" />
    <glyph glyph-name="Ohungarumlaut" unicode="&#x150;" horiz-adv-x="800" 
d="M470 846l-104 -106h-100l73 106h131zM655 846l-104 -106h-100l73 106h131zM752 350q0 -159 -100.5 -262t-251.5 -103t-251.5 103t-100.5 262t100.5 262t251.5 103t251.5 -103t100.5 -262zM635 350q0 114 -67.5 186t-167.5 72q-99 0 -167 -72t-68 -186t68 -186t167 -72
q100 0 167.5 72t67.5 186z" />
    <glyph glyph-name="ohungarumlaut" unicode="&#x151;" horiz-adv-x="559" 
d="M357 699l-122 -153h-100l90 153h132zM541 699l-122 -153h-100l91 153h131zM34 237q0 115 70 183t175 68q104 0 175.5 -69t71.5 -182q0 -114 -71.5 -183t-175.5 -69t-174.5 69t-70.5 183zM143 237q0 -70 37.5 -113t98.5 -43q62 0 99.5 43t37.5 113q0 69 -37.5 112.5
t-99.5 43.5q-61 0 -98.5 -43.5t-37.5 -112.5z" />
    <glyph glyph-name="OE" unicode="&#x152;" horiz-adv-x="1043" 
d="M982 104v-104h-561q-171 0 -272 96t-101 254q0 92 30.5 161t84.5 109.5t122.5 60t151.5 19.5h545v-105h-350v-190h265v-105h-265v-196h350zM416 105h102v491h-102q-116 0 -183 -67q-67 -66 -67 -179t67.5 -179t182.5 -66z" />
    <glyph glyph-name="oe" unicode="&#x153;" horiz-adv-x="919" 
d="M34 237q0 115 70 183t175 68q121 0 191 -85q69 85 181 85q100 0 166.5 -67.5t67.5 -185.5v-27h-359q8 -60 45 -96.5t93 -36.5q78 0 111 67l91 -27q-60 -130 -203 -130q-120 0 -192 87q-70 -87 -192 -87q-104 0 -174.5 69t-70.5 183zM653 404q-52 0 -84.5 -31.5
t-41.5 -90.5h245q-4 60 -37 91t-82 31zM143 237q0 -70 37.5 -113t98.5 -43q62 0 99.5 43t37.5 113q0 69 -37.5 112.5t-99.5 43.5q-61 0 -98.5 -43.5t-37.5 -112.5z" />
    <glyph glyph-name="Racute" unicode="&#x154;" horiz-adv-x="631" 
d="M453 842l-104 -106h-100l73 106h131zM598 0h-133l-180 294h-86v-294h-114v700h246q98 0 164.5 -54t66.5 -152q0 -69 -41 -120t-113 -71zM445 492q0 42 -32 72.5t-101 30.5h-113v-207h114q68 0 100 30t32 74z" />
    <glyph glyph-name="racute" unicode="&#x155;" horiz-adv-x="344" 
d="M377 699l-122 -153h-100l91 153h131zM65 0v473h101v-76h2q18 41 52.5 63.5t76.5 22.5q24 0 37 -7v-105q-14 6 -36 6q-57 0 -91 -38t-34 -118v-221h-108z" />
    <glyph glyph-name="Rcommaaccent" unicode="&#x156;" horiz-adv-x="631" 
d="M598 0h-133l-180 294h-86v-294h-114v700h246q98 0 164.5 -54t66.5 -152q0 -69 -41 -120t-113 -71zM445 492q0 42 -32 72.5t-101 30.5h-113v-207h114q68 0 100 30t32 74zM375 -62l-61 -138h-88l45 138h104z" />
    <glyph glyph-name="rcommaaccent" unicode="&#x157;" horiz-adv-x="344" 
d="M65 0v473h101v-76h2q18 41 52.5 63.5t76.5 22.5q24 0 37 -7v-105q-14 6 -36 6q-57 0 -91 -38t-34 -118v-221h-108zM165 -62l-61 -138h-88l45 138h104z" />
    <glyph glyph-name="Rcaron" unicode="&#x158;" horiz-adv-x="631" 
d="M300 774l72 68h102l-92 -106h-165l-92 106h102zM598 0h-133l-180 294h-86v-294h-114v700h246q98 0 164.5 -54t66.5 -152q0 -69 -41 -120t-113 -71zM445 492q0 42 -32 72.5t-101 30.5h-113v-207h114q68 0 100 30t32 74z" />
    <glyph glyph-name="rcaron" unicode="&#x159;" horiz-adv-x="344" 
d="M205 599l74 100h102l-109 -153h-134l-109 153h102zM65 0v473h101v-76h2q18 41 52.5 63.5t76.5 22.5q24 0 37 -7v-105q-14 6 -36 6q-57 0 -91 -38t-34 -118v-221h-108z" />
    <glyph glyph-name="Sacute" unicode="&#x15a;" horiz-adv-x="592" 
d="M453 846l-104 -106h-100l73 106h131zM301 -15q-97 0 -168.5 49t-86.5 134l111 24q9 -51 50.5 -79.5t96.5 -28.5q58 0 93 29.5t35 76.5q0 34 -20 56.5t-51.5 34.5t-69.5 21.5t-76.5 22.5t-70 33t-51.5 58.5t-20 93.5q0 92 65 148.5t167 56.5q98 0 162.5 -52t78.5 -136
l-111 -20q-8 49 -43 78.5t-90 29.5q-50 0 -81.5 -25.5t-31.5 -69.5q0 -34 20 -56t51.5 -33.5t70 -21t77 -22.5t70 -33t51.5 -58.5t20 -93.5q0 -97 -69 -157t-179 -60z" />
    <glyph glyph-name="sacute" unicode="&#x15b;" horiz-adv-x="452" 
d="M394 699l-122 -153h-100l91 153h131zM232 -15q-76 0 -128 34t-69 95l99 20q9 -31 36.5 -49.5t64.5 -18.5t57 18t20 49q0 28 -26.5 43t-65 22t-76.5 18t-64.5 42t-26.5 84q0 66 48.5 106t127.5 40q72 0 123 -33.5t64 -87.5l-101 -21q-4 26 -27.5 43t-55.5 17
q-34 0 -52.5 -16t-18.5 -40q0 -28 26.5 -43t64.5 -22t76.5 -18t65 -42t26.5 -84q0 -71 -51.5 -113.5t-136.5 -42.5z" />
    <glyph glyph-name="Scircumflex" unicode="&#x15c;" horiz-adv-x="592" 
d="M381 846l92 -106h-102l-73 68l-72 -68h-102l92 106h165zM301 -15q-97 0 -168.5 49t-86.5 134l111 24q9 -51 50.5 -79.5t96.5 -28.5q58 0 93 29.5t35 76.5q0 34 -20 56.5t-51.5 34.5t-69.5 21.5t-76.5 22.5t-70 33t-51.5 58.5t-20 93.5q0 92 65 148.5t167 56.5
q98 0 162.5 -52t78.5 -136l-111 -20q-8 49 -43 78.5t-90 29.5q-50 0 -81.5 -25.5t-31.5 -69.5q0 -34 20 -56t51.5 -33.5t70 -21t77 -22.5t70 -33t51.5 -58.5t20 -93.5q0 -97 -69 -157t-179 -60z" />
    <glyph glyph-name="scircumflex" unicode="&#x15d;" horiz-adv-x="452" 
d="M288 699l109 -153h-102l-74 100l-74 -100h-102l109 153h134zM232 -15q-76 0 -128 34t-69 95l99 20q9 -31 36.5 -49.5t64.5 -18.5t57 18t20 49q0 28 -26.5 43t-65 22t-76.5 18t-64.5 42t-26.5 84q0 66 48.5 106t127.5 40q72 0 123 -33.5t64 -87.5l-101 -21q-4 26 -27.5 43
t-55.5 17q-34 0 -52.5 -16t-18.5 -40q0 -28 26.5 -43t64.5 -22t76.5 -18t65 -42t26.5 -84q0 -71 -51.5 -113.5t-136.5 -42.5z" />
    <glyph glyph-name="Scedilla" unicode="&#x15e;" horiz-adv-x="592" 
d="M348 -12l-41 -188l-95 12l41 176q-77 10 -136 57q-57 46 -71 123l111 24q9 -51 50.5 -79.5t96.5 -28.5q58 0 93 29.5t35 76.5q0 34 -20 56.5t-51.5 34.5t-69.5 21.5t-76.5 22.5t-70 33t-51.5 58.5t-20 93.5q0 92 65 148.5t167 56.5q98 0 162.5 -52t78.5 -136l-111 -20
q-8 49 -43 78.5t-90 29.5q-50 0 -81.5 -25.5t-31.5 -69.5q0 -34 20 -56t51.5 -33.5t70 -21t77 -22.5t70 -33t51.5 -58.5t20 -93.5q0 -86 -54.5 -143.5t-146.5 -70.5z" />
    <glyph glyph-name="scedilla" unicode="&#x15f;" horiz-adv-x="452" 
d="M281 -11l-42 -189l-95 12l41 177q-57 9 -96.5 41.5t-53.5 83.5l99 20q9 -31 36.5 -49.5t64.5 -18.5t57 18t20 49q0 28 -26.5 43t-65 22t-76.5 18t-64.5 42t-26.5 84q0 66 48.5 106t127.5 40q72 0 123 -33.5t64 -87.5l-101 -21q-4 26 -27.5 43t-55.5 17q-34 0 -52.5 -16
t-18.5 -40q0 -28 26.5 -43t64.5 -22t76.5 -18t65 -42t26.5 -84q0 -60 -37.5 -100.5t-101.5 -51.5z" />
    <glyph glyph-name="Scaron" unicode="&#x160;" horiz-adv-x="592" 
d="M300 778l72 68h102l-92 -106h-165l-92 106h102zM301 -15q-97 0 -168.5 49t-86.5 134l111 24q9 -51 50.5 -79.5t96.5 -28.5q58 0 93 29.5t35 76.5q0 34 -20 56.5t-51.5 34.5t-69.5 21.5t-76.5 22.5t-70 33t-51.5 58.5t-20 93.5q0 92 65 148.5t167 56.5q98 0 162.5 -52
t78.5 -136l-111 -20q-8 49 -43 78.5t-90 29.5q-50 0 -81.5 -25.5t-31.5 -69.5q0 -34 20 -56t51.5 -33.5t70 -21t77 -22.5t70 -33t51.5 -58.5t20 -93.5q0 -97 -69 -157t-179 -60z" />
    <glyph glyph-name="scaron" unicode="&#x161;" horiz-adv-x="452" 
d="M221 599l74 100h102l-109 -153h-134l-109 153h102zM232 -15q-76 0 -128 34t-69 95l99 20q9 -31 36.5 -49.5t64.5 -18.5t57 18t20 49q0 28 -26.5 43t-65 22t-76.5 18t-64.5 42t-26.5 84q0 66 48.5 106t127.5 40q72 0 123 -33.5t64 -87.5l-101 -21q-4 26 -27.5 43t-55.5 17
q-34 0 -52.5 -16t-18.5 -40q0 -28 26.5 -43t64.5 -22t76.5 -18t65 -42t26.5 -84q0 -71 -51.5 -113.5t-136.5 -42.5z" />
    <glyph glyph-name="Tcaron" unicode="&#x164;" horiz-adv-x="584" 
d="M293 778l72 68h102l-92 -106h-165l-92 106h102zM26 700h531v-105h-208v-595h-114v595h-209v105z" />
    <glyph glyph-name="tcaron" unicode="&#x165;" horiz-adv-x="353" 
d="M385 725l-70 -208h-81l46 208h105zM260 -10q-164 0 -164 166v225h-86v92h86v130l109 21v-151h131v-92h-131v-207q0 -51 18.5 -72t57.5 -21q31 0 48 10l12 -87q-28 -14 -81 -14z" />
    <glyph glyph-name="Tbar" unicode="&#x166;" horiz-adv-x="584" 
d="M512 367v-97h-163v-270h-114v270h-163v97h163v228h-209v105h531v-105h-208v-228h163z" />
    <glyph glyph-name="tbar" unicode="&#x167;" horiz-adv-x="353" 
d="M260 -10q-164 0 -164 166v40h-76v86h76v99h-86v92h86v130l109 21v-151h131v-92h-131v-99h117v-86h-117v-22q0 -51 18.5 -72t57.5 -21q31 0 48 10l12 -87q-28 -14 -81 -14z" />
    <glyph glyph-name="Utilde" unicode="&#x168;" horiz-adv-x="721" 
d="M426 740q-29 0 -71 19t-56 19q-29 0 -36 -37h-64q16 105 97 105q30 0 71.5 -19t55.5 -19q29 0 36 38h64q-16 -106 -97 -106zM360 -15q-134 0 -208.5 77.5t-74.5 227.5v410h113v-398q0 -103 45 -156.5t125 -53.5q82 0 126.5 53t44.5 156v399h114v-408q0 -151 -75 -229
t-210 -78z" />
    <glyph glyph-name="utilde" unicode="&#x169;" horiz-adv-x="541" 
d="M327 557q-31 0 -68 25t-54 25q-33 0 -39 -50h-76q12 132 101 132q32 0 68.5 -25t53.5 -25q33 0 39 49h76q-12 -131 -101 -131zM476 473v-473h-100v63h-5q-19 -35 -58.5 -56.5t-88.5 -21.5q-76 0 -121 49.5t-45 135.5v303h108v-281q0 -54 23.5 -83t66.5 -29q48 0 79.5 34
t31.5 87v272h109z" />
    <glyph glyph-name="Umacron" unicode="&#x16a;" horiz-adv-x="721" 
d="M523 831v-76h-324v76h324zM360 -15q-134 0 -208.5 77.5t-74.5 227.5v410h113v-398q0 -103 45 -156.5t125 -53.5q82 0 126.5 53t44.5 156v399h114v-408q0 -151 -75 -229t-210 -78z" />
    <glyph glyph-name="umacron" unicode="&#x16b;" horiz-adv-x="541" 
d="M420 661v-76h-324v76h324zM476 473v-473h-100v63h-5q-19 -35 -58.5 -56.5t-88.5 -21.5q-76 0 -121 49.5t-45 135.5v303h108v-281q0 -54 23.5 -83t66.5 -29q48 0 79.5 34t31.5 87v272h109z" />
    <glyph glyph-name="Ubreve" unicode="&#x16c;" horiz-adv-x="721" 
d="M361 731q-55 0 -99 27t-58 88h84q8 -23 28 -36t45 -13t45 13t28 36h84q-12 -61 -56.5 -88t-100.5 -27zM360 -15q-134 0 -208.5 77.5t-74.5 227.5v410h113v-398q0 -103 45 -156.5t125 -53.5q82 0 126.5 53t44.5 156v399h114v-408q0 -151 -75 -229t-210 -78z" />
    <glyph glyph-name="ubreve" unicode="&#x16d;" horiz-adv-x="541" 
d="M260 549q-66 0 -107.5 38t-49.5 109h84q5 -35 25 -55t48 -20q30 0 49.5 20t23.5 55h84q-8 -71 -49.5 -109t-107.5 -38zM476 473v-473h-100v63h-5q-19 -35 -58.5 -56.5t-88.5 -21.5q-76 0 -121 49.5t-45 135.5v303h108v-281q0 -54 23.5 -83t66.5 -29q48 0 79.5 34t31.5 87
v272h109z" />
    <glyph glyph-name="Uring" unicode="&#x16e;" horiz-adv-x="721" 
d="M361 735q-49 0 -82 29t-33 76t32.5 75.5t82.5 28.5t82.5 -28.5t32.5 -75.5t-33 -76t-82 -29zM361 790q23 0 37.5 14t14.5 36q0 21 -14.5 35t-37.5 14t-37.5 -14t-14.5 -35q0 -22 14.5 -36t37.5 -14zM360 -15q-134 0 -208.5 77.5t-74.5 227.5v410h113v-398
q0 -103 45 -156.5t125 -53.5q82 0 126.5 53t44.5 156v399h114v-408q0 -151 -75 -229t-210 -78z" />
    <glyph glyph-name="uring" unicode="&#x16f;" horiz-adv-x="541" 
d="M260 531q-49 0 -82 29.5t-33 74.5q0 47 32.5 75.5t82.5 28.5t82.5 -28.5t32.5 -75.5q0 -45 -33 -74.5t-82 -29.5zM260 585q24 0 38 14.5t14 35.5t-14 35.5t-38 14.5t-38 -14.5t-14 -35.5t14 -35.5t38 -14.5zM476 473v-473h-100v63h-5q-19 -35 -58.5 -56.5t-88.5 -21.5
q-76 0 -121 49.5t-45 135.5v303h108v-281q0 -54 23.5 -83t66.5 -29q48 0 79.5 34t31.5 87v272h109z" />
    <glyph glyph-name="Uhungarumlaut" unicode="&#x170;" horiz-adv-x="721" 
d="M441 904l-122 -153h-100l90 153h132zM625 904l-122 -153h-100l91 153h131zM360 -15q-134 0 -208.5 77.5t-74.5 227.5v410h113v-398q0 -103 45 -156.5t125 -53.5q82 0 126.5 53t44.5 156v399h114v-408q0 -151 -75 -229t-210 -78z" />
    <glyph glyph-name="uhungarumlaut" unicode="&#x171;" horiz-adv-x="541" 
d="M341 699l-122 -153h-100l90 153h132zM525 699l-122 -153h-100l91 153h131zM476 473v-473h-100v63h-5q-19 -35 -58.5 -56.5t-88.5 -21.5q-76 0 -121 49.5t-45 135.5v303h108v-281q0 -54 23.5 -83t66.5 -29q48 0 79.5 34t31.5 87v272h109z" />
    <glyph glyph-name="Uogonek" unicode="&#x172;" horiz-adv-x="721" 
d="M433 -200q-62 0 -97.5 23.5t-35.5 68.5q0 57 48 93v4q-3 -1 -17 -1q-111 0 -182.5 79t-71.5 216v417h113v-398q0 -103 45 -156.5t125 -53.5q82 0 126.5 53t44.5 156v399h114v-408q0 -218 -176 -297q-75 -35 -75 -84q0 -21 15.5 -32.5t40.5 -11.5q16 0 31 3v-66
q-21 -4 -48 -4z" />
    <glyph glyph-name="uogonek" unicode="&#x173;" horiz-adv-x="541" 
d="M423 -200q-62 0 -97 23.5t-35 68.5q0 70 85 119v52h-5q-19 -35 -58.5 -56.5t-88.5 -21.5q-76 0 -121 49.5t-45 135.5v303h108v-281q0 -54 23.5 -83t66.5 -29q48 0 79.5 34t31.5 87v272h109v-473h-5q-87 -34 -87 -89q0 -21 15.5 -32.5t40.5 -11.5q16 0 31 3v-66
q-21 -4 -48 -4z" />
    <glyph glyph-name="Wcircumflex" unicode="&#x174;" horiz-adv-x="980" 
d="M576 846l92 -106h-102l-73 68l-72 -68h-102l92 106h165zM205 -4l-185 704h128l127 -513h5l157 513h117l157 -513h6l126 513h117l-181 -704h-122l-163 530h-4l-163 -530h-122z" />
    <glyph glyph-name="wcircumflex" unicode="&#x175;" horiz-adv-x="756" 
d="M445 700l109 -153h-102l-74 100l-74 -100h-102l109 153h134zM737 473l-152 -477h-100l-105 338l-106 -338h-104l-152 477h115l95 -326h3l103 326h100l101 -326h3l95 326h104z" />
    <glyph glyph-name="Ycircumflex" unicode="&#x176;" horiz-adv-x="624" 
d="M401 846l92 -106h-102l-73 68l-72 -68h-102l92 106h165zM370 293v-293h-114v293l-244 407h133l169 -295h5l169 295h125z" />
    <glyph glyph-name="ycircumflex" unicode="&#x177;" horiz-adv-x="508" 
d="M321 699l109 -153h-102l-74 100l-74 -100h-102l109 153h134zM493 473l-267 -670h-107l86 214l-193 456h119l132 -328l122 328h108z" />
    <glyph glyph-name="Ydieresis" unicode="&#x178;" horiz-adv-x="624" 
d="M263 844v-102h-101v102h101zM472 844v-102h-101v102h101zM370 293v-293h-114v293l-244 407h133l169 -295h5l169 295h125z" />
    <glyph glyph-name="Zacute" unicode="&#x179;" horiz-adv-x="632" 
d="M480 846l-104 -106h-100l73 106h131zM577 105v-105h-516v98l368 497h-347v105h489v-98l-367 -497h373z" />
    <glyph glyph-name="zacute" unicode="&#x17a;" horiz-adv-x="463" 
d="M413 699l-122 -153h-100l91 153h131zM64 473h358v-84l-248 -298h260v-91h-389v83l248 299h-229v91z" />
    <glyph glyph-name="Zdotaccent" unicode="&#x17b;" horiz-adv-x="632" 
d="M381 837v-88h-109v88h109zM577 105v-105h-516v98l368 497h-347v105h489v-98l-367 -497h373z" />
    <glyph glyph-name="zdotaccent" unicode="&#x17c;" horiz-adv-x="463" 
d="M294 675v-105h-109v105h109zM64 473h358v-84l-248 -298h260v-91h-389v83l248 299h-229v91z" />
    <glyph glyph-name="Zcaron" unicode="&#x17d;" horiz-adv-x="632" 
d="M327 778l72 68h102l-92 -106h-165l-92 106h102zM577 105v-105h-516v98l368 497h-347v105h489v-98l-367 -497h373z" />
    <glyph glyph-name="zcaron" unicode="&#x17e;" horiz-adv-x="463" 
d="M240 599l74 100h102l-109 -153h-134l-109 153h102zM64 473h358v-84l-248 -298h260v-91h-389v83l248 299h-229v91z" />
    <glyph glyph-name="florin" unicode="&#x192;" horiz-adv-x="581" 
d="M533 388v-76h-222v-413h-111v413h-152v76h152v60q0 131 70 199t184 68q45 0 69 -11v-102q-22 12 -69 12q-26 0 -49 -7.5t-45.5 -26t-35.5 -55t-13 -88.5v-49h222z" />
    <glyph glyph-name="Aringacute" unicode="&#x1fa;" horiz-adv-x="685" 
d="M496 1079l-104 -106h-100l73 106h131zM343 735q-49 0 -82 29t-33 76t32.5 75.5t82.5 28.5t82.5 -28.5t32.5 -75.5t-33 -76t-82 -29zM343 790q23 0 37.5 14t14.5 36q0 21 -14.5 35t-37.5 14t-37.5 -14t-14.5 -35q0 -22 14.5 -36t37.5 -14zM406 704l262 -704h-123l-64 181
h-280l-63 -181h-121l262 704h127zM344 576h-4l-102 -292h209z" />
    <glyph glyph-name="aringacute" unicode="&#x1fb;" horiz-adv-x="516" 
d="M426 885l-104 -106h-100l73 106h131zM273 532q-49 0 -82 29.5t-33 74.5q0 47 32.5 75.5t82.5 28.5t82.5 -28.5t32.5 -75.5q0 -45 -33 -74.5t-82 -29.5zM273 586q23 0 37.5 14t14.5 36t-14.5 36t-37.5 14t-37.5 -14t-14.5 -36t14.5 -36t37.5 -14zM461 304v-304h-103v51h-3
q-18 -29 -57 -47t-84 -18q-73 0 -119.5 41.5t-46.5 105.5q0 73 53.5 114.5t146.5 41.5q69 0 105 -21v41q0 44 -24 68.5t-66 24.5q-70 0 -91 -57l-109 10q20 63 74 98t133 35q92 0 141.5 -47.5t49.5 -136.5zM157 142q0 -32 23.5 -51.5t62.5 -19.5q45 0 78.5 24.5t33.5 56.5
v37q-30 23 -95 23q-48 0 -75.5 -19t-27.5 -51z" />
    <glyph glyph-name="AEacute" unicode="&#x1fc;" horiz-adv-x="954" 
d="M640 846l-104 -106h-100l73 106h131zM894 104v-104h-465v180h-217l-88 -180h-124l348 700h546v-105h-351v-190h265v-105h-265v-196h351zM429 595h-13l-153 -311h166v311z" />
    <glyph glyph-name="aeacute" unicode="&#x1fd;" horiz-adv-x="853" 
d="M581 699l-122 -153h-100l91 153h131zM228 -15q-82 0 -131 42t-49 107q0 72 54 113.5t146 41.5q69 0 105 -21v41q0 44 -23.5 68.5t-66.5 24.5q-70 0 -91 -57l-109 10q20 64 74 98.5t133 34.5q116 0 153 -82q21 38 66 60t98 22q100 0 167.5 -68t67.5 -185v-28h-359
q8 -59 45 -95.5t93 -36.5q78 0 112 67l91 -25q-27 -63 -79.5 -97.5t-124.5 -34.5q-60 0 -111.5 25.5t-82.5 69.5q-57 -95 -178 -95zM589 404q-52 0 -84.5 -31.5t-40.5 -90.5h245q-4 60 -37.5 91t-82.5 31zM243 71q46 0 79 26.5t33 60.5v31q-30 23 -95 23q-48 0 -75.5 -19
t-27.5 -52q0 -31 23.5 -50.5t62.5 -19.5z" />
    <glyph glyph-name="Oslashacute" unicode="&#x1fe;" horiz-adv-x="800" 
d="M553 846l-104 -106h-100l73 106h131zM214 36l-40 -51h-125l89 114q-90 103 -90 251q0 159 100.5 262t251.5 103q104 0 186 -51l40 51h126l-90 -114q90 -103 90 -251q0 -159 -100.5 -262t-251.5 -103q-104 0 -186 51zM165 350q0 -91 48 -162l308 386q-55 34 -121 34
q-99 0 -167 -72t-68 -186zM635 350q0 95 -48 162l-307 -387q55 -33 120 -33q100 0 167.5 72t67.5 186z" />
    <glyph glyph-name="oslashacute" unicode="&#x1ff;" horiz-adv-x="559" 
d="M448 699l-122 -153h-100l91 153h131zM163 12l-20 -26h-110l61 80q-60 70 -60 171q0 115 70 183t175 68q65 0 117 -27l20 26h110l-61 -78q61 -67 61 -172q0 -114 -71.5 -183t-175.5 -69q-65 0 -116 27zM143 237q0 -53 21 -89l177 231q-30 14 -62 14q-61 0 -98.5 -43.5
t-37.5 -112.5zM416 237q0 49 -21 89l-177 -231q30 -14 61 -14q62 0 99.5 43t37.5 113z" />
    <glyph glyph-name="Scommaaccent" unicode="&#x218;" horiz-adv-x="592" 
d="M301 -15q-97 0 -168.5 49t-86.5 134l111 24q9 -51 50.5 -79.5t96.5 -28.5q58 0 93 29.5t35 76.5q0 34 -20 56.5t-51.5 34.5t-69.5 21.5t-76.5 22.5t-70 33t-51.5 58.5t-20 93.5q0 92 65 148.5t167 56.5q98 0 162.5 -52t78.5 -136l-111 -20q-8 49 -43 78.5t-90 29.5
q-50 0 -81.5 -25.5t-31.5 -69.5q0 -34 20 -56t51.5 -33.5t70 -21t77 -22.5t70 -33t51.5 -58.5t20 -93.5q0 -97 -69 -157t-179 -60zM356 -62l-61 -138h-88l45 138h104z" />
    <glyph glyph-name="scommaaccent" unicode="&#x219;" horiz-adv-x="452" 
d="M232 -15q-76 0 -128 34t-69 95l99 20q9 -31 36.5 -49.5t64.5 -18.5t57 18t20 49q0 28 -26.5 43t-65 22t-76.5 18t-64.5 42t-26.5 84q0 66 48.5 106t127.5 40q72 0 123 -33.5t64 -87.5l-101 -21q-4 26 -27.5 43t-55.5 17q-34 0 -52.5 -16t-18.5 -40q0 -28 26.5 -43
t64.5 -22t76.5 -18t65 -42t26.5 -84q0 -71 -51.5 -113.5t-136.5 -42.5zM287 -62l-61 -138h-88l45 138h104z" />
    <glyph glyph-name="Tcommaaccent" unicode="&#x21a;" horiz-adv-x="584" 
d="M26 700h531v-105h-208v-595h-114v595h-209v105zM344 -62l-61 -138h-88l45 138h104z" />
    <glyph glyph-name="tcommaaccent" unicode="&#x21b;" horiz-adv-x="353" 
d="M260 -10q-164 0 -164 166v225h-86v92h86v130l109 21v-151h131v-92h-131v-207q0 -51 18.5 -72t57.5 -21q31 0 48 10l12 -87q-28 -14 -81 -14zM282 -62l-61 -138h-88l45 138h104z" />
    <glyph glyph-name="circumflex" unicode="&#x2c6;" horiz-adv-x="500" 
d="M317 700l109 -153h-102l-74 100l-74 -100h-102l109 153h134z" />
    <glyph glyph-name="caron" unicode="&#x2c7;" horiz-adv-x="500" 
d="M250 600l74 100h102l-109 -153h-134l-109 153h102z" />
    <glyph glyph-name="breve" unicode="&#x2d8;" horiz-adv-x="500" 
d="M250 550q-66 0 -107.5 38t-49.5 109h84q5 -35 25 -55t48 -20q30 0 49.5 20t23.5 55h84q-8 -71 -49.5 -109t-107.5 -38z" />
    <glyph glyph-name="dotaccent" unicode="&#x2d9;" horiz-adv-x="500" 
d="M304 676v-105h-109v105h109z" />
    <glyph glyph-name="ring" unicode="&#x2da;" horiz-adv-x="500" 
d="M250 532q-49 0 -82 29.5t-33 74.5q0 47 32.5 75.5t82.5 28.5t82.5 -28.5t32.5 -75.5q0 -45 -33 -74.5t-82 -29.5zM250 586q24 0 38 14t14 36t-14 36t-38 14t-38 -14t-14 -36t14 -36t38 -14z" />
    <glyph glyph-name="ogonek" unicode="&#x2db;" horiz-adv-x="500" 
d="M298 -200q-62 0 -97 23.5t-35 68.5q0 88 127 139l53 -31q-87 -34 -87 -89q0 -21 15.5 -32.5t40.5 -11.5q16 0 31 3v-66q-21 -4 -48 -4z" />
    <glyph glyph-name="tilde" unicode="&#x2dc;" horiz-adv-x="500" 
d="M317 558q-31 0 -68 25t-54 25q-33 0 -39 -50h-76q12 132 101 132q32 0 68.5 -25t53.5 -25q33 0 39 49h76q-12 -131 -101 -131z" />
    <glyph glyph-name="hungarumlaut" unicode="&#x2dd;" horiz-adv-x="500" 
d="M276 700l-122 -153h-100l90 153h132zM460 700l-122 -153h-100l91 153h131z" />
    <glyph glyph-name="commaaccent" unicode="&#x326;" horiz-adv-x="500" 
d="M324 -62l-61 -138h-88l45 138h104z" />
    <glyph glyph-name="pi" unicode="&#x3c0;" horiz-adv-x="620" 
d="M523 -6q-66 0 -104 32t-38 120v227h-158v-373h-109v373h-78v93h542v-93h-88v-219q0 -64 52 -64q17 0 36 7v-96q-23 -7 -55 -7z" />
    <glyph glyph-name="Wgrave" unicode="&#x1e80;" horiz-adv-x="980" 
d="M469 846l73 -106h-100l-104 106h131zM205 -4l-185 704h128l127 -513h5l157 513h117l157 -513h6l126 513h117l-181 -704h-122l-163 530h-4l-163 -530h-122z" />
    <glyph glyph-name="wgrave" unicode="&#x1e81;" horiz-adv-x="756" 
d="M220 700h131l76 -153h-99zM737 473l-152 -477h-100l-105 338l-106 -338h-104l-152 477h115l95 -326h3l103 326h100l101 -326h3l95 326h104z" />
    <glyph glyph-name="Wacute" unicode="&#x1e82;" horiz-adv-x="980" 
d="M646 846l-104 -106h-100l73 106h131zM205 -4l-185 704h128l127 -513h5l157 513h117l157 -513h6l126 513h117l-181 -704h-122l-163 530h-4l-163 -530h-122z" />
    <glyph glyph-name="wacute" unicode="&#x1e83;" horiz-adv-x="756" 
d="M551 700l-122 -153h-100l91 153h131zM737 473l-152 -477h-100l-105 338l-106 -338h-104l-152 477h115l95 -326h3l103 326h100l101 -326h3l95 326h104z" />
    <glyph glyph-name="Wdieresis" unicode="&#x1e84;" horiz-adv-x="980" 
d="M438 844v-102h-101v102h101zM647 844v-102h-101v102h101zM205 -4l-185 704h128l127 -513h5l157 513h117l157 -513h6l126 513h117l-181 -704h-122l-163 530h-4l-163 -530h-122z" />
    <glyph glyph-name="wdieresis" unicode="&#x1e85;" horiz-adv-x="756" 
d="M324 679v-111h-101v111h101zM533 679v-111h-101v111h101zM737 473l-152 -477h-100l-105 338l-106 -338h-104l-152 477h115l95 -326h3l103 326h100l101 -326h3l95 326h104z" />
    <glyph glyph-name="Ygrave" unicode="&#x1ef2;" horiz-adv-x="624" 
d="M294 846l73 -106h-100l-104 106h131zM370 293v-293h-114v293l-244 407h133l169 -295h5l169 295h125z" />
    <glyph glyph-name="ygrave" unicode="&#x1ef3;" horiz-adv-x="508" 
d="M96 699h131l76 -153h-99zM493 473l-267 -670h-107l86 214l-193 456h119l132 -328l122 328h108z" />
    <glyph glyph-name="endash" unicode="&#x2013;" horiz-adv-x="500" 
d="M480 237h-460v83h460v-83z" />
    <glyph glyph-name="emdash" unicode="&#x2014;" horiz-adv-x="1000" 
d="M980 237h-960v83h960v-83z" />
    <glyph glyph-name="quoteleft" unicode="&#x2018;" horiz-adv-x="262" 
d="M45 443l90 257h88l-69 -257h-109z" />
    <glyph glyph-name="quoteright" unicode="&#x2019;" horiz-adv-x="262" 
d="M217 700l-90 -257h-88l69 257h109z" />
    <glyph glyph-name="quotesinglbase" unicode="&#x201a;" horiz-adv-x="263" 
d="M206 125l-90 -257h-88l69 257h109z" />
    <glyph glyph-name="quotedblleft" unicode="&#x201c;" horiz-adv-x="445" 
d="M45 443l90 257h88l-69 -257h-109zM228 443l90 257h88l-69 -257h-109z" />
    <glyph glyph-name="quotedblright" unicode="&#x201d;" horiz-adv-x="445" 
d="M217 700l-90 -257h-88l69 257h109zM400 700l-90 -257h-88l69 257h109z" />
    <glyph glyph-name="quotedblbase" unicode="&#x201e;" horiz-adv-x="445" 
d="M206 125l-90 -257h-88l69 257h109zM389 125l-90 -257h-88l69 257h109z" />
    <glyph glyph-name="dagger" unicode="&#x2020;" horiz-adv-x="444" 
d="M258 414v-491h-72v491h-138v75h138v211h72v-211h138v-75h-138z" />
    <glyph glyph-name="daggerdbl" unicode="&#x2021;" horiz-adv-x="444" 
d="M258 134v-211h-72v211h-138v75h138v205h-138v75h138v211h72v-211h138v-75h-138v-205h138v-75h-138z" />
    <glyph glyph-name="bullet" unicode="&#x2022;" horiz-adv-x="442" 
d="M221 115q-69 0 -116 45.5t-47 117.5t47 117.5t116 45.5t116 -45.5t47 -117.5t-47 -117.5t-116 -45.5z" />
    <glyph glyph-name="ellipsis" unicode="&#x2026;" horiz-adv-x="785" 
d="M191 0h-119v138h119v-138zM453 0h-119v138h119v-138zM714 0h-119v138h119v-138z" />
    <glyph glyph-name="perthousand" unicode="&#x2030;" horiz-adv-x="1146" 
d="M186 325q-69 0 -114 52t-45 143t45 143t114 52t114.5 -52t45.5 -143t-45.5 -143t-114.5 -52zM580 700h86l-465 -700h-86zM186 406q34 0 54 29t20 85t-20 85t-54 29q-33 0 -53 -29t-20 -85t20 -85t53 -29zM595 -15q-69 0 -114 52t-45 143t45 143t114 52t114.5 -52
t45.5 -143t-45.5 -143t-114.5 -52zM959 -15q-69 0 -114 52t-45 143t45 143t114 52t114.5 -52t45.5 -143t-45.5 -143t-114.5 -52zM595 66q34 0 54 29t20 85t-20 85t-54 29q-33 0 -53 -29t-20 -85t20 -85t53 -29zM959 66q34 0 54 29t20 85t-20 85t-54 29q-33 0 -53 -29
t-20 -85t20 -85t53 -29z" />
    <glyph glyph-name="guilsinglleft" unicode="&#x2039;" horiz-adv-x="294" 
d="M151 278l99 -202h-102l-99 202l99 202h102z" />
    <glyph glyph-name="guilsinglright" unicode="&#x203a;" horiz-adv-x="294" 
d="M246 278l-99 -202h-102l99 202l-99 202h102z" />
    <glyph glyph-name="fraction" unicode="&#x2044;" horiz-adv-x="201" 
d="M290 700h86l-465 -700h-86z" />
    <glyph glyph-name="zerosuperior" unicode="&#x2070;" horiz-adv-x="401" 
d="M201 391q-79 0 -128 60t-49 159q0 102 49 160q50 59 128 59q80 0 129 -60t49 -159t-49 -159t-129 -60zM201 465q44 0 69 39t25 106t-25 106t-69 39q-45 0 -69.5 -39t-24.5 -106t25 -106t69 -39z" />
    <glyph glyph-name="foursuperior" unicode="&#x2074;" horiz-adv-x="367" 
d="M303 491v-91h-81v91h-201v67l143 262h139v-254h51v-75h-51zM218 768l-113 -202h117v202h-4z" />
    <glyph glyph-name="fivesuperior" unicode="&#x2075;" horiz-adv-x="369" 
d="M187 391q-60 0 -102.5 32t-47.5 79l76 13q5 -22 25.5 -36t47.5 -14q33 0 53 19.5t20 52.5q0 32 -20 51.5t-53 19.5q-48 0 -64 -36h-70v248h270v-76h-193v-92q24 30 81 30q60 0 97.5 -39.5t37.5 -101.5q0 -66 -44.5 -108t-113.5 -42z" />
    <glyph glyph-name="sixsuperior" unicode="&#x2076;" horiz-adv-x="369" 
d="M198 391q-82 0 -125 56t-43 162q0 105 42.5 162.5t120.5 57.5q54 0 93 -26.5t55 -74.5l-83 -13q-17 41 -65 41q-78 0 -79 -121v-13q31 52 102 52q55 0 93 -38t38 -95q0 -66 -42 -108t-107 -42zM192 464q32 0 51 20t19 51t-19 51t-51 20q-33 0 -52.5 -20t-19.5 -51
t19.5 -51t52.5 -20z" />
    <glyph glyph-name="sevensuperior" unicode="&#x2077;" horiz-adv-x="367" 
d="M43 820h291v-75l-184 -345h-94l191 344h-204v76z" />
    <glyph glyph-name="eightsuperior" unicode="&#x2078;" horiz-adv-x="369" 
d="M185 391q-69 0 -113 36t-44 93q0 38 20 65.5t54 36.5q-28 9 -44 34t-16 57q0 50 40.5 83t102.5 33t103 -33t41 -83q0 -33 -16 -57.5t-45 -33.5q33 -10 53 -37.5t20 -65.5q0 -56 -44 -92t-112 -36zM185 655q26 0 42 15t16 37t-16 36t-42 14q-27 0 -43 -14t-16 -36
t16.5 -37t42.5 -15zM185 465q30 0 49.5 17t19.5 44q0 29 -19 44.5t-50 15.5q-30 0 -49.5 -16t-19.5 -44q0 -27 19.5 -44t49.5 -17z" />
    <glyph glyph-name="ninesuperior" unicode="&#x2079;" horiz-adv-x="369" 
d="M172 829q81 0 124 -56t43 -162q0 -105 -42 -162.5t-120 -57.5q-54 0 -93 26.5t-56 74.5l83 13q18 -41 65 -41q77 0 80 121v13q-13 -24 -40.5 -38t-61.5 -14q-56 0 -94 38.5t-38 94.5q0 66 42 108t108 42zM178 756q-32 0 -51 -19.5t-19 -51.5q0 -31 19 -51t51 -20
q33 0 52.5 20t19.5 51q0 32 -19.5 51.5t-52.5 19.5z" />
    <glyph glyph-name="plussuperior" unicode="&#x207a;" horiz-adv-x="430" 
d="M184 579h-139v62h139v149h62v-149h139v-62h-139v-149h-62v149z" />
    <glyph glyph-name="minussuperior" unicode="&#x207b;" horiz-adv-x="350" 
d="M305 579h-260v62h260v-62z" />
    <glyph glyph-name="equalsuperior" unicode="&#x207c;" horiz-adv-x="350" 
d="M305 648h-260v63h260v-63zM305 509h-260v63h260v-63z" />
    <glyph glyph-name="parenleftsuperior" unicode="&#x207d;" horiz-adv-x="276" 
d="M73 610q0 85 28 151.5t60 91.5h82q-40 -37 -67 -100.5t-27 -142.5t26.5 -141.5t67.5 -101.5h-82q-32 25 -60 91.5t-28 151.5z" />
    <glyph glyph-name="parenrightsuperior" unicode="&#x207e;" horiz-adv-x="276" 
d="M203 610q0 -85 -28 -151.5t-60 -91.5h-82q41 39 67.5 101.5t26.5 141.5t-27 142.5t-67 100.5h82q32 -25 60 -91.5t28 -151.5z" />
    <glyph glyph-name="zeroinferior" unicode="&#x2080;" horiz-adv-x="401" 
d="M201 -129q-79 0 -128 60t-49 159q0 102 49 160q50 59 128 59q80 0 129 -60t49 -159t-49 -159t-129 -60zM201 -55q44 0 69 39t25 106t-25 106t-69 39q-45 0 -69.5 -39t-24.5 -106t25 -106t69 -39z" />
    <glyph glyph-name="oneinferior" unicode="&#x2081;" horiz-adv-x="308" 
d="M40 158l-9 81l118 61h74v-420h-83v333z" />
    <glyph glyph-name="twoinferior" unicode="&#x2082;" horiz-adv-x="367" 
d="M334 -44v-76h-291v68l144 136q36 36 48 55t12 41q0 23 -17 38t-43 15q-30 0 -48.5 -19t-21.5 -54l-79 8q6 66 47.5 103.5t106.5 37.5t103.5 -33.5t38.5 -88.5q0 -39 -18 -70.5t-68 -78.5l-86 -82h172z" />
    <glyph glyph-name="threeinferior" unicode="&#x2083;" horiz-adv-x="367" 
d="M185 -129q-65 0 -110.5 36t-48.5 89l81 9q4 -27 24.5 -43.5t51.5 -16.5q32 0 51 19t19 50q0 30 -18 47t-50 17q-30 0 -55 -19v68l100 97h-189v76h289v-69l-71 -70q-21 -19 -27 -23v-3h6q45 0 73.5 -33t28.5 -85q0 -64 -44 -105t-111 -41z" />
    <glyph glyph-name="fourinferior" unicode="&#x2084;" horiz-adv-x="367" 
d="M303 -29v-91h-81v91h-201v67l143 262h139v-254h51v-75h-51zM218 248l-113 -202h117v202h-4z" />
    <glyph glyph-name="fiveinferior" unicode="&#x2085;" horiz-adv-x="367" 
d="M187 -129q-60 0 -102.5 32t-47.5 79l76 13q5 -22 25.5 -36t47.5 -14q33 0 53 19.5t20 52.5q0 32 -20 51.5t-53 19.5q-48 0 -64 -36h-70v248h270v-76h-193v-92q24 30 81 30q60 0 97.5 -39.5t37.5 -101.5q0 -66 -44.5 -108t-113.5 -42z" />
    <glyph glyph-name="sixinferior" unicode="&#x2086;" horiz-adv-x="367" 
d="M198 -129q-82 0 -125 56t-43 162q0 105 42.5 162.5t120.5 57.5q54 0 93 -26.5t55 -74.5l-83 -13q-17 41 -65 41q-78 0 -79 -121v-13q31 52 102 52q55 0 93 -38t38 -95q0 -66 -42 -108t-107 -42zM192 -56q32 0 51 20t19 51t-19 51t-51 20q-33 0 -52.5 -20t-19.5 -51
t19.5 -51t52.5 -20z" />
    <glyph glyph-name="seveninferior" unicode="&#x2087;" horiz-adv-x="367" 
d="M43 300h291v-75l-184 -345h-94l191 344h-204v76z" />
    <glyph glyph-name="eightinferior" unicode="&#x2088;" horiz-adv-x="367" 
d="M185 -129q-69 0 -113 36t-44 93q0 38 20 65.5t54 36.5q-28 9 -44 34t-16 57q0 50 40.5 83t102.5 33t103 -33t41 -83q0 -33 -16 -57.5t-45 -33.5q33 -10 53 -37.5t20 -65.5q0 -56 -44 -92t-112 -36zM185 135q26 0 42 15t16 37t-16 36t-42 14q-27 0 -43 -14t-16 -36
t16.5 -37t42.5 -15zM185 -55q30 0 49.5 17t19.5 44q0 29 -19 44.5t-50 15.5q-30 0 -49.5 -16t-19.5 -44q0 -27 19.5 -44t49.5 -17z" />
    <glyph glyph-name="nineinferior" unicode="&#x2089;" horiz-adv-x="367" 
d="M172 309q81 0 124 -56t43 -162q0 -105 -42 -162.5t-120 -57.5q-54 0 -93 26.5t-56 74.5l83 13q18 -41 65 -41q77 0 80 121v13q-13 -24 -40.5 -38t-61.5 -14q-56 0 -94 38.5t-38 94.5q0 66 42 108t108 42zM178 236q-32 0 -51 -19.5t-19 -51.5q0 -31 19 -51t51 -20
q33 0 52.5 20t19.5 51q0 32 -19.5 51.5t-52.5 19.5z" />
    <glyph glyph-name="plusinferior" unicode="&#x208a;" horiz-adv-x="430" 
d="M184 59h-139v62h139v149h62v-149h139v-62h-139v-149h-62v149z" />
    <glyph glyph-name="minusinferior" unicode="&#x208b;" horiz-adv-x="350" 
d="M305 59h-260v62h260v-62z" />
    <glyph glyph-name="equalinferior" unicode="&#x208c;" horiz-adv-x="350" 
d="M305 128h-260v63h260v-63zM305 -11h-260v63h260v-63z" />
    <glyph glyph-name="parenleftinferior" unicode="&#x208d;" horiz-adv-x="276" 
d="M73 90q0 85 28 151.5t60 91.5h82q-40 -37 -67 -100.5t-27 -142.5t26.5 -141.5t67.5 -101.5h-82q-32 25 -60 92t-28 151z" />
    <glyph glyph-name="parenrightinferior" unicode="&#x208e;" horiz-adv-x="276" 
d="M203 90q0 -84 -28 -151t-60 -92h-82q41 39 67.5 101.5t26.5 141.5t-27 142.5t-67 100.5h82q32 -25 60 -91.5t28 -151.5z" />
    <glyph glyph-name="Euro" unicode="&#x20ac;" 
d="M337 -15q-102 0 -166.5 66.5t-85.5 185.5h-77v76h69q-1 12 -1 37t1 37h-69v76h77q21 119 86.5 185.5t170.5 66.5q152 0 212 -139l-110 -31q-25 68 -105 68q-112 0 -139 -150h244v-76h-252q-1 -12 -1 -37t1 -37h252v-76h-244q27 -150 138 -150q38 0 66 18t40 50l108 -32
q-26 -65 -83 -101.5t-132 -36.5z" />
    <glyph glyph-name="litre" unicode="&#x2113;" horiz-adv-x="467" 
d="M258 -15q-151 0 -158 178q-40 -22 -41 -22l-37 67l77 42v203q0 262 175 262q72 0 112.5 -46.5t40.5 -130.5q0 -96 -49 -165.5t-170 -146.5v-53q0 -58 18 -81t54 -23q45 0 89 39l43 -63q-63 -60 -154 -60zM208 476v-158q73 51 98.5 99t25.5 121q0 43 -15 69t-43 26
q-33 0 -49.5 -36t-16.5 -121z" />
    <glyph glyph-name="numero" unicode="&#x2116;" horiz-adv-x="1193" 
d="M801 525q0 86 53 136t132 50q78 0 131 -50t53 -136q0 -84 -53.5 -135t-130.5 -51q-79 0 -132 50.5t-53 135.5zM693 700v-704h-127l-367 532v-528h-114v704h127l367 -532v528h114zM894 525q0 -47 26 -76t66 -29t65 28.5t25 76.5q0 47 -25 76t-65 29t-66 -29t-26 -76z" />
    <glyph glyph-name="published" unicode="&#x2117;" horiz-adv-x="788" 
d="M745 350q0 -159 -101.5 -262t-250.5 -103t-250.5 103t-101.5 262t101.5 262t250.5 103t250.5 -103t101.5 -262zM671 350q0 128 -79.5 211.5t-198.5 83.5q-118 0 -197.5 -84t-79.5 -211t79.5 -211t197.5 -84q119 0 198.5 83.5t79.5 211.5zM358 291v-138h-82v394h142
q60 0 100.5 -33.5t40.5 -94.5q0 -60 -38.5 -94t-101.5 -34h-61zM407 471h-49v-105h53q32 0 47.5 15t15.5 38q0 52 -67 52z" />
    <glyph glyph-name="trademark" unicode="&#x2122;" horiz-adv-x="826" 
d="M198 624v-274h-82v274h-98v76h279v-76h-99zM768 700v-350h-83v244h-3l-86 -244h-75l-85 244h-4v-244h-82v350h126l84 -226h3l80 226h125z" />
    <glyph glyph-name="Omega" unicode="&#x2126;" horiz-adv-x="781" 
d="M732 104v-104h-292v152q68 15 118.5 75.5t50.5 154.5q0 99 -61.5 162.5t-156.5 63.5t-157 -63.5t-62 -162.5q0 -94 50.5 -154.5t118.5 -75.5v-152h-292v104h184v4q-73 26 -125.5 99.5t-52.5 178.5q0 141 94 235t242 94t241.5 -94t93.5 -235q0 -106 -52.5 -179t-126.5 -99
v-4h185z" />
    <glyph glyph-name="estimated" unicode="&#x212e;" horiz-adv-x="837" 
d="M424 -15q-163 0 -278.5 107t-115.5 258q0 153 115 259t279 106t279.5 -106t115.5 -259q0 -16 -1 -19h-606v-224q91 -71 212 -71q94 0 172 42.5t120 113.5h63q-47 -93 -143 -150t-212 -57zM212 594v-210h420v214q-87 66 -208 66q-126 0 -212 -70z" />
    <glyph glyph-name="arrowleft" unicode="&#x2190;" horiz-adv-x="897" 
d="M237 399h618v-99h-618v-5l297 -295h-141l-346 348v4l346 348h142l-298 -295v-6z" />
    <glyph glyph-name="arrowup" unicode="&#x2191;" horiz-adv-x="896" 
d="M497 564v-618h-99v618h-5l-295 -298v142l348 346h4l348 -346v-142l-295 298h-6z" />
    <glyph glyph-name="arrowright" unicode="&#x2192;" horiz-adv-x="897" 
d="M664 301h-618v99h618v5l-297 295h141l346 -348v-4l-346 -348h-142l298 295v6z" />
    <glyph glyph-name="arrowdown" unicode="&#x2193;" horiz-adv-x="897" 
d="M398 754h99v-618h6l295 298v-142l-348 -346h-4l-348 346v142l295 -298h5v618z" />
    <glyph glyph-name="arrowupleft" unicode="&#x2196;" horiz-adv-x="896" 
d="M316 598l437 -437l-70 -70l-438 437l-3 -4l1 -419l-99 100v492l2 3h493l100 -100l-420 2z" />
    <glyph glyph-name="arrowupright" unicode="&#x2197;" horiz-adv-x="897" 
d="M214 91l-70 70l437 437l-3 4l-420 -2l100 100h493l2 -3v-492l-99 -100l1 419l-3 4z" />
    <glyph glyph-name="arrowdownright" unicode="&#x2198;" horiz-adv-x="897" 
d="M581 102l-437 437l70 70l438 -437l3 4l-1 419l99 -100v-492l-2 -3h-493l-100 100l420 -2z" />
    <glyph glyph-name="arrowdownleft" unicode="&#x2199;" horiz-adv-x="897" 
d="M683 609l70 -70l-437 -437l3 -4l420 2l-100 -100h-493l-2 3v492l99 100l-1 -419l3 -4z" />
    <glyph glyph-name="arrowuptipleft" unicode="&#x21b0;" horiz-adv-x="897" 
d="M44 429l270 271h119l-224 -224v-5h641v-471h-94v382h-547v-5l224 -224h-119l-270 271v5z" />
    <glyph glyph-name="arrowuptipright" unicode="&#x21b1;" horiz-adv-x="897" 
d="M464 700h119l270 -271v-5l-270 -271h-119l224 224v5h-547v-382h-94v471h641v5z" />
    <glyph glyph-name="arrowdowntipleft" unicode="&#x21b2;" horiz-adv-x="897" 
d="M433 0h-119l-270 271v5l270 271h119l-224 -224v-5h547v382h94v-471h-641v-5z" />
    <glyph glyph-name="arrowdowntipright" unicode="&#x21b3;" horiz-adv-x="897" 
d="M853 271l-270 -271h-119l224 224v5h-641v471h94v-382h547v5l-224 224h119l270 -271v-5z" />
    <glyph glyph-name="partialdiff" unicode="&#x2202;" horiz-adv-x="552" 
d="M273 -15q-101 0 -168.5 69t-67.5 178q0 107 65 176.5t163 69.5q100 0 141 -71q-13 104 -66 158t-141 54q-54 0 -94 -22v97q38 21 101 21q84 0 147 -33.5t99.5 -91t54 -126.5t17.5 -148q0 -162 -69.5 -246.5t-181.5 -84.5zM278 81q64 0 100 45t36 113q0 60 -37 101
q-36 42 -98 42q-56 0 -94.5 -41t-38.5 -109t38 -109.5t94 -41.5z" />
    <glyph glyph-name="increment" unicode="&#x2206;" horiz-adv-x="700" 
d="M414 704l261 -704h-650l262 704h127zM348 576h-4l-165 -473h336z" />
    <glyph glyph-name="product" unicode="&#x220f;" horiz-adv-x="730" 
d="M645 700v-865h-114v761h-332v-761h-114v865h560z" />
    <glyph glyph-name="summation" unicode="&#x2211;" horiz-adv-x="600" 
d="M555 -61v-104h-504v98l265 340v4l-255 328v95h484v-105h-330l206 -264v-98l-229 -294h363z" />
    <glyph glyph-name="minus" unicode="&#x2212;" horiz-adv-x="600" 
d="M502 287h-404v84h404v-84z" />
    <glyph glyph-name="radical" unicode="&#x221a;" horiz-adv-x="555" 
d="M554 803l-224 -906h-89l-157 433l-59 -17l-20 71l138 38l136 -378h4l186 759h85z" />
    <glyph glyph-name="infinity" unicode="&#x221e;" horiz-adv-x="841" 
d="M615 135q-63 0 -107.5 32.5t-87.5 91.5q-40 -58 -85.5 -91t-108.5 -33q-85 0 -137.5 55.5t-52.5 138.5t52.5 138.5t137.5 55.5q63 0 108.5 -33t85.5 -91q43 59 87.5 91.5t107.5 32.5q85 0 137.5 -55.5t52.5 -138.5t-52.5 -138.5t-137.5 -55.5zM612 215q46 0 77.5 31
t31.5 83t-31.5 83t-77.5 31q-42 0 -75 -29.5t-69 -84.5q37 -55 70 -84.5t74 -29.5zM120 329q0 -51 32 -82.5t77 -31.5q43 0 74.5 29t69.5 85q-37 56 -69 85t-75 29q-45 0 -77 -31.5t-32 -82.5z" />
    <glyph glyph-name="integral" unicode="&#x222b;" horiz-adv-x="317" 
d="M53 -199q-27 0 -50 6v74q18 -6 37 -6q76 0 76 89v630q0 71 38.5 113.5t109.5 42.5q26 0 50 -6v-74q-18 6 -38 6q-76 0 -76 -89v-630q0 -72 -38 -114t-109 -42z" />
    <glyph glyph-name="approxequal" unicode="&#x2248;" horiz-adv-x="600" 
d="M410 369q-46 0 -116 33t-107 33q-65 0 -109 -61v91q13 21 43 37.5t69 16.5q46 0 116 -33t107 -33q65 0 109 61v-90q-14 -21 -43 -38t-69 -17zM410 139q-46 0 -116 33t-107 33q-65 0 -109 -61v91q13 21 43 37.5t69 16.5q46 0 116 -33t107 -33q65 0 109 61v-90
q-14 -21 -43 -38t-69 -17z" />
    <glyph glyph-name="notequal" unicode="&#x2260;" horiz-adv-x="600" 
d="M191 169h-113v84h147l62 152h-209v85h244l68 168h88l-68 -168h112v-85h-147l-62 -152h209v-84h-243l-69 -169h-88z" />
    <glyph glyph-name="lessequal" unicode="&#x2264;" horiz-adv-x="600" 
d="M530 285v-88l-457 167v82l457 166v-88l-330 -117v-4zM530 49h-460v84h460v-84z" />
    <glyph glyph-name="greaterequal" unicode="&#x2265;" horiz-adv-x="600" 
d="M527 364l-457 -167v88l330 118v4l-330 117v88l457 -166v-82zM530 133v-84h-460v84h460z" />
    <glyph glyph-name="blacksquare" unicode="&#x25a0;" horiz-adv-x="800" 
d="M725 675v-651h-651v651h651z" />
    <glyph glyph-name="whitesquare" unicode="&#x25a1;" horiz-adv-x="800" 
d="M725 675v-651h-651v651h651zM144 94h511v511h-511v-511z" />
    <glyph glyph-name="squarewhitewithsmallblack" unicode="&#x25a3;" horiz-adv-x="800" 
d="M725 675v-651h-651v651h651zM144 94h511v511h-511v-511zM515 465v-231h-231v231h231z" />
    <glyph glyph-name="blackuppointingtriangle" unicode="&#x25b2;" horiz-adv-x="833" 
d="M417 681l352 -661h-704z" />
    <glyph glyph-name="whiteuppointingtriangle" unicode="&#x25b3;" horiz-adv-x="833" 
d="M433 681l352 -661h-704zM668 90l-233 438h-4l-233 -438h470z" />
    <glyph glyph-name="blackrightpointingtriangle" unicode="&#x25b6;" horiz-adv-x="833" 
d="M778 350l-661 -352v704z" />
    <glyph glyph-name="whiterightpointingtriangle" unicode="&#x25b7;" horiz-adv-x="833" 
d="M778 350l-661 -352v704zM187 115l438 233v4l-438 233v-470z" />
    <glyph glyph-name="blackdownpointingtriangle" unicode="&#x25bc;" horiz-adv-x="833" 
d="M65 681h704l-352 -661z" />
    <glyph glyph-name="whitedownpointingtriangle" unicode="&#x25bd;" horiz-adv-x="833" 
d="M81 681h704l-352 -661zM431 173h4l233 438h-470z" />
    <glyph glyph-name="blackleftpointingtriangle" unicode="&#x25c0;" horiz-adv-x="833" 
d="M716 702v-704l-661 352z" />
    <glyph glyph-name="whiteleftpointingtriangle" unicode="&#x25c1;" horiz-adv-x="833" 
d="M716 702v-704l-661 352zM208 352v-4l438 -233v470z" />
    <glyph glyph-name="blackdiamond" unicode="&#x25c6;" horiz-adv-x="600" 
d="M582 350l-282 -282l-282 282l282 282z" />
    <glyph glyph-name="fisheye" unicode="&#x25c9;" horiz-adv-x="800" 
d="M56 350q0 141 101.5 242t242.5 101q142 0 242.5 -100.5t100.5 -242.5q0 -141 -101 -242.5t-242 -101.5t-242.5 101.5t-101.5 242.5zM130 350q0 -112 79 -191t191 -79q111 0 190.5 79t79.5 191q0 111 -79.5 190.5t-190.5 79.5q-112 0 -191 -79.5t-79 -190.5zM271 350
q0 54 37.5 90t91.5 36t90 -36t36 -90t-36 -91.5t-90 -37.5q-53 0 -91 38t-38 91z" />
    <glyph glyph-name="lozenge" unicode="&#x25ca;" horiz-adv-x="519" 
d="M315 678l177 -349l-177 -349h-112l-176 349l176 349h112zM259 56l140 273l-140 273l-139 -273z" />
    <glyph glyph-name="whitecircle" unicode="&#x25cb;" horiz-adv-x="800" 
d="M56 350q0 141 101.5 242t242.5 101q142 0 242.5 -100.5t100.5 -242.5q0 -141 -101 -242.5t-242 -101.5t-242.5 101.5t-101.5 242.5zM130 350q0 -112 79 -191t191 -79q111 0 190.5 79t79.5 191q0 111 -79.5 190.5t-190.5 79.5q-112 0 -191 -79.5t-79 -190.5z" />
    <glyph glyph-name="blackcircle" unicode="&#x25cf;" horiz-adv-x="800" 
d="M56 350q0 141 101.5 242t242.5 101q142 0 242.5 -100.5t100.5 -242.5q0 -141 -101 -242.5t-242 -101.5t-242.5 101.5t-101.5 242.5z" />
    <glyph glyph-name="germandbls.cap" horiz-adv-x="1184" 
d="M301 -15q-97 0 -168.5 49t-86.5 134l111 24q9 -51 50.5 -79.5t96.5 -28.5q58 0 93 29.5t35 76.5q0 34 -20 56.5t-51.5 34.5t-69.5 21.5t-76.5 22.5t-70 33t-51.5 58.5t-20 93.5q0 92 65 148.5t167 56.5q98 0 162.5 -52t78.5 -136l-111 -20q-8 49 -43 78.5t-90 29.5
q-50 0 -81.5 -25.5t-31.5 -69.5q0 -34 20 -56t51.5 -33.5t70 -21t77 -22.5t70 -33t51.5 -58.5t20 -93.5q0 -97 -69 -157t-179 -60zM893 -15q-96 0 -168 49t-87 134l111 24q9 -51 50.5 -79.5t96.5 -28.5q58 0 93 29.5t35 76.5q0 34 -20 56.5t-51.5 34.5t-70 21.5t-76.5 22.5
t-69.5 33t-51.5 58.5t-20 93.5q0 92 65 148.5t167 56.5q98 0 162.5 -52t78.5 -136l-111 -20q-8 49 -43 78.5t-90 29.5q-50 0 -81.5 -25.5t-31.5 -69.5q0 -34 20 -56t51.5 -33.5t70 -21t77 -22.5t70 -33t51.5 -58.5t20 -93.5q0 -97 -69 -157t-179 -60z" />
    <glyph glyph-name="i.TRK" horiz-adv-x="238" 
d="M174 700v-115h-109v115h109zM174 473v-473h-109v473h109z" />
    <glyph glyph-name="A.small" horiz-adv-x="556" 
d="M340 549l199 -549h-120l-42 122h-202l-41 -122h-117l201 549h122zM279 418h-4l-67 -198h139z" />
    <glyph glyph-name="Agrave.small" horiz-adv-x="556" 
d="M248 692l73 -106h-100l-104 106h131zM340 549l199 -549h-120l-42 122h-202l-41 -122h-117l201 549h122zM279 418h-4l-67 -198h139z" />
    <glyph glyph-name="Aacute.small" horiz-adv-x="556" 
d="M424 692l-104 -106h-100l73 106h131zM340 549l199 -549h-120l-42 122h-202l-41 -122h-117l201 549h122zM279 418h-4l-67 -198h139z" />
    <glyph glyph-name="Acircumflex.small" horiz-adv-x="556" 
d="M353 692l92 -106h-102l-73 68l-72 -68h-102l92 106h165zM340 549l199 -549h-120l-42 122h-202l-41 -122h-117l201 549h122zM279 418h-4l-67 -198h139z" />
    <glyph glyph-name="Atilde.small" horiz-adv-x="556" 
d="M336 586q-29 0 -71 19t-56 19q-29 0 -36 -37h-64q16 105 97 105q30 0 71.5 -19t55.5 -19q29 0 36 38h64q-16 -106 -97 -106zM340 549l199 -549h-120l-42 122h-202l-41 -122h-117l201 549h122zM279 418h-4l-67 -198h139z" />
    <glyph glyph-name="Adieresis.small" horiz-adv-x="556" 
d="M217 690v-102h-101v102h101zM426 690v-102h-101v102h101zM340 549l199 -549h-120l-42 122h-202l-41 -122h-117l201 549h122zM279 418h-4l-67 -198h139z" />
    <glyph glyph-name="Amacron.small" horiz-adv-x="556" 
d="M433 677v-76h-324v76h324zM340 549l199 -549h-120l-42 122h-202l-41 -122h-117l201 549h122zM279 418h-4l-67 -198h139z" />
    <glyph glyph-name="Abreve.small" horiz-adv-x="556" 
d="M271 577q-55 0 -99 27t-58 88h84q8 -23 28 -36t45 -13t45 13t28 36h84q-12 -61 -56.5 -88t-100.5 -27zM340 549l199 -549h-120l-42 122h-202l-41 -122h-117l201 549h122zM279 418h-4l-67 -198h139z" />
    <glyph glyph-name="Aring.small" horiz-adv-x="556" 
d="M271 581q-49 0 -82 29t-33 76t32.5 75.5t82.5 28.5t82.5 -28.5t32.5 -75.5t-33 -76t-82 -29zM271 636q23 0 37.5 14t14.5 36q0 21 -14.5 35t-37.5 14t-37.5 -14t-14.5 -35q0 -22 14.5 -36t37.5 -14zM340 549l199 -549h-120l-42 122h-202l-41 -122h-117l201 549h122z
M279 418h-4l-67 -198h139z" />
    <glyph glyph-name="Aringacute.small" horiz-adv-x="556" 
d="M424 925l-104 -106h-100l73 106h131zM271 581q-49 0 -82 29t-33 76t32.5 75.5t82.5 28.5t82.5 -28.5t32.5 -75.5t-33 -76t-82 -29zM271 636q23 0 37.5 14t14.5 36q0 21 -14.5 35t-37.5 14t-37.5 -14t-14.5 -35q0 -22 14.5 -36t37.5 -14zM340 549l199 -549h-120l-42 122
h-202l-41 -122h-117l201 549h122zM279 418h-4l-67 -198h139z" />
    <glyph glyph-name="Aogonek.small" horiz-adv-x="556" 
d="M483 -200q-62 0 -97 23.5t-35 68.5q0 64 68 109l-42 121h-202l-41 -122h-117l201 549h122l199 -549h-8q-87 -34 -87 -89q0 -21 15.5 -32.5t40.5 -11.5q16 0 31 3v-66q-21 -4 -48 -4zM279 418h-4l-67 -198h139z" />
    <glyph glyph-name="AE.small" horiz-adv-x="765" 
d="M710 99v-99h-379v120h-155l-55 -120h-121l257 546h453v-99h-268v-122h198v-99h-198v-127h268zM331 443h-7l-101 -221h108v221z" />
    <glyph glyph-name="AEacute.small" horiz-adv-x="765" 
d="M540 692l-104 -106h-100l73 106h131zM710 99v-99h-379v120h-155l-55 -120h-121l257 546h453v-99h-268v-122h198v-99h-198v-127h268zM331 443h-7l-101 -221h108v221z" />
    <glyph glyph-name="B.small" horiz-adv-x="530" 
d="M460 399q0 -44 -25 -76.5t-71 -41.5q55 -7 85 -40t30 -82q0 -76 -49.5 -117.5t-142.5 -41.5h-206v546h202q83 0 130 -39.5t47 -107.5zM267 449h-75v-127h85q34 0 51 17.5t17 45.5q0 27 -19 45.5t-59 18.5zM365 166q0 31 -22 49.5t-66 18.5h-85v-138h88q42 0 63.5 19.5
t21.5 50.5z" />
    <glyph glyph-name="C.small" horiz-adv-x="590" 
d="M48 273q0 128 76.5 206.5t193.5 78.5q90 0 153.5 -44t86.5 -122l-113 -23q-10 35 -45 59.5t-81 24.5q-70 0 -114 -50.5t-44 -129.5q0 -80 45 -130t115 -50q46 0 80 23.5t44 58.5l113 -23q-20 -76 -84 -120t-153 -44q-119 0 -196 78t-77 207z" />
    <glyph glyph-name="Cacute.small" horiz-adv-x="590" 
d="M472 692l-104 -106h-100l73 106h131zM48 273q0 128 76.5 206.5t193.5 78.5q90 0 153.5 -44t86.5 -122l-113 -23q-10 35 -45 59.5t-81 24.5q-70 0 -114 -50.5t-44 -129.5q0 -80 45 -130t115 -50q46 0 80 23.5t44 58.5l113 -23q-20 -76 -84 -120t-153 -44q-119 0 -196 78
t-77 207z" />
    <glyph glyph-name="Ccircumflex.small" horiz-adv-x="590" 
d="M401 692l92 -106h-102l-73 68l-72 -68h-102l92 106h165zM48 273q0 128 76.5 206.5t193.5 78.5q90 0 153.5 -44t86.5 -122l-113 -23q-10 35 -45 59.5t-81 24.5q-70 0 -114 -50.5t-44 -129.5q0 -80 45 -130t115 -50q46 0 80 23.5t44 58.5l113 -23q-20 -76 -84 -120
t-153 -44q-119 0 -196 78t-77 207z" />
    <glyph glyph-name="Ccaron.small" horiz-adv-x="590" 
d="M319 624l72 68h102l-92 -106h-165l-92 106h102zM48 273q0 128 76.5 206.5t193.5 78.5q90 0 153.5 -44t86.5 -122l-113 -23q-10 35 -45 59.5t-81 24.5q-70 0 -114 -50.5t-44 -129.5q0 -80 45 -130t115 -50q46 0 80 23.5t44 58.5l113 -23q-20 -76 -84 -120t-153 -44
q-119 0 -196 78t-77 207z" />
    <glyph glyph-name="Cdotaccent.small" horiz-adv-x="590" 
d="M373 683v-88h-109v88h109zM48 273q0 128 76.5 206.5t193.5 78.5q90 0 153.5 -44t86.5 -122l-113 -23q-10 35 -45 59.5t-81 24.5q-70 0 -114 -50.5t-44 -129.5q0 -80 45 -130t115 -50q46 0 80 23.5t44 58.5l113 -23q-20 -76 -84 -120t-153 -44q-119 0 -196 78t-77 207z
" />
    <glyph glyph-name="Ccedilla.small" horiz-adv-x="590" 
d="M48 273q0 128 76.5 206.5t193.5 78.5q90 0 153.5 -44t86.5 -122l-113 -23q-10 35 -45 59.5t-81 24.5q-70 0 -114 -50.5t-44 -129.5q0 -80 45 -130t115 -50q46 0 80 23.5t44 58.5l113 -23q-17 -65 -68 -107.5t-124 -53.5l-42 -191l-95 12l42 180q-100 17 -161.5 92
t-61.5 189z" />
    <glyph glyph-name="D.small" horiz-adv-x="595" 
d="M547 273q0 -132 -82.5 -202.5t-232.5 -70.5h-151v546h167q137 0 218 -72.5t81 -200.5zM432 273q0 81 -47.5 125.5t-131.5 44.5h-61v-341h61q84 0 131.5 45t47.5 126z" />
    <glyph glyph-name="Dcaron.small" horiz-adv-x="595" 
d="M281 624l72 68h102l-92 -106h-165l-92 106h102zM547 273q0 -132 -82.5 -202.5t-232.5 -70.5h-151v546h167q137 0 218 -72.5t81 -200.5zM432 273q0 81 -47.5 125.5t-131.5 44.5h-61v-341h61q84 0 131.5 45t47.5 126z" />
    <glyph glyph-name="Dcroat.small" horiz-adv-x="595" 
d="M547 273q0 -132 -82.5 -202.5t-232.5 -70.5h-151v229h-65v89h65v228h167q137 0 218 -72.5t81 -200.5zM314 318v-89h-122v-127h61q84 0 131.5 45t47.5 126t-47.5 125.5t-131.5 44.5h-61v-125h122z" />
    <glyph glyph-name="Eth.small" horiz-adv-x="595" 
d="M547 273q0 -132 -82.5 -202.5t-232.5 -70.5h-151v229h-65v89h65v228h167q137 0 218 -72.5t81 -200.5zM314 318v-89h-122v-127h61q84 0 131.5 45t47.5 126t-47.5 125.5t-131.5 44.5h-61v-125h122z" />
    <glyph glyph-name="E.small" horiz-adv-x="514" 
d="M81 546h379v-99h-268v-122h198v-99h-198v-127h268v-99h-379v546z" />
    <glyph glyph-name="Egrave.small" horiz-adv-x="514" 
d="M248 692l73 -106h-100l-104 106h131zM81 546h379v-99h-268v-122h198v-99h-198v-127h268v-99h-379v546z" />
    <glyph glyph-name="Eacute.small" horiz-adv-x="514" 
d="M424 692l-104 -106h-100l73 106h131zM81 546h379v-99h-268v-122h198v-99h-198v-127h268v-99h-379v546z" />
    <glyph glyph-name="Ecircumflex.small" horiz-adv-x="514" 
d="M353 692l92 -106h-102l-73 68l-72 -68h-102l92 106h165zM81 546h379v-99h-268v-122h198v-99h-198v-127h268v-99h-379v546z" />
    <glyph glyph-name="Ecaron.small" horiz-adv-x="514" 
d="M271 624l72 68h102l-92 -106h-165l-92 106h102zM81 546h379v-99h-268v-122h198v-99h-198v-127h268v-99h-379v546z" />
    <glyph glyph-name="Edieresis.small" horiz-adv-x="514" 
d="M217 690v-102h-101v102h101zM426 690v-102h-101v102h101zM81 546h379v-99h-268v-122h198v-99h-198v-127h268v-99h-379v546z" />
    <glyph glyph-name="Emacron.small" horiz-adv-x="514" 
d="M433 677v-76h-324v76h324zM81 546h379v-99h-268v-122h198v-99h-198v-127h268v-99h-379v546z" />
    <glyph glyph-name="Ebreve.small" horiz-adv-x="514" 
d="M271 577q-55 0 -99 27t-58 88h84q8 -23 28 -36t45 -13t45 13t28 36h84q-12 -61 -56.5 -88t-100.5 -27zM81 546h379v-99h-268v-122h198v-99h-198v-127h268v-99h-379v546z" />
    <glyph glyph-name="Edotaccent.small" horiz-adv-x="514" 
d="M325 683v-88h-109v88h109zM81 546h379v-99h-268v-122h198v-99h-198v-127h268v-99h-379v546z" />
    <glyph glyph-name="Eogonek.small" horiz-adv-x="509" 
d="M411 -200q-62 0 -97 23.5t-35 68.5q0 62 67 108h-265v546h379v-99h-268v-122h198v-99h-198v-127h268v-99h-1q-87 -34 -87 -89q0 -21 15.5 -32.5t40.5 -11.5q16 0 31 3v-66q-21 -4 -48 -4z" />
    <glyph glyph-name="F.small" horiz-adv-x="495" 
d="M81 546h371v-100h-260v-130h191v-99h-191v-217h-111v546z" />
    <glyph glyph-name="G.small" horiz-adv-x="619" 
d="M558 398l-110 -32q-15 40 -50 63.5t-80 23.5q-68 0 -112.5 -50t-44.5 -130q0 -83 46 -132q47 -50 117 -50q56 0 91.5 31t41.5 80h-134v99h253v-36q-2 -126 -70.5 -201.5t-182.5 -75.5q-120 0 -197.5 80t-77.5 205t76 205t191 80q90 0 154 -42.5t89 -117.5z" />
    <glyph glyph-name="Gcircumflex.small" horiz-adv-x="619" 
d="M398 692l92 -106h-102l-73 68l-72 -68h-102l92 106h165zM558 398l-110 -32q-15 40 -50 63.5t-80 23.5q-68 0 -112.5 -50t-44.5 -130q0 -83 46 -132q47 -50 117 -50q56 0 91.5 31t41.5 80h-134v99h253v-36q-2 -126 -70.5 -201.5t-182.5 -75.5q-120 0 -197.5 80t-77.5 205
t76 205t191 80q90 0 154 -42.5t89 -117.5z" />
    <glyph glyph-name="Gbreve.small" horiz-adv-x="619" 
d="M316 577q-55 0 -99 27t-58 88h84q8 -23 28 -36t45 -13t45 13t28 36h84q-12 -61 -56.5 -88t-100.5 -27zM558 398l-110 -32q-15 40 -50 63.5t-80 23.5q-68 0 -112.5 -50t-44.5 -130q0 -83 46 -132q47 -50 117 -50q56 0 91.5 31t41.5 80h-134v99h253v-36
q-2 -126 -70.5 -201.5t-182.5 -75.5q-120 0 -197.5 80t-77.5 205t76 205t191 80q90 0 154 -42.5t89 -117.5z" />
    <glyph glyph-name="Gdotaccent.small" horiz-adv-x="619" 
d="M370 683v-88h-109v88h109zM558 398l-110 -32q-15 40 -50 63.5t-80 23.5q-68 0 -112.5 -50t-44.5 -130q0 -83 46 -132q47 -50 117 -50q56 0 91.5 31t41.5 80h-134v99h253v-36q-2 -126 -70.5 -201.5t-182.5 -75.5q-120 0 -197.5 80t-77.5 205t76 205t191 80q90 0 154 -42.5
t89 -117.5z" />
    <glyph glyph-name="Gcommaaccent.small" horiz-adv-x="619" 
d="M558 398l-110 -32q-15 40 -50 63.5t-80 23.5q-68 0 -112.5 -50t-44.5 -130q0 -83 46 -132q47 -50 117 -50q56 0 91.5 31t41.5 80h-134v99h253v-36q-2 -126 -70.5 -201.5t-182.5 -75.5q-120 0 -197.5 80t-77.5 205t76 205t191 80q90 0 154 -42.5t89 -117.5zM374 -62
l-61 -138h-88l45 138h104z" />
    <glyph glyph-name="H.small" horiz-adv-x="626" 
d="M434 546h111v-546h-111v222h-242v-222h-111v546h111v-222h242v222z" />
    <glyph glyph-name="Hcircumflex.small" horiz-adv-x="626" 
d="M395 692l92 -106h-102l-73 68l-72 -68h-102l92 106h165zM434 546h111v-546h-111v222h-242v-222h-111v546h111v-222h242v222z" />
    <glyph glyph-name="Hbar.small" horiz-adv-x="626" 
d="M607 473v-89h-62v-384h-111v222h-242v-222h-111v384h-62v89h62v73h111v-73h242v73h111v-73h62zM192 384v-60h242v60h-242z" />
    <glyph glyph-name="I.small" horiz-adv-x="273" 
d="M81 546h111v-546h-111v546z" />
    <glyph glyph-name="Igrave.small" horiz-adv-x="273" 
d="M112 692l73 -106h-100l-104 106h131zM81 546h111v-546h-111v546z" />
    <glyph glyph-name="Iacute.small" horiz-adv-x="273" 
d="M288 692l-104 -106h-100l73 106h131zM81 546h111v-546h-111v546z" />
    <glyph glyph-name="Icircumflex.small" horiz-adv-x="273" 
d="M216 692l92 -106h-102l-73 68l-72 -68h-102l92 106h165zM81 546h111v-546h-111v546z" />
    <glyph glyph-name="Itilde.small" horiz-adv-x="273" 
d="M199 586q-29 0 -71 19t-56 19q-29 0 -36 -37h-64q16 105 97 105q30 0 71.5 -19t55.5 -19q29 0 36 38h64q-16 -106 -97 -106zM81 546h111v-546h-111v546z" />
    <glyph glyph-name="Idieresis.small" horiz-adv-x="273" 
d="M80 690v-102h-101v102h101zM289 690v-102h-101v102h101zM81 546h111v-546h-111v546z" />
    <glyph glyph-name="Imacron.small" horiz-adv-x="273" 
d="M296 677v-76h-324v76h324zM81 546h111v-546h-111v546z" />
    <glyph glyph-name="Ibreve.small" horiz-adv-x="273" 
d="M134 577q-55 0 -100 27t-57 88h84q8 -23 28 -36t45 -13t45 13t28 36h84q-12 -61 -56.5 -88t-100.5 -27zM81 546h111v-546h-111v546z" />
    <glyph glyph-name="Idotaccent.small" horiz-adv-x="273" 
d="M189 683v-88h-109v88h109zM81 546h111v-546h-111v546z" />
    <glyph glyph-name="Iogonek.small" horiz-adv-x="273" 
d="M144 -200q-62 0 -97 23.5t-35 68.5q0 64 69 109v545h111v-546q-87 -34 -87 -89q0 -21 15.5 -32.5t40.5 -11.5q16 0 31 3v-66q-21 -4 -48 -4z" />
    <glyph glyph-name="IJ.small" horiz-adv-x="637" 
d="M81 546h111v-546h-111v546zM383 -8q-44 0 -75 12v103q28 -13 54 -13q87 0 87 104v245h-118v103h229v-351q0 -203 -177 -203z" />
    <glyph glyph-name="J.small" horiz-adv-x="353" 
d="M106 -8q-44 0 -75 12v103q28 -13 54 -13q87 0 87 104v245h-118v103h229v-351q0 -203 -177 -203z" />
    <glyph glyph-name="Jcircumflex.small" horiz-adv-x="353" 
d="M249 692l92 -106h-102l-73 68l-72 -68h-102l92 106h165zM106 -8q-44 0 -75 12v103q28 -13 54 -13q87 0 87 104v245h-118v103h229v-351q0 -203 -177 -203z" />
    <glyph glyph-name="K.small" horiz-adv-x="550" 
d="M192 256v-256h-111v546h111v-242l202 242h130l-217 -254l232 -292h-143z" />
    <glyph glyph-name="Kcommaaccent.small" horiz-adv-x="550" 
d="M192 256v-256h-111v546h111v-242l202 242h130l-217 -254l232 -292h-143zM333 -62l-61 -138h-88l45 138h104z" />
    <glyph glyph-name="L.small" horiz-adv-x="441" 
d="M81 0v546h111v-444h227v-102h-338z" />
    <glyph glyph-name="Lacute.small" horiz-adv-x="441" 
d="M288 692l-104 -106h-100l73 106h131zM81 0v546h111v-444h227v-102h-338z" />
    <glyph glyph-name="Lcaron.small" horiz-adv-x="441" 
d="M81 0v546h111v-444h227v-102h-338zM394 546l-70 -208h-81l46 208h105z" />
    <glyph glyph-name="Lcommaaccent.small" horiz-adv-x="441" 
d="M81 0v546h111v-444h227v-102h-338zM306 -62l-61 -138h-88l45 138h104z" />
    <glyph glyph-name="Lslash.small" horiz-adv-x="445" 
d="M337 368v-92l-141 -40v-134h227v-102h-338v204l-70 -20v92l70 20v250h111v-218z" />
    <glyph glyph-name="Ldot.small" horiz-adv-x="441" 
d="M81 0v546h111v-444h227v-102h-338zM414 340v-105h-109v105h109z" />
    <glyph glyph-name="M.small" horiz-adv-x="772" 
d="M691 546v-546h-111v404h-3l-144 -404h-94l-144 404h-3v-404h-111v546h173l134 -375h3l136 375h164z" />
    <glyph glyph-name="N.small" horiz-adv-x="639" 
d="M558 546v-549h-110l-256 362v-359h-111v549h110l256 -362v359h111z" />
    <glyph glyph-name="Nacute.small" horiz-adv-x="639" 
d="M478 692l-104 -106h-100l73 106h131zM558 546v-549h-110l-256 362v-359h-111v549h110l256 -362v359h111z" />
    <glyph glyph-name="Ncaron.small" horiz-adv-x="639" 
d="M325 624l72 68h102l-92 -106h-165l-92 106h102zM558 546v-549h-110l-256 362v-359h-111v549h110l256 -362v359h111z" />
    <glyph glyph-name="Ntilde.small" horiz-adv-x="639" 
d="M390 586q-29 0 -71 19t-56 19q-29 0 -36 -37h-64q16 105 97 105q30 0 71.5 -19t55.5 -19q29 0 36 38h64q-16 -106 -97 -106zM558 546v-549h-110l-256 362v-359h-111v549h110l256 -362v359h111z" />
    <glyph glyph-name="Ncommaaccent.small" horiz-adv-x="639" 
d="M558 546v-549h-110l-256 362v-359h-111v549h110l256 -362v359h111zM384 -62l-61 -138h-88l45 138h104z" />
    <glyph glyph-name="Eng.small" horiz-adv-x="635" 
d="M374 -156q-43 0 -72 12v103q28 -13 58 -13q35 0 57 15.5t26 43.5l-251 348v-353h-111v549h105l257 -356v353h111v-499q0 -203 -180 -203z" />
    <glyph glyph-name="O.small" horiz-adv-x="654" 
d="M606 273q0 -123 -79.5 -204t-199.5 -81t-199.5 81t-79.5 204t79.5 204t199.5 81t199.5 -81t79.5 -204zM492 273q0 80 -47 130t-118 50q-70 0 -117.5 -50t-47.5 -130q0 -79 47.5 -129.5t117.5 -50.5q71 0 118 50.5t47 129.5z" />
    <glyph glyph-name="Ograve.small" horiz-adv-x="654" 
d="M306 692l73 -106h-100l-104 106h131zM606 273q0 -123 -79.5 -204t-199.5 -81t-199.5 81t-79.5 204t79.5 204t199.5 81t199.5 -81t79.5 -204zM492 273q0 80 -47 130t-118 50q-70 0 -117.5 -50t-47.5 -130q0 -79 47.5 -129.5t117.5 -50.5q71 0 118 50.5t47 129.5z" />
    <glyph glyph-name="Oacute.small" horiz-adv-x="654" 
d="M482 692l-104 -106h-100l73 106h131zM606 273q0 -123 -79.5 -204t-199.5 -81t-199.5 81t-79.5 204t79.5 204t199.5 81t199.5 -81t79.5 -204zM492 273q0 80 -47 130t-118 50q-70 0 -117.5 -50t-47.5 -130q0 -79 47.5 -129.5t117.5 -50.5q71 0 118 50.5t47 129.5z" />
    <glyph glyph-name="Ocircumflex.small" horiz-adv-x="654" 
d="M411 692l92 -106h-102l-73 68l-72 -68h-102l92 106h165zM606 273q0 -123 -79.5 -204t-199.5 -81t-199.5 81t-79.5 204t79.5 204t199.5 81t199.5 -81t79.5 -204zM492 273q0 80 -47 130t-118 50q-70 0 -117.5 -50t-47.5 -130q0 -79 47.5 -129.5t117.5 -50.5q71 0 118 50.5
t47 129.5z" />
    <glyph glyph-name="Otilde.small" horiz-adv-x="654" 
d="M394 586q-29 0 -71 19t-56 19q-29 0 -36 -37h-64q16 105 97 105q30 0 71.5 -19t55.5 -19q29 0 36 38h64q-16 -106 -97 -106zM606 273q0 -123 -79.5 -204t-199.5 -81t-199.5 81t-79.5 204t79.5 204t199.5 81t199.5 -81t79.5 -204zM492 273q0 80 -47 130t-118 50
q-70 0 -117.5 -50t-47.5 -130q0 -79 47.5 -129.5t117.5 -50.5q71 0 118 50.5t47 129.5z" />
    <glyph glyph-name="Odieresis.small" horiz-adv-x="654" 
d="M275 690v-102h-101v102h101zM484 690v-102h-101v102h101zM606 273q0 -123 -79.5 -204t-199.5 -81t-199.5 81t-79.5 204t79.5 204t199.5 81t199.5 -81t79.5 -204zM492 273q0 80 -47 130t-118 50q-70 0 -117.5 -50t-47.5 -130q0 -79 47.5 -129.5t117.5 -50.5q71 0 118 50.5
t47 129.5z" />
    <glyph glyph-name="Omacron.small" horiz-adv-x="654" 
d="M491 677v-76h-324v76h324zM606 273q0 -123 -79.5 -204t-199.5 -81t-199.5 81t-79.5 204t79.5 204t199.5 81t199.5 -81t79.5 -204zM492 273q0 80 -47 130t-118 50q-70 0 -117.5 -50t-47.5 -130q0 -79 47.5 -129.5t117.5 -50.5q71 0 118 50.5t47 129.5z" />
    <glyph glyph-name="Obreve.small" horiz-adv-x="654" 
d="M329 577q-55 0 -99 27t-58 88h84q8 -23 28 -36t45 -13t45 13t28 36h84q-12 -61 -56.5 -88t-100.5 -27zM606 273q0 -123 -79.5 -204t-199.5 -81t-199.5 81t-79.5 204t79.5 204t199.5 81t199.5 -81t79.5 -204zM492 273q0 80 -47 130t-118 50q-70 0 -117.5 -50t-47.5 -130
q0 -79 47.5 -129.5t117.5 -50.5q71 0 118 50.5t47 129.5z" />
    <glyph glyph-name="Ohungarumlaut.small" horiz-adv-x="654" 
d="M388 692l-104 -106h-100l73 106h131zM573 692l-104 -106h-100l73 106h131zM606 273q0 -123 -79.5 -204t-199.5 -81t-199.5 81t-79.5 204t79.5 204t199.5 81t199.5 -81t79.5 -204zM492 273q0 80 -47 130t-118 50q-70 0 -117.5 -50t-47.5 -130q0 -79 47.5 -129.5
t117.5 -50.5q71 0 118 50.5t47 129.5z" />
    <glyph glyph-name="Oslash.small" horiz-adv-x="654" 
d="M191 21l-26 -33h-117l68 93q-68 77 -68 192q0 123 79.5 204t199.5 81q75 0 134 -32l23 32h122l-68 -94q68 -77 68 -191q0 -123 -79.5 -204t-199.5 -81q-73 0 -136 33zM162 273q0 -59 27 -103l203 270q-33 13 -65 13q-70 0 -117.5 -50t-47.5 -130zM492 273q0 59 -27 103
l-202 -270q26 -13 64 -13q71 0 118 50.5t47 129.5z" />
    <glyph glyph-name="Oslashacute.small" horiz-adv-x="654" 
d="M477 692l-104 -106h-100l73 106h131zM191 21l-26 -33h-117l68 93q-68 77 -68 192q0 123 79.5 204t199.5 81q75 0 134 -32l23 32h122l-68 -94q68 -77 68 -191q0 -123 -79.5 -204t-199.5 -81q-73 0 -136 33zM162 273q0 -59 27 -103l203 270q-33 13 -65 13q-70 0 -117.5 -50
t-47.5 -130zM492 273q0 59 -27 103l-202 -270q26 -13 64 -13q71 0 118 50.5t47 129.5z" />
    <glyph glyph-name="OE.small" horiz-adv-x="845" 
d="M57 273q0 133 82.5 203t232.5 70h419v-99h-268v-122h198v-99h-198v-127h268v-99h-435q-136 0 -217.5 73t-81.5 200zM172 273q0 -80 48 -125t131 -45h61v341h-61q-83 0 -131 -45t-48 -126z" />
    <glyph glyph-name="P.small" horiz-adv-x="513" 
d="M293 192h-101v-192h-111v546h203q82 0 138 -47t56 -130q0 -76 -52.5 -126.5t-132.5 -50.5zM364 367q0 35 -23.5 57.5t-73.5 22.5h-75v-156h83q43 0 66 22t23 54z" />
    <glyph glyph-name="Q.small" horiz-adv-x="654" 
d="M546 -53l-103 -10l-35 62q-42 -11 -81 -11q-120 0 -199.5 81t-79.5 204t79.5 204t199.5 81t199.5 -81t79.5 -204q0 -74 -29.5 -134t-83.5 -99zM492 273q0 80 -47 130t-118 50q-70 0 -117.5 -50t-47.5 -130q0 -79 47.5 -129.5t117.5 -50.5q8 0 26 2l-52 91l102 10l35 -60
q54 52 54 137z" />
    <glyph glyph-name="R.small" horiz-adv-x="532" 
d="M500 0h-128l-118 210h-62v-210h-111v546h199q81 0 135.5 -41.5t54.5 -129.5q0 -54 -27.5 -93t-76.5 -58zM355 375q0 31 -21.5 51.5t-69.5 20.5h-72v-144h77q43 0 64.5 21t21.5 51z" />
    <glyph glyph-name="Racute.small" horiz-adv-x="532" 
d="M413 689l-104 -106h-100l73 106h131zM500 0h-128l-118 210h-62v-210h-111v546h199q81 0 135.5 -41.5t54.5 -129.5q0 -54 -27.5 -93t-76.5 -58zM355 375q0 31 -21.5 51.5t-69.5 20.5h-72v-144h77q43 0 64.5 21t21.5 51z" />
    <glyph glyph-name="Rcaron.small" horiz-adv-x="532" 
d="M260 621l72 68h102l-92 -106h-165l-92 106h102zM500 0h-128l-118 210h-62v-210h-111v546h199q81 0 135.5 -41.5t54.5 -129.5q0 -54 -27.5 -93t-76.5 -58zM355 375q0 31 -21.5 51.5t-69.5 20.5h-72v-144h77q43 0 64.5 21t21.5 51z" />
    <glyph glyph-name="Rcommaaccent.small" horiz-adv-x="532" 
d="M500 0h-128l-118 210h-62v-210h-111v546h199q81 0 135.5 -41.5t54.5 -129.5q0 -54 -27.5 -93t-76.5 -58zM355 375q0 31 -21.5 51.5t-69.5 20.5h-72v-144h77q43 0 64.5 21t21.5 51zM330 -62l-61 -138h-88l45 138h104z" />
    <glyph glyph-name="S.small" horiz-adv-x="492" 
d="M252 -12q-81 0 -137.5 38.5t-68.5 107.5l108 20q6 -34 33.5 -53t65.5 -19q37 0 59.5 18.5t22.5 50.5q0 31 -28 48t-67.5 26t-79 22.5t-67.5 49t-28 94.5q0 76 53.5 121.5t137.5 45.5q77 0 127.5 -38.5t66.5 -107.5l-111 -21q-14 73 -87 73q-33 0 -53 -16t-20 -45
q0 -31 28 -48t67.5 -26t79 -22t67.5 -48.5t28 -94.5q0 -79 -55 -127.5t-142 -48.5z" />
    <glyph glyph-name="Sacute.small" horiz-adv-x="492" 
d="M398 692l-104 -106h-100l73 106h131zM252 -12q-81 0 -137.5 38.5t-68.5 107.5l108 20q6 -34 33.5 -53t65.5 -19q37 0 59.5 18.5t22.5 50.5q0 31 -28 48t-67.5 26t-79 22.5t-67.5 49t-28 94.5q0 76 53.5 121.5t137.5 45.5q77 0 127.5 -38.5t66.5 -107.5l-111 -21
q-14 73 -87 73q-33 0 -53 -16t-20 -45q0 -31 28 -48t67.5 -26t79 -22t67.5 -48.5t28 -94.5q0 -79 -55 -127.5t-142 -48.5z" />
    <glyph glyph-name="Scircumflex.small" horiz-adv-x="492" 
d="M327 692l92 -106h-102l-73 68l-72 -68h-102l92 106h165zM252 -12q-81 0 -137.5 38.5t-68.5 107.5l108 20q6 -34 33.5 -53t65.5 -19q37 0 59.5 18.5t22.5 50.5q0 31 -28 48t-67.5 26t-79 22.5t-67.5 49t-28 94.5q0 76 53.5 121.5t137.5 45.5q77 0 127.5 -38.5t66.5 -107.5
l-111 -21q-14 73 -87 73q-33 0 -53 -16t-20 -45q0 -31 28 -48t67.5 -26t79 -22t67.5 -48.5t28 -94.5q0 -79 -55 -127.5t-142 -48.5z" />
    <glyph glyph-name="Scaron.small" horiz-adv-x="492" 
d="M245 624l72 68h102l-92 -106h-165l-92 106h102zM252 -12q-81 0 -137.5 38.5t-68.5 107.5l108 20q6 -34 33.5 -53t65.5 -19q37 0 59.5 18.5t22.5 50.5q0 31 -28 48t-67.5 26t-79 22.5t-67.5 49t-28 94.5q0 76 53.5 121.5t137.5 45.5q77 0 127.5 -38.5t66.5 -107.5
l-111 -21q-14 73 -87 73q-33 0 -53 -16t-20 -45q0 -31 28 -48t67.5 -26t79 -22t67.5 -48.5t28 -94.5q0 -79 -55 -127.5t-142 -48.5z" />
    <glyph glyph-name="Scedilla.small" horiz-adv-x="492" 
d="M296 -8l-42 -192l-95 12l42 180q-63 12 -104.5 48t-50.5 94l108 20q6 -34 33.5 -53t65.5 -19q37 0 59.5 18.5t22.5 50.5q0 31 -28 48t-67.5 26t-79 22.5t-67.5 49t-28 94.5q0 76 53.5 121.5t137.5 45.5q77 0 127.5 -38.5t66.5 -107.5l-111 -21q-14 73 -87 73
q-33 0 -53 -16t-20 -45q0 -31 28 -48t67.5 -26t79 -22t67.5 -48.5t28 -94.5q0 -68 -41.5 -114.5t-111.5 -57.5z" />
    <glyph glyph-name="Scommaaccent.small" horiz-adv-x="492" 
d="M252 -12q-81 0 -137.5 38.5t-68.5 107.5l108 20q6 -34 33.5 -53t65.5 -19q37 0 59.5 18.5t22.5 50.5q0 31 -28 48t-67.5 26t-79 22.5t-67.5 49t-28 94.5q0 76 53.5 121.5t137.5 45.5q77 0 127.5 -38.5t66.5 -107.5l-111 -21q-14 73 -87 73q-33 0 -53 -16t-20 -45
q0 -31 28 -48t67.5 -26t79 -22t67.5 -48.5t28 -94.5q0 -79 -55 -127.5t-142 -48.5zM303 -62l-61 -138h-88l45 138h104z" />
    <glyph glyph-name="germandbls.small" horiz-adv-x="983" 
d="M744 -12q-87 0 -143.5 43.5t-65.5 122.5h111q6 -35 34 -54t65 -19t59.5 19t22.5 51q0 31 -28.5 48t-69 26t-81 22.5t-69 49t-28.5 94.5q0 74 53 120.5t135 46.5t134.5 -45.5t62.5 -121.5h-111q-14 74 -87 74q-33 0 -53 -16.5t-20 -45.5q0 -27 20.5 -43.5t51 -23
t66.5 -17.5t66.5 -25t51 -47.5t20.5 -82.5q0 -80 -54.5 -128t-142.5 -48zM252 -12q-81 0 -137.5 38.5t-68.5 107.5l108 20q6 -34 33.5 -53t65.5 -19q37 0 59.5 18.5t22.5 50.5q0 31 -28 48t-67.5 26t-79 22.5t-67.5 49t-28 94.5q0 76 53.5 121.5t137.5 45.5
q77 0 127.5 -38.5t66.5 -107.5l-111 -21q-14 73 -87 73q-33 0 -53 -16t-20 -45q0 -31 28 -48t67.5 -26t79 -22t67.5 -48.5t28 -94.5q0 -79 -55 -127.5t-142 -48.5z" />
    <glyph glyph-name="T.small" horiz-adv-x="476" 
d="M26 546h424v-103h-156v-443h-111v443h-157v103z" />
    <glyph glyph-name="Tcaron.small" horiz-adv-x="476" 
d="M237 624l72 68h102l-92 -106h-165l-92 106h102zM26 546h424v-103h-156v-443h-111v443h-157v103z" />
    <glyph glyph-name="Tcommaaccent.small" horiz-adv-x="476" 
d="M26 546h424v-103h-156v-443h-111v443h-157v103zM288 -62l-61 -138h-88l45 138h104z" />
    <glyph glyph-name="Tbar.small" horiz-adv-x="476" 
d="M418 286v-88h-124v-198h-111v198h-125v88h125v157h-157v103h424v-103h-156v-157h124z" />
    <glyph glyph-name="Thorn.small" horiz-adv-x="513" 
d="M81 546h111v-96h92q82 0 138 -47t56 -130q0 -76 -52.5 -126.5t-132.5 -50.5h-101v-96h-111v546zM267 351h-75v-157h83q43 0 66 22.5t23 54.5q0 34 -23.5 57t-73.5 23z" />
    <glyph glyph-name="U.small" 
d="M295 -12q-107 0 -166.5 62.5t-59.5 180.5v315h111v-314q0 -65 30 -102t85 -37q56 0 86.5 37t30.5 101v315h110v-314q0 -119 -59 -181.5t-168 -62.5z" />
    <glyph glyph-name="Ugrave.small" 
d="M274 692l73 -106h-100l-104 106h131zM295 -12q-107 0 -166.5 62.5t-59.5 180.5v315h111v-314q0 -65 30 -102t85 -37q56 0 86.5 37t30.5 101v315h110v-314q0 -119 -59 -181.5t-168 -62.5z" />
    <glyph glyph-name="Uacute.small" 
d="M450 692l-104 -106h-100l73 106h131zM295 -12q-107 0 -166.5 62.5t-59.5 180.5v315h111v-314q0 -65 30 -102t85 -37q56 0 86.5 37t30.5 101v315h110v-314q0 -119 -59 -181.5t-168 -62.5z" />
    <glyph glyph-name="Ucircumflex.small" 
d="M379 692l92 -106h-102l-73 68l-72 -68h-102l92 106h165zM295 -12q-107 0 -166.5 62.5t-59.5 180.5v315h111v-314q0 -65 30 -102t85 -37q56 0 86.5 37t30.5 101v315h110v-314q0 -119 -59 -181.5t-168 -62.5z" />
    <glyph glyph-name="Utilde.small" 
d="M362 586q-29 0 -71 19t-56 19q-29 0 -36 -37h-64q16 105 97 105q30 0 71.5 -19t55.5 -19q29 0 36 38h64q-16 -106 -97 -106zM295 -12q-107 0 -166.5 62.5t-59.5 180.5v315h111v-314q0 -65 30 -102t85 -37q56 0 86.5 37t30.5 101v315h110v-314q0 -119 -59 -181.5
t-168 -62.5z" />
    <glyph glyph-name="Udieresis.small" 
d="M243 690v-102h-101v102h101zM452 690v-102h-101v102h101zM295 -12q-107 0 -166.5 62.5t-59.5 180.5v315h111v-314q0 -65 30 -102t85 -37q56 0 86.5 37t30.5 101v315h110v-314q0 -119 -59 -181.5t-168 -62.5z" />
    <glyph glyph-name="Umacron.small" 
d="M459 677v-76h-324v76h324zM295 -12q-107 0 -166.5 62.5t-59.5 180.5v315h111v-314q0 -65 30 -102t85 -37q56 0 86.5 37t30.5 101v315h110v-314q0 -119 -59 -181.5t-168 -62.5z" />
    <glyph glyph-name="Ubreve.small" 
d="M297 577q-55 0 -99 27t-58 88h84q8 -23 28 -36t45 -13t45 13t28 36h84q-12 -61 -56.5 -88t-100.5 -27zM295 -12q-107 0 -166.5 62.5t-59.5 180.5v315h111v-314q0 -65 30 -102t85 -37q56 0 86.5 37t30.5 101v315h110v-314q0 -119 -59 -181.5t-168 -62.5z" />
    <glyph glyph-name="Uring.small" 
d="M297 581q-49 0 -82 29t-33 76t32.5 75.5t82.5 28.5t82.5 -28.5t32.5 -75.5t-33 -76t-82 -29zM297 636q23 0 37.5 14t14.5 36q0 21 -14.5 35t-37.5 14t-37.5 -14t-14.5 -35q0 -22 14.5 -36t37.5 -14zM295 -12q-107 0 -166.5 62.5t-59.5 180.5v315h111v-314q0 -65 30 -102
t85 -37q56 0 86.5 37t30.5 101v315h110v-314q0 -119 -59 -181.5t-168 -62.5z" />
    <glyph glyph-name="Uhungarumlaut.small" 
d="M356 692l-104 -106h-100l73 106h131zM541 692l-104 -106h-100l73 106h131zM295 -12q-107 0 -166.5 62.5t-59.5 180.5v315h111v-314q0 -65 30 -102t85 -37q56 0 86.5 37t30.5 101v315h110v-314q0 -119 -59 -181.5t-168 -62.5z" />
    <glyph glyph-name="Uogonek.small" 
d="M345 -200q-64 0 -98.5 24t-34.5 68q0 61 52 95v5h-10q-88 11 -136.5 72t-48.5 167v315h111v-314q0 -65 30 -102t85 -37q56 0 86.5 37t30.5 101v315h110v-314q0 -176 -141 -234q-76 -30 -76 -83q0 -48 57 -48q15 0 30 3v-66q-21 -4 -47 -4z" />
    <glyph glyph-name="V.small" horiz-adv-x="554" 
d="M537 546l-201 -549h-119l-200 549h121l139 -404h3l140 404h117z" />
    <glyph glyph-name="W.small" horiz-adv-x="792" 
d="M162 -3l-142 549h121l89 -363h4l109 363h114l109 -363h5l87 363h115l-142 -549h-118l-115 380h-3l-115 -380h-118z" />
    <glyph glyph-name="Wgrave.small" horiz-adv-x="792" 
d="M374 692l73 -106h-100l-104 106h131zM162 -3l-142 549h121l89 -363h4l109 363h114l109 -363h5l87 363h115l-142 -549h-118l-115 380h-3l-115 -380h-118z" />
    <glyph glyph-name="Wacute.small" horiz-adv-x="792" 
d="M550 692l-104 -106h-100l73 106h131zM162 -3l-142 549h121l89 -363h4l109 363h114l109 -363h5l87 363h115l-142 -549h-118l-115 380h-3l-115 -380h-118z" />
    <glyph glyph-name="Wcircumflex.small" horiz-adv-x="792" 
d="M478 692l92 -106h-102l-73 68l-72 -68h-102l92 106h165zM162 -3l-142 549h121l89 -363h4l109 363h114l109 -363h5l87 363h115l-142 -549h-118l-115 380h-3l-115 -380h-118z" />
    <glyph glyph-name="Wdieresis.small" horiz-adv-x="792" 
d="M342 690v-102h-101v102h101zM551 690v-102h-101v102h101zM162 -3l-142 549h121l89 -363h4l109 363h114l109 -363h5l87 363h115l-142 -549h-118l-115 380h-3l-115 -380h-118z" />
    <glyph glyph-name="X.small" horiz-adv-x="581" 
d="M358 285l185 -285h-128l-126 195l-124 -195h-128l185 285l-170 261h129l111 -174l111 174h127z" />
    <glyph glyph-name="Y.small" horiz-adv-x="513" 
d="M313 224v-224h-111v224l-190 322h130l118 -213h3l119 213h120z" />
    <glyph glyph-name="Ygrave.small" horiz-adv-x="513" 
d="M232 692l73 -106h-100l-104 106h131zM313 224v-224h-111v224l-190 322h130l118 -213h3l119 213h120z" />
    <glyph glyph-name="Yacute.small" horiz-adv-x="513" 
d="M408 692l-104 -106h-100l73 106h131zM313 224v-224h-111v224l-190 322h130l118 -213h3l119 213h120z" />
    <glyph glyph-name="Ycircumflex.small" horiz-adv-x="513" 
d="M337 692l92 -106h-102l-73 68l-72 -68h-102l92 106h165zM313 224v-224h-111v224l-190 322h130l118 -213h3l119 213h120z" />
    <glyph glyph-name="Ydieresis.small" horiz-adv-x="513" 
d="M201 690v-102h-101v102h101zM410 690v-102h-101v102h101zM313 224v-224h-111v224l-190 322h130l118 -213h3l119 213h120z" />
    <glyph glyph-name="Z.small" horiz-adv-x="529" 
d="M474 104v-104h-413v98l267 345h-252v103h393v-97l-267 -345h272z" />
    <glyph glyph-name="Zacute.small" horiz-adv-x="529" 
d="M425 692l-104 -106h-100l73 106h131zM474 104v-104h-413v98l267 345h-252v103h393v-97l-267 -345h272z" />
    <glyph glyph-name="Zcaron.small" horiz-adv-x="529" 
d="M272 624l72 68h102l-92 -106h-165l-92 106h102zM474 104v-104h-413v98l267 345h-252v103h393v-97l-267 -345h272z" />
    <glyph glyph-name="Zdotaccent.small" horiz-adv-x="529" 
d="M326 683v-88h-109v88h109zM474 104v-104h-413v98l267 345h-252v103h393v-97l-267 -345h272z" />
    <glyph glyph-name="a.superior" horiz-adv-x="396" 
d="M351 572v-222h-89v34h-3q-28 -44 -102 -44q-53 0 -87 30.5t-34 78.5q0 54 40 85.5t109 31.5q47 0 73 -12v24q0 27 -15.5 42.5t-44.5 15.5q-44 0 -57 -33l-90 11q16 47 54.5 72t95.5 25q70 0 110 -36.5t40 -102.5zM128 455q0 -22 15.5 -34t42.5 -12q30 0 51.5 17.5
t21.5 41.5v24q-23 12 -62 12q-69 0 -69 -49z" />
    <glyph glyph-name="b.superior" horiz-adv-x="438" 
d="M415 525q0 -82 -46.5 -134t-117.5 -52q-76 0 -109 51h-3v-40h-85v499h93v-186q12 21 40 34.5t64 13.5q69 0 116.5 -52t47.5 -134zM321 525q0 45 -24 74.5t-65 29.5t-64.5 -29t-23.5 -75t23.5 -75t64.5 -29t65 29.5t24 74.5z" />
    <glyph glyph-name="c.superior" horiz-adv-x="387" 
d="M201 711q66 0 109.5 -30.5t56.5 -85.5l-91 -19q-16 54 -75 54q-40 0 -62.5 -29t-22.5 -76t22.5 -76t62.5 -29q58 0 73 54l91 -21q-14 -53 -57.5 -83.5t-106.5 -30.5q-76 0 -127 51.5t-51 134.5q0 84 51 135t127 51z" />
    <glyph glyph-name="d.superior" horiz-adv-x="438" 
d="M23 525q0 82 47.5 134t119.5 52q71 0 100 -46v184h94v-499h-86v42h-3q-15 -26 -45.5 -39.5t-63.5 -13.5q-70 0 -116.5 51.5t-46.5 134.5zM116 525q0 -45 24 -74.5t65 -29.5t65 29t24 75t-24 75t-65 29t-65 -29.5t-24 -74.5z" />
    <glyph glyph-name="e.superior" horiz-adv-x="397" 
d="M282 457l78 -25q-39 -93 -151 -93q-84 0 -135 52t-51 134t50 134t126 52q77 0 127 -51t50 -139v-22h-258q6 -40 29.5 -62t61.5 -22q51 0 73 42zM201 640q-68 0 -82 -77h160q-2 37 -24 57t-54 20z" />
    <glyph glyph-name="f.superior" horiz-adv-x="233" 
d="M65 620h-59v80h59v29q0 63 33.5 97.5t95.5 34.5q31 0 49 -6v-79q-12 4 -30 4q-54 0 -54 -60v-20h84v-80h-84v-270h-94v270z" />
    <glyph glyph-name="g.superior" horiz-adv-x="430" 
d="M28 537q0 79 47 126.5t112 47.5q64 0 96 -41h3v30h91v-309q0 -88 -44.5 -136t-126.5 -48q-59 0 -104 27.5t-59 71.5l89 17q6 -16 25.5 -28t47.5 -12q79 0 79 87v37q-26 -45 -100 -45q-64 0 -110 47.5t-46 127.5zM122 537q0 -44 23.5 -69t58.5 -25q38 0 61 25.5t23 68.5
q0 42 -23.5 67.5t-60.5 25.5q-35 0 -58.5 -24.5t-23.5 -68.5z" />
    <glyph glyph-name="h.superior" horiz-adv-x="417" 
d="M53 350v499h94v-180q35 42 98 42q57 0 91.5 -36.5t34.5 -100.5v-224h-94v206q0 73 -57 73q-31 0 -52 -21t-21 -56v-202h-94z" />
    <glyph glyph-name="i.superior" horiz-adv-x="200" 
d="M147 849v-89h-94v89h94zM147 700v-350h-94v350h94z" />
    <glyph glyph-name="j.superior" horiz-adv-x="190" 
d="M137 849v-89h-94v89h94zM8 210q-2 0 -35 3v81q4 -1 17 -1q30 0 41.5 16.5t11.5 51.5v339h94v-348q0 -142 -129 -142z" />
    <glyph glyph-name="k.superior" horiz-adv-x="386" 
d="M147 513v-163h-94v499h94v-295l123 146h110l-139 -158l152 -192h-120z" />
    <glyph glyph-name="l.superior" horiz-adv-x="200" 
d="M53 350v499h94v-499h-94z" />
    <glyph glyph-name="m.superior" horiz-adv-x="629" 
d="M582 579v-229h-93v211q0 68 -56 68q-30 0 -49 -21.5t-19 -54.5v-203h-94v211q0 68 -56 68q-29 0 -48.5 -21.5t-19.5 -54.5v-203h-94v350h86v-37h3q31 48 102 48q78 0 104 -58q14 26 44 42t67 16q57 0 90 -35t33 -97z" />
    <glyph glyph-name="n.superior" horiz-adv-x="417" 
d="M371 574v-224h-94v206q0 73 -57 73q-31 0 -52 -21t-21 -56v-202h-94v350h86v-37h3q35 48 104 48q58 0 91.5 -36t33.5 -101z" />
    <glyph glyph-name="o.superior" horiz-adv-x="415" 
d="M23 525q0 86 53 136t132 50q78 0 131 -50t53 -136q0 -84 -53.5 -135t-130.5 -51q-79 0 -132 50.5t-53 135.5zM116 525q0 -47 26 -76t66 -29t65 28.5t25 76.5q0 47 -25 76t-65 29t-66 -29t-26 -76z" />
    <glyph glyph-name="p.superior" horiz-adv-x="438" 
d="M415 525q0 -82 -48 -134t-119 -52q-70 0 -101 46v-181h-93v496h85v-42h3q33 53 109 53q70 0 117 -52t47 -134zM321 525q0 45 -24 74.5t-65 29.5t-64.5 -29t-23.5 -75t23.5 -75t64.5 -29t65 29.5t24 74.5z" />
    <glyph glyph-name="q.superior" horiz-adv-x="438" 
d="M23 525q0 82 46.5 134t116.5 52q79 0 109 -51h3v40h86v-496h-94v183q-31 -48 -103 -48q-69 0 -116.5 52.5t-47.5 133.5zM116 525q0 -45 24 -74.5t65 -29.5t65 29t24 75t-24 75t-65 29t-65 -29.5t-24 -74.5z" />
    <glyph glyph-name="r.superior" horiz-adv-x="260" 
d="M53 350v350h86v-51h3q25 57 91 57q19 0 27 -5v-90q-12 5 -25 5q-88 0 -88 -109v-157h-94z" />
    <glyph glyph-name="s.superior" horiz-adv-x="339" 
d="M173 339q-57 0 -95.5 26t-48.5 71l85 13q12 -41 62 -41q23 0 35.5 11.5t12.5 30.5t-19 27.5t-46.5 13t-55 12t-46.5 31t-19 63.5q0 49 37 81.5t102 32.5q56 0 94 -26t45 -68l-87 -14q-9 38 -54 38q-21 0 -32.5 -10t-11.5 -25q0 -19 19 -27.5t46.5 -13t55 -12t46.5 -31
t19 -63.5q0 -56 -40.5 -88t-103.5 -32z" />
    <glyph glyph-name="t.superior" horiz-adv-x="248" 
d="M183 342q-124 0 -124 125v153h-59v80h59v76l94 17v-93h90v-80h-90v-138q0 -33 12.5 -47.5t41.5 -14.5q16 0 32 7l9 -74q-29 -11 -65 -11z" />
    <glyph glyph-name="u.superior" horiz-adv-x="416" 
d="M363 700v-350h-85v37h-3q-35 -48 -105 -48q-58 0 -91 35.5t-33 100.5v225h94v-206q0 -73 57 -73q31 0 52 21.5t21 55.5v202h93z" />
    <glyph glyph-name="v.superior" horiz-adv-x="370" 
d="M365 700l-137 -351h-86l-137 351h101l82 -235h3l82 235h92z" />
    <glyph glyph-name="w.superior" horiz-adv-x="546" 
d="M543 700l-107 -351h-91l-71 231l-71 -231h-94l-106 351h98l62 -224h3l69 224h86l68 -223h2l62 223h90z" />
    <glyph glyph-name="x.superior" horiz-adv-x="352" 
d="M234 531l120 -181h-106l-74 118l-74 -118h-103l120 179l-112 171h105l70 -109l68 109h102z" />
    <glyph glyph-name="y.superior" horiz-adv-x="369" 
d="M364 700l-194 -493h-91l63 157l-141 336h102l89 -227l81 227h91z" />
    <glyph glyph-name="z.superior" horiz-adv-x="342" 
d="M46 700h270v-72l-171 -201h179v-77h-289v71l170 201h-159v78z" />
    <glyph glyph-name="grave.cap" horiz-adv-x="500" 
d="M272 846l73 -106h-100l-104 106h131z" />
    <glyph glyph-name="acute.cap" horiz-adv-x="500" 
d="M359 846l-104 -106h-100l73 106h131z" />
    <glyph glyph-name="circumflex.cap" horiz-adv-x="500" 
d="M332 846l92 -106h-102l-73 68l-72 -68h-102l92 106h165z" />
    <glyph glyph-name="caron.cap" horiz-adv-x="500" 
d="M250 778l72 68h102l-92 -106h-165l-92 106h102z" />
    <glyph glyph-name="caronSlovak" horiz-adv-x="500" 
d="M325 700l-70 -208h-81l46 208h105z" />
    <glyph glyph-name="tilde.cap" horiz-adv-x="500" 
d="M314 740q-29 0 -71 19t-56 19q-29 0 -36 -37h-64q16 105 97 105q30 0 71.5 -19t55.5 -19q29 0 36 38h64q-16 -106 -97 -106z" />
    <glyph glyph-name="dieresis.cap" horiz-adv-x="500" 
d="M196 844v-102h-101v102h101zM405 844v-102h-101v102h101z" />
    <glyph glyph-name="macron.cap" horiz-adv-x="500" 
d="M412 831v-76h-324v76h324z" />
    <glyph glyph-name="breve.cap" horiz-adv-x="500" 
d="M250 731q-55 0 -99 27t-58 88h84q8 -23 28 -36t45 -13t45 13t28 36h84q-12 -61 -56.5 -88t-100.5 -27z" />
    <glyph glyph-name="ring.cap" horiz-adv-x="500" 
d="M250 735q-49 0 -82 29t-33 76t32.5 75.5t82.5 28.5t82.5 -28.5t32.5 -75.5t-33 -76t-82 -29zM250 790q24 0 38 14t14 36q0 21 -14.5 35t-37.5 14t-37.5 -14t-14.5 -35q0 -22 14 -36t38 -14z" />
    <glyph glyph-name="hungarumlaut.cap" horiz-adv-x="500" 
d="M266 846l-104 -106h-100l73 106h131zM451 846l-104 -106h-100l73 106h131z" />
    <glyph glyph-name="dotaccent.cap" horiz-adv-x="500" 
d="M304 837v-88h-109v88h109z" />
    <glyph glyph-name="commaaccent.alt" horiz-adv-x="500" 
d="M175 562l61 138h88l-45 -138h-104z" />
    <glyph glyph-name="hyphen.cap" horiz-adv-x="270" 
d="M250 308h-230v83h230v-83z" />
    <glyph glyph-name="exclamdown.cap" horiz-adv-x="320" 
d="M101 700h120v-133h-120v133zM94 0l21 480h90l21 -480h-132z" />
    <glyph glyph-name="questiondown.cap" horiz-adv-x="517" 
d="M216 700h121v-133h-121v133zM221 473v7h110v-18q0 -45 -17.5 -80t-42.5 -56.5t-49.5 -41.5t-42 -46t-17.5 -59q0 -38 28.5 -64.5t74.5 -26.5q57 0 89 39t34 100l108 -8q-8 -105 -68 -169.5t-163 -64.5q-98 0 -158.5 55t-60.5 136q0 49 18 86.5t43.5 60.5t51.5 43.5t44 47
t18 59.5z" />
    <glyph glyph-name="guilsinglleft.cap" horiz-adv-x="294" 
d="M151 350l99 -202h-102l-99 202l99 202h102z" />
    <glyph glyph-name="guilsinglright.cap" horiz-adv-x="294" 
d="M246 350l-99 -202h-102l99 202l-99 202h102z" />
    <glyph glyph-name="guillemotleft.cap" horiz-adv-x="473" 
d="M151 350l99 -202h-102l-99 202l99 202h102zM329 350l99 -202h-102l-99 202l99 202h102z" />
    <glyph glyph-name="guillemotright.cap" horiz-adv-x="473" 
d="M246 350l-99 -202h-102l99 202l-99 202h102zM424 350l-99 -202h-102l99 202l-99 202h102z" />
    <glyph glyph-name="endash.cap" horiz-adv-x="500" 
d="M480 308h-460v83h460v-83z" />
    <glyph glyph-name="emdash.cap" horiz-adv-x="1000" 
d="M980 308h-960v83h960v-83z" />
    <glyph glyph-name="periodcentered.cap" horiz-adv-x="262" 
d="M191 284h-119v138h119v-138z" />
    <glyph glyph-name="parenleft.cap" horiz-adv-x="314" 
d="M44 350q0 141 44.5 252t98.5 153h105q-65 -60 -106.5 -167t-41.5 -238t41.5 -236.5t106.5 -168.5h-105q-54 44 -98.5 153.5t-44.5 251.5z" />
    <glyph glyph-name="parenright.cap" horiz-adv-x="314" 
d="M270 350q0 -142 -44.5 -252.5t-98.5 -152.5h-105q65 63 106.5 168.5t41.5 236.5t-41.5 238t-106.5 167h105q54 -40 98.5 -151.5t44.5 -253.5z" />
    <glyph glyph-name="parenleft.small" horiz-adv-x="254" 
d="M33 273q0 108 33.5 195.5t74.5 119.5h95q-48 -49 -79.5 -132.5t-31.5 -183.5t31.5 -182.5t79.5 -131.5h-95q-40 30 -74 118.5t-34 196.5z" />
    <glyph glyph-name="parenright.small" horiz-adv-x="254" 
d="M221 273q0 -107 -33.5 -195.5t-74.5 -119.5h-95q49 51 80 133.5t31 182.5t-31.5 182.5t-79.5 131.5h95q40 -29 74 -117.5t34 -197.5z" />
    <glyph glyph-name="bracketleft.cap" horiz-adv-x="299" 
d="M270 28v-83h-198v810h198v-83h-104v-644h104z" />
    <glyph glyph-name="bracketright.cap" horiz-adv-x="299" 
d="M29 672v83h198v-810h-198v83h104v644h-104z" />
    <glyph glyph-name="bracketleft.small" horiz-adv-x="243" 
d="M221 39v-81h-164v630h164v-81h-73v-468h73z" />
    <glyph glyph-name="bracketright.small" horiz-adv-x="243" 
d="M22 507v81h164v-630h-164v81h73v468h-73z" />
    <glyph glyph-name="braceleft.cap" horiz-adv-x="333" 
d="M304 26v-81q-35 1 -58.5 4t-52 14.5t-45.5 30.5t-28.5 53.5t-11.5 83.5v115q0 38 -15 51t-75 16v74q60 4 75 17t15 50v115q0 49 11.5 83.5t28.5 53.5t45.5 30.5t52 14.5t58.5 4v-81q-59 -2 -80.5 -23.5t-21.5 -85.5v-102q0 -59 -17.5 -82.5t-67.5 -28.5v-4
q50 -4 67.5 -28t17.5 -83v-102q0 -65 21 -85.5t81 -23.5z" />
    <glyph glyph-name="braceright.cap" horiz-adv-x="333" 
d="M28 674v81q35 -1 58.5 -4t52 -14.5t45.5 -30.5t28.5 -53.5t11.5 -83.5v-115q0 -37 15 -50t75 -17v-74q-60 -3 -75 -16t-15 -51v-115q0 -49 -11.5 -83.5t-28.5 -53.5t-45.5 -30.5t-52 -14.5t-58.5 -4v81q60 3 81 23.5t21 85.5v102q0 59 17.5 83t67.5 28v4
q-50 5 -67.5 28.5t-17.5 82.5v102q0 64 -21.5 85.5t-80.5 23.5z" />
    <glyph glyph-name="braceleft.small" horiz-adv-x="274" 
d="M252 35v-77q-85 1 -124.5 35.5t-39.5 116.5v76q0 26 -11.5 35t-58.5 13v77q47 3 58.5 11t11.5 34v79q0 83 39 117.5t125 35.5v-77q-44 -1 -59 -14.5t-15 -56.5v-69q0 -54 -14.5 -73t-59.5 -24v-4q44 -4 59 -24.5t15 -78.5v-60q0 -43 15 -56.5t59 -15.5z" />
    <glyph glyph-name="braceright.small" horiz-adv-x="274" 
d="M22 511v77q86 -1 125 -35t39 -117v-76q0 -26 11 -34t59 -14v-77q-47 -3 -58.5 -11.5t-11.5 -33.5v-79q0 -83 -39 -117.5t-125 -35.5v77q44 1 59 14.5t15 56.5v69q0 54 15 73.5t59 23.5v4q-44 4 -59 24.5t-15 78.5v60q0 44 -14.5 57.5t-59.5 14.5z" />
    <glyph glyph-name="at.small" horiz-adv-x="896" 
d="M407 58q-73 0 -118.5 50.5t-45.5 134.5q0 103 55 175.5t142 72.5q40 0 70.5 -17.5t41.5 -49.5h4l8 49h101l-38 -269q-10 -77 47 -77q43 0 73 49.5t30 132.5q0 138 -84 227.5t-236 89.5q-143 0 -239.5 -102.5t-96.5 -259.5q0 -153 98 -249t242 -96q130 0 217 77l32 -51
q-35 -38 -109.5 -65t-145.5 -27q-172 0 -288.5 111t-116.5 295q0 96 33 178.5t89 138t129.5 86.5t155.5 31q173 0 283 -106t110 -272q0 -113 -55.5 -185t-145.5 -72q-45 0 -73 21t-33 60h-3q-15 -34 -52 -57.5t-81 -23.5zM430 143q51 0 84 46t33 107q0 51 -24.5 80.5
t-67.5 29.5q-53 0 -85 -45.5t-32 -107.5q0 -51 24.5 -80.5t67.5 -29.5z" />
    <glyph glyph-name="at.cap" horiz-adv-x="896" 
d="M407 135q-73 0 -118.5 50.5t-45.5 134.5q0 103 55 175.5t142 72.5q40 0 70.5 -17.5t41.5 -49.5h4l8 49h101l-38 -269q-10 -77 47 -77q43 0 73 49.5t30 132.5q0 138 -84 227.5t-236 89.5q-143 0 -239.5 -102.5t-96.5 -259.5q0 -153 98 -249t242 -96q130 0 217 77l32 -51
q-35 -38 -109.5 -65t-145.5 -27q-172 0 -288.5 111t-116.5 295q0 96 33 178.5t89 138t129.5 86.5t155.5 31q173 0 283 -106t110 -272q0 -113 -55.5 -185t-145.5 -72q-45 0 -73 21t-33 60h-3q-15 -34 -52 -57.5t-81 -23.5zM430 220q51 0 84 46t33 107q0 51 -24.5 80.5
t-67.5 29.5q-53 0 -85 -45.5t-32 -107.5q0 -51 24.5 -80.5t67.5 -29.5z" />
    <glyph glyph-name="zero.slash" horiz-adv-x="611" 
d="M307 -15q-123 0 -195.5 100t-72.5 265t72 265t193 100q122 0 195 -100t73 -265t-72 -265t-193 -100zM154 350q0 -82 18 -140l216 369q-34 34 -84 34q-72 0 -111 -72t-39 -191zM307 87q71 0 110.5 71.5t39.5 191.5q0 85 -19 143l-220 -368q36 -38 89 -38z" />
    <glyph glyph-name="numbersign.LT" 
d="M414 190l-41 -190h-84l40 190h-136l-40 -190h-86l41 190h-94v83h111l34 154h-94v83h113l40 190h86l-41 -190h135l42 190h84l-40 -190h94v-83h-113l-32 -154h94v-83h-113zM206 269h144l35 161h-144z" />
    <glyph glyph-name="Euro.LT" 
d="M337 -15q-102 0 -166.5 66.5t-85.5 185.5h-77v76h69q-1 12 -1 37t1 37h-69v76h77q21 119 86.5 185.5t170.5 66.5q152 0 212 -139l-110 -31q-25 68 -105 68q-112 0 -139 -150h244v-76h-252q-1 -12 -1 -37t1 -37h252v-76h-244q27 -150 138 -150q38 0 66 18t40 50l108 -32
q-26 -65 -83 -101.5t-132 -36.5z" />
    <glyph glyph-name="dollar.LT" 
d="M343 3v-104h-90v106q-74 12 -123 54t-63 110l101 26q6 -47 46.5 -74t94.5 -27t85.5 27.5t31.5 74.5q0 45 -36 69t-87 36t-102.5 28t-87.5 58.5t-36 114.5q0 78 48 130t128 64v106h90v-105q74 -10 122 -51.5t61 -104.5l-104 -29q-7 42 -40 68t-84 26q-49 0 -77.5 -24
t-28.5 -68q0 -45 35.5 -69t86.5 -36t102.5 -28t87 -58.5t35.5 -114.5q0 -82 -54.5 -138t-141.5 -67z" />
    <glyph glyph-name="cent.LT" 
d="M348 -13v-88h-90v91q-90 17 -145 86.5t-55 171.5q0 103 55.5 173.5t144.5 85.5v91h90v-90q147 -18 186 -157l-107 -23q-27 87 -122 87q-67 0 -103 -48q-35 -49 -35 -119q0 -74 36.5 -120.5t101.5 -46.5q90 0 121 87l108 -21q-21 -67 -69 -108.5t-117 -51.5z" />
    <glyph glyph-name="sterling.LT" 
d="M529 102v-102h-469v85q44 26 65.5 61t21.5 99q0 32 -5 67h-88v76h75q-12 89 -12 112q0 104 60 159q61 56 154 56q76 0 127.5 -36t74.5 -97l-104 -33q-10 29 -34.5 47t-61.5 18q-44 0 -73 -27t-29 -80q0 -42 15 -119h192v-76h-180q3 -27 3 -54q0 -58 -15.5 -92t-45.5 -60
v-4h329z" />
    <glyph glyph-name="florin.LT" 
d="M538 388v-76h-222v-413h-111v413h-152v76h152v60q0 131 70 199t184 68q45 0 69 -11v-102q-22 12 -69 12q-26 0 -49 -7.5t-45.5 -26t-35.5 -55t-13 -88.5v-49h222z" />
    <glyph glyph-name="yen.LT" 
d="M351 237v-237h-111v237h-202v76h202v2l-44 72h-158v76h114l-142 237h132l155 -273h5l157 273h123l-143 -237h115v-76h-159l-44 -72v-2h203v-76h-203z" />
    <glyph glyph-name="zero.slash.LT" 
d="M296 -15q-65 0 -114 28.5t-78 79.5t-43 115.5t-14 141.5q0 162 61 263.5t187 101.5q65 0 114 -28.5t78 -79.5t43 -115.5t14 -141.5q0 -162 -61 -263.5t-187 -101.5zM162 350q0 -66 10 -116l213 328q-33 51 -90 51q-69 0 -101 -72.5t-32 -190.5zM296 87q69 0 101 72.5
t32 190.5q0 61 -9 112l-212 -326q33 -49 88 -49z" />
    <glyph glyph-name="zero.LT" 
d="M296 -15q-65 0 -114 28.5t-78 79.5t-43 115.5t-14 141.5q0 162 61 263.5t187 101.5q65 0 114 -28.5t78 -79.5t43 -115.5t14 -141.5q0 -162 -61 -263.5t-187 -101.5zM296 87q69 0 101 72.5t32 190.5t-32.5 190.5t-101.5 72.5t-101 -72.5t-32 -190.5t32.5 -190.5
t101.5 -72.5z" />
    <glyph glyph-name="one.LT" 
d="M106 484l-13 112l203 104h100v-700h-111v582z" />
    <glyph glyph-name="two.LT" 
d="M68 0v97l240 226q60 60 84 99t24 80q0 44 -31 77t-85 33q-61 0 -93 -38.5t-39 -96.5l-109 10q11 99 73.5 163.5t166.5 64.5q103 0 168 -60t65 -141q0 -69 -33 -126t-114 -134l-160 -152h311v-102h-468z" />
    <glyph glyph-name="three.LT" 
d="M297 -15q-104 0 -177 58.5t-77 146.5l108 13q5 -51 46 -84.5t98 -33.5q62 0 98 38t36 97q0 58 -35.5 91.5t-94.5 33.5q-49 0 -89 -34v90l192 197h-334v102h468v-95l-133 -140q-34 -33 -38 -37v-4q1 0 3.5 0.5t4.5 0.5q76 0 125 -57t49 -144q0 -105 -68 -172t-182 -67z
" />
    <glyph glyph-name="four.LT" 
d="M480 154v-154h-111v154h-340v102l262 444h189v-444h90v-102h-90zM365 634l-225 -378h229v378h-4z" />
    <glyph glyph-name="five.LT" 
d="M294 -15q-91 0 -158.5 46t-82.5 118l107 29q13 -42 50 -67.5t85 -25.5q64 0 101 40q39 41 39 100q0 63 -39.5 103t-101.5 40q-40 0 -72.5 -18t-46.5 -50h-97v400h438v-102h-334v-189q45 59 145 59t163 -65t63 -168q0 -108 -73 -179t-186 -71z" />
    <glyph glyph-name="six.LT" 
d="M316 -15q-133 0 -202 92.5t-69 269.5q0 174 69.5 271t199.5 97q87 0 150 -42.5t85 -116.5l-113 -21q-10 34 -42 56.5t-80 22.5q-75 0 -115 -60t-40 -173v-22q22 46 68 68.5t102 22.5q99 0 164 -62t65 -160q0 -106 -68.5 -174.5t-173.5 -68.5zM308 83q62 0 99 39.5
t37 98.5t-37 98.5t-99 39.5t-99 -39.5t-37 -98.5t37 -98.5t99 -39.5z" />
    <glyph glyph-name="seven.LT" 
d="M68 700h468v-103l-321 -597h-127l332 598h-352v102z" />
    <glyph glyph-name="eight.LT" 
d="M296 -15q-118 0 -185.5 61.5t-67.5 147.5q0 64 37.5 113t92.5 61q-50 14 -79.5 57.5t-29.5 100.5q0 71 60 130t172 59t172 -59t60 -130q0 -58 -29.5 -101t-79.5 -57q54 -12 91.5 -61t37.5 -113q0 -86 -67 -147.5t-185 -61.5zM295 408q54 0 85.5 29.5t31.5 74.5
q0 40 -30.5 72.5t-86.5 32.5t-86.5 -32.5t-30.5 -72.5q0 -44 32 -74t85 -30zM295 83q61 0 98 33.5t37 83.5q0 51 -37.5 84t-97.5 33t-96.5 -33t-36.5 -84q0 -50 36.5 -83.5t96.5 -33.5z" />
    <glyph glyph-name="nine.LT" 
d="M275 715q133 0 202 -92.5t69 -269.5q0 -174 -69 -271t-199 -97q-87 0 -150.5 42.5t-85.5 116.5l114 21q11 -33 42.5 -56t78.5 -23q75 0 115 60t40 173v22q-22 -46 -67.5 -68.5t-102.5 -22.5q-99 0 -164 62t-65 160q0 107 68.5 175t173.5 68zM283 617q-62 0 -98.5 -38.5
t-36.5 -99.5q0 -60 36.5 -99t98.5 -39q63 0 99.5 39t36.5 99q0 61 -36 99.5t-100 38.5z" />
    <glyph glyph-name="numbersign.OT" 
d="M408 130l-28 -130h-85l28 130h-126l-28 -130h-85l28 130h-102v83h120l25 119h-102v83h121l28 131h85l-28 -131h125l28 131h85l-28 -131h103v-83h-121l-25 -119h102v-83h-120zM210 209h134l28 127h-135z" />
    <glyph glyph-name="Euro.OT" 
d="M340 -15q-87 0 -153 48t-92 139h-87v72h75q-1 9 -1 29q0 18 1 27h-75v72h86q24 92 91 140.5t155 48.5q73 0 131 -32.5t81 -86.5l-108 -28q-28 48 -102 48q-95 0 -129 -90h231v-72h-246q-1 -9 -1 -27q0 -20 1 -29h246v-72h-230q34 -88 128 -88q74 0 102 48l108 -27
q-19 -54 -77.5 -87t-134.5 -33z" />
    <glyph glyph-name="dollar.OT" 
d="M344 -13v-88h-90v89q-80 11 -134.5 50t-67.5 95l109 19q7 -31 52 -54q43 -22 101 -22q53 0 84.5 21t31.5 54q0 28 -26.5 44.5t-66.5 22t-87 15.5t-87 23.5t-66.5 47t-26.5 85.5q0 68 49.5 113.5t134.5 55.5v89h90v-89q77 -9 129.5 -47t66.5 -94l-110 -25q-5 31 -44 53.5
t-93 22.5q-52 0 -81 -19t-29 -47q0 -24 20 -39t51.5 -22t70.5 -13t77.5 -15.5t70 -25.5t51.5 -47t20 -76q0 -73 -54.5 -120.5t-145.5 -56.5z" />
    <glyph glyph-name="cent.OT" 
d="M348 -13v-88h-90v91q-90 17 -145 86.5t-55 171.5q0 103 55.5 173.5t144.5 85.5v91h90v-90q147 -18 186 -157l-107 -23q-27 87 -122 87q-67 0 -103 -48q-35 -49 -35 -119q0 -74 36.5 -120.5t101.5 -46.5q90 0 121 87l108 -21q-21 -67 -69 -108.5t-117 -51.5z" />
    <glyph glyph-name="sterling.OT" 
d="M438 310v-76h-176q3 -15 3 -30q0 -54 -55 -98v-4h319v-102h-469v85q91 40 91 105q0 22 -6 44h-91v76h73q-6 27 -6 62q0 87 58 138t148 51q80 0 133.5 -35t72.5 -99l-104 -23q-19 56 -98 56q-42 0 -69 -22t-27 -67q0 -25 9 -61h194z" />
    <glyph glyph-name="florin.OT" 
d="M538 310v-76h-214v-335h-111v335h-160v76h160v36q0 102 59.5 158.5t167.5 56.5q33 0 61 -7v-102q-18 8 -56 8q-52 0 -86.5 -26.5t-34.5 -88.5v-35h214z" />
    <glyph glyph-name="yen.OT" 
d="M351 172v-172h-111v172h-202v72h177l-35 56h-142v72h100l-106 174h126l139 -247h5l138 247h118l-106 -174h101v-72h-143l-34 -56h177v-72h-202z" />
    <glyph glyph-name="zero.slash.OT" 
d="M297 -15q-114 0 -186 78.5t-72 206.5q0 129 71 207.5t184 78.5q114 0 186 -78.5t72 -207.5q0 -128 -71 -206.5t-184 -78.5zM155 270q0 -48 14 -88l201 250q-31 22 -74 22q-66 0 -103.5 -51t-37.5 -133zM296 87q65 0 102.5 50.5t37.5 132.5q0 53 -15 92l-202 -251
q32 -24 77 -24z" />
    <glyph glyph-name="zero.OT" 
d="M297 -15q-114 0 -186 78.5t-72 206.5q0 129 71 207.5t184 78.5q114 0 186 -78.5t72 -207.5q0 -128 -71 -206.5t-184 -78.5zM296 87q65 0 102.5 50.5t37.5 132.5q0 83 -37 133.5t-103 50.5t-103.5 -51t-37.5 -133t37.5 -132.5t103.5 -50.5z" />
    <glyph glyph-name="one.OT" 
d="M399 546v-546h-110v427l-180 -97l-12 112l203 104h99z" />
    <glyph glyph-name="two.OT" 
d="M536 102v-102h-468v95l192 126q79 51 107.5 83t28.5 69q0 38 -28 61.5t-73 23.5q-55 0 -88 -35t-39 -86l-104 19q9 90 70.5 147.5t163.5 57.5q96 0 155 -50t59 -131q0 -62 -38.5 -110.5t-138.5 -114.5l-80 -53h281z" />
    <glyph glyph-name="three.OT" 
d="M297 -170q-104 0 -177 58.5t-77 146.5l108 13q5 -51 46 -84.5t98 -33.5q62 0 98 38t36 97q0 58 -35.5 91.5t-94.5 33.5q-49 0 -89 -34v90l192 197h-334v102h468v-95l-133 -140q-34 -34 -38 -37v-4q1 0 3.5 0.5t4.5 0.5q76 0 125 -57t49 -144q0 -105 -68 -172t-182 -67z
" />
    <glyph glyph-name="four.OT" 
d="M480 0v-154h-111v154h-340v102l262 444h189v-444h90v-102h-90zM365 480l-225 -378h229v378h-4z" />
    <glyph glyph-name="five.OT" 
d="M294 -169q-91 0 -158.5 46t-82.5 118l107 29q13 -42 50 -67.5t85 -25.5q63 0 101 41q39 40 39 99q0 63 -39.5 103t-101.5 40q-40 0 -72.5 -18t-46.5 -50h-97v400h438v-102h-334v-189q45 59 145 59t163 -65t63 -168q0 -108 -73 -179t-186 -71z" />
    <glyph glyph-name="six.OT" 
d="M316 -15q-133 0 -202 92.5t-69 269.5q0 174 69.5 271t199.5 97q87 0 150 -42.5t85 -116.5l-113 -21q-10 34 -42 56.5t-80 22.5q-75 0 -115 -60t-40 -173v-22q22 46 68 68.5t102 22.5q99 0 164 -62t65 -160q0 -106 -68.5 -174.5t-173.5 -68.5zM308 83q62 0 99 39.5
t37 98.5t-37 98.5t-99 39.5t-99 -39.5t-37 -98.5t37 -98.5t99 -39.5z" />
    <glyph glyph-name="seven.OT" 
d="M68 546h468v-103l-321 -597h-127l332 598h-352v102z" />
    <glyph glyph-name="eight.OT" 
d="M296 -15q-118 0 -185.5 61.5t-67.5 147.5q0 64 37.5 113t92.5 61q-50 14 -79.5 57.5t-29.5 100.5q0 71 60 130t172 59t172 -59t60 -130q0 -58 -29.5 -101t-79.5 -57q54 -12 91.5 -61t37.5 -113q0 -86 -67 -147.5t-185 -61.5zM295 408q54 0 85.5 29.5t31.5 74.5
q0 40 -30.5 72.5t-86.5 32.5t-86.5 -32.5t-30.5 -72.5q0 -44 32 -74t85 -30zM295 83q61 0 98 33.5t37 83.5q0 51 -37.5 84t-97.5 33t-96.5 -33t-36.5 -84q0 -50 36.5 -83.5t96.5 -33.5z" />
    <glyph glyph-name="nine.OT" 
d="M275 561q133 0 202 -92.5t69 -269.5q0 -174 -69 -271t-199 -97q-87 0 -150.5 42.5t-85.5 116.5l114 21q11 -33 42.5 -56t78.5 -23q75 0 115 60t40 173v22q-22 -46 -67.5 -68.5t-102.5 -22.5q-99 0 -164 62t-65 160q0 107 68.5 175t173.5 68zM283 463q-62 0 -98.5 -38.5
t-36.5 -99.5q0 -60 36.5 -99t98.5 -39q63 0 99.5 39t36.5 99q0 61 -36 99.5t-100 38.5z" />
    <glyph glyph-name="numbersign.OP" 
d="M408 130l-28 -130h-85l28 130h-126l-28 -130h-85l28 130h-102v83h120l25 119h-102v83h121l28 131h85l-28 -131h125l28 131h85l-28 -131h103v-83h-121l-25 -119h102v-83h-120zM210 209h134l28 127h-135z" />
    <glyph glyph-name="Euro.OP" 
d="M340 -15q-87 0 -153 48t-92 139h-87v72h75q-1 9 -1 29q0 18 1 27h-75v72h86q24 92 91 140.5t155 48.5q73 0 131 -32.5t81 -86.5l-108 -28q-28 48 -102 48q-95 0 -129 -90h231v-72h-246q-1 -9 -1 -27q0 -20 1 -29h246v-72h-230q34 -88 128 -88q74 0 102 48l108 -27
q-19 -54 -77.5 -87t-134.5 -33z" />
    <glyph glyph-name="dollar.OP" 
d="M344 -13v-88h-90v89q-80 11 -134.5 50t-67.5 95l109 19q7 -31 52 -54q43 -22 101 -22q53 0 84.5 21t31.5 54q0 28 -26.5 44.5t-66.5 22t-87 15.5t-87 23.5t-66.5 47t-26.5 85.5q0 68 49.5 113.5t134.5 55.5v89h90v-89q77 -9 129.5 -47t66.5 -94l-110 -25q-5 31 -44 53.5
t-93 22.5q-52 0 -81 -19t-29 -47q0 -24 20 -39t51.5 -22t70.5 -13t77.5 -15.5t70 -25.5t51.5 -47t20 -76q0 -73 -54.5 -120.5t-145.5 -56.5z" />
    <glyph glyph-name="cent.OP" horiz-adv-x="545" 
d="M326 -13v-88h-90v91q-90 17 -145 86.5t-55 171.5q0 103 55.5 173.5t144.5 85.5v91h90v-90q147 -18 186 -157l-107 -23q-27 87 -122 87q-67 0 -103 -48q-35 -49 -35 -119q0 -74 36.5 -120.5t101.5 -46.5q90 0 121 87l108 -21q-21 -67 -69 -108.5t-117 -51.5z" />
    <glyph glyph-name="sterling.OP" 
d="M433 310v-76h-176q3 -15 3 -30q0 -54 -55 -98v-4h319v-102h-469v85q91 40 91 105q0 22 -6 44h-91v76h73q-6 27 -6 62q0 87 58 138t148 51q80 0 133.5 -35t72.5 -99l-104 -23q-19 56 -98 56q-42 0 -69 -22t-27 -67q0 -25 9 -61h194z" />
    <glyph glyph-name="florin.OP" 
d="M538 310v-76h-214v-335h-111v335h-160v76h160v36q0 102 59.5 158.5t167.5 56.5q33 0 61 -7v-102q-18 8 -56 8q-52 0 -86.5 -26.5t-34.5 -88.5v-35h214z" />
    <glyph glyph-name="yen.OP" 
d="M351 172v-172h-111v172h-202v72h177l-35 56h-142v72h100l-106 174h126l139 -247h5l138 247h118l-106 -174h101v-72h-143l-34 -56h177v-72h-202z" />
    <glyph glyph-name="zero.slash.OP" horiz-adv-x="637" 
d="M320 -15q-117 0 -199.5 79t-82.5 207t81 207t198 79t199.5 -79t82.5 -207t-81 -207t-198 -79zM154 271q0 -59 26 -104l215 268q-35 19 -78 19q-71 0 -117 -51t-46 -132zM320 88q72 0 117.5 51t45.5 132q0 63 -27 106l-217 -269q38 -20 81 -20z" />
    <glyph glyph-name="zero.OP" horiz-adv-x="637" 
d="M320 -15q-117 0 -199.5 79t-82.5 207t81 207t198 79t199.5 -79t82.5 -207t-81 -207t-198 -79zM320 88q72 0 117.5 51t45.5 132t-46.5 132t-119.5 51q-71 0 -117 -51t-46 -132t47 -132t119 -51z" />
    <glyph glyph-name="one.OP" horiz-adv-x="422" 
d="M329 546v-546h-110v427l-180 -97l-12 112l203 104h99z" />
    <glyph glyph-name="two.OP" 
d="M536 102v-102h-468v95l192 126q79 51 107.5 83t28.5 69q0 38 -28 61.5t-73 23.5q-55 0 -88 -35t-39 -86l-104 19q9 90 70.5 147.5t163.5 57.5q96 0 155 -50t59 -131q0 -62 -38.5 -110.5t-138.5 -114.5l-80 -53h281z" />
    <glyph glyph-name="three.OP" 
d="M297 -170q-104 0 -177 58.5t-77 146.5l108 13q5 -51 46 -84.5t98 -33.5q62 0 98 38t36 97q0 58 -35.5 91.5t-94.5 33.5q-49 0 -89 -34v90l192 197h-334v102h468v-95l-133 -140q-34 -34 -38 -37v-4q1 0 3.5 0.5t4.5 0.5q76 0 125 -57t49 -144q0 -105 -68 -172t-182 -67z
" />
    <glyph glyph-name="four.OP" 
d="M480 0v-154h-111v154h-340v102l262 444h189v-444h90v-102h-90zM365 480l-225 -378h229v378h-4z" />
    <glyph glyph-name="five.OP" 
d="M294 -169q-91 0 -158.5 46t-82.5 118l107 29q13 -42 50 -67.5t85 -25.5q63 0 101 41q39 40 39 99q0 63 -39.5 103t-101.5 40q-40 0 -72.5 -18t-46.5 -50h-97v400h438v-102h-334v-189q45 59 145 59t163 -65t63 -168q0 -108 -73 -179t-186 -71z" />
    <glyph glyph-name="six.OP" 
d="M316 -15q-133 0 -202 92.5t-69 269.5q0 174 69.5 271t199.5 97q87 0 150 -42.5t85 -116.5l-113 -21q-10 34 -42 56.5t-80 22.5q-75 0 -115 -60t-40 -173v-22q22 46 68 68.5t102 22.5q99 0 164 -62t65 -160q0 -106 -68.5 -174.5t-173.5 -68.5zM308 83q62 0 99 39.5
t37 98.5t-37 98.5t-99 39.5t-99 -39.5t-37 -98.5t37 -98.5t99 -39.5z" />
    <glyph glyph-name="seven.OP" 
d="M68 546h468v-103l-321 -597h-127l332 598h-352v102z" />
    <glyph glyph-name="eight.OP" 
d="M296 -15q-118 0 -185.5 61.5t-67.5 147.5q0 64 37.5 113t92.5 61q-50 14 -79.5 57.5t-29.5 100.5q0 71 60 130t172 59t172 -59t60 -130q0 -58 -29.5 -101t-79.5 -57q54 -12 91.5 -61t37.5 -113q0 -86 -67 -147.5t-185 -61.5zM295 408q54 0 85.5 29.5t31.5 74.5
q0 40 -30.5 72.5t-86.5 32.5t-86.5 -32.5t-30.5 -72.5q0 -44 32 -74t85 -30zM295 83q61 0 98 33.5t37 83.5q0 51 -37.5 84t-97.5 33t-96.5 -33t-36.5 -84q0 -50 36.5 -83.5t96.5 -33.5z" />
    <glyph glyph-name="nine.OP" 
d="M275 561q133 0 202 -92.5t69 -269.5q0 -174 -69 -271t-199 -97q-87 0 -150.5 42.5t-85.5 116.5l114 21q11 -33 42.5 -56t78.5 -23q75 0 115 60t40 173v22q-22 -46 -67.5 -68.5t-102.5 -22.5q-99 0 -164 62t-65 160q0 107 68.5 175t173.5 68zM283 463q-62 0 -98.5 -38.5
t-36.5 -99.5q0 -60 36.5 -99t98.5 -39q63 0 99.5 39t36.5 99q0 61 -36 99.5t-100 38.5z" />
    <glyph glyph-name="zero.numr" horiz-adv-x="401" 
d="M201 271q-79 0 -128 60t-49 159q0 102 49 160q50 59 128 59q80 0 129 -60t49 -159t-49 -159t-129 -60zM201 345q44 0 69 39t25 106t-25 106t-69 39q-45 0 -69.5 -39t-24.5 -106t25 -106t69 -39z" />
    <glyph glyph-name="one.numr" horiz-adv-x="308" 
d="M40 558l-9 81l118 61h74v-420h-83v333z" />
    <glyph glyph-name="two.numr" horiz-adv-x="367" 
d="M334 356v-76h-291v68l144 136q36 36 48 55t12 41q0 23 -17 38t-43 15q-30 0 -48.5 -19t-21.5 -54l-79 8q6 66 47.5 103.5t106.5 37.5t103.5 -33.5t38.5 -88.5q0 -39 -18 -70.5t-68 -78.5l-86 -82h172z" />
    <glyph glyph-name="three.numr" horiz-adv-x="367" 
d="M185 271q-65 0 -110.5 36t-48.5 89l81 9q4 -27 24.5 -43.5t51.5 -16.5q32 0 51 19t19 50q0 30 -18 47t-50 17q-30 0 -55 -19v68l100 97h-189v76h289v-69l-71 -70q-21 -19 -27 -23v-3h6q45 0 73.5 -33t28.5 -85q0 -64 -44 -105t-111 -41z" />
    <glyph glyph-name="four.numr" horiz-adv-x="367" 
d="M303 371v-91h-81v91h-201v67l143 262h139v-254h51v-75h-51zM218 648l-113 -202h117v202h-4z" />
    <glyph glyph-name="five.numr" horiz-adv-x="367" 
d="M187 271q-60 0 -102.5 32t-47.5 79l76 13q5 -22 25.5 -36t47.5 -14q33 0 53 19.5t20 52.5q0 32 -20 51.5t-53 19.5q-48 0 -64 -36h-70v248h270v-76h-193v-92q24 30 81 30q60 0 97.5 -39.5t37.5 -101.5q0 -66 -44.5 -108t-113.5 -42z" />
    <glyph glyph-name="six.numr" horiz-adv-x="367" 
d="M199 271q-82 0 -125 56t-43 162q0 105 42.5 162.5t120.5 57.5q54 0 93 -26.5t55 -74.5l-83 -13q-17 41 -65 41q-78 0 -79 -121v-13q31 52 102 52q55 0 93 -38t38 -95q0 -66 -42 -108t-107 -42zM193 344q32 0 51 20t19 51t-19 51t-51 20q-33 0 -52.5 -20t-19.5 -51
t19.5 -51t52.5 -20z" />
    <glyph glyph-name="seven.numr" horiz-adv-x="367" 
d="M43 700h291v-75l-184 -345h-94l191 344h-204v76z" />
    <glyph glyph-name="eight.numr" horiz-adv-x="367" 
d="M185 271q-69 0 -113 36t-44 93q0 38 20 65.5t54 36.5q-28 9 -44 34t-16 57q0 50 40.5 83t102.5 33t103 -33t41 -83q0 -33 -16 -57.5t-45 -33.5q33 -10 53 -37.5t20 -65.5q0 -56 -44 -92t-112 -36zM185 535q26 0 42 15t16 37t-16 36t-42 14q-27 0 -43 -14t-16 -36
t16.5 -37t42.5 -15zM185 345q30 0 49.5 17t19.5 44q0 29 -19 44.5t-50 15.5q-30 0 -49.5 -16t-19.5 -44q0 -27 19.5 -44t49.5 -17z" />
    <glyph glyph-name="nine.numr" horiz-adv-x="367" 
d="M172 709q81 0 124 -56t43 -162q0 -105 -42 -162.5t-120 -57.5q-54 0 -93 26.5t-56 74.5l83 13q18 -41 65 -41q77 0 80 121v13q-13 -24 -40.5 -38t-61.5 -14q-56 0 -94 38.5t-38 94.5q0 66 42 108t108 42zM178 636q-32 0 -51 -19.5t-19 -51.5q0 -31 19 -51t51 -20
q33 0 52.5 20t19.5 51q0 32 -19.5 51.5t-52.5 19.5z" />
    <glyph glyph-name="zero.dnom" horiz-adv-x="401" 
d="M201 -9q-79 0 -128 60t-49 159q0 102 49 160q50 59 128 59q80 0 129 -60t49 -159t-49 -159t-129 -60zM201 65q44 0 69 39t25 106t-25 106t-69 39q-45 0 -69.5 -39t-24.5 -106t25 -106t69 -39z" />
    <glyph glyph-name="one.dnom" horiz-adv-x="308" 
d="M40 278l-9 81l118 61h74v-420h-83v333z" />
    <glyph glyph-name="two.dnom" horiz-adv-x="367" 
d="M334 76v-76h-291v68l144 136q36 36 48 55t12 41q0 23 -17 38t-43 15q-30 0 -48.5 -19t-21.5 -54l-79 8q6 66 47.5 103.5t106.5 37.5t103.5 -33.5t38.5 -88.5q0 -39 -18 -70.5t-68 -78.5l-86 -82h172z" />
    <glyph glyph-name="three.dnom" horiz-adv-x="367" 
d="M185 -9q-65 0 -110.5 36t-48.5 89l81 9q4 -27 24.5 -43.5t51.5 -16.5q32 0 51 19t19 50q0 30 -18 47t-50 17q-30 0 -55 -19v68l100 97h-189v76h289v-69l-71 -70q-21 -19 -27 -23v-3h6q45 0 73.5 -33t28.5 -85q0 -64 -44 -105t-111 -41z" />
    <glyph glyph-name="four.dnom" horiz-adv-x="367" 
d="M303 91v-91h-81v91h-201v67l143 262h139v-254h51v-75h-51zM218 368l-113 -202h117v202h-4z" />
    <glyph glyph-name="five.dnom" horiz-adv-x="367" 
d="M187 -9q-60 0 -102.5 32t-47.5 79l76 13q5 -22 25.5 -36t47.5 -14q33 0 53 19.5t20 52.5q0 32 -20 51.5t-53 19.5q-48 0 -64 -36h-70v248h270v-76h-193v-92q24 30 81 30q60 0 97.5 -39.5t37.5 -101.5q0 -66 -44.5 -108t-113.5 -42z" />
    <glyph glyph-name="six.dnom" horiz-adv-x="367" 
d="M198 -9q-82 0 -125 56t-43 162q0 105 42.5 162.5t120.5 57.5q54 0 93 -26.5t55 -74.5l-83 -13q-17 41 -65 41q-78 0 -79 -121v-13q31 52 102 52q55 0 93 -38t38 -95q0 -66 -42 -108t-107 -42zM192 64q32 0 51 20t19 51t-19 51t-51 20q-33 0 -52.5 -20t-19.5 -51t19.5 -51
t52.5 -20z" />
    <glyph glyph-name="seven.dnom" horiz-adv-x="367" 
d="M43 420h291v-75l-184 -345h-94l191 344h-204v76z" />
    <glyph glyph-name="eight.dnom" horiz-adv-x="367" 
d="M185 -9q-69 0 -113 36t-44 93q0 38 20 65.5t54 36.5q-28 9 -44 34t-16 57q0 50 40.5 83t102.5 33t103 -33t41 -83q0 -33 -16 -57.5t-45 -33.5q33 -10 53 -37.5t20 -65.5q0 -56 -44 -92t-112 -36zM185 255q26 0 42 15t16 37t-16 36t-42 14q-27 0 -43 -14t-16 -36t16.5 -37
t42.5 -15zM185 65q30 0 49.5 17t19.5 44q0 29 -19 44.5t-50 15.5q-30 0 -49.5 -16t-19.5 -44q0 -27 19.5 -44t49.5 -17z" />
    <glyph glyph-name="nine.dnom" horiz-adv-x="367" 
d="M172 429q81 0 124 -56t43 -162q0 -105 -42 -162.5t-120 -57.5q-54 0 -93 26.5t-56 74.5l83 13q18 -41 65 -41q77 0 80 121v13q-13 -24 -40.5 -38t-61.5 -14q-56 0 -94 38.5t-38 94.5q0 66 42 108t108 42zM178 356q-32 0 -51 -19.5t-19 -51.5q0 -31 19 -51t51 -20
q33 0 52.5 20t19.5 51q0 32 -19.5 51.5t-52.5 19.5z" />
    <glyph glyph-name="fraction.osf" horiz-adv-x="476" 
d="M391 546h85l-391 -546h-85z" />
    <glyph glyph-name="percent.osf" horiz-adv-x="747" 
d="M25 390q0 80 41 125.5t103 45.5t103 -45.5t41 -125.5t-41 -125.5t-103 -45.5t-103 45.5t-41 125.5zM527 546h85l-391 -546h-85zM106 390q0 -45 17 -68.5t46 -23.5q63 0 63 92t-63 92q-29 0 -46 -23t-17 -69zM434 156q0 80 41 125.5t103 45.5t103 -45.5t41 -125.5
t-41 -125.5t-103 -45.5t-103 45.5t-41 125.5zM515 156q0 -45 17 -68.5t46 -23.5q63 0 63 92t-63 92q-29 0 -46 -23t-17 -69z" />
    <glyph glyph-name="perthousand.osf" horiz-adv-x="1070" 
d="M25 390q0 80 41 125.5t103 45.5t103 -45.5t41 -125.5t-41 -125.5t-103 -45.5t-103 45.5t-41 125.5zM527 546h85l-391 -546h-85zM106 390q0 -45 17 -68.5t46 -23.5q63 0 63 92t-63 92q-29 0 -46 -23t-17 -69zM434 156q0 80 41 125.5t103 45.5t103 -45.5t41 -125.5
t-41 -125.5t-103 -45.5t-103 45.5t-41 125.5zM757 156q0 80 41 125.5t103 45.5q59 0 101 -44q43 -43 43 -127t-43 -127q-42 -44 -101 -44q-62 0 -103 45.5t-41 125.5zM515 156q0 -45 17 -68.5t46 -23.5q63 0 63 92t-63 92q-29 0 -46 -23t-17 -69zM838 156q0 -92 63 -92
t63 92t-63 92t-63 -92z" />
    <glyph glyph-name="ampersand.small" horiz-adv-x="530" 
d="M439 245v-245h-190q-106 0 -161 42.5t-55 118.5q0 52 26.5 88.5t74.5 48.5q-37 9 -60.5 39.5t-23.5 72.5q0 64 52 103t144 39q49 0 69 -5l-11 -91q-16 4 -50 4q-45 0 -68 -17.5t-23 -46.5q0 -28 21 -43.5t59 -15.5h88v76h108v-76h82v-92h-82zM259 91h72v154h-98
q-43 0 -65 -20t-22 -54q0 -80 113 -80z" />
    <glyph glyph-name="fi.cap" horiz-adv-x="870" 
d="M85 700h458v-104h-344v-197h258v-104h-258v-295h-114v700zM670 700h114v-700h-114v700z" />
    <glyph glyph-name="fl.cap" horiz-adv-x="1116" 
d="M85 700h458v-104h-344v-197h258v-104h-258v-295h-114v700zM670 0v700h114v-596h310v-104h-424z" />
    <glyph glyph-name="fi.small" horiz-adv-x="750" 
d="M81 546h331v-103h-220v-124h220v-102h-220v-217h-111v546zM558 546h111v-546h-111v546z" />
    <glyph glyph-name="fl.small" horiz-adv-x="917" 
d="M81 546h331v-103h-220v-124h220v-102h-220v-217h-111v546zM557 0v546h111v-444h227v-102h-338z" />
    <glyph glyph-name="J.alt" horiz-adv-x="528" 
d="M236 -10q-88 0 -151 47.5t-75 122.5l104 19q11 -40 41.5 -62.5t73.5 -22.5q50 0 79 37.5t29 103.5v465h114v-471q0 -108 -59 -173.5t-156 -65.5z" />
    <glyph glyph-name="Jcircumflex.alt" horiz-adv-x="528" 
d="M476 846l92 -106h-102l-73 68l-72 -68h-102l92 106h165zM236 -10q-88 0 -151 47.5t-75 122.5l104 19q11 -40 41.5 -62.5t73.5 -22.5q50 0 79 37.5t29 103.5v465h114v-471q0 -108 -59 -173.5t-156 -65.5z" />
    <glyph glyph-name="IJ.alt" horiz-adv-x="812" 
d="M85 700h114v-700h-114v700zM521 -10q-88 0 -151 47.5t-75 122.5l104 19q11 -40 41.5 -62.5t73.5 -22.5q50 0 79 37.5t29 103.5v465h114v-471q0 -108 -59 -173.5t-156 -65.5z" />
    <glyph glyph-name="J.small.alt" horiz-adv-x="443" 
d="M200 -12q-72 0 -124.5 39t-65.5 103l108 20q7 -26 27 -41.5t48 -15.5q32 0 50.5 25.5t18.5 69.5v358h111v-365q0 -87 -47 -140t-126 -53z" />
    <glyph glyph-name="Jcircumflex.small.alt" horiz-adv-x="443" 
d="M400 692l92 -106h-102l-73 68l-72 -68h-102l92 106h165zM200 -12q-72 0 -124.5 39t-65.5 103l108 20q7 -26 27 -41.5t48 -15.5q32 0 50.5 25.5t18.5 69.5v358h111v-365q0 -87 -47 -140t-126 -53z" />
    <glyph glyph-name="IJ.small.alt" horiz-adv-x="716" 
d="M81 546h111v-546h-111v546zM473 -12q-72 0 -124.5 39t-65.5 103l108 20q7 -26 27 -41.5t48 -15.5q32 0 50.5 25.5t18.5 69.5v358h111v-365q0 -87 -47 -140t-126 -53z" />
    <glyph glyph-name="M.alt" horiz-adv-x="927" 
d="M27 0l138 704h154l148 -501h4l148 501h142l139 -704h-118l-100 536h-4l-159 -536h-108l-158 536h-4l-100 -536h-122z" />
    <glyph glyph-name="M.small.alt" horiz-adv-x="746" 
d="M30 0l98 549h143l103 -362h3l102 362h134l103 -549h-115l-65 385h-3l-110 -385h-104l-110 385h-3l-64 -385h-112z" />
    <glyph glyph-name="a.alt" horiz-adv-x="579" 
d="M34 236q0 111 63.5 181.5t159.5 70.5q51 0 90.5 -21.5t59.5 -55.5v62h108v-473h-100v72h-3q-22 -43 -64.5 -65t-92.5 -22q-95 0 -158 70t-63 181zM143 236q0 -68 37 -111.5t97 -43.5q61 0 96.5 43.5t35.5 111.5q0 70 -35.5 113.5t-96.5 43.5t-97.5 -44.5t-36.5 -112.5z
" />
    <glyph glyph-name="agrave.alt" horiz-adv-x="579" 
d="M118 699h131l76 -153h-99zM34 236q0 111 63.5 181.5t159.5 70.5q51 0 90.5 -21.5t59.5 -55.5v62h108v-473h-100v72h-3q-22 -43 -64.5 -65t-92.5 -22q-95 0 -158 70t-63 181zM143 236q0 -68 37 -111.5t97 -43.5q61 0 96.5 43.5t35.5 111.5q0 70 -35.5 113.5t-96.5 43.5
t-97.5 -44.5t-36.5 -112.5z" />
    <glyph glyph-name="aacute.alt" horiz-adv-x="579" 
d="M447 699l-122 -153h-100l91 153h131zM34 236q0 111 63.5 181.5t159.5 70.5q51 0 90.5 -21.5t59.5 -55.5v62h108v-473h-100v72h-3q-22 -43 -64.5 -65t-92.5 -22q-95 0 -158 70t-63 181zM143 236q0 -68 37 -111.5t97 -43.5q61 0 96.5 43.5t35.5 111.5q0 70 -35.5 113.5
t-96.5 43.5t-97.5 -44.5t-36.5 -112.5z" />
    <glyph glyph-name="acircumflex.alt" horiz-adv-x="579" 
d="M342 699l109 -153h-102l-74 100l-74 -100h-102l109 153h134zM34 236q0 111 63.5 181.5t159.5 70.5q51 0 90.5 -21.5t59.5 -55.5v62h108v-473h-100v72h-3q-22 -43 -64.5 -65t-92.5 -22q-95 0 -158 70t-63 181zM143 236q0 -68 37 -111.5t97 -43.5q61 0 96.5 43.5
t35.5 111.5q0 70 -35.5 113.5t-96.5 43.5t-97.5 -44.5t-36.5 -112.5z" />
    <glyph glyph-name="atilde.alt" horiz-adv-x="579" 
d="M342 557q-31 0 -68 25t-54 25q-33 0 -39 -50h-76q12 132 101 132q32 0 68.5 -25t53.5 -25q33 0 39 49h76q-12 -131 -101 -131zM34 236q0 111 63.5 181.5t159.5 70.5q51 0 90.5 -21.5t59.5 -55.5v62h108v-473h-100v72h-3q-22 -43 -64.5 -65t-92.5 -22q-95 0 -158 70
t-63 181zM143 236q0 -68 37 -111.5t97 -43.5q61 0 96.5 43.5t35.5 111.5q0 70 -35.5 113.5t-96.5 43.5t-97.5 -44.5t-36.5 -112.5z" />
    <glyph glyph-name="adieresis.alt" horiz-adv-x="579" 
d="M221 678v-111h-101v111h101zM430 678v-111h-101v111h101zM34 236q0 111 63.5 181.5t159.5 70.5q51 0 90.5 -21.5t59.5 -55.5v62h108v-473h-100v72h-3q-22 -43 -64.5 -65t-92.5 -22q-95 0 -158 70t-63 181zM143 236q0 -68 37 -111.5t97 -43.5q61 0 96.5 43.5t35.5 111.5
q0 70 -35.5 113.5t-96.5 43.5t-97.5 -44.5t-36.5 -112.5z" />
    <glyph glyph-name="amacron.alt" horiz-adv-x="579" 
d="M435 661v-76h-324v76h324zM34 236q0 111 63.5 181.5t159.5 70.5q51 0 90.5 -21.5t59.5 -55.5v62h108v-473h-100v72h-3q-22 -43 -64.5 -65t-92.5 -22q-95 0 -158 70t-63 181zM143 236q0 -68 37 -111.5t97 -43.5q61 0 96.5 43.5t35.5 111.5q0 70 -35.5 113.5t-96.5 43.5
t-97.5 -44.5t-36.5 -112.5z" />
    <glyph glyph-name="abreve.alt" horiz-adv-x="579" 
d="M275 549q-66 0 -107.5 38t-49.5 109h84q5 -35 25 -55t48 -20q30 0 49.5 20t23.5 55h84q-8 -71 -49.5 -109t-107.5 -38zM34 236q0 111 63.5 181.5t159.5 70.5q51 0 90.5 -21.5t59.5 -55.5v62h108v-473h-100v72h-3q-22 -43 -64.5 -65t-92.5 -22q-95 0 -158 70t-63 181z
M143 236q0 -68 37 -111.5t97 -43.5q61 0 96.5 43.5t35.5 111.5q0 70 -35.5 113.5t-96.5 43.5t-97.5 -44.5t-36.5 -112.5z" />
    <glyph glyph-name="aring.alt" horiz-adv-x="579" 
d="M287 532q-49 0 -82 29.5t-33 74.5q0 47 32.5 75.5t82.5 28.5t82.5 -28.5t32.5 -75.5q0 -45 -33 -74.5t-82 -29.5zM287 586q23 0 37.5 14t14.5 36t-14.5 36t-37.5 14t-37.5 -14t-14.5 -36t14.5 -36t37.5 -14zM34 236q0 111 63.5 181.5t159.5 70.5q51 0 90.5 -21.5
t59.5 -55.5v62h108v-473h-100v72h-3q-22 -43 -64.5 -65t-92.5 -22q-95 0 -158 70t-63 181zM143 236q0 -68 37 -111.5t97 -43.5q61 0 96.5 43.5t35.5 111.5q0 70 -35.5 113.5t-96.5 43.5t-97.5 -44.5t-36.5 -112.5z" />
    <glyph glyph-name="aringacute.alt" horiz-adv-x="579" 
d="M439 885l-104 -106h-100l73 106h131zM287 532q-49 0 -82 29.5t-33 74.5q0 47 32.5 75.5t82.5 28.5t82.5 -28.5t32.5 -75.5q0 -45 -33 -74.5t-82 -29.5zM287 586q23 0 37.5 14t14.5 36t-14.5 36t-37.5 14t-37.5 -14t-14.5 -36t14.5 -36t37.5 -14zM34 236q0 111 63.5 181.5
t159.5 70.5q51 0 90.5 -21.5t59.5 -55.5v62h108v-473h-100v72h-3q-22 -43 -64.5 -65t-92.5 -22q-95 0 -158 70t-63 181zM143 236q0 -68 37 -111.5t97 -43.5q61 0 96.5 43.5t35.5 111.5q0 70 -35.5 113.5t-96.5 43.5t-97.5 -44.5t-36.5 -112.5z" />
    <glyph glyph-name="aogonek.alt" horiz-adv-x="579" 
d="M34 236q0 111 63.5 181.5t159.5 70.5q51 0 90.5 -21.5t59.5 -55.5v62h108v-473h-5q-87 -34 -87 -89q0 -21 15.5 -32.5t40.5 -11.5q16 0 31 3v-66q-21 -4 -48 -4q-62 0 -97 23.5t-35 68.5q0 70 85 119v61h-3q-22 -43 -64.5 -65t-92.5 -22q-95 0 -158 70t-63 181zM143 236
q0 -68 37 -111.5t97 -43.5q61 0 96.5 43.5t35.5 111.5q0 70 -35.5 113.5t-96.5 43.5t-97.5 -44.5t-36.5 -112.5z" />
    <glyph glyph-name="a.superior.alt" horiz-adv-x="437" 
d="M23 525q0 82 47.5 134t119.5 52q71 0 101 -47v36h93v-350h-86v42h-3q-15 -26 -45.5 -39.5t-63.5 -13.5q-70 0 -116.5 52t-46.5 134zM116 525q0 -45 24 -74.5t65 -29.5t65 29t24 75t-24 75t-65 29t-65 -29.5t-24 -74.5z" />
    <glyph glyph-name="j.alt" horiz-adv-x="238" 
d="M174 700v-116h-109v116h109zM174 473v-670h-109v670h109z" />
    <glyph glyph-name="ij.alt" horiz-adv-x="471" 
d="M174 700v-115h-109v115h109zM407 700v-116h-109v116h109zM174 473v-473h-109v473h109zM407 473v-670h-109v670h109z" />
    <glyph glyph-name="jcircumflex.alt" horiz-adv-x="238" 
d="M183 700l109 -153h-102l-74 100l-74 -100h-102l109 153h134zM174 473v-670h-109v670h109z" />
    <glyph glyph-name="j.superior.alt" horiz-adv-x="200" 
d="M147 849v-90h-94v90h94zM147 700v-493h-94v493h94z" />
    <glyph glyph-name="l.alt" horiz-adv-x="246" 
d="M195 -6q-140 0 -140 148v558h109v-528q0 -48 14 -65.5t46 -17.5q14 0 21 4v-94q-25 -5 -50 -5z" />
    <glyph glyph-name="lacute.alt" horiz-adv-x="246" 
d="M264 846l-104 -106h-100l73 106h131zM195 -6q-140 0 -140 148v558h109v-528q0 -48 14 -65.5t46 -17.5q14 0 21 4v-94q-25 -5 -50 -5z" />
    <glyph glyph-name="lcaron.alt" horiz-adv-x="354" 
d="M372 700l-70 -208h-81l46 208h105zM195 -6q-140 0 -140 148v558h109v-528q0 -48 14 -65.5t46 -17.5q14 0 21 4v-94q-25 -5 -50 -5z" />
    <glyph glyph-name="lcommaaccent.alt" horiz-adv-x="246" 
d="M195 -6q-140 0 -140 148v558h109v-528q0 -48 14 -65.5t46 -17.5q14 0 21 4v-94q-25 -5 -50 -5zM214 -62l-61 -138h-88l45 138h104z" />
    <glyph glyph-name="lslash.alt" horiz-adv-x="256" 
d="M197 -6q-140 0 -140 148v153l-43 -29v100l43 29v305h109v-231l79 54v-100l-79 -54v-197q0 -48 14 -65.5t46 -17.5q14 0 21 4v-94q-25 -5 -50 -5z" />
    <glyph glyph-name="ldot.alt" horiz-adv-x="388" 
d="M195 -6q-140 0 -140 148v558h109v-528q0 -48 14 -65.5t46 -17.5q14 0 21 4v-94q-25 -5 -50 -5zM368 340v-105h-109v105h109z" />
    <glyph glyph-name="l.superior.alt" horiz-adv-x="196" 
d="M151 346q-110 0 -110 118v385h93v-361q0 -37 9.5 -49t32.5 -12q5 0 14 3v-80q-12 -4 -39 -4z" />
    <glyph glyph-name="t.alt" horiz-adv-x="337" 
d="M205 381v-381h-109v381h-86v92h86v149h109v-149h131v-92h-131z" />
    <glyph glyph-name="tcaron.alt" horiz-adv-x="337" 
d="M386 725l-70 -208h-81l46 208h105zM205 381v-381h-109v381h-86v92h86v149h109v-149h131v-92h-131z" />
    <glyph glyph-name="tcommaaccent.alt" horiz-adv-x="337" 
d="M205 381v-381h-109v381h-86v92h86v149h109v-149h131v-92h-131zM202 -62l-61 -138h-88l45 138h104z" />
    <glyph glyph-name="tbar.alt" horiz-adv-x="337" 
d="M205 163v-163h-109v163h-76v86h76v132h-86v92h86v149h109v-149h131v-92h-131v-132h117v-86h-117z" />
    <glyph glyph-name="t.superior.alt" horiz-adv-x="243" 
d="M156 620v-270h-94v270h-59v80h59v99h94v-99h89v-80h-89z" />
    <glyph glyph-name="u.alt" horiz-adv-x="534" 
d="M267 -15q-99 0 -154 54t-55 149v285h109v-275q0 -58 26.5 -87.5t73.5 -29.5t73.5 29.5t26.5 87.5v275h109v-285q0 -95 -55 -149t-154 -54z" />
    <glyph glyph-name="ugrave.alt" horiz-adv-x="534" 
d="M105 700h131l76 -153h-99zM267 -15q-99 0 -154 54t-55 149v285h109v-275q0 -58 26.5 -87.5t73.5 -29.5t73.5 29.5t26.5 87.5v275h109v-285q0 -95 -55 -149t-154 -54z" />
    <glyph glyph-name="uacute.alt" horiz-adv-x="534" 
d="M436 700l-122 -153h-100l91 153h131zM267 -15q-99 0 -154 54t-55 149v285h109v-275q0 -58 26.5 -87.5t73.5 -29.5t73.5 29.5t26.5 87.5v275h109v-285q0 -95 -55 -149t-154 -54z" />
    <glyph glyph-name="ucircumflex.alt" horiz-adv-x="534" 
d="M330 700l109 -153h-102l-74 100l-74 -100h-102l109 153h134zM267 -15q-99 0 -154 54t-55 149v285h109v-275q0 -58 26.5 -87.5t73.5 -29.5t73.5 29.5t26.5 87.5v275h109v-285q0 -95 -55 -149t-154 -54z" />
    <glyph glyph-name="utilde.alt" horiz-adv-x="534" 
d="M330 558q-31 0 -68 25t-54 25q-33 0 -39 -50h-76q12 132 101 132q32 0 68.5 -25t53.5 -25q33 0 39 49h76q-12 -131 -101 -131zM267 -15q-99 0 -154 54t-55 149v285h109v-275q0 -58 26.5 -87.5t73.5 -29.5t73.5 29.5t26.5 87.5v275h109v-285q0 -95 -55 -149t-154 -54z" />
    <glyph glyph-name="udieresis.alt" horiz-adv-x="534" 
d="M209 679v-111h-101v111h101zM418 679v-111h-101v111h101zM267 -15q-99 0 -154 54t-55 149v285h109v-275q0 -58 26.5 -87.5t73.5 -29.5t73.5 29.5t26.5 87.5v275h109v-285q0 -95 -55 -149t-154 -54z" />
    <glyph glyph-name="umacron.alt" horiz-adv-x="534" 
d="M423 662v-76h-324v76h324zM267 -15q-99 0 -154 54t-55 149v285h109v-275q0 -58 26.5 -87.5t73.5 -29.5t73.5 29.5t26.5 87.5v275h109v-285q0 -95 -55 -149t-154 -54z" />
    <glyph glyph-name="ubreve.alt" horiz-adv-x="534" 
d="M263 550q-66 0 -107.5 38t-49.5 109h84q5 -35 25 -55t48 -20q30 0 49.5 20t23.5 55h84q-8 -71 -49.5 -109t-107.5 -38zM267 -15q-99 0 -154 54t-55 149v285h109v-275q0 -58 26.5 -87.5t73.5 -29.5t73.5 29.5t26.5 87.5v275h109v-285q0 -95 -55 -149t-154 -54z" />
    <glyph glyph-name="uring.alt" horiz-adv-x="534" 
d="M263 532q-49 0 -82 29.5t-33 74.5q0 47 32.5 75.5t82.5 28.5t82.5 -28.5t32.5 -75.5q0 -45 -33 -74.5t-82 -29.5zM263 586q23 0 37.5 14t14.5 36t-14.5 36t-37.5 14t-37.5 -14t-14.5 -36t14.5 -36t37.5 -14zM267 -15q-99 0 -154 54t-55 149v285h109v-275
q0 -58 26.5 -87.5t73.5 -29.5t73.5 29.5t26.5 87.5v275h109v-285q0 -95 -55 -149t-154 -54z" />
    <glyph glyph-name="uhungarumlaut.alt" horiz-adv-x="534" 
d="M344 700l-122 -153h-100l90 153h132zM528 700l-122 -153h-100l91 153h131zM267 -15q-99 0 -154 54t-55 149v285h109v-275q0 -58 26.5 -87.5t73.5 -29.5t73.5 29.5t26.5 87.5v275h109v-285q0 -95 -55 -149t-154 -54z" />
    <glyph glyph-name="uogonek.alt" horiz-adv-x="534" 
d="M340 -200q-62 0 -97.5 23.5t-35.5 67.5q0 54 47 95v4h-12q-86 0 -135 57t-49 142v284h109v-275q0 -57 26.5 -86.5t73.5 -29.5t73.5 29.5t26.5 86.5v275h109v-284q0 -127 -106 -184q-73 -40 -73 -91q0 -23 16.5 -35t42.5 -12q18 0 33 3v-66q-21 -4 -49 -4z" />
    <glyph glyph-name="u.superior.alt" horiz-adv-x="410" 
d="M205 339q-75 0 -117 40.5t-42 110.5v210h94v-202q0 -77 65 -77t65 77v202h93v-210q0 -70 -41.5 -110.5t-116.5 -40.5z" />
    <glyph glyph-name="six.alt" 
d="M555 230q0 -103 -72 -174t-185 -71q-112 0 -183.5 71.5t-71.5 171.5q0 58 26 113.5t81 132.5l158 226h134l-193 -267q31 28 84 28q97 0 159.5 -66.5t62.5 -164.5zM440 227q0 56 -37.5 98.5t-103.5 42.5q-65 0 -103 -42.5t-38 -98.5t38 -99t103 -43q66 0 103.5 42.5
t37.5 99.5z" />
    <glyph glyph-name="nine.alt" 
d="M36 470q0 103 72.5 174t184.5 71q113 0 184 -71t71 -172q0 -58 -26 -113.5t-81 -132.5l-158 -226h-134l193 267q-28 -28 -84 -28q-97 0 -159.5 66.5t-62.5 164.5zM151 473q0 -56 37.5 -98.5t103.5 -42.5t103.5 42.5t37.5 98.5t-37.5 99t-103.5 43t-103.5 -42.5
t-37.5 -99.5z" />
    <glyph glyph-name="six.LT.alt" 
d="M555 230q0 -103 -72 -174t-185 -71q-112 0 -183.5 71.5t-71.5 171.5q0 58 26 113.5t81 132.5l158 226h134l-193 -267q31 28 84 28q97 0 159.5 -66.5t62.5 -164.5zM440 227q0 56 -37.5 98.5t-103.5 42.5q-65 0 -103 -42.5t-38 -98.5t38 -99t103 -43q66 0 103.5 42.5
t37.5 99.5z" />
    <glyph glyph-name="nine.LT.alt" 
d="M36 470q0 103 72.5 174t184.5 71q113 0 184 -71t71 -172q0 -58 -26 -113.5t-81 -132.5l-158 -226h-134l193 267q-28 -28 -84 -28q-97 0 -159.5 66.5t-62.5 164.5zM151 473q0 -56 37.5 -98.5t103.5 -42.5t103.5 42.5t37.5 98.5t-37.5 99t-103.5 43t-103.5 -42.5
t-37.5 -99.5z" />
    <glyph glyph-name="six.OT.alt" 
d="M555 230q0 -103 -72 -174t-185 -71q-112 0 -183.5 71.5t-71.5 171.5q0 58 26 113.5t81 132.5l158 226h134l-193 -267q31 28 84 28q97 0 159.5 -66.5t62.5 -164.5zM440 227q0 56 -37.5 98.5t-103.5 42.5q-65 0 -103 -42.5t-38 -98.5t38 -99t103 -43q66 0 103.5 42.5
t37.5 99.5z" />
    <glyph glyph-name="nine.OT.alt" 
d="M36 316q0 103 72.5 174t184.5 71q113 0 184 -71t71 -172q0 -58 -26 -113.5t-81 -132.5l-158 -226h-134l193 267q-28 -28 -84 -28q-97 0 -159.5 66.5t-62.5 164.5zM151 319q0 -56 37.5 -98.5t103.5 -42.5t103.5 42.5t37.5 98.5t-37.5 99t-103.5 43t-103.5 -42.5
t-37.5 -99.5z" />
    <glyph glyph-name="six.OP.alt" 
d="M555 230q0 -103 -72 -174t-185 -71q-112 0 -183.5 71.5t-71.5 171.5q0 58 26 113.5t81 132.5l158 226h134l-193 -267q31 28 84 28q97 0 159.5 -66.5t62.5 -164.5zM440 227q0 56 -37.5 98.5t-103.5 42.5q-65 0 -103 -42.5t-38 -98.5t38 -99t103 -43q66 0 103.5 42.5
t37.5 99.5z" />
    <glyph glyph-name="nine.OP.alt" 
d="M36 316q0 103 72.5 174t184.5 71q113 0 184 -71t71 -172q0 -58 -26 -113.5t-81 -132.5l-158 -226h-134l193 267q-28 -28 -84 -28q-97 0 -159.5 66.5t-62.5 164.5zM151 319q0 -56 37.5 -98.5t103.5 -42.5t103.5 42.5t37.5 98.5t-37.5 99t-103.5 43t-103.5 -42.5
t-37.5 -99.5z" />
    <glyph glyph-name="six.dnom.alt" horiz-adv-x="367" 
d="M344 142q0 -66 -45.5 -108.5t-112.5 -42.5q-70 0 -115.5 42.5t-45.5 106.5t78 169l83 111h102l-95 -120l-22 -29q11 10 37 10q58 0 97 -39q39 -37 39 -100zM259 139q0 31 -19.5 52t-53.5 21q-35 0 -55 -21t-20 -52q0 -32 20 -53t55 -21q34 0 53.5 21t19.5 53z" />
    <glyph glyph-name="nine.dnom.alt" horiz-adv-x="367" 
d="M25 278q0 67 45 109t113 42q71 0 116 -42.5t45 -106.5t-78 -169l-83 -111h-102l94 120q17 21 23 29q-11 -10 -37 -10q-57 0 -97 38q-39 39 -39 101zM110 281q0 -31 19.5 -52t53.5 -21t54.5 21t20.5 52q0 32 -20.5 53t-54.5 21t-53.5 -21t-19.5 -53z" />
    <glyph glyph-name="sixsuperior.alt" horiz-adv-x="367" 
d="M344 542q0 -66 -45.5 -108.5t-112.5 -42.5q-70 0 -115.5 42.5t-45.5 106.5t78 169l83 111h102l-95 -120l-22 -29q11 10 37 10q58 0 97 -39q39 -38 39 -100zM259 539q0 31 -19.5 52t-53.5 21q-35 0 -55 -21t-20 -52q0 -32 20 -53t55 -21q34 0 53.5 21t19.5 53z" />
    <glyph glyph-name="ninesuperior.alt" horiz-adv-x="367" 
d="M25 679q0 67 45 109t113 42q71 0 116 -42.5t45 -106.5t-78 -169l-83 -111h-102l94 120q17 21 23 29q-11 -10 -37 -10q-57 0 -97 38q-39 39 -39 101zM110 682q0 -31 19.5 -52t53.5 -21t54.5 21t20.5 52q0 32 -20.5 53t-54.5 21t-53.5 -21t-19.5 -53z" />
    <glyph glyph-name="sixinferior.alt" horiz-adv-x="367" 
d="M344 22q0 -66 -45.5 -108.5t-112.5 -42.5q-70 0 -115.5 42.5t-45.5 106.5t78 169l83 111h102l-95 -120l-22 -29q11 10 37 10q58 0 97 -39q39 -38 39 -100zM259 19q0 31 -19.5 52t-53.5 21q-35 0 -55 -21t-20 -52q0 -32 20 -53t55 -21q34 0 53.5 21t19.5 53z" />
    <glyph glyph-name="nineinferior.alt" horiz-adv-x="367" 
d="M25 160q0 67 45 109t113 42q71 0 116 -42.5t45 -106.5t-78 -169l-83 -111h-102l94 120q17 21 23 29q-11 -10 -37 -10q-57 0 -97 38q-39 39 -39 101zM110 163q0 -31 19.5 -52t53.5 -21t54.5 21t20.5 52q0 32 -20.5 53t-54.5 21t-53.5 -21t-19.5 -53z" />
    <glyph glyph-name="six.numr.alt" horiz-adv-x="367" 
d="M344 422q0 -66 -45.5 -108.5t-112.5 -42.5q-70 0 -115.5 42.5t-45.5 106.5t78 169l83 111h102l-95 -120l-22 -29q11 10 37 10q58 0 97 -39q39 -38 39 -100zM259 419q0 31 -19.5 52t-53.5 21q-35 0 -55 -21t-20 -52q0 -32 20 -53t55 -21q34 0 53.5 21t19.5 53z" />
    <glyph glyph-name="nine.numr.alt" horiz-adv-x="367" 
d="M25 560q0 67 45 109t113 42q71 0 116 -42.5t45 -106.5t-78 -169l-83 -111h-102l94 120q17 21 23 29q-11 -10 -37 -10q-57 0 -97 38q-39 39 -39 101zM110 563q0 -31 19.5 -52t53.5 -21t54.5 21t20.5 52q0 32 -20.5 53t-54.5 21t-53.5 -21t-19.5 -53z" />
    <glyph glyph-name="ampersand.alt" horiz-adv-x="688" 
d="M268 -15q-98 0 -160.5 57t-62.5 145q0 129 146 203q-74 81 -74 154t54.5 122t135.5 49q82 0 135 -48t53 -121q0 -56 -35.5 -99t-115.5 -82l123 -143l88 114l105 -20l-130 -165l130 -151h-132l-65 75q-81 -90 -195 -90zM279 440l10 -12q56 27 79 53t23 59q0 37 -23.5 60
t-59.5 23q-35 0 -58 -22t-23 -56q0 -43 52 -105zM154 197q0 -52 33.5 -84.5t85.5 -32.5q68 0 126 69l-148 170q-97 -43 -97 -122z" />
    <glyph glyph-name="ampersand.small.alt" horiz-adv-x="552" 
d="M203 -15q-80 0 -130 45t-50 117q0 103 110 157q-51 61 -51 115q0 61 45.5 101.5t113.5 40.5q69 0 115 -39t46 -98q0 -90 -116 -142l80 -92l63 85l95 -32l-98 -122l105 -121h-132l-42 49q-64 -64 -154 -64zM227 350l7 -8q39 19 54.5 36t15.5 41q0 23 -17 39.5t-41 16.5
q-23 0 -39 -16t-16 -39q0 -28 36 -70zM132 155q0 -34 23 -56t60 -22q43 0 81 41l-102 118q-62 -29 -62 -81z" />
    <glyph glyph-name="NULL" horiz-adv-x="0" 
 />
    </font>
</defs>
</svg>
