<?xml version="1.0" standalone="no"?>
<!DOCTYPE svg PUBLIC "-//W3C//DTD SVG 1.1//EN" "http://www.w3.org/Graphics/SVG/1.1/DTD/svg11.dtd" >
<svg xmlns="http://www.w3.org/2000/svg" xmlns:xlink="http://www.w3.org/1999/xlink" version="1.1">
<metadata>
Created by FontForge 20201107 at Tue Mar 19 07:28:07 2019
 By 
(c) 2018 Stephane Elbaz under exclusive license to General Type LLC. All rights reserved.
</metadata>
<defs>
<font id="MierB-Regular" horiz-adv-x="574" >
  <font-face 
    font-family="Mier B"
    font-weight="400"
    font-stretch="normal"
    units-per-em="1000"
    panose-1="2 11 5 1 3 0 0 0 0 6"
    ascent="750"
    descent="-250"
    x-height="466"
    cap-height="700"
    bbox="-169 -253 1170 1079"
    underline-thickness="49"
    underline-position="-192"
    unicode-range="U+000D-FB02"
  />
<missing-glyph horiz-adv-x="700" 
d="M369 -80q-113 0 -190 78.5t-77 187.5v18l-19 31q-15 25 -9 53q6 29 31 44l7 4q18 13 43 11q-7 24 0.5 46t28.5 35l7 4q20 12 41 11l-76 120q-12 21 -12 39q0 30 21.5 52.5t51.5 22.5q42 0 65 -35l139 -221v224q0 31 21.5 53t52.5 22t52.5 -22t21.5 -53v-286
q30 -15 48 -43t18 -63v-62q0 -65 -30 -126t-92.5 -103t-143.5 -42zM451 645v-274h66q17 0 22 -2v276q0 18 -13 31t-31 13t-31 -13t-13 -31zM182 579l127 -203l24 -37q6 14 20 23t30 9h33l-160 255q-12 20 -37 20q-18 0 -31 -13t-13 -31q0 -12 7 -23zM313 220l8 5
q14 9 17.5 25.5t-5.5 29.5l-72 114q-9 14 -24.5 17.5t-29.5 -4.5l-8 -5q-13 -9 -17 -24.5t5 -30.5l72 -114q9 -14 25 -17.5t29 4.5zM359 138q0 24 13 49.5t29 33.5q-16 1 -34 15q-7 -25 -29 -37l-7 -4q-18 -11 -43 -11q17 -49 -29 -81l-8 -5q-24 -15 -51.5 -8.5t-44.5 31.5
l-20 30q12 -85 79.5 -143t153.5 -58q99 0 168 72t69 169v62q0 36 -26 62t-62 26h-134q-10 0 -17 -7.5t-7 -19.5q0 -27 19 -47.5t48 -20.5h42q6 0 10.5 -4.5t4.5 -10.5t-4.5 -10.5t-10.5 -4.5q-34 0 -55.5 -23.5t-21.5 -54.5q0 -6 -5 -10.5t-11 -4.5t-11 4.5t-5 10.5z
M235 124l8 5q14 9 17.5 25.5t-5.5 29.5l-72 114q-9 14 -24.5 17.5t-29.5 -4.5l-8 -5q-13 -9 -17 -24.5t5 -30.5l72 -114q9 -14 25 -17.5t29 4.5z" />
    <glyph glyph-name="f_f" unicode="ff" horiz-adv-x="607" 
d="M113 405h-95v61h95v89q0 74 38 117t113 43q36 0 62 -8v-60q-26 6 -49 6q-94 0 -94 -104v-83h214v89q0 74 38 117t113 43q36 0 62 -8v-60q-26 6 -49 6q-94 0 -94 -104v-83h143v-61h-143v-405h-70v405h-214v-405h-70v405z" />
    <glyph glyph-name="fi" unicode="fi" horiz-adv-x="553" 
d="M113 405h-95v61h95v89q0 74 38 117t113 43q36 0 62 -8v-60q-26 6 -49 6q-94 0 -94 -104v-83h143v-61h-143v-405h-70v405zM475 700v-102h-71v102h71zM475 466v-466h-71v466h71z" />
    <glyph glyph-name="fl" unicode="fl" horiz-adv-x="554" 
d="M113 405h-95v61h95v89q0 74 38 117t113 43q36 0 62 -8v-60q-26 6 -49 6q-94 0 -94 -104v-83h143v-61h-143v-405h-70v405zM404 0v700h71v-700h-71z" />
    <glyph glyph-name=".notdef" horiz-adv-x="700" 
d="M369 -80q-113 0 -190 78.5t-77 187.5v18l-19 31q-15 25 -9 53q6 29 31 44l7 4q18 13 43 11q-7 24 0.5 46t28.5 35l7 4q20 12 41 11l-76 120q-12 21 -12 39q0 30 21.5 52.5t51.5 22.5q42 0 65 -35l139 -221v224q0 31 21.5 53t52.5 22t52.5 -22t21.5 -53v-286
q30 -15 48 -43t18 -63v-62q0 -65 -30 -126t-92.5 -103t-143.5 -42zM451 645v-274h66q17 0 22 -2v276q0 18 -13 31t-31 13t-31 -13t-13 -31zM182 579l127 -203l24 -37q6 14 20 23t30 9h33l-160 255q-12 20 -37 20q-18 0 -31 -13t-13 -31q0 -12 7 -23zM313 220l8 5
q14 9 17.5 25.5t-5.5 29.5l-72 114q-9 14 -24.5 17.5t-29.5 -4.5l-8 -5q-13 -9 -17 -24.5t5 -30.5l72 -114q9 -14 25 -17.5t29 4.5zM359 138q0 24 13 49.5t29 33.5q-16 1 -34 15q-7 -25 -29 -37l-7 -4q-18 -11 -43 -11q17 -49 -29 -81l-8 -5q-24 -15 -51.5 -8.5t-44.5 31.5
l-20 30q12 -85 79.5 -143t153.5 -58q99 0 168 72t69 169v62q0 36 -26 62t-62 26h-134q-10 0 -17 -7.5t-7 -19.5q0 -27 19 -47.5t48 -20.5h42q6 0 10.5 -4.5t4.5 -10.5t-4.5 -10.5t-10.5 -4.5q-34 0 -55.5 -23.5t-21.5 -54.5q0 -6 -5 -10.5t-11 -4.5t-11 4.5t-5 10.5z
M235 124l8 5q14 9 17.5 25.5t-5.5 29.5l-72 114q-9 14 -24.5 17.5t-29.5 -4.5l-8 -5q-13 -9 -17 -24.5t5 -30.5l72 -114q9 -14 25 -17.5t29 4.5z" />
    <glyph glyph-name=".null" horiz-adv-x="0" 
 />
    <glyph glyph-name="nonmarkingreturn" horiz-adv-x="333" 
 />
    <glyph glyph-name="CR" unicode="&#xd;" horiz-adv-x="250" 
 />
    <glyph glyph-name="space" unicode=" " horiz-adv-x="223" 
 />
    <glyph glyph-name="exclam" unicode="!" horiz-adv-x="303" 
d="M194 700l-13 -498h-59l-13 498h85zM191 0h-79v98h79v-98z" />
    <glyph glyph-name="quotedbl" unicode="&#x22;" horiz-adv-x="363" 
d="M137 700l-7 -245h-57l-6 245h70zM297 700l-7 -245h-57l-6 245h70z" />
    <glyph glyph-name="numbersign" unicode="#" 
d="M394 204l-44 -204h-56l43 204h-163l-43 -204h-58l44 204h-107v55h119l39 182h-107v55h120l43 204h58l-45 -204h163l45 204h56l-44 -204h108v-55h-120l-39 -182h108v-55h-120zM183 257h168l40 186h-167z" />
    <glyph glyph-name="dollar" unicode="$" 
d="M320 3v-104h-59v105q-76 9 -128 52t-64 117l66 16q9 -62 55 -93.5t110 -31.5q67 0 105.5 35t38.5 94q0 39 -20 65t-52 39t-71 22.5t-78 21.5t-71 30t-52 54t-20 89q0 77 50.5 126.5t130.5 56.5v105h59v-106q76 -8 124.5 -52.5t58.5 -109.5l-68 -18q-6 53 -46 86.5
t-104 33.5q-58 0 -95 -30.5t-37 -85.5q0 -40 20 -66t52 -38.5t71 -22t78 -21.5t71 -30t52 -54t20 -88q0 -83 -55 -137t-142 -60z" />
    <glyph glyph-name="percent" unicode="%" horiz-adv-x="761" 
d="M183 325q-67 0 -108 53t-41 142t41 142t108 53t108.5 -53t41.5 -142t-41.5 -142t-108.5 -53zM582 700h57l-461 -700h-58zM183 379q44 0 68.5 37.5t24.5 103.5t-24.5 103.5t-68.5 37.5q-43 0 -67.5 -38t-24.5 -103t24.5 -103t67.5 -38zM577 -15q-67 0 -108 53t-41 142
t41 142t108 53t108.5 -53.5t41.5 -141.5t-41.5 -141.5t-108.5 -53.5zM577 39q44 0 68.5 37.5t24.5 103.5t-24.5 103.5t-68.5 37.5q-43 0 -67.5 -38t-24.5 -103t24.5 -103t67.5 -38z" />
    <glyph glyph-name="ampersand" unicode="&#x26;" horiz-adv-x="664" 
d="M533 341v-341h-215q-128 0 -192 56q-62 57 -62 143q0 68 38 117t108 61q-56 11 -90 53t-34 101q0 77 61 126.5t173 49.5q61 0 95 -8l-10 -62q-34 6 -78 6q-83 0 -124.5 -34.5t-41.5 -85.5q0 -54 40 -86t108 -32h152v130h72v-130h109v-64h-109zM319 64h142v277h-170
q-75 0 -113.5 -39.5t-38.5 -98.5q0 -60 44.5 -99.5t135.5 -39.5z" />
    <glyph glyph-name="quotesingle" unicode="'" horiz-adv-x="203" 
d="M137 700l-7 -245h-57l-6 245h70z" />
    <glyph glyph-name="parenleft" unicode="(" horiz-adv-x="290" 
d="M45 295q0 145 46 251.5t104 153.5h71q-68 -59 -111.5 -165.5t-43.5 -239.5t43.5 -239t111.5 -166h-71q-58 47 -104 154t-46 251z" />
    <glyph glyph-name="parenright" unicode=")" horiz-adv-x="290" 
d="M245 295q0 -144 -46 -251t-104 -154h-71q68 60 111.5 166t43.5 239t-43.5 239.5t-111.5 165.5h71q58 -47 104 -153.5t46 -251.5z" />
    <glyph glyph-name="asterisk" unicode="*" horiz-adv-x="372" 
d="M304 423l-44 -32l-74 113l-74 -113l-44 32l83 106l-126 36l17 53l122 -48l-6 130h56l-6 -130l122 48l17 -53l-125 -36z" />
    <glyph glyph-name="plus" unicode="+" horiz-adv-x="600" 
d="M272 301h-205v56h205v215h56v-215h205v-56h-205v-215h-56v215z" />
    <glyph glyph-name="comma" unicode="," horiz-adv-x="257" 
d="M190 113l-82 -245h-58l70 245h70z" />
    <glyph glyph-name="hyphen" unicode="-" horiz-adv-x="270" 
d="M250 251h-230v55h230v-55z" />
    <glyph glyph-name="period" unicode="." horiz-adv-x="257" 
d="M167 0h-77v109h77v-109z" />
    <glyph glyph-name="slash" unicode="/" horiz-adv-x="443" 
d="M382 700h61l-382 -786h-61z" />
    <glyph glyph-name="zero" unicode="0" horiz-adv-x="595" 
d="M298 -15q-118 0 -185 101t-67 264t67 264t184 101t184.5 -101t67.5 -264q0 -162 -67.5 -263.5t-183.5 -101.5zM298 51q85 0 130.5 82.5t45.5 216.5q0 135 -46 217t-131 82t-130.5 -82t-45.5 -217q0 -134 46 -216.5t131 -82.5z" />
    <glyph glyph-name="one" unicode="1" horiz-adv-x="414" 
d="M34 525l-10 72l209 103h65v-700h-72v624z" />
    <glyph glyph-name="two" unicode="2" 
d="M72 0v64l232 225q72 71 101 120.5t29 103.5q0 51 -35 93t-106 42q-77 0 -114 -48t-42 -108l-71 7q3 38 17.5 74t40 69t69.5 53t99 20q102 0 159.5 -60t57.5 -135q0 -73 -35.5 -134.5t-120.5 -143.5l-179 -175h339v-67h-441z" />
    <glyph glyph-name="three" unicode="3" 
d="M288 -15q-97 0 -166.5 57t-72.5 139l71 9q3 -58 51.5 -99t115.5 -41q76 0 119.5 48t43.5 119q0 69 -44 111.5t-114 42.5q-46 0 -83 -34v61l223 235h-354v67h441v-62l-172 -184q-26 -26 -28 -27v-4q8 2 17 2q82 0 136 -58t54 -147q0 -99 -65 -167t-173 -68z" />
    <glyph glyph-name="four" unicode="4" 
d="M454 159v-159h-72v159h-351v66l299 475h124v-475h98v-66h-98zM378 655l-274 -430h278v430h-4z" />
    <glyph glyph-name="five" unicode="5" horiz-adv-x="575" 
d="M283 -15q-86 0 -151 46t-80 117l70 18q11 -52 57 -83q47 -32 104 -32q74 0 123 50t49 123q0 77 -47 126.5t-121 49.5q-48 0 -86 -21.5t-54 -57.5h-66v379h416v-67h-349v-231q47 63 157 63q99 0 162.5 -66t63.5 -169q0 -104 -70.5 -174.5t-177.5 -70.5z" />
    <glyph glyph-name="six" unicode="6" horiz-adv-x="575" 
d="M309 -15q-125 0 -191 90t-66 270q0 177 67.5 273.5t189.5 96.5q82 0 140 -41.5t76 -112.5l-72 -13q-11 46 -49.5 73.5t-93.5 27.5q-87 0 -136 -74t-49 -210q0 -19 1 -32q23 53 72 81.5t114 28.5q100 0 163.5 -62.5t63.5 -161.5q0 -102 -65 -168t-165 -66zM304 50
q74 0 118 47t44 118q0 70 -44 117.5t-118 47.5t-118.5 -47.5t-44.5 -117.5q0 -71 44 -118t119 -47z" />
    <glyph glyph-name="seven" unicode="7" 
d="M73 700h441v-67l-344 -633h-82l350 633h-365v67z" />
    <glyph glyph-name="eight" unicode="8" horiz-adv-x="575" 
d="M288 -15q-113 0 -176 59.5t-63 142.5q0 64 35 114q37 50 91 65q-48 15 -77 60.5t-29 103.5q0 69 56.5 127t162.5 58q55 0 98.5 -17.5t68.5 -46t38 -59.5t13 -62q0 -59 -29 -104t-77 -60q55 -15 90 -65q36 -49 36 -114q0 -83 -63 -142.5t-175 -59.5zM287 393
q67 0 105.5 37t38.5 91q0 47 -37.5 88t-106.5 41t-106.5 -41t-37.5 -88q0 -54 39 -91t105 -37zM287 50q74 0 118 42t44 100q0 59 -44 100t-118 41q-75 0 -119 -41q-43 -40 -43 -100q0 -58 44 -100t118 -42z" />
    <glyph glyph-name="nine" unicode="9" horiz-adv-x="575" 
d="M266 715q125 0 191 -90t66 -270q0 -176 -68 -273t-190 -97q-81 0 -139 41.5t-76 112.5l71 13q12 -46 50.5 -73.5t92.5 -27.5q88 0 136.5 74t48.5 210q0 19 -1 32q-23 -53 -71.5 -81.5t-113.5 -28.5q-99 0 -163.5 62.5t-64.5 161.5q0 102 65 168t166 66zM271 650
q-73 0 -117.5 -47t-44.5 -118q0 -70 44.5 -117.5t117.5 -47.5q75 0 118.5 47.5t43.5 117.5q0 71 -43.5 118t-118.5 47z" />
    <glyph glyph-name="colon" unicode=":" horiz-adv-x="257" 
d="M166 357h-77v109h77v-109zM166 0h-77v109h77v-109z" />
    <glyph glyph-name="semicolon" unicode=";" horiz-adv-x="262" 
d="M172 357h-77v109h77v-109zM190 113l-82 -245h-58l70 245h70z" />
    <glyph glyph-name="less" unicode="&#x3c;" horiz-adv-x="600" 
d="M530 181v-61l-457 183v52l457 182v-61l-373 -146v-3z" />
    <glyph glyph-name="equal" unicode="=" horiz-adv-x="600" 
d="M513 416h-426v56h426v-56zM513 186h-426v57h426v-57z" />
    <glyph glyph-name="greater" unicode="&#x3e;" horiz-adv-x="600" 
d="M73 476v61l457 -183v-52l-457 -182v61l373 146v3z" />
    <glyph glyph-name="question" unicode="?" horiz-adv-x="504" 
d="M286 210v-8h-71v15q0 43 17.5 78t42.5 60t50 48.5t42.5 55.5t17.5 69q0 48 -34 84t-92 36q-68 0 -105 -49t-39 -115l-70 5q7 95 61.5 160.5t152.5 65.5q92 0 146.5 -54t54.5 -131q0 -48 -18 -86.5t-43.5 -64t-51 -49.5t-43.5 -54t-18 -66zM290 0h-79v98h79v-98z" />
    <glyph glyph-name="at" unicode="@" horiz-adv-x="896" 
d="M415 51q-72 0 -114.5 48.5t-42.5 129.5q0 101 54 171.5t143 70.5q43 0 74.5 -19.5t41.5 -53.5h2l8 54h67l-36 -256q-6 -44 8.5 -68t45.5 -24q50 0 83 54t33 138q0 144 -91 237.5t-238 93.5q-143 0 -240 -106.5t-97 -265.5q0 -156 98 -259.5t243 -103.5q61 0 122 23.5
t102 61.5l28 -40q-36 -41 -110 -69t-148 -28q-167 0 -278.5 116t-111.5 295q0 185 113 307t279 122q167 0 276 -108t109 -272q0 -108 -51.5 -178.5t-130.5 -70.5q-42 0 -68 21.5t-30 59.5h-2q-16 -36 -55 -58.5t-86 -22.5zM427 108q58 0 97 51.5t39 125.5q0 60 -28 94.5
t-78 34.5q-57 0 -96.5 -52t-39.5 -125q0 -60 28.5 -94.5t77.5 -34.5z" />
    <glyph glyph-name="A" unicode="A" horiz-adv-x="673" 
d="M378 709l269 -709h-79l-81 217h-303l-80 -217h-78l270 709h82zM338 624h-4l-125 -340h255z" />
    <glyph glyph-name="B" unicode="B" horiz-adv-x="634" 
d="M537 520q0 -58 -30 -101.5t-87 -54.5q78 -11 113 -59q37 -47 37 -110q0 -87 -56.5 -141t-163.5 -54h-250v700h231q98 0 152 -49.5t54 -130.5zM325 632h-151v-240h163q62 0 93.5 33.5t31.5 85.5t-34 86.5t-103 34.5zM495 199q0 56 -38 92.5t-116 36.5h-167v-260h173
q73 0 110.5 38t37.5 93z" />
    <glyph glyph-name="C" unicode="C" horiz-adv-x="736" 
d="M60 350q0 165 95 265t241 100q104 0 181.5 -56t108.5 -154l-76 -12q-22 67 -79.5 110t-134.5 43q-113 0 -187.5 -83t-74.5 -213q0 -129 74 -212.5t187 -83.5q76 0 133.5 42t82.5 115l71 -18q-27 -95 -104 -151.5t-180 -56.5q-146 0 -242 100.5t-96 264.5z" />
    <glyph glyph-name="D" unicode="D" horiz-adv-x="723" 
d="M664 350q0 -171 -104 -260.5t-263 -89.5h-197v700h206q159 0 258.5 -95t99.5 -255zM588 350q0 129 -78 205.5t-202 76.5h-134v-564h135q124 0 201.5 76.5t77.5 205.5z" />
    <glyph glyph-name="E" unicode="E" horiz-adv-x="619" 
d="M100 700h451v-68h-377v-243h286v-68h-286v-253h377v-68h-451v700z" />
    <glyph glyph-name="F" unicode="F" horiz-adv-x="593" 
d="M100 700h447v-68h-373v-246h282v-68h-282v-318h-74v700z" />
    <glyph glyph-name="G" unicode="G" horiz-adv-x="765" 
d="M685 520l-71 -26q-24 66 -81 109t-135 43q-115 0 -189.5 -83t-74.5 -213t74 -213t191 -83q104 0 163 65t69 166h-228v68h307v-28q-6 -155 -89 -247.5t-222 -92.5q-148 0 -243.5 101t-95.5 264q0 161 95.5 263t240.5 102q101 0 178 -53q78 -53 111 -142z" />
    <glyph glyph-name="H" unicode="H" horiz-adv-x="743" 
d="M569 700h74v-700h-74v314h-395v-314h-74v700h74v-318h395v318z" />
    <glyph glyph-name="I" unicode="I" horiz-adv-x="274" 
d="M100 700h74v-700h-74v700z" />
    <glyph glyph-name="J" unicode="J" horiz-adv-x="424" 
d="M124 -10q-51 0 -89 22v70q35 -24 80 -24q147 0 147 180v394h-188v68h262v-469q0 -241 -212 -241z" />
    <glyph glyph-name="K" unicode="K" horiz-adv-x="631" 
d="M174 336v-336h-74v700h74v-333l313 333h89l-323 -342l360 -358h-100z" />
    <glyph glyph-name="L" unicode="L" horiz-adv-x="525" 
d="M100 0v700h74v-632h337v-68h-411z" />
    <glyph glyph-name="M" unicode="M" horiz-adv-x="904" 
d="M804 700v-700h-73v598h-4l-243 -598h-65l-241 598h-4v-598h-74v700h113l239 -588h4l239 588h109z" />
    <glyph glyph-name="N" unicode="N" horiz-adv-x="783" 
d="M682 700v-709h-81l-427 603v-594h-74v709h81l428 -603v594h73z" />
    <glyph glyph-name="O" unicode="O" horiz-adv-x="806" 
d="M747 350q0 -161 -99 -263t-245 -102q-145 0 -244 102t-99 263t99 263t244 102q146 0 245 -102t99 -263zM672 350q0 131 -78 213.5t-191 82.5q-112 0 -190 -82.5t-78 -213.5t78 -213.5t190 -82.5q113 0 191 82.5t78 213.5z" />
    <glyph glyph-name="P" unicode="P" horiz-adv-x="613" 
d="M348 279h-174v-279h-74v700h242q100 0 165 -59.5t65 -150.5q0 -88 -62.5 -149.5t-161.5 -61.5zM496 490q0 58 -42.5 100t-123.5 42h-156v-285h163q76 0 117.5 42.5t41.5 100.5z" />
    <glyph glyph-name="Q" unicode="Q" horiz-adv-x="806" 
d="M683 -71l-70 -9l-57 100q-72 -35 -153 -35q-145 0 -244 102t-99 263t99 263t244 102q146 0 245 -102t99 -263q0 -95 -36 -171t-100 -125zM672 350q0 131 -78 213.5t-191 82.5q-112 0 -190 -82.5t-78 -213.5t78 -213.5t190 -82.5q61 0 117 27l-61 107l70 8l45 -78
q98 83 98 232z" />
    <glyph glyph-name="R" unicode="R" horiz-adv-x="631" 
d="M585 0h-87l-193 313h-131v-313h-74v700h238q95 0 154.5 -53.5t59.5 -142.5q0 -71 -44.5 -123t-121.5 -64zM477 503q0 52 -37.5 90.5t-113.5 38.5h-152v-258h154q74 0 111.5 38.5t37.5 90.5z" />
    <glyph glyph-name="S" unicode="S" horiz-adv-x="595" 
d="M304 -15q-92 0 -162.5 48t-81.5 136l71 14q10 -66 60 -99.5t115 -33.5q71 0 115 37.5t44 97.5q0 41 -21 68.5t-54.5 41.5t-73.5 24.5t-80.5 23t-74 31.5t-54.5 57t-21 92q0 87 62 139.5t157 52.5q96 0 158 -52.5t73 -134.5l-71 -12q-9 59 -51.5 96.5t-111.5 37.5
q-60 0 -100.5 -32.5t-40.5 -89.5q0 -55 39 -85.5t94.5 -43.5t111.5 -29.5t95 -59.5t39 -117q0 -94 -66.5 -151t-169.5 -57z" />
    <glyph glyph-name="T" unicode="T" horiz-adv-x="575" 
d="M31 700h513v-68h-219v-632h-74v632h-220v68z" />
    <glyph glyph-name="U" unicode="U" horiz-adv-x="727" 
d="M363 -15q-126 0 -200 75.5t-74 221.5v418h73v-408q0 -119 53.5 -178t147.5 -59q95 0 149 59t54 178v408h73v-417q0 -147 -74 -222.5t-202 -75.5z" />
    <glyph glyph-name="V" unicode="V" horiz-adv-x="673" 
d="M647 700l-270 -709h-82l-269 709h82l228 -611h4l230 611h77z" />
    <glyph glyph-name="W" unicode="W" horiz-adv-x="975" 
d="M225 -9l-195 709h83l156 -584h4l180 584h75l180 -583h5l156 583h76l-192 -709h-79l-183 594h-4l-183 -594h-79z" />
    <glyph glyph-name="X" unicode="X" horiz-adv-x="684" 
d="M387 364l247 -364h-85l-208 305l-206 -305h-85l246 364l-226 336h85l188 -277l187 277h86z" />
    <glyph glyph-name="Y" unicode="Y" horiz-adv-x="612" 
d="M343 301v-301h-73v301l-245 399h87l195 -325h4l195 325h81z" />
    <glyph glyph-name="Z" unicode="Z" horiz-adv-x="622" 
d="M562 68v-68h-497v64l400 568h-377v68h469v-64l-401 -568h406z" />
    <glyph glyph-name="bracketleft" unicode="[" horiz-adv-x="273" 
d="M243 -55v-55h-171v810h171v-55h-109v-700h109z" />
    <glyph glyph-name="backslash" unicode="\" horiz-adv-x="443" 
d="M443 -86h-61l-382 786h61z" />
    <glyph glyph-name="bracketright" unicode="]" horiz-adv-x="273" 
d="M30 645v55h171v-810h-171v55h109v700h-109z" />
    <glyph glyph-name="asciicircum" unicode="^" horiz-adv-x="600" 
d="M322 700l211 -506h-62l-170 413h-2l-170 -413h-62l211 506h44z" />
    <glyph glyph-name="underscore" unicode="_" horiz-adv-x="500" 
d="M500 -125h-500v55h500v-55z" />
    <glyph glyph-name="grave" unicode="`" horiz-adv-x="500" 
d="M165 700h85l85 -147h-66z" />
    <glyph glyph-name="a" unicode="a" horiz-adv-x="517" 
d="M445 309v-309h-67v59h-2q-19 -34 -59.5 -53.5t-90.5 -19.5q-73 0 -118 39.5t-45 102.5q0 68 52 109.5t140 41.5q78 0 120 -25v54q0 54 -29 84.5t-82 30.5q-87 0 -112 -76l-70 7q17 60 67 93.5t120 33.5q83 0 129.5 -45.5t46.5 -126.5zM134 134q0 -40 30 -65.5t76 -25.5
q54 0 95 32.5t41 73.5v49q-41 28 -114 28q-60 0 -94 -25t-34 -67z" />
    <glyph glyph-name="b" unicode="b" horiz-adv-x="577" 
d="M539 232q0 -109 -62 -178t-159 -69q-56 0 -101 23.5t-68 65.5h-2v-74h-65v700h70v-309q50 90 164 90q98 0 160.5 -69.5t62.5 -179.5zM468 232q0 80 -44 133t-117 53q-72 0 -114.5 -51t-42.5 -135q0 -82 42.5 -133t114.5 -51q73 0 117 53t44 131z" />
    <glyph glyph-name="c" unicode="c" horiz-adv-x="508" 
d="M265 481q162 0 208 -151l-68 -11q-33 99 -138 99q-72 0 -112.5 -52t-40.5 -133t40 -133t113 -52q103 0 137 100l66 -17q-22 -70 -74 -108t-128 -38q-102 0 -163 70.5t-61 177.5q0 109 61.5 178.5t159.5 69.5z" />
    <glyph glyph-name="d" unicode="d" horiz-adv-x="582" 
d="M44 232q0 110 62.5 179.5t159.5 69.5q54 0 97.5 -22t67.5 -61v302h70v-700h-65v82h-2q-50 -97 -169 -97q-97 0 -159 69t-62 178zM115 232q0 -80 45.5 -132t115.5 -52q71 0 113.5 51t42.5 133q0 84 -42.5 135t-113.5 51q-73 0 -117 -53t-44 -133z" />
    <glyph glyph-name="e" unicode="e" horiz-adv-x="529" 
d="M411 127l59 -18q-57 -124 -193 -124q-104 0 -168.5 70t-64.5 177t61 178t161 71q92 0 155.5 -63t66.5 -177v-24h-373q5 -77 48.5 -125t114.5 -48q92 0 133 83zM267 425q-65 0 -104.5 -42.5t-46.5 -115.5h299q-4 79 -46.5 118.5t-101.5 39.5z" />
    <glyph glyph-name="f" unicode="f" horiz-adv-x="326" 
d="M113 405h-95v61h95v89q0 74 38 117t113 43q36 0 62 -8v-60q-26 6 -49 6q-94 0 -94 -104v-83h143v-61h-143v-405h-70v405z" />
    <glyph glyph-name="g" unicode="g" horiz-adv-x="566" 
d="M46 248q0 104 61 168.5t155 64.5q106 0 152 -74h3v59h67v-441q0 -108 -54.5 -166.5t-154.5 -58.5q-79 0 -135 35.5t-71 91.5l71 16q9 -38 46 -61.5t89 -23.5q66 0 102.5 40t36.5 113v88q-17 -37 -59.5 -59.5t-96.5 -22.5q-91 0 -151.5 64.5t-60.5 166.5zM117 248
q0 -76 42 -123q43 -46 108 -46q68 0 109.5 47t41.5 122q0 76 -41.5 123.5t-109.5 47.5q-66 0 -108 -47t-42 -124z" />
    <glyph glyph-name="h" unicode="h" horiz-adv-x="541" 
d="M81 0v700h70v-307q21 40 61.5 64t91.5 24q76 0 120.5 -49.5t44.5 -134.5v-297h-70v281q0 66 -29 101.5t-81 35.5q-59 0 -98.5 -42.5t-39.5 -106.5v-269h-70z" />
    <glyph glyph-name="i" unicode="i" horiz-adv-x="233" 
d="M152 700v-102h-71v102h71zM152 466v-466h-71v466h71z" />
    <glyph glyph-name="j" unicode="j" horiz-adv-x="233" 
d="M152 700v-102h-71v102h71zM-2 -193q-24 0 -40 4v62q21 -3 28 -3q95 0 95 110v486h71v-492q0 -80 -39.5 -123.5t-114.5 -43.5z" />
    <glyph glyph-name="k" unicode="k" horiz-adv-x="479" 
d="M152 230v-230h-71v700h71v-435l213 201h86l-230 -212l256 -254h-92z" />
    <glyph glyph-name="l" unicode="l" horiz-adv-x="233" 
d="M81 0v700h71v-700h-71z" />
    <glyph glyph-name="m" unicode="m" horiz-adv-x="829" 
d="M757 301v-301h-70v281q0 64 -28 100.5t-78 36.5q-53 0 -90 -41.5t-37 -100.5v-276h-70v281q0 64 -28 100.5t-78 36.5q-53 0 -90 -41.5t-37 -100.5v-276h-70v466h66v-67h4q18 36 57.5 59t87.5 23q52 0 91.5 -27t52.5 -71q24 46 65 72t92 26q73 0 116.5 -48.5t43.5 -131.5z
" />
    <glyph glyph-name="n" unicode="n" horiz-adv-x="541" 
d="M469 297v-297h-70v281q0 66 -29 101.5t-81 35.5q-59 0 -98.5 -42.5t-39.5 -106.5v-269h-70v466h66v-73h4q20 41 60.5 64.5t92.5 23.5q76 0 120.5 -49.5t44.5 -134.5z" />
    <glyph glyph-name="o" unicode="o" horiz-adv-x="553" 
d="M44 233q0 110 65.5 179t166.5 69t167 -69t66 -179q0 -109 -66.5 -178.5t-166.5 -69.5q-101 0 -166.5 69.5t-65.5 178.5zM114 233q0 -79 45 -132t117 -53q74 0 118.5 52.5t44.5 132.5q0 81 -44.5 133t-118.5 52q-73 0 -117.5 -52t-44.5 -133z" />
    <glyph glyph-name="p" unicode="p" horiz-adv-x="582" 
d="M539 233q0 -109 -63 -178.5t-160 -69.5q-54 0 -97.5 22t-66.5 61v-268h-70v666h64v-82h2q24 47 69 72t100 25q98 0 160 -69.5t62 -178.5zM468 233q0 80 -45.5 132.5t-115.5 52.5q-72 0 -114.5 -51t-42.5 -134t42.5 -134.5t114.5 -51.5q73 0 117 53.5t44 132.5z" />
    <glyph glyph-name="q" unicode="q" horiz-adv-x="582" 
d="M44 233q0 109 61.5 178.5t159.5 69.5q55 0 100 -23.5t68 -66.5h2v75h66v-666h-71v275q-22 -42 -65 -66t-100 -24q-96 0 -158.5 69.5t-62.5 178.5zM115 233q0 -79 43.5 -132.5t117.5 -53.5q71 0 113.5 51.5t42.5 134.5t-42.5 134t-113.5 51q-74 0 -117.5 -53t-43.5 -132z
" />
    <glyph glyph-name="r" unicode="r" horiz-adv-x="333" 
d="M81 0v466h66v-77h4q18 41 54 65t79 24q24 0 39 -7v-68q-15 6 -39 6q-59 0 -96 -46t-37 -125v-238h-70z" />
    <glyph glyph-name="s" unicode="s" horiz-adv-x="442" 
d="M229 -15q-70 0 -119.5 33.5t-62.5 90.5l64 13q10 -39 42.5 -61t77.5 -22q48 0 73.5 24.5t25.5 63.5q0 35 -27.5 54t-67 27t-79 18.5t-67 40t-27.5 80.5q0 60 44.5 97t116.5 37q66 0 114.5 -34t57.5 -86l-66 -14q-4 35 -33.5 57t-71.5 22q-45 0 -68.5 -21.5t-23.5 -52.5
q0 -34 27.5 -53t67 -27.5t79 -19.5t67 -40.5t27.5 -80.5q0 -67 -47.5 -106.5t-123.5 -39.5z" />
    <glyph glyph-name="t" unicode="t" horiz-adv-x="348" 
d="M256 -9q-146 0 -146 161v253h-95v61h95v136l70 14v-150h151v-61h-151v-241q0 -61 21 -87.5t67 -26.5q37 0 57 13l10 -57q-27 -15 -79 -15z" />
    <glyph glyph-name="u" unicode="u" horiz-adv-x="541" 
d="M459 466v-466h-65v73h-4q-19 -40 -59.5 -64t-93.5 -24q-76 0 -120.5 49.5t-44.5 134.5v297h70v-282q0 -65 29 -101t81 -36q59 0 98.5 43t39.5 107v269h69z" />
    <glyph glyph-name="v" unicode="v" horiz-adv-x="493" 
d="M471 466l-193 -474h-64l-192 474h77l149 -383h2l150 383h71z" />
    <glyph glyph-name="w" unicode="w" horiz-adv-x="741" 
d="M714 466l-151 -474h-64l-127 383l-128 -383h-67l-150 474h74l114 -374h2l124 374h66l124 -373h2l114 373h67z" />
    <glyph glyph-name="x" unicode="x" horiz-adv-x="460" 
d="M274 241l170 -241h-81l-134 192l-134 -192h-79l170 238l-160 228h80l126 -180l126 180h77z" />
    <glyph glyph-name="y" unicode="y" horiz-adv-x="494" 
d="M472 466l-269 -659h-70l85 207l-198 452h78l158 -369l145 369h71z" />
    <glyph glyph-name="z" unicode="z" horiz-adv-x="452" 
d="M72 466h339v-56l-280 -350h293v-60h-376v56l280 350h-256v60z" />
    <glyph glyph-name="braceleft" unicode="{" horiz-adv-x="308" 
d="M279 -56v-54q-32 2 -52.5 5t-46.5 14t-40.5 29t-24.5 51t-10 80v128q0 43 -15 57.5t-77 15.5v50q62 3 77 16.5t15 56.5v128q0 47 10 80t24.5 51t40.5 29t46.5 14t52.5 5v-54q-62 -2 -87.5 -27t-25.5 -101v-124q0 -51 -16 -72t-60 -25v-4q44 -4 60 -25t16 -72v-124
q0 -75 25 -100t88 -28z" />
    <glyph glyph-name="bar" unicode="|" horiz-adv-x="230" 
d="M137 -110h-44v861h44v-861z" />
    <glyph glyph-name="braceright" unicode="}" horiz-adv-x="308" 
d="M29 646v54q32 -2 52.5 -5t46.5 -14t40.5 -29t24.5 -51t10 -80v-128q0 -43 15 -56.5t77 -16.5v-50q-62 -1 -77 -15.5t-15 -57.5v-128q0 -47 -10 -80t-24.5 -51t-40.5 -29t-46.5 -14t-52.5 -5v54q63 3 88 28t25 100v124q0 51 16 72t60 25v4q-44 4 -60 25t-16 72v124
q0 76 -25 101t-88 27z" />
    <glyph glyph-name="asciitilde" unicode="~" horiz-adv-x="600" 
d="M404 268q-46 0 -108 33t-102 33q-68 0 -107 -61v63q38 54 109 54q46 0 108 -33t102 -33q67 0 107 61v-62q-15 -21 -43.5 -38t-65.5 -17z" />
    <glyph glyph-name="exclamdown" unicode="&#xa1;" horiz-adv-x="303" 
d="M112 462h79v-98h-79v98zM109 -238l13 498h59l13 -498h-85z" />
    <glyph glyph-name="cent" unicode="&#xa2;" horiz-adv-x="533" 
d="M308 -14v-87h-60v88q-92 12 -147.5 83.5t-55.5 174.5q0 105 55.5 177.5t147.5 82.5v88h60v-87q145 -14 188 -153l-68 -16q-38 107 -149 107q-78 0 -121 -56t-43 -143q0 -85 43.5 -141t120.5 -56q108 0 148 107l69 -14q-45 -141 -188 -155z" />
    <glyph glyph-name="sterling" unicode="&#xa3;" 
d="M508 67v-67h-441v57q28 15 45.5 30.5t33.5 51t16 85.5q0 46 -11 101h-97v51h87q-16 88 -16 134q0 100 56 152.5t144 52.5q74 0 121 -35.5t65 -88.5l-67 -21q-11 32 -40 55.5t-78 23.5q-53 0 -90.5 -32t-37.5 -102q0 -45 18 -139h189v-51h-179q10 -46 10 -94
q0 -106 -73 -160v-4h345z" />
    <glyph glyph-name="currency" unicode="&#xa4;" horiz-adv-x="600" 
d="M299 171q-50 0 -90 28l-101 -102l-40 40l102 102q-29 43 -29 90t29 90l-102 102l40 40l101 -103q41 29 90 29q52 0 90 -29l103 103l40 -40l-103 -103q29 -38 29 -89q0 -49 -29 -90l103 -102l-40 -40l-103 103q-38 -29 -90 -29zM299 219q46 0 78 32t32 78t-32 78t-78 32
t-77.5 -32t-31.5 -78t31.5 -78t77.5 -32z" />
    <glyph glyph-name="yen" unicode="&#xa5;" 
d="M323 248v-248h-71v248h-208v51h208v15l-55 87h-153v51h123l-152 248h86l187 -312h4l188 312h80l-153 -248h125v-51h-155l-54 -87v-15h209v-51h-209z" />
    <glyph glyph-name="brokenbar" unicode="&#xa6;" horiz-adv-x="230" 
d="M137 401h-44v350h44v-350zM137 -110h-44v350h44v-350z" />
    <glyph glyph-name="section" unicode="&#xa7;" horiz-adv-x="575" 
d="M300 -172q-89 0 -148 45t-71 114l69 13q7 -47 47 -79.5t103 -32.5q59 0 94.5 28.5t35.5 74.5q0 36 -20 60t-52 36.5t-71 22t-78 21t-71 28.5t-52 49t-20 78q0 101 92 134q-74 43 -74 126q0 76 56 122.5t147 46.5q87 0 144.5 -43.5t73.5 -113.5l-68 -15q-7 47 -47.5 79.5
t-103.5 32.5q-58 0 -93.5 -27.5t-35.5 -74.5q0 -41 27 -67.5t67 -37.5t87.5 -24.5t87.5 -28t67 -50t27 -88.5q0 -50 -25.5 -84.5t-66.5 -49.5q75 -43 75 -125q0 -75 -56.5 -122.5t-146.5 -47.5zM449 248q0 32 -14 54.5t-40.5 35t-53.5 20.5t-65.5 17.5t-62.5 19.5
q-75 -26 -75 -99q0 -32 14 -54.5t41 -35.5t53 -21t65 -17.5t62 -18.5q76 26 76 99z" />
    <glyph glyph-name="dieresis" unicode="&#xa8;" horiz-adv-x="500" 
d="M185 677v-101h-66v101h66zM381 677v-101h-66v101h66z" />
    <glyph glyph-name="copyright" unicode="&#xa9;" horiz-adv-x="783" 
d="M735 350q0 -161 -99.5 -263t-244.5 -102t-244.5 102t-99.5 263t99.5 263t244.5 102t244.5 -102t99.5 -263zM685 350q0 140 -85 229t-209 89t-209 -89.5t-85 -228.5t85 -228t209 -89t209 89t85 228zM397 144q-84 0 -138.5 57t-54.5 149q0 93 54 149.5t138 56.5
q58 0 102 -30t61 -82l-54 -16q-11 34 -41 55.5t-69 21.5q-58 0 -96.5 -42.5t-38.5 -112.5q0 -69 39 -112t98 -43q38 0 66.5 21t41.5 55l52 -20q-19 -49 -61.5 -78t-98.5 -29z" />
    <glyph glyph-name="ordfeminine" unicode="&#xaa;" horiz-adv-x="402" 
d="M346 580v-230h-59v42h-2q-15 -24 -45.5 -38.5t-65.5 -14.5q-53 0 -87 30.5t-34 77.5q0 55 38.5 85.5t107.5 30.5q56 0 85 -17v37q0 75 -78 75q-61 0 -78 -49l-60 10q14 44 51.5 68t89.5 24q63 0 100 -34.5t37 -96.5zM114 451q0 -28 20.5 -44t56.5 -16t65 23t29 51v33
q-31 18 -81 18q-42 0 -66 -17t-24 -48z" />
    <glyph glyph-name="guillemotleft" unicode="&#xab;" horiz-adv-x="443" 
d="M128 278l99 -202h-67l-99 202l99 202h67zM287 278l99 -202h-67l-99 202l99 202h67z" />
    <glyph glyph-name="logicalnot" unicode="&#xac;" horiz-adv-x="600" 
d="M523 357v-261h-56v205h-417v56h473z" />
    <glyph glyph-name="registered" unicode="&#xae;" horiz-adv-x="783" 
d="M735 350q0 -161 -99.5 -263t-244.5 -102t-244.5 102t-99.5 263t99.5 263t244.5 102t244.5 -102t99.5 -263zM685 350q0 140 -85 229t-209 89t-209 -89.5t-85 -228.5t85 -228t209 -89t209 89t85 228zM321 323v-170h-55v394h133q58 0 92.5 -29.5t34.5 -84.5q0 -40 -22 -68
t-63 -38l105 -174h-64l-100 170h-61zM395 496h-74v-127h76q37 0 55 18t18 45t-18 45.5t-57 18.5z" />
    <glyph glyph-name="overscore" unicode="&#xaf;" horiz-adv-x="500" 
d="M412 652v-51h-324v51h324z" />
    <glyph glyph-name="degree" unicode="&#xb0;" horiz-adv-x="343" 
d="M172 437q-58 0 -99 40.5t-41 100.5t41 100.5t99 40.5q59 0 99 -40.5t40 -100.5t-40 -100.5t-99 -40.5zM172 483q39 0 66 27.5t27 67.5t-27 68t-66 28q-40 0 -67 -28t-27 -68t27 -67.5t67 -27.5z" />
    <glyph glyph-name="plusminus" unicode="&#xb1;" horiz-adv-x="600" 
d="M272 421h-165v56h165v147h56v-147h165v-56h-165v-146h-56v146zM493 107h-386v56h386v-56z" />
    <glyph glyph-name="twosuperior" unicode="&#xb2;" horiz-adv-x="352" 
d="M315 451v-51h-271v44l139 135q43 45 59 71.5t16 55.5q0 31 -22 51.5t-56 20.5q-36 0 -60 -24t-26 -63l-53 5q4 60 43 96.5t99 36.5q59 0 95.5 -33t36.5 -86q0 -40 -20 -75q-21 -37 -71 -87l-99 -97h190z" />
    <glyph glyph-name="threesuperior" unicode="&#xb3;" horiz-adv-x="352" 
d="M177 391q-60 0 -102 34.5t-45 84.5l54 5q4 -32 29 -53t62 -21q41 0 65.5 25t24.5 65q0 39 -23 61.5t-63 22.5q-29 0 -52 -17v49l120 122h-200v51h268v-47l-97 -100q-12 -12 -18 -15v-4q6 2 11 2q50 0 80.5 -34t30.5 -89q0 -62 -40.5 -102t-104.5 -40z" />
    <glyph glyph-name="acute" unicode="&#xb4;" horiz-adv-x="500" 
d="M344 700l-113 -147h-66l93 147h86z" />
    <glyph glyph-name="mu" unicode="&#xb5;" horiz-adv-x="544" 
d="M151 -177h-70v322q-1 8 -1 24v297h70v-245h1v-60q5 -55 33 -84.5t76 -29.5q59 0 98.5 43t39.5 107v269h69v-466h-65v73h-4q-19 -40 -59.5 -64t-93.5 -24q-55 0 -94 27v-189z" />
    <glyph glyph-name="paragraph" unicode="&#xb6;" horiz-adv-x="572" 
d="M315 700v-810h-51v448h-14q-81 0 -135.5 50.5t-54.5 129.5q0 86 59 134t142 48h54zM460 700v-810h-51v810h51z" />
    <glyph glyph-name="middot" unicode="&#xb7;" horiz-adv-x="257" 
d="M167 229h-77v109h77v-109z" />
    <glyph glyph-name="cedilla" unicode="&#xb8;" horiz-adv-x="500" 
d="M300 0l-44 -200l-62 8l43 192h63z" />
    <glyph glyph-name="onesuperior" unicode="&#xb9;" horiz-adv-x="317" 
d="M51 705l-8 54l123 61h49v-420h-54v362z" />
    <glyph glyph-name="ordmasculine" unicode="&#xba;" horiz-adv-x="420" 
d="M33 525q0 84 50.5 135.5t127.5 51.5q76 0 126 -52t50 -135q0 -82 -50 -134.5t-126 -52.5t-127 52t-51 135zM94 525q0 -57 33 -94.5t84 -37.5q52 0 83 37t31 95t-31 95t-83 37q-51 0 -84 -37.5t-33 -94.5z" />
    <glyph glyph-name="guillemotright" unicode="&#xbb;" horiz-adv-x="443" 
d="M223 278l-99 -202h-67l99 202l-99 202h67zM382 278l-99 -202h-67l99 202l-99 202h67z" />
    <glyph glyph-name="onequarter" unicode="&#xbc;" horiz-adv-x="760" 
d="M612 700h57l-461 -700h-58zM51 585l-8 54l123 61h49v-420h-54v362zM688 97v-96h-55v96h-209v46l171 278h93v-274h54v-50h-54zM629 384l-149 -237h153v237h-4z" />
    <glyph glyph-name="onehalf" unicode="&#xbd;" horiz-adv-x="839" 
d="M612 700h57l-461 -700h-58zM51 585l-8 54l123 61h49v-420h-54v362zM798 51v-51h-271v44l139 135q43 45 59 71.5t16 55.5q0 31 -22 51.5t-56 20.5q-35 0 -59.5 -24t-26.5 -63l-53 5q4 60 43 96.5t99 36.5q59 0 95.5 -33t36.5 -86q0 -40 -20 -75q-21 -37 -71 -87l-99 -97
h190z" />
    <glyph glyph-name="threequarters" unicode="&#xbe;" horiz-adv-x="788" 
d="M641 700h57l-461 -700h-58zM177 271q-60 0 -102 34.5t-45 84.5l54 5q4 -32 29 -53t62 -21q41 0 65.5 25t24.5 65q0 39 -23 61.5t-63 22.5q-29 0 -52 -17v49l120 122h-200v51h268v-47l-97 -100q-12 -12 -18 -15v-4q6 2 11 2q50 0 80.5 -34t30.5 -89q0 -62 -40.5 -102
t-104.5 -40zM717 96v-96h-55v96h-209v46l171 278h93v-274h54v-50h-54zM658 383l-149 -237h153v237h-4z" />
    <glyph glyph-name="questiondown" unicode="&#xbf;" horiz-adv-x="504" 
d="M237 462h79v-98h-79v98zM241 252v8h71v-15q0 -43 -17.5 -78t-42.5 -60t-50 -48.5t-42.5 -55.5t-17.5 -69q0 -48 34 -84t92 -36q68 0 105 49t39 115l70 -5q-5 -93 -60.5 -159.5t-153.5 -66.5q-92 0 -146.5 54.5t-54.5 130.5q0 48 18 86.5t43.5 64t51 49.5t43.5 54t18 66z
" />
    <glyph glyph-name="Agrave" unicode="&#xc0;" horiz-adv-x="673" 
d="M294 846l74 -106h-66l-93 106h85zM378 709l269 -709h-79l-81 217h-303l-80 -217h-78l270 709h82zM338 624h-4l-125 -340h255z" />
    <glyph glyph-name="Aacute" unicode="&#xc1;" horiz-adv-x="673" 
d="M460 846l-93 -106h-66l74 106h85zM378 709l269 -709h-79l-81 217h-303l-80 -217h-78l270 709h82zM338 624h-4l-125 -340h255z" />
    <glyph glyph-name="Acircumflex" unicode="&#xc2;" horiz-adv-x="673" 
d="M387 846l98 -106h-68l-82 78l-82 -78h-69l99 106h104zM378 709l269 -709h-79l-81 217h-303l-80 -217h-78l270 709h82zM338 624h-4l-125 -340h255z" />
    <glyph glyph-name="Atilde" unicode="&#xc3;" horiz-adv-x="673" 
d="M401 747q-29 0 -70.5 23t-59.5 23q-33 0 -44 -45h-44q8 46 31 69t55 23q29 0 70.5 -23.5t59.5 -23.5q33 0 44 45h44q-7 -46 -29.5 -68.5t-56.5 -22.5zM378 709l269 -709h-79l-81 217h-303l-80 -217h-78l270 709h82zM338 624h-4l-125 -340h255z" />
    <glyph glyph-name="Adieresis" unicode="&#xc4;" horiz-adv-x="673" 
d="M270 841v-96h-66v96h66zM466 841v-96h-66v96h66zM378 709l269 -709h-79l-81 217h-303l-80 -217h-78l270 709h82zM338 624h-4l-125 -340h255z" />
    <glyph glyph-name="Aring" unicode="&#xc5;" horiz-adv-x="673" 
d="M337 743q-45 0 -75 28t-30 70q0 43 30 71t75 28q46 0 75.5 -28t29.5 -71q0 -42 -29.5 -70t-75.5 -28zM337 781q27 0 44 17.5t17 42.5q0 27 -17 44t-44 17t-44 -17t-17 -44q0 -25 17 -42.5t44 -17.5zM378 709l269 -709h-79l-81 217h-303l-80 -217h-78l270 709h82zM338 624
h-4l-125 -340h255z" />
    <glyph glyph-name="AE" unicode="&#xc6;" horiz-adv-x="953" 
d="M885 68v-68h-451v216h-239l-115 -216h-80l373 700h512v-68h-377v-243h286v-68h-286v-253h377zM434 632h-17l-186 -348h203v348z" />
    <glyph glyph-name="Ccedilla" unicode="&#xc7;" horiz-adv-x="736" 
d="M60 350q0 165 95 265t241 100q104 0 181.5 -56t108.5 -154l-76 -12q-22 67 -79.5 110t-134.5 43q-113 0 -187.5 -83t-74.5 -213q0 -129 74 -212.5t187 -83.5q76 0 133.5 42t82.5 115l71 -18q-27 -91 -99 -147t-169 -61l-41 -185l-62 8l40 180q-128 17 -209.5 114.5
t-81.5 247.5z" />
    <glyph glyph-name="Egrave" unicode="&#xc8;" horiz-adv-x="619" 
d="M285 846l74 -106h-66l-93 106h85zM100 700h451v-68h-377v-243h286v-68h-286v-253h377v-68h-451v700z" />
    <glyph glyph-name="Eacute" unicode="&#xc9;" horiz-adv-x="619" 
d="M452 846l-93 -106h-66l74 106h85zM100 700h451v-68h-377v-243h286v-68h-286v-253h377v-68h-451v700z" />
    <glyph glyph-name="Ecircumflex" unicode="&#xca;" horiz-adv-x="619" 
d="M378 846l98 -106h-68l-82 78l-82 -78h-69l99 106h104zM100 700h451v-68h-377v-243h286v-68h-286v-253h377v-68h-451v700z" />
    <glyph glyph-name="Edieresis" unicode="&#xcb;" horiz-adv-x="619" 
d="M261 841v-96h-66v96h66zM457 841v-96h-66v96h66zM100 700h451v-68h-377v-243h286v-68h-286v-253h377v-68h-451v700z" />
    <glyph glyph-name="Igrave" unicode="&#xcc;" horiz-adv-x="274" 
d="M96 846l74 -106h-66l-93 106h85zM100 700h74v-700h-74v700z" />
    <glyph glyph-name="Iacute" unicode="&#xcd;" horiz-adv-x="274" 
d="M263 846l-93 -106h-66l74 106h85zM100 700h74v-700h-74v700z" />
    <glyph glyph-name="Icircumflex" unicode="&#xce;" horiz-adv-x="274" 
d="M189 846l98 -106h-68l-82 78l-82 -78h-69l99 106h104zM100 700h74v-700h-74v700z" />
    <glyph glyph-name="Idieresis" unicode="&#xcf;" horiz-adv-x="274" 
d="M72 841v-96h-66v96h66zM268 841v-96h-66v96h66zM100 700h74v-700h-74v700z" />
    <glyph glyph-name="Eth" unicode="&#xd0;" horiz-adv-x="723" 
d="M664 350q0 -171 -104 -260.5t-263 -89.5h-197v323h-100v63h100v314h206q159 0 258.5 -95t99.5 -255zM350 386v-63h-176v-255h135q124 0 201.5 76.5t77.5 205.5t-78 205.5t-202 76.5h-134v-246h176z" />
    <glyph glyph-name="Ntilde" unicode="&#xd1;" horiz-adv-x="783" 
d="M456 747q-29 0 -70.5 23t-59.5 23q-34 0 -44 -45h-44q8 46 31 69t55 23q29 0 70.5 -23.5t59.5 -23.5q34 0 44 45h44q-7 -46 -29.5 -68.5t-56.5 -22.5zM682 700v-709h-81l-427 603v-594h-74v709h81l428 -603v594h73z" />
    <glyph glyph-name="Ograve" unicode="&#xd2;" horiz-adv-x="806" 
d="M362 846l74 -106h-66l-93 106h85zM747 350q0 -161 -99 -263t-245 -102q-145 0 -244 102t-99 263t99 263t244 102q146 0 245 -102t99 -263zM672 350q0 131 -78 213.5t-191 82.5q-112 0 -190 -82.5t-78 -213.5t78 -213.5t190 -82.5q113 0 191 82.5t78 213.5z" />
    <glyph glyph-name="Oacute" unicode="&#xd3;" horiz-adv-x="806" 
d="M529 846l-93 -106h-66l74 106h85zM747 350q0 -161 -99 -263t-245 -102q-145 0 -244 102t-99 263t99 263t244 102q146 0 245 -102t99 -263zM672 350q0 131 -78 213.5t-191 82.5q-112 0 -190 -82.5t-78 -213.5t78 -213.5t190 -82.5q113 0 191 82.5t78 213.5z" />
    <glyph glyph-name="Ocircumflex" unicode="&#xd4;" horiz-adv-x="806" 
d="M455 846l98 -106h-68l-82 78l-82 -78h-69l99 106h104zM747 350q0 -161 -99 -263t-245 -102q-145 0 -244 102t-99 263t99 263t244 102q146 0 245 -102t99 -263zM672 350q0 131 -78 213.5t-191 82.5q-112 0 -190 -82.5t-78 -213.5t78 -213.5t190 -82.5q113 0 191 82.5
t78 213.5z" />
    <glyph glyph-name="Otilde" unicode="&#xd5;" horiz-adv-x="806" 
d="M469 747q-29 0 -70.5 23t-59.5 23q-33 0 -44 -45h-44q8 46 31 69t55 23q29 0 70.5 -23.5t59.5 -23.5q33 0 44 45h44q-7 -46 -29.5 -68.5t-56.5 -22.5zM747 350q0 -161 -99 -263t-245 -102q-145 0 -244 102t-99 263t99 263t244 102q146 0 245 -102t99 -263zM672 350
q0 131 -78 213.5t-191 82.5q-112 0 -190 -82.5t-78 -213.5t78 -213.5t190 -82.5q113 0 191 82.5t78 213.5z" />
    <glyph glyph-name="Odieresis" unicode="&#xd6;" horiz-adv-x="806" 
d="M338 841v-96h-66v96h66zM534 841v-96h-66v96h66zM747 350q0 -161 -99 -263t-245 -102q-145 0 -244 102t-99 263t99 263t244 102q146 0 245 -102t99 -263zM672 350q0 131 -78 213.5t-191 82.5q-112 0 -190 -82.5t-78 -213.5t78 -213.5t190 -82.5q113 0 191 82.5t78 213.5z
" />
    <glyph glyph-name="multiply" unicode="&#xd7;" horiz-adv-x="600" 
d="M260 329l-166 166l40 40l166 -166l166 166l40 -40l-166 -166l166 -166l-40 -40l-166 166l-165 -166l-40 40z" />
    <glyph glyph-name="Oslash" unicode="&#xd8;" horiz-adv-x="806" 
d="M197 53l-55 -68h-82l91 111q-91 101 -91 254q0 161 99 263t244 102q117 0 206 -68l56 68h82l-91 -111q91 -101 91 -254q0 -161 -99 -263t-245 -102q-115 0 -206 68zM135 350q0 -116 64 -198l366 438q-71 56 -162 56q-112 0 -190 -82.5t-78 -213.5zM672 350q0 116 -65 199
l-365 -439q71 -56 161 -56q113 0 191 82.5t78 213.5z" />
    <glyph glyph-name="Ugrave" unicode="&#xd9;" horiz-adv-x="727" 
d="M323 846l74 -106h-66l-93 106h85zM363 -15q-126 0 -200 75.5t-74 221.5v418h73v-408q0 -119 53.5 -178t147.5 -59q95 0 149 59t54 178v408h73v-417q0 -147 -74 -222.5t-202 -75.5z" />
    <glyph glyph-name="Uacute" unicode="&#xda;" horiz-adv-x="727" 
d="M490 846l-93 -106h-66l74 106h85zM363 -15q-126 0 -200 75.5t-74 221.5v418h73v-408q0 -119 53.5 -178t147.5 -59q95 0 149 59t54 178v408h73v-417q0 -147 -74 -222.5t-202 -75.5z" />
    <glyph glyph-name="Ucircumflex" unicode="&#xdb;" horiz-adv-x="727" 
d="M416 846l98 -106h-68l-82 78l-82 -78h-69l99 106h104zM363 -15q-126 0 -200 75.5t-74 221.5v418h73v-408q0 -119 53.5 -178t147.5 -59q95 0 149 59t54 178v408h73v-417q0 -147 -74 -222.5t-202 -75.5z" />
    <glyph glyph-name="Udieresis" unicode="&#xdc;" horiz-adv-x="727" 
d="M299 841v-96h-66v96h66zM495 841v-96h-66v96h66zM363 -15q-126 0 -200 75.5t-74 221.5v418h73v-408q0 -119 53.5 -178t147.5 -59q95 0 149 59t54 178v408h73v-417q0 -147 -74 -222.5t-202 -75.5z" />
    <glyph glyph-name="Yacute" unicode="&#xdd;" horiz-adv-x="612" 
d="M435 846l-93 -106h-66l74 106h85zM343 301v-301h-73v301l-245 399h87l195 -325h4l195 325h81z" />
    <glyph glyph-name="Thorn" unicode="&#xde;" horiz-adv-x="609" 
d="M100 700h74v-139h168q100 0 165 -59.5t65 -150.5q0 -88 -62.5 -149.5t-161.5 -61.5h-174v-140h-74v700zM330 493h-156v-285h163q76 0 117.5 42.5t41.5 100.5t-42.5 100t-123.5 42z" />
    <glyph glyph-name="germandbls" unicode="&#xdf;" horiz-adv-x="540" 
d="M274 -11q-28 0 -58 5v63q27 -5 51 -5q72 0 117 43t45 110q0 68 -44.5 108t-118.5 40h-25v60h4q68 0 104.5 31t36.5 86q0 54 -32.5 88t-85.5 34q-55 0 -87.5 -38t-32.5 -103v-511h-71v504q0 98 50.5 154.5t137.5 56.5q84 0 136.5 -50t52.5 -128q0 -53 -25.5 -91.5
t-71.5 -52.5v-3q66 -13 104.5 -63t38.5 -123q0 -95 -63 -155t-163 -60z" />
    <glyph glyph-name="agrave" unicode="&#xe0;" horiz-adv-x="513" 
d="M121 700h85l85 -147h-66zM445 309v-309h-67v59h-2q-19 -34 -59.5 -53.5t-90.5 -19.5q-73 0 -118 39.5t-45 102.5q0 68 52 109.5t140 41.5q78 0 120 -25v54q0 54 -29 84.5t-82 30.5q-87 0 -112 -76l-70 7q17 60 67 93.5t120 33.5q83 0 129.5 -45.5t46.5 -126.5zM134 134
q0 -40 30 -65.5t76 -25.5q54 0 95 32.5t41 73.5v49q-41 28 -114 28q-60 0 -94 -25t-34 -67z" />
    <glyph glyph-name="aacute" unicode="&#xe1;" horiz-adv-x="513" 
d="M401 700l-113 -147h-66l93 147h86zM445 309v-309h-67v59h-2q-19 -34 -59.5 -53.5t-90.5 -19.5q-73 0 -118 39.5t-45 102.5q0 68 52 109.5t140 41.5q78 0 120 -25v54q0 54 -29 84.5t-82 30.5q-87 0 -112 -76l-70 7q17 60 67 93.5t120 33.5q83 0 129.5 -45.5t46.5 -126.5z
M134 134q0 -40 30 -65.5t76 -25.5q54 0 95 32.5t41 73.5v49q-41 28 -114 28q-60 0 -94 -25t-34 -67z" />
    <glyph glyph-name="acircumflex" unicode="&#xe2;" horiz-adv-x="513" 
d="M300 700l111 -147h-68l-86 111l-86 -111h-67l110 147h86zM445 309v-309h-67v59h-2q-19 -34 -59.5 -53.5t-90.5 -19.5q-73 0 -118 39.5t-45 102.5q0 68 52 109.5t140 41.5q78 0 120 -25v54q0 54 -29 84.5t-82 30.5q-87 0 -112 -76l-70 7q17 60 67 93.5t120 33.5
q83 0 129.5 -45.5t46.5 -126.5zM134 134q0 -40 30 -65.5t76 -25.5q54 0 95 32.5t41 73.5v49q-41 28 -114 28q-60 0 -94 -25t-34 -67z" />
    <glyph glyph-name="atilde" unicode="&#xe3;" horiz-adv-x="513" 
d="M323 570q-30 0 -67.5 29.5t-58.5 29.5q-39 0 -46 -58h-51q11 113 89 113q29 0 67 -29.5t59 -29.5q39 0 46 58h51q-11 -113 -89 -113zM445 309v-309h-67v59h-2q-19 -34 -59.5 -53.5t-90.5 -19.5q-73 0 -118 39.5t-45 102.5q0 68 52 109.5t140 41.5q78 0 120 -25v54
q0 54 -29 84.5t-82 30.5q-87 0 -112 -76l-70 7q17 60 67 93.5t120 33.5q83 0 129.5 -45.5t46.5 -126.5zM134 134q0 -40 30 -65.5t76 -25.5q54 0 95 32.5t41 73.5v49q-41 28 -114 28q-60 0 -94 -25t-34 -67z" />
    <glyph glyph-name="adieresis" unicode="&#xe4;" horiz-adv-x="513" 
d="M192 677v-101h-66v101h66zM388 677v-101h-66v101h66zM445 309v-309h-67v59h-2q-19 -34 -59.5 -53.5t-90.5 -19.5q-73 0 -118 39.5t-45 102.5q0 68 52 109.5t140 41.5q78 0 120 -25v54q0 54 -29 84.5t-82 30.5q-87 0 -112 -76l-70 7q17 60 67 93.5t120 33.5
q83 0 129.5 -45.5t46.5 -126.5zM134 134q0 -40 30 -65.5t76 -25.5q54 0 95 32.5t41 73.5v49q-41 28 -114 28q-60 0 -94 -25t-34 -67z" />
    <glyph glyph-name="aring" unicode="&#xe5;" horiz-adv-x="513" 
d="M269 536q-45 0 -75 28t-30 71t30 71t75 28q46 0 75.5 -28t29.5 -71t-29.5 -71t-75.5 -28zM269 574q27 0 44 18t17 43t-17 42.5t-44 17.5t-44 -17.5t-17 -42.5t17 -43t44 -18zM445 309v-309h-67v59h-2q-19 -34 -59.5 -53.5t-90.5 -19.5q-73 0 -118 39.5t-45 102.5
q0 68 52 109.5t140 41.5q78 0 120 -25v54q0 54 -29 84.5t-82 30.5q-87 0 -112 -76l-70 7q17 60 67 93.5t120 33.5q83 0 129.5 -45.5t46.5 -126.5zM134 134q0 -40 30 -65.5t76 -25.5q54 0 95 32.5t41 73.5v49q-41 28 -114 28q-60 0 -94 -25t-34 -67z" />
    <glyph glyph-name="ae" unicode="&#xe6;" horiz-adv-x="861" 
d="M235 -14q-76 0 -124 40t-48 104q0 67 52.5 108t139.5 41q78 0 120 -25v54q0 55 -29 85t-82 30q-87 0 -112 -76l-70 7q17 60 66.5 93.5t118.5 33.5q62 0 102 -28.5t53 -80.5q21 49 68 79t107 30q92 0 157 -63.5t65 -176.5v-24h-374q4 -76 48.5 -124t116.5 -48q93 0 133 82
l59 -14q-25 -61 -75 -94t-119 -33q-66 0 -117.5 31.5t-78.5 85.5q-18 -54 -65 -85.5t-112 -31.5zM598 424q-65 0 -104.5 -42t-47.5 -115h301q-6 79 -48 118t-101 39zM241 43q57 0 96 36t39 83v36q-41 28 -114 28q-59 0 -93.5 -25t-34.5 -67q0 -40 29.5 -65.5t77.5 -25.5z
" />
    <glyph glyph-name="ccedilla" unicode="&#xe7;" horiz-adv-x="508" 
d="M302 -13l-41 -187l-62 8l40 179q-89 10 -142 79t-53 167q0 109 61.5 178.5t159.5 69.5q162 0 208 -151l-68 -11q-33 99 -138 99q-72 0 -112.5 -52t-40.5 -133t40 -133t113 -52q103 0 137 100l66 -17q-19 -62 -62 -99t-106 -45z" />
    <glyph glyph-name="egrave" unicode="&#xe8;" horiz-adv-x="529" 
d="M132 700h85l85 -147h-66zM411 127l59 -18q-57 -124 -193 -124q-104 0 -168.5 70t-64.5 177t61 178t161 71q92 0 155.5 -63t66.5 -177v-24h-373q5 -77 48.5 -125t114.5 -48q92 0 133 83zM267 425q-65 0 -104.5 -42.5t-46.5 -115.5h299q-4 79 -46.5 118.5t-101.5 39.5z" />
    <glyph glyph-name="eacute" unicode="&#xe9;" horiz-adv-x="529" 
d="M411 700l-113 -147h-66l93 147h86zM411 127l59 -18q-57 -124 -193 -124q-104 0 -168.5 70t-64.5 177t61 178t161 71q92 0 155.5 -63t66.5 -177v-24h-373q5 -77 48.5 -125t114.5 -48q92 0 133 83zM267 425q-65 0 -104.5 -42.5t-46.5 -115.5h299q-4 79 -46.5 118.5
t-101.5 39.5z" />
    <glyph glyph-name="ecircumflex" unicode="&#xea;" horiz-adv-x="529" 
d="M310 700l111 -147h-68l-86 111l-86 -111h-67l110 147h86zM411 127l59 -18q-57 -124 -193 -124q-104 0 -168.5 70t-64.5 177t61 178t161 71q92 0 155.5 -63t66.5 -177v-24h-373q5 -77 48.5 -125t114.5 -48q92 0 133 83zM267 425q-65 0 -104.5 -42.5t-46.5 -115.5h299
q-4 79 -46.5 118.5t-101.5 39.5z" />
    <glyph glyph-name="edieresis" unicode="&#xeb;" horiz-adv-x="529" 
d="M202 677v-101h-66v101h66zM398 677v-101h-66v101h66zM411 127l59 -18q-57 -124 -193 -124q-104 0 -168.5 70t-64.5 177t61 178t161 71q92 0 155.5 -63t66.5 -177v-24h-373q5 -77 48.5 -125t114.5 -48q92 0 133 83zM267 425q-65 0 -104.5 -42.5t-46.5 -115.5h299
q-4 79 -46.5 118.5t-101.5 39.5z" />
    <glyph glyph-name="igrave" unicode="&#xec;" horiz-adv-x="233" 
d="M-21 700h85l85 -147h-66zM152 466v-466h-71v466h71z" />
    <glyph glyph-name="iacute" unicode="&#xed;" horiz-adv-x="233" 
d="M267 700l-113 -147h-66l93 147h86zM152 466v-466h-71v466h71z" />
    <glyph glyph-name="icircumflex" unicode="&#xee;" horiz-adv-x="233" 
d="M157 700l111 -147h-68l-86 111l-86 -111h-67l110 147h86zM152 466v-466h-71v466h71z" />
    <glyph glyph-name="idieresis" unicode="&#xef;" horiz-adv-x="233" 
d="M49 677v-101h-66v101h66zM245 677v-101h-66v101h66zM152 466v-466h-71v466h71z" />
    <glyph glyph-name="eth" unicode="&#xf0;" horiz-adv-x="539" 
d="M274 -14q-101 0 -165.5 70.5t-64.5 176.5q0 105 62.5 175.5t160.5 70.5q83 0 125 -53q-29 66 -84 130l-148 -36v57l105 25q-50 50 -119 94l79 17q65 -45 113 -93l110 27v-58l-68 -16q125 -153 125 -324q0 -116 -63 -189.5t-168 -73.5zM277 48q73 0 116 53t43 132t-43 131
t-116 52q-74 0 -118.5 -52t-44.5 -131t45 -132t118 -53z" />
    <glyph glyph-name="ntilde" unicode="&#xf1;" horiz-adv-x="541" 
d="M340 570q-30 0 -67.5 29.5t-58.5 29.5q-39 0 -46 -58h-51q11 113 89 113q30 0 68 -29.5t58 -29.5q39 0 46 58h51q-11 -113 -89 -113zM469 297v-297h-70v281q0 66 -29 101.5t-81 35.5q-59 0 -98.5 -42.5t-39.5 -106.5v-269h-70v466h66v-73h4q20 41 60.5 64.5t92.5 23.5
q76 0 120.5 -49.5t44.5 -134.5z" />
    <glyph glyph-name="ograve" unicode="&#xf2;" horiz-adv-x="553" 
d="M138 700h85l85 -147h-66zM44 233q0 110 65.5 179t166.5 69t167 -69t66 -179q0 -109 -66.5 -178.5t-166.5 -69.5q-101 0 -166.5 69.5t-65.5 178.5zM114 233q0 -79 45 -132t117 -53q74 0 118.5 52.5t44.5 132.5q0 81 -44.5 133t-118.5 52q-73 0 -117.5 -52t-44.5 -133z" />
    <glyph glyph-name="oacute" unicode="&#xf3;" horiz-adv-x="553" 
d="M421 700l-113 -147h-66l93 147h86zM44 233q0 110 65.5 179t166.5 69t167 -69t66 -179q0 -109 -66.5 -178.5t-166.5 -69.5q-101 0 -166.5 69.5t-65.5 178.5zM114 233q0 -79 45 -132t117 -53q74 0 118.5 52.5t44.5 132.5q0 81 -44.5 133t-118.5 52q-73 0 -117.5 -52
t-44.5 -133z" />
    <glyph glyph-name="ocircumflex" unicode="&#xf4;" horiz-adv-x="553" 
d="M317 700l111 -147h-68l-86 111l-86 -111h-67l110 147h86zM44 233q0 110 65.5 179t166.5 69t167 -69t66 -179q0 -109 -66.5 -178.5t-166.5 -69.5q-101 0 -166.5 69.5t-65.5 178.5zM114 233q0 -79 45 -132t117 -53q74 0 118.5 52.5t44.5 132.5q0 81 -44.5 133t-118.5 52
q-73 0 -117.5 -52t-44.5 -133z" />
    <glyph glyph-name="otilde" unicode="&#xf5;" horiz-adv-x="553" 
d="M341 570q-30 0 -67.5 29.5t-58.5 29.5q-39 0 -46 -58h-51q11 113 89 113q29 0 67 -29.5t59 -29.5q39 0 46 58h51q-11 -113 -89 -113zM44 233q0 110 65.5 179t166.5 69t167 -69t66 -179q0 -109 -66.5 -178.5t-166.5 -69.5q-101 0 -166.5 69.5t-65.5 178.5zM114 233
q0 -79 45 -132t117 -53q74 0 118.5 52.5t44.5 132.5q0 81 -44.5 133t-118.5 52q-73 0 -117.5 -52t-44.5 -133z" />
    <glyph glyph-name="odieresis" unicode="&#xf6;" horiz-adv-x="553" 
d="M209 677v-101h-66v101h66zM405 677v-101h-66v101h66zM44 233q0 110 65.5 179t166.5 69t167 -69t66 -179q0 -109 -66.5 -178.5t-166.5 -69.5q-101 0 -166.5 69.5t-65.5 178.5zM114 233q0 -79 45 -132t117 -53q74 0 118.5 52.5t44.5 132.5q0 81 -44.5 133t-118.5 52
q-73 0 -117.5 -52t-44.5 -133z" />
    <glyph glyph-name="divide" unicode="&#xf7;" horiz-adv-x="600" 
d="M330 571v-74h-59v74h59zM493 357v-56h-386v56h386zM330 161v-74h-59v74h59z" />
    <glyph glyph-name="oslash" unicode="&#xf8;" horiz-adv-x="553" 
d="M145 24l-29 -38h-73l60 75q-59 69 -59 172q0 110 65.5 179t166.5 69q74 0 132 -39l29 38h73l-60 -75q59 -69 59 -172q0 -109 -66.5 -178.5t-166.5 -69.5q-72 0 -131 39zM114 233q0 -70 35 -120l220 276q-38 29 -93 29q-73 0 -117.5 -52t-44.5 -133zM439 233q0 71 -35 121
l-221 -277q43 -29 93 -29q74 0 118.5 52.5t44.5 132.5z" />
    <glyph glyph-name="ugrave" unicode="&#xf9;" horiz-adv-x="541" 
d="M125 700h85l85 -147h-66zM459 466v-466h-65v73h-4q-19 -40 -59.5 -64t-93.5 -24q-76 0 -120.5 49.5t-44.5 134.5v297h70v-282q0 -65 29 -101t81 -36q59 0 98.5 43t39.5 107v269h69z" />
    <glyph glyph-name="uacute" unicode="&#xfa;" horiz-adv-x="541" 
d="M408 700l-113 -147h-66l93 147h86zM459 466v-466h-65v73h-4q-19 -40 -59.5 -64t-93.5 -24q-76 0 -120.5 49.5t-44.5 134.5v297h70v-282q0 -65 29 -101t81 -36q59 0 98.5 43t39.5 107v269h69z" />
    <glyph glyph-name="ucircumflex" unicode="&#xfb;" horiz-adv-x="541" 
d="M305 700l111 -147h-68l-86 111l-86 -111h-67l110 147h86zM459 466v-466h-65v73h-4q-19 -40 -59.5 -64t-93.5 -24q-76 0 -120.5 49.5t-44.5 134.5v297h70v-282q0 -65 29 -101t81 -36q59 0 98.5 43t39.5 107v269h69z" />
    <glyph glyph-name="udieresis" unicode="&#xfc;" horiz-adv-x="541" 
d="M197 677v-101h-66v101h66zM393 677v-101h-66v101h66zM459 466v-466h-65v73h-4q-19 -40 -59.5 -64t-93.5 -24q-76 0 -120.5 49.5t-44.5 134.5v297h70v-282q0 -65 29 -101t81 -36q59 0 98.5 43t39.5 107v269h69z" />
    <glyph glyph-name="yacute" unicode="&#xfd;" horiz-adv-x="494" 
d="M393 700l-113 -147h-66l93 147h86zM472 466l-269 -659h-70l85 207l-198 452h78l158 -369l145 369h71z" />
    <glyph glyph-name="thorn" unicode="&#xfe;" horiz-adv-x="582" 
d="M538 233q0 -109 -62 -178.5t-160 -69.5q-54 0 -97.5 22t-67.5 61v-268h-70v900h71v-313q50 93 165 93q97 0 159 -69t62 -178zM468 233q0 81 -45 132.5t-116 51.5q-72 0 -114.5 -51t-42.5 -133q0 -83 42.5 -134.5t114.5 -51.5q73 0 117 53.5t44 132.5z" />
    <glyph glyph-name="ydieresis" unicode="&#xff;" horiz-adv-x="494" 
d="M182 677v-101h-66v101h66zM378 677v-101h-66v101h66zM472 466l-269 -659h-70l85 207l-198 452h78l158 -369l145 369h71z" />
    <glyph glyph-name="Amacron" unicode="&#x100;" horiz-adv-x="673" 
d="M497 819v-51h-324v51h324zM378 709l269 -709h-79l-81 217h-303l-80 -217h-78l270 709h82zM338 624h-4l-125 -340h255z" />
    <glyph glyph-name="amacron" unicode="&#x101;" horiz-adv-x="513" 
d="M418 652v-51h-324v51h324zM445 309v-309h-67v59h-2q-19 -34 -59.5 -53.5t-90.5 -19.5q-73 0 -118 39.5t-45 102.5q0 68 52 109.5t140 41.5q78 0 120 -25v54q0 54 -29 84.5t-82 30.5q-87 0 -112 -76l-70 7q17 60 67 93.5t120 33.5q83 0 129.5 -45.5t46.5 -126.5zM134 134
q0 -40 30 -65.5t76 -25.5q54 0 95 32.5t41 73.5v49q-41 28 -114 28q-60 0 -94 -25t-34 -67z" />
    <glyph glyph-name="Abreve" unicode="&#x102;" horiz-adv-x="673" 
d="M335 735q-50 0 -92 26t-56 85h56q11 -32 37 -49t55 -17t55 17t37 49h56q-14 -59 -56 -85t-92 -26zM378 709l269 -709h-79l-81 217h-303l-80 -217h-78l270 709h82zM338 624h-4l-125 -340h255z" />
    <glyph glyph-name="abreve" unicode="&#x103;" horiz-adv-x="513" 
d="M257 559q-57 0 -97 35t-51 100h56q9 -42 34 -64t58 -22t58 22.5t34 63.5h56q-11 -65 -50.5 -100t-97.5 -35zM445 309v-309h-67v59h-2q-19 -34 -59.5 -53.5t-90.5 -19.5q-73 0 -118 39.5t-45 102.5q0 68 52 109.5t140 41.5q78 0 120 -25v54q0 54 -29 84.5t-82 30.5
q-87 0 -112 -76l-70 7q17 60 67 93.5t120 33.5q83 0 129.5 -45.5t46.5 -126.5zM134 134q0 -40 30 -65.5t76 -25.5q54 0 95 32.5t41 73.5v49q-41 28 -114 28q-60 0 -94 -25t-34 -67z" />
    <glyph glyph-name="Aogonek" unicode="&#x104;" horiz-adv-x="673" 
d="M599 -200q-51 0 -82 21t-31 62q0 67 81 119l-80 215h-303l-80 -217h-78l270 709h82l269 -709h-7q-92 -49 -92 -105q0 -24 17.5 -36.5t43.5 -12.5q11 0 32 3v-46q-19 -3 -42 -3zM338 624h-4l-125 -340h255z" />
    <glyph glyph-name="aogonek" unicode="&#x105;" horiz-adv-x="513" 
d="M387 -200q-51 0 -82 21t-31 62q0 76 104 132v44h-2q-19 -34 -59.5 -53.5t-90.5 -19.5q-73 0 -118 39.5t-45 102.5q0 68 52 109.5t140 41.5q78 0 120 -25v54q0 54 -29 84.5t-82 30.5q-87 0 -112 -76l-70 7q17 60 67 93.5t120 33.5q83 0 129.5 -45.5t46.5 -126.5v-309h-17
q-92 -49 -92 -105q0 -24 17.5 -36.5t43.5 -12.5q11 0 32 3v-46q-19 -3 -42 -3zM134 134q0 -40 30 -65.5t76 -25.5q54 0 95 32.5t41 73.5v49q-41 28 -114 28q-60 0 -94 -25t-34 -67z" />
    <glyph glyph-name="Cacute" unicode="&#x106;" horiz-adv-x="741" 
d="M512 846l-93 -106h-66l74 106h85zM60 350q0 165 95 265t241 100q104 0 181.5 -56t108.5 -154l-76 -12q-22 67 -79.5 110t-134.5 43q-113 0 -187.5 -83t-74.5 -213q0 -129 74 -212.5t187 -83.5q76 0 133.5 42t82.5 115l71 -18q-27 -95 -104 -151.5t-180 -56.5
q-146 0 -242 100.5t-96 264.5z" />
    <glyph glyph-name="cacute" unicode="&#x107;" horiz-adv-x="508" 
d="M412 700l-113 -147h-66l93 147h86zM265 481q162 0 208 -151l-68 -11q-33 99 -138 99q-72 0 -112.5 -52t-40.5 -133t40 -133t113 -52q103 0 137 100l66 -17q-22 -70 -74 -108t-128 -38q-102 0 -163 70.5t-61 177.5q0 109 61.5 178.5t159.5 69.5z" />
    <glyph glyph-name="Ccircumflex" unicode="&#x108;" horiz-adv-x="736" 
d="M438 846l98 -106h-68l-82 78l-82 -78h-69l99 106h104zM60 350q0 165 95 265t241 100q104 0 181.5 -56t108.5 -154l-76 -12q-22 67 -79.5 110t-134.5 43q-113 0 -187.5 -83t-74.5 -213q0 -129 74 -212.5t187 -83.5q76 0 133.5 42t82.5 115l71 -18q-27 -95 -104 -151.5
t-180 -56.5q-146 0 -242 100.5t-96 264.5z" />
    <glyph glyph-name="ccircumflex" unicode="&#x109;" horiz-adv-x="508" 
d="M310 700l111 -147h-68l-86 111l-86 -111h-67l110 147h86zM265 481q162 0 208 -151l-68 -11q-33 99 -138 99q-72 0 -112.5 -52t-40.5 -133t40 -133t113 -52q103 0 137 100l66 -17q-22 -70 -74 -108t-128 -38q-102 0 -163 70.5t-61 177.5q0 109 61.5 178.5t159.5 69.5z" />
    <glyph glyph-name="Cdotaccent" unicode="&#x10a;" horiz-adv-x="736" 
d="M421 828v-69h-70v69h70zM60 350q0 165 95 265t241 100q104 0 181.5 -56t108.5 -154l-76 -12q-22 67 -79.5 110t-134.5 43q-113 0 -187.5 -83t-74.5 -213q0 -129 74 -212.5t187 -83.5q76 0 133.5 42t82.5 115l71 -18q-27 -95 -104 -151.5t-180 -56.5q-146 0 -242 100.5
t-96 264.5z" />
    <glyph glyph-name="cdotaccent" unicode="&#x10b;" horiz-adv-x="508" 
d="M302 666v-78h-70v78h70zM265 481q162 0 208 -151l-68 -11q-33 99 -138 99q-72 0 -112.5 -52t-40.5 -133t40 -133t113 -52q103 0 137 100l66 -17q-22 -70 -74 -108t-128 -38q-102 0 -163 70.5t-61 177.5q0 109 61.5 178.5t159.5 69.5z" />
    <glyph glyph-name="Ccaron" unicode="&#x10c;" horiz-adv-x="736" 
d="M386 768l82 78h68l-98 -106h-104l-99 106h69zM60 350q0 165 95 265t241 100q104 0 181.5 -56t108.5 -154l-76 -12q-22 67 -79.5 110t-134.5 43q-113 0 -187.5 -83t-74.5 -213q0 -129 74 -212.5t187 -83.5q76 0 133.5 42t82.5 115l71 -18q-27 -95 -104 -151.5t-180 -56.5
q-146 0 -242 100.5t-96 264.5z" />
    <glyph glyph-name="ccaron" unicode="&#x10d;" horiz-adv-x="508" 
d="M267 590l86 110h68l-111 -147h-86l-110 147h67zM265 481q162 0 208 -151l-68 -11q-33 99 -138 99q-72 0 -112.5 -52t-40.5 -133t40 -133t113 -52q103 0 137 100l66 -17q-22 -70 -74 -108t-128 -38q-102 0 -163 70.5t-61 177.5q0 109 61.5 178.5t159.5 69.5z" />
    <glyph glyph-name="Dcaron" unicode="&#x10e;" horiz-adv-x="706" 
d="M320 768l82 78h68l-98 -106h-104l-99 106h69zM664 350q0 -171 -104 -260.5t-263 -89.5h-197v700h206q159 0 258.5 -95t99.5 -255zM588 350q0 129 -78 205.5t-202 76.5h-134v-564h135q124 0 201.5 76.5t77.5 205.5z" />
    <glyph glyph-name="dcaron" unicode="&#x10f;" horiz-adv-x="662" 
d="M684 700l-60 -206h-54l46 206h68zM44 232q0 110 62.5 179.5t159.5 69.5q54 0 97.5 -22t67.5 -61v302h70v-700h-65v82h-2q-50 -97 -169 -97q-97 0 -159 69t-62 178zM115 232q0 -80 45.5 -132t115.5 -52q71 0 113.5 51t42.5 133q0 84 -42.5 135t-113.5 51q-73 0 -117 -53
t-44 -133z" />
    <glyph glyph-name="Dcroat" unicode="&#x110;" horiz-adv-x="723" 
d="M664 350q0 -171 -104 -260.5t-263 -89.5h-197v323h-100v63h100v314h206q159 0 258.5 -95t99.5 -255zM350 386v-63h-176v-255h135q124 0 201.5 76.5t77.5 205.5t-78 205.5t-202 76.5h-134v-246h176z" />
    <glyph glyph-name="dslash" unicode="&#x111;" horiz-adv-x="583" 
d="M44 232q0 110 62.5 179.5t159.5 69.5q54 0 97.5 -22t67.5 -61v154h-157v57h157v91h70v-91h60v-57h-60v-552h-65v82h-2q-50 -97 -169 -97q-97 0 -159 69t-62 178zM115 232q0 -80 45.5 -132t115.5 -52q71 0 113.5 51t42.5 133q0 84 -42.5 135t-113.5 51q-73 0 -117 -53
t-44 -133z" />
    <glyph glyph-name="Emacron" unicode="&#x112;" horiz-adv-x="619" 
d="M488 819v-51h-324v51h324zM100 700h451v-68h-377v-243h286v-68h-286v-253h377v-68h-451v700z" />
    <glyph glyph-name="emacron" unicode="&#x113;" horiz-adv-x="529" 
d="M428 652v-51h-324v51h324zM411 127l59 -18q-57 -124 -193 -124q-104 0 -168.5 70t-64.5 177t61 178t161 71q92 0 155.5 -63t66.5 -177v-24h-373q5 -77 48.5 -125t114.5 -48q92 0 133 83zM267 425q-65 0 -104.5 -42.5t-46.5 -115.5h299q-4 79 -46.5 118.5t-101.5 39.5z
" />
    <glyph glyph-name="Ebreve" unicode="&#x114;" horiz-adv-x="619" 
d="M326 735q-50 0 -92 26t-56 85h56q11 -32 37 -49t55 -17t55 17t37 49h56q-14 -59 -56 -85t-92 -26zM100 700h451v-68h-377v-243h286v-68h-286v-253h377v-68h-451v700z" />
    <glyph glyph-name="ebreve" unicode="&#x115;" horiz-adv-x="529" 
d="M267 559q-57 0 -97 35t-51 100h56q9 -42 34 -64t58 -22t58 22.5t34 63.5h56q-11 -65 -50.5 -100t-97.5 -35zM411 127l59 -18q-57 -124 -193 -124q-104 0 -168.5 70t-64.5 177t61 178t161 71q92 0 155.5 -63t66.5 -177v-24h-373q5 -77 48.5 -125t114.5 -48q92 0 133 83z
M267 425q-65 0 -104.5 -42.5t-46.5 -115.5h299q-4 79 -46.5 118.5t-101.5 39.5z" />
    <glyph glyph-name="Edotaccent" unicode="&#x116;" horiz-adv-x="619" 
d="M361 828v-69h-70v69h70zM100 700h451v-68h-377v-243h286v-68h-286v-253h377v-68h-451v700z" />
    <glyph glyph-name="edotaccent" unicode="&#x117;" horiz-adv-x="529" 
d="M302 666v-78h-70v78h70zM411 127l59 -18q-57 -124 -193 -124q-104 0 -168.5 70t-64.5 177t61 178t161 71q92 0 155.5 -63t66.5 -177v-24h-373q5 -77 48.5 -125t114.5 -48q92 0 133 83zM267 425q-65 0 -104.5 -42.5t-46.5 -115.5h299q-4 79 -46.5 118.5t-101.5 39.5z" />
    <glyph glyph-name="Eogonek" unicode="&#x118;" horiz-adv-x="590" 
d="M470 -200q-51 0 -82 21t-31 62q0 66 79 117h-336v700h451v-68h-377v-243h286v-68h-286v-253h377v-68h-40q-92 -49 -92 -105q0 -24 17.5 -36.5t43.5 -12.5q11 0 32 3v-46q-20 -3 -42 -3z" />
    <glyph glyph-name="eogonek" unicode="&#x119;" horiz-adv-x="529" 
d="M371 -200q-114 0 -114 85q0 49 59 107v3q-20 -9 -47 -9q-99 0 -162 70.5t-63 176.5q0 107 61.5 177t160.5 70q92 0 155.5 -62t66.5 -177v-24h-373q4 -73 47 -123q42 -49 114 -49q47 0 82 22t53 60l61 -14q-14 -35 -42 -66.5t-52 -50t-42.5 -45t-18.5 -54.5q0 -51 64 -51
q15 0 31 2v-45q-20 -3 -41 -3zM267 425q-65 0 -104.5 -42.5t-46.5 -115.5h299q-4 79 -46.5 118.5t-101.5 39.5z" />
    <glyph glyph-name="Ecaron" unicode="&#x11a;" horiz-adv-x="619" 
d="M326 768l82 78h68l-98 -106h-104l-99 106h69zM100 700h451v-68h-377v-243h286v-68h-286v-253h377v-68h-451v700z" />
    <glyph glyph-name="ecaron" unicode="&#x11b;" horiz-adv-x="529" 
d="M267 590l86 110h68l-111 -147h-86l-110 147h67zM411 127l59 -18q-57 -124 -193 -124q-104 0 -168.5 70t-64.5 177t61 178t161 71q92 0 155.5 -63t66.5 -177v-24h-373q5 -77 48.5 -125t114.5 -48q92 0 133 83zM267 425q-65 0 -104.5 -42.5t-46.5 -115.5h299
q-4 79 -46.5 118.5t-101.5 39.5z" />
    <glyph glyph-name="Gcircumflex" unicode="&#x11c;" horiz-adv-x="765" 
d="M434 846l98 -106h-68l-82 78l-82 -78h-69l99 106h104zM685 520l-71 -26q-24 66 -81 109t-135 43q-115 0 -189.5 -83t-74.5 -213t74 -213t191 -83q104 0 163 65t69 166h-228v68h307v-28q-6 -155 -89 -247.5t-222 -92.5q-148 0 -243.5 101t-95.5 264q0 161 95.5 263
t240.5 102q101 0 178 -53q78 -53 111 -142z" />
    <glyph glyph-name="gcircumflex" unicode="&#x11d;" horiz-adv-x="566" 
d="M314 700l111 -147h-68l-86 111l-86 -111h-67l110 147h86zM46 248q0 104 61 168.5t155 64.5q106 0 152 -74h3v59h67v-441q0 -108 -54.5 -166.5t-154.5 -58.5q-79 0 -135 35.5t-71 91.5l71 16q9 -38 46 -61.5t89 -23.5q66 0 102.5 40t36.5 113v88q-17 -37 -59.5 -59.5
t-96.5 -22.5q-91 0 -151.5 64.5t-60.5 166.5zM117 248q0 -76 42 -123q43 -46 108 -46q68 0 109.5 47t41.5 122q0 76 -41.5 123.5t-109.5 47.5q-66 0 -108 -47t-42 -124z" />
    <glyph glyph-name="Gbreve" unicode="&#x11e;" horiz-adv-x="765" 
d="M382 735q-50 0 -92 26t-56 85h56q11 -32 37 -49t55 -17t55 17t37 49h56q-14 -59 -56 -85t-92 -26zM685 520l-71 -26q-24 66 -81 109t-135 43q-115 0 -189.5 -83t-74.5 -213t74 -213t191 -83q104 0 163 65t69 166h-228v68h307v-28q-6 -155 -89 -247.5t-222 -92.5
q-148 0 -243.5 101t-95.5 264q0 161 95.5 263t240.5 102q101 0 178 -53q78 -53 111 -142z" />
    <glyph glyph-name="gbreve" unicode="&#x11f;" horiz-adv-x="566" 
d="M271 559q-57 0 -97 35t-51 100h56q9 -42 34 -64t58 -22t58 22.5t34 63.5h56q-11 -65 -50.5 -100t-97.5 -35zM46 248q0 104 61 168.5t155 64.5q106 0 152 -74h3v59h67v-441q0 -108 -54.5 -166.5t-154.5 -58.5q-79 0 -135 35.5t-71 91.5l71 16q9 -38 46 -61.5t89 -23.5
q66 0 102.5 40t36.5 113v88q-17 -37 -59.5 -59.5t-96.5 -22.5q-91 0 -151.5 64.5t-60.5 166.5zM117 248q0 -76 42 -123q43 -46 108 -46q68 0 109.5 47t41.5 122q0 76 -41.5 123.5t-109.5 47.5q-66 0 -108 -47t-42 -124z" />
    <glyph glyph-name="Gdotaccent" unicode="&#x120;" horiz-adv-x="765" 
d="M417 828v-69h-70v69h70zM685 520l-71 -26q-24 66 -81 109t-135 43q-115 0 -189.5 -83t-74.5 -213t74 -213t191 -83q104 0 163 65t69 166h-228v68h307v-28q-6 -155 -89 -247.5t-222 -92.5q-148 0 -243.5 101t-95.5 264q0 161 95.5 263t240.5 102q101 0 178 -53
q78 -53 111 -142z" />
    <glyph glyph-name="gdotaccent" unicode="&#x121;" horiz-adv-x="566" 
d="M306 666v-78h-70v78h70zM46 248q0 104 61 168.5t155 64.5q106 0 152 -74h3v59h67v-441q0 -108 -54.5 -166.5t-154.5 -58.5q-79 0 -135 35.5t-71 91.5l71 16q9 -38 46 -61.5t89 -23.5q66 0 102.5 40t36.5 113v88q-17 -37 -59.5 -59.5t-96.5 -22.5q-91 0 -151.5 64.5
t-60.5 166.5zM117 248q0 -76 42 -123q43 -46 108 -46q68 0 109.5 47t41.5 122q0 76 -41.5 123.5t-109.5 47.5q-66 0 -108 -47t-42 -124z" />
    <glyph glyph-name="Gcommaaccent" unicode="&#x122;" horiz-adv-x="765" 
d="M685 520l-71 -26q-24 66 -81 109t-135 43q-115 0 -189.5 -83t-74.5 -213t74 -213t191 -83q104 0 163 65t69 166h-228v68h307v-28q-6 -155 -89 -247.5t-222 -92.5q-148 0 -243.5 101t-95.5 264q0 161 95.5 263t240.5 102q101 0 178 -53q78 -53 111 -142zM421 -62l-55 -138
h-57l45 138h67z" />
    <glyph glyph-name="gcommaaccent" unicode="&#x123;" horiz-adv-x="566" 
d="M237 562l54 138h58l-45 -138h-67zM46 248q0 104 61 168.5t155 64.5q106 0 152 -74h3v59h67v-441q0 -108 -54.5 -166.5t-154.5 -58.5q-79 0 -135 35.5t-71 91.5l71 16q9 -38 46 -61.5t89 -23.5q66 0 102.5 40t36.5 113v88q-17 -37 -59.5 -59.5t-96.5 -22.5
q-91 0 -151.5 64.5t-60.5 166.5zM117 248q0 -76 42 -123q43 -46 108 -46q68 0 109.5 47t41.5 122q0 76 -41.5 123.5t-109.5 47.5q-66 0 -108 -47t-42 -124z" />
    <glyph glyph-name="Hcircumflex" unicode="&#x124;" horiz-adv-x="726" 
d="M423 846l98 -106h-68l-82 78l-82 -78h-69l99 106h104zM569 700h74v-700h-74v314h-395v-314h-74v700h74v-318h395v318z" />
    <glyph glyph-name="hcircumflex" unicode="&#x125;" horiz-adv-x="542" 
d="M167 846l98 -106h-68l-82 78l-82 -78h-69l99 106h104zM81 0v700h70v-307q21 40 61.5 64t91.5 24q76 0 120.5 -49.5t44.5 -134.5v-297h-70v281q0 66 -29 101.5t-81 35.5q-59 0 -98.5 -42.5t-39.5 -106.5v-269h-70z" />
    <glyph glyph-name="Hbar" unicode="&#x126;" horiz-adv-x="726" 
d="M709 569v-64h-66v-505h-74v314h-395v-314h-74v505h-66v64h66v131h74v-131h395v131h74v-131h66zM174 505v-123h395v123h-395z" />
    <glyph glyph-name="hbar" unicode="&#x127;" horiz-adv-x="542" 
d="M81 552h-64v57h64v91h70v-91h153v-57h-153v-159q21 40 61.5 64t91.5 24q76 0 120.5 -49.5t44.5 -134.5v-297h-70v281q0 66 -29 101.5t-81 35.5q-59 0 -98.5 -42.5t-39.5 -106.5v-269h-70v552z" />
    <glyph glyph-name="Itilde" unicode="&#x128;" horiz-adv-x="274" 
d="M203 747q-29 0 -70.5 23t-59.5 23q-33 0 -44 -45h-44q8 46 31 69t55 23q29 0 70.5 -23.5t59.5 -23.5q33 0 44 45h44q-7 -46 -29.5 -68.5t-56.5 -22.5zM100 700h74v-700h-74v700z" />
    <glyph glyph-name="itilde" unicode="&#x129;" horiz-adv-x="233" 
d="M181 570q-30 0 -67.5 29.5t-58.5 29.5q-39 0 -46 -58h-51q11 113 89 113q29 0 67 -29.5t59 -29.5q39 0 46 58h51q-11 -113 -89 -113zM152 466v-466h-71v466h71z" />
    <glyph glyph-name="Imacron" unicode="&#x12a;" horiz-adv-x="274" 
d="M299 819v-51h-324v51h324zM100 700h74v-700h-74v700z" />
    <glyph glyph-name="imacron" unicode="&#x12b;" horiz-adv-x="233" 
d="M276 652v-51h-324v51h324zM152 466v-466h-71v466h71z" />
    <glyph glyph-name="Ibreve" unicode="&#x12c;" horiz-adv-x="274" 
d="M137 735q-50 0 -92 26t-56 85h56q11 -32 37 -49t55 -17t55 17t37 49h56q-14 -59 -56 -85t-92 -26zM100 700h74v-700h-74v700z" />
    <glyph glyph-name="ibreve" unicode="&#x12d;" horiz-adv-x="233" 
d="M123 559q-57 0 -97 35t-51 100h56q9 -42 34 -64t58 -22t58 22.5t34 63.5h56q-11 -65 -50.5 -100t-97.5 -35zM152 466v-466h-71v466h71z" />
    <glyph glyph-name="Iogonek" unicode="&#x12e;" horiz-adv-x="274" 
d="M131 -200q-51 0 -82 21t-31 62q0 67 82 119v698h74v-700h-2q-92 -49 -92 -105q0 -24 17.5 -36.5t43.5 -12.5q11 0 32 3v-46q-19 -3 -42 -3z" />
    <glyph glyph-name="iogonek" unicode="&#x12f;" horiz-adv-x="233" 
d="M152 700v-102h-71v102h71zM152 466v-466h-3q-92 -49 -92 -105q0 -24 17.5 -36.5t43.5 -12.5q11 0 32 3v-46q-20 -3 -42 -3q-51 0 -82 21t-31 62q0 68 86 121v462h71z" />
    <glyph glyph-name="Idot" unicode="&#x130;" horiz-adv-x="274" 
d="M172 828v-69h-70v69h70zM100 700h74v-700h-74v700z" />
    <glyph glyph-name="dotlessi" unicode="&#x131;" horiz-adv-x="233" 
d="M152 466v-466h-71v466h71z" />
    <glyph glyph-name="IJ" unicode="&#x132;" horiz-adv-x="698" 
d="M100 700h74v-700h-74v700zM398 -10q-51 0 -89 22v70q35 -24 80 -24q147 0 147 180v394h-188v68h262v-469q0 -241 -212 -241z" />
    <glyph glyph-name="ij" unicode="&#x133;" horiz-adv-x="452" 
d="M152 700v-102h-71v102h71zM372 700v-102h-71v102h71zM152 466v-466h-71v466h71zM218 -193q-24 0 -40 4v62q21 -3 28 -3q95 0 95 110v486h71v-492q0 -80 -39.5 -123.5t-114.5 -43.5z" />
    <glyph glyph-name="Jcircumflex" unicode="&#x134;" horiz-adv-x="424" 
d="M247 939l111 -147h-68l-86 111l-86 -111h-67l110 147h86zM124 -10q-51 0 -89 22v70q35 -24 80 -24q147 0 147 180v394h-188v68h262v-469q0 -241 -212 -241z" />
    <glyph glyph-name="jcircumflex" unicode="&#x135;" horiz-adv-x="233" 
d="M157 700l111 -147h-68l-86 111l-86 -111h-67l110 147h86zM-2 -193q-24 0 -40 4v62q21 -3 28 -3q95 0 95 110v486h71v-492q0 -80 -39.5 -123.5t-114.5 -43.5z" />
    <glyph glyph-name="Kcommaaccent" unicode="&#x136;" horiz-adv-x="614" 
d="M174 336v-336h-74v700h74v-333l313 333h89l-323 -342l360 -358h-100zM339 -62l-55 -138h-57l45 138h67z" />
    <glyph glyph-name="kcommaaccent" unicode="&#x137;" horiz-adv-x="479" 
d="M152 230v-230h-71v700h71v-435l213 201h86l-230 -212l256 -254h-92zM295 -62l-55 -138h-57l45 138h67z" />
    <glyph glyph-name="Lacute" unicode="&#x139;" horiz-adv-x="525" 
d="M263 846l-93 -106h-66l74 106h85zM100 0v700h74v-632h337v-68h-411z" />
    <glyph glyph-name="lacute" unicode="&#x13a;" horiz-adv-x="233" 
d="M246 846l-93 -106h-66l74 106h85zM81 0v700h71v-700h-71z" />
    <glyph glyph-name="Lcommaaccent" unicode="&#x13b;" horiz-adv-x="525" 
d="M100 0v700h74v-632h337v-68h-411zM322 -62l-55 -138h-57l45 138h67z" />
    <glyph glyph-name="lcommaaccent" unicode="&#x13c;" horiz-adv-x="234" 
d="M81 0v700h71v-700h-71zM165 -62l-55 -138h-57l45 138h67z" />
    <glyph glyph-name="Lcaron" unicode="&#x13d;" horiz-adv-x="525" 
d="M100 0v700h74v-632h337v-68h-411zM377 700l-60 -206h-54l46 206h68z" />
    <glyph glyph-name="lcaron" unicode="&#x13e;" horiz-adv-x="318" 
d="M339 700l-60 -206h-54l46 206h68zM81 0v700h71v-700h-71z" />
    <glyph glyph-name="Ldot" unicode="&#x13f;" horiz-adv-x="525" 
d="M100 0v700h74v-632h337v-68h-411zM431 384v-78h-70v78h70z" />
    <glyph glyph-name="ldot" unicode="&#x140;" horiz-adv-x="348" 
d="M81 0v700h71v-700h-71zM327 310v-78h-70v78h70z" />
    <glyph glyph-name="Lslash" unicode="&#x141;" horiz-adv-x="525" 
d="M368 418v-65l-194 -56v-229h337v-68h-411v276l-83 -24v65l83 24v359h74v-338z" />
    <glyph glyph-name="lslash" unicode="&#x142;" horiz-adv-x="236" 
d="M80 330l-57 -43v66l57 43v304h71v-250l83 63v-67l-83 -63v-383h-71v330z" />
    <glyph glyph-name="Nacute" unicode="&#x143;" horiz-adv-x="783" 
d="M516 846l-93 -106h-66l74 106h85zM682 700v-709h-81l-427 603v-594h-74v709h81l428 -603v594h73z" />
    <glyph glyph-name="nacute" unicode="&#x144;" horiz-adv-x="541" 
d="M420 700l-113 -147h-66l93 147h86zM469 297v-297h-70v281q0 66 -29 101.5t-81 35.5q-59 0 -98.5 -42.5t-39.5 -106.5v-269h-70v466h66v-73h4q20 41 60.5 64.5t92.5 23.5q76 0 120.5 -49.5t44.5 -134.5z" />
    <glyph glyph-name="Ncommaaccent" unicode="&#x145;" horiz-adv-x="783" 
d="M682 700v-709h-81l-427 603v-594h-74v709h81l428 -603v594h73zM418 -62l-55 -138h-57l45 138h67z" />
    <glyph glyph-name="ncommaaccent" unicode="&#x146;" horiz-adv-x="541" 
d="M469 297v-297h-70v281q0 66 -29 101.5t-81 35.5q-59 0 -98.5 -42.5t-39.5 -106.5v-269h-70v466h66v-73h4q20 41 60.5 64.5t92.5 23.5q76 0 120.5 -49.5t44.5 -134.5zM307 -62l-55 -138h-57l45 138h67z" />
    <glyph glyph-name="Ncaron" unicode="&#x147;" horiz-adv-x="783" 
d="M391 768l82 78h68l-98 -106h-104l-99 106h69zM682 700v-709h-81l-427 603v-594h-74v709h81l428 -603v594h73z" />
    <glyph glyph-name="ncaron" unicode="&#x148;" horiz-adv-x="541" 
d="M273 590l86 110h68l-111 -147h-86l-110 147h67zM469 297v-297h-70v281q0 66 -29 101.5t-81 35.5q-59 0 -98.5 -42.5t-39.5 -106.5v-269h-70v466h66v-73h4q20 41 60.5 64.5t92.5 23.5q76 0 120.5 -49.5t44.5 -134.5z" />
    <glyph glyph-name="Eng" unicode="&#x14a;" horiz-adv-x="774" 
d="M462 -200q-51 0 -89 22v70q35 -24 80 -24q64 0 100.5 34.5t43.5 97.5l-423 582v-582h-74v709h71l429 -591v582h74v-659q0 -124 -56 -182.5t-156 -58.5z" />
    <glyph glyph-name="eng" unicode="&#x14b;" horiz-adv-x="541" 
d="M316 -193q-25 0 -41 4v62q21 -3 28 -3q96 0 96 110v301q0 66 -29 101.5t-81 35.5q-59 0 -98.5 -42.5t-39.5 -106.5v-269h-70v466h66v-73h4q20 40 61 63.5t92 23.5q76 0 120.5 -49t44.5 -134v-322q0 -81 -39.5 -124.5t-113.5 -43.5z" />
    <glyph glyph-name="Omacron" unicode="&#x14c;" horiz-adv-x="806" 
d="M565 819v-51h-324v51h324zM747 350q0 -161 -99 -263t-245 -102q-145 0 -244 102t-99 263t99 263t244 102q146 0 245 -102t99 -263zM672 350q0 131 -78 213.5t-191 82.5q-112 0 -190 -82.5t-78 -213.5t78 -213.5t190 -82.5q113 0 191 82.5t78 213.5z" />
    <glyph glyph-name="omacron" unicode="&#x14d;" horiz-adv-x="553" 
d="M435 652v-51h-324v51h324zM44 233q0 110 65.5 179t166.5 69t167 -69t66 -179q0 -109 -66.5 -178.5t-166.5 -69.5q-101 0 -166.5 69.5t-65.5 178.5zM114 233q0 -79 45 -132t117 -53q74 0 118.5 52.5t44.5 132.5q0 81 -44.5 133t-118.5 52q-73 0 -117.5 -52t-44.5 -133z
" />
    <glyph glyph-name="Obreve" unicode="&#x14e;" horiz-adv-x="806" 
d="M403 735q-50 0 -92 26t-56 85h56q11 -32 37 -49t55 -17t55 17t37 49h56q-14 -59 -56 -85t-92 -26zM747 350q0 -161 -99 -263t-245 -102q-145 0 -244 102t-99 263t99 263t244 102q146 0 245 -102t99 -263zM672 350q0 131 -78 213.5t-191 82.5q-112 0 -190 -82.5
t-78 -213.5t78 -213.5t190 -82.5q113 0 191 82.5t78 213.5z" />
    <glyph glyph-name="obreve" unicode="&#x14f;" horiz-adv-x="553" 
d="M274 559q-57 0 -97 35t-51 100h56q9 -42 34 -64t58 -22t58 22.5t34 63.5h56q-11 -65 -50.5 -100t-97.5 -35zM44 233q0 110 65.5 179t166.5 69t167 -69t66 -179q0 -109 -66.5 -178.5t-166.5 -69.5q-101 0 -166.5 69.5t-65.5 178.5zM114 233q0 -79 45 -132t117 -53
q74 0 118.5 52.5t44.5 132.5q0 81 -44.5 133t-118.5 52q-73 0 -117.5 -52t-44.5 -133z" />
    <glyph glyph-name="Ohungarumlaut" unicode="&#x150;" horiz-adv-x="806" 
d="M457 846l-93 -106h-66l74 106h85zM619 846l-93 -106h-66l74 106h85zM747 350q0 -161 -99 -263t-245 -102q-145 0 -244 102t-99 263t99 263t244 102q146 0 245 -102t99 -263zM672 350q0 131 -78 213.5t-191 82.5q-112 0 -190 -82.5t-78 -213.5t78 -213.5t190 -82.5
q113 0 191 82.5t78 213.5z" />
    <glyph glyph-name="ohungarumlaut" unicode="&#x151;" horiz-adv-x="553" 
d="M340 700l-113 -147h-66l93 147h86zM502 700l-113 -147h-66l93 147h86zM44 233q0 110 65.5 179t166.5 69t167 -69t66 -179q0 -109 -66.5 -178.5t-166.5 -69.5q-101 0 -166.5 69.5t-65.5 178.5zM114 233q0 -79 45 -132t117 -53q74 0 118.5 52.5t44.5 132.5q0 81 -44.5 133
t-118.5 52q-73 0 -117.5 -52t-44.5 -133z" />
    <glyph glyph-name="OE" unicode="&#x152;" horiz-adv-x="1068" 
d="M1001 68v-68h-584q-159 0 -258 95t-99 255q0 116 51 196.5t132 117t184 36.5h574v-68h-378v-243h286v-68h-286v-253h378zM415 68h135v564h-136q-122 0 -200 -76.5t-78 -205.5t77.5 -205.5t201.5 -76.5z" />
    <glyph glyph-name="oe" unicode="&#x153;" horiz-adv-x="925" 
d="M44 233q0 110 65.5 179t166.5 69q65 0 116 -28.5t81 -80.5q28 51 76.5 80t111.5 29q92 0 155.5 -63t66.5 -177v-24h-373q5 -77 48.5 -125t114.5 -48q92 0 133 83l59 -18q-57 -124 -193 -124q-65 0 -116.5 29.5t-81.5 80.5q-30 -52 -82 -81t-116 -29q-101 0 -166.5 69.5
t-65.5 178.5zM662 425q-65 0 -104.5 -42.5t-46.5 -115.5h299q-4 79 -46.5 118.5t-101.5 39.5zM114 233q0 -79 45 -132t117 -53q74 0 118.5 52.5t44.5 132.5q0 81 -44.5 133t-118.5 52q-73 0 -117.5 -52t-44.5 -133z" />
    <glyph glyph-name="Racute" unicode="&#x154;" horiz-adv-x="631" 
d="M427 837l-93 -106h-66l74 106h85zM585 0h-87l-193 313h-131v-313h-74v700h238q95 0 154.5 -53.5t59.5 -142.5q0 -71 -44.5 -123t-121.5 -64zM477 503q0 52 -37.5 90.5t-113.5 38.5h-152v-258h154q74 0 111.5 38.5t37.5 90.5z" />
    <glyph glyph-name="racute" unicode="&#x155;" horiz-adv-x="332" 
d="M357 700l-113 -147h-66l93 147h86zM81 0v466h66v-77h4q18 41 54 65t79 24q24 0 39 -7v-68q-15 6 -39 6q-59 0 -96 -46t-37 -125v-238h-70z" />
    <glyph glyph-name="Rcommaaccent" unicode="&#x156;" horiz-adv-x="631" 
d="M585 0h-87l-193 313h-131v-313h-74v700h238q95 0 154.5 -53.5t59.5 -142.5q0 -71 -44.5 -123t-121.5 -64zM477 503q0 52 -37.5 90.5t-113.5 38.5h-152v-258h154q74 0 111.5 38.5t37.5 90.5zM354 -62l-55 -138h-57l45 138h67z" />
    <glyph glyph-name="rcommaaccent" unicode="&#x157;" horiz-adv-x="332" 
d="M81 0v466h66v-77h4q18 41 54 65t79 24q24 0 39 -7v-68q-15 6 -39 6q-59 0 -96 -46t-37 -125v-238h-70zM147 -62l-55 -138h-57l45 138h67z" />
    <glyph glyph-name="Rcaron" unicode="&#x158;" horiz-adv-x="631" 
d="M302 759l82 78h68l-98 -106h-104l-99 106h69zM585 0h-87l-193 313h-131v-313h-74v700h238q95 0 154.5 -53.5t59.5 -142.5q0 -71 -44.5 -123t-121.5 -64zM477 503q0 52 -37.5 90.5t-113.5 38.5h-152v-258h154q74 0 111.5 38.5t37.5 90.5z" />
    <glyph glyph-name="rcaron" unicode="&#x159;" horiz-adv-x="332" 
d="M211 590l86 110h68l-111 -147h-86l-110 147h67zM81 0v466h66v-77h4q18 41 54 65t79 24q24 0 39 -7v-68q-15 6 -39 6q-59 0 -96 -46t-37 -125v-238h-70z" />
    <glyph glyph-name="Sacute" unicode="&#x15a;" horiz-adv-x="595" 
d="M427 846l-93 -106h-66l74 106h85zM304 -15q-92 0 -162.5 48t-81.5 136l71 14q10 -66 60 -99.5t115 -33.5q71 0 115 37.5t44 97.5q0 41 -21 68.5t-54.5 41.5t-73.5 24.5t-80.5 23t-74 31.5t-54.5 57t-21 92q0 87 62 139.5t157 52.5q96 0 158 -52.5t73 -134.5l-71 -12
q-9 59 -51.5 96.5t-111.5 37.5q-60 0 -100.5 -32.5t-40.5 -89.5q0 -55 39 -85.5t94.5 -43.5t111.5 -29.5t95 -59.5t39 -117q0 -94 -66.5 -151t-169.5 -57z" />
    <glyph glyph-name="sacute" unicode="&#x15b;" horiz-adv-x="442" 
d="M365 700l-113 -147h-66l93 147h86zM229 -15q-70 0 -119.5 33.5t-62.5 90.5l64 13q10 -39 42.5 -61t77.5 -22q48 0 73.5 24.5t25.5 63.5q0 35 -27.5 54t-67 27t-79 18.5t-67 40t-27.5 80.5q0 60 44.5 97t116.5 37q66 0 114.5 -34t57.5 -86l-66 -14q-4 35 -33.5 57
t-71.5 22q-45 0 -68.5 -21.5t-23.5 -52.5q0 -34 27.5 -53t67 -27.5t79 -19.5t67 -40.5t27.5 -80.5q0 -67 -47.5 -106.5t-123.5 -39.5z" />
    <glyph glyph-name="Scircumflex" unicode="&#x15c;" horiz-adv-x="595" 
d="M353 846l98 -106h-68l-82 78l-82 -78h-69l99 106h104zM304 -15q-92 0 -162.5 48t-81.5 136l71 14q10 -66 60 -99.5t115 -33.5q71 0 115 37.5t44 97.5q0 41 -21 68.5t-54.5 41.5t-73.5 24.5t-80.5 23t-74 31.5t-54.5 57t-21 92q0 87 62 139.5t157 52.5q96 0 158 -52.5
t73 -134.5l-71 -12q-9 59 -51.5 96.5t-111.5 37.5q-60 0 -100.5 -32.5t-40.5 -89.5q0 -55 39 -85.5t94.5 -43.5t111.5 -29.5t95 -59.5t39 -117q0 -94 -66.5 -151t-169.5 -57z" />
    <glyph glyph-name="scircumflex" unicode="&#x15d;" horiz-adv-x="442" 
d="M261 700l111 -147h-68l-86 111l-86 -111h-67l110 147h86zM229 -15q-70 0 -119.5 33.5t-62.5 90.5l64 13q10 -39 42.5 -61t77.5 -22q48 0 73.5 24.5t25.5 63.5q0 35 -27.5 54t-67 27t-79 18.5t-67 40t-27.5 80.5q0 60 44.5 97t116.5 37q66 0 114.5 -34t57.5 -86l-66 -14
q-4 35 -33.5 57t-71.5 22q-45 0 -68.5 -21.5t-23.5 -52.5q0 -34 27.5 -53t67 -27.5t79 -19.5t67 -40.5t27.5 -80.5q0 -67 -47.5 -106.5t-123.5 -39.5z" />
    <glyph glyph-name="Scedilla" unicode="&#x15e;" horiz-adv-x="595" 
d="M334 -14l-41 -186l-62 8l40 179q-81 8 -141 55.5t-70 126.5l71 14q10 -66 60 -99.5t115 -33.5q71 0 115 37.5t44 97.5q0 41 -21 68.5t-54.5 41.5t-73.5 24.5t-80.5 23t-74 31.5t-54.5 57t-21 92q0 87 62 139.5t157 52.5q96 0 158 -52.5t73 -134.5l-71 -12
q-9 59 -51.5 96.5t-111.5 37.5q-60 0 -100.5 -32.5t-40.5 -89.5q0 -55 39 -85.5t94.5 -43.5t111.5 -29.5t95 -59.5t39 -117q0 -86 -57 -142t-149 -65z" />
    <glyph glyph-name="scedilla" unicode="&#x15f;" horiz-adv-x="442" 
d="M260 -13l-41 -187l-62 8l40 179q-59 8 -99 40t-51 82l64 13q10 -39 42.5 -61t77.5 -22q48 0 73.5 24.5t25.5 63.5q0 35 -27.5 54t-67 27t-79 18.5t-67 40t-27.5 80.5q0 60 44.5 97t116.5 37q66 0 114.5 -34t57.5 -86l-66 -14q-4 35 -33.5 57t-71.5 22q-45 0 -68.5 -21.5
t-23.5 -52.5q0 -34 27.5 -53t67 -27.5t79 -19.5t67 -40.5t27.5 -80.5q0 -60 -38 -98t-102 -46z" />
    <glyph glyph-name="Scaron" unicode="&#x160;" horiz-adv-x="595" 
d="M301 768l82 78h68l-98 -106h-104l-99 106h69zM304 -15q-92 0 -162.5 48t-81.5 136l71 14q10 -66 60 -99.5t115 -33.5q71 0 115 37.5t44 97.5q0 41 -21 68.5t-54.5 41.5t-73.5 24.5t-80.5 23t-74 31.5t-54.5 57t-21 92q0 87 62 139.5t157 52.5q96 0 158 -52.5t73 -134.5
l-71 -12q-9 59 -51.5 96.5t-111.5 37.5q-60 0 -100.5 -32.5t-40.5 -89.5q0 -55 39 -85.5t94.5 -43.5t111.5 -29.5t95 -59.5t39 -117q0 -94 -66.5 -151t-169.5 -57z" />
    <glyph glyph-name="scaron" unicode="&#x161;" horiz-adv-x="442" 
d="M218 590l86 110h68l-111 -147h-86l-110 147h67zM229 -15q-70 0 -119.5 33.5t-62.5 90.5l64 13q10 -39 42.5 -61t77.5 -22q48 0 73.5 24.5t25.5 63.5q0 35 -27.5 54t-67 27t-79 18.5t-67 40t-27.5 80.5q0 60 44.5 97t116.5 37q66 0 114.5 -34t57.5 -86l-66 -14
q-4 35 -33.5 57t-71.5 22q-45 0 -68.5 -21.5t-23.5 -52.5q0 -34 27.5 -53t67 -27.5t79 -19.5t67 -40.5t27.5 -80.5q0 -67 -47.5 -106.5t-123.5 -39.5z" />
    <glyph glyph-name="Tcaron" unicode="&#x164;" horiz-adv-x="575" 
d="M288 768l82 78h68l-98 -106h-104l-99 106h69zM31 700h513v-68h-219v-632h-74v632h-220v68z" />
    <glyph glyph-name="tcaron" unicode="&#x165;" horiz-adv-x="348" 
d="M341 724l-60 -206h-54l46 206h68zM256 -9q-146 0 -146 161v253h-95v61h95v136l70 14v-150h151v-61h-151v-241q0 -61 21 -87.5t67 -26.5q37 0 57 13l10 -57q-27 -15 -79 -15z" />
    <glyph glyph-name="Tbar" unicode="&#x166;" horiz-adv-x="575" 
d="M502 363v-63h-177v-300h-74v300h-178v63h178v269h-220v68h513v-68h-219v-269h177z" />
    <glyph glyph-name="tbar" unicode="&#x167;" horiz-adv-x="348" 
d="M256 -9q-146 0 -146 161v56h-85v57h85v140h-95v61h95v136l70 14v-150h151v-61h-151v-140h136v-57h-136v-44q0 -61 21 -87.5t67 -26.5q37 0 57 13l10 -57q-27 -15 -79 -15z" />
    <glyph glyph-name="Utilde" unicode="&#x168;" horiz-adv-x="727" 
d="M430 747q-29 0 -70.5 23t-59.5 23q-34 0 -44 -45h-44q8 46 31 69t55 23q29 0 70.5 -23.5t59.5 -23.5q34 0 44 45h44q-7 -46 -29.5 -68.5t-56.5 -22.5zM363 -15q-126 0 -200 75.5t-74 221.5v418h73v-408q0 -119 53.5 -178t147.5 -59q95 0 149 59t54 178v408h73v-417
q0 -147 -74 -222.5t-202 -75.5z" />
    <glyph glyph-name="utilde" unicode="&#x169;" horiz-adv-x="541" 
d="M329 570q-30 0 -67.5 29.5t-58.5 29.5q-39 0 -46 -58h-51q11 113 89 113q30 0 67.5 -29.5t58.5 -29.5q39 0 46 58h51q-11 -113 -89 -113zM459 466v-466h-65v73h-4q-19 -40 -59.5 -64t-93.5 -24q-76 0 -120.5 49.5t-44.5 134.5v297h70v-282q0 -65 29 -101t81 -36
q59 0 98.5 43t39.5 107v269h69z" />
    <glyph glyph-name="Umacron" unicode="&#x16a;" horiz-adv-x="727" 
d="M526 819v-51h-324v51h324zM363 -15q-126 0 -200 75.5t-74 221.5v418h73v-408q0 -119 53.5 -178t147.5 -59q95 0 149 59t54 178v408h73v-417q0 -147 -74 -222.5t-202 -75.5z" />
    <glyph glyph-name="umacron" unicode="&#x16b;" horiz-adv-x="541" 
d="M423 652v-51h-324v51h324zM459 466v-466h-65v73h-4q-19 -40 -59.5 -64t-93.5 -24q-76 0 -120.5 49.5t-44.5 134.5v297h70v-282q0 -65 29 -101t81 -36q59 0 98.5 43t39.5 107v269h69z" />
    <glyph glyph-name="Ubreve" unicode="&#x16c;" horiz-adv-x="727" 
d="M364 735q-50 0 -92 26t-56 85h56q11 -32 37 -49t55 -17t55 17t37 49h56q-14 -59 -56 -85t-92 -26zM363 -15q-126 0 -200 75.5t-74 221.5v418h73v-408q0 -119 53.5 -178t147.5 -59q95 0 149 59t54 178v408h73v-417q0 -147 -74 -222.5t-202 -75.5z" />
    <glyph glyph-name="ubreve" unicode="&#x16d;" horiz-adv-x="541" 
d="M262 559q-57 0 -97 35t-51 100h56q9 -42 34 -64t58 -22t58 22.5t34 63.5h56q-11 -65 -50.5 -100t-97.5 -35zM459 466v-466h-65v73h-4q-19 -40 -59.5 -64t-93.5 -24q-76 0 -120.5 49.5t-44.5 134.5v297h70v-282q0 -65 29 -101t81 -36q59 0 98.5 43t39.5 107v269h69z" />
    <glyph glyph-name="Uring" unicode="&#x16e;" horiz-adv-x="727" 
d="M364 743q-45 0 -75 28t-30 70q0 43 30 71t75 28q46 0 75.5 -28t29.5 -71q0 -42 -29.5 -70t-75.5 -28zM364 781q27 0 44 17.5t17 42.5q0 27 -17 44t-44 17t-44 -17t-17 -44q0 -25 17 -42.5t44 -17.5zM363 -15q-126 0 -200 75.5t-74 221.5v418h73v-408q0 -119 53.5 -178
t147.5 -59q95 0 149 59t54 178v408h73v-417q0 -147 -74 -222.5t-202 -75.5z" />
    <glyph glyph-name="uring" unicode="&#x16f;" horiz-adv-x="541" 
d="M262 536q-45 0 -75 28t-30 71t30 71t75 28q46 0 75.5 -28t29.5 -71t-29.5 -71t-75.5 -28zM262 574q27 0 44 18t17 43t-17 42.5t-44 17.5t-44 -17.5t-17 -42.5t17 -43t44 -18zM459 466v-466h-65v73h-4q-19 -40 -59.5 -64t-93.5 -24q-76 0 -120.5 49.5t-44.5 134.5v297h70
v-282q0 -65 29 -101t81 -36q59 0 98.5 43t39.5 107v269h69z" />
    <glyph glyph-name="Uhungarumlaut" unicode="&#x170;" horiz-adv-x="727" 
d="M429 909l-113 -147h-66l93 147h86zM591 909l-113 -147h-66l93 147h86zM363 -15q-126 0 -200 75.5t-74 221.5v418h73v-408q0 -119 53.5 -178t147.5 -59q95 0 149 59t54 178v408h73v-417q0 -147 -74 -222.5t-202 -75.5z" />
    <glyph glyph-name="uhungarumlaut" unicode="&#x171;" horiz-adv-x="541" 
d="M328 700l-113 -147h-66l93 147h86zM490 700l-113 -147h-66l93 147h86zM459 466v-466h-65v73h-4q-19 -40 -59.5 -64t-93.5 -24q-76 0 -120.5 49.5t-44.5 134.5v297h70v-282q0 -65 29 -101t81 -36q59 0 98.5 43t39.5 107v269h69z" />
    <glyph glyph-name="Uogonek" unicode="&#x172;" horiz-adv-x="727" 
d="M434 -200q-51 0 -82 21.5t-31 64.5q0 57 56 98v4q-3 0 -15 -0.5t-16 -0.5q-114 0 -185.5 75.5t-71.5 215.5v422h73v-408q0 -119 53.5 -178t147.5 -59q95 0 149 59t54 178v408h73v-417q0 -208 -160 -282q-52 -25 -74.5 -49t-22.5 -55q0 -25 17.5 -38t44.5 -13q10 0 31 3
v-46q-19 -3 -41 -3z" />
    <glyph glyph-name="uogonek" unicode="&#x173;" horiz-adv-x="541" 
d="M459 466v-466h-2q-92 -49 -92 -105q0 -24 17.5 -36.5t43.5 -12.5q11 0 32 3v-46q-20 -3 -42 -3q-51 0 -82 21t-31 62q0 70 91 125v65h-4q-19 -40 -59.5 -64t-93.5 -24q-76 0 -120.5 49.5t-44.5 134.5v297h70v-282q0 -65 29 -101t81 -36q59 0 98.5 43t39.5 107v269h69z
" />
    <glyph glyph-name="Wcircumflex" unicode="&#x174;" horiz-adv-x="975" 
d="M542 846l98 -106h-68l-82 78l-82 -78h-69l99 106h104zM225 -9l-195 709h83l156 -584h4l180 584h75l180 -583h5l156 583h76l-192 -709h-79l-183 594h-4l-183 -594h-79z" />
    <glyph glyph-name="wcircumflex" unicode="&#x175;" horiz-adv-x="741" 
d="M414 700l111 -147h-68l-86 111l-86 -111h-67l110 147h86zM714 466l-151 -474h-64l-127 383l-128 -383h-67l-150 474h74l114 -374h2l124 374h66l124 -373h2l114 373h67z" />
    <glyph glyph-name="Ycircumflex" unicode="&#x176;" horiz-adv-x="612" 
d="M362 846l98 -106h-68l-82 78l-82 -78h-69l99 106h104zM343 301v-301h-73v301l-245 399h87l195 -325h4l195 325h81z" />
    <glyph glyph-name="ycircumflex" unicode="&#x177;" horiz-adv-x="494" 
d="M290 700l111 -147h-68l-86 111l-86 -111h-67l110 147h86zM472 466l-269 -659h-70l85 207l-198 452h78l158 -369l145 369h71z" />
    <glyph glyph-name="Ydieresis" unicode="&#x178;" horiz-adv-x="612" 
d="M244 841v-96h-66v96h66zM440 841v-96h-66v96h66zM343 301v-301h-73v301l-245 399h87l195 -325h4l195 325h81z" />
    <glyph glyph-name="Zacute" unicode="&#x179;" horiz-adv-x="622" 
d="M448 846l-93 -106h-66l74 106h85zM562 68v-68h-497v64l400 568h-377v68h469v-64l-401 -568h406z" />
    <glyph glyph-name="zacute" unicode="&#x17a;" horiz-adv-x="452" 
d="M386 700l-113 -147h-66l93 147h86zM72 466h339v-56l-280 -350h293v-60h-376v56l280 350h-256v60z" />
    <glyph glyph-name="Zdotaccent" unicode="&#x17b;" horiz-adv-x="622" 
d="M358 828v-69h-70v69h70zM562 68v-68h-497v64l400 568h-377v68h469v-64l-401 -568h406z" />
    <glyph glyph-name="zdotaccent" unicode="&#x17c;" horiz-adv-x="452" 
d="M275 666v-78h-70v78h70zM72 466h339v-56l-280 -350h293v-60h-376v56l280 350h-256v60z" />
    <glyph glyph-name="Zcaron" unicode="&#x17d;" horiz-adv-x="622" 
d="M323 768l82 78h68l-98 -106h-104l-99 106h69zM562 68v-68h-497v64l400 568h-377v68h469v-64l-401 -568h406z" />
    <glyph glyph-name="zcaron" unicode="&#x17e;" horiz-adv-x="452" 
d="M239 590l86 110h68l-111 -147h-86l-110 147h67zM72 466h339v-56l-280 -350h293v-60h-376v56l280 350h-256v60z" />
    <glyph glyph-name="florin" unicode="&#x192;" horiz-adv-x="568" 
d="M518 376v-51h-244v-426h-72v426h-151v51h151v84q0 125 64.5 190t166.5 65q53 0 75 -12v-67q-24 13 -75 13q-66 0 -112.5 -46.5t-46.5 -150.5v-76h244z" />
    <glyph glyph-name="Aringacute" unicode="&#x1fa;" horiz-adv-x="673" 
d="M463 1079l-93 -106h-66l74 106h85zM337 743q-45 0 -75 28t-30 70q0 43 30 71t75 28q46 0 75.5 -28t29.5 -71q0 -42 -29.5 -70t-75.5 -28zM337 781q27 0 44 17.5t17 42.5q0 27 -17 44t-44 17t-44 -17t-17 -44q0 -25 17 -42.5t44 -17.5zM378 709l269 -709h-79l-81 217h-303
l-80 -217h-78l270 709h82zM338 624h-4l-125 -340h255z" />
    <glyph glyph-name="aringacute" unicode="&#x1fb;" horiz-adv-x="513" 
d="M393 884l-93 -106h-66l74 106h85zM269 536q-45 0 -75 28t-30 71t30 71t75 28q46 0 75.5 -28t29.5 -71t-29.5 -71t-75.5 -28zM269 574q27 0 44 18t17 43t-17 42.5t-44 17.5t-44 -17.5t-17 -42.5t17 -43t44 -18zM445 309v-309h-67v59h-2q-19 -34 -59.5 -53.5t-90.5 -19.5
q-73 0 -118 39.5t-45 102.5q0 68 52 109.5t140 41.5q78 0 120 -25v54q0 54 -29 84.5t-82 30.5q-87 0 -112 -76l-70 7q17 60 67 93.5t120 33.5q83 0 129.5 -45.5t46.5 -126.5zM134 134q0 -40 30 -65.5t76 -25.5q54 0 95 32.5t41 73.5v49q-41 28 -114 28q-60 0 -94 -25
t-34 -67z" />
    <glyph glyph-name="AEacute" unicode="&#x1fc;" horiz-adv-x="953" 
d="M598 846l-93 -106h-66l74 106h85zM885 68v-68h-451v216h-239l-115 -216h-80l373 700h512v-68h-377v-243h286v-68h-286v-253h377zM434 632h-17l-186 -348h203v348z" />
    <glyph glyph-name="aeacute" unicode="&#x1fd;" horiz-adv-x="858" 
d="M560 700l-113 -147h-66l93 147h86zM235 -14q-76 0 -124 40t-48 104q0 67 52.5 108t139.5 41q78 0 120 -25v54q0 55 -29 85t-82 30q-87 0 -112 -76l-70 7q17 60 66.5 93.5t118.5 33.5q62 0 102 -28.5t53 -80.5q21 49 68 79t107 30q92 0 157 -63.5t65 -176.5v-24h-374
q4 -76 48.5 -124t116.5 -48q93 0 133 82l59 -14q-25 -61 -75 -94t-119 -33q-66 0 -117.5 31.5t-78.5 85.5q-18 -54 -65 -85.5t-112 -31.5zM598 424q-65 0 -104.5 -42t-47.5 -115h301q-6 79 -48 118t-101 39zM241 43q57 0 96 36t39 83v36q-41 28 -114 28q-59 0 -93.5 -25
t-34.5 -67q0 -40 29.5 -65.5t77.5 -25.5z" />
    <glyph glyph-name="Oslashacute" unicode="&#x1fe;" horiz-adv-x="806" 
d="M529 846l-93 -106h-66l74 106h85zM197 53l-55 -68h-82l91 111q-91 101 -91 254q0 161 99 263t244 102q117 0 206 -68l56 68h82l-91 -111q91 -101 91 -254q0 -161 -99 -263t-245 -102q-115 0 -206 68zM135 350q0 -116 64 -198l366 438q-71 56 -162 56q-112 0 -190 -82.5
t-78 -213.5zM672 350q0 116 -65 199l-365 -439q71 -56 161 -56q113 0 191 82.5t78 213.5z" />
    <glyph glyph-name="oslashacute" unicode="&#x1ff;" horiz-adv-x="553" 
d="M420 700l-113 -147h-66l93 147h86zM145 24l-29 -38h-73l60 75q-59 69 -59 172q0 110 65.5 179t166.5 69q74 0 132 -39l29 38h73l-60 -75q59 -69 59 -172q0 -109 -66.5 -178.5t-166.5 -69.5q-72 0 -131 39zM114 233q0 -70 35 -120l220 276q-38 29 -93 29q-73 0 -117.5 -52
t-44.5 -133zM439 233q0 70 -35 120l-221 -276q46 -29 93 -29q74 0 118.5 52.5t44.5 132.5z" />
    <glyph glyph-name="Scommaaccent" unicode="&#x218;" horiz-adv-x="595" 
d="M304 -15q-92 0 -162.5 48t-81.5 136l71 14q10 -66 60 -99.5t115 -33.5q71 0 115 37.5t44 97.5q0 41 -21 68.5t-54.5 41.5t-73.5 24.5t-80.5 23t-74 31.5t-54.5 57t-21 92q0 87 62 139.5t157 52.5q96 0 158 -52.5t73 -134.5l-71 -12q-9 59 -51.5 96.5t-111.5 37.5
q-60 0 -100.5 -32.5t-40.5 -89.5q0 -55 39 -85.5t94.5 -43.5t111.5 -29.5t95 -59.5t39 -117q0 -94 -66.5 -151t-169.5 -57zM339 -62l-55 -138h-57l45 138h67z" />
    <glyph glyph-name="scommaaccent" unicode="&#x219;" horiz-adv-x="442" 
d="M229 -15q-70 0 -119.5 33.5t-62.5 90.5l64 13q10 -39 42.5 -61t77.5 -22q48 0 73.5 24.5t25.5 63.5q0 35 -27.5 54t-67 27t-79 18.5t-67 40t-27.5 80.5q0 60 44.5 97t116.5 37q66 0 114.5 -34t57.5 -86l-66 -14q-4 35 -33.5 57t-71.5 22q-45 0 -68.5 -21.5t-23.5 -52.5
q0 -34 27.5 -53t67 -27.5t79 -19.5t67 -40.5t27.5 -80.5q0 -67 -47.5 -106.5t-123.5 -39.5zM265 -62l-55 -138h-57l45 138h67z" />
    <glyph glyph-name="Tcommaaccent" unicode="&#x21a;" horiz-adv-x="575" 
d="M31 700h513v-68h-219v-632h-74v632h-220v68zM322 -62l-55 -138h-57l45 138h67z" />
    <glyph glyph-name="tcommaaccent" unicode="&#x21b;" horiz-adv-x="348" 
d="M256 -9q-146 0 -146 161v253h-95v61h95v136l70 14v-150h151v-61h-151v-241q0 -61 21 -87.5t67 -26.5q37 0 57 13l10 -57q-27 -15 -79 -15zM270 -62l-55 -138h-57l45 138h67z" />
    <glyph glyph-name="circumflex" unicode="&#x2c6;" horiz-adv-x="500" 
d="M293 700l111 -147h-68l-86 111l-86 -111h-67l110 147h86z" />
    <glyph glyph-name="caron" unicode="&#x2c7;" horiz-adv-x="500" 
d="M250 590l86 110h68l-111 -147h-86l-110 147h67z" />
    <glyph glyph-name="breve" unicode="&#x2d8;" horiz-adv-x="500" 
d="M250 559q-57 0 -97 35t-51 100h56q9 -42 34 -64t58 -22t58 22.5t34 63.5h56q-11 -65 -50.5 -100t-97.5 -35z" />
    <glyph glyph-name="dotaccent" unicode="&#x2d9;" horiz-adv-x="500" 
d="M285 666v-78h-70v78h70z" />
    <glyph glyph-name="ring" unicode="&#x2da;" horiz-adv-x="500" 
d="M250 536q-45 0 -75 28t-30 71t30 71t75 28q46 0 75.5 -28t29.5 -71t-29.5 -71t-75.5 -28zM250 574q27 0 44 18t17 43t-17 42.5t-44 17.5t-44 -17.5t-17 -42.5t17 -43t44 -18z" />
    <glyph glyph-name="ogonek" unicode="&#x2db;" horiz-adv-x="500" 
d="M294 -200q-51 0 -82 21t-31 62q0 80 121 141l33 -24q-92 -49 -92 -105q0 -24 17.5 -36.5t43.5 -12.5q11 0 32 3v-46q-20 -3 -42 -3z" />
    <glyph glyph-name="tilde" unicode="&#x2dc;" horiz-adv-x="500" 
d="M316 570q-30 0 -67.5 29.5t-58.5 29.5q-39 0 -46 -58h-51q11 113 89 113q29 0 67.5 -29.5t58.5 -29.5q39 0 46 58h51q-11 -113 -89 -113z" />
    <glyph glyph-name="hungarumlaut" unicode="&#x2dd;" horiz-adv-x="500" 
d="M263 700l-113 -147h-66l93 147h86zM425 700l-113 -147h-66l93 147h86z" />
    <glyph glyph-name="commaaccent" unicode="&#x326;" horiz-adv-x="500" 
d="M306 -62l-55 -138h-57l45 138h67z" />
    <glyph glyph-name="pi" unicode="&#x3c0;" horiz-adv-x="610" 
d="M515 -6q-62 0 -92.5 35t-30.5 112v259h-198v-400h-70v400h-86v62h524v-62h-100v-254q0 -89 63 -89q19 0 37 8v-63q-22 -8 -47 -8z" />
    <glyph glyph-name="Wgrave" unicode="&#x1e80;" horiz-adv-x="975" 
d="M448 846l74 -106h-66l-93 106h85zM225 -9l-195 709h83l156 -584h4l180 584h75l180 -583h5l156 583h76l-192 -709h-79l-183 594h-4l-183 -594h-79z" />
    <glyph glyph-name="wgrave" unicode="&#x1e81;" horiz-adv-x="741" 
d="M235 700h85l85 -147h-66zM714 466l-151 -474h-64l-127 383l-128 -383h-67l-150 474h74l114 -374h2l124 374h66l124 -373h2l114 373h67z" />
    <glyph glyph-name="Wacute" unicode="&#x1e82;" horiz-adv-x="975" 
d="M615 846l-93 -106h-66l74 106h85zM225 -9l-195 709h83l156 -584h4l180 584h75l180 -583h5l156 583h76l-192 -709h-79l-183 594h-4l-183 -594h-79z" />
    <glyph glyph-name="wacute" unicode="&#x1e83;" horiz-adv-x="741" 
d="M517 700l-113 -147h-66l93 147h86zM714 466l-151 -474h-64l-127 383l-128 -383h-67l-150 474h74l114 -374h2l124 374h66l124 -373h2l114 373h67z" />
    <glyph glyph-name="Wdieresis" unicode="&#x1e84;" horiz-adv-x="975" 
d="M424 841v-96h-66v96h66zM620 841v-96h-66v96h66zM225 -9l-195 709h83l156 -584h4l180 584h75l180 -583h5l156 583h76l-192 -709h-79l-183 594h-4l-183 -594h-79z" />
    <glyph glyph-name="wdieresis" unicode="&#x1e85;" horiz-adv-x="741" 
d="M306 677v-101h-66v101h66zM502 677v-101h-66v101h66zM714 466l-151 -474h-64l-127 383l-128 -383h-67l-150 474h74l114 -374h2l124 374h66l124 -373h2l114 373h67z" />
    <glyph glyph-name="Ygrave" unicode="&#x1ef2;" horiz-adv-x="612" 
d="M268 846l74 -106h-66l-93 106h85zM343 301v-301h-73v301l-245 399h87l195 -325h4l195 325h81z" />
    <glyph glyph-name="ygrave" unicode="&#x1ef3;" horiz-adv-x="494" 
d="M110 700h85l85 -147h-66zM472 466l-269 -659h-70l85 207l-198 452h78l158 -369l145 369h71z" />
    <glyph glyph-name="endash" unicode="&#x2013;" horiz-adv-x="500" 
d="M480 251h-460v55h460v-55z" />
    <glyph glyph-name="emdash" unicode="&#x2014;" horiz-adv-x="1000" 
d="M980 251h-960v55h960v-55z" />
    <glyph glyph-name="quoteleft" unicode="&#x2018;" horiz-adv-x="257" 
d="M60 455l82 245h58l-70 -245h-70z" />
    <glyph glyph-name="quoteright" unicode="&#x2019;" horiz-adv-x="257" 
d="M197 700l-82 -245h-58l70 245h70z" />
    <glyph glyph-name="quotesinglbase" unicode="&#x201a;" horiz-adv-x="257" 
d="M190 113l-82 -245h-58l70 245h70z" />
    <glyph glyph-name="quotedblleft" unicode="&#x201c;" horiz-adv-x="418" 
d="M60 455l82 245h58l-70 -245h-70zM222 455l82 245h58l-70 -245h-70z" />
    <glyph glyph-name="quotedblright" unicode="&#x201d;" horiz-adv-x="418" 
d="M197 700l-82 -245h-58l70 245h70zM358 700l-82 -245h-58l70 245h70z" />
    <glyph glyph-name="quotedblbase" unicode="&#x201e;" horiz-adv-x="418" 
d="M190 113l-82 -245h-58l70 245h70zM351 113l-82 -245h-58l70 245h70z" />
    <glyph glyph-name="dagger" unicode="&#x2020;" horiz-adv-x="421" 
d="M235 426v-503h-49v503h-138v51h138v223h49v-223h138v-51h-138z" />
    <glyph glyph-name="daggerdbl" unicode="&#x2021;" horiz-adv-x="421" 
d="M235 146v-223h-49v223h-138v51h138v229h-138v51h138v223h49v-223h138v-51h-138v-229h138v-51h-138z" />
    <glyph glyph-name="bullet" unicode="&#x2022;" horiz-adv-x="442" 
d="M221 115q-69 0 -116 45.5t-47 117.5t47 117.5t116 45.5t116 -45.5t47 -117.5t-47 -117.5t-116 -45.5z" />
    <glyph glyph-name="ellipsis" unicode="&#x2026;" horiz-adv-x="771" 
d="M167 0h-77v109h77v-109zM424 0h-77v109h77v-109zM681 0h-77v109h77v-109z" />
    <glyph glyph-name="perthousand" unicode="&#x2030;" horiz-adv-x="1109" 
d="M183 325q-67 0 -108 53t-41 142t41 142t108 53t108.5 -53t41.5 -142t-41.5 -142t-108.5 -53zM582 700h57l-461 -700h-58zM183 379q44 0 68.5 37.5t24.5 103.5t-24.5 103.5t-68.5 37.5q-43 0 -67.5 -38t-24.5 -103t24.5 -103t67.5 -38zM577 -15q-67 0 -108 53t-41 142
t41 142t108 53t108.5 -53.5t41.5 -141.5t-41.5 -141.5t-108.5 -53.5zM925 -15q-67 0 -108 53t-41 142t41 142t108 53t108.5 -53.5t41.5 -141.5t-41.5 -141.5t-108.5 -53.5zM577 39q44 0 68.5 37.5t24.5 103.5t-24.5 103.5t-68.5 37.5q-43 0 -67.5 -38t-24.5 -103t24.5 -103
t67.5 -38zM925 39q44 0 68.5 37.5t24.5 103.5t-24.5 103.5t-68.5 37.5q-43 0 -67.5 -38t-24.5 -103t24.5 -103t67.5 -38z" />
    <glyph glyph-name="guilsinglleft" unicode="&#x2039;" horiz-adv-x="284" 
d="M128 278l99 -202h-67l-99 202l99 202h67z" />
    <glyph glyph-name="guilsinglright" unicode="&#x203a;" horiz-adv-x="284" 
d="M223 278l-99 -202h-67l99 202l-99 202h67z" />
    <glyph glyph-name="fraction" unicode="&#x2044;" horiz-adv-x="182" 
d="M293 700h57l-461 -700h-58z" />
    <glyph glyph-name="zerosuperior" unicode="&#x2070;" horiz-adv-x="387" 
d="M194 391q-76 0 -121 61t-45 158q0 98 44.5 158.5t120.5 60.5t121.5 -60.5t45.5 -158.5q0 -97 -45 -158t-121 -61zM194 441q53 0 82 46.5t29 122.5t-29.5 122.5t-82.5 46.5q-52 0 -81 -46.5t-29 -122.5t29 -122.5t82 -46.5z" />
    <glyph glyph-name="foursuperior" unicode="&#x2074;" horiz-adv-x="352" 
d="M284 496v-96h-55v96h-209v46l171 278h93v-274h54v-50h-54zM225 783l-149 -237h153v237h-4z" />
    <glyph glyph-name="fivesuperior" unicode="&#x2075;" horiz-adv-x="357" 
d="M179 391q-56 0 -97.5 32t-44.5 76l52 3q6 -26 31 -43.5t58 -17.5q41 0 67.5 26.5t26.5 67.5q0 44 -25.5 70t-67.5 26q-60 0 -78 -43h-48v232h255v-51h-203v-121q26 32 88 32q60 0 98 -39.5t38 -102.5q0 -62 -43 -104.5t-107 -42.5z" />
    <glyph glyph-name="sixsuperior" unicode="&#x2076;" horiz-adv-x="357" 
d="M193 391q-158 0 -158 217q0 105 40 163t113 58q50 0 88 -26t51 -69l-55 -9q-8 26 -30.5 40.5t-52.5 14.5q-47 0 -72.5 -40.5t-25.5 -114.5v-19q12 29 42 46t69 17q57 0 94.5 -38t37.5 -96q0 -63 -39.5 -103.5t-101.5 -40.5zM189 441q40 0 64.5 25t24.5 65t-24.5 64.5
t-64.5 24.5t-65 -24.5t-25 -64.5t25 -65t65 -25z" />
    <glyph glyph-name="sevensuperior" unicode="&#x2077;" horiz-adv-x="352" 
d="M45 820h270v-49l-201 -371h-62l205 369h-212v51z" />
    <glyph glyph-name="eightsuperior" unicode="&#x2078;" horiz-adv-x="357" 
d="M179 391q-65 0 -105.5 35.5t-40.5 90.5q0 38 18.5 65.5t49.5 37.5q-25 12 -40 37.5t-15 56.5q0 51 37.5 83t95.5 32q59 0 96.5 -32.5t37.5 -82.5q0 -31 -15.5 -56.5t-41.5 -37.5q32 -11 50.5 -39t18.5 -65q0 -55 -40.5 -90t-105.5 -35zM179 643q35 0 56 19.5t21 50.5
q0 29 -21.5 48t-55.5 19t-56 -19t-22 -48q0 -31 22 -50.5t56 -19.5zM179 441q38 0 63 21.5t25 55.5q0 35 -24.5 56.5t-63.5 21.5t-64 -21.5t-25 -56.5q0 -34 25 -55.5t64 -21.5z" />
    <glyph glyph-name="ninesuperior" unicode="&#x2079;" horiz-adv-x="357" 
d="M164 829q158 0 158 -217q0 -105 -40 -163t-113 -58q-49 0 -87 26t-52 69l55 9q8 -25 31 -40t52 -15q47 0 72.5 40.5t25.5 114.5v19q-12 -28 -42 -45.5t-69 -17.5q-57 0 -94.5 38t-37.5 96q0 63 40 103.5t101 40.5zM168 779q-40 0 -64.5 -24.5t-24.5 -64.5t24.5 -65
t64.5 -25q41 0 65.5 25t24.5 65t-24.5 64.5t-65.5 24.5z" />
    <glyph glyph-name="plussuperior" unicode="&#x207a;" horiz-adv-x="430" 
d="M194 589h-143v43h143v152h43v-152h142v-43h-142v-153h-43v153z" />
    <glyph glyph-name="minussuperior" unicode="&#x207b;" horiz-adv-x="350" 
d="M299 589h-248v43h248v-43z" />
    <glyph glyph-name="equalsuperior" unicode="&#x207c;" horiz-adv-x="350" 
d="M299 657h-248v43h248v-43zM299 520h-248v43h248v-43z" />
    <glyph glyph-name="parenleftsuperior" unicode="&#x207d;" horiz-adv-x="276" 
d="M83 610q0 87 30.5 152t65.5 91h56q-39 -34 -70 -95t-31 -148t31 -148t70 -95h-56q-35 26 -65.5 91.5t-30.5 151.5z" />
    <glyph glyph-name="parenrightsuperior" unicode="&#x207e;" horiz-adv-x="276" 
d="M193 610q0 -86 -30.5 -152.5t-65.5 -90.5h-56q37 33 69 95t32 148t-32 148t-69 95h56q35 -24 65.5 -90t30.5 -153z" />
    <glyph glyph-name="zeroinferior" unicode="&#x2080;" horiz-adv-x="387" 
d="M194 -129q-76 0 -121 61t-45 158q0 98 44.5 158.5t120.5 60.5t121.5 -60.5t45.5 -158.5q0 -97 -45 -158t-121 -61zM194 -79q53 0 82 46.5t29 122.5t-29.5 122.5t-82.5 46.5q-52 0 -81 -46.5t-29 -122.5t29 -122.5t82 -46.5z" />
    <glyph glyph-name="oneinferior" unicode="&#x2081;" horiz-adv-x="317" 
d="M51 185l-8 54l123 61h49v-420h-54v362z" />
    <glyph glyph-name="twoinferior" unicode="&#x2082;" horiz-adv-x="352" 
d="M315 -69v-51h-271v44l139 135q43 45 59 71.5t16 55.5q0 31 -22 51.5t-56 20.5q-36 0 -60 -24t-26 -63l-53 5q4 60 43 96.5t99 36.5q59 0 95.5 -33t36.5 -86q0 -40 -20 -75q-21 -37 -71 -87l-99 -97h190z" />
    <glyph glyph-name="threeinferior" unicode="&#x2083;" horiz-adv-x="352" 
d="M177 -129q-60 0 -102 34.5t-45 84.5l54 5q4 -32 29 -53t62 -21q41 0 65.5 25t24.5 65q0 39 -23 61.5t-63 22.5q-29 0 -52 -17v49l120 122h-200v51h268v-47l-97 -100q-12 -12 -18 -15v-4q6 2 11 2q50 0 80.5 -34t30.5 -89q0 -62 -40.5 -102t-104.5 -40z" />
    <glyph glyph-name="fourinferior" unicode="&#x2084;" horiz-adv-x="352" 
d="M284 -24v-96h-55v96h-209v46l171 278h93v-274h54v-50h-54zM225 263l-149 -237h153v237h-4z" />
    <glyph glyph-name="fiveinferior" unicode="&#x2085;" horiz-adv-x="352" 
d="M179 -129q-56 0 -97.5 32t-44.5 76l52 3q6 -26 31 -43.5t58 -17.5q41 0 67.5 26.5t26.5 67.5q0 44 -25.5 70t-67.5 26q-60 0 -78 -43h-48v232h255v-51h-203v-121q26 32 88 32q60 0 98 -39.5t38 -102.5q0 -62 -43 -104.5t-107 -42.5z" />
    <glyph glyph-name="sixinferior" unicode="&#x2086;" horiz-adv-x="352" 
d="M193 -129q-158 0 -158 217q0 105 40 163t113 58q50 0 88 -26t51 -69l-55 -9q-8 26 -30.5 40.5t-52.5 14.5q-47 0 -72.5 -40.5t-25.5 -114.5v-19q12 29 42 46t69 17q57 0 94.5 -38t37.5 -96q0 -63 -39.5 -103.5t-101.5 -40.5zM189 -79q40 0 64.5 25t24.5 65t-24.5 64.5
t-64.5 24.5t-65 -24.5t-25 -64.5t25 -65t65 -25z" />
    <glyph glyph-name="seveninferior" unicode="&#x2087;" horiz-adv-x="352" 
d="M45 300h270v-49l-201 -371h-62l205 369h-212v51z" />
    <glyph glyph-name="eightinferior" unicode="&#x2088;" horiz-adv-x="352" 
d="M179 -129q-65 0 -105.5 35.5t-40.5 90.5q0 38 18.5 65.5t49.5 37.5q-25 12 -40 37.5t-15 56.5q0 51 37.5 83t95.5 32q59 0 96.5 -32.5t37.5 -82.5q0 -31 -15.5 -56.5t-41.5 -37.5q32 -11 50.5 -39t18.5 -65q0 -55 -40.5 -90t-105.5 -35zM179 123q35 0 56 19.5t21 50.5
q0 29 -21.5 48t-55.5 19t-56 -19t-22 -48q0 -31 22 -50.5t56 -19.5zM179 -79q38 0 63 21.5t25 55.5q0 35 -24.5 56.5t-63.5 21.5t-64 -21.5t-25 -56.5q0 -34 25 -55.5t64 -21.5z" />
    <glyph glyph-name="nineinferior" unicode="&#x2089;" horiz-adv-x="352" 
d="M164 309q158 0 158 -217q0 -105 -40 -163t-113 -58q-49 0 -87 26t-52 69l55 9q8 -25 31 -40t52 -15q47 0 72.5 40.5t25.5 114.5v19q-12 -28 -42 -45.5t-69 -17.5q-57 0 -94.5 38t-37.5 96q0 63 40 103.5t101 40.5zM168 259q-40 0 -64.5 -24.5t-24.5 -64.5t24.5 -65
t64.5 -25q41 0 65.5 25t24.5 65t-24.5 64.5t-65.5 24.5z" />
    <glyph glyph-name="plusinferior" unicode="&#x208a;" horiz-adv-x="430" 
d="M194 69h-143v43h143v152h43v-152h142v-43h-142v-153h-43v153z" />
    <glyph glyph-name="minusinferior" unicode="&#x208b;" horiz-adv-x="350" 
d="M299 69h-248v43h248v-43z" />
    <glyph glyph-name="equalinferior" unicode="&#x208c;" horiz-adv-x="350" 
d="M299 137h-248v43h248v-43zM299 0h-248v43h248v-43z" />
    <glyph glyph-name="parenleftinferior" unicode="&#x208d;" horiz-adv-x="276" 
d="M83 90q0 87 30.5 152t65.5 91h56q-39 -34 -70 -95t-31 -148t31 -148t70 -95h-56q-35 26 -65.5 91.5t-30.5 151.5z" />
    <glyph glyph-name="parenrightinferior" unicode="&#x208e;" horiz-adv-x="276" 
d="M193 90q0 -86 -30.5 -152.5t-65.5 -90.5h-56q37 33 69 95t32 148t-32 148t-69 95h56q35 -24 65.5 -90t30.5 -153z" />
    <glyph glyph-name="Euro" unicode="&#x20ac;" 
d="M336 -15q-106 0 -168 72q-61 74 -77 191h-84v51h79q-2 32 -2 51q0 17 2 51h-79v51h84q18 124 80 193.5t167 69.5q140 0 195 -127l-71 -21q-16 39 -49 60.5t-77 21.5q-143 0 -171 -197h259v-51h-264q-2 -32 -2 -51t2 -51h264v-51h-259q29 -197 171 -197q43 0 76.5 21.5
t49.5 60.5l70 -22q-26 -60 -77.5 -93t-118.5 -33z" />
    <glyph glyph-name="litre" unicode="&#x2113;" horiz-adv-x="440" 
d="M250 -15q-143 0 -143 183v10q-34 -18 -53 -29l-24 46q18 9 77 43v245q0 104 36.5 168t116.5 64q65 0 102.5 -45t37.5 -133q0 -98 -48 -168t-175 -150v-59q0 -119 86 -119q49 0 91 39l29 -43q-55 -52 -133 -52zM177 495v-214q96 62 128 117t32 139q0 55 -19 89t-58 34
q-83 0 -83 -165z" />
    <glyph glyph-name="numero" unicode="&#x2116;" horiz-adv-x="1203" 
d="M816 525q0 84 50.5 135.5t127.5 51.5q76 0 126 -52t50 -135q0 -82 -50 -134.5t-126 -52.5t-127 52t-51 135zM682 700v-709h-81l-427 603v-594h-74v709h81l428 -603v594h73zM877 525q0 -57 33 -94.5t84 -37.5q52 0 83 37t31 95t-31 95t-83 37q-51 0 -84 -37.5t-33 -94.5z
" />
    <glyph glyph-name="published" unicode="&#x2117;" horiz-adv-x="783" 
d="M735 350q0 -161 -99.5 -263t-244.5 -102t-244.5 102t-99.5 263t99.5 263t244.5 102t244.5 -102t99.5 -263zM685 350q0 140 -85 229t-209 89t-209 -89.5t-85 -228.5t85 -228t209 -89t209 89t85 228zM335 304v-151h-55v394h138q58 0 95 -32.5t37 -87.5t-36 -89t-96 -34h-83
zM411 496h-76v-142h78q39 0 59.5 21t20.5 51t-20.5 50t-61.5 20z" />
    <glyph glyph-name="trademark" unicode="&#x2122;" horiz-adv-x="807" 
d="M180 649v-299h-55v299h-106v51h266v-51h-105zM736 700v-350h-55v276h-3l-110 -276h-47l-109 276h-4v-276h-54v350h83l108 -264h3l106 264h82z" />
    <glyph glyph-name="Omega" unicode="&#x2126;" horiz-adv-x="794" 
d="M735 68v-68h-283v102q34 7 67 26.5t63.5 51.5t49.5 83.5t19 114.5q0 119 -73.5 193.5t-180.5 74.5q-108 0 -181.5 -74.5t-73.5 -193.5t62 -189t138 -87v-102h-283v68h213v4q-81 26 -143 104t-62 204q0 147 94.5 241t235.5 94q142 0 236 -94t94 -241q0 -66 -18.5 -121.5
t-50 -92t-65.5 -59.5t-71 -35v-4h213z" />
    <glyph glyph-name="estimated" unicode="&#x212e;" horiz-adv-x="836" 
d="M426 -15q-163 0 -278.5 107.5t-115.5 258.5t115.5 257.5t279.5 106.5t279 -106.5t115 -257.5v-14h-626v-235q99 -81 232 -81q100 0 184 47t127 124h44q-47 -93 -143.5 -150t-212.5 -57zM195 599v-224h455v230q-95 74 -223 74q-137 0 -232 -80z" />
    <glyph glyph-name="arrowleft" unicode="&#x2190;" horiz-adv-x="896" 
d="M187 382h661v-65h-661v-5l314 -312h-93l-346 347v5l347 348h92l-314 -313v-5z" />
    <glyph glyph-name="arrowup" unicode="&#x2191;" horiz-adv-x="896" 
d="M480 618v-661h-65v661h-5l-312 -314v92l347 347h5l348 -347v-93l-313 315h-5z" />
    <glyph glyph-name="arrowright" unicode="&#x2192;" horiz-adv-x="896" 
d="M717 318h-661v65h661v5l-314 312h93l346 -347v-5l-347 -348h-92l314 313v5z" />
    <glyph glyph-name="arrowdown" unicode="&#x2193;" horiz-adv-x="897" 
d="M415 743h65v-661h5l313 315v-93l-348 -347h-5l-347 347v92l312 -314h5v661z" />
    <glyph glyph-name="arrowupleft" unicode="&#x2196;" horiz-adv-x="896" 
d="M272 632l468 -467l-47 -46l-467 468l-4 -4l1 -443l-65 66v490l3 4h493l66 -65l-445 1z" />
    <glyph glyph-name="arrowupright" unicode="&#x2197;" horiz-adv-x="897" 
d="M204 119l-47 46l468 467l-3 4l-445 -1l66 65h493l3 -4v-490l-65 -66l1 443l-4 4z" />
    <glyph glyph-name="arrowdownright" unicode="&#x2198;" horiz-adv-x="897" 
d="M625 68l-468 467l47 46l467 -468l4 4l-1 443l65 -66v-490l-3 -4h-493l-66 65l445 -1z" />
    <glyph glyph-name="arrowdownleft" unicode="&#x2199;" horiz-adv-x="897" 
d="M693 581l47 -46l-468 -467l3 -4l445 1l-66 -65h-493l-3 4v490l65 66l-1 -443l4 -4z" />
    <glyph glyph-name="arrowuptipleft" unicode="&#x21b0;" horiz-adv-x="897" 
d="M54 429l271 271h80l-240 -239v-5h674v-456h-61v397h-613v-5l240 -239h-80l-271 271v5z" />
    <glyph glyph-name="arrowuptipright" unicode="&#x21b1;" horiz-adv-x="897" 
d="M492 700h80l271 -271v-5l-271 -271h-80l240 239v5h-613v-397h-61v456h674v5z" />
    <glyph glyph-name="arrowdowntipleft" unicode="&#x21b2;" horiz-adv-x="897" 
d="M405 0h-80l-271 271v5l271 271h80l-240 -239v-5h613v397h61v-456h-674v-5z" />
    <glyph glyph-name="arrowdowntipright" unicode="&#x21b3;" horiz-adv-x="897" 
d="M843 271l-271 -271h-80l240 239v5h-674v456h61v-397h613v5l-240 239h80l271 -271v-5z" />
    <glyph glyph-name="partialdiff" unicode="&#x2202;" horiz-adv-x="548" 
d="M274 -15q-98 0 -162.5 69t-64.5 175q0 105 63.5 175t158.5 70q56 0 100 -28.5t63 -73.5q-10 137 -67 208.5t-157 71.5q-59 0 -95 -24v65q35 22 99 22q147 0 222 -110t75 -299q0 -156 -64.5 -238.5t-170.5 -82.5zM277 48q77 0 118 58t41 139q0 66 -44 116t-114 50
q-71 0 -115.5 -50.5t-44.5 -131.5q0 -80 45 -130.5t114 -50.5z" />
    <glyph glyph-name="increment" unicode="&#x2206;" horiz-adv-x="681" 
d="M382 709l269 -709h-621l270 709h82zM341 624h-4l-206 -557h417z" />
    <glyph glyph-name="product" unicode="&#x220f;" horiz-adv-x="732" 
d="M632 700v-865h-74v797h-384v-797h-74v865h532z" />
    <glyph glyph-name="summation" unicode="&#x2211;" horiz-adv-x="613" 
d="M549 -97v-68h-495v64l291 374v4l-281 361v62h475v-68h-375l248 -320v-66l-267 -343h404z" />
    <glyph glyph-name="minus" unicode="&#x2212;" horiz-adv-x="600" 
d="M493 301h-386v56h386v-56z" />
    <glyph glyph-name="radical" unicode="&#x221a;" horiz-adv-x="531" 
d="M528 803l-222 -906h-62l-162 446l-58 -16l-13 47l111 31l148 -414h4l198 812h56z" />
    <glyph glyph-name="infinity" unicode="&#x221e;" horiz-adv-x="791" 
d="M584 149q-62 0 -104.5 34.5t-84.5 97.5q-39 -62 -83 -97t-105 -35q-78 0 -126 52.5t-48 127.5q0 76 48 128.5t126 52.5q61 0 104.5 -34.5t84.5 -97.5q42 64 84 98t104 34q79 0 126 -52.5t47 -128.5q0 -75 -47 -127.5t-126 -52.5zM582 202q52 0 86 35.5t34 91.5t-34 91.5
t-86 35.5q-25 0 -47 -9.5t-41.5 -30t-33 -38.5t-33.5 -49q22 -33 34 -49t32.5 -38t42 -31t46.5 -9zM89 329q0 -56 34 -91.5t86 -35.5q33 0 63 20t48 43t44 64q-37 61 -72.5 94t-82.5 33q-52 0 -86 -35.5t-34 -91.5z" />
    <glyph glyph-name="integral" unicode="&#x222b;" horiz-adv-x="309" 
d="M54 -199q-27 0 -48 7v50q18 -7 40 -7q80 0 80 95v664q0 61 32.5 100.5t96.5 39.5q27 0 49 -7v-50q-20 7 -41 7q-43 0 -61.5 -27t-18.5 -68v-664q0 -61 -32 -100.5t-97 -39.5z" />
    <glyph glyph-name="approxequal" unicode="&#x2248;" horiz-adv-x="600" 
d="M404 375q-46 0 -108 33t-102 33q-68 0 -107 -61v63q38 54 109 54q46 0 108 -33t102 -33q67 0 107 61v-62q-15 -21 -43.5 -38t-65.5 -17zM404 161q-46 0 -108 33t-102 33q-68 0 -107 -61v63q38 54 109 54q46 0 108 -33t102 -33q67 0 107 61v-62q-15 -21 -43.5 -38
t-65.5 -17z" />
    <glyph glyph-name="notequal" unicode="&#x2260;" horiz-adv-x="600" 
d="M271 186l-76 -186h-58l76 186h-126v57h149l70 173h-219v56h242l76 186h58l-76 -186h126v-56h-149l-70 -173h219v-57h-242z" />
    <glyph glyph-name="lessequal" unicode="&#x2264;" horiz-adv-x="600" 
d="M530 264v-58l-457 173v52l457 173v-59l-369 -139v-3zM530 63h-460v56h460v-56z" />
    <glyph glyph-name="greaterequal" unicode="&#x2265;" horiz-adv-x="600" 
d="M527 379l-457 -173v58l369 139v3l-369 139v59l457 -173v-52zM530 119v-56h-460v56h460z" />
    <glyph glyph-name="blacksquare" unicode="&#x25a0;" horiz-adv-x="800" 
d="M725 675v-651h-651v651h651z" />
    <glyph glyph-name="whitesquare" unicode="&#x25a1;" horiz-adv-x="800" 
d="M725 675v-651h-651v651h651zM122 72h556v556h-556v-556z" />
    <glyph glyph-name="squarewhitewithsmallblack" unicode="&#x25a3;" horiz-adv-x="800" 
d="M725 675v-651h-651v651h651zM122 72h556v556h-556v-556zM515 465v-231h-231v231h231z" />
    <glyph glyph-name="blackuppointingtriangle" unicode="&#x25b2;" horiz-adv-x="833" 
d="M417 681l352 -661h-704z" />
    <glyph glyph-name="whiteuppointingtriangle" unicode="&#x25b3;" horiz-adv-x="833" 
d="M427 681l352 -661h-704zM699 68l-270 508h-4l-271 -508h545z" />
    <glyph glyph-name="blackrightpointingtriangle" unicode="&#x25b6;" horiz-adv-x="833" 
d="M778 350l-661 -352v704z" />
    <glyph glyph-name="whiterightpointingtriangle" unicode="&#x25b7;" horiz-adv-x="833" 
d="M778 350l-661 -352v704zM165 78l508 270v4l-508 270v-544z" />
    <glyph glyph-name="blackdownpointingtriangle" unicode="&#x25bc;" horiz-adv-x="833" 
d="M65 681h704l-352 -661z" />
    <glyph glyph-name="whitedownpointingtriangle" unicode="&#x25bd;" horiz-adv-x="833" 
d="M75 681h704l-352 -661zM425 125h4l270 508h-545z" />
    <glyph glyph-name="blackleftpointingtriangle" unicode="&#x25c0;" horiz-adv-x="833" 
d="M716 702v-704l-661 352z" />
    <glyph glyph-name="whiteleftpointingtriangle" unicode="&#x25c1;" horiz-adv-x="833" 
d="M716 702v-704l-661 352zM160 352v-4l508 -270v544z" />
    <glyph glyph-name="blackdiamond" unicode="&#x25c6;" horiz-adv-x="600" 
d="M582 350l-282 -282l-282 282l282 282z" />
    <glyph glyph-name="fisheye" unicode="&#x25c9;" horiz-adv-x="800" 
d="M56 350q0 141 101.5 242.5t242.5 101.5t242.5 -101.5t101.5 -242.5t-101.5 -242.5t-242.5 -101.5t-242.5 101.5t-101.5 242.5zM106 350q0 -121 86.5 -207.5t207.5 -86.5t207.5 86.5t86.5 207.5t-86.5 207.5t-207.5 86.5t-207.5 -86.5t-86.5 -207.5zM271 350q0 54 37.5 90
t91.5 36t90 -36t36 -90t-36 -91.5t-90 -37.5q-53 0 -91 38t-38 91z" />
    <glyph glyph-name="lozenge" unicode="&#x25ca;" horiz-adv-x="491" 
d="M282 678l181 -349l-181 -349h-73l-181 349l181 349h73zM246 32l156 297l-156 297l-156 -297z" />
    <glyph glyph-name="whitecircle" unicode="&#x25cb;" horiz-adv-x="800" 
d="M56 350q0 141 101.5 242.5t242.5 101.5t242.5 -101.5t101.5 -242.5t-101.5 -242.5t-242.5 -101.5t-242.5 101.5t-101.5 242.5zM106 350q0 -121 86.5 -207.5t207.5 -86.5t207.5 86.5t86.5 207.5t-86.5 207.5t-207.5 86.5t-207.5 -86.5t-86.5 -207.5z" />
    <glyph glyph-name="blackcircle" unicode="&#x25cf;" horiz-adv-x="800" 
d="M56 350q0 141 101.5 242.5t242.5 101.5t242.5 -101.5t101.5 -242.5t-101.5 -242.5t-242.5 -101.5t-242.5 101.5t-101.5 242.5z" />
    <glyph glyph-name="germandbls.cap" horiz-adv-x="1190" 
d="M304 -15q-92 0 -162.5 48t-81.5 136l71 14q10 -66 60 -99.5t115 -33.5q71 0 115 37.5t44 97.5q0 41 -21 68.5t-54.5 41.5t-73.5 24.5t-80.5 23t-74 31.5t-54.5 57t-21 92q0 87 62 139.5t157 52.5q96 0 158 -52.5t73 -134.5l-71 -12q-9 59 -51.5 96.5t-111.5 37.5
q-60 0 -100.5 -32.5t-40.5 -89.5q0 -55 39 -85.5t94.5 -43.5t111.5 -29.5t95 -59.5t39 -117q0 -94 -66.5 -151t-169.5 -57zM899 -15q-92 0 -162.5 48t-81.5 136l71 14q10 -66 60 -99.5t115 -33.5q71 0 115 37.5t44 97.5q0 41 -21 68.5t-54.5 41.5t-73.5 24.5t-80.5 23
t-74 31.5t-54.5 57t-21 92q0 87 62 139.5t157 52.5q96 0 158 -52.5t73 -134.5l-71 -12q-9 59 -51.5 96.5t-111.5 37.5q-60 0 -100.5 -32.5t-40.5 -89.5q0 -55 39 -85.5t94.5 -43.5t111.5 -29.5t95 -59.5t39 -117q0 -94 -66.5 -151t-169.5 -57z" />
    <glyph glyph-name="i.TRK" horiz-adv-x="233" 
d="M152 700v-102h-71v102h71zM152 466v-466h-71v466h71z" />
    <glyph glyph-name="A.small" horiz-adv-x="542" 
d="M311 548l205 -548h-77l-57 154h-225l-56 -154h-75l206 548h79zM273 461h-4l-89 -243h182z" />
    <glyph glyph-name="Agrave.small" horiz-adv-x="542" 
d="M226 687l74 -106h-66l-93 106h85zM311 548l205 -548h-77l-57 154h-225l-56 -154h-75l206 548h79zM273 461h-4l-89 -243h182z" />
    <glyph glyph-name="Aacute.small" horiz-adv-x="542" 
d="M393 687l-93 -106h-66l74 106h85zM311 548l205 -548h-77l-57 154h-225l-56 -154h-75l206 548h79zM273 461h-4l-89 -243h182z" />
    <glyph glyph-name="Acircumflex.small" horiz-adv-x="542" 
d="M319 687l98 -106h-68l-82 78l-82 -78h-69l99 106h104zM311 548l205 -548h-77l-57 154h-225l-56 -154h-75l206 548h79zM273 461h-4l-89 -243h182z" />
    <glyph glyph-name="Atilde.small" horiz-adv-x="542" 
d="M333 588q-29 0 -70.5 23t-59.5 23q-33 0 -44 -45h-44q8 46 31 69t55 23q29 0 70.5 -23.5t59.5 -23.5q33 0 44 45h44q-7 -46 -29.5 -68.5t-56.5 -22.5zM311 548l205 -548h-77l-57 154h-225l-56 -154h-75l206 548h79zM273 461h-4l-89 -243h182z" />
    <glyph glyph-name="Adieresis.small" horiz-adv-x="542" 
d="M202 682v-96h-66v96h66zM398 682v-96h-66v96h66zM311 548l205 -548h-77l-57 154h-225l-56 -154h-75l206 548h79zM273 461h-4l-89 -243h182z" />
    <glyph glyph-name="Amacron.small" horiz-adv-x="542" 
d="M429 660v-51h-324v51h324zM311 548l205 -548h-77l-57 154h-225l-56 -154h-75l206 548h79zM273 461h-4l-89 -243h182z" />
    <glyph glyph-name="Abreve.small" horiz-adv-x="542" 
d="M267 576q-50 0 -92 26t-56 85h56q11 -32 37 -49t55 -17t55 17t37 49h56q-14 -59 -56 -85t-92 -26zM311 548l205 -548h-77l-57 154h-225l-56 -154h-75l206 548h79zM273 461h-4l-89 -243h182z" />
    <glyph glyph-name="Aring.small" horiz-adv-x="542" 
d="M267 584q-45 0 -75 28t-30 70q0 43 30 71t75 28q46 0 75.5 -28t29.5 -71q0 -42 -29.5 -70t-75.5 -28zM267 622q27 0 44 17.5t17 42.5q0 27 -17 44t-44 17t-44 -17t-17 -44q0 -25 17 -42.5t44 -17.5zM311 548l205 -548h-77l-57 154h-225l-56 -154h-75l206 548h79zM273 461
h-4l-89 -243h182z" />
    <glyph glyph-name="Aringacute.small" horiz-adv-x="542" 
d="M393 921l-93 -106h-66l74 106h85zM267 584q-45 0 -75 28t-30 70q0 43 30 71t75 28q46 0 75.5 -28t29.5 -71q0 -42 -29.5 -70t-75.5 -28zM267 622q27 0 44 17.5t17 42.5q0 27 -17 44t-44 17t-44 -17t-17 -44q0 -25 17 -42.5t44 -17.5zM311 548l205 -548h-77l-57 154h-225
l-56 -154h-75l206 548h79zM273 461h-4l-89 -243h182z" />
    <glyph glyph-name="Aogonek.small" horiz-adv-x="542" 
d="M470 -200q-51 0 -82 21t-31 62q0 67 81 119l-56 152h-225l-56 -154h-75l206 548h79l205 -548h-5q-92 -49 -92 -105q0 -24 17.5 -36.5t43.5 -12.5q11 0 32 3v-46q-20 -3 -42 -3zM273 461h-4l-89 -243h182z" />
    <glyph glyph-name="AE.small" horiz-adv-x="761" 
d="M697 65v-65h-363v153h-177l-78 -153h-79l279 542h418v-65h-292v-170h218v-65h-218v-177h292zM334 475h-12l-131 -256h143v256z" />
    <glyph glyph-name="AEacute.small" horiz-adv-x="761" 
d="M496 687l-93 -106h-66l74 106h85zM697 65v-65h-363v153h-177l-78 -153h-79l279 542h418v-65h-292v-170h218v-65h-218v-177h292zM334 475h-12l-131 -256h143v256z" />
    <glyph glyph-name="B.small" horiz-adv-x="535" 
d="M447 400q0 -44 -23.5 -77t-68.5 -42q56 -8 86 -43t30 -85q0 -69 -44.5 -111t-128.5 -42h-200v542h188q76 0 118.5 -39t42.5 -103zM277 478h-107v-171h115q43 0 65.5 24.5t22.5 60.5t-24 61t-72 25zM397 157q0 40 -27 66t-83 26h-117v-186h122q56 0 80 29q25 29 25 65z
" />
    <glyph glyph-name="C.small" horiz-adv-x="595" 
d="M60 271q0 127 74.5 204.5t186.5 77.5q83 0 144.5 -43.5t84.5 -117.5l-73 -15q-16 47 -58 77.5t-97 30.5q-82 0 -135.5 -60t-53.5 -154q0 -95 54 -155t135 -60q56 0 98 30t57 77l72 -15q-20 -73 -82 -116t-145 -43q-114 0 -188 77.5t-74 204.5z" />
    <glyph glyph-name="Cacute.small" horiz-adv-x="595" 
d="M448 687l-93 -106h-66l74 106h85zM60 271q0 127 74.5 204.5t186.5 77.5q83 0 144.5 -43.5t84.5 -117.5l-73 -15q-16 47 -58 77.5t-97 30.5q-82 0 -135.5 -60t-53.5 -154q0 -95 54 -155t135 -60q56 0 98 30t57 77l72 -15q-20 -73 -82 -116t-145 -43q-114 0 -188 77.5
t-74 204.5z" />
    <glyph glyph-name="Ccircumflex.small" horiz-adv-x="595" 
d="M374 687l98 -106h-68l-82 78l-82 -78h-69l99 106h104zM60 271q0 127 74.5 204.5t186.5 77.5q83 0 144.5 -43.5t84.5 -117.5l-73 -15q-16 47 -58 77.5t-97 30.5q-82 0 -135.5 -60t-53.5 -154q0 -95 54 -155t135 -60q56 0 98 30t57 77l72 -15q-20 -73 -82 -116t-145 -43
q-114 0 -188 77.5t-74 204.5z" />
    <glyph glyph-name="Ccaron.small" horiz-adv-x="595" 
d="M322 609l82 78h68l-98 -106h-104l-99 106h69zM60 271q0 127 74.5 204.5t186.5 77.5q83 0 144.5 -43.5t84.5 -117.5l-73 -15q-16 47 -58 77.5t-97 30.5q-82 0 -135.5 -60t-53.5 -154q0 -95 54 -155t135 -60q56 0 98 30t57 77l72 -15q-20 -73 -82 -116t-145 -43
q-114 0 -188 77.5t-74 204.5z" />
    <glyph glyph-name="Cdotaccent.small" horiz-adv-x="595" 
d="M357 669v-69h-70v69h70zM60 271q0 127 74.5 204.5t186.5 77.5q83 0 144.5 -43.5t84.5 -117.5l-73 -15q-16 47 -58 77.5t-97 30.5q-82 0 -135.5 -60t-53.5 -154q0 -95 54 -155t135 -60q56 0 98 30t57 77l72 -15q-20 -73 -82 -116t-145 -43q-114 0 -188 77.5t-74 204.5z
" />
    <glyph glyph-name="Ccedilla.small" horiz-adv-x="595" 
d="M60 271q0 127 74.5 204.5t186.5 77.5q83 0 144.5 -43.5t84.5 -117.5l-73 -15q-16 47 -58 77.5t-97 30.5q-82 0 -135.5 -60t-53.5 -154q0 -95 54 -155t135 -60q56 0 98 30t57 77l72 -15q-19 -67 -71.5 -108.5t-125.5 -48.5l-42 -191l-62 8l41 183q-101 12 -165 87.5
t-64 192.5z" />
    <glyph glyph-name="D.small" horiz-adv-x="601" 
d="M541 271q0 -128 -80 -199.5t-212 -71.5h-151v542h160q126 0 204.5 -73t78.5 -198zM467 271q0 96 -57 150t-149 54h-91v-408h92q91 0 148 54.5t57 149.5z" />
    <glyph glyph-name="Dcaron.small" horiz-adv-x="601" 
d="M287 609l82 78h68l-98 -106h-104l-99 106h69zM541 271q0 -128 -80 -199.5t-212 -71.5h-151v542h160q126 0 204.5 -73t78.5 -198zM467 271q0 96 -57 150t-149 54h-91v-408h92q91 0 148 54.5t57 149.5z" />
    <glyph glyph-name="Dcroat.small" horiz-adv-x="601" 
d="M541 271q0 -128 -80 -199.5t-212 -71.5h-151v244h-77v59h77v239h160q126 0 204.5 -73t78.5 -198zM299 303v-59h-129v-177h92q91 0 148 54.5t57 149.5q0 96 -57 150t-149 54h-91v-172h129z" />
    <glyph glyph-name="Eth.small" horiz-adv-x="601" 
d="M541 271q0 -128 -80 -199.5t-212 -71.5h-151v244h-77v59h77v239h160q126 0 204.5 -73t78.5 -198zM299 303v-59h-129v-177h92q91 0 148 54.5t57 149.5q0 96 -57 150t-149 54h-91v-172h129z" />
    <glyph glyph-name="E.small" horiz-adv-x="525" 
d="M98 542h363v-65h-291v-170h217v-65h-217v-177h291v-65h-363v542z" />
    <glyph glyph-name="Egrave.small" horiz-adv-x="525" 
d="M239 687l74 -106h-66l-93 106h85zM98 542h363v-65h-291v-170h217v-65h-217v-177h291v-65h-363v542z" />
    <glyph glyph-name="Eacute.small" horiz-adv-x="525" 
d="M405 687l-93 -106h-66l74 106h85zM98 542h363v-65h-291v-170h217v-65h-217v-177h291v-65h-363v542z" />
    <glyph glyph-name="Ecircumflex.small" horiz-adv-x="525" 
d="M331 687l98 -106h-68l-82 78l-82 -78h-69l99 106h104zM98 542h363v-65h-291v-170h217v-65h-217v-177h291v-65h-363v542z" />
    <glyph glyph-name="Ecaron.small" horiz-adv-x="525" 
d="M280 609l82 78h68l-98 -106h-104l-99 106h69zM98 542h363v-65h-291v-170h217v-65h-217v-177h291v-65h-363v542z" />
    <glyph glyph-name="Edieresis.small" horiz-adv-x="525" 
d="M214 682v-96h-66v96h66zM410 682v-96h-66v96h66zM98 542h363v-65h-291v-170h217v-65h-217v-177h291v-65h-363v542z" />
    <glyph glyph-name="Emacron.small" horiz-adv-x="525" 
d="M441 660v-51h-324v51h324zM98 542h363v-65h-291v-170h217v-65h-217v-177h291v-65h-363v542z" />
    <glyph glyph-name="Ebreve.small" horiz-adv-x="525" 
d="M279 576q-50 0 -92 26t-56 85h56q11 -32 37 -49t55 -17t55 17t37 49h56q-14 -59 -56 -85t-92 -26zM98 542h363v-65h-291v-170h217v-65h-217v-177h291v-65h-363v542z" />
    <glyph glyph-name="Edotaccent.small" horiz-adv-x="525" 
d="M315 669v-69h-70v69h70zM98 542h363v-65h-291v-170h217v-65h-217v-177h291v-65h-363v542z" />
    <glyph glyph-name="Eogonek.small" horiz-adv-x="514" 
d="M419 -200q-51 0 -82 21t-31 62q0 66 79 117h-287v542h363v-65h-291v-170h217v-65h-217v-177h291v-65h-1q-92 -49 -92 -105q0 -24 17.5 -36.5t43.5 -12.5q11 0 32 3v-46q-19 -3 -42 -3z" />
    <glyph glyph-name="F.small" horiz-adv-x="502" 
d="M98 542h358v-66h-286v-174h212v-65h-212v-237h-72v542z" />
    <glyph glyph-name="G.small" horiz-adv-x="623" 
d="M550 396l-71 -21q-18 50 -60.5 80t-97.5 30q-82 0 -135 -59t-53 -155q0 -97 54.5 -156.5t138.5 -59.5q72 0 115.5 44.5t50.5 116.5h-165v64h241v-25q-5 -121 -69.5 -193.5t-173.5 -72.5q-115 0 -190 78t-75 204q0 125 73.5 203.5t185.5 78.5q83 0 144.5 -42t86.5 -115z
" />
    <glyph glyph-name="Gcircumflex.small" horiz-adv-x="623" 
d="M372 687l98 -106h-68l-82 78l-82 -78h-69l99 106h104zM550 396l-71 -21q-18 50 -60.5 80t-97.5 30q-82 0 -135 -59t-53 -155q0 -97 54.5 -156.5t138.5 -59.5q72 0 115.5 44.5t50.5 116.5h-165v64h241v-25q-5 -121 -69.5 -193.5t-173.5 -72.5q-115 0 -190 78t-75 204
q0 125 73.5 203.5t185.5 78.5q83 0 144.5 -42t86.5 -115z" />
    <glyph glyph-name="Gbreve.small" horiz-adv-x="623" 
d="M320 576q-50 0 -92 26t-56 85h56q11 -32 37 -49t55 -17t55 17t37 49h56q-14 -59 -56 -85t-92 -26zM550 396l-71 -21q-18 50 -60.5 80t-97.5 30q-82 0 -135 -59t-53 -155q0 -97 54.5 -156.5t138.5 -59.5q72 0 115.5 44.5t50.5 116.5h-165v64h241v-25q-5 -121 -69.5 -193.5
t-173.5 -72.5q-115 0 -190 78t-75 204q0 125 73.5 203.5t185.5 78.5q83 0 144.5 -42t86.5 -115z" />
    <glyph glyph-name="Gdotaccent.small" horiz-adv-x="623" 
d="M355 669v-69h-70v69h70zM550 396l-71 -21q-18 50 -60.5 80t-97.5 30q-82 0 -135 -59t-53 -155q0 -97 54.5 -156.5t138.5 -59.5q72 0 115.5 44.5t50.5 116.5h-165v64h241v-25q-5 -121 -69.5 -193.5t-173.5 -72.5q-115 0 -190 78t-75 204q0 125 73.5 203.5t185.5 78.5
q83 0 144.5 -42t86.5 -115z" />
    <glyph glyph-name="Gcommaaccent.small" horiz-adv-x="623" 
d="M550 396l-71 -21q-18 50 -60.5 80t-97.5 30q-82 0 -135 -59t-53 -155q0 -97 54.5 -156.5t138.5 -59.5q72 0 115.5 44.5t50.5 116.5h-165v64h241v-25q-5 -121 -69.5 -193.5t-173.5 -72.5q-115 0 -190 78t-75 204q0 125 73.5 203.5t185.5 78.5q83 0 144.5 -42t86.5 -115z
M359 -62l-55 -138h-57l45 138h67z" />
    <glyph glyph-name="H.small" horiz-adv-x="627" 
d="M457 542h72v-542h-72v237h-287v-237h-72v542h72v-238h287v238z" />
    <glyph glyph-name="Hcircumflex.small" horiz-adv-x="627" 
d="M366 688l98 -106h-68l-82 78l-82 -78h-69l99 106h104zM457 542h72v-542h-72v237h-287v-237h-72v542h72v-238h287v238z" />
    <glyph glyph-name="Hbar.small" horiz-adv-x="627" 
d="M595 447v-58h-66v-389h-72v237h-287v-237h-72v389h-66v58h66v95h72v-95h287v95h72v-95h66zM170 389v-85h287v85h-287z" />
    <glyph glyph-name="I.small" horiz-adv-x="267" 
d="M98 542h72v-542h-72v542z" />
    <glyph glyph-name="Igrave.small" horiz-adv-x="267" 
d="M91 687l74 -106h-66l-93 106h85zM98 542h72v-542h-72v542z" />
    <glyph glyph-name="Iacute.small" horiz-adv-x="267" 
d="M258 687l-93 -106h-66l74 106h85zM98 542h72v-542h-72v542z" />
    <glyph glyph-name="Icircumflex.small" horiz-adv-x="267" 
d="M184 687l98 -106h-68l-82 78l-82 -78h-69l99 106h104zM98 542h72v-542h-72v542z" />
    <glyph glyph-name="Itilde.small" horiz-adv-x="267" 
d="M198 588q-29 0 -70.5 23t-59.5 23q-34 0 -44 -45h-44q8 46 31 69t55 23q29 0 70.5 -23.5t59.5 -23.5q33 0 44 45h44q-7 -46 -29.5 -68.5t-56.5 -22.5zM98 542h72v-542h-72v542z" />
    <glyph glyph-name="Idieresis.small" horiz-adv-x="267" 
d="M67 682v-96h-66v96h66zM263 682v-96h-66v96h66zM98 542h72v-542h-72v542z" />
    <glyph glyph-name="Imacron.small" horiz-adv-x="267" 
d="M294 660v-51h-324v51h324zM98 542h72v-542h-72v542z" />
    <glyph glyph-name="Ibreve.small" horiz-adv-x="267" 
d="M132 576q-50 0 -92 26t-56 85h56q11 -32 37 -49t55 -17t55 17t37 49h56q-14 -59 -56 -85t-92 -26zM98 542h72v-542h-72v542z" />
    <glyph glyph-name="Idotaccent.small" horiz-adv-x="267" 
d="M167 669v-69h-70v69h70zM98 542h72v-542h-72v542z" />
    <glyph glyph-name="Iogonek.small" horiz-adv-x="267" 
d="M128 -200q-51 0 -82 21t-31 62q0 67 83 120v539h72v-542h-1q-92 -49 -92 -105q0 -24 17.5 -36.5t43.5 -12.5q11 0 32 3v-46q-20 -3 -42 -3z" />
    <glyph glyph-name="IJ.small" horiz-adv-x="633" 
d="M98 542h72v-542h-72v542zM378 -8q-41 0 -73 15v68q28 -16 60 -16q108 0 108 131v285h-140v67h212v-356q0 -194 -167 -194z" />
    <glyph glyph-name="J.small" horiz-adv-x="359" 
d="M108 -8q-41 0 -73 15v68q28 -16 60 -16q108 0 108 131v285h-140v67h212v-356q0 -194 -167 -194z" />
    <glyph glyph-name="Jcircumflex.small" horiz-adv-x="359" 
d="M220 687l98 -106h-68l-82 78l-82 -78h-69l99 106h104zM108 -8q-41 0 -73 15v68q28 -16 60 -16q108 0 108 131v285h-140v67h212v-356q0 -194 -167 -194z" />
    <glyph glyph-name="K.small" horiz-adv-x="529" 
d="M170 258v-258h-72v542h72v-253l230 253h85l-240 -261l266 -281h-95z" />
    <glyph glyph-name="Kcommaaccent.small" horiz-adv-x="529" 
d="M170 258v-258h-72v542h72v-253l230 253h85l-240 -261l266 -281h-95zM309 -62l-55 -138h-57l45 138h67z" />
    <glyph glyph-name="L.small" horiz-adv-x="435" 
d="M98 0v542h72v-475h250v-67h-322z" />
    <glyph glyph-name="Lacute.small" horiz-adv-x="435" 
d="M258 687l-93 -106h-66l74 106h85zM98 0v542h72v-475h250v-67h-322z" />
    <glyph glyph-name="Lcaron.small" horiz-adv-x="435" 
d="M98 0v542h72v-475h250v-67h-322zM353 541l-60 -206h-54l46 206h68z" />
    <glyph glyph-name="Lcommaaccent.small" horiz-adv-x="435" 
d="M98 0v542h72v-475h250v-67h-322zM296 -62l-55 -138h-57l45 138h67z" />
    <glyph glyph-name="Lslash.small" horiz-adv-x="437" 
d="M326 338v-61l-153 -44v-166h250v-67h-322v213l-80 -23v60l80 23v269h72v-248z" />
    <glyph glyph-name="Ldot.small" horiz-adv-x="435" 
d="M98 0v542h72v-475h250v-67h-322zM390 318v-78h-70v78h70z" />
    <glyph glyph-name="M.small" horiz-adv-x="757" 
d="M659 542v-542h-71v445h-3l-176 -445h-62l-174 445h-3v-445h-72v542h111l170 -431h3l171 431h106z" />
    <glyph glyph-name="N.small" horiz-adv-x="649" 
d="M551 542v-548h-71l-310 431v-425h-72v548h71l310 -431v425h72z" />
    <glyph glyph-name="Nacute.small" horiz-adv-x="649" 
d="M454 687l-93 -106h-66l74 106h85zM551 542v-548h-71l-310 431v-425h-72v548h71l310 -431v425h72z" />
    <glyph glyph-name="Ncaron.small" horiz-adv-x="649" 
d="M328 609l82 78h68l-98 -106h-104l-99 106h69zM551 542v-548h-71l-310 431v-425h-72v548h71l310 -431v425h72z" />
    <glyph glyph-name="Ntilde.small" horiz-adv-x="649" 
d="M394 588q-29 0 -70.5 23t-59.5 23q-34 0 -44 -45h-44q8 46 31 69t55 23q29 0 70.5 -23.5t59.5 -23.5q34 0 44 45h44q-7 -46 -29.5 -68.5t-56.5 -22.5zM551 542v-548h-71l-310 431v-425h-72v548h71l310 -431v425h72z" />
    <glyph glyph-name="Ncommaaccent.small" horiz-adv-x="649" 
d="M551 542v-548h-71l-310 431v-425h-72v548h71l310 -431v425h72zM359 -62l-55 -138h-57l45 138h67z" />
    <glyph glyph-name="Eng.small" horiz-adv-x="646" 
d="M380 -155q-39 0 -71 15v68q27 -16 62 -16q45 0 72.5 23.5t32.5 64.5l-306 421v-421h-72v548h68l310 -428v422h72v-503q0 -194 -168 -194z" />
    <glyph glyph-name="O.small" horiz-adv-x="657" 
d="M597 271q0 -124 -77 -203t-191 -79t-191.5 79t-77.5 203t77.5 203t191.5 79t191 -79t77 -203zM524 271q0 94 -56.5 154t-138.5 60t-139 -60t-57 -154t56.5 -154.5t139.5 -60.5q82 0 138.5 60.5t56.5 154.5z" />
    <glyph glyph-name="Ograve.small" horiz-adv-x="657" 
d="M289 687l74 -106h-66l-93 106h85zM597 271q0 -124 -77 -203t-191 -79t-191.5 79t-77.5 203t77.5 203t191.5 79t191 -79t77 -203zM524 271q0 94 -56.5 154t-138.5 60t-139 -60t-57 -154t56.5 -154.5t139.5 -60.5q82 0 138.5 60.5t56.5 154.5z" />
    <glyph glyph-name="Oacute.small" horiz-adv-x="657" 
d="M456 687l-93 -106h-66l74 106h85zM597 271q0 -124 -77 -203t-191 -79t-191.5 79t-77.5 203t77.5 203t191.5 79t191 -79t77 -203zM524 271q0 94 -56.5 154t-138.5 60t-139 -60t-57 -154t56.5 -154.5t139.5 -60.5q82 0 138.5 60.5t56.5 154.5z" />
    <glyph glyph-name="Ocircumflex.small" horiz-adv-x="657" 
d="M382 687l98 -106h-68l-82 78l-82 -78h-69l99 106h104zM597 271q0 -124 -77 -203t-191 -79t-191.5 79t-77.5 203t77.5 203t191.5 79t191 -79t77 -203zM524 271q0 94 -56.5 154t-138.5 60t-139 -60t-57 -154t56.5 -154.5t139.5 -60.5q82 0 138.5 60.5t56.5 154.5z" />
    <glyph glyph-name="Otilde.small" horiz-adv-x="657" 
d="M396 588q-29 0 -70.5 23t-59.5 23q-34 0 -44 -45h-44q8 46 31 69t55 23q29 0 70.5 -23.5t59.5 -23.5q34 0 44 45h44q-7 -46 -29.5 -68.5t-56.5 -22.5zM597 271q0 -124 -77 -203t-191 -79t-191.5 79t-77.5 203t77.5 203t191.5 79t191 -79t77 -203zM524 271q0 94 -56.5 154
t-138.5 60t-139 -60t-57 -154t56.5 -154.5t139.5 -60.5q82 0 138.5 60.5t56.5 154.5z" />
    <glyph glyph-name="Odieresis.small" horiz-adv-x="657" 
d="M265 682v-96h-66v96h66zM461 682v-96h-66v96h66zM597 271q0 -124 -77 -203t-191 -79t-191.5 79t-77.5 203t77.5 203t191.5 79t191 -79t77 -203zM524 271q0 94 -56.5 154t-138.5 60t-139 -60t-57 -154t56.5 -154.5t139.5 -60.5q82 0 138.5 60.5t56.5 154.5z" />
    <glyph glyph-name="Omacron.small" horiz-adv-x="657" 
d="M492 660v-51h-324v51h324zM597 271q0 -124 -77 -203t-191 -79t-191.5 79t-77.5 203t77.5 203t191.5 79t191 -79t77 -203zM524 271q0 94 -56.5 154t-138.5 60t-139 -60t-57 -154t56.5 -154.5t139.5 -60.5q82 0 138.5 60.5t56.5 154.5z" />
    <glyph glyph-name="Obreve.small" horiz-adv-x="657" 
d="M330 576q-50 0 -92 26t-56 85h56q11 -32 37 -49t55 -17t55 17t37 49h56q-14 -59 -56 -85t-92 -26zM597 271q0 -124 -77 -203t-191 -79t-191.5 79t-77.5 203t77.5 203t191.5 79t191 -79t77 -203zM524 271q0 94 -56.5 154t-138.5 60t-139 -60t-57 -154t56.5 -154.5
t139.5 -60.5q82 0 138.5 60.5t56.5 154.5z" />
    <glyph glyph-name="Ohungarumlaut.small" horiz-adv-x="657" 
d="M370 687l-93 -106h-66l74 106h85zM532 687l-93 -106h-66l74 106h85zM597 271q0 -124 -77 -203t-191 -79t-191.5 79t-77.5 203t77.5 203t191.5 79t191 -79t77 -203zM524 271q0 94 -56.5 154t-138.5 60t-139 -60t-57 -154t56.5 -154.5t139.5 -60.5q82 0 138.5 60.5
t56.5 154.5z" />
    <glyph glyph-name="Oslash.small" horiz-adv-x="657" 
d="M175 36l-38 -47h-77l69 88q-69 79 -69 194q0 124 77.5 203t191.5 79q84 0 152 -46l36 46h80l-69 -88q69 -79 69 -194q0 -124 -77 -203t-191 -79q-84 0 -154 47zM133 271q0 -82 44 -140l259 321q-50 33 -107 33q-82 0 -139 -60t-57 -154zM524 271q0 80 -44 139l-258 -321
q46 -33 107 -33q82 0 138.5 60.5t56.5 154.5z" />
    <glyph glyph-name="Oslashacute.small" horiz-adv-x="657" 
d="M445 687l-93 -106h-66l74 106h85zM175 36l-38 -47h-77l69 88q-69 79 -69 194q0 124 77.5 203t191.5 79q84 0 152 -46l36 46h80l-69 -88q69 -79 69 -194q0 -124 -77 -203t-191 -79q-84 0 -154 47zM133 271q0 -82 44 -140l259 321q-50 33 -107 33q-82 0 -139 -60t-57 -154z
M524 271q0 80 -44 139l-258 -321q46 -33 107 -33q82 0 138.5 60.5t56.5 154.5z" />
    <glyph glyph-name="OE.small" horiz-adv-x="863" 
d="M65 271q0 129 79.5 200t212.5 71h443v-65h-291v-170h217v-65h-217v-177h291v-65h-452q-125 0 -204 73t-79 198zM139 271q0 -95 57.5 -149.5t148.5 -54.5h91v408h-92q-91 0 -148 -54.5t-57 -149.5z" />
    <glyph glyph-name="P.small" horiz-adv-x="514" 
d="M296 209h-126v-209h-72v542h192q78 0 130 -46.5t52 -120.5q0 -69 -50 -117.5t-126 -48.5zM398 374q0 39 -28 70q-28 33 -90 33h-110v-204h115q56 0 85 32q28 31 28 69z" />
    <glyph glyph-name="Q.small" horiz-adv-x="657" 
d="M531 -53l-66 -9l-39 68q-48 -17 -97 -17q-114 0 -191.5 79t-77.5 203t77.5 203t191.5 79t191 -79t77 -203q0 -77 -31 -138t-85 -98zM524 271q0 94 -56.5 154t-138.5 60t-139 -60t-57 -154t56.5 -154.5t139.5 -60.5q24 0 62 10l-51 89l66 9l40 -68q78 61 78 175z" />
    <glyph glyph-name="R.small" horiz-adv-x="531" 
d="M485 0h-83l-136 229h-96v-229h-72v542h188q75 0 123.5 -41.5t48.5 -116.5q0 -55 -31 -95t-87 -54zM385 383q0 39 -26.5 66.5t-82.5 27.5h-106v-187h111q55 0 79 29q25 29 25 64z" />
    <glyph glyph-name="Racute.small" horiz-adv-x="531" 
d="M386 681l-93 -106h-66l74 106h85zM485 0h-83l-136 229h-96v-229h-72v542h188q75 0 123.5 -41.5t48.5 -116.5q0 -55 -31 -95t-87 -54zM385 383q0 39 -26.5 66.5t-82.5 27.5h-106v-187h111q55 0 79 29q25 29 25 64z" />
    <glyph glyph-name="Rcaron.small" horiz-adv-x="531" 
d="M261 603l82 78h68l-98 -106h-104l-99 106h69zM485 0h-83l-136 229h-96v-229h-72v542h188q75 0 123.5 -41.5t48.5 -116.5q0 -55 -31 -95t-87 -54zM385 383q0 39 -26.5 66.5t-82.5 27.5h-106v-187h111q55 0 79 29q25 29 25 64z" />
    <glyph glyph-name="Rcommaaccent.small" horiz-adv-x="531" 
d="M485 0h-83l-136 229h-96v-229h-72v542h188q75 0 123.5 -41.5t48.5 -116.5q0 -55 -31 -95t-87 -54zM385 383q0 39 -26.5 66.5t-82.5 27.5h-106v-187h111q55 0 79 29q25 29 25 64zM309 -62l-55 -138h-57l45 138h67z" />
    <glyph glyph-name="S.small" horiz-adv-x="494" 
d="M253 -11q-74 0 -128.5 37t-64.5 106l70 13q7 -47 42.5 -71t81.5 -24q50 0 80.5 26t30.5 69q0 40 -29.5 62t-71.5 31.5t-84 22.5t-71.5 47t-29.5 92q0 69 50 111t126 42q75 0 123 -39t60 -105l-71 -13q-7 43 -37 69.5t-79 26.5q-43 0 -70.5 -22.5t-27.5 -62.5t29.5 -61.5
t71.5 -31.5t84 -22.5t71.5 -46.5t29.5 -92q0 -74 -52 -119t-134 -45z" />
    <glyph glyph-name="Sacute.small" horiz-adv-x="494" 
d="M374 687l-93 -106h-66l74 106h85zM253 -11q-74 0 -128.5 37t-64.5 106l70 13q7 -47 42.5 -71t81.5 -24q50 0 80.5 26t30.5 69q0 40 -29.5 62t-71.5 31.5t-84 22.5t-71.5 47t-29.5 92q0 69 50 111t126 42q75 0 123 -39t60 -105l-71 -13q-7 43 -37 69.5t-79 26.5
q-43 0 -70.5 -22.5t-27.5 -62.5t29.5 -61.5t71.5 -31.5t84 -22.5t71.5 -46.5t29.5 -92q0 -74 -52 -119t-134 -45z" />
    <glyph glyph-name="Scircumflex.small" horiz-adv-x="494" 
d="M300 687l98 -106h-68l-82 78l-82 -78h-69l99 106h104zM253 -11q-74 0 -128.5 37t-64.5 106l70 13q7 -47 42.5 -71t81.5 -24q50 0 80.5 26t30.5 69q0 40 -29.5 62t-71.5 31.5t-84 22.5t-71.5 47t-29.5 92q0 69 50 111t126 42q75 0 123 -39t60 -105l-71 -13q-7 43 -37 69.5
t-79 26.5q-43 0 -70.5 -22.5t-27.5 -62.5t29.5 -61.5t71.5 -31.5t84 -22.5t71.5 -46.5t29.5 -92q0 -74 -52 -119t-134 -45z" />
    <glyph glyph-name="Scaron.small" horiz-adv-x="494" 
d="M248 609l82 78h68l-98 -106h-104l-99 106h69zM253 -11q-74 0 -128.5 37t-64.5 106l70 13q7 -47 42.5 -71t81.5 -24q50 0 80.5 26t30.5 69q0 40 -29.5 62t-71.5 31.5t-84 22.5t-71.5 47t-29.5 92q0 69 50 111t126 42q75 0 123 -39t60 -105l-71 -13q-7 43 -37 69.5
t-79 26.5q-43 0 -70.5 -22.5t-27.5 -62.5t29.5 -61.5t71.5 -31.5t84 -22.5t71.5 -46.5t29.5 -92q0 -74 -52 -119t-134 -45z" />
    <glyph glyph-name="Scedilla.small" horiz-adv-x="494" 
d="M282 -9l-42 -191l-62 8l41 183q-63 9 -107 44.5t-52 96.5l70 13q7 -47 42.5 -71t81.5 -24q50 0 80.5 26t30.5 69q0 40 -29.5 62t-71.5 31.5t-84 22.5t-71.5 47t-29.5 92q0 69 50 111t126 42q75 0 123 -39t60 -105l-71 -13q-7 43 -37 69.5t-79 26.5q-43 0 -70.5 -22.5
t-27.5 -62.5t29.5 -61.5t71.5 -31.5t84 -22.5t71.5 -46.5t29.5 -92q0 -68 -43 -111t-114 -51z" />
    <glyph glyph-name="Scommaaccent.small" horiz-adv-x="494" 
d="M253 -11q-74 0 -128.5 37t-64.5 106l70 13q7 -47 42.5 -71t81.5 -24q50 0 80.5 26t30.5 69q0 40 -29.5 62t-71.5 31.5t-84 22.5t-71.5 47t-29.5 92q0 69 50 111t126 42q75 0 123 -39t60 -105l-71 -13q-7 43 -37 69.5t-79 26.5q-43 0 -70.5 -22.5t-27.5 -62.5t29.5 -61.5
t71.5 -31.5t84 -22.5t71.5 -46.5t29.5 -92q0 -74 -52 -119t-134 -45zM286 -62l-55 -138h-57l45 138h67z" />
    <glyph glyph-name="germandbls.small" horiz-adv-x="987" 
d="M747 -11q-78 0 -133 40t-62 116h72q8 -51 44 -73q38 -23 80 -23q50 0 80.5 26.5t30.5 69.5q0 40 -30 61.5t-72.5 31.5t-85 23t-72.5 47t-30 91q0 70 49.5 112t124.5 42q78 0 127.5 -43.5t57.5 -113.5h-71q-7 43 -37 69.5t-78 26.5q-43 0 -71 -22.5t-28 -62.5t30 -61.5
t72.5 -31.5t85 -22.5t72.5 -46.5t30 -92q0 -74 -52 -119t-134 -45zM253 -11q-74 0 -128.5 37t-64.5 106l70 13q7 -47 42.5 -71t81.5 -24q50 0 80.5 26t30.5 69q0 40 -29.5 62t-71.5 31.5t-84 22.5t-71.5 47t-29.5 92q0 69 50 111t126 42q75 0 123 -39t60 -105l-71 -13
q-7 43 -37 69.5t-79 26.5q-43 0 -70.5 -22.5t-27.5 -62.5t29.5 -61.5t71.5 -31.5t84 -22.5t71.5 -46.5t29.5 -92q0 -74 -52 -119t-134 -45z" />
    <glyph glyph-name="T.small" horiz-adv-x="465" 
d="M31 542h403v-67h-165v-475h-72v475h-166v67z" />
    <glyph glyph-name="Tcaron.small" horiz-adv-x="465" 
d="M232 609l82 78h68l-98 -106h-104l-99 106h69zM31 542h403v-67h-165v-475h-72v475h-166v67z" />
    <glyph glyph-name="Tcommaaccent.small" horiz-adv-x="465" 
d="M31 542h403v-67h-165v-475h-72v475h-166v67zM265 -62l-55 -138h-57l45 138h67z" />
    <glyph glyph-name="Tbar.small" horiz-adv-x="465" 
d="M403 280v-59h-134v-221h-72v221h-135v59h135v195h-166v67h403v-67h-165v-195h134z" />
    <glyph glyph-name="Thorn.small" horiz-adv-x="514" 
d="M98 542h72v-104h120q78 0 130 -46.5t52 -120.5q0 -70 -50 -118.5t-126 -48.5h-126v-104h-72v542zM280 373h-110v-205h115q56 0 85 32q28 31 28 70t-28 70q-28 33 -90 33z" />
    <glyph glyph-name="U.small" horiz-adv-x="601" 
d="M300 -11q-101 0 -158.5 59t-57.5 173v321h72v-318q0 -82 38 -124.5t106 -42.5t106.5 42.5t38.5 124.5v318h71v-320q0 -115 -57 -174t-159 -59z" />
    <glyph glyph-name="Ugrave.small" horiz-adv-x="601" 
d="M260 687l74 -106h-66l-93 106h85zM300 -11q-101 0 -158.5 59t-57.5 173v321h72v-318q0 -82 38 -124.5t106 -42.5t106.5 42.5t38.5 124.5v318h71v-320q0 -115 -57 -174t-159 -59z" />
    <glyph glyph-name="Uacute.small" horiz-adv-x="601" 
d="M427 687l-93 -106h-66l74 106h85zM300 -11q-101 0 -158.5 59t-57.5 173v321h72v-318q0 -82 38 -124.5t106 -42.5t106.5 42.5t38.5 124.5v318h71v-320q0 -115 -57 -174t-159 -59z" />
    <glyph glyph-name="Ucircumflex.small" horiz-adv-x="601" 
d="M353 687l98 -106h-68l-82 78l-82 -78h-69l99 106h104zM300 -11q-101 0 -158.5 59t-57.5 173v321h72v-318q0 -82 38 -124.5t106 -42.5t106.5 42.5t38.5 124.5v318h71v-320q0 -115 -57 -174t-159 -59z" />
    <glyph glyph-name="Utilde.small" horiz-adv-x="601" 
d="M367 588q-29 0 -70.5 23t-59.5 23q-33 0 -44 -45h-44q8 46 31 69t55 23q29 0 70.5 -23.5t59.5 -23.5q33 0 44 45h44q-7 -46 -29.5 -68.5t-56.5 -22.5zM300 -11q-101 0 -158.5 59t-57.5 173v321h72v-318q0 -82 38 -124.5t106 -42.5t106.5 42.5t38.5 124.5v318h71v-320
q0 -115 -57 -174t-159 -59z" />
    <glyph glyph-name="Udieresis.small" horiz-adv-x="601" 
d="M236 682v-96h-66v96h66zM432 682v-96h-66v96h66zM300 -11q-101 0 -158.5 59t-57.5 173v321h72v-318q0 -82 38 -124.5t106 -42.5t106.5 42.5t38.5 124.5v318h71v-320q0 -115 -57 -174t-159 -59z" />
    <glyph glyph-name="Umacron.small" horiz-adv-x="601" 
d="M463 660v-51h-324v51h324zM300 -11q-101 0 -158.5 59t-57.5 173v321h72v-318q0 -82 38 -124.5t106 -42.5t106.5 42.5t38.5 124.5v318h71v-320q0 -115 -57 -174t-159 -59z" />
    <glyph glyph-name="Ubreve.small" horiz-adv-x="601" 
d="M301 576q-50 0 -92 26t-56 85h56q11 -32 37 -49t55 -17t55 17t37 49h56q-14 -59 -56 -85t-92 -26zM300 -11q-101 0 -158.5 59t-57.5 173v321h72v-318q0 -82 38 -124.5t106 -42.5t106.5 42.5t38.5 124.5v318h71v-320q0 -115 -57 -174t-159 -59z" />
    <glyph glyph-name="Uring.small" horiz-adv-x="601" 
d="M301 584q-45 0 -75 28t-30 70q0 43 30 71t75 28q46 0 75.5 -28t29.5 -71q0 -42 -29.5 -70t-75.5 -28zM301 622q27 0 44 17.5t17 42.5q0 27 -17 44t-44 17t-44 -17t-17 -44q0 -25 17 -42.5t44 -17.5zM300 -11q-101 0 -158.5 59t-57.5 173v321h72v-318q0 -82 38 -124.5
t106 -42.5t106.5 42.5t38.5 124.5v318h71v-320q0 -115 -57 -174t-159 -59z" />
    <glyph glyph-name="Uhungarumlaut.small" horiz-adv-x="601" 
d="M341 687l-93 -106h-66l74 106h85zM503 687l-93 -106h-66l74 106h85zM300 -11q-101 0 -158.5 59t-57.5 173v321h72v-318q0 -82 38 -124.5t106 -42.5t106.5 42.5t38.5 124.5v318h71v-320q0 -115 -57 -174t-159 -59z" />
    <glyph glyph-name="Uogonek.small" horiz-adv-x="601" 
d="M349 -200q-55 0 -85 22t-30 62q0 64 59 103v4h-17q-90 6 -141 64.5t-51 165.5v321h72v-318q0 -82 38 -124.5t106 -42.5t106.5 42.5t38.5 124.5v318h71v-320q0 -86 -32.5 -140t-100.5 -83q-88 -37 -88 -100q0 -25 16.5 -39t46.5 -14q20 0 30 3v-46q-20 -3 -39 -3z" />
    <glyph glyph-name="V.small" horiz-adv-x="541" 
d="M515 542l-207 -548h-77l-205 548h78l166 -453h3l166 453h76z" />
    <glyph glyph-name="W.small" horiz-adv-x="779" 
d="M178 -6l-148 548h79l112 -426h4l130 426h74l131 -426h4l111 426h74l-147 -548h-77l-134 436h-2l-135 -436h-76z" />
    <glyph glyph-name="Wgrave.small" horiz-adv-x="779" 
d="M349 687l74 -106h-66l-93 106h85zM178 -6l-148 548h79l112 -426h4l130 426h74l131 -426h4l111 426h74l-147 -548h-77l-134 436h-2l-135 -436h-76z" />
    <glyph glyph-name="Wacute.small" horiz-adv-x="779" 
d="M515 687l-93 -106h-66l74 106h85zM178 -6l-148 548h79l112 -426h4l130 426h74l131 -426h4l111 426h74l-147 -548h-77l-134 436h-2l-135 -436h-76z" />
    <glyph glyph-name="Wcircumflex.small" horiz-adv-x="779" 
d="M442 687l98 -106h-68l-82 78l-82 -78h-69l99 106h104zM178 -6l-148 548h79l112 -426h4l130 426h74l131 -426h4l111 426h74l-147 -548h-77l-134 436h-2l-135 -436h-76z" />
    <glyph glyph-name="Wdieresis.small" horiz-adv-x="779" 
d="M325 682v-96h-66v96h66zM521 682v-96h-66v96h66zM178 -6l-148 548h79l112 -426h4l130 426h74l131 -426h4l111 426h74l-147 -548h-77l-134 436h-2l-135 -436h-76z" />
    <glyph glyph-name="X.small" horiz-adv-x="566" 
d="M326 282l190 -282h-83l-151 224l-149 -224h-83l188 282l-173 260h83l136 -203l135 203h83z" />
    <glyph glyph-name="Y.small" horiz-adv-x="499" 
d="M286 230v-230h-72v230l-189 312h85l141 -240h4l141 240h78z" />
    <glyph glyph-name="Ygrave.small" horiz-adv-x="499" 
d="M208 687l74 -106h-66l-93 106h85zM286 230v-230h-72v230l-189 312h85l141 -240h4l141 240h78z" />
    <glyph glyph-name="Yacute.small" horiz-adv-x="499" 
d="M375 687l-93 -106h-66l74 106h85zM286 230v-230h-72v230l-189 312h85l141 -240h4l141 240h78z" />
    <glyph glyph-name="Ycircumflex.small" horiz-adv-x="499" 
d="M301 687l98 -106h-68l-82 78l-82 -78h-69l99 106h104zM286 230v-230h-72v230l-189 312h85l141 -240h4l141 240h78z" />
    <glyph glyph-name="Ydieresis.small" horiz-adv-x="499" 
d="M184 682v-96h-66v96h66zM380 682v-96h-66v96h66zM286 230v-230h-72v230l-189 312h85l141 -240h4l141 240h78z" />
    <glyph glyph-name="Z.small" horiz-adv-x="516" 
d="M457 67v-67h-392v64l296 411h-279v67h370v-64l-296 -411h301z" />
    <glyph glyph-name="Zacute.small" horiz-adv-x="516" 
d="M392 687l-93 -106h-66l74 106h85zM457 67v-67h-392v64l296 411h-279v67h370v-64l-296 -411h301z" />
    <glyph glyph-name="Zcaron.small" horiz-adv-x="516" 
d="M267 609l82 78h68l-98 -106h-104l-99 106h69zM457 67v-67h-392v64l296 411h-279v67h370v-64l-296 -411h301z" />
    <glyph glyph-name="Zdotaccent.small" horiz-adv-x="516" 
d="M302 669v-69h-70v69h70zM457 67v-67h-392v64l296 411h-279v67h370v-64l-296 -411h301z" />
    <glyph glyph-name="a.superior" horiz-adv-x="406" 
d="M346 580v-230h-59v42h-2q-15 -24 -45.5 -38.5t-65.5 -14.5q-53 0 -87 30.5t-34 77.5q0 55 38.5 85.5t107.5 30.5q56 0 85 -17v37q0 75 -78 75q-61 0 -78 -49l-60 10q14 44 51.5 68t89.5 24q63 0 100 -34.5t37 -96.5zM114 451q0 -28 20.5 -44t56.5 -16t65 23t29 51v33
q-31 18 -81 18q-42 0 -66 -17t-24 -48z" />
    <glyph glyph-name="b.superior" horiz-adv-x="451" 
d="M418 525q0 -81 -47.5 -134t-120.5 -53q-38 0 -71 15.5t-50 41.5h-2v-45h-57v499h62v-196q15 26 48 42.5t72 16.5q72 0 119 -53t47 -134zM356 525q0 56 -31 94t-83 38q-51 0 -81.5 -36.5t-30.5 -95.5t30.5 -95.5t81.5 -36.5q52 0 83 38t31 94z" />
    <glyph glyph-name="c.superior" horiz-adv-x="388" 
d="M202 712q61 0 102 -29.5t56 -82.5l-60 -13q-24 70 -98 70q-50 0 -79 -37t-29 -95t29 -95t79 -37q74 0 98 71l59 -15q-16 -52 -57 -81.5t-100 -29.5q-75 0 -122 53t-47 134q0 82 47.5 134.5t121.5 52.5z" />
    <glyph glyph-name="d.superior" horiz-adv-x="451" 
d="M33 525q0 81 48 134t123 53q82 0 115 -55v192h61v-499h-56v50h-4q-16 -28 -48.5 -45t-71.5 -17q-71 0 -119 53t-48 134zM94 525q0 -57 31 -94.5t84 -37.5q51 0 81.5 37t30.5 95t-30.5 95t-81.5 37q-53 0 -84 -37.5t-31 -94.5z" />
    <glyph glyph-name="e.superior" horiz-adv-x="402" 
d="M305 446l51 -17q-40 -91 -146 -91q-80 0 -128.5 53t-48.5 134t47 134t122 53q70 0 119 -48.5t50 -134.5v-18h-277q4 -55 35 -88t82 -33q67 0 94 56zM202 663q-45 0 -72.5 -28.5t-33.5 -79.5h211q-4 53 -33.5 80.5t-71.5 27.5z" />
    <glyph glyph-name="f.superior" horiz-adv-x="230" 
d="M77 647h-69v53h69v38q0 57 29.5 89.5t86.5 32.5q29 0 47 -6v-52q-17 5 -35 5q-67 0 -67 -74v-33h102v-53h-102v-297h-61v297z" />
    <glyph glyph-name="g.superior" horiz-adv-x="439" 
d="M36 537q0 78 46.5 126.5t116.5 48.5q76 0 108 -49h2v37h60v-321q0 -82 -42.5 -127t-119.5 -45q-54 0 -96.5 27t-56.5 70l62 12q7 -24 32 -39.5t59 -15.5q48 0 74 27.5t26 79.5v51q-30 -56 -115 -56q-66 0 -111 48t-45 126zM98 538q0 -54 29.5 -87t75.5 -33
q49 0 78.5 33.5t29.5 86.5t-29.5 86t-78.5 33q-46 0 -75.5 -33t-29.5 -86z" />
    <glyph glyph-name="h.superior" horiz-adv-x="428" 
d="M70 350v499h62v-187q38 50 106 50q58 0 93.5 -38t35.5 -101v-223h-61v208q0 99 -78 99q-40 0 -68 -29t-28 -73v-205h-62z" />
    <glyph glyph-name="i.superior" horiz-adv-x="201" 
d="M132 849v-79h-62v79h62zM132 700v-350h-62v350h62z" />
    <glyph glyph-name="j.superior" horiz-adv-x="180" 
d="M111 849v-79h-62v79h62zM-7 213q-17 0 -32 3v54q15 -3 21 -3q67 0 67 81v352h62v-358q0 -62 -30.5 -95.5t-87.5 -33.5z" />
    <glyph glyph-name="k.superior" horiz-adv-x="369" 
d="M132 521v-171h-62v499h62v-299l152 150h74l-165 -159l183 -191h-80z" />
    <glyph glyph-name="l.superior" horiz-adv-x="202" 
d="M70 350v499h62v-499h-62z" />
    <glyph glyph-name="m.superior" horiz-adv-x="645" 
d="M583 577v-227h-61v211q0 96 -75 96q-37 0 -63.5 -28t-26.5 -69v-210h-61v211q0 96 -75 96q-37 0 -63 -28.5t-26 -68.5v-210h-62v350h57v-41h2q35 53 103 53q41 0 70 -18t38 -48q15 30 46.5 48t71.5 18q57 0 91 -36.5t34 -98.5z" />
    <glyph glyph-name="n.superior" horiz-adv-x="428" 
d="M367 573v-223h-61v208q0 46 -19.5 72.5t-58.5 26.5q-40 0 -68 -29t-28 -73v-205h-62v350h57v-44h3q33 56 110 56q59 0 93 -37t34 -102z" />
    <glyph glyph-name="o.superior" horiz-adv-x="420" 
d="M33 525q0 84 50.5 135.5t127.5 51.5q76 0 126 -52t50 -135q0 -82 -50 -134.5t-126 -52.5t-127 52t-51 135zM94 525q0 -57 33 -94.5t84 -37.5q52 0 83 37t31 95t-31 95t-83 37q-51 0 -84 -37.5t-33 -94.5z" />
    <glyph glyph-name="p.superior" horiz-adv-x="451" 
d="M418 525q0 -81 -48.5 -134t-123.5 -53q-81 0 -114 55v-192h-62v499h57v-50h3q16 29 48.5 45.5t71.5 16.5q72 0 120 -53t48 -134zM356 525q0 56 -31 94t-83 38q-51 0 -81.5 -36.5t-30.5 -95.5t30.5 -95.5t81.5 -36.5q52 0 83 38t31 94z" />
    <glyph glyph-name="q.superior" horiz-adv-x="451" 
d="M33 525q0 81 47.5 134t119.5 53q39 0 72 -15t49 -41h3v44h56v-499h-61v196q-16 -26 -48.5 -42.5t-72.5 -16.5q-71 0 -118 53.5t-47 133.5zM94 525q0 -57 31 -94.5t84 -37.5q51 0 81.5 37t30.5 95t-30.5 95t-81.5 37q-53 0 -84 -37.5t-31 -94.5z" />
    <glyph glyph-name="r.superior" horiz-adv-x="257" 
d="M70 350v350h57v-52h2q25 60 98 60q18 0 30 -5v-59q-13 5 -28 5q-43 0 -70 -31t-27 -91v-177h-62z" />
    <glyph glyph-name="s.superior" horiz-adv-x="340" 
d="M176 338q-54 0 -91 26t-45 69l56 8q5 -25 27 -40t55 -15q32 0 50 17t18 43q0 25 -20.5 38t-49.5 18.5t-58 13.5t-49.5 30.5t-20.5 60.5q0 45 34.5 75t91.5 30q54 0 89.5 -27t40.5 -67l-57 -9q-3 23 -23 39t-51 16t-47.5 -15t-16.5 -37q0 -24 20.5 -37t49.5 -18.5
t58 -13.5t49.5 -30.5t20.5 -61.5q0 -52 -36.5 -82.5t-94.5 -30.5z" />
    <glyph glyph-name="t.superior" horiz-adv-x="249" 
d="M186 343q-113 0 -113 122v182h-68v53h68v77l61 12v-89h109v-53h-109v-171q0 -43 16 -62t51 -19q23 0 39 10l8 -49q-22 -13 -62 -13z" />
    <glyph glyph-name="u.superior" horiz-adv-x="428" 
d="M358 700v-350h-57v44h-3q-32 -56 -110 -56q-59 0 -93 37t-34 102v223h62v-208q0 -46 19.5 -72.5t57.5 -26.5q40 0 68 29t28 73v205h62z" />
    <glyph glyph-name="v.superior" horiz-adv-x="366" 
d="M354 700l-143 -355h-56l-143 355h67l106 -277h2l105 277h62z" />
    <glyph glyph-name="w.superior" horiz-adv-x="548" 
d="M534 700l-110 -355h-59l-90 275l-91 -275h-61l-109 355h64l80 -269h2l89 269h57l88 -269h1l80 269h59z" />
    <glyph glyph-name="x.superior" horiz-adv-x="340" 
d="M208 531l127 -181h-71l-95 139l-95 -139h-68l126 179l-119 171h69l90 -130l89 130h68z" />
    <glyph glyph-name="y.superior" horiz-adv-x="366" 
d="M354 700l-200 -493h-61l64 154l-147 339h67l113 -267l103 267h61z" />
    <glyph glyph-name="z.superior" horiz-adv-x="339" 
d="M54 700h258v-48l-202 -251h211v-51h-283v48l202 251h-186v51z" />
    <glyph glyph-name="grave.cap" horiz-adv-x="500" 
d="M251 846l74 -106h-66l-93 106h85z" />
    <glyph glyph-name="acute.cap" horiz-adv-x="500" 
d="M334 846l-93 -106h-66l74 106h85z" />
    <glyph glyph-name="circumflex.cap" horiz-adv-x="500" 
d="M302 846l98 -106h-68l-82 78l-82 -78h-69l99 106h104z" />
    <glyph glyph-name="caron.cap" horiz-adv-x="500" 
d="M250 768l82 78h68l-98 -106h-104l-99 106h69z" />
    <glyph glyph-name="caronSlovak" horiz-adv-x="500" 
d="M307 700l-60 -206h-54l46 206h68z" />
    <glyph glyph-name="tilde.cap" horiz-adv-x="500" 
d="M315 747q-29 0 -70.5 23t-59.5 23q-33 0 -44 -45h-44q8 46 31 69t55 23q29 0 70.5 -23.5t59.5 -23.5q33 0 44 45h44q-7 -46 -29.5 -68.5t-56.5 -22.5z" />
    <glyph glyph-name="dieresis.cap" horiz-adv-x="500" 
d="M185 841v-96h-66v96h66zM381 841v-96h-66v96h66z" />
    <glyph glyph-name="macron.cap" horiz-adv-x="500" 
d="M412 819v-51h-324v51h324z" />
    <glyph glyph-name="breve.cap" horiz-adv-x="500" 
d="M250 735q-50 0 -92 26t-56 85h56q11 -32 37 -49t55 -17t55 17t37 49h56q-14 -59 -56 -85t-92 -26z" />
    <glyph glyph-name="ring.cap" horiz-adv-x="500" 
d="M250 743q-45 0 -75 28t-30 70q0 43 30 71t75 28q46 0 75.5 -28t29.5 -71q0 -42 -29.5 -70t-75.5 -28zM250 781q27 0 44 17.5t17 42.5q0 27 -17 44t-44 17t-44 -17t-17 -44q0 -25 17 -42.5t44 -17.5z" />
    <glyph glyph-name="hungarumlaut.cap" horiz-adv-x="500" 
d="M252 846l-93 -106h-66l74 106h85zM414 846l-93 -106h-66l74 106h85z" />
    <glyph glyph-name="dotaccent.cap" horiz-adv-x="500" 
d="M285 828v-69h-70v69h70z" />
    <glyph glyph-name="commaaccent.alt" horiz-adv-x="500" 
d="M194 562l54 138h58l-45 -138h-67z" />
    <glyph glyph-name="hyphen.cap" horiz-adv-x="270" 
d="M250 322h-230v55h230v-55z" />
    <glyph glyph-name="exclamdown.cap" horiz-adv-x="303" 
d="M112 700h79v-98h-79v98zM109 0l13 498h59l13 -498h-85z" />
    <glyph glyph-name="questiondown.cap" horiz-adv-x="504" 
d="M237 700h79v-98h-79v98zM241 490v8h71v-15q0 -43 -17.5 -78t-42.5 -60t-50 -48.5t-42.5 -55.5t-17.5 -69q0 -48 34 -84t92 -36q68 0 105 49t39 115l70 -5q-5 -93 -60.5 -159.5t-153.5 -66.5q-92 0 -146.5 54t-54.5 131q0 48 18 86.5t43.5 64t51 49.5t43.5 54t18 66z" />
    <glyph glyph-name="guilsinglleft.cap" horiz-adv-x="284" 
d="M128 350l99 -202h-67l-99 202l99 202h67z" />
    <glyph glyph-name="guilsinglright.cap" horiz-adv-x="284" 
d="M223 350l-99 -202h-67l99 202l-99 202h67z" />
    <glyph glyph-name="guillemotleft.cap" horiz-adv-x="443" 
d="M128 350l99 -202h-67l-99 202l99 202h67zM287 350l99 -202h-67l-99 202l99 202h67z" />
    <glyph glyph-name="guillemotright.cap" horiz-adv-x="443" 
d="M223 350l-99 -202h-67l99 202l-99 202h67zM382 350l-99 -202h-67l99 202l-99 202h67z" />
    <glyph glyph-name="endash.cap" horiz-adv-x="500" 
d="M480 322h-460v55h460v-55z" />
    <glyph glyph-name="emdash.cap" horiz-adv-x="1000" 
d="M980 322h-960v55h960v-55z" />
    <glyph glyph-name="periodcentered.cap" horiz-adv-x="257" 
d="M167 301h-77v109h77v-109z" />
    <glyph glyph-name="parenleft.cap" horiz-adv-x="290" 
d="M45 350q0 145 46 251.5t104 153.5h71q-68 -59 -111.5 -165.5t-43.5 -239.5t43.5 -239t111.5 -166h-71q-58 47 -104 154t-46 251z" />
    <glyph glyph-name="parenright.cap" horiz-adv-x="290" 
d="M245 350q0 -144 -46 -251t-104 -154h-71q68 60 111.5 166t43.5 239t-43.5 239.5t-111.5 165.5h71q58 -47 104 -153.5t46 -251.5z" />
    <glyph glyph-name="parenleft.small" horiz-adv-x="231" 
d="M35 270q0 110 35 194.5t78 119.5h64q-51 -48 -84 -130t-33 -184t33 -183.5t84 -128.5h-64q-43 34 -78 118.5t-35 193.5z" />
    <glyph glyph-name="parenright.small" horiz-adv-x="231" 
d="M196 272q0 -109 -35 -194.5t-78 -119.5h-64q51 48 84 130t33 184t-33 183.5t-84 128.5h64q43 -33 78 -118t35 -194z" />
    <glyph glyph-name="bracketleft.cap" horiz-adv-x="273" 
d="M243 0v-55h-171v810h171v-55h-109v-700h109z" />
    <glyph glyph-name="bracketright.cap" horiz-adv-x="273" 
d="M30 700v55h171v-810h-171v55h109v700h-109z" />
    <glyph glyph-name="bracketleft.small" horiz-adv-x="218" 
d="M195 11v-53h-139v626h139v-54h-79v-519h79z" />
    <glyph glyph-name="bracketright.small" horiz-adv-x="218" 
d="M23 531v53h139v-626h-139v54h79v519h-79z" />
    <glyph glyph-name="braceleft.cap" horiz-adv-x="308" 
d="M279 -1v-54q-32 2 -52.5 5t-46.5 14t-40.5 29t-24.5 51t-10 80v128q0 43 -15 57.5t-77 15.5v50q62 3 77 16.5t15 56.5v128q0 47 10 80t24.5 51t40.5 29t46.5 14t52.5 5v-54q-62 -2 -87.5 -27t-25.5 -101v-124q0 -51 -16 -72t-60 -25v-4q44 -4 60 -25t16 -72v-124
q0 -75 25 -100t88 -28z" />
    <glyph glyph-name="braceright.cap" horiz-adv-x="308" 
d="M29 701v54q32 -2 52.5 -5t46.5 -14t40.5 -29t24.5 -51t10 -80v-128q0 -43 15 -56.5t77 -16.5v-50q-62 -1 -77 -15.5t-15 -57.5v-128q0 -47 -10 -80t-24.5 -51t-40.5 -29t-46.5 -14t-52.5 -5v54q63 3 88 27.5t25 100.5v124q0 51 16 72t60 25v4q-44 4 -60 25t-16 72v124
q0 76 -25 101t-88 27z" />
    <glyph glyph-name="braceleft.small" horiz-adv-x="248" 
d="M225 9v-51q-73 3 -107 33t-34 110v90q0 30 -12 41t-59 12v52q48 3 59.5 12.5t11.5 39.5v92q0 80 34.5 111t106.5 33v-52q-45 -2 -63 -17q-19 -16 -19 -72v-89q0 -45 -13.5 -62t-51.5 -20v-3q38 -4 51.5 -21.5t13.5 -64.5v-83q0 -54 17.5 -71.5t64.5 -19.5z" />
    <glyph glyph-name="braceright.small" horiz-adv-x="248" 
d="M23 533v51q73 -2 107 -32.5t34 -110.5v-90q0 -31 11.5 -40.5t59.5 -12.5v-52q-47 -1 -59 -11.5t-12 -40.5v-92q0 -81 -34 -111t-107 -33v52q46 1 64 18.5t18 70.5v89q0 45 14 62t51 20v3q-37 4 -51 21.5t-14 64.5v83q0 54 -17.5 71.5t-64.5 19.5z" />
    <glyph glyph-name="at.small" horiz-adv-x="896" 
d="M415 62q-72 0 -114.5 48.5t-42.5 129.5q0 101 54 171.5t143 70.5q43 0 74.5 -19.5t41.5 -53.5h2l8 54h67l-36 -256q-6 -44 8.5 -68t45.5 -24q50 0 83 54t33 138q0 144 -91 237.5t-238 93.5q-143 0 -240 -106.5t-97 -265.5q0 -156 98 -259.5t243 -103.5q61 0 122 23.5
t102 61.5l28 -40q-36 -41 -110 -69t-148 -28q-167 0 -278.5 116t-111.5 295q0 185 113 307t279 122q167 0 276 -108t109 -272q0 -108 -51.5 -178.5t-130.5 -70.5q-42 0 -68 21.5t-30 59.5h-2q-16 -36 -55 -58.5t-86 -22.5zM427 119q58 0 97 51.5t39 125.5q0 60 -28 94.5
t-78 34.5q-57 0 -96.5 -52t-39.5 -125q0 -60 28.5 -94.5t77.5 -34.5z" />
    <glyph glyph-name="at.cap" horiz-adv-x="896" 
d="M415 141q-72 0 -114.5 48.5t-42.5 129.5q0 101 54 171.5t143 70.5q43 0 74.5 -19.5t41.5 -53.5h2l8 54h67l-36 -256q-6 -44 8.5 -68t45.5 -24q50 0 83 54t33 138q0 144 -91 237.5t-238 93.5q-143 0 -240 -106.5t-97 -265.5q0 -156 98 -259.5t243 -103.5q61 0 122 23.5
t102 61.5l28 -40q-36 -41 -110 -69t-148 -28q-167 0 -278.5 116t-111.5 295q0 185 113 307t279 122q167 0 276 -108t109 -272q0 -108 -51.5 -178.5t-130.5 -70.5q-42 0 -68 21.5t-30 59.5h-2q-16 -36 -55 -58.5t-86 -22.5zM427 198q58 0 97 51.5t39 125.5q0 60 -28 94.5
t-78 34.5q-57 0 -96.5 -52t-39.5 -125q0 -60 28.5 -94.5t77.5 -34.5z" />
    <glyph glyph-name="zero.slash" horiz-adv-x="595" 
d="M298 -15q-118 0 -185 101t-67 264t67 264t184 101t184.5 -101t67.5 -264q0 -162 -67.5 -263.5t-183.5 -101.5zM121 350q0 -111 32 -189l255 435q-44 53 -111 53q-85 0 -130.5 -82t-45.5 -217zM298 51q85 0 130.5 82.5t45.5 216.5q0 114 -33 190l-257 -433q46 -56 114 -56
z" />
    <glyph glyph-name="numbersign.LT" 
d="M394 204l-44 -204h-56l43 204h-163l-43 -204h-58l44 204h-107v55h119l39 182h-107v55h120l43 204h58l-45 -204h163l45 204h56l-44 -204h108v-55h-120l-39 -182h108v-55h-120zM183 257h168l40 186h-167z" />
    <glyph glyph-name="Euro.LT" 
d="M336 -15q-106 0 -168 72q-61 74 -77 191h-84v51h79q-2 32 -2 51q0 17 2 51h-79v51h84q18 124 80 193.5t167 69.5q140 0 195 -127l-71 -21q-16 39 -49 60.5t-77 21.5q-143 0 -171 -197h259v-51h-264q-2 -32 -2 -51t2 -51h264v-51h-259q29 -197 171 -197q43 0 76.5 21.5
t49.5 60.5l70 -22q-26 -60 -77.5 -93t-118.5 -33z" />
    <glyph glyph-name="dollar.LT" 
d="M320 3v-104h-59v105q-76 9 -128 52t-64 117l66 16q9 -62 55 -93.5t110 -31.5q67 0 105.5 35t38.5 94q0 39 -20 65t-52 39t-71 22.5t-78 21.5t-71 30t-52 54t-20 89q0 77 50.5 126.5t130.5 56.5v105h59v-106q76 -8 124.5 -52.5t58.5 -109.5l-68 -18q-6 53 -46 86.5
t-104 33.5q-58 0 -95 -30.5t-37 -85.5q0 -40 20 -66t52 -38.5t71 -22t78 -21.5t71 -30t52 -54t20 -88q0 -83 -55 -137t-142 -60z" />
    <glyph glyph-name="cent.LT" 
d="M327 -14v-87h-60v88q-92 12 -147.5 83.5t-55.5 174.5q0 105 55.5 177.5t147.5 82.5v88h60v-87q145 -14 188 -153l-68 -16q-38 107 -149 107q-78 0 -121 -55.5t-43 -143.5q0 -86 43 -141.5t121 -55.5q108 0 148 107l69 -14q-45 -141 -188 -155z" />
    <glyph glyph-name="sterling.LT" 
d="M508 67v-67h-441v57q28 15 45.5 30.5t33.5 51t16 85.5q0 46 -11 101h-97v51h87q-16 88 -16 134q0 100 56 152.5t144 52.5q74 0 121 -35.5t65 -88.5l-67 -21q-11 32 -40 55.5t-78 23.5q-53 0 -90.5 -32t-37.5 -102q0 -45 18 -139h189v-51h-179q10 -46 10 -94
q0 -106 -73 -160v-4h345z" />
    <glyph glyph-name="florin.LT" 
d="M521 376v-51h-244v-426h-72v426h-151v51h151v84q0 125 64.5 190t166.5 65q53 0 75 -12v-67q-24 13 -75 13q-66 0 -112.5 -46.5t-46.5 -150.5v-76h244z" />
    <glyph glyph-name="yen.LT" 
d="M323 248v-248h-71v248h-208v51h208v15l-55 87h-153v51h123l-152 248h86l187 -312h4l188 312h80l-153 -248h125v-51h-155l-54 -87v-15h209v-51h-209z" />
    <glyph glyph-name="zero.slash.LT" 
d="M288 -15q-82 0 -136.5 52.5t-76 131.5t-21.5 181t21.5 181t75.5 131.5t136 52.5t136 -52.5t75.5 -131.5t21.5 -181q0 -75 -13 -139t-39.5 -115.5t-72.5 -81t-107 -29.5zM129 350q0 -94 19 -163l254 388q-41 74 -115 74q-81 0 -119.5 -84t-38.5 -215zM288 51
q81 0 119.5 84t38.5 215q0 92 -19 162l-254 -388q44 -73 115 -73z" />
    <glyph glyph-name="zero.LT" 
d="M288 -15q-82 0 -136.5 52.5t-76 131.5t-21.5 181t21.5 181t75.5 131.5t136 52.5t136 -52.5t75.5 -131.5t21.5 -181q0 -75 -13 -139t-39.5 -115.5t-72.5 -81t-107 -29.5zM288 51q81 0 119.5 84t38.5 215q0 130 -39 214.5t-120 84.5t-119.5 -84t-38.5 -215
q0 -84 14.5 -148.5t51.5 -107.5t93 -43z" />
    <glyph glyph-name="one.LT" 
d="M104 525l-10 72l209 103h65v-700h-72v624z" />
    <glyph glyph-name="two.LT" 
d="M72 0v64l232 225q72 71 101 120.5t29 103.5q0 51 -35 93t-106 42q-77 0 -114 -48t-42 -108l-71 7q3 38 17.5 74t40 69t69.5 53t99 20q102 0 159.5 -60t57.5 -135q0 -73 -35.5 -134.5t-120.5 -143.5l-179 -175h339v-67h-441z" />
    <glyph glyph-name="three.LT" 
d="M288 -15q-97 0 -166.5 57t-72.5 139l71 9q3 -58 51.5 -99t115.5 -41q76 0 119.5 48t43.5 119q0 69 -44 111.5t-114 42.5q-46 0 -83 -34v61l223 235h-354v67h441v-62l-172 -184q-26 -26 -28 -27v-4q8 2 17 2q82 0 136 -58t54 -147q0 -99 -65 -167t-173 -68z" />
    <glyph glyph-name="four.LT" 
d="M454 159v-159h-72v159h-351v66l299 475h124v-475h98v-66h-98zM378 655l-274 -430h278v430h-4z" />
    <glyph glyph-name="five.LT" 
d="M283 -15q-86 0 -151 46t-80 117l70 18q11 -52 57 -83q47 -32 104 -32q74 0 123 50t49 123q0 77 -47 126.5t-121 49.5q-48 0 -86 -21.5t-54 -57.5h-66v379h416v-67h-349v-231q47 63 157 63q99 0 162.5 -66t63.5 -169q0 -104 -70.5 -174.5t-177.5 -70.5z" />
    <glyph glyph-name="six.LT" 
d="M309 -15q-125 0 -191 90t-66 270q0 177 67.5 273.5t189.5 96.5q82 0 140 -41.5t76 -112.5l-72 -13q-11 46 -49.5 73.5t-93.5 27.5q-87 0 -136 -74t-49 -210q0 -19 1 -32q23 53 72 81.5t114 28.5q100 0 163.5 -62.5t63.5 -161.5q0 -102 -65 -168t-165 -66zM304 50
q74 0 118 47t44 118q0 70 -44 117.5t-118 47.5t-118.5 -47.5t-44.5 -117.5q0 -71 44 -118t119 -47z" />
    <glyph glyph-name="seven.LT" 
d="M73 700h441v-67l-344 -633h-82l350 633h-365v67z" />
    <glyph glyph-name="eight.LT" 
d="M288 -15q-113 0 -176 59.5t-63 142.5q0 64 35 114q37 50 91 65q-48 15 -77 60.5t-29 103.5q0 69 56.5 127t162.5 58q55 0 98.5 -17.5t68.5 -46t38 -59.5t13 -62q0 -59 -29 -104t-77 -60q55 -15 90 -65q36 -49 36 -114q0 -83 -63 -142.5t-175 -59.5zM287 393
q67 0 105.5 37t38.5 91q0 47 -37.5 88t-106.5 41t-106.5 -41t-37.5 -88q0 -54 39 -91t105 -37zM287 50q74 0 118 42t44 100q0 59 -44 100t-118 41q-75 0 -119 -41q-43 -40 -43 -100q0 -58 44 -100t118 -42z" />
    <glyph glyph-name="nine.LT" 
d="M266 715q125 0 191 -90t66 -270q0 -176 -68 -273t-190 -97q-81 0 -139 41.5t-76 112.5l71 13q12 -46 50.5 -73.5t92.5 -27.5q88 0 136.5 74t48.5 210q0 19 -1 32q-23 -53 -71.5 -81.5t-113.5 -28.5q-99 0 -163.5 62.5t-64.5 161.5q0 102 65 168t166 66zM271 650
q-73 0 -117.5 -47t-44.5 -118q0 -70 44.5 -117.5t117.5 -47.5q75 0 118.5 47.5t43.5 117.5q0 71 -43.5 118t-118.5 47z" />
    <glyph glyph-name="numbersign.OT" 
d="M386 145l-32 -145h-56l30 145h-156l-31 -145h-57l31 145h-113v55h124l30 140h-112v56h125l31 146h57l-31 -146h157l31 146h57l-32 -146h113v-56h-125l-30 -140h113v-55h-124zM180 197h162l31 146h-161z" />
    <glyph glyph-name="Euro.OT" 
d="M333 -15q-90 0 -152.5 51.5t-83.5 143.5h-90v49h82q-2 26 -2 42q0 15 2 41h-82v48h89q21 93 84 145t153 52q67 0 121.5 -31.5t77.5 -84.5l-70 -19q-15 32 -50.5 51t-77.5 19q-64 0 -105 -35t-57 -97h252v-48h-261q-2 -26 -2 -41q0 -16 2 -42h261v-49h-252q18 -62 59 -96
t103 -34q42 0 77.5 18.5t50.5 50.5l70 -18q-20 -52 -75 -84t-124 -32z" />
    <glyph glyph-name="dollar.OT" 
d="M322 -14v-87h-60v88q-81 7 -138.5 47t-69.5 95l71 12q8 -39 60 -67.5t116 -28.5q65 0 105 28.5t40 73.5q0 41 -38.5 62t-94 29t-110.5 19.5t-93.5 45.5t-38.5 94q0 66 52 109.5t139 49.5v87h60v-88q76 -7 129 -48q52 -39 63 -92l-71 -16q-5 38 -51.5 67.5t-108.5 29.5
q-67 0 -103 -27.5t-36 -64.5q0 -41 38.5 -62t94 -29t111 -19.5t94 -45.5t38.5 -93q0 -72 -55.5 -117.5t-142.5 -51.5z" />
    <glyph glyph-name="cent.OT" 
d="M327 -14v-87h-60v88q-92 12 -147.5 83.5t-55.5 174.5q0 105 55.5 177.5t147.5 82.5v88h60v-87q145 -14 188 -153l-68 -16q-38 107 -149 107q-78 0 -121 -55.5t-43 -143.5q0 -86 43 -141.5t121 -55.5q108 0 148 107l69 -14q-45 -141 -188 -155z" />
    <glyph glyph-name="sterling.OT" 
d="M405 296v-51h-178q11 -33 11 -64q0 -67 -67 -110v-4h337v-67h-441v57q98 43 98 115q0 31 -14 73h-97v51h83q-10 46 -10 81q0 85 55.5 132.5t138.5 47.5q74 0 123 -32.5t67 -92.5l-67 -16q-26 75 -121 75q-50 0 -86.5 -28.5t-36.5 -86.5q0 -39 12 -80h193z" />
    <glyph glyph-name="florin.OT" 
d="M521 296v-51h-227v-346h-72v346h-168v51h168v56q0 104 59 154q59 51 151 51q33 0 59 -7v-67q-22 8 -56 8q-60 0 -100.5 -32.5t-40.5 -107.5v-55h227z" />
    <glyph glyph-name="yen.OT" 
d="M323 180v-180h-72v180h-208v49h195l-52 83h-143v48h115l-113 182h83l159 -269h5l158 269h78l-112 -182h115v-48h-144l-52 -83h196v-49h-208z" />
    <glyph glyph-name="zero.slash.OT" 
d="M289 -15q-109 0 -176.5 78.5t-67.5 202.5t67 203t175 79q109 0 176.5 -79t67.5 -203t-66.5 -202.5t-175.5 -78.5zM120 266q0 -69 26 -124l247 298q-44 41 -105 41q-78 0 -123 -61t-45 -154zM288 51q77 0 122.5 61t45.5 154q0 76 -29 129l-247 -300q44 -44 108 -44z" />
    <glyph glyph-name="zero.OT" 
d="M288 -15q-109 0 -176.5 78.5t-67.5 202.5t67 203t175 79q109 0 176.5 -79t67.5 -203t-66.5 -202.5t-175.5 -78.5zM287 51q77 0 122.5 61t45.5 154t-45 154t-123 61t-123 -61t-45 -154t45.5 -154t122.5 -61z" />
    <glyph glyph-name="one.OT" 
d="M371 542v-542h-72v465l-193 -99l-9 72l209 104h65z" />
    <glyph glyph-name="two.OT" 
d="M513 67v-67h-441v62l169 110q104 68 140.5 110t36.5 94q0 50 -36 82t-93 32q-66 0 -105.5 -45t-46.5 -103l-68 12q4 37 19.5 72t41.5 65t68 48t93 18q90 0 146 -49.5t56 -127.5q0 -69 -43.5 -122t-160.5 -130l-95 -61h319z" />
    <glyph glyph-name="three.OT" 
d="M288 -174q-97 0 -166.5 57t-72.5 139l71 9q3 -58 51.5 -99t115.5 -41q76 0 119.5 48t43.5 119q0 69 -44 111.5t-114 42.5q-46 0 -83 -34v61l223 235h-354v67h441v-62l-172 -184q-26 -26 -28 -27v-4q8 2 17 2q82 0 136 -58t54 -147q0 -99 -65 -167t-173 -68z" />
    <glyph glyph-name="four.OT" 
d="M454 0v-159h-72v159h-351v66l299 475h124v-475h98v-66h-98zM378 496l-274 -430h278v430h-4z" />
    <glyph glyph-name="five.OT" 
d="M283 -174q-86 0 -151 46t-80 117l70 18q11 -52 57 -83q47 -32 104 -32q74 0 123 50t49 123q0 77 -47 126.5t-121 49.5q-48 0 -86 -21.5t-54 -57.5h-66v379h416v-67h-349v-231q47 63 157 63q99 0 162.5 -66t63.5 -169q0 -104 -70.5 -174.5t-177.5 -70.5z" />
    <glyph glyph-name="six.OT" 
d="M309 -15q-125 0 -191 90t-66 270q0 177 67.5 273.5t189.5 96.5q82 0 140 -41.5t76 -112.5l-72 -13q-11 46 -49.5 73.5t-93.5 27.5q-87 0 -136 -74t-49 -210q0 -19 1 -32q23 53 72 81.5t114 28.5q100 0 163.5 -62.5t63.5 -161.5q0 -102 -65 -168t-165 -66zM304 50
q74 0 118 47t44 118q0 70 -44 117.5t-118 47.5t-118.5 -47.5t-44.5 -117.5q0 -71 44 -118t119 -47z" />
    <glyph glyph-name="seven.OT" 
d="M73 541h441v-67l-344 -633h-82l350 633h-365v67z" />
    <glyph glyph-name="eight.OT" 
d="M288 -15q-113 0 -176 59.5t-63 142.5q0 64 35 114q37 50 91 65q-48 15 -77 60.5t-29 103.5q0 69 56.5 127t162.5 58q55 0 98.5 -17.5t68.5 -46t38 -59.5t13 -62q0 -59 -29 -104t-77 -60q55 -15 90 -65q36 -49 36 -114q0 -83 -63 -142.5t-175 -59.5zM287 393
q67 0 105.5 37t38.5 91q0 47 -37.5 88t-106.5 41t-106.5 -41t-37.5 -88q0 -54 39 -91t105 -37zM287 50q74 0 118 42t44 100q0 59 -44 100t-118 41q-75 0 -119 -41q-43 -40 -43 -100q0 -58 44 -100t118 -42z" />
    <glyph glyph-name="nine.OT" 
d="M266 556q125 0 191 -90t66 -270q0 -176 -68 -273t-190 -97q-81 0 -139 41.5t-76 112.5l71 13q12 -46 50.5 -73.5t92.5 -27.5q88 0 136.5 74t48.5 210q0 19 -1 32q-23 -53 -71.5 -81.5t-113.5 -28.5q-99 0 -163.5 62.5t-64.5 161.5q0 102 65 168t166 66zM271 491
q-73 0 -117.5 -47t-44.5 -118q0 -70 44.5 -117.5t117.5 -47.5q75 0 118.5 47.5t43.5 117.5q0 71 -43.5 118t-118.5 47z" />
    <glyph glyph-name="numbersign.OP" 
d="M386 145l-32 -145h-56l30 145h-156l-31 -145h-57l31 145h-113v55h124l30 140h-112v56h125l31 146h57l-31 -146h157l31 146h57l-32 -146h113v-56h-125l-30 -140h113v-55h-124zM180 197h162l31 146h-161z" />
    <glyph glyph-name="Euro.OP" 
d="M333 -15q-90 0 -152.5 51.5t-83.5 143.5h-90v49h82q-2 26 -2 42q0 15 2 41h-82v48h89q21 93 84 145t153 52q67 0 121.5 -31.5t77.5 -84.5l-70 -19q-15 32 -50.5 51t-77.5 19q-64 0 -105 -35t-57 -97h252v-48h-261q-2 -26 -2 -41q0 -16 2 -42h261v-49h-252q18 -62 59 -96
t103 -34q42 0 77.5 18.5t50.5 50.5l70 -18q-20 -52 -75 -84t-124 -32z" />
    <glyph glyph-name="dollar.OP" 
d="M322 -14v-87h-60v88q-81 7 -138.5 47t-69.5 95l71 12q8 -39 60 -67.5t116 -28.5q65 0 105 28.5t40 73.5q0 41 -38.5 62t-94 29t-110.5 19.5t-93.5 45.5t-38.5 94q0 66 52 109.5t139 49.5v87h60v-88q76 -7 129 -48q52 -39 63 -92l-71 -16q-5 38 -51.5 67.5t-108.5 29.5
q-67 0 -103 -27.5t-36 -64.5q0 -41 38.5 -62t94 -29t111 -19.5t94 -45.5t38.5 -93q0 -72 -55.5 -117.5t-142.5 -51.5z" />
    <glyph glyph-name="cent.OP" horiz-adv-x="533" 
d="M308 -14v-87h-60v88q-92 12 -147.5 83.5t-55.5 174.5q0 105 55.5 177.5t147.5 82.5v88h60v-87q145 -14 188 -153l-68 -16q-38 107 -149 107q-78 0 -121 -56t-43 -143q0 -85 43.5 -141t120.5 -56q108 0 148 107l69 -14q-45 -141 -188 -155z" />
    <glyph glyph-name="sterling.OP" 
d="M402 296v-51h-178q11 -33 11 -64q0 -67 -67 -110v-4h337v-67h-441v57q98 43 98 115q0 31 -14 73h-97v51h83q-10 46 -10 81q0 85 55.5 132.5t138.5 47.5q74 0 123 -32.5t67 -92.5l-67 -16q-26 75 -121 75q-50 0 -86.5 -28.5t-36.5 -86.5q0 -39 12 -80h193z" />
    <glyph glyph-name="florin.OP" 
d="M521 296v-51h-227v-346h-72v346h-168v51h168v56q0 104 59 154q59 51 151 51q33 0 59 -7v-67q-22 8 -56 8q-60 0 -100.5 -32.5t-40.5 -107.5v-55h227z" />
    <glyph glyph-name="yen.OP" 
d="M323 180v-180h-72v180h-208v49h195l-52 83h-143v48h115l-113 182h83l159 -269h5l158 269h78l-112 -182h115v-48h-144l-52 -83h196v-49h-208z" />
    <glyph glyph-name="zero.slash.OP" horiz-adv-x="627" 
d="M314 -15q-114 0 -192 79.5t-78 202.5t77.5 202t191.5 79t192 -79t78 -202q0 -124 -77 -203t-192 -79zM119 267q0 -79 41 -137l264 317q-47 34 -111 34q-85 0 -139.5 -61t-54.5 -153zM314 52q86 0 140 61t54 154q0 84 -45 141l-264 -318q50 -38 115 -38z" />
    <glyph glyph-name="zero.OP" horiz-adv-x="627" 
d="M314 -15q-114 0 -192 79.5t-78 202.5t77.5 202t191.5 79t192 -79t78 -202q0 -124 -77 -203t-192 -79zM314 52q86 0 140 61t54 154q0 92 -54.5 153t-140.5 61q-85 0 -139.5 -61t-54.5 -153q0 -93 55 -154t140 -61z" />
    <glyph glyph-name="one.OP" horiz-adv-x="414" 
d="M300 542v-542h-72v465l-193 -99l-9 72l209 104h65z" />
    <glyph glyph-name="two.OP" 
d="M513 67v-67h-441v62l169 110q104 68 140.5 110t36.5 94q0 50 -36 82t-93 32q-66 0 -105.5 -45t-46.5 -103l-68 12q4 37 19.5 72t41.5 65t68 48t93 18q90 0 146 -49.5t56 -127.5q0 -69 -43.5 -122t-160.5 -130l-95 -61h319z" />
    <glyph glyph-name="three.OP" 
d="M288 -174q-97 0 -166.5 57t-72.5 139l71 9q3 -58 51.5 -99t115.5 -41q76 0 119.5 48t43.5 119q0 69 -44 111.5t-114 42.5q-46 0 -83 -34v61l223 235h-354v67h441v-62l-172 -184q-26 -26 -28 -27v-4q8 2 17 2q82 0 136 -58t54 -147q0 -99 -65 -167t-173 -68z" />
    <glyph glyph-name="four.OP" 
d="M454 0v-159h-72v159h-351v66l299 475h124v-475h98v-66h-98zM378 496l-274 -430h278v430h-4z" />
    <glyph glyph-name="five.OP" 
d="M283 -174q-86 0 -151 46t-80 117l70 18q11 -52 57 -83q47 -32 104 -32q74 0 123 50t49 123q0 77 -47 126.5t-121 49.5q-48 0 -86 -21.5t-54 -57.5h-66v379h416v-67h-349v-231q47 63 157 63q99 0 162.5 -66t63.5 -169q0 -104 -70.5 -174.5t-177.5 -70.5z" />
    <glyph glyph-name="six.OP" 
d="M309 -15q-125 0 -191 90t-66 270q0 177 67.5 273.5t189.5 96.5q82 0 140 -41.5t76 -112.5l-72 -13q-11 46 -49.5 73.5t-93.5 27.5q-87 0 -136 -74t-49 -210q0 -19 1 -32q23 53 72 81.5t114 28.5q100 0 163.5 -62.5t63.5 -161.5q0 -102 -65 -168t-165 -66zM304 50
q74 0 118 47t44 118q0 70 -44 117.5t-118 47.5t-118.5 -47.5t-44.5 -117.5q0 -71 44 -118t119 -47z" />
    <glyph glyph-name="seven.OP" 
d="M73 541h441v-67l-344 -633h-82l350 633h-365v67z" />
    <glyph glyph-name="eight.OP" 
d="M288 -15q-113 0 -176 59.5t-63 142.5q0 64 35 114q37 50 91 65q-48 15 -77 60.5t-29 103.5q0 69 56.5 127t162.5 58q55 0 98.5 -17.5t68.5 -46t38 -59.5t13 -62q0 -59 -29 -104t-77 -60q55 -15 90 -65q36 -49 36 -114q0 -83 -63 -142.5t-175 -59.5zM287 393
q67 0 105.5 37t38.5 91q0 47 -37.5 88t-106.5 41t-106.5 -41t-37.5 -88q0 -54 39 -91t105 -37zM287 50q74 0 118 42t44 100q0 59 -44 100t-118 41q-75 0 -119 -41q-43 -40 -43 -100q0 -58 44 -100t118 -42z" />
    <glyph glyph-name="nine.OP" 
d="M266 556q125 0 191 -90t66 -270q0 -176 -68 -273t-190 -97q-81 0 -139 41.5t-76 112.5l71 13q12 -46 50.5 -73.5t92.5 -27.5q88 0 136.5 74t48.5 210q0 19 -1 32q-23 -53 -71.5 -81.5t-113.5 -28.5q-99 0 -163.5 62.5t-64.5 161.5q0 102 65 168t166 66zM271 491
q-73 0 -117.5 -47t-44.5 -118q0 -70 44.5 -117.5t117.5 -47.5q75 0 118.5 47.5t43.5 117.5q0 71 -43.5 118t-118.5 47z" />
    <glyph glyph-name="zero.numr" horiz-adv-x="387" 
d="M194 271q-76 0 -121 61t-45 158q0 98 44.5 158.5t120.5 60.5t121.5 -60.5t45.5 -158.5q0 -97 -45 -158t-121 -61zM194 321q53 0 82 46.5t29 122.5t-29.5 122.5t-82.5 46.5q-52 0 -81 -46.5t-29 -122.5t29 -122.5t82 -46.5z" />
    <glyph glyph-name="one.numr" horiz-adv-x="317" 
d="M51 585l-8 54l123 61h49v-420h-54v362z" />
    <glyph glyph-name="two.numr" horiz-adv-x="352" 
d="M315 331v-51h-271v44l139 135q43 45 59 71.5t16 55.5q0 31 -22 51.5t-56 20.5q-36 0 -60 -24t-26 -63l-53 5q4 60 43 96.5t99 36.5q59 0 95.5 -33t36.5 -86q0 -40 -20 -75q-21 -37 -71 -87l-99 -97h190z" />
    <glyph glyph-name="three.numr" horiz-adv-x="352" 
d="M177 271q-60 0 -102 34.5t-45 84.5l54 5q4 -32 29 -53t62 -21q41 0 65.5 25t24.5 65q0 39 -23 61.5t-63 22.5q-29 0 -52 -17v49l120 122h-200v51h268v-47l-97 -100q-12 -12 -18 -15v-4q6 2 11 2q50 0 80.5 -34t30.5 -89q0 -62 -40.5 -102t-104.5 -40z" />
    <glyph glyph-name="four.numr" horiz-adv-x="352" 
d="M284 376v-96h-55v96h-209v46l171 278h93v-274h54v-50h-54zM225 663l-149 -237h153v237h-4z" />
    <glyph glyph-name="five.numr" horiz-adv-x="352" 
d="M179 271q-56 0 -97.5 32t-44.5 76l52 3q6 -26 31 -43.5t58 -17.5q41 0 67.5 26.5t26.5 67.5q0 44 -25.5 70t-67.5 26q-60 0 -78 -43h-48v232h255v-51h-203v-121q26 32 88 32q60 0 98 -39.5t38 -102.5q0 -62 -43 -104.5t-107 -42.5z" />
    <glyph glyph-name="six.numr" horiz-adv-x="352" 
d="M193 271q-158 0 -158 217q0 105 40 163t113 58q50 0 88 -26t51 -69l-55 -9q-8 26 -30.5 40.5t-52.5 14.5q-47 0 -72.5 -40.5t-25.5 -114.5v-19q12 29 42 46t69 17q57 0 94.5 -38t37.5 -96q0 -63 -39.5 -103.5t-101.5 -40.5zM189 321q40 0 64.5 25t24.5 65t-24.5 64.5
t-64.5 24.5t-65 -24.5t-25 -64.5t25 -65t65 -25z" />
    <glyph glyph-name="seven.numr" horiz-adv-x="352" 
d="M45 700h270v-49l-201 -371h-62l205 369h-212v51z" />
    <glyph glyph-name="eight.numr" horiz-adv-x="352" 
d="M179 271q-65 0 -105.5 35.5t-40.5 90.5q0 38 18.5 65.5t49.5 37.5q-25 12 -40 37.5t-15 56.5q0 51 37.5 83t95.5 32q59 0 96.5 -32.5t37.5 -82.5q0 -31 -15.5 -56.5t-41.5 -37.5q32 -11 50.5 -39t18.5 -65q0 -55 -40.5 -90t-105.5 -35zM179 523q35 0 56 19.5t21 50.5
q0 29 -21.5 48t-55.5 19t-56 -19t-22 -48q0 -31 22 -50.5t56 -19.5zM179 321q38 0 63 21.5t25 55.5q0 35 -24.5 56.5t-63.5 21.5t-64 -21.5t-25 -56.5q0 -34 25 -55.5t64 -21.5z" />
    <glyph glyph-name="nine.numr" horiz-adv-x="352" 
d="M164 709q158 0 158 -217q0 -105 -40 -163t-113 -58q-49 0 -87 26t-52 69l55 9q8 -25 31 -40t52 -15q47 0 72.5 40.5t25.5 114.5v19q-12 -28 -42 -45.5t-69 -17.5q-57 0 -94.5 38t-37.5 96q0 63 40 103.5t101 40.5zM168 659q-40 0 -64.5 -24.5t-24.5 -64.5t24.5 -65
t64.5 -25q41 0 65.5 25t24.5 65t-24.5 64.5t-65.5 24.5z" />
    <glyph glyph-name="zero.dnom" horiz-adv-x="387" 
d="M194 -9q-76 0 -121 61t-45 158q0 98 44.5 158.5t120.5 60.5t121.5 -60.5t45.5 -158.5q0 -97 -45 -158t-121 -61zM194 41q53 0 82 46.5t29 122.5t-29.5 122.5t-82.5 46.5q-52 0 -81 -46.5t-29 -122.5t29 -122.5t82 -46.5z" />
    <glyph glyph-name="one.dnom" horiz-adv-x="317" 
d="M51 305l-8 54l123 61h49v-420h-54v362z" />
    <glyph glyph-name="two.dnom" horiz-adv-x="352" 
d="M315 51v-51h-271v44l139 135q43 45 59 71.5t16 55.5q0 31 -22 51.5t-56 20.5q-36 0 -60 -24t-26 -63l-53 5q4 60 43 96.5t99 36.5q59 0 95.5 -33t36.5 -86q0 -40 -20 -75q-21 -37 -71 -87l-99 -97h190z" />
    <glyph glyph-name="three.dnom" horiz-adv-x="352" 
d="M177 -9q-60 0 -102 34.5t-45 84.5l54 5q4 -32 29 -53t62 -21q41 0 65.5 25t24.5 65q0 39 -23 61.5t-63 22.5q-29 0 -52 -17v49l120 122h-200v51h268v-47l-97 -100q-12 -12 -18 -15v-4q6 2 11 2q50 0 80.5 -34t30.5 -89q0 -62 -40.5 -102t-104.5 -40z" />
    <glyph glyph-name="four.dnom" horiz-adv-x="352" 
d="M284 96v-96h-55v96h-209v46l171 278h93v-274h54v-50h-54zM225 383l-149 -237h153v237h-4z" />
    <glyph glyph-name="five.dnom" horiz-adv-x="352" 
d="M179 -9q-56 0 -97.5 32t-44.5 76l52 3q6 -26 31 -43.5t58 -17.5q41 0 67.5 26.5t26.5 67.5q0 44 -25.5 70t-67.5 26q-60 0 -78 -43h-48v232h255v-51h-203v-121q26 32 88 32q60 0 98 -39.5t38 -102.5q0 -64 -42.5 -105.5t-107.5 -41.5z" />
    <glyph glyph-name="six.dnom" horiz-adv-x="352" 
d="M193 -9q-158 0 -158 217q0 105 40 163t113 58q50 0 88 -26t51 -69l-55 -9q-8 26 -30.5 40.5t-52.5 14.5q-47 0 -72.5 -40.5t-25.5 -114.5v-19q12 29 42 46t69 17q57 0 94.5 -38t37.5 -96q0 -63 -39.5 -103.5t-101.5 -40.5zM189 41q40 0 64.5 25t24.5 65t-24.5 64.5
t-64.5 24.5t-65 -24.5t-25 -64.5t25 -65t65 -25z" />
    <glyph glyph-name="seven.dnom" horiz-adv-x="352" 
d="M45 420h270v-49l-201 -371h-62l205 369h-212v51z" />
    <glyph glyph-name="eight.dnom" horiz-adv-x="352" 
d="M179 -9q-65 0 -105.5 35.5t-40.5 90.5q0 38 18.5 65.5t49.5 37.5q-25 12 -40 37.5t-15 56.5q0 51 37.5 83t95.5 32q59 0 96.5 -32.5t37.5 -82.5q0 -31 -15.5 -56.5t-41.5 -37.5q32 -11 50.5 -39t18.5 -65q0 -55 -40.5 -90t-105.5 -35zM179 243q35 0 56 19.5t21 50.5
q0 29 -21.5 48t-55.5 19t-56 -19t-22 -48q0 -31 22 -50.5t56 -19.5zM179 41q38 0 63 21.5t25 55.5q0 35 -24.5 56.5t-63.5 21.5t-64 -21.5t-25 -56.5q0 -34 25 -55.5t64 -21.5z" />
    <glyph glyph-name="nine.dnom" horiz-adv-x="352" 
d="M164 429q158 0 158 -217q0 -105 -40 -163t-113 -58q-49 0 -87 26t-52 69l55 9q8 -25 31 -40t52 -15q47 0 72.5 40.5t25.5 114.5v19q-12 -28 -42 -45.5t-69 -17.5q-57 0 -94.5 38t-37.5 96q0 63 40 103.5t101 40.5zM168 379q-40 0 -64.5 -24.5t-24.5 -64.5t24.5 -65
t64.5 -25q41 0 65.5 25t24.5 65t-24.5 64.5t-65.5 24.5z" />
    <glyph glyph-name="fraction.osf" horiz-adv-x="443" 
d="M385 542h58l-385 -542h-58z" />
    <glyph glyph-name="percent.osf" horiz-adv-x="726" 
d="M31 386q0 78 38.5 124.5t101.5 46.5t101 -46.5t38 -124.5t-38 -124.5t-101 -46.5t-101.5 46.5t-38.5 124.5zM527 542h58l-385 -542h-58zM85 386q0 -55 22.5 -87t63.5 -32t63 32t22 87q0 54 -22 86t-63 32t-63.5 -32t-22.5 -86zM416 156q0 78 38.5 124.5t101.5 46.5
t101 -46.5t38 -124.5t-38 -124.5t-101 -46.5t-101.5 46.5t-38.5 124.5zM470 156q0 -55 22.5 -86.5t63.5 -31.5t63 31.5t22 86.5t-22 86.5t-63 31.5t-63.5 -31.5t-22.5 -86.5z" />
    <glyph glyph-name="perthousand.osf" horiz-adv-x="1045" 
d="M31 386q0 78 38.5 124.5t101.5 46.5t101 -46.5t38 -124.5t-38 -124.5t-101 -46.5t-101.5 46.5t-38.5 124.5zM527 542h58l-385 -542h-58zM85 386q0 -55 22.5 -87t63.5 -32t63 32t22 87q0 54 -22 86t-63 32t-63.5 -32t-22.5 -86zM416 156q0 78 38.5 124.5t101.5 46.5
t101 -46.5t38 -124.5t-38 -124.5t-101 -46.5t-101.5 46.5t-38.5 124.5zM735 156q0 78 38 124.5t101 46.5t101.5 -46.5t38.5 -124.5t-38.5 -124.5t-101.5 -46.5t-101 46.5t-38 124.5zM470 156q0 -55 22.5 -86.5t63.5 -31.5t63 31.5t22 86.5t-22 86.5t-63 31.5t-63.5 -31.5
t-22.5 -86.5zM789 156q0 -55 22 -86.5t63 -31.5t63.5 31.5t22.5 86.5t-22.5 86.5t-63.5 31.5t-63 -31.5t-22 -86.5z" />
    <glyph glyph-name="ampersand.small" horiz-adv-x="517" 
d="M419 258v-258h-175q-98 0 -148.5 42t-50.5 112q0 52 28.5 91t79.5 48q-41 9 -66 40t-25 76q0 60 48.5 99.5t135.5 39.5q47 0 71 -6l-8 -59q-17 4 -59 4q-58 0 -86.5 -25t-28.5 -61q0 -38 27 -60.5t75 -22.5h112v91h70v-91h83v-60h-83zM249 60h100v198h-122
q-54 0 -81.5 -28t-27.5 -70q0 -44 32 -72t99 -28z" />
    <glyph glyph-name="fi.cap" horiz-adv-x="867" 
d="M100 700h447v-68h-373v-246h282v-68h-282v-318h-74v700zM693 700h74v-700h-74v700z" />
    <glyph glyph-name="fl.cap" horiz-adv-x="1118" 
d="M100 700h447v-68h-373v-246h282v-68h-282v-318h-74v700zM693 0v700h74v-632h337v-68h-411z" />
    <glyph glyph-name="fi.small" horiz-adv-x="759" 
d="M98 542h318v-67h-246v-171h246v-67h-246v-237h-72v542zM590 542h72v-542h-72v542z" />
    <glyph glyph-name="fl.small" horiz-adv-x="927" 
d="M98 542h318v-67h-246v-171h246v-67h-246v-237h-72v542zM590 0v542h72v-475h250v-67h-322z" />
    <glyph glyph-name="J.alt" horiz-adv-x="530" 
d="M240 -10q-86 0 -145 44.5t-73 120.5l67 13q29 -110 146 -110q60 0 96.5 45t36.5 120v477h73v-480q0 -102 -55.5 -166t-145.5 -64z" />
    <glyph glyph-name="Jcircumflex.alt" horiz-adv-x="530" 
d="M456 846l98 -106h-68l-82 78l-82 -78h-69l99 106h104zM240 -10q-86 0 -145 44.5t-73 120.5l67 13q29 -110 146 -110q60 0 96.5 45t36.5 120v477h73v-480q0 -102 -55.5 -166t-145.5 -64z" />
    <glyph glyph-name="IJ.alt" horiz-adv-x="804" 
d="M100 700h74v-700h-74v700zM514 -10q-86 0 -145 44.5t-73 120.5l67 13q29 -110 146 -110q60 0 96.5 45t36.5 120v477h73v-480q0 -102 -55.5 -166t-145.5 -64z" />
    <glyph glyph-name="J.small.alt" horiz-adv-x="449" 
d="M202 -11q-69 0 -117.5 37t-62.5 101l69 13q23 -83 107 -83q43 0 69 34t26 91v360h72v-364q0 -85 -45 -137t-118 -52z" />
    <glyph glyph-name="Jcircumflex.small.alt" horiz-adv-x="449" 
d="M380 687l98 -106h-68l-82 78l-82 -78h-69l99 106h104zM202 -11q-69 0 -117.5 37t-62.5 101l69 13q23 -83 107 -83q43 0 69 34t26 91v360h72v-364q0 -85 -45 -137t-118 -52z" />
    <glyph glyph-name="IJ.small.alt" horiz-adv-x="716" 
d="M98 542h72v-542h-72v542zM469 -11q-69 0 -117.5 37t-62.5 101l69 13q23 -83 107 -83q43 0 69 34t26 91v360h72v-364q0 -85 -45 -137t-118 -52z" />
    <glyph glyph-name="M.alt" horiz-adv-x="920" 
d="M34 0l150 709h100l177 -572h4l177 572h93l149 -709h-76l-124 597h-4l-184 -597h-71l-184 597h-4l-123 -597h-80z" />
    <glyph glyph-name="M.small.alt" horiz-adv-x="743" 
d="M40 0l110 548h93l128 -426h3l129 426h87l112 -548h-75l-86 440h-3l-134 -440h-68l-133 440h-3l-86 -440h-74z" />
    <glyph glyph-name="a.alt" horiz-adv-x="582" 
d="M44 232q0 110 62.5 179.5t159.5 69.5q54 0 97.5 -22t67.5 -61v68h70v-466h-65v82h-2q-50 -97 -169 -97q-97 0 -159 69t-62 178zM115 232q0 -80 45.5 -132t115.5 -52q71 0 113.5 51t42.5 133q0 83 -42.5 134.5t-113.5 51.5q-73 0 -117 -53t-44 -133z" />
    <glyph glyph-name="agrave.alt" horiz-adv-x="582" 
d="M142 699h85l85 -147h-66zM44 232q0 110 62.5 179.5t159.5 69.5q54 0 97.5 -22t67.5 -61v68h70v-466h-65v82h-2q-50 -97 -169 -97q-97 0 -159 69t-62 178zM115 232q0 -80 45.5 -132t115.5 -52q71 0 113.5 51t42.5 133q0 83 -42.5 134.5t-113.5 51.5q-73 0 -117 -53
t-44 -133z" />
    <glyph glyph-name="aacute.alt" horiz-adv-x="582" 
d="M421 699l-113 -147h-66l93 147h86zM44 232q0 110 62.5 179.5t159.5 69.5q54 0 97.5 -22t67.5 -61v68h70v-466h-65v82h-2q-50 -97 -169 -97q-97 0 -159 69t-62 178zM115 232q0 -80 45.5 -132t115.5 -52q71 0 113.5 51t42.5 133q0 83 -42.5 134.5t-113.5 51.5
q-73 0 -117 -53t-44 -133z" />
    <glyph glyph-name="acircumflex.alt" horiz-adv-x="582" 
d="M319 699l111 -147h-68l-86 111l-86 -111h-67l110 147h86zM44 232q0 110 62.5 179.5t159.5 69.5q54 0 97.5 -22t67.5 -61v68h70v-466h-65v82h-2q-50 -97 -169 -97q-97 0 -159 69t-62 178zM115 232q0 -80 45.5 -132t115.5 -52q71 0 113.5 51t42.5 133q0 83 -42.5 134.5
t-113.5 51.5q-73 0 -117 -53t-44 -133z" />
    <glyph glyph-name="atilde.alt" horiz-adv-x="582" 
d="M343 569q-30 0 -67.5 29.5t-58.5 29.5q-39 0 -46 -58h-51q11 113 89 113q29 0 67 -29.5t59 -29.5q39 0 46 58h51q-11 -113 -89 -113zM44 232q0 110 62.5 179.5t159.5 69.5q54 0 97.5 -22t67.5 -61v68h70v-466h-65v82h-2q-50 -97 -169 -97q-97 0 -159 69t-62 178zM115 232
q0 -80 45.5 -132t115.5 -52q71 0 113.5 51t42.5 133q0 83 -42.5 134.5t-113.5 51.5q-73 0 -117 -53t-44 -133z" />
    <glyph glyph-name="adieresis.alt" horiz-adv-x="582" 
d="M211 676v-101h-66v101h66zM407 676v-101h-66v101h66zM44 232q0 110 62.5 179.5t159.5 69.5q54 0 97.5 -22t67.5 -61v68h70v-466h-65v82h-2q-50 -97 -169 -97q-97 0 -159 69t-62 178zM115 232q0 -80 45.5 -132t115.5 -52q71 0 113.5 51t42.5 133q0 83 -42.5 134.5
t-113.5 51.5q-73 0 -117 -53t-44 -133z" />
    <glyph glyph-name="amacron.alt" horiz-adv-x="582" 
d="M438 651v-51h-324v51h324zM44 232q0 110 62.5 179.5t159.5 69.5q54 0 97.5 -22t67.5 -61v68h70v-466h-65v82h-2q-50 -97 -169 -97q-97 0 -159 69t-62 178zM115 232q0 -80 45.5 -132t115.5 -52q71 0 113.5 51t42.5 133q0 83 -42.5 134.5t-113.5 51.5q-73 0 -117 -53
t-44 -133z" />
    <glyph glyph-name="abreve.alt" horiz-adv-x="582" 
d="M276 558q-57 0 -97 35t-51 100h56q9 -42 34 -64t58 -22t58 22.5t34 63.5h56q-11 -65 -50.5 -100t-97.5 -35zM44 232q0 110 62.5 179.5t159.5 69.5q54 0 97.5 -22t67.5 -61v68h70v-466h-65v82h-2q-50 -97 -169 -97q-97 0 -159 69t-62 178zM115 232q0 -80 45.5 -132
t115.5 -52q71 0 113.5 51t42.5 133q0 83 -42.5 134.5t-113.5 51.5q-73 0 -117 -53t-44 -133z" />
    <glyph glyph-name="aring.alt" horiz-adv-x="582" 
d="M284 536q-45 0 -75 28t-30 71t30 71t75 28q46 0 75.5 -28t29.5 -71t-29.5 -71t-75.5 -28zM284 574q27 0 44 18t17 43t-17 42.5t-44 17.5t-44 -17.5t-17 -42.5t17 -43t44 -18zM44 232q0 110 62.5 179.5t159.5 69.5q54 0 97.5 -22t67.5 -61v68h70v-466h-65v82h-2
q-50 -97 -169 -97q-97 0 -159 69t-62 178zM115 232q0 -80 45.5 -132t115.5 -52q71 0 113.5 51t42.5 133q0 83 -42.5 134.5t-113.5 51.5q-73 0 -117 -53t-44 -133z" />
    <glyph glyph-name="aringacute.alt" horiz-adv-x="582" 
d="M408 884l-93 -106h-66l74 106h85zM284 536q-45 0 -75 28t-30 71t30 71t75 28q46 0 75.5 -28t29.5 -71t-29.5 -71t-75.5 -28zM284 574q27 0 44 18t17 43t-17 42.5t-44 17.5t-44 -17.5t-17 -42.5t17 -43t44 -18zM44 232q0 110 62.5 179.5t159.5 69.5q54 0 97.5 -22
t67.5 -61v68h70v-466h-65v82h-2q-50 -97 -169 -97q-97 0 -159 69t-62 178zM115 232q0 -80 45.5 -132t115.5 -52q71 0 113.5 51t42.5 133q0 83 -42.5 134.5t-113.5 51.5q-73 0 -117 -53t-44 -133z" />
    <glyph glyph-name="aogonek.alt" horiz-adv-x="582" 
d="M44 232q0 110 62.5 179.5t159.5 69.5q54 0 97.5 -22t67.5 -61v68h70v-466h-3q-92 -49 -92 -105q0 -24 17.5 -36.5t43.5 -12.5q11 0 32 3v-46q-19 -3 -42 -3q-51 0 -82 21t-31 62q0 72 92 125v74h-2q-50 -97 -169 -97q-97 0 -159 69t-62 178zM115 232q0 -80 45.5 -132
t115.5 -52q71 0 113.5 51t42.5 133q0 83 -42.5 134.5t-113.5 51.5q-73 0 -117 -53t-44 -133z" />
    <glyph glyph-name="a.superior.alt" horiz-adv-x="451" 
d="M33 525q0 81 48 134t123 53q82 0 115 -55v43h61v-350h-56v50h-4q-16 -28 -48.5 -45t-71.5 -17q-71 0 -119 53t-48 134zM94 525q0 -57 31 -94.5t84 -37.5q51 0 81.5 37t30.5 95t-30.5 95t-81.5 37q-53 0 -84 -37.5t-31 -94.5z" />
    <glyph glyph-name="j.alt" horiz-adv-x="233" 
d="M152 700v-102h-71v102h71zM152 466v-659h-71v659h71z" />
    <glyph glyph-name="ij.alt" horiz-adv-x="452" 
d="M152 700v-102h-71v102h71zM372 700v-102h-71v102h71zM152 466v-466h-71v466h71zM372 466v-659h-71v659h71z" />
    <glyph glyph-name="jcircumflex.alt" horiz-adv-x="233" 
d="M157 700l111 -147h-68l-86 111l-86 -111h-67l110 147h86zM152 466v-659h-71v659h71z" />
    <glyph glyph-name="j.superior.alt" horiz-adv-x="201" 
d="M132 849v-80h-62v80h62zM132 700v-493h-62v493h62z" />
    <glyph glyph-name="l.alt" horiz-adv-x="240" 
d="M194 -7q-58 0 -92 33.5t-34 105.5v568h70v-548q0 -56 19.5 -76t53.5 -20q18 0 25 4v-61q-14 -6 -42 -6z" />
    <glyph glyph-name="lacute.alt" horiz-adv-x="240" 
d="M230 846l-93 -106h-66l74 106h85zM194 -7q-58 0 -92 33.5t-34 105.5v568h70v-548q0 -56 19.5 -76t53.5 -20q18 0 25 4v-61q-14 -6 -42 -6z" />
    <glyph glyph-name="lcaron.alt" horiz-adv-x="327" 
d="M337 700l-60 -206h-54l46 206h68zM194 -7q-58 0 -92 33.5t-34 105.5v568h70v-548q0 -56 19.5 -76t53.5 -20q18 0 25 4v-61q-14 -6 -42 -6z" />
    <glyph glyph-name="lcommaaccent.alt" horiz-adv-x="240" 
d="M194 -7q-58 0 -92 33.5t-34 105.5v568h70v-548q0 -56 19.5 -76t53.5 -20q18 0 25 4v-61q-14 -6 -42 -6zM209 -62l-55 -138h-57l45 138h67z" />
    <glyph glyph-name="lslash.alt" horiz-adv-x="245" 
d="M195 -7q-58 0 -92 33.5t-34 105.5v193l-50 -38v66l50 38v309h70v-256l91 69v-67l-91 -69v-225q0 -56 19.5 -76t53.5 -20q18 0 25 4v-61q-13 -6 -42 -6z" />
    <glyph glyph-name="ldot.alt" horiz-adv-x="355" 
d="M194 -7q-58 0 -92 33.5t-34 105.5v568h70v-548q0 -56 19.5 -76t53.5 -20q18 0 25 4v-61q-14 -6 -42 -6zM330 332v-78h-70v78h70z" />
    <glyph glyph-name="l.superior.alt" horiz-adv-x="200" 
d="M154 346q-103 0 -103 114v389h61v-373q0 -46 15 -61t42 -15q5 0 20 3v-53q-3 0 -10 -1.5t-13.5 -2t-11.5 -0.5z" />
    <glyph glyph-name="t.alt" horiz-adv-x="332" 
d="M180 405v-405h-70v405h-95v61h95v151h70v-151h151v-61h-151z" />
    <glyph glyph-name="tcaron.alt" horiz-adv-x="332" 
d="M342 724l-60 -206h-54l46 206h68zM180 405v-405h-70v405h-95v61h95v151h70v-151h151v-61h-151z" />
    <glyph glyph-name="tcommaaccent.alt" horiz-adv-x="332" 
d="M180 405v-405h-70v405h-95v61h95v151h70v-151h151v-61h-151zM185 -62l-55 -138h-57l45 138h67z" />
    <glyph glyph-name="tbar.alt" horiz-adv-x="332" 
d="M180 188v-188h-70v188h-85v57h85v160h-95v61h95v151h70v-151h151v-61h-151v-160h136v-57h-136z" />
    <glyph glyph-name="t.superior.alt" horiz-adv-x="239" 
d="M136 647v-297h-61v297h-69v53h69v99h61v-99h109v-53h-109z" />
    <glyph glyph-name="u.alt" horiz-adv-x="533" 
d="M266 -14q-92 0 -143 51.5t-51 142.5v286h71v-277q0 -68 32.5 -104.5t90.5 -36.5q60 0 92 36t32 105v277h70v-286q0 -91 -51 -142.5t-143 -51.5z" />
    <glyph glyph-name="ugrave.alt" horiz-adv-x="533" 
d="M127 700h85l85 -147h-66zM266 -14q-92 0 -143 51.5t-51 142.5v286h71v-277q0 -68 32.5 -104.5t90.5 -36.5q60 0 92 36t32 105v277h70v-286q0 -91 -51 -142.5t-143 -51.5z" />
    <glyph glyph-name="uacute.alt" horiz-adv-x="533" 
d="M410 700l-113 -147h-66l93 147h86zM266 -14q-92 0 -143 51.5t-51 142.5v286h71v-277q0 -68 32.5 -104.5t90.5 -36.5q60 0 92 36t32 105v277h70v-286q0 -91 -51 -142.5t-143 -51.5z" />
    <glyph glyph-name="ucircumflex.alt" horiz-adv-x="533" 
d="M307 700l111 -147h-68l-86 111l-86 -111h-67l110 147h86zM266 -14q-92 0 -143 51.5t-51 142.5v286h71v-277q0 -68 32.5 -104.5t90.5 -36.5q60 0 92 36t32 105v277h70v-286q0 -91 -51 -142.5t-143 -51.5z" />
    <glyph glyph-name="utilde.alt" horiz-adv-x="533" 
d="M330 570q-30 0 -67.5 29.5t-58.5 29.5q-39 0 -46 -58h-51q11 113 89 113q30 0 68 -29.5t58 -29.5q39 0 46 58h51q-11 -113 -89 -113zM266 -14q-92 0 -143 51.5t-51 142.5v286h71v-277q0 -68 32.5 -104.5t90.5 -36.5q60 0 92 36t32 105v277h70v-286q0 -91 -51 -142.5
t-143 -51.5z" />
    <glyph glyph-name="udieresis.alt" horiz-adv-x="533" 
d="M199 677v-101h-66v101h66zM395 677v-101h-66v101h66zM266 -14q-92 0 -143 51.5t-51 142.5v286h71v-277q0 -68 32.5 -104.5t90.5 -36.5q60 0 92 36t32 105v277h70v-286q0 -91 -51 -142.5t-143 -51.5z" />
    <glyph glyph-name="umacron.alt" horiz-adv-x="533" 
d="M425 652v-51h-324v51h324zM266 -14q-92 0 -143 51.5t-51 142.5v286h71v-277q0 -68 32.5 -104.5t90.5 -36.5q60 0 92 36t32 105v277h70v-286q0 -91 -51 -142.5t-143 -51.5z" />
    <glyph glyph-name="ubreve.alt" horiz-adv-x="533" 
d="M264 559q-57 0 -97 35t-51 100h56q9 -42 34 -64t58 -22t58 22.5t34 63.5h56q-11 -65 -50.5 -100t-97.5 -35zM266 -14q-92 0 -143 51.5t-51 142.5v286h71v-277q0 -68 32.5 -104.5t90.5 -36.5q60 0 92 36t32 105v277h70v-286q0 -91 -51 -142.5t-143 -51.5z" />
    <glyph glyph-name="uring.alt" horiz-adv-x="533" 
d="M264 536q-45 0 -75 28t-30 71t30 71t75 28q46 0 75.5 -28t29.5 -71t-29.5 -71t-75.5 -28zM264 574q27 0 44 18t17 43t-17 42.5t-44 17.5t-44 -17.5t-17 -42.5t17 -43t44 -18zM266 -14q-92 0 -143 51.5t-51 142.5v286h71v-277q0 -68 32.5 -104.5t90.5 -36.5q60 0 92 36
t32 105v277h70v-286q0 -91 -51 -142.5t-143 -51.5z" />
    <glyph glyph-name="uhungarumlaut.alt" horiz-adv-x="533" 
d="M330 700l-113 -147h-66l93 147h86zM492 700l-113 -147h-66l93 147h86zM266 -14q-92 0 -143 51.5t-51 142.5v286h71v-277q0 -68 32.5 -104.5t90.5 -36.5q60 0 92 36t32 105v277h70v-286q0 -91 -51 -142.5t-143 -51.5z" />
    <glyph glyph-name="uogonek.alt" horiz-adv-x="533" 
d="M331 -200q-51 0 -82 21t-31 62q0 55 53 102v4q-2 0 -9 -0.5t-10 -0.5q-84 0 -132 53.5t-48 138.5v286h71v-276q0 -68 32.5 -104.5t90.5 -36.5q60 0 92 36t32 105v276h70v-285q0 -125 -98 -178q-84 -43 -84 -106q0 -24 18 -37.5t45 -13.5q9 0 33 3v-46q-19 -3 -43 -3z" />
    <glyph glyph-name="u.superior.alt" horiz-adv-x="420" 
d="M210 339q-71 0 -110 39t-39 108v214h62v-206q0 -49 23 -75t64 -26t63.5 26t22.5 75v206h62v-214q0 -69 -38.5 -108t-109.5 -39z" />
    <glyph glyph-name="six.alt" 
d="M533 223q0 -95 -67 -166.5t-177 -71.5q-111 0 -177 71.5t-66 165.5q0 54 22 103t70 117l180 258h87l-203 -285q37 37 107 37q101 0 162.5 -69t61.5 -160zM459 221q0 66 -45.5 118t-124.5 52t-124 -52t-45 -118t45 -118.5t124 -52.5t124.5 52.5t45.5 118.5z" />
    <glyph glyph-name="nine.alt" 
d="M41 477q0 96 67 167t177 71q111 0 177 -71.5t66 -165.5q0 -54 -22 -103t-70 -117l-180 -258h-87l203 285q-41 -37 -107 -37q-101 0 -162.5 69t-61.5 160zM115 479q0 -65 45 -117.5t125 -52.5t124.5 52.5t44.5 117.5q0 67 -44.5 119t-124.5 52t-125 -52t-45 -119z" />
    <glyph glyph-name="six.LT.alt" 
d="M533 223q0 -95 -67 -166.5t-177 -71.5q-111 0 -177 71.5t-66 165.5q0 54 22 103t70 117l180 258h87l-203 -285q37 37 107 37q101 0 162.5 -69t61.5 -160zM459 221q0 66 -45.5 118t-124.5 52t-124 -52t-45 -118t45 -118.5t124 -52.5t124.5 52.5t45.5 118.5z" />
    <glyph glyph-name="nine.LT.alt" 
d="M41 477q0 96 67 167t177 71q111 0 177 -71.5t66 -165.5q0 -54 -22 -103t-70 -117l-180 -258h-87l203 285q-41 -37 -107 -37q-101 0 -162.5 69t-61.5 160zM115 479q0 -65 45 -117.5t125 -52.5t124.5 52.5t44.5 117.5q0 67 -44.5 119t-124.5 52t-125 -52t-45 -119z" />
    <glyph glyph-name="six.OT.alt" 
d="M533 223q0 -95 -67 -166.5t-177 -71.5q-111 0 -177 71.5t-66 165.5q0 54 22 103t70 117l180 258h87l-203 -285q37 37 107 37q101 0 162.5 -69t61.5 -160zM459 221q0 66 -45.5 118t-124.5 52t-124 -52t-45 -118t45 -118.5t124 -52.5t124.5 52.5t45.5 118.5z" />
    <glyph glyph-name="nine.OT.alt" 
d="M41 319q0 96 67 167t177 71q111 0 177 -71.5t66 -165.5q0 -54 -22 -103t-70 -117l-180 -258h-87l203 285q-41 -37 -107 -37q-101 0 -162.5 69t-61.5 160zM115 321q0 -65 45 -117.5t125 -52.5t124.5 52.5t44.5 117.5q0 67 -44.5 119t-124.5 52t-125 -52t-45 -119z" />
    <glyph glyph-name="six.OP.alt" 
d="M533 223q0 -95 -67 -166.5t-177 -71.5q-111 0 -177 71.5t-66 165.5q0 54 22 103t70 117l180 258h87l-203 -285q37 37 107 37q101 0 162.5 -69t61.5 -160zM459 221q0 66 -45.5 118t-124.5 52t-124 -52t-45 -118t45 -118.5t124 -52.5t124.5 52.5t45.5 118.5z" />
    <glyph glyph-name="nine.OP.alt" 
d="M41 319q0 96 67 167t177 71q111 0 177 -71.5t66 -165.5q0 -54 -22 -103t-70 -117l-180 -258h-87l203 285q-41 -37 -107 -37q-101 0 -162.5 69t-61.5 160zM115 321q0 -65 45 -117.5t125 -52.5t124.5 52.5t44.5 117.5q0 67 -44.5 119t-124.5 52t-125 -52t-45 -119z" />
    <glyph glyph-name="six.dnom.alt" horiz-adv-x="352" 
d="M326 136q0 -59 -41 -102t-108 -43q-68 0 -109 43t-41 101q0 64 77 164l93 121h68l-105 -133q-15 -21 -25 -31q18 18 55 18q61 0 98.5 -40.5t37.5 -97.5zM270 134q0 38 -24 65.5t-69 27.5q-43 0 -68 -27.5t-25 -65.5t25 -65.5t68 -27.5q44 0 68.5 28t24.5 65z" />
    <glyph glyph-name="nine.dnom.alt" horiz-adv-x="352" 
d="M27 284q0 59 41 102t108 43q68 0 109 -42.5t41 -101.5q0 -39 -19.5 -76t-57.5 -88l-93 -121h-68l105 133q4 6 12 15.5t13 15.5q-22 -18 -55 -18q-61 0 -98.5 40.5t-37.5 97.5zM83 286q0 -37 25 -65t68 -28q44 0 68.5 28t24.5 65q0 38 -24 65.5t-69 27.5q-43 0 -68 -27.5
t-25 -65.5z" />
    <glyph glyph-name="sixsuperior.alt" horiz-adv-x="352" 
d="M326 536q0 -59 -41 -102t-108 -43q-68 0 -109 43t-41 101q0 64 77 164l93 121h68l-105 -133q-15 -21 -25 -31q18 18 55 18q61 0 98.5 -40.5t37.5 -97.5zM270 534q0 38 -24 65.5t-69 27.5q-43 0 -68 -27.5t-25 -65.5t25 -65.5t68 -27.5q44 0 68.5 28t24.5 65z" />
    <glyph glyph-name="ninesuperior.alt" horiz-adv-x="352" 
d="M27 687q0 59 41 102t108 43q68 0 109 -42.5t41 -101.5q0 -39 -19.5 -76t-57.5 -88l-93 -121h-68l105 133q4 6 12 15.5t13 15.5q-22 -18 -55 -18q-61 0 -98.5 40.5t-37.5 97.5zM83 689q0 -37 25 -65t68 -28q44 0 68.5 28t24.5 65q0 38 -24 65.5t-69 27.5q-43 0 -68 -27.5
t-25 -65.5z" />
    <glyph glyph-name="sixinferior.alt" horiz-adv-x="352" 
d="M326 16q0 -59 -41 -102t-108 -43q-68 0 -109 43t-41 101q0 64 77 164l93 121h68l-105 -133q-15 -21 -25 -31q18 18 55 18q61 0 98.5 -40.5t37.5 -97.5zM270 14q0 38 -24 65.5t-69 27.5q-43 0 -68 -27.5t-25 -65.5t25 -65.5t68 -27.5q44 0 68.5 28t24.5 65z" />
    <glyph glyph-name="nineinferior.alt" horiz-adv-x="352" 
d="M27 169q0 59 41 102t108 43q68 0 109 -42.5t41 -101.5q0 -39 -19.5 -76t-57.5 -88l-93 -121h-68l105 133q4 6 12 15.5t13 15.5q-22 -18 -55 -18q-61 0 -98.5 40.5t-37.5 97.5zM83 171q0 -37 25 -65t68 -28q44 0 68.5 28t24.5 65q0 38 -24 65.5t-69 27.5q-43 0 -68 -27.5
t-25 -65.5z" />
    <glyph glyph-name="six.numr.alt" horiz-adv-x="352" 
d="M326 416q0 -59 -41 -102t-108 -43q-68 0 -109 43t-41 101q0 64 77 164l93 121h68l-105 -133q-15 -21 -25 -31q18 18 55 18q61 0 98.5 -40.5t37.5 -97.5zM270 414q0 38 -24 65.5t-69 27.5q-43 0 -68 -27.5t-25 -65.5t25 -65.5t68 -27.5q44 0 68.5 28t24.5 65z" />
    <glyph glyph-name="nine.numr.alt" horiz-adv-x="352" 
d="M27 569q0 59 41 102t108 43q68 0 109 -42.5t41 -101.5q0 -39 -19.5 -76t-57.5 -88l-93 -121h-68l105 133q4 6 12 15.5t13 15.5q-22 -18 -55 -18q-61 0 -98.5 40.5t-37.5 97.5zM83 571q0 -37 25 -65t68 -28q44 0 68.5 28t24.5 65q0 38 -24 65.5t-69 27.5q-43 0 -68 -27.5
t-25 -65.5z" />
    <glyph glyph-name="ampersand.alt" horiz-adv-x="675" 
d="M271 -15q-92 0 -150.5 54.5t-58.5 140.5q0 127 155 208q-79 87 -79 162q0 70 49 117.5t121 47.5q73 0 122 -46t49 -116q0 -57 -36.5 -100.5t-119.5 -84.5l153 -176l100 133l67 -16l-127 -164l126 -145h-89l-80 92q-48 -57 -95.5 -82t-106.5 -25zM276 423l7 -9
q69 33 98 64.5t29 71.5q0 44 -29 72.5t-74 28.5q-43 0 -71 -27.5t-28 -71.5q0 -28 15 -56.5t53 -72.5zM135 185q0 -58 39 -96.5t99 -38.5q45 0 81.5 21t75.5 71l-171 198q-124 -61 -124 -155z" />
    <glyph glyph-name="ampersand.small.alt" horiz-adv-x="533" 
d="M203 -15q-72 0 -118 43t-46 109q0 100 119 162q-58 72 -58 123q0 60 40 97q41 38 100 38q60 0 102.5 -38t42.5 -91q0 -48 -28 -82t-93 -65l102 -119l77 99l59 -26l-96 -119l101 -116h-90l-55 64q-70 -79 -159 -79zM219 332l6 -7q54 27 73 48t19 52q0 30 -22 51t-53 21
t-51.5 -20.5t-20.5 -50.5q0 -39 49 -94zM112 142q0 -41 27.5 -67t72.5 -26q57 0 109 62l-121 140q-88 -43 -88 -109z" />
    <glyph glyph-name="NULL" horiz-adv-x="0" 
 />
    </font>
</defs>
</svg>
