<?xml version="1.0" standalone="no"?>
<!DOCTYPE svg PUBLIC "-//W3C//DTD SVG 1.1//EN" "http://www.w3.org/Graphics/SVG/1.1/DTD/svg11.dtd" >
<svg xmlns="http://www.w3.org/2000/svg" xmlns:xlink="http://www.w3.org/1999/xlink" version="1.1">
<metadata>
Created by FontForge 20201107 at Tue Mar 19 07:28:08 2019
 By 
(c) 2018 Stephane Elbaz under exclusive license to General Type LLC. All rights reserved.
</metadata>
<defs>
<font id="MierB-Book" horiz-adv-x="582" >
  <font-face 
    font-family="Mier B Book"
    font-weight="500"
    font-stretch="normal"
    units-per-em="1000"
    panose-1="2 11 6 1 3 0 0 0 0 6"
    ascent="750"
    descent="-250"
    x-height="469"
    cap-height="700"
    bbox="-171 -251 1170 1079"
    underline-thickness="60"
    underline-position="-217"
    unicode-range="U+000D-FB02"
  />
<missing-glyph horiz-adv-x="700" 
d="M369 -80q-113 0 -190 78.5t-77 187.5v18l-19 31q-15 25 -9 53q6 29 31 44l7 4q18 13 43 11q-7 24 0.5 46t28.5 35l7 4q20 12 41 11l-76 120q-12 21 -12 39q0 30 21.5 52.5t51.5 22.5q42 0 65 -35l139 -221v224q0 31 21.5 53t52.5 22t52.5 -22t21.5 -53v-286
q30 -15 48 -43t18 -63v-62q0 -65 -30 -126t-92.5 -103t-143.5 -42zM451 645v-274h66q17 0 22 -2v276q0 18 -13 31t-31 13t-31 -13t-13 -31zM182 579l127 -203l24 -37q6 14 20 23t30 9h33l-160 255q-12 20 -37 20q-18 0 -31 -13t-13 -31q0 -12 7 -23zM313 220l8 5
q14 9 17.5 25.5t-5.5 29.5l-72 114q-9 14 -24.5 17.5t-29.5 -4.5l-8 -5q-13 -9 -17 -24.5t5 -30.5l72 -114q9 -14 25 -17.5t29 4.5zM359 138q0 24 13 49.5t29 33.5q-16 1 -34 15q-7 -25 -29 -37l-7 -4q-18 -11 -43 -11q17 -49 -29 -81l-8 -5q-24 -15 -51.5 -8.5t-44.5 31.5
l-20 30q12 -85 79.5 -143t153.5 -58q99 0 168 72t69 169v62q0 36 -26 62t-62 26h-134q-10 0 -17 -7.5t-7 -19.5q0 -27 19 -47.5t48 -20.5h42q6 0 10.5 -4.5t4.5 -10.5t-4.5 -10.5t-10.5 -4.5q-34 0 -55.5 -23.5t-21.5 -54.5q0 -6 -5 -10.5t-11 -4.5t-11 4.5t-5 10.5z
M235 124l8 5q14 9 17.5 25.5t-5.5 29.5l-72 114q-9 14 -24.5 17.5t-29.5 -4.5l-8 -5q-13 -9 -17 -24.5t5 -30.5l72 -114q9 -14 25 -17.5t29 4.5z" />
    <glyph glyph-name="f_f" unicode="ff" horiz-adv-x="610" 
d="M107 394h-90v75h90v80q0 77 41 121.5t118 44.5q39 0 63 -8v-74q-26 6 -46 6q-88 0 -88 -98v-72h195v80q0 77 41 121.5t118 44.5q39 0 63 -8v-74q-26 6 -46 6q-88 0 -88 -98v-72h134v-75h-134v-394h-88v394h-195v-394h-88v394z" />
    <glyph glyph-name="fi" unicode="fi" horiz-adv-x="558" 
d="M107 394h-90v75h90v80q0 77 41 121.5t118 44.5q39 0 63 -8v-74q-26 6 -46 6q-88 0 -88 -98v-72h134v-75h-134v-394h-88v394zM486 700v-108h-87v108h87zM486 469v-469h-87v469h87z" />
    <glyph glyph-name="fl" unicode="fl" horiz-adv-x="558" 
d="M107 394h-90v75h90v80q0 77 41 121.5t118 44.5q39 0 63 -8v-74q-26 6 -46 6q-88 0 -88 -98v-72h134v-75h-134v-394h-88v394zM399 0v700h87v-700h-87z" />
    <glyph glyph-name=".notdef" horiz-adv-x="700" 
d="M369 -80q-113 0 -190 78.5t-77 187.5v18l-19 31q-15 25 -9 53q6 29 31 44l7 4q18 13 43 11q-7 24 0.5 46t28.5 35l7 4q20 12 41 11l-76 120q-12 21 -12 39q0 30 21.5 52.5t51.5 22.5q42 0 65 -35l139 -221v224q0 31 21.5 53t52.5 22t52.5 -22t21.5 -53v-286
q30 -15 48 -43t18 -63v-62q0 -65 -30 -126t-92.5 -103t-143.5 -42zM451 645v-274h66q17 0 22 -2v276q0 18 -13 31t-31 13t-31 -13t-13 -31zM182 579l127 -203l24 -37q6 14 20 23t30 9h33l-160 255q-12 20 -37 20q-18 0 -31 -13t-13 -31q0 -12 7 -23zM313 220l8 5
q14 9 17.5 25.5t-5.5 29.5l-72 114q-9 14 -24.5 17.5t-29.5 -4.5l-8 -5q-13 -9 -17 -24.5t5 -30.5l72 -114q9 -14 25 -17.5t29 4.5zM359 138q0 24 13 49.5t29 33.5q-16 1 -34 15q-7 -25 -29 -37l-7 -4q-18 -11 -43 -11q17 -49 -29 -81l-8 -5q-24 -15 -51.5 -8.5t-44.5 31.5
l-20 30q12 -85 79.5 -143t153.5 -58q99 0 168 72t69 169v62q0 36 -26 62t-62 26h-134q-10 0 -17 -7.5t-7 -19.5q0 -27 19 -47.5t48 -20.5h42q6 0 10.5 -4.5t4.5 -10.5t-4.5 -10.5t-10.5 -4.5q-34 0 -55.5 -23.5t-21.5 -54.5q0 -6 -5 -10.5t-11 -4.5t-11 4.5t-5 10.5z
M235 124l8 5q14 9 17.5 25.5t-5.5 29.5l-72 114q-9 14 -24.5 17.5t-29.5 -4.5l-8 -5q-13 -9 -17 -24.5t5 -30.5l72 -114q9 -14 25 -17.5t29 4.5z" />
    <glyph glyph-name=".null" horiz-adv-x="0" 
 />
    <glyph glyph-name="nonmarkingreturn" horiz-adv-x="333" 
 />
    <glyph glyph-name="CR" unicode="&#xd;" horiz-adv-x="250" 
 />
    <glyph glyph-name="space" unicode=" " horiz-adv-x="217" 
 />
    <glyph glyph-name="exclam" unicode="!" horiz-adv-x="311" 
d="M208 700l-16 -490h-73l-16 490h105zM203 0h-97v113h97v-113z" />
    <glyph glyph-name="quotedbl" unicode="&#x22;" horiz-adv-x="381" 
d="M149 700l-8 -250h-70l-9 250h87zM318 700l-8 -250h-70l-9 250h87z" />
    <glyph glyph-name="numbersign" unicode="#" 
d="M403 197l-42 -197h-70l43 197h-151l-43 -197h-69l42 197h-102v68h116l37 170h-102v68h117l43 197h69l-42 -197h150l43 197h70l-43 -197h101v-68h-116l-36 -170h101v-68h-116zM193 262h157l39 175h-158z" />
    <glyph glyph-name="dollar" unicode="$" 
d="M331 3v-104h-74v106q-74 9 -125.5 52t-63.5 114l82 21q7 -56 51 -85.5t103 -29.5q61 0 96.5 32t35.5 85q0 37 -19.5 61t-51.5 36.5t-70 21.5t-76 21t-70 30.5t-51.5 55t-19.5 88.5q0 77 49.5 128t129.5 61v105h74v-105q75 -10 123.5 -53t58.5 -107l-83 -23
q-7 48 -44 78.5t-95 30.5q-53 0 -86.5 -28t-33.5 -77q0 -37 19.5 -61t51 -36t69.5 -21.5t76 -21.5t69.5 -30.5t51 -55t19.5 -89.5q0 -82 -54.5 -136.5t-141.5 -63.5z" />
    <glyph glyph-name="percent" unicode="%" horiz-adv-x="770" 
d="M185 325q-67 0 -110.5 53t-43.5 142q0 90 43 142.5t111 52.5t111 -52.5t43 -142.5q0 -89 -43.5 -142t-110.5 -53zM580 700h71l-463 -700h-70zM185 391q39 0 61.5 34t22.5 95t-22.5 95t-61.5 34t-61.5 -33.5t-22.5 -95.5t22.5 -95.5t61.5 -33.5zM585 -15q-67 0 -110.5 53
t-43.5 142q0 90 43 142.5t111 52.5t111 -52.5t43 -142.5q0 -89 -43 -142t-111 -53zM585 51q39 0 61.5 34t22.5 95t-22.5 95t-61.5 34t-61.5 -34t-22.5 -95t22.5 -95t61.5 -34z" />
    <glyph glyph-name="ampersand" unicode="&#x26;" horiz-adv-x="668" 
d="M541 333v-333h-219q-129 0 -196.5 54.5t-67.5 147.5q0 69 37.5 116.5t106.5 60.5q-54 10 -88 51t-34 100q0 79 63 128.5t177 49.5q48 0 93 -8l-13 -78q-26 6 -72 6q-77 0 -116 -30.5t-39 -78.5q0 -49 37.5 -78t101.5 -29h140v126h89v-126h107v-79h-107zM322 79h130v254
h-159q-69 0 -105.5 -35.5t-36.5 -89.5q0 -57 43 -93t128 -36z" />
    <glyph glyph-name="quotesingle" unicode="'" horiz-adv-x="212" 
d="M149 700l-8 -250h-70l-9 250h87z" />
    <glyph glyph-name="parenleft" unicode="(" horiz-adv-x="301" 
d="M45 295q0 142 46 252t101 153h86q-67 -61 -110 -166.5t-43 -238.5q0 -132 43 -238t110 -167h-86q-55 43 -101 153t-46 252z" />
    <glyph glyph-name="parenright" unicode=")" horiz-adv-x="301" 
d="M256 295q0 -142 -46 -252t-101 -153h-86q67 59 110 166t43 239q0 133 -42.5 239t-110.5 166h86q55 -43 101 -153t46 -252z" />
    <glyph glyph-name="asterisk" unicode="*" horiz-adv-x="380" 
d="M315 421l-54 -40l-71 112l-71 -112l-54 40l82 103l-124 33l22 64l119 -49l-9 128h70l-9 -128l119 49l22 -64l-124 -33z" />
    <glyph glyph-name="plus" unicode="+" horiz-adv-x="600" 
d="M266 295h-203v69h203v212h69v-212h202v-69h-202v-213h-69v213z" />
    <glyph glyph-name="comma" unicode="," horiz-adv-x="259" 
d="M197 118l-85 -250h-71l69 250h87z" />
    <glyph glyph-name="hyphen" unicode="-" horiz-adv-x="270" 
d="M250 244h-230v69h230v-69z" />
    <glyph glyph-name="period" unicode="." horiz-adv-x="259" 
d="M177 0h-95v122h95v-122z" />
    <glyph glyph-name="slash" unicode="/" horiz-adv-x="457" 
d="M382 700h75l-382 -786h-75z" />
    <glyph glyph-name="zero" unicode="0" horiz-adv-x="602" 
d="M302 -15q-120 0 -189.5 100.5t-69.5 264.5t69 264.5t188 100.5q120 0 189.5 -100.5t69.5 -264.5t-69 -264.5t-188 -100.5zM302 67q78 0 121.5 78t43.5 205q0 128 -43.5 205.5t-123.5 77.5q-78 0 -121.5 -78t-43.5 -205t43.5 -205t123.5 -78z" />
    <glyph glyph-name="one" unicode="1" horiz-adv-x="418" 
d="M36 506l-12 90l207 104h80v-700h-89v605z" />
    <glyph glyph-name="two" unicode="2" 
d="M70 0v78l236 226q67 65 93.5 110.5t26.5 93.5t-33.5 86t-96.5 38q-70 0 -105.5 -44t-40.5 -103l-87 8q8 90 67.5 156t164.5 66q102 0 163 -60t61 -137q0 -72 -34 -131t-118 -140l-171 -165h328v-82h-454z" />
    <glyph glyph-name="three" unicode="3" 
d="M292 -15q-100 0 -171 58t-74 142l87 11q3 -55 48.5 -92.5t108.5 -37.5q70 0 110 43t40 109q0 65 -40 103.5t-106 38.5q-46 0 -86 -35v75l210 218h-345v82h452v-77l-154 -164q-5 -5 -12 -12.5t-12 -12.5t-8 -7v-4q6 2 12 2q79 0 131 -57.5t52 -146.5q0 -101 -66.5 -168.5
t-176.5 -67.5z" />
    <glyph glyph-name="four" unicode="4" 
d="M465 157v-157h-89v157h-346v82l283 461h152v-461h95v-82h-95zM372 646l-252 -407h256v407h-4z" />
    <glyph glyph-name="five" unicode="5" 
d="M288 -15q-88 0 -154.5 46t-81.5 117l87 23q11 -47 53 -76t97 -29q68 0 112.5 46t44.5 113q0 70 -44 116q-44 45 -112 45q-44 0 -79.5 -20t-51.5 -54h-79v388h425v-83h-342v-212q46 61 152 61q99 0 162.5 -65.5t63.5 -168.5q0 -106 -71.5 -176.5t-181.5 -70.5z" />
    <glyph glyph-name="six" unicode="6" 
d="M312 -15q-128 0 -195.5 91t-67.5 270q0 175 68 272t194 97q84 0 144.5 -42t80.5 -114l-91 -17q-10 40 -45.5 66t-87.5 26q-82 0 -127 -68t-45 -194q0 -16 1 -27q23 50 70.5 75.5t108.5 25.5q99 0 163.5 -62.5t64.5 -160.5q0 -104 -66.5 -171t-169.5 -67zM306 65
q69 0 109.5 43t40.5 109t-40.5 110t-109.5 44q-70 0 -110.5 -44t-40.5 -110t40.5 -109t110.5 -43z" />
    <glyph glyph-name="seven" unicode="7" 
d="M71 700h453v-83l-334 -617h-102l342 618h-359v82z" />
    <glyph glyph-name="eight" unicode="8" 
d="M292 -15q-116 0 -181 60.5t-65 144.5q0 65 37 114q38 50 91 63q-49 15 -78 59t-29 102q0 70 58.5 128.5t166.5 58.5t166 -58.5t58 -128.5q0 -58 -29.5 -102.5t-78.5 -58.5q53 -13 91 -63q37 -49 37 -114q0 -84 -64.5 -144.5t-179.5 -60.5zM291 400q61 0 96.5 33.5
t35.5 83.5q0 44 -34.5 81t-97.5 37t-97.5 -37t-34.5 -81q0 -50 35.5 -83.5t96.5 -33.5zM291 65q71 0 110 39q40 39 40 92q0 57 -41.5 93.5t-108.5 36.5t-108.5 -36.5t-41.5 -93.5q0 -53 40 -92q41 -39 110 -39z" />
    <glyph glyph-name="nine" unicode="9" 
d="M270 715q129 0 196 -90.5t67 -270.5q0 -175 -68.5 -272t-193.5 -97q-84 0 -144.5 41.5t-80.5 114.5l91 17q12 -41 47 -66.5t86 -25.5q82 0 127 68t45 194q0 18 -1 27q-23 -50 -70.5 -75.5t-108.5 -25.5q-99 0 -163.5 62.5t-64.5 160.5q0 104 67 171t169 67zM276 635
q-69 0 -110 -44q-40 -43 -40 -109q0 -65 41 -109t109 -44q70 0 110.5 43.5t40.5 109.5q0 67 -40.5 110t-110.5 43z" />
    <glyph glyph-name="colon" unicode=":" horiz-adv-x="259" 
d="M177 347h-95v122h95v-122zM177 0h-95v122h95v-122z" />
    <glyph glyph-name="semicolon" unicode=";" horiz-adv-x="265" 
d="M183 347h-95v122h95v-122zM197 118l-85 -250h-71l69 250h87z" />
    <glyph glyph-name="less" unicode="&#x3c;" horiz-adv-x="600" 
d="M530 189v-75l-457 182v65l457 183v-75l-358 -138v-4z" />
    <glyph glyph-name="equal" unicode="=" horiz-adv-x="600" 
d="M517 411h-434v69h434v-69zM517 179h-434v68h434v-68z" />
    <glyph glyph-name="greater" unicode="&#x3e;" horiz-adv-x="600" 
d="M73 468v75l457 -182v-65l-457 -183v75l358 138v4z" />
    <glyph glyph-name="question" unicode="?" horiz-adv-x="510" 
d="M296 218v-8h-89v17q0 44 17.5 79t42.5 58t50 45.5t42.5 51.5t17.5 64q0 44 -31 75.5t-85 31.5q-63 0 -98 -45t-37 -108l-87 7q8 99 65 164t157 65q94 0 151.5 -55t57.5 -132q0 -49 -18 -87.5t-43.5 -63t-51 -46t-43.5 -50t-18 -63.5zM299 0h-97v113h97v-113z" />
    <glyph glyph-name="at" unicode="@" horiz-adv-x="896" 
d="M411 48q-72 0 -116 49.5t-44 131.5q0 102 55 173.5t142 71.5q41 0 72.5 -19t42.5 -51h2l8 51h82l-36 -261q-6 -42 8 -63.5t43 -21.5q46 0 78 52t32 135q0 141 -88.5 233t-236.5 92q-143 0 -240 -105t-97 -263q0 -155 98 -255t243 -100q62 0 121.5 22.5t99.5 59.5l29 -45
q-35 -39 -109.5 -67t-146.5 -28q-169 0 -283 114t-114 295q0 189 116 310t283 121q169 0 278.5 -107t109.5 -272q0 -111 -53 -182t-137 -71q-43 0 -70 21.5t-32 59.5h-2q-16 -35 -54.5 -58t-83.5 -23zM428 118q56 0 92 49t36 117q0 56 -26.5 88.5t-73.5 32.5q-55 0 -91 -49
t-36 -118q0 -56 26.5 -88t72.5 -32z" />
    <glyph glyph-name="A" unicode="A" horiz-adv-x="678" 
d="M390 707l266 -707h-99l-73 201h-292l-73 -201h-97l266 707h102zM341 602h-4l-115 -318h235z" />
    <glyph glyph-name="B" unicode="B" horiz-adv-x="631" 
d="M543 518q0 -57 -31 -101t-89 -55q74 -9 112 -55t38 -110q0 -87 -57 -142q-56 -55 -173 -55h-249v700h234q103 0 159 -50t56 -132zM320 615h-135v-216h149q56 0 85 30.5t29 77.5q0 46 -31.5 77t-96.5 31zM479 203q0 48 -33 82q-32 35 -109 35h-152v-236h156q72 0 105 36
t33 83z" />
    <glyph glyph-name="C" unicode="C" horiz-adv-x="732" 
d="M54 349q0 165 96 265.5t244 100.5q107 0 185 -56.5t109 -155.5l-94 -16q-19 61 -72.5 101.5t-127.5 40.5q-108 0 -177 -78.5t-69 -200.5q0 -121 69 -200t176 -79q71 0 125 39t77 108l89 -23q-29 -97 -105.5 -153.5t-181.5 -56.5q-149 0 -246 100.5t-97 263.5z" />
    <glyph glyph-name="D" unicode="D" horiz-adv-x="721" 
d="M666 350q0 -90 -29.5 -158.5t-82 -109.5t-119.5 -61.5t-146 -20.5h-195v700h208q165 0 264.5 -95t99.5 -255zM571 350q0 122 -73 193.5t-193 71.5h-120v-531h121q119 0 192 72t73 194z" />
    <glyph glyph-name="E" unicode="E" horiz-adv-x="615" 
d="M94 700h457v-84h-366v-220h277v-84h-277v-228h366v-84h-457v700z" />
    <glyph glyph-name="F" unicode="F" horiz-adv-x="589" 
d="M94 700h451v-84h-360v-224h271v-85h-271v-307h-91v700z" />
    <glyph glyph-name="G" unicode="G" horiz-adv-x="761" 
d="M687 521l-88 -32q-21 60 -74 100t-129 40q-109 0 -178.5 -78.5t-69.5 -200.5t69 -200.5t180 -78.5q98 0 153 58t63 149h-212v84h311v-33q-5 -156 -89.5 -250t-225.5 -94q-150 0 -246.5 101.5t-96.5 263.5q0 161 96.5 263t243.5 102q104 0 181 -51t112 -143z" />
    <glyph glyph-name="H" unicode="H" horiz-adv-x="744" 
d="M559 700h91v-700h-91v306h-374v-306h-91v700h91v-310h374v310z" />
    <glyph glyph-name="I" unicode="I" horiz-adv-x="279" 
d="M94 700h91v-700h-91v700z" />
    <glyph glyph-name="J" unicode="J" horiz-adv-x="421" 
d="M122 -10q-51 0 -89 22v85q33 -23 77 -23q136 0 136 166v375h-176v85h268v-468q0 -242 -216 -242z" />
    <glyph glyph-name="K" unicode="K" horiz-adv-x="641" 
d="M185 334v-334h-91v700h91v-327l299 327h110l-312 -338l344 -362h-123z" />
    <glyph glyph-name="L" unicode="L" horiz-adv-x="528" 
d="M94 0v700h91v-616h325v-84h-416z" />
    <glyph glyph-name="M" unicode="M" horiz-adv-x="912" 
d="M818 700v-700h-92v578h-4l-227 -578h-79l-227 578h-4v-578h-91v700h141l221 -560h4l221 560h137z" />
    <glyph glyph-name="N" unicode="N" horiz-adv-x="781" 
d="M687 700v-707h-101l-401 571v-564h-91v707h101l400 -571v564h92z" />
    <glyph glyph-name="O" unicode="O" horiz-adv-x="804" 
d="M749 350q0 -160 -99.5 -262.5t-247.5 -102.5t-248 102.5t-100 262.5t100 262.5t248 102.5t247.5 -102.5t99.5 -262.5zM655 350q0 123 -73 201t-180 78t-180.5 -78t-73.5 -201q0 -122 74 -200.5t180 -78.5q107 0 180 78.5t73 200.5z" />
    <glyph glyph-name="P" unicode="P" horiz-adv-x="612" 
d="M346 271h-161v-271h-91v700h245q101 0 167.5 -59.5t66.5 -155.5q0 -91 -63.5 -152.5t-163.5 -61.5zM479 485q0 54 -39.5 92t-116.5 38h-138v-260h147q71 0 109 38.5t38 91.5z" />
    <glyph glyph-name="Q" unicode="Q" horiz-adv-x="804" 
d="M689 -71l-89 -9l-54 95q-66 -30 -144 -30q-148 0 -248 102.5t-100 262.5t100 262.5t248 102.5t247.5 -102.5t99.5 -262.5q0 -92 -35.5 -168t-97.5 -125zM655 350q0 123 -73 201t-180 78t-180.5 -78t-73.5 -201q0 -122 74 -200.5t180 -78.5q54 0 99 21l-63 110l89 10
l43 -75q85 80 85 213z" />
    <glyph glyph-name="R" unicode="R" horiz-adv-x="631" 
d="M591 0h-108l-187 304h-111v-304h-91v700h241q97 0 159.5 -53.5t62.5 -146.5q0 -70 -43 -121.5t-118 -68.5zM462 498q0 48 -34.5 82.5t-107.5 34.5h-135v-235h137q72 0 106 34.5t34 83.5z" />
    <glyph glyph-name="S" unicode="S" horiz-adv-x="594" 
d="M302 -15q-94 0 -164.5 48t-83.5 135l89 19q8 -59 55 -90.5t107 -31.5q65 0 105.5 34t40.5 88q0 38 -20.5 63t-53 38t-72 23t-79.5 23t-72.5 32.5t-53 57.5t-20.5 93q0 89 63.5 143.5t161.5 54.5q97 0 160.5 -52.5t75.5 -134.5l-89 -16q-9 55 -48 88.5t-102 33.5
q-57 0 -93 -28.5t-36 -80.5q0 -38 20.5 -63t53 -37.5t72 -22.5t79.5 -23t72.5 -32.5t53 -57.5t20.5 -92q0 -96 -67.5 -154t-174.5 -58z" />
    <glyph glyph-name="T" unicode="T" horiz-adv-x="579" 
d="M29 700h521v-85h-215v-615h-91v615h-215v85z" />
    <glyph glyph-name="U" unicode="U" horiz-adv-x="725" 
d="M362 -15q-130 0 -204.5 77t-74.5 224v414h91v-403q0 -112 50.5 -169t137.5 -57q89 0 138.5 57t49.5 168v404h91v-413q0 -149 -74 -225.5t-205 -76.5z" />
    <glyph glyph-name="V" unicode="V" horiz-adv-x="678" 
d="M656 700l-266 -707h-102l-266 707h102l216 -587h4l216 587h96z" />
    <glyph glyph-name="W" unicode="W" horiz-adv-x="977" 
d="M216 -7l-190 707h102l143 -552h5l170 552h94l170 -552h5l142 552h94l-187 -707h-98l-174 565h-4l-174 -565h-98z" />
    <glyph glyph-name="X" unicode="X" horiz-adv-x="689" 
d="M401 365l244 -365h-106l-195 291l-194 -291h-106l244 365l-224 335h106l176 -263l176 263h106z" />
    <glyph glyph-name="Y" unicode="Y" horiz-adv-x="618" 
d="M355 297v-297h-92v297l-244 403h108l183 -312h5l183 312h101z" />
    <glyph glyph-name="Z" unicode="Z" horiz-adv-x="626" 
d="M569 85v-85h-506v79l386 536h-364v85h478v-79l-385 -536h391z" />
    <glyph glyph-name="bracketleft" unicode="[" horiz-adv-x="284" 
d="M255 -42v-68h-183v810h183v-68h-107v-674h107z" />
    <glyph glyph-name="backslash" unicode="\" horiz-adv-x="457" 
d="M457 -86h-75l-382 786h75z" />
    <glyph glyph-name="bracketright" unicode="]" horiz-adv-x="284" 
d="M29 632v68h183v-810h-183v68h107v674h-107z" />
    <glyph glyph-name="asciicircum" unicode="^" horiz-adv-x="600" 
d="M326 700l211 -506h-76l-159 391h-4l-159 -391h-76l211 506h52z" />
    <glyph glyph-name="underscore" unicode="_" horiz-adv-x="500" 
d="M500 -132h-500v69h500v-69z" />
    <glyph glyph-name="grave" unicode="`" horiz-adv-x="500" 
d="M156 700h106l81 -149h-81z" />
    <glyph glyph-name="a" unicode="a" horiz-adv-x="517" 
d="M452 307v-307h-83v55h-2q-19 -31 -59 -50t-87 -19q-73 0 -119 40t-46 104q0 71 53 112t143 41q76 0 113 -23v49q0 50 -26.5 77.5t-74.5 27.5q-79 0 -103 -68l-87 8q18 62 69.5 96t126.5 34q86 0 134 -46.5t48 -130.5zM144 137q0 -36 27 -59t70 -23q49 0 87.5 29t38.5 66
v44q-40 26 -106 26q-55 0 -86 -22.5t-31 -60.5z" />
    <glyph glyph-name="b" unicode="b" horiz-adv-x="577" 
d="M542 234q0 -110 -62 -179.5t-159 -69.5q-52 0 -96 22.5t-67 64.5h-3v-72h-81v700h88v-301q21 39 62 62t95 23q97 0 160 -69.5t63 -180.5zM454 234q0 75 -40.5 124t-108.5 49q-66 0 -106 -47.5t-40 -125.5q0 -76 40 -123.5t106 -47.5q68 0 108.5 49t40.5 122z" />
    <glyph glyph-name="c" unicode="c" horiz-adv-x="510" 
d="M266 484q170 0 214 -156l-85 -13q-31 92 -127 92q-67 0 -104 -48t-37 -125q0 -76 37 -124t104 -48q94 0 127 92l82 -21q-23 -72 -76 -110t-130 -38q-105 0 -168.5 70.5t-63.5 179.5q0 110 64 179.5t163 69.5z" />
    <glyph glyph-name="d" unicode="d" horiz-adv-x="581" 
d="M39 234q0 110 63 180t160 70q53 0 94.5 -21.5t63.5 -58.5v296h87v-700h-80v78h-3q-23 -46 -66 -69.5t-97 -23.5q-97 0 -159.5 69.5t-62.5 179.5zM127 234q0 -75 41.5 -123t107.5 -48q67 0 106.5 47t39.5 124q0 78 -39 125.5t-107 47.5t-108.5 -49t-40.5 -124z" />
    <glyph glyph-name="e" unicode="e" horiz-adv-x="532" 
d="M403 133l74 -22q-59 -126 -198 -126q-107 0 -173.5 70.5t-66.5 178.5q0 106 64 178t164 72q95 0 160 -65t68 -180v-26h-368q6 -69 47 -112t105 -43q87 0 124 75zM269 416q-59 0 -96 -37.5t-45 -104.5h276q-4 75 -45 108q-40 34 -90 34z" />
    <glyph glyph-name="f" unicode="f" horiz-adv-x="329" 
d="M107 394h-90v75h90v80q0 77 41 121.5t118 44.5q39 0 63 -8v-74q-26 6 -46 6q-88 0 -88 -98v-72h134v-75h-134v-394h-88v394z" />
    <glyph glyph-name="g" unicode="g" horiz-adv-x="566" 
d="M43 250q0 105 61.5 169.5t153.5 64.5q99 0 147 -71h3v56h84v-436q0 -112 -56.5 -172.5t-160.5 -60.5q-81 0 -139 35.5t-73 93.5l88 19q8 -34 43 -55.5t82 -21.5q61 0 95.5 37.5t34.5 105.5v81q-18 -36 -58 -57t-93 -21q-90 0 -151 65t-61 168zM131 250q0 -71 39.5 -114
t99.5 -43q62 0 101 43.5t39 113.5q0 71 -39 114.5t-101 43.5q-60 0 -99.5 -43.5t-39.5 -114.5z" />
    <glyph glyph-name="h" unicode="h" horiz-adv-x="541" 
d="M74 0v700h87v-298q19 36 59.5 59t88.5 23q77 0 121.5 -49t44.5 -135v-300h-87v281q0 61 -26.5 93.5t-74.5 32.5q-54 0 -90 -38.5t-36 -98.5v-270h-87z" />
    <glyph glyph-name="i" unicode="i" horiz-adv-x="235" 
d="M161 700v-108h-87v108h87zM161 469v-469h-87v469h87z" />
    <glyph glyph-name="j" unicode="j" horiz-adv-x="235" 
d="M161 700v-108h-87v108h87zM2 -195q-7 0 -22.5 2t-21.5 2v77q21 -3 27 -3q89 0 89 106v480h87v-488q0 -86 -41 -131t-118 -45z" />
    <glyph glyph-name="k" unicode="k" horiz-adv-x="493" 
d="M161 228v-228h-87v700h87v-431l200 200h105l-218 -213l242 -256h-114z" />
    <glyph glyph-name="l" unicode="l" horiz-adv-x="235" 
d="M74 0v700h87v-700h-87z" />
    <glyph glyph-name="m" unicode="m" horiz-adv-x="829" 
d="M763 304v-304h-87v283q0 58 -25.5 91t-71.5 33q-48 0 -83 -38q-34 -37 -34 -93v-276h-87v283q0 58 -25.5 91t-72.5 33q-48 0 -82 -38t-34 -93v-276h-87v469h81v-64h4q19 34 58 56.5t86 22.5q53 0 91.5 -26t51.5 -68q23 45 63.5 69.5t91.5 24.5q75 0 118.5 -48.5
t43.5 -131.5z" />
    <glyph glyph-name="n" unicode="n" horiz-adv-x="541" 
d="M475 300v-300h-87v281q0 61 -26.5 93.5t-74.5 32.5q-54 0 -90 -38.5t-36 -98.5v-270h-87v469h81v-69h4q21 39 60.5 61.5t89.5 22.5q77 0 121.5 -49t44.5 -135z" />
    <glyph glyph-name="o" unicode="o" horiz-adv-x="556" 
d="M39 235q0 112 68 180.5t171 68.5t171 -69t68 -180t-68 -180.5t-171 -69.5t-171 69t-68 181zM127 235q0 -76 41.5 -124.5t109.5 -48.5t109.5 48.5t41.5 124.5q0 73 -41 123q-40 49 -110 49t-110 -49q-41 -50 -41 -123z" />
    <glyph glyph-name="p" unicode="p" horiz-adv-x="581" 
d="M542 235q0 -110 -63 -180t-160 -70q-52 0 -94 21.5t-63 58.5v-265h-88v669h81v-78h2q23 46 66 69.5t97 23.5q98 0 160 -69t62 -180zM454 235q0 75 -41.5 123t-107.5 48t-106 -47.5t-40 -123.5q0 -77 40 -125t106 -48q67 0 108 49.5t41 123.5z" />
    <glyph glyph-name="q" unicode="q" horiz-adv-x="581" 
d="M39 235q0 110 62 179.5t159 69.5q54 0 98 -22t65 -65h3v72h81v-669h-88v270q-45 -85 -157 -85q-97 0 -160 70t-63 180zM127 235q0 -74 41 -123.5t108 -49.5t106.5 48t39.5 125t-39.5 124t-106.5 47t-108 -49t-41 -122z" />
    <glyph glyph-name="r" unicode="r" horiz-adv-x="338" 
d="M74 0v469h81v-77h4q18 41 53 64.5t78 23.5q22 0 38 -7v-84q-15 6 -38 6q-58 0 -93.5 -42.5t-35.5 -121.5v-231h-87z" />
    <glyph glyph-name="s" unicode="s" horiz-adv-x="447" 
d="M231 -15q-73 0 -124 34t-66 92l81 16q9 -35 39 -55.5t72 -20.5q43 0 66 22t23 57q0 32 -27 48.5t-66 24.5t-78 19t-66 41t-27 82q0 63 46.5 101t121.5 38q69 0 118.5 -34t59.5 -87l-81 -16q-4 31 -31 50.5t-64 19.5q-40 0 -61.5 -19t-21.5 -47q0 -32 27 -49t66 -24.5
t78 -18.5t66 -41.5t27 -82.5q0 -68 -49 -109t-129 -41z" />
    <glyph glyph-name="t" unicode="t" horiz-adv-x="350" 
d="M258 -10q-154 0 -154 164v240h-91v75h91v134l87 17v-151h143v-75h-143v-225q0 -57 19.5 -81t63.5 -24q33 0 53 11l11 -70q-30 -15 -80 -15z" />
    <glyph glyph-name="u" unicode="u" horiz-adv-x="541" 
d="M467 469v-469h-81v69h-4q-21 -39 -60.5 -61.5t-90.5 -22.5q-76 0 -120.5 49.5t-44.5 134.5v300h87v-281q0 -61 26.5 -93.5t74.5 -32.5q53 0 89 38q37 38 37 99v270h87z" />
    <glyph glyph-name="v" unicode="v" horiz-adv-x="499" 
d="M480 469l-191 -475h-79l-191 475h95l138 -364h3l138 364h87z" />
    <glyph glyph-name="w" unicode="w" horiz-adv-x="748" 
d="M725 469l-152 -475h-81l-117 363l-118 -363h-83l-151 475h92l106 -352h2l115 352h81l114 -352h3l105 352h84z" />
    <glyph glyph-name="x" unicode="x" horiz-adv-x="470" 
d="M289 243l169 -243h-101l-124 183l-124 -183h-96l167 240l-157 229h98l117 -171l116 171h96z" />
    <glyph glyph-name="y" unicode="y" horiz-adv-x="500" 
d="M481 469l-268 -664h-87l86 210l-195 454h95l147 -351l135 351h87z" />
    <glyph glyph-name="z" unicode="z" horiz-adv-x="457" 
d="M68 469h348v-68l-266 -328h279v-73h-382v68l265 328h-244v73z" />
    <glyph glyph-name="braceleft" unicode="{" horiz-adv-x="319" 
d="M290 -44v-66q-34 2 -55.5 5t-48.5 14t-42.5 29t-26.5 52t-11 82v122q0 41 -15 54t-75 16v62q60 3 75 16t15 54v122q0 47 11 81.5t26.5 53t42 29.5t49 14t55.5 4v-66q-61 -2 -84.5 -25.5t-23.5 -94.5v-114q0 -54 -17 -76.5t-63 -26.5v-4q47 -4 63.5 -26t16.5 -77v-114
q0 -71 23.5 -94t84.5 -26z" />
    <glyph glyph-name="bar" unicode="|" horiz-adv-x="236" 
d="M145 -110h-54v861h54v-861z" />
    <glyph glyph-name="braceright" unicode="}" horiz-adv-x="319" 
d="M28 634v66q33 -1 55.5 -4t49 -14t42 -29.5t26.5 -53t11 -81.5v-122q0 -41 15 -54t75 -16v-62q-60 -3 -75 -16t-15 -54v-122q0 -48 -11 -82t-26.5 -52t-42.5 -29t-48.5 -14t-55.5 -5v66q62 3 85 26t23 94v114q0 54 17 76.5t63 26.5v4q-47 4 -63.5 26t-16.5 77v114
q0 71 -23 94.5t-85 25.5z" />
    <glyph glyph-name="asciitilde" unicode="~" horiz-adv-x="600" 
d="M407 262q-45 0 -111.5 33t-104.5 33q-67 0 -108 -61v75q14 21 43 38t67 17q45 0 111.5 -33t104.5 -33q67 0 108 61v-76q-14 -20 -43 -37t-67 -17z" />
    <glyph glyph-name="exclamdown" unicode="&#xa1;" horiz-adv-x="311" 
d="M108 464h97v-113h-97v113zM103 -236l16 490h73l16 -490h-105z" />
    <glyph glyph-name="cent" unicode="&#xa2;" horiz-adv-x="539" 
d="M316 -13v-88h-73v89q-92 15 -147 85.5t-55 173.5t56 175t146 84v90h73v-89q143 -15 187 -155l-85 -19q-34 98 -137 98q-71 0 -111.5 -52t-40.5 -132q0 -81 40.5 -133t111.5 -52q100 0 135 99l87 -18q-22 -67 -70 -107.5t-117 -48.5z" />
    <glyph glyph-name="sterling" unicode="&#xa3;" 
d="M518 82v-82h-454v69q43 23 67.5 60t24.5 104q0 34 -9 86h-93v62h82q-15 77 -15 125q0 100 57.5 154.5t149.5 54.5q75 0 124 -35.5t69 -92.5l-84 -27q-10 31 -37 52.5t-71 21.5q-49 0 -82.5 -30t-33.5 -93q0 -47 17 -130h189v-62h-178q6 -50 6 -76q0 -61 -18 -96t-50 -61
v-4h339z" />
    <glyph glyph-name="currency" unicode="&#xa4;" horiz-adv-x="600" 
d="M300 162q-51 0 -91 27l-97 -96l-49 49l97 96q-27 39 -27 91q0 53 27 90l-96 98l49 49l96 -98q38 28 91 28q49 0 90 -28l97 98l49 -49l-97 -98q27 -40 27 -90q0 -48 -27 -91l98 -96l-49 -49l-97 97q-40 -28 -91 -28zM300 221q45 0 76.5 31.5t31.5 76.5t-31.5 76.5
t-76.5 31.5t-77 -31.5t-32 -76.5t32 -76.5t77 -31.5z" />
    <glyph glyph-name="yen" unicode="&#xa5;" 
d="M336 243v-243h-90v243h-205v62h205v9l-49 81h-156v62h119l-148 243h107l173 -295h5l173 295h100l-148 -243h119v-62h-156l-49 -81v-9h205v-62h-205z" />
    <glyph glyph-name="brokenbar" unicode="&#xa6;" horiz-adv-x="236" 
d="M145 401h-54v350h54v-350zM145 -110h-54v350h54v-350z" />
    <glyph glyph-name="section" unicode="&#xa7;" horiz-adv-x="574" 
d="M299 -174q-90 0 -149 44.5t-74 115.5l86 17q7 -44 43.5 -73.5t94.5 -29.5q53 0 84.5 25t31.5 67q0 38 -26.5 63t-65.5 35.5t-85.5 25t-85.5 29.5t-65.5 50.5t-26.5 87.5q0 96 89 133q-71 43 -71 124q0 77 56.5 126t150.5 49q87 0 145.5 -43t77.5 -114l-85 -19
q-7 44 -43 73.5t-94 29.5q-54 0 -85.5 -25.5t-31.5 -67.5q0 -45 36.5 -71t88.5 -38.5t104.5 -28t89 -53t36.5 -99.5q0 -49 -24.5 -83t-65.5 -51q72 -42 72 -124q0 -77 -57 -126t-151 -49zM437 246q0 29 -12.5 49.5t-37.5 33.5t-48.5 20.5t-61.5 17t-60 17.5q-68 -22 -68 -89
q0 -29 12.5 -49.5t37 -33t48.5 -20t61 -17t60 -18.5q69 22 69 89z" />
    <glyph glyph-name="dieresis" unicode="&#xa8;" horiz-adv-x="500" 
d="M190 678v-106h-81v106h81zM391 678v-106h-81v106h81z" />
    <glyph glyph-name="copyright" unicode="&#xa9;" horiz-adv-x="786" 
d="M739 350q0 -160 -100.5 -262.5t-246.5 -102.5t-246.5 102.5t-100.5 262.5t100.5 262.5t246.5 102.5t246.5 -102.5t100.5 -262.5zM678 350q0 134 -82.5 221t-203.5 87t-203.5 -87t-82.5 -221t82.5 -220.5t203.5 -86.5t203.5 86.5t82.5 220.5zM398 145q-86 0 -140.5 56.5
t-54.5 148.5t54.5 148.5t139.5 56.5q60 0 104 -29.5t62 -82.5l-67 -19q-10 30 -37.5 49.5t-62.5 19.5q-53 0 -89 -39.5t-36 -103.5t36 -103.5t91 -39.5q35 0 61 18.5t37 49.5l64 -25q-21 -49 -63 -77t-99 -28z" />
    <glyph glyph-name="ordfeminine" unicode="&#xaa;" horiz-adv-x="399" 
d="M348 576v-226h-72v38h-2q-34 -49 -108 -49q-53 0 -87 30.5t-34 78.5q0 54 39.5 85t108.5 31q51 0 79 -15v32q0 32 -18 49.5t-51 17.5q-54 0 -69 -42l-73 11q14 44 52.5 69t92.5 25q66 0 104 -36t38 -99zM120 453q0 -25 18.5 -39.5t50.5 -14.5q33 0 58.5 20.5t25.5 46.5
v29q-23 16 -72 16q-38 0 -59.5 -15t-21.5 -43z" />
    <glyph glyph-name="guillemotleft" unicode="&#xab;" horiz-adv-x="456" 
d="M138 278l99 -202h-83l-99 202l99 202h83zM306 278l99 -202h-83l-99 202l99 202h83z" />
    <glyph glyph-name="logicalnot" unicode="&#xac;" horiz-adv-x="600" 
d="M529 364v-274h-69v205h-410v69h479z" />
    <glyph glyph-name="registered" unicode="&#xae;" horiz-adv-x="786" 
d="M739 350q0 -160 -100.5 -262.5t-246.5 -102.5t-246.5 102.5t-100.5 262.5t100.5 262.5t246.5 102.5t246.5 -102.5t100.5 -262.5zM678 350q0 134 -82.5 221t-203.5 87t-203.5 -87t-82.5 -221t82.5 -220.5t203.5 -86.5t203.5 86.5t82.5 220.5zM328 318v-165h-67v394h137
q57 0 94.5 -30t37.5 -87q0 -82 -81 -106l102 -171h-80l-94 165h-49zM392 485h-64v-112h67q65 0 65 56q0 24 -16 40t-52 16z" />
    <glyph glyph-name="overscore" unicode="&#xaf;" horiz-adv-x="500" 
d="M412 657v-62h-324v62h324z" />
    <glyph glyph-name="degree" unicode="&#xb0;" horiz-adv-x="349" 
d="M174 429q-60 0 -102 42t-42 104t42 103.5t102 41.5q61 0 103 -41.5t42 -103.5q0 -63 -42 -104.5t-103 -41.5zM174 483q38 0 63.5 26.5t25.5 65.5q0 38 -25.5 64t-63.5 26q-37 0 -62.5 -26t-25.5 -64q0 -39 25.5 -65.5t62.5 -26.5z" />
    <glyph glyph-name="plusminus" unicode="&#xb1;" horiz-adv-x="600" 
d="M266 415h-163v69h163v141h69v-141h162v-69h-162v-142h-69v142zM497 101h-394v69h394v-69z" />
    <glyph glyph-name="twosuperior" unicode="&#xb2;" horiz-adv-x="358" 
d="M324 462v-62h-280v55l141 135q39 40 53.5 64t14.5 49q0 28 -19.5 46t-50.5 18q-33 0 -55 -22t-24 -59l-65 7q5 62 46 99t102 37q62 0 99.5 -33t37.5 -87q0 -39 -19.5 -73t-70.5 -83l-92 -91h182z" />
    <glyph glyph-name="threesuperior" unicode="&#xb3;" horiz-adv-x="358" 
d="M180 391q-62 0 -105.5 35t-46.5 87l66 7q4 -31 27.5 -50t57.5 -19q36 0 58 22.5t22 59.5q0 35 -20.5 55t-57.5 20q-30 0 -52 -19v58l110 111h-195v62h277v-56l-84 -87l-22 -19v-3h8q47 0 77 -33.5t30 -86.5q0 -64 -42 -104t-108 -40z" />
    <glyph glyph-name="acute" unicode="&#xb4;" horiz-adv-x="500" 
d="M354 700l-117 -149h-81l93 149h105z" />
    <glyph glyph-name="mu" unicode="&#xb5;" horiz-adv-x="542" 
d="M160 -175h-87v398h1v246h87v-281q0 -61 26.5 -93.5t74.5 -32.5q53 0 89 38q37 38 37 99v270h87v-469h-81v69h-4q-21 -39 -60.5 -61.5t-90.5 -22.5q-45 0 -79 18v-178z" />
    <glyph glyph-name="paragraph" unicode="&#xb6;" horiz-adv-x="578" 
d="M327 700v-810h-61v438h-15q-82 0 -138.5 53t-56.5 132q0 89 60 138t146 49h65zM476 700v-810h-61v810h61z" />
    <glyph glyph-name="middot" unicode="&#xb7;" horiz-adv-x="259" 
d="M177 221h-95v122h95v-122z" />
    <glyph glyph-name="cedilla" unicode="&#xb8;" horiz-adv-x="500" 
d="M308 0l-44 -200l-77 10l44 190h77z" />
    <glyph glyph-name="onesuperior" unicode="&#xb9;" horiz-adv-x="313" 
d="M46 693l-9 66l122 61h60v-420h-68v349z" />
    <glyph glyph-name="ordmasculine" unicode="&#xba;" horiz-adv-x="418" 
d="M29 525q0 84 51.5 135t128.5 51q78 0 129 -51t51 -135q0 -83 -51.5 -134.5t-128.5 -51.5t-128.5 51.5t-51.5 134.5zM104 525q0 -53 29.5 -86.5t75.5 -33.5q47 0 75.5 33t28.5 87t-28.5 87t-75.5 33q-46 0 -75.5 -33.5t-29.5 -86.5z" />
    <glyph glyph-name="guillemotright" unicode="&#xbb;" horiz-adv-x="456" 
d="M233 278l-99 -202h-83l99 202l-99 202h83zM401 278l-99 -202h-83l99 202l-99 202h83z" />
    <glyph glyph-name="onequarter" unicode="&#xbc;" horiz-adv-x="774" 
d="M607 700h71l-463 -700h-70zM46 573l-9 66l122 61h60v-420h-68v349zM703 94v-93h-66v93h-206v56l159 271h113v-265h53v-62h-53zM633 377l-133 -221h137v221h-4z" />
    <glyph glyph-name="onehalf" unicode="&#xbd;" horiz-adv-x="847" 
d="M607 700h71l-463 -700h-70zM46 573l-9 66l122 61h60v-420h-68v349zM807 62v-62h-280v55l141 135q39 40 53.5 64t14.5 49q0 28 -19.5 46t-50.5 18q-33 0 -55 -22t-24 -59l-65 7q5 62 46 99t102 37q62 0 99.5 -33t37.5 -87q0 -39 -19.5 -73t-70.5 -83l-92 -91h182z" />
    <glyph glyph-name="threequarters" unicode="&#xbe;" horiz-adv-x="811" 
d="M644 700h71l-463 -700h-70zM180 271q-62 0 -105.5 35t-46.5 87l66 7q4 -31 27.5 -50t57.5 -19q36 0 58 22.5t22 59.5q0 35 -20.5 55t-57.5 20q-30 0 -52 -19v58l110 111h-195v62h277v-56l-84 -87l-22 -19v-3h8q47 0 77 -33.5t30 -86.5q0 -64 -42 -104t-108 -40zM740 93
v-93h-66v93h-206v56l159 271h113v-265h53v-62h-53zM670 376l-133 -221h137v221h-4z" />
    <glyph glyph-name="questiondown" unicode="&#xbf;" horiz-adv-x="510" 
d="M228 464h97v-113h-97v113zM231 246v8h89v-17q0 -44 -17.5 -79t-42.5 -58t-50 -45.5t-42.5 -51.5t-17.5 -64q0 -41 30 -74q32 -33 86 -33q64 0 98.5 44.5t36.5 108.5l87 -7q-6 -98 -64 -163.5t-158 -65.5q-94 0 -151.5 55t-57.5 132q0 49 18 87.5t43.5 63t51 46.5
t43.5 50.5t18 62.5z" />
    <glyph glyph-name="Agrave" unicode="&#xc0;" horiz-adv-x="678" 
d="M304 846l73 -106h-81l-98 106h106zM390 707l266 -707h-99l-73 201h-292l-73 -201h-97l266 707h102zM341 602h-4l-115 -318h235z" />
    <glyph glyph-name="Aacute" unicode="&#xc1;" horiz-adv-x="678" 
d="M475 846l-98 -106h-81l73 106h106zM390 707l266 -707h-99l-73 201h-292l-73 -201h-97l266 707h102zM341 602h-4l-115 -318h235z" />
    <glyph glyph-name="Acircumflex" unicode="&#xc2;" horiz-adv-x="678" 
d="M402 846l96 -106h-84l-78 74l-77 -74h-83l95 106h131zM390 707l266 -707h-99l-73 201h-292l-73 -201h-97l266 707h102zM341 602h-4l-115 -318h235z" />
    <glyph glyph-name="Atilde" unicode="&#xc3;" horiz-adv-x="678" 
d="M402 744q-28 0 -70 21.5t-58 21.5q-32 0 -40 -42h-53q15 97 91 97q29 0 70.5 -21t57.5 -21q32 0 40 42h53q-15 -98 -91 -98zM390 707l266 -707h-99l-73 201h-292l-73 -201h-97l266 707h102zM341 602h-4l-115 -318h235z" />
    <glyph glyph-name="Adieresis" unicode="&#xc4;" horiz-adv-x="678" 
d="M277 842v-99h-81v99h81zM478 842v-99h-81v99h81zM390 707l266 -707h-99l-73 201h-292l-73 -201h-97l266 707h102zM341 602h-4l-115 -318h235z" />
    <glyph glyph-name="Aring" unicode="&#xc5;" horiz-adv-x="678" 
d="M339 739q-46 0 -77.5 29t-31.5 73t31.5 72.5t77.5 28.5q47 0 78 -28.5t31 -72.5q0 -45 -31 -73.5t-78 -28.5zM339 785q26 0 41.5 16t15.5 40t-15.5 39.5t-41.5 15.5t-41.5 -15.5t-15.5 -39.5t15.5 -40t41.5 -16zM390 707l266 -707h-99l-73 201h-292l-73 -201h-97l266 707
h102zM341 602h-4l-115 -318h235z" />
    <glyph glyph-name="AE" unicode="&#xc6;" horiz-adv-x="953" 
d="M889 84v-84h-457v200h-229l-103 -200h-100l362 700h527v-85h-366v-219h277v-84h-277v-228h366zM432 615h-15l-171 -331h186v331z" />
    <glyph glyph-name="Ccedilla" unicode="&#xc7;" horiz-adv-x="732" 
d="M54 349q0 165 96 265.5t244 100.5q107 0 185 -56.5t109 -155.5l-94 -16q-19 61 -72.5 101.5t-127.5 40.5q-108 0 -177 -78.5t-69 -200.5q0 -121 69 -200t176 -79q71 0 125 39t77 108l89 -23q-27 -91 -96.5 -146.5t-164.5 -62.5l-41 -186l-77 10l41 178q-130 18 -211 115
t-81 246z" />
    <glyph glyph-name="Egrave" unicode="&#xc8;" horiz-adv-x="615" 
d="M290 846l73 -106h-81l-98 106h106zM94 700h457v-84h-366v-220h277v-84h-277v-228h366v-84h-457v700z" />
    <glyph glyph-name="Eacute" unicode="&#xc9;" horiz-adv-x="615" 
d="M460 846l-98 -106h-81l73 106h106zM94 700h457v-84h-366v-220h277v-84h-277v-228h366v-84h-457v700z" />
    <glyph glyph-name="Ecircumflex" unicode="&#xca;" horiz-adv-x="615" 
d="M387 846l96 -106h-84l-78 74l-77 -74h-83l95 106h131zM94 700h457v-84h-366v-220h277v-84h-277v-228h366v-84h-457v700z" />
    <glyph glyph-name="Edieresis" unicode="&#xcb;" horiz-adv-x="615" 
d="M262 842v-99h-81v99h81zM463 842v-99h-81v99h81zM94 700h457v-84h-366v-220h277v-84h-277v-228h366v-84h-457v700z" />
    <glyph glyph-name="Igrave" unicode="&#xcc;" horiz-adv-x="279" 
d="M107 846l73 -106h-81l-98 106h106zM94 700h91v-700h-91v700z" />
    <glyph glyph-name="Iacute" unicode="&#xcd;" horiz-adv-x="279" 
d="M277 846l-98 -106h-81l73 106h106zM94 700h91v-700h-91v700z" />
    <glyph glyph-name="Icircumflex" unicode="&#xce;" horiz-adv-x="279" 
d="M204 846l96 -106h-84l-78 74l-77 -74h-83l95 106h131zM94 700h91v-700h-91v700z" />
    <glyph glyph-name="Idieresis" unicode="&#xcf;" horiz-adv-x="279" 
d="M79 842v-99h-81v99h81zM280 842v-99h-81v99h81zM94 700h91v-700h-91v700z" />
    <glyph glyph-name="Eth" unicode="&#xd0;" horiz-adv-x="721" 
d="M666 350q0 -90 -29.5 -158.5t-82 -109.5t-119.5 -61.5t-146 -20.5h-195v315h-94v78h94v307h208q165 0 264.5 -95t99.5 -255zM359 393v-78h-174v-231h121q119 0 192 72t73 194t-73 193.5t-193 71.5h-120v-222h174z" />
    <glyph glyph-name="Ntilde" unicode="&#xd1;" horiz-adv-x="781" 
d="M454 744q-28 0 -70 21.5t-58 21.5q-32 0 -40 -42h-53q15 97 91 97q29 0 70.5 -21t57.5 -21q32 0 40 42h53q-15 -98 -91 -98zM687 700v-707h-101l-401 571v-564h-91v707h101l400 -571v564h92z" />
    <glyph glyph-name="Ograve" unicode="&#xd2;" horiz-adv-x="804" 
d="M369 846l73 -106h-81l-98 106h106zM749 350q0 -160 -99.5 -262.5t-247.5 -102.5t-248 102.5t-100 262.5t100 262.5t248 102.5t247.5 -102.5t99.5 -262.5zM655 350q0 123 -73 201t-180 78t-180.5 -78t-73.5 -201q0 -122 74 -200.5t180 -78.5q107 0 180 78.5t73 200.5z" />
    <glyph glyph-name="Oacute" unicode="&#xd3;" horiz-adv-x="804" 
d="M539 846l-98 -106h-81l73 106h106zM749 350q0 -160 -99.5 -262.5t-247.5 -102.5t-248 102.5t-100 262.5t100 262.5t248 102.5t247.5 -102.5t99.5 -262.5zM655 350q0 123 -73 201t-180 78t-180.5 -78t-73.5 -201q0 -122 74 -200.5t180 -78.5q107 0 180 78.5t73 200.5z" />
    <glyph glyph-name="Ocircumflex" unicode="&#xd4;" horiz-adv-x="804" 
d="M466 846l96 -106h-84l-78 74l-77 -74h-83l95 106h131zM749 350q0 -160 -99.5 -262.5t-247.5 -102.5t-248 102.5t-100 262.5t100 262.5t248 102.5t247.5 -102.5t99.5 -262.5zM655 350q0 123 -73 201t-180 78t-180.5 -78t-73.5 -201q0 -122 74 -200.5t180 -78.5
q107 0 180 78.5t73 200.5z" />
    <glyph glyph-name="Otilde" unicode="&#xd5;" horiz-adv-x="804" 
d="M466 744q-28 0 -70 21.5t-58 21.5q-32 0 -40 -42h-53q15 97 91 97q29 0 70.5 -21t57.5 -21q32 0 40 42h53q-15 -98 -91 -98zM749 350q0 -160 -99.5 -262.5t-247.5 -102.5t-248 102.5t-100 262.5t100 262.5t248 102.5t247.5 -102.5t99.5 -262.5zM655 350q0 123 -73 201
t-180 78t-180.5 -78t-73.5 -201q0 -122 74 -200.5t180 -78.5q107 0 180 78.5t73 200.5z" />
    <glyph glyph-name="Odieresis" unicode="&#xd6;" horiz-adv-x="804" 
d="M341 842v-99h-81v99h81zM542 842v-99h-81v99h81zM749 350q0 -160 -99.5 -262.5t-247.5 -102.5t-248 102.5t-100 262.5t100 262.5t248 102.5t247.5 -102.5t99.5 -262.5zM655 350q0 123 -73 201t-180 78t-180.5 -78t-73.5 -201q0 -122 74 -200.5t180 -78.5q107 0 180 78.5
t73 200.5z" />
    <glyph glyph-name="multiply" unicode="&#xd7;" horiz-adv-x="600" 
d="M252 329l-165 165l49 48l164 -164l165 164l49 -49l-165 -164l164 -164l-48 -49l-164 164l-165 -164l-49 49z" />
    <glyph glyph-name="Oslash" unicode="&#xd8;" horiz-adv-x="804" 
d="M204 45l-47 -60h-102l90 112q-91 102 -91 253q0 160 100 262.5t248 102.5q112 0 197 -60l48 60h102l-90 -113q90 -101 90 -252q0 -160 -99.5 -262.5t-247.5 -102.5q-112 0 -198 60zM148 350q0 -106 58 -183l339 417q-65 45 -143 45q-107 0 -180.5 -78t-73.5 -201z
M655 350q0 108 -57 182l-340 -415q62 -46 144 -46q107 0 180 78.5t73 200.5z" />
    <glyph glyph-name="Ugrave" unicode="&#xd9;" horiz-adv-x="725" 
d="M330 846l73 -106h-81l-98 106h106zM362 -15q-130 0 -204.5 77t-74.5 224v414h91v-403q0 -112 50.5 -169t137.5 -57q89 0 138.5 57t49.5 168v404h91v-413q0 -149 -74 -225.5t-205 -76.5z" />
    <glyph glyph-name="Uacute" unicode="&#xda;" horiz-adv-x="725" 
d="M500 846l-98 -106h-81l73 106h106zM362 -15q-130 0 -204.5 77t-74.5 224v414h91v-403q0 -112 50.5 -169t137.5 -57q89 0 138.5 57t49.5 168v404h91v-413q0 -149 -74 -225.5t-205 -76.5z" />
    <glyph glyph-name="Ucircumflex" unicode="&#xdb;" horiz-adv-x="725" 
d="M427 846l96 -106h-84l-78 74l-77 -74h-83l95 106h131zM362 -15q-130 0 -204.5 77t-74.5 224v414h91v-403q0 -112 50.5 -169t137.5 -57q89 0 138.5 57t49.5 168v404h91v-413q0 -149 -74 -225.5t-205 -76.5z" />
    <glyph glyph-name="Udieresis" unicode="&#xdc;" horiz-adv-x="725" 
d="M302 842v-99h-81v99h81zM503 842v-99h-81v99h81zM362 -15q-130 0 -204.5 77t-74.5 224v414h91v-403q0 -112 50.5 -169t137.5 -57q89 0 138.5 57t49.5 168v404h91v-413q0 -149 -74 -225.5t-205 -76.5z" />
    <glyph glyph-name="Yacute" unicode="&#xdd;" horiz-adv-x="618" 
d="M451 846l-98 -106h-81l73 106h106zM355 297v-297h-92v297l-244 403h108l183 -312h5l183 312h101z" />
    <glyph glyph-name="Thorn" unicode="&#xde;" horiz-adv-x="606" 
d="M94 700h91v-135h154q101 0 167.5 -59.5t66.5 -155.5q0 -91 -63.5 -152.5t-163.5 -61.5h-161v-136h-91v700zM323 480h-138v-260h147q71 0 109 38.5t38 91.5q0 54 -39.5 92t-116.5 38z" />
    <glyph glyph-name="germandbls" unicode="&#xdf;" horiz-adv-x="542" 
d="M279 -10q-30 0 -58 5v78q25 -5 49 -5q67 0 108.5 39t41.5 101t-41 98.5t-112 36.5h-24v74h4q62 0 95.5 28.5t33.5 79.5q0 50 -29.5 81t-77.5 31q-52 0 -81.5 -35t-29.5 -96v-506h-88v498q0 101 52 159t143 58q85 0 140.5 -50.5t55.5 -129.5q0 -52 -25.5 -89.5
t-69.5 -51.5v-3q65 -12 103.5 -62.5t38.5 -122.5q0 -95 -63.5 -155.5t-165.5 -60.5z" />
    <glyph glyph-name="agrave" unicode="&#xe0;" horiz-adv-x="515" 
d="M112 699h106l81 -149h-81zM452 307v-307h-83v55h-2q-19 -31 -59 -50t-87 -19q-73 0 -119 40t-46 104q0 71 53 112t143 41q76 0 113 -23v49q0 50 -26.5 77.5t-74.5 27.5q-79 0 -103 -68l-87 8q18 62 69.5 96t126.5 34q86 0 134 -46.5t48 -130.5zM144 137q0 -36 27 -59
t70 -23q49 0 87.5 29t38.5 66v44q-40 26 -106 26q-55 0 -86 -22.5t-31 -60.5z" />
    <glyph glyph-name="aacute" unicode="&#xe1;" horiz-adv-x="515" 
d="M414 699l-117 -149h-81l93 149h105zM452 307v-307h-83v55h-2q-19 -31 -59 -50t-87 -19q-73 0 -119 40t-46 104q0 71 53 112t143 41q76 0 113 -23v49q0 50 -26.5 77.5t-74.5 27.5q-79 0 -103 -68l-87 8q18 62 69.5 96t126.5 34q86 0 134 -46.5t48 -130.5zM144 137
q0 -36 27 -59t70 -23q49 0 87.5 29t38.5 66v44q-40 26 -106 26q-55 0 -86 -22.5t-31 -60.5z" />
    <glyph glyph-name="acircumflex" unicode="&#xe2;" horiz-adv-x="515" 
d="M311 699l110 -149h-84l-80 105l-80 -105h-83l109 149h108zM452 307v-307h-83v55h-2q-19 -31 -59 -50t-87 -19q-73 0 -119 40t-46 104q0 71 53 112t143 41q76 0 113 -23v49q0 50 -26.5 77.5t-74.5 27.5q-79 0 -103 -68l-87 8q18 62 69.5 96t126.5 34q86 0 134 -46.5
t48 -130.5zM144 137q0 -36 27 -59t70 -23q49 0 87.5 29t38.5 66v44q-40 26 -106 26q-55 0 -86 -22.5t-31 -60.5z" />
    <glyph glyph-name="atilde" unicode="&#xe3;" horiz-adv-x="515" 
d="M324 564q-30 0 -68 27.5t-57 27.5q-36 0 -42 -54h-62q9 120 93 120q31 0 68.5 -27.5t56.5 -27.5q36 0 42 54h62q-11 -120 -93 -120zM452 307v-307h-83v55h-2q-19 -31 -59 -50t-87 -19q-73 0 -119 40t-46 104q0 71 53 112t143 41q76 0 113 -23v49q0 50 -26.5 77.5
t-74.5 27.5q-79 0 -103 -68l-87 8q18 62 69.5 96t126.5 34q86 0 134 -46.5t48 -130.5zM144 137q0 -36 27 -59t70 -23q49 0 87.5 29t38.5 66v44q-40 26 -106 26q-55 0 -86 -22.5t-31 -60.5z" />
    <glyph glyph-name="adieresis" unicode="&#xe4;" horiz-adv-x="515" 
d="M197 677v-106h-81v106h81zM398 677v-106h-81v106h81zM452 307v-307h-83v55h-2q-19 -31 -59 -50t-87 -19q-73 0 -119 40t-46 104q0 71 53 112t143 41q76 0 113 -23v49q0 50 -26.5 77.5t-74.5 27.5q-79 0 -103 -68l-87 8q18 62 69.5 96t126.5 34q86 0 134 -46.5t48 -130.5z
M144 137q0 -36 27 -59t70 -23q49 0 87.5 29t38.5 66v44q-40 26 -106 26q-55 0 -86 -22.5t-31 -60.5z" />
    <glyph glyph-name="aring" unicode="&#xe5;" horiz-adv-x="515" 
d="M271 534q-46 0 -77.5 28.5t-31.5 72.5t31.5 72.5t77.5 28.5q47 0 78 -28.5t31 -72.5t-31 -72.5t-78 -28.5zM271 580q26 0 41.5 15.5t15.5 39.5t-15.5 40t-41.5 16t-41.5 -16t-15.5 -40t15.5 -39.5t41.5 -15.5zM452 307v-307h-83v55h-2q-19 -31 -59 -50t-87 -19
q-73 0 -119 40t-46 104q0 71 53 112t143 41q76 0 113 -23v49q0 50 -26.5 77.5t-74.5 27.5q-79 0 -103 -68l-87 8q18 62 69.5 96t126.5 34q86 0 134 -46.5t48 -130.5zM144 137q0 -36 27 -59t70 -23q49 0 87.5 29t38.5 66v44q-40 26 -106 26q-55 0 -86 -22.5t-31 -60.5z" />
    <glyph glyph-name="ae" unicode="&#xe6;" horiz-adv-x="858" 
d="M232 -14q-77 0 -127 41q-49 40 -49 105q0 69 53.5 110t142.5 41q76 0 113 -23v49q0 50 -26.5 77.5t-74.5 27.5q-79 0 -103 -68l-87 8q18 62 69.5 96t124.5 34q123 0 154 -97q21 44 67 70.5t103 26.5q95 0 161.5 -65.5t66.5 -180.5v-25h-367q5 -69 46 -112t107 -43
q85 0 124 76l73 -19q-56 -129 -199 -129q-63 0 -114 28.5t-81 78.5q-22 -49 -69 -78t-108 -29zM594 415q-59 0 -95.5 -37.5t-44.5 -103.5h276q-4 73 -46 107q-40 34 -90 34zM242 55q52 0 88.5 32t36.5 73v34q-40 26 -106 26q-55 0 -86 -22.5t-31 -60.5q0 -36 27 -59t71 -23z
" />
    <glyph glyph-name="ccedilla" unicode="&#xe7;" horiz-adv-x="510" 
d="M308 -13l-41 -187l-77 10l41 178q-88 13 -140 81t-52 166q0 110 64 179.5t163 69.5q170 0 214 -156l-85 -13q-31 92 -127 92q-67 0 -104 -48t-37 -125q0 -76 37 -124t104 -48q94 0 127 92l82 -21q-41 -128 -169 -146z" />
    <glyph glyph-name="egrave" unicode="&#xe8;" horiz-adv-x="532" 
d="M121 699h106l81 -149h-81zM403 133l74 -22q-59 -126 -198 -126q-107 0 -173.5 70.5t-66.5 178.5q0 106 64 178t164 72q95 0 160 -65t68 -180v-26h-368q6 -69 47 -112t105 -43q87 0 124 75zM269 416q-59 0 -96 -37.5t-45 -104.5h276q-4 75 -45 108q-40 34 -90 34z" />
    <glyph glyph-name="eacute" unicode="&#xe9;" horiz-adv-x="532" 
d="M423 699l-117 -149h-81l93 149h105zM403 133l74 -22q-59 -126 -198 -126q-107 0 -173.5 70.5t-66.5 178.5q0 106 64 178t164 72q95 0 160 -65t68 -180v-26h-368q6 -69 47 -112t105 -43q87 0 124 75zM269 416q-59 0 -96 -37.5t-45 -104.5h276q-4 75 -45 108q-40 34 -90 34
z" />
    <glyph glyph-name="ecircumflex" unicode="&#xea;" horiz-adv-x="532" 
d="M320 699l110 -149h-84l-80 105l-80 -105h-83l109 149h108zM403 133l74 -22q-59 -126 -198 -126q-107 0 -173.5 70.5t-66.5 178.5q0 106 64 178t164 72q95 0 160 -65t68 -180v-26h-368q6 -69 47 -112t105 -43q87 0 124 75zM269 416q-59 0 -96 -37.5t-45 -104.5h276
q-4 75 -45 108q-40 34 -90 34z" />
    <glyph glyph-name="edieresis" unicode="&#xeb;" horiz-adv-x="532" 
d="M206 677v-106h-81v106h81zM407 677v-106h-81v106h81zM403 133l74 -22q-59 -126 -198 -126q-107 0 -173.5 70.5t-66.5 178.5q0 106 64 178t164 72q95 0 160 -65t68 -180v-26h-368q6 -69 47 -112t105 -43q87 0 124 75zM269 416q-59 0 -96 -37.5t-45 -104.5h276
q-4 75 -45 108q-40 34 -90 34z" />
    <glyph glyph-name="igrave" unicode="&#xec;" horiz-adv-x="235" 
d="M-32 699h106l81 -149h-81zM161 469v-469h-87v469h87z" />
    <glyph glyph-name="iacute" unicode="&#xed;" horiz-adv-x="235" 
d="M276 699l-117 -149h-81l93 149h105zM161 469v-469h-87v469h87z" />
    <glyph glyph-name="icircumflex" unicode="&#xee;" horiz-adv-x="235" 
d="M169 699l110 -149h-84l-80 105l-80 -105h-83l109 149h108zM161 469v-469h-87v469h87z" />
    <glyph glyph-name="idieresis" unicode="&#xef;" horiz-adv-x="235" 
d="M55 677v-106h-81v106h81zM256 677v-106h-81v106h81zM161 469v-469h-87v469h87z" />
    <glyph glyph-name="eth" unicode="&#xf0;" horiz-adv-x="541" 
d="M274 -15q-103 0 -169 71t-66 178q0 106 64 177t162 71q73 0 112 -44q-25 57 -72 112l-153 -35v72l97 22q-52 49 -110 85l100 19q60 -40 101 -83l114 26v-72l-61 -14q118 -149 118 -315q0 -120 -65 -195t-172 -75zM277 63q68 0 108.5 48.5t40.5 122.5t-40.5 122.5
t-108.5 48.5t-109.5 -48.5t-41.5 -122.5q0 -73 42 -122t109 -49z" />
    <glyph glyph-name="ntilde" unicode="&#xf1;" horiz-adv-x="541" 
d="M339 564q-30 0 -68 27.5t-57 27.5q-36 0 -42 -54h-62q9 120 93 120q31 0 68.5 -27.5t56.5 -27.5q36 0 42 54h62q-10 -120 -93 -120zM475 300v-300h-87v281q0 61 -26.5 93.5t-74.5 32.5q-54 0 -90 -38.5t-36 -98.5v-270h-87v469h81v-69h4q21 39 60.5 61.5t89.5 22.5
q77 0 121.5 -49t44.5 -135z" />
    <glyph glyph-name="ograve" unicode="&#xf2;" horiz-adv-x="556" 
d="M128 699h106l81 -149h-81zM39 235q0 112 68 180.5t171 68.5t171 -69t68 -180t-68 -180.5t-171 -69.5t-171 69t-68 181zM127 235q0 -76 41.5 -124.5t109.5 -48.5t109.5 48.5t41.5 124.5q0 73 -41 123q-40 49 -110 49t-110 -49q-41 -50 -41 -123z" />
    <glyph glyph-name="oacute" unicode="&#xf3;" horiz-adv-x="556" 
d="M432 699l-117 -149h-81l93 149h105zM39 235q0 112 68 180.5t171 68.5t171 -69t68 -180t-68 -180.5t-171 -69.5t-171 69t-68 181zM127 235q0 -76 41.5 -124.5t109.5 -48.5t109.5 48.5t41.5 124.5q0 73 -41 123q-40 49 -110 49t-110 -49q-41 -50 -41 -123z" />
    <glyph glyph-name="ocircumflex" unicode="&#xf4;" horiz-adv-x="556" 
d="M329 699l110 -149h-84l-80 105l-80 -105h-83l109 149h108zM39 235q0 112 68 180.5t171 68.5t171 -69t68 -180t-68 -180.5t-171 -69.5t-171 69t-68 181zM127 235q0 -76 41.5 -124.5t109.5 -48.5t109.5 48.5t41.5 124.5q0 73 -41 123q-40 49 -110 49t-110 -49
q-41 -50 -41 -123z" />
    <glyph glyph-name="otilde" unicode="&#xf5;" horiz-adv-x="556" 
d="M342 564q-30 0 -68 27.5t-57 27.5q-36 0 -42 -54h-62q9 120 93 120q31 0 68.5 -27.5t56.5 -27.5q36 0 42 54h62q-11 -120 -93 -120zM39 235q0 112 68 180.5t171 68.5t171 -69t68 -180t-68 -180.5t-171 -69.5t-171 69t-68 181zM127 235q0 -76 41.5 -124.5t109.5 -48.5
t109.5 48.5t41.5 124.5q0 73 -41 123q-40 49 -110 49t-110 -49q-41 -50 -41 -123z" />
    <glyph glyph-name="odieresis" unicode="&#xf6;" horiz-adv-x="556" 
d="M214 677v-106h-81v106h81zM415 677v-106h-81v106h81zM39 235q0 112 68 180.5t171 68.5t171 -69t68 -180t-68 -180.5t-171 -69.5t-171 69t-68 181zM127 235q0 -76 41.5 -124.5t109.5 -48.5t109.5 48.5t41.5 124.5q0 73 -41 123q-40 49 -110 49t-110 -49q-41 -50 -41 -123z
" />
    <glyph glyph-name="divide" unicode="&#xf7;" horiz-adv-x="600" 
d="M336 576v-83h-71v83h71zM497 364v-69h-394v69h394zM336 166v-83h-71v83h71z" />
    <glyph glyph-name="oslash" unicode="&#xf8;" horiz-adv-x="556" 
d="M152 18l-24 -32h-89l60 77q-60 70 -60 172q0 112 68 180.5t171 68.5q71 0 125 -33l24 32h90l-60 -76q60 -66 60 -172q0 -111 -68 -180.5t-171 -69.5q-68 0 -126 33zM127 235q0 -63 28 -106l202 256q-34 22 -79 22q-70 0 -110 -49q-41 -50 -41 -123zM429 235q0 63 -29 107
l-203 -257q35 -23 81 -23q68 0 109.5 48.5t41.5 124.5z" />
    <glyph glyph-name="ugrave" unicode="&#xf9;" horiz-adv-x="541" 
d="M114 699h106l81 -149h-81zM467 469v-469h-81v69h-4q-21 -39 -60.5 -61.5t-90.5 -22.5q-76 0 -120.5 49.5t-44.5 134.5v300h87v-281q0 -61 26.5 -93.5t74.5 -32.5q53 0 89 38q37 38 37 99v270h87z" />
    <glyph glyph-name="uacute" unicode="&#xfa;" horiz-adv-x="541" 
d="M419 699l-117 -149h-81l93 149h105zM467 469v-469h-81v69h-4q-21 -39 -60.5 -61.5t-90.5 -22.5q-76 0 -120.5 49.5t-44.5 134.5v300h87v-281q0 -61 26.5 -93.5t74.5 -32.5q53 0 89 38q37 38 37 99v270h87z" />
    <glyph glyph-name="ucircumflex" unicode="&#xfb;" horiz-adv-x="541" 
d="M315 699l110 -149h-84l-80 105l-80 -105h-83l109 149h108zM467 469v-469h-81v69h-4q-21 -39 -60.5 -61.5t-90.5 -22.5q-76 0 -120.5 49.5t-44.5 134.5v300h87v-281q0 -61 26.5 -93.5t74.5 -32.5q53 0 89 38q37 38 37 99v270h87z" />
    <glyph glyph-name="udieresis" unicode="&#xfc;" horiz-adv-x="541" 
d="M201 677v-106h-81v106h81zM402 677v-106h-81v106h81zM467 469v-469h-81v69h-4q-21 -39 -60.5 -61.5t-90.5 -22.5q-76 0 -120.5 49.5t-44.5 134.5v300h87v-281q0 -61 26.5 -93.5t74.5 -32.5q53 0 89 38q37 38 37 99v270h87z" />
    <glyph glyph-name="yacute" unicode="&#xfd;" horiz-adv-x="500" 
d="M408 699l-117 -149h-81l93 149h105zM481 469l-268 -664h-87l86 210l-195 454h95l147 -351l135 351h87z" />
    <glyph glyph-name="thorn" unicode="&#xfe;" horiz-adv-x="581" 
d="M542 235q0 -110 -63 -180t-160 -70q-53 0 -94.5 22t-63.5 58v-265h-87v900h88v-303q48 87 158 87q98 0 160 -69t62 -180zM454 235q0 75 -41.5 123t-107.5 48t-106.5 -47.5t-40.5 -123.5t40.5 -124.5t106.5 -48.5q67 0 108 49.5t41 123.5z" />
    <glyph glyph-name="ydieresis" unicode="&#xff;" horiz-adv-x="500" 
d="M190 677v-106h-81v106h81zM391 677v-106h-81v106h81zM481 469l-268 -664h-87l86 210l-195 454h95l147 -351l135 351h87z" />
    <glyph glyph-name="Amacron" unicode="&#x100;" horiz-adv-x="678" 
d="M499 824v-62h-324v62h324zM390 707l266 -707h-99l-73 201h-292l-73 -201h-97l266 707h102zM341 602h-4l-115 -318h235z" />
    <glyph glyph-name="amacron" unicode="&#x101;" horiz-adv-x="515" 
d="M418 656v-62h-324v62h324zM452 307v-307h-83v55h-2q-19 -31 -59 -50t-87 -19q-73 0 -119 40t-46 104q0 71 53 112t143 41q76 0 113 -23v49q0 50 -26.5 77.5t-74.5 27.5q-79 0 -103 -68l-87 8q18 62 69.5 96t126.5 34q86 0 134 -46.5t48 -130.5zM144 137q0 -36 27 -59
t70 -23q49 0 87.5 29t38.5 66v44q-40 26 -106 26q-55 0 -86 -22.5t-31 -60.5z" />
    <glyph glyph-name="Abreve" unicode="&#x102;" horiz-adv-x="678" 
d="M337 733q-52 0 -95 26.5t-57 86.5h69q8 -28 32 -43.5t51 -15.5q28 0 51 15t32 44h69q-14 -60 -57 -86.5t-95 -26.5zM390 707l266 -707h-99l-73 201h-292l-73 -201h-97l266 707h102zM341 602h-4l-115 -318h235z" />
    <glyph glyph-name="abreve" unicode="&#x103;" horiz-adv-x="515" 
d="M257 554q-61 0 -101.5 36.5t-50.5 104.5h69q6 -39 28.5 -60.5t54.5 -21.5t54.5 21.5t28.5 60.5h69q-10 -68 -50.5 -104.5t-101.5 -36.5zM452 307v-307h-83v55h-2q-19 -31 -59 -50t-87 -19q-73 0 -119 40t-46 104q0 71 53 112t143 41q76 0 113 -23v49q0 50 -26.5 77.5
t-74.5 27.5q-79 0 -103 -68l-87 8q18 62 69.5 96t126.5 34q86 0 134 -46.5t48 -130.5zM144 137q0 -36 27 -59t70 -23q49 0 87.5 29t38.5 66v44q-40 26 -106 26q-55 0 -86 -22.5t-31 -60.5z" />
    <glyph glyph-name="Aogonek" unicode="&#x104;" horiz-adv-x="678" 
d="M603 -200q-56 0 -88.5 22.5t-32.5 64.5q0 67 75 114l-73 200h-292l-73 -201h-97l266 707h102l266 -707h-9q-90 -41 -90 -98q0 -22 16.5 -34.5t42.5 -12.5q16 0 31 3v-54q-17 -4 -44 -4zM341 602h-4l-115 -318h235z" />
    <glyph glyph-name="aogonek" unicode="&#x105;" horiz-adv-x="515" 
d="M393 -200q-56 0 -88.5 22.5t-32.5 64.5q0 75 97 127v41h-2q-19 -31 -59 -50t-87 -19q-73 0 -119 40t-46 104q0 71 53 112t143 41q76 0 113 -23v49q0 50 -26.5 77.5t-74.5 27.5q-79 0 -103 -68l-87 8q18 62 69.5 96t126.5 34q86 0 134 -46.5t48 -130.5v-307h-15
q-90 -41 -90 -98q0 -22 16.5 -34.5t42.5 -12.5q16 0 31 3v-54q-17 -4 -44 -4zM144 137q0 -36 27 -59t70 -23q49 0 87.5 29t38.5 66v44q-40 26 -106 26q-55 0 -86 -22.5t-31 -60.5z" />
    <glyph glyph-name="Cacute" unicode="&#x106;" horiz-adv-x="737" 
d="M525 846l-98 -106h-81l73 106h106zM54 349q0 165 96 265.5t244 100.5q107 0 185 -56.5t109 -155.5l-94 -16q-19 61 -72.5 101.5t-127.5 40.5q-108 0 -177 -78.5t-69 -200.5q0 -121 69 -200t176 -79q71 0 125 39t77 108l89 -23q-29 -97 -105.5 -153.5t-181.5 -56.5
q-149 0 -246 100.5t-97 263.5z" />
    <glyph glyph-name="cacute" unicode="&#x107;" horiz-adv-x="510" 
d="M423 700l-117 -149h-81l93 149h105zM266 484q170 0 214 -156l-85 -13q-31 92 -127 92q-67 0 -104 -48t-37 -125q0 -76 37 -124t104 -48q94 0 127 92l82 -21q-23 -72 -76 -110t-130 -38q-105 0 -168.5 70.5t-63.5 179.5q0 110 64 179.5t163 69.5z" />
    <glyph glyph-name="Ccircumflex" unicode="&#x108;" horiz-adv-x="732" 
d="M452 846l96 -106h-84l-78 74l-77 -74h-83l95 106h131zM54 349q0 165 96 265.5t244 100.5q107 0 185 -56.5t109 -155.5l-94 -16q-19 61 -72.5 101.5t-127.5 40.5q-108 0 -177 -78.5t-69 -200.5q0 -121 69 -200t176 -79q71 0 125 39t77 108l89 -23q-29 -97 -105.5 -153.5
t-181.5 -56.5q-149 0 -246 100.5t-97 263.5z" />
    <glyph glyph-name="ccircumflex" unicode="&#x109;" horiz-adv-x="510" 
d="M321 700l110 -149h-84l-80 105l-80 -105h-83l109 149h108zM266 484q170 0 214 -156l-85 -13q-31 92 -127 92q-67 0 -104 -48t-37 -125q0 -76 37 -124t104 -48q94 0 127 92l82 -21q-23 -72 -76 -110t-130 -38q-105 0 -168.5 70.5t-63.5 179.5q0 110 64 179.5t163 69.5z
" />
    <glyph glyph-name="Cdotaccent" unicode="&#x10a;" horiz-adv-x="732" 
d="M431 832v-78h-87v78h87zM54 349q0 165 96 265.5t244 100.5q107 0 185 -56.5t109 -155.5l-94 -16q-19 61 -72.5 101.5t-127.5 40.5q-108 0 -177 -78.5t-69 -200.5q0 -121 69 -200t176 -79q71 0 125 39t77 108l89 -23q-29 -97 -105.5 -153.5t-181.5 -56.5
q-149 0 -246 100.5t-97 263.5z" />
    <glyph glyph-name="cdotaccent" unicode="&#x10b;" horiz-adv-x="510" 
d="M311 671v-91h-87v91h87zM266 484q170 0 214 -156l-85 -13q-31 92 -127 92q-67 0 -104 -48t-37 -125q0 -76 37 -124t104 -48q94 0 127 92l82 -21q-23 -72 -76 -110t-130 -38q-105 0 -168.5 70.5t-63.5 179.5q0 110 64 179.5t163 69.5z" />
    <glyph glyph-name="Ccaron" unicode="&#x10c;" horiz-adv-x="732" 
d="M388 772l77 74h84l-96 -106h-131l-95 106h83zM54 349q0 165 96 265.5t244 100.5q107 0 185 -56.5t109 -155.5l-94 -16q-19 61 -72.5 101.5t-127.5 40.5q-108 0 -177 -78.5t-69 -200.5q0 -121 69 -200t176 -79q71 0 125 39t77 108l89 -23q-29 -97 -105.5 -153.5
t-181.5 -56.5q-149 0 -246 100.5t-97 263.5z" />
    <glyph glyph-name="ccaron" unicode="&#x10d;" horiz-adv-x="510" 
d="M267 594l80 106h84l-110 -149h-108l-109 149h83zM266 484q170 0 214 -156l-85 -13q-31 92 -127 92q-67 0 -104 -48t-37 -125q0 -76 37 -124t104 -48q94 0 127 92l82 -21q-23 -72 -76 -110t-130 -38q-105 0 -168.5 70.5t-63.5 179.5q0 110 64 179.5t163 69.5z" />
    <glyph glyph-name="Dcaron" unicode="&#x10e;" horiz-adv-x="708" 
d="M322 772l77 74h84l-96 -106h-131l-95 106h83zM666 350q0 -90 -29.5 -158.5t-82 -109.5t-119.5 -61.5t-146 -20.5h-195v700h208q165 0 264.5 -95t99.5 -255zM571 350q0 122 -73 193.5t-193 71.5h-120v-531h121q119 0 192 72t73 194z" />
    <glyph glyph-name="dcaron" unicode="&#x10f;" horiz-adv-x="675" 
d="M698 700l-65 -207h-66l46 207h85zM39 234q0 110 63 180t160 70q53 0 94.5 -21.5t63.5 -58.5v296h87v-700h-80v78h-3q-23 -46 -66 -69.5t-97 -23.5q-97 0 -159.5 69.5t-62.5 179.5zM127 234q0 -75 41.5 -123t107.5 -48q67 0 106.5 47t39.5 124q0 78 -39 125.5t-107 47.5
t-108.5 -49t-40.5 -124z" />
    <glyph glyph-name="Dcroat" unicode="&#x110;" horiz-adv-x="721" 
d="M666 350q0 -90 -29.5 -158.5t-82 -109.5t-119.5 -61.5t-146 -20.5h-195v315h-94v78h94v307h208q165 0 264.5 -95t99.5 -255zM359 393v-78h-174v-231h121q119 0 192 72t73 194t-73 193.5t-193 71.5h-120v-222h174z" />
    <glyph glyph-name="dslash" unicode="&#x111;" horiz-adv-x="581" 
d="M39 234q0 110 63 180t160 70q53 0 94.5 -21.5t63.5 -58.5v141h-150v71h150v84h87v-84h58v-71h-58v-545h-80v78h-3q-23 -46 -66 -69.5t-97 -23.5q-97 0 -159.5 69.5t-62.5 179.5zM127 234q0 -75 41.5 -123t107.5 -48q67 0 106.5 47t39.5 124q0 78 -39 125.5t-107 47.5
t-108.5 -49t-40.5 -124z" />
    <glyph glyph-name="Emacron" unicode="&#x112;" horiz-adv-x="615" 
d="M484 824v-62h-324v62h324zM94 700h457v-84h-366v-220h277v-84h-277v-228h366v-84h-457v700z" />
    <glyph glyph-name="emacron" unicode="&#x113;" horiz-adv-x="532" 
d="M427 656v-62h-324v62h324zM403 133l74 -22q-59 -126 -198 -126q-107 0 -173.5 70.5t-66.5 178.5q0 106 64 178t164 72q95 0 160 -65t68 -180v-26h-368q6 -69 47 -112t105 -43q87 0 124 75zM269 416q-59 0 -96 -37.5t-45 -104.5h276q-4 75 -45 108q-40 34 -90 34z" />
    <glyph glyph-name="Ebreve" unicode="&#x114;" horiz-adv-x="615" 
d="M322 733q-52 0 -95 26.5t-57 86.5h69q8 -28 32 -43.5t51 -15.5q28 0 51 15t32 44h69q-14 -60 -57 -86.5t-95 -26.5zM94 700h457v-84h-366v-220h277v-84h-277v-228h366v-84h-457v700z" />
    <glyph glyph-name="ebreve" unicode="&#x115;" horiz-adv-x="532" 
d="M266 554q-61 0 -101.5 36.5t-50.5 104.5h69q6 -39 28.5 -60.5t54.5 -21.5t54.5 21.5t28.5 60.5h69q-10 -68 -50.5 -104.5t-101.5 -36.5zM403 133l74 -22q-59 -126 -198 -126q-107 0 -173.5 70.5t-66.5 178.5q0 106 64 178t164 72q95 0 160 -65t68 -180v-26h-368
q6 -69 47 -112t105 -43q87 0 124 75zM269 416q-59 0 -96 -37.5t-45 -104.5h276q-4 75 -45 108q-40 34 -90 34z" />
    <glyph glyph-name="Edotaccent" unicode="&#x116;" horiz-adv-x="615" 
d="M366 832v-78h-87v78h87zM94 700h457v-84h-366v-220h277v-84h-277v-228h366v-84h-457v700z" />
    <glyph glyph-name="edotaccent" unicode="&#x117;" horiz-adv-x="532" 
d="M310 670v-91h-87v91h87zM403 133l74 -22q-59 -126 -198 -126q-107 0 -173.5 70.5t-66.5 178.5q0 106 64 178t164 72q95 0 160 -65t68 -180v-26h-368q6 -69 47 -112t105 -43q87 0 124 75zM269 416q-59 0 -96 -37.5t-45 -104.5h276q-4 75 -45 108q-40 34 -90 34z" />
    <glyph glyph-name="Eogonek" unicode="&#x118;" horiz-adv-x="584" 
d="M466 -200q-56 0 -88.5 22.5t-32.5 64.5q0 65 73 113h-324v700h457v-84h-366v-220h277v-84h-277v-228h366v-84h-41q-90 -41 -90 -98q0 -22 16.5 -34.5t42.5 -12.5q16 0 31 3v-54q-17 -4 -44 -4z" />
    <glyph glyph-name="eogonek" unicode="&#x119;" horiz-adv-x="532" 
d="M373 -200q-123 0 -123 88q0 48 55 102v3q-13 -6 -36 -6q-100 0 -165 71t-65 177q0 108 64 178.5t164 70.5q95 0 160 -65t68 -180v-26h-368q6 -69 47 -112t104 -43q43 0 76 21t49 55l75 -19q-14 -35 -42 -65.5t-51.5 -48.5t-42 -43.5t-18.5 -53.5q0 -22 16 -35.5t46 -13.5
q10 0 31 3v-54q-17 -4 -44 -4zM269 415q-59 0 -96 -37t-45 -104h276q-4 71 -42 106t-93 35z" />
    <glyph glyph-name="Ecaron" unicode="&#x11a;" horiz-adv-x="615" 
d="M323 772l77 74h84l-96 -106h-131l-95 106h83zM94 700h457v-84h-366v-220h277v-84h-277v-228h366v-84h-457v700z" />
    <glyph glyph-name="ecaron" unicode="&#x11b;" horiz-adv-x="532" 
d="M266 593l80 106h84l-110 -149h-108l-109 149h83zM403 133l74 -22q-59 -126 -198 -126q-107 0 -173.5 70.5t-66.5 178.5q0 106 64 178t164 72q95 0 160 -65t68 -180v-26h-368q6 -69 47 -112t105 -43q87 0 124 75zM269 416q-59 0 -96 -37.5t-45 -104.5h276q-4 75 -45 108
q-40 34 -90 34z" />
    <glyph glyph-name="Gcircumflex" unicode="&#x11c;" horiz-adv-x="761" 
d="M447 846l96 -106h-84l-78 74l-77 -74h-83l95 106h131zM687 521l-88 -32q-21 60 -74 100t-129 40q-109 0 -178.5 -78.5t-69.5 -200.5t69 -200.5t180 -78.5q98 0 153 58t63 149h-212v84h311v-33q-5 -156 -89.5 -250t-225.5 -94q-150 0 -246.5 101.5t-96.5 263.5
q0 161 96.5 263t243.5 102q104 0 181 -51t112 -143z" />
    <glyph glyph-name="gcircumflex" unicode="&#x11d;" horiz-adv-x="566" 
d="M326 699l110 -149h-84l-80 105l-80 -105h-83l109 149h108zM43 250q0 105 61.5 169.5t153.5 64.5q99 0 147 -71h3v56h84v-436q0 -112 -56.5 -172.5t-160.5 -60.5q-81 0 -139 35.5t-73 93.5l88 19q8 -34 43 -55.5t82 -21.5q61 0 95.5 37.5t34.5 105.5v81q-18 -36 -58 -57
t-93 -21q-90 0 -151 65t-61 168zM131 250q0 -71 39.5 -114t99.5 -43q62 0 101 43.5t39 113.5q0 71 -39 114.5t-101 43.5q-60 0 -99.5 -43.5t-39.5 -114.5z" />
    <glyph glyph-name="Gbreve" unicode="&#x11e;" horiz-adv-x="761" 
d="M382 733q-52 0 -95 26.5t-57 86.5h69q8 -28 32 -43.5t51 -15.5q28 0 51 15t32 44h69q-14 -60 -57 -86.5t-95 -26.5zM687 521l-88 -32q-21 60 -74 100t-129 40q-109 0 -178.5 -78.5t-69.5 -200.5t69 -200.5t180 -78.5q98 0 153 58t63 149h-212v84h311v-33
q-5 -156 -89.5 -250t-225.5 -94q-150 0 -246.5 101.5t-96.5 263.5q0 161 96.5 263t243.5 102q104 0 181 -51t112 -143z" />
    <glyph glyph-name="gbreve" unicode="&#x11f;" horiz-adv-x="566" 
d="M272 554q-61 0 -101.5 36.5t-50.5 104.5h69q6 -39 28.5 -60.5t54.5 -21.5t54.5 21.5t28.5 60.5h69q-10 -68 -50.5 -104.5t-101.5 -36.5zM43 250q0 105 61.5 169.5t153.5 64.5q99 0 147 -71h3v56h84v-436q0 -112 -56.5 -172.5t-160.5 -60.5q-81 0 -139 35.5t-73 93.5
l88 19q8 -34 43 -55.5t82 -21.5q61 0 95.5 37.5t34.5 105.5v81q-18 -36 -58 -57t-93 -21q-90 0 -151 65t-61 168zM131 250q0 -71 39.5 -114t99.5 -43q62 0 101 43.5t39 113.5q0 71 -39 114.5t-101 43.5q-60 0 -99.5 -43.5t-39.5 -114.5z" />
    <glyph glyph-name="Gdotaccent" unicode="&#x120;" horiz-adv-x="761" 
d="M426 832v-78h-87v78h87zM687 521l-88 -32q-21 60 -74 100t-129 40q-109 0 -178.5 -78.5t-69.5 -200.5t69 -200.5t180 -78.5q98 0 153 58t63 149h-212v84h311v-33q-5 -156 -89.5 -250t-225.5 -94q-150 0 -246.5 101.5t-96.5 263.5q0 161 96.5 263t243.5 102q104 0 181 -51
t112 -143z" />
    <glyph glyph-name="gdotaccent" unicode="&#x121;" horiz-adv-x="566" 
d="M316 670v-91h-87v91h87zM43 250q0 105 61.5 169.5t153.5 64.5q99 0 147 -71h3v56h84v-436q0 -112 -56.5 -172.5t-160.5 -60.5q-81 0 -139 35.5t-73 93.5l88 19q8 -34 43 -55.5t82 -21.5q61 0 95.5 37.5t34.5 105.5v81q-18 -36 -58 -57t-93 -21q-90 0 -151 65t-61 168z
M131 250q0 -71 39.5 -114t99.5 -43q62 0 101 43.5t39 113.5q0 71 -39 114.5t-101 43.5q-60 0 -99.5 -43.5t-39.5 -114.5z" />
    <glyph glyph-name="Gcommaaccent" unicode="&#x122;" horiz-adv-x="761" 
d="M687 521l-88 -32q-21 60 -74 100t-129 40q-109 0 -178.5 -78.5t-69.5 -200.5t69 -200.5t180 -78.5q98 0 153 58t63 149h-212v84h311v-33q-5 -156 -89.5 -250t-225.5 -94q-150 0 -246.5 101.5t-96.5 263.5q0 161 96.5 263t243.5 102q104 0 181 -51t112 -143zM430 -62
l-57 -138h-72l45 138h84z" />
    <glyph glyph-name="gcommaaccent" unicode="&#x123;" horiz-adv-x="566" 
d="M230 561l58 138h71l-45 -138h-84zM43 250q0 105 61.5 169.5t153.5 64.5q99 0 147 -71h3v56h84v-436q0 -112 -56.5 -172.5t-160.5 -60.5q-81 0 -139 35.5t-73 93.5l88 19q8 -34 43 -55.5t82 -21.5q61 0 95.5 37.5t34.5 105.5v81q-18 -36 -58 -57t-93 -21q-90 0 -151 65
t-61 168zM131 250q0 -71 39.5 -114t99.5 -43q62 0 101 43.5t39 113.5q0 71 -39 114.5t-101 43.5q-60 0 -99.5 -43.5t-39.5 -114.5z" />
    <glyph glyph-name="Hcircumflex" unicode="&#x124;" horiz-adv-x="731" 
d="M437 846l96 -106h-84l-78 74l-77 -74h-83l95 106h131zM559 700h91v-700h-91v306h-374v-306h-91v700h91v-310h374v310z" />
    <glyph glyph-name="hcircumflex" unicode="&#x125;" horiz-adv-x="541" 
d="M180 846l96 -106h-84l-78 74l-77 -74h-83l95 106h131zM75 0v700h87v-298q19 36 59.5 59t88.5 23q77 0 121.5 -49t44.5 -135v-300h-87v281q0 61 -26.5 93.5t-74.5 32.5q-54 0 -90 -38.5t-36 -98.5v-270h-87z" />
    <glyph glyph-name="Hbar" unicode="&#x126;" horiz-adv-x="731" 
d="M714 580v-78h-64v-502h-91v306h-374v-306h-91v502h-64v78h64v120h91v-120h374v120h91v-120h64zM185 502v-112h374v112h-374z" />
    <glyph glyph-name="hbar" unicode="&#x127;" horiz-adv-x="541" 
d="M75 545h-62v71h62v84h87v-84h145v-71h-145v-143q19 36 59.5 59t88.5 23q77 0 121.5 -49t44.5 -135v-300h-87v281q0 61 -26.5 93.5t-74.5 32.5q-54 0 -90 -38.5t-36 -98.5v-270h-87v545z" />
    <glyph glyph-name="Itilde" unicode="&#x128;" horiz-adv-x="279" 
d="M204 744q-28 0 -69.5 21.5t-58.5 21.5q-32 0 -40 -42h-53q15 97 91 97q29 0 70.5 -21t57.5 -21q32 0 40 42h53q-15 -98 -91 -98zM94 700h91v-700h-91v700z" />
    <glyph glyph-name="itilde" unicode="&#x129;" horiz-adv-x="235" 
d="M182 564q-30 0 -68 27.5t-57 27.5q-36 0 -42 -54h-62q9 120 93 120q31 0 68.5 -27.5t56.5 -27.5q36 0 42 54h62q-11 -120 -93 -120zM161 469v-469h-87v469h87z" />
    <glyph glyph-name="Imacron" unicode="&#x12a;" horiz-adv-x="279" 
d="M301 824v-62h-324v62h324zM94 700h91v-700h-91v700z" />
    <glyph glyph-name="imacron" unicode="&#x12b;" horiz-adv-x="235" 
d="M276 656v-62h-324v62h324zM161 469v-469h-87v469h87z" />
    <glyph glyph-name="Ibreve" unicode="&#x12c;" horiz-adv-x="279" 
d="M139 733q-52 0 -95 26.5t-57 86.5h69q8 -28 32 -43.5t51 -15.5q28 0 51 15t32 44h69q-14 -60 -57 -86.5t-95 -26.5zM94 700h91v-700h-91v700z" />
    <glyph glyph-name="ibreve" unicode="&#x12d;" horiz-adv-x="235" 
d="M121 554q-61 0 -101.5 36.5t-50.5 104.5h69q6 -39 28.5 -60.5t54.5 -21.5t54.5 21.5t28.5 60.5h69q-10 -68 -50.5 -104.5t-101.5 -36.5zM161 469v-469h-87v469h87z" />
    <glyph glyph-name="Iogonek" unicode="&#x12e;" horiz-adv-x="279" 
d="M139 -200q-56 0 -88.5 22.5t-32.5 64.5q0 66 76 115v698h91v-700h-2q-90 -41 -90 -98q0 -22 16.5 -34.5t42.5 -12.5q16 0 31 3v-54q-17 -4 -44 -4z" />
    <glyph glyph-name="iogonek" unicode="&#x12f;" horiz-adv-x="235" 
d="M161 700v-108h-87v108h87zM161 469v-469h-3q-90 -41 -90 -98q0 -22 16.5 -34.5t42.5 -12.5q16 0 31 3v-54q-17 -4 -44 -4q-56 0 -88.5 22.5t-32.5 64.5q0 69 81 118v464h87z" />
    <glyph glyph-name="Idot" unicode="&#x130;" horiz-adv-x="279" 
d="M183 832v-78h-87v78h87zM94 700h91v-700h-91v700z" />
    <glyph glyph-name="dotlessi" unicode="&#x131;" horiz-adv-x="235" 
d="M161 469v-469h-87v469h87z" />
    <glyph glyph-name="IJ" unicode="&#x132;" horiz-adv-x="700" 
d="M94 700h91v-700h-91v700zM401 -10q-51 0 -89 22v85q33 -23 77 -23q136 0 136 166v375h-176v85h268v-468q0 -242 -216 -242z" />
    <glyph glyph-name="ij" unicode="&#x133;" horiz-adv-x="461" 
d="M161 700v-108h-87v108h87zM387 700v-108h-87v108h87zM161 469v-469h-87v469h87zM228 -195q-7 0 -22.5 2t-21.5 2v77q21 -3 27 -3q89 0 89 106v480h87v-488q0 -86 -41 -131t-118 -45z" />
    <glyph glyph-name="Jcircumflex" unicode="&#x134;" horiz-adv-x="421" 
d="M257 937l110 -149h-84l-80 105l-80 -105h-83l109 149h108zM122 -10q-51 0 -89 22v85q33 -23 77 -23q136 0 136 166v375h-176v85h268v-468q0 -242 -216 -242z" />
    <glyph glyph-name="jcircumflex" unicode="&#x135;" horiz-adv-x="235" 
d="M169 699l110 -149h-84l-80 105l-80 -105h-83l109 149h108zM2 -195q-7 0 -22.5 2t-21.5 2v77q21 -3 27 -3q89 0 89 106v480h87v-488q0 -86 -41 -131t-118 -45z" />
    <glyph glyph-name="Kcommaaccent" unicode="&#x136;" horiz-adv-x="628" 
d="M185 334v-334h-91v700h91v-327l299 327h110l-312 -338l344 -362h-123zM354 -62l-57 -138h-72l45 138h84z" />
    <glyph glyph-name="kcommaaccent" unicode="&#x137;" horiz-adv-x="493" 
d="M161 228v-228h-87v700h87v-431l200 200h105l-218 -213l242 -256h-114zM305 -62l-57 -138h-72l45 138h84z" />
    <glyph glyph-name="Lacute" unicode="&#x139;" horiz-adv-x="528" 
d="M277 846l-98 -106h-81l73 106h106zM94 0v700h91v-616h325v-84h-416z" />
    <glyph glyph-name="lacute" unicode="&#x13a;" horiz-adv-x="235" 
d="M259 846l-98 -106h-81l73 106h106zM74 0v700h87v-700h-87z" />
    <glyph glyph-name="Lcommaaccent" unicode="&#x13b;" horiz-adv-x="528" 
d="M94 0v700h91v-616h325v-84h-416zM331 -62l-57 -138h-72l45 138h84z" />
    <glyph glyph-name="lcommaaccent" unicode="&#x13c;" horiz-adv-x="236" 
d="M75 0v700h87v-700h-87zM174 -62l-57 -138h-72l45 138h84z" />
    <glyph glyph-name="Lcaron" unicode="&#x13d;" horiz-adv-x="528" 
d="M94 0v700h91v-616h325v-84h-416zM395 700l-65 -207h-66l46 207h85z" />
    <glyph glyph-name="lcaron" unicode="&#x13e;" horiz-adv-x="333" 
d="M355 700l-65 -207h-66l46 207h85zM74 0v700h87v-700h-87z" />
    <glyph glyph-name="Ldot" unicode="&#x13f;" horiz-adv-x="528" 
d="M94 0v700h91v-616h325v-84h-416zM443 389v-91h-87v91h87z" />
    <glyph glyph-name="ldot" unicode="&#x140;" horiz-adv-x="365" 
d="M75 0v700h87v-700h-87zM343 313v-91h-87v91h87z" />
    <glyph glyph-name="Lslash" unicode="&#x141;" horiz-adv-x="528" 
d="M371 430v-80l-186 -53v-213h325v-84h-416v271l-79 -23v80l79 23v349h91v-323z" />
    <glyph glyph-name="lslash" unicode="&#x142;" horiz-adv-x="244" 
d="M76 317l-55 -40v82l55 40v301h87v-238l78 56v-82l-78 -56v-380h-87v317z" />
    <glyph glyph-name="Nacute" unicode="&#x143;" horiz-adv-x="781" 
d="M527 846l-98 -106h-81l73 106h106zM687 700v-707h-101l-401 571v-564h-91v707h101l400 -571v564h92z" />
    <glyph glyph-name="nacute" unicode="&#x144;" horiz-adv-x="541" 
d="M429 699l-117 -149h-81l93 149h105zM475 300v-300h-87v281q0 61 -26.5 93.5t-74.5 32.5q-54 0 -90 -38.5t-36 -98.5v-270h-87v469h81v-69h4q21 39 60.5 61.5t89.5 22.5q77 0 121.5 -49t44.5 -135z" />
    <glyph glyph-name="Ncommaaccent" unicode="&#x145;" horiz-adv-x="781" 
d="M687 700v-707h-101l-401 571v-564h-91v707h101l400 -571v564h92zM430 -62l-57 -138h-72l45 138h84z" />
    <glyph glyph-name="ncommaaccent" unicode="&#x146;" horiz-adv-x="541" 
d="M475 300v-300h-87v281q0 61 -26.5 93.5t-74.5 32.5q-54 0 -90 -38.5t-36 -98.5v-270h-87v469h81v-69h4q21 39 60.5 61.5t89.5 22.5q77 0 121.5 -49t44.5 -135zM313 -62l-57 -138h-72l45 138h84z" />
    <glyph glyph-name="Ncaron" unicode="&#x147;" horiz-adv-x="781" 
d="M389 772l77 74h84l-96 -106h-131l-95 106h83zM687 700v-707h-101l-401 571v-564h-91v707h101l400 -571v564h92z" />
    <glyph glyph-name="ncaron" unicode="&#x148;" horiz-adv-x="541" 
d="M272 593l80 106h84l-110 -149h-108l-109 149h83zM475 300v-300h-87v281q0 61 -26.5 93.5t-74.5 32.5q-54 0 -90 -38.5t-36 -98.5v-270h-87v469h81v-69h4q21 39 60.5 61.5t89.5 22.5q77 0 121.5 -49t44.5 -135z" />
    <glyph glyph-name="Eng" unicode="&#x14a;" horiz-adv-x="769" 
d="M460 -200q-51 0 -89 22v85q33 -23 77 -23q120 0 133 119l-396 545v-548h-91v707h88l402 -555v548h92v-658q0 -242 -216 -242z" />
    <glyph glyph-name="eng" unicode="&#x14b;" horiz-adv-x="541" 
d="M315 -195q-8 0 -24 2t-19 2v77q21 -3 27 -3q89 0 89 105v293q0 61 -26.5 93.5t-74.5 32.5q-54 0 -90 -39t-36 -98v-270h-87v469h81v-69h4q21 39 60.5 61.5t89.5 22.5q77 0 121.5 -49t44.5 -135v-319q0 -85 -41.5 -130.5t-118.5 -45.5z" />
    <glyph glyph-name="Omacron" unicode="&#x14c;" horiz-adv-x="804" 
d="M563 824v-62h-324v62h324zM749 350q0 -160 -99.5 -262.5t-247.5 -102.5t-248 102.5t-100 262.5t100 262.5t248 102.5t247.5 -102.5t99.5 -262.5zM655 350q0 123 -73 201t-180 78t-180.5 -78t-73.5 -201q0 -122 74 -200.5t180 -78.5q107 0 180 78.5t73 200.5z" />
    <glyph glyph-name="omacron" unicode="&#x14d;" horiz-adv-x="556" 
d="M436 656v-62h-324v62h324zM39 235q0 112 68 180.5t171 68.5t171 -69t68 -180t-68 -180.5t-171 -69.5t-171 69t-68 181zM127 235q0 -76 41.5 -124.5t109.5 -48.5t109.5 48.5t41.5 124.5q0 73 -41 123q-40 49 -110 49t-110 -49q-41 -50 -41 -123z" />
    <glyph glyph-name="Obreve" unicode="&#x14e;" horiz-adv-x="804" 
d="M401 733q-52 0 -95 26.5t-57 86.5h69q8 -28 32 -43.5t51 -15.5q28 0 51 15t32 44h69q-14 -60 -57 -86.5t-95 -26.5zM749 350q0 -160 -99.5 -262.5t-247.5 -102.5t-248 102.5t-100 262.5t100 262.5t248 102.5t247.5 -102.5t99.5 -262.5zM655 350q0 123 -73 201t-180 78
t-180.5 -78t-73.5 -201q0 -122 74 -200.5t180 -78.5q107 0 180 78.5t73 200.5z" />
    <glyph glyph-name="obreve" unicode="&#x14f;" horiz-adv-x="556" 
d="M275 555q-61 0 -101.5 36.5t-50.5 104.5h69q6 -39 28.5 -60.5t54.5 -21.5t54.5 21.5t28.5 60.5h69q-10 -68 -50.5 -104.5t-101.5 -36.5zM39 235q0 112 68 180.5t171 68.5t171 -69t68 -180t-68 -180.5t-171 -69.5t-171 69t-68 181zM127 235q0 -76 41.5 -124.5t109.5 -48.5
t109.5 48.5t41.5 124.5q0 73 -41 123q-40 49 -110 49t-110 -49q-41 -50 -41 -123z" />
    <glyph glyph-name="Ohungarumlaut" unicode="&#x150;" horiz-adv-x="804" 
d="M464 846l-98 -106h-81l73 106h106zM636 846l-98 -106h-81l73 106h106zM749 350q0 -160 -99.5 -262.5t-247.5 -102.5t-248 102.5t-100 262.5t100 262.5t248 102.5t247.5 -102.5t99.5 -262.5zM655 350q0 123 -73 201t-180 78t-180.5 -78t-73.5 -201q0 -122 74 -200.5
t180 -78.5q107 0 180 78.5t73 200.5z" />
    <glyph glyph-name="ohungarumlaut" unicode="&#x151;" horiz-adv-x="556" 
d="M347 699l-117 -149h-81l93 149h105zM519 699l-117 -149h-81l93 149h105zM39 235q0 112 68 180.5t171 68.5t171 -69t68 -180t-68 -180.5t-171 -69.5t-171 69t-68 181zM127 235q0 -76 41.5 -124.5t109.5 -48.5t109.5 48.5t41.5 124.5q0 73 -41 123q-40 49 -110 49t-110 -49
q-41 -50 -41 -123z" />
    <glyph glyph-name="OE" unicode="&#x152;" horiz-adv-x="1057" 
d="M992 84v-84h-573q-165 0 -265 95t-100 255q0 90 29.5 158.5t82.5 109.5t119.5 61.5t145.5 20.5h561v-85h-365v-219h277v-84h-277v-228h365zM416 85h119v531h-120q-120 0 -193 -71.5t-73 -194.5q0 -122 73.5 -193.5t193.5 -71.5z" />
    <glyph glyph-name="oe" unicode="&#x153;" horiz-adv-x="922" 
d="M39 235q0 112 68 180.5t171 68.5q128 0 194 -97q65 97 184 97q95 0 160 -65t68 -180v-26h-368v-2q7 -68 48 -110.5t104 -42.5q86 0 124 75l74 -22q-58 -126 -198 -126q-126 0 -196 98q-31 -46 -82 -72t-112 -26q-103 0 -171 69t-68 181zM658 416q-59 0 -96 -37.5
t-45 -104.5h276q-5 75 -45 108q-40 34 -90 34zM127 235q0 -76 41.5 -124.5t109.5 -48.5q64 0 105 43.5t45 112.5v16v17q-4 69 -45 112.5t-105 43.5q-70 0 -110 -49q-41 -50 -41 -123z" />
    <glyph glyph-name="Racute" unicode="&#x154;" horiz-adv-x="631" 
d="M439 839l-98 -106h-81l73 106h106zM591 0h-108l-187 304h-111v-304h-91v700h241q97 0 159.5 -53.5t62.5 -146.5q0 -70 -43 -121.5t-118 -68.5zM462 498q0 48 -34.5 82.5t-107.5 34.5h-135v-235h137q72 0 106 34.5t34 83.5z" />
    <glyph glyph-name="racute" unicode="&#x155;" horiz-adv-x="338" 
d="M366 699l-117 -149h-81l93 149h105zM74 0v469h81v-77h4q18 41 53 64.5t78 23.5q22 0 38 -7v-84q-15 6 -38 6q-58 0 -93.5 -42.5t-35.5 -121.5v-231h-87z" />
    <glyph glyph-name="Rcommaaccent" unicode="&#x156;" horiz-adv-x="631" 
d="M591 0h-108l-187 304h-111v-304h-91v700h241q97 0 159.5 -53.5t62.5 -146.5q0 -70 -43 -121.5t-118 -68.5zM462 498q0 48 -34.5 82.5t-107.5 34.5h-135v-235h137q72 0 106 34.5t34 83.5zM363 -62l-57 -138h-72l45 138h84z" />
    <glyph glyph-name="rcommaaccent" unicode="&#x157;" horiz-adv-x="338" 
d="M74 0v469h81v-77h4q18 41 53 64.5t78 23.5q22 0 38 -7v-84q-15 6 -38 6q-58 0 -93.5 -42.5t-35.5 -121.5v-231h-87zM155 -62l-57 -138h-72l45 138h84z" />
    <glyph glyph-name="Rcaron" unicode="&#x158;" horiz-adv-x="631" 
d="M301 765l77 74h84l-96 -106h-131l-95 106h83zM591 0h-108l-187 304h-111v-304h-91v700h241q97 0 159.5 -53.5t62.5 -146.5q0 -70 -43 -121.5t-118 -68.5zM462 498q0 48 -34.5 82.5t-107.5 34.5h-135v-235h137q72 0 106 34.5t34 83.5z" />
    <glyph glyph-name="rcaron" unicode="&#x159;" horiz-adv-x="338" 
d="M208 593l80 106h84l-110 -149h-108l-109 149h83zM74 0v469h81v-77h4q18 41 53 64.5t78 23.5q22 0 38 -7v-84q-15 6 -38 6q-58 0 -93.5 -42.5t-35.5 -121.5v-231h-87z" />
    <glyph glyph-name="Sacute" unicode="&#x15a;" horiz-adv-x="594" 
d="M438 846l-98 -106h-81l73 106h106zM302 -15q-94 0 -164.5 48t-83.5 135l89 19q8 -59 55 -90.5t107 -31.5q65 0 105.5 34t40.5 88q0 38 -20.5 63t-53 38t-72 23t-79.5 23t-72.5 32.5t-53 57.5t-20.5 93q0 89 63.5 143.5t161.5 54.5q97 0 160.5 -52.5t75.5 -134.5l-89 -16
q-9 55 -48 88.5t-102 33.5q-57 0 -93 -28.5t-36 -80.5q0 -38 20.5 -63t53 -37.5t72 -22.5t79.5 -23t72.5 -32.5t53 -57.5t20.5 -92q0 -96 -67.5 -154t-174.5 -58z" />
    <glyph glyph-name="sacute" unicode="&#x15b;" horiz-adv-x="447" 
d="M377 699l-117 -149h-81l93 149h105zM231 -15q-73 0 -124 34t-66 92l81 16q9 -35 39 -55.5t72 -20.5q43 0 66 22t23 57q0 32 -27 48.5t-66 24.5t-78 19t-66 41t-27 82q0 63 46.5 101t121.5 38q69 0 118.5 -34t59.5 -87l-81 -16q-4 31 -31 50.5t-64 19.5q-40 0 -61.5 -19
t-21.5 -47q0 -32 27 -49t66 -24.5t78 -18.5t66 -41.5t27 -82.5q0 -68 -49 -109t-129 -41z" />
    <glyph glyph-name="Scircumflex" unicode="&#x15c;" horiz-adv-x="594" 
d="M365 846l96 -106h-84l-78 74l-77 -74h-83l95 106h131zM302 -15q-94 0 -164.5 48t-83.5 135l89 19q8 -59 55 -90.5t107 -31.5q65 0 105.5 34t40.5 88q0 38 -20.5 63t-53 38t-72 23t-79.5 23t-72.5 32.5t-53 57.5t-20.5 93q0 89 63.5 143.5t161.5 54.5q97 0 160.5 -52.5
t75.5 -134.5l-89 -16q-9 55 -48 88.5t-102 33.5q-57 0 -93 -28.5t-36 -80.5q0 -38 20.5 -63t53 -37.5t72 -22.5t79.5 -23t72.5 -32.5t53 -57.5t20.5 -92q0 -96 -67.5 -154t-174.5 -58z" />
    <glyph glyph-name="scircumflex" unicode="&#x15d;" horiz-adv-x="447" 
d="M274 699l110 -149h-84l-80 105l-80 -105h-83l109 149h108zM231 -15q-73 0 -124 34t-66 92l81 16q9 -35 39 -55.5t72 -20.5q43 0 66 22t23 57q0 32 -27 48.5t-66 24.5t-78 19t-66 41t-27 82q0 63 46.5 101t121.5 38q69 0 118.5 -34t59.5 -87l-81 -16q-4 31 -31 50.5
t-64 19.5q-40 0 -61.5 -19t-21.5 -47q0 -32 27 -49t66 -24.5t78 -18.5t66 -41.5t27 -82.5q0 -68 -49 -109t-129 -41z" />
    <glyph glyph-name="Scedilla" unicode="&#x15e;" horiz-adv-x="594" 
d="M341 -13l-41 -187l-77 10l41 177q-82 10 -140.5 56.5t-69.5 124.5l89 19q8 -59 55 -90.5t107 -31.5q65 0 105.5 34t40.5 88q0 38 -20.5 63t-53 38t-72 23t-79.5 23t-72.5 32.5t-53 57.5t-20.5 93q0 89 63.5 143.5t161.5 54.5q97 0 160.5 -52.5t75.5 -134.5l-89 -16
q-9 55 -48 88.5t-102 33.5q-57 0 -93 -28.5t-36 -80.5q0 -38 20.5 -63t53 -37.5t72 -22.5t79.5 -23t72.5 -32.5t53 -57.5t20.5 -92q0 -89 -57 -144q-55 -55 -146 -66z" />
    <glyph glyph-name="scedilla" unicode="&#x15f;" horiz-adv-x="447" 
d="M269 -12l-41 -188l-77 10l41 178q-58 8 -98 40.5t-53 82.5l81 16q9 -35 39 -55.5t72 -20.5q43 0 66 22t23 57q0 32 -27 48.5t-66 24.5t-78 19t-66 41t-27 82q0 63 46.5 101t121.5 38q69 0 118.5 -34t59.5 -87l-81 -16q-4 31 -31 50.5t-64 19.5q-40 0 -61.5 -19t-21.5 -47
q0 -32 27 -49t66 -24.5t78 -18.5t66 -41.5t27 -82.5q0 -59 -38 -98.5t-102 -48.5z" />
    <glyph glyph-name="Scaron" unicode="&#x160;" horiz-adv-x="594" 
d="M301 772l77 74h84l-96 -106h-131l-95 106h83zM302 -15q-94 0 -164.5 48t-83.5 135l89 19q8 -59 55 -90.5t107 -31.5q65 0 105.5 34t40.5 88q0 38 -20.5 63t-53 38t-72 23t-79.5 23t-72.5 32.5t-53 57.5t-20.5 93q0 89 63.5 143.5t161.5 54.5q97 0 160.5 -52.5
t75.5 -134.5l-89 -16q-9 55 -48 88.5t-102 33.5q-57 0 -93 -28.5t-36 -80.5q0 -38 20.5 -63t53 -37.5t72 -22.5t79.5 -23t72.5 -32.5t53 -57.5t20.5 -92q0 -96 -67.5 -154t-174.5 -58z" />
    <glyph glyph-name="scaron" unicode="&#x161;" horiz-adv-x="447" 
d="M220 593l80 106h84l-110 -149h-108l-109 149h83zM231 -15q-73 0 -124 34t-66 92l81 16q9 -35 39 -55.5t72 -20.5q43 0 66 22t23 57q0 32 -27 48.5t-66 24.5t-78 19t-66 41t-27 82q0 63 46.5 101t121.5 38q69 0 118.5 -34t59.5 -87l-81 -16q-4 31 -31 50.5t-64 19.5
q-40 0 -61.5 -19t-21.5 -47q0 -32 27 -49t66 -24.5t78 -18.5t66 -41.5t27 -82.5q0 -68 -49 -109t-129 -41z" />
    <glyph glyph-name="Tcaron" unicode="&#x164;" horiz-adv-x="579" 
d="M290 772l77 74h84l-96 -106h-131l-95 106h83zM29 700h521v-85h-215v-615h-91v615h-215v85z" />
    <glyph glyph-name="tcaron" unicode="&#x165;" horiz-adv-x="350" 
d="M361 725l-65 -207h-66l46 207h85zM258 -10q-154 0 -154 164v240h-91v75h91v134l87 17v-151h143v-75h-143v-225q0 -57 19.5 -81t63.5 -24q33 0 53 11l11 -70q-30 -15 -80 -15z" />
    <glyph glyph-name="Tbar" unicode="&#x166;" horiz-adv-x="579" 
d="M506 365v-79h-171v-286h-91v286h-171v79h171v250h-215v85h521v-85h-215v-250h171z" />
    <glyph glyph-name="tbar" unicode="&#x167;" horiz-adv-x="350" 
d="M258 -10q-154 0 -154 164v49h-82v69h82v122h-91v75h91v134l87 17v-151h143v-75h-143v-122h128v-69h-128v-34q0 -57 19.5 -81t63.5 -24q33 0 53 11l11 -70q-30 -15 -80 -15z" />
    <glyph glyph-name="Utilde" unicode="&#x168;" horiz-adv-x="725" 
d="M427 744q-29 0 -70 21.5t-58 21.5q-33 0 -40 -42h-53q15 97 91 97q29 0 70.5 -21t57.5 -21q33 0 40 42h53q-15 -98 -91 -98zM362 -15q-130 0 -204.5 77t-74.5 224v414h91v-403q0 -112 50.5 -169t137.5 -57q89 0 138.5 57t49.5 168v404h91v-413q0 -149 -74 -225.5
t-205 -76.5z" />
    <glyph glyph-name="utilde" unicode="&#x169;" horiz-adv-x="541" 
d="M328 564q-30 0 -68 27.5t-57 27.5q-36 0 -42 -54h-62q9 120 93 120q31 0 68.5 -27.5t56.5 -27.5q36 0 42 54h62q-11 -120 -93 -120zM467 469v-469h-81v69h-4q-21 -39 -60.5 -61.5t-90.5 -22.5q-76 0 -120.5 49.5t-44.5 134.5v300h87v-281q0 -61 26.5 -93.5t74.5 -32.5
q53 0 89 38q37 38 37 99v270h87z" />
    <glyph glyph-name="Umacron" unicode="&#x16a;" horiz-adv-x="725" 
d="M524 824v-62h-324v62h324zM362 -15q-130 0 -204.5 77t-74.5 224v414h91v-403q0 -112 50.5 -169t137.5 -57q89 0 138.5 57t49.5 168v404h91v-413q0 -149 -74 -225.5t-205 -76.5z" />
    <glyph glyph-name="umacron" unicode="&#x16b;" horiz-adv-x="541" 
d="M422 656v-62h-324v62h324zM467 469v-469h-81v69h-4q-21 -39 -60.5 -61.5t-90.5 -22.5q-76 0 -120.5 49.5t-44.5 134.5v300h87v-281q0 -61 26.5 -93.5t74.5 -32.5q53 0 89 38q37 38 37 99v270h87z" />
    <glyph glyph-name="Ubreve" unicode="&#x16c;" horiz-adv-x="725" 
d="M362 733q-52 0 -95 26.5t-57 86.5h69q8 -28 32 -43.5t51 -15.5q28 0 51 15t32 44h69q-14 -60 -57 -86.5t-95 -26.5zM362 -15q-130 0 -204.5 77t-74.5 224v414h91v-403q0 -112 50.5 -169t137.5 -57q89 0 138.5 57t49.5 168v404h91v-413q0 -149 -74 -225.5t-205 -76.5z" />
    <glyph glyph-name="ubreve" unicode="&#x16d;" horiz-adv-x="541" 
d="M261 554q-61 0 -101.5 36.5t-50.5 104.5h69q6 -39 28.5 -60.5t54.5 -21.5t54.5 21.5t28.5 60.5h69q-10 -68 -50.5 -104.5t-101.5 -36.5zM467 469v-469h-81v69h-4q-21 -39 -60.5 -61.5t-90.5 -22.5q-76 0 -120.5 49.5t-44.5 134.5v300h87v-281q0 -61 26.5 -93.5
t74.5 -32.5q53 0 89 38q37 38 37 99v270h87z" />
    <glyph glyph-name="Uring" unicode="&#x16e;" horiz-adv-x="725" 
d="M362 739q-46 0 -77.5 29t-31.5 73t31.5 72.5t77.5 28.5q47 0 78 -28.5t31 -72.5q0 -45 -31 -73.5t-78 -28.5zM362 785q26 0 41.5 16t15.5 40t-15.5 39.5t-41.5 15.5t-41.5 -15.5t-15.5 -39.5t15.5 -40t41.5 -16zM362 -15q-130 0 -204.5 77t-74.5 224v414h91v-403
q0 -112 50.5 -169t137.5 -57q89 0 138.5 57t49.5 168v404h91v-413q0 -149 -74 -225.5t-205 -76.5z" />
    <glyph glyph-name="uring" unicode="&#x16f;" horiz-adv-x="541" 
d="M261 533q-46 0 -77.5 28.5t-31.5 72.5t31.5 72.5t77.5 28.5q47 0 78 -28.5t31 -72.5t-31 -72.5t-78 -28.5zM261 579q26 0 41.5 15.5t15.5 39.5t-15.5 40t-41.5 16t-41.5 -16t-15.5 -40t15.5 -39.5t41.5 -15.5zM467 469v-469h-81v69h-4q-21 -39 -60.5 -61.5t-90.5 -22.5
q-76 0 -120.5 49.5t-44.5 134.5v300h87v-281q0 -61 26.5 -93.5t74.5 -32.5q53 0 89 38q37 38 37 99v270h87z" />
    <glyph glyph-name="Uhungarumlaut" unicode="&#x170;" horiz-adv-x="725" 
d="M434 907l-117 -149h-81l93 149h105zM606 907l-117 -149h-81l93 149h105zM362 -15q-130 0 -204.5 77t-74.5 224v414h91v-403q0 -112 50.5 -169t137.5 -57q89 0 138.5 57t49.5 168v404h91v-413q0 -149 -74 -225.5t-205 -76.5z" />
    <glyph glyph-name="uhungarumlaut" unicode="&#x171;" horiz-adv-x="541" 
d="M333 699l-117 -149h-81l93 149h105zM505 699l-117 -149h-81l93 149h105zM467 469v-469h-81v69h-4q-21 -39 -60.5 -61.5t-90.5 -22.5q-76 0 -120.5 49.5t-44.5 134.5v300h87v-281q0 -61 26.5 -93.5t74.5 -32.5q53 0 89 38q37 38 37 99v270h87z" />
    <glyph glyph-name="Uogonek" unicode="&#x172;" horiz-adv-x="725" 
d="M433 -200q-56 0 -88.5 22t-32.5 66q0 57 52 97v4q-10 -2 -24 -2q-112 0 -184.5 77.5t-72.5 215.5v420h91v-403q0 -112 50.5 -169t137.5 -57q89 0 138.5 57t49.5 168v404h91v-413q0 -119 -47 -187q-46 -68 -120 -102q-46 -21 -66 -43.5t-20 -50.5q0 -24 16.5 -36.5
t42.5 -12.5q10 0 31 3v-54q-17 -4 -45 -4z" />
    <glyph glyph-name="uogonek" unicode="&#x173;" horiz-adv-x="541" 
d="M419 -200q-56 0 -88.5 22.5t-32.5 64.5q0 71 88 122v60h-4q-21 -39 -60.5 -61.5t-90.5 -22.5q-76 0 -120.5 49.5t-44.5 134.5v300h87v-281q0 -61 26.5 -93.5t74.5 -32.5q53 0 89 38q37 38 37 99v270h87v-469h-4q-90 -41 -90 -98q0 -22 16.5 -34.5t42.5 -12.5q16 0 31 3
v-54q-17 -4 -44 -4z" />
    <glyph glyph-name="Wcircumflex" unicode="&#x174;" horiz-adv-x="977" 
d="M556 846l96 -106h-84l-78 74l-77 -74h-83l95 106h131zM216 -7l-190 707h102l143 -552h5l170 552h94l170 -552h5l142 552h94l-187 -707h-98l-174 565h-4l-174 -565h-98z" />
    <glyph glyph-name="wcircumflex" unicode="&#x175;" horiz-adv-x="748" 
d="M428 700l110 -149h-84l-80 105l-80 -105h-83l109 149h108zM725 469l-152 -475h-81l-117 363l-118 -363h-83l-151 475h92l106 -352h2l115 352h81l114 -352h3l105 352h84z" />
    <glyph glyph-name="Ycircumflex" unicode="&#x176;" horiz-adv-x="618" 
d="M379 846l96 -106h-84l-78 74l-77 -74h-83l95 106h131zM355 297v-297h-92v297l-244 403h108l183 -312h5l183 312h101z" />
    <glyph glyph-name="ycircumflex" unicode="&#x177;" horiz-adv-x="500" 
d="M304 699l110 -149h-84l-80 105l-80 -105h-83l109 149h108zM481 469l-268 -664h-87l86 210l-195 454h95l147 -351l135 351h87z" />
    <glyph glyph-name="Ydieresis" unicode="&#x178;" horiz-adv-x="618" 
d="M253 842v-99h-81v99h81zM454 842v-99h-81v99h81zM355 297v-297h-92v297l-244 403h108l183 -312h5l183 312h101z" />
    <glyph glyph-name="Zacute" unicode="&#x179;" horiz-adv-x="626" 
d="M462 846l-98 -106h-81l73 106h106zM569 85v-85h-506v79l386 536h-364v85h478v-79l-385 -536h391z" />
    <glyph glyph-name="zacute" unicode="&#x17a;" horiz-adv-x="457" 
d="M397 699l-117 -149h-81l93 149h105zM68 469h348v-68l-266 -328h279v-73h-382v68l265 328h-244v73z" />
    <glyph glyph-name="Zdotaccent" unicode="&#x17b;" horiz-adv-x="626" 
d="M368 832v-78h-87v78h87zM569 85v-85h-506v79l386 536h-364v85h478v-79l-385 -536h391z" />
    <glyph glyph-name="zdotaccent" unicode="&#x17c;" horiz-adv-x="457" 
d="M283 670v-91h-87v91h87zM68 469h348v-68l-266 -328h279v-73h-382v68l265 328h-244v73z" />
    <glyph glyph-name="Zcaron" unicode="&#x17d;" horiz-adv-x="626" 
d="M325 772l77 74h84l-96 -106h-131l-95 106h83zM569 85v-85h-506v79l386 536h-364v85h478v-79l-385 -536h391z" />
    <glyph glyph-name="zcaron" unicode="&#x17e;" horiz-adv-x="457" 
d="M240 593l80 106h84l-110 -149h-108l-109 149h83zM68 469h348v-68l-266 -328h279v-73h-382v68l265 328h-244v73z" />
    <glyph glyph-name="florin" unicode="&#x192;" horiz-adv-x="574" 
d="M524 381v-62h-234v-420h-89v420h-152v62h152v74q0 128 67 194t174 66q40 0 73 -11v-83q-24 13 -73 13q-62 0 -107 -43.5t-45 -144.5v-65h234z" />
    <glyph glyph-name="Aringacute" unicode="&#x1fa;" horiz-adv-x="678" 
d="M477 1079l-98 -106h-81l73 106h106zM339 739q-46 0 -77.5 29t-31.5 73t31.5 72.5t77.5 28.5q47 0 78 -28.5t31 -72.5q0 -45 -31 -73.5t-78 -28.5zM339 785q26 0 41.5 16t15.5 40t-15.5 39.5t-41.5 15.5t-41.5 -15.5t-15.5 -39.5t15.5 -40t41.5 -16zM390 707l266 -707h-99
l-73 201h-292l-73 -201h-97l266 707h102zM341 602h-4l-115 -318h235z" />
    <glyph glyph-name="aringacute" unicode="&#x1fb;" horiz-adv-x="515" 
d="M408 885l-98 -106h-81l73 106h106zM271 534q-46 0 -77.5 28.5t-31.5 72.5t31.5 72.5t77.5 28.5q47 0 78 -28.5t31 -72.5t-31 -72.5t-78 -28.5zM271 580q26 0 41.5 15.5t15.5 39.5t-15.5 40t-41.5 16t-41.5 -16t-15.5 -40t15.5 -39.5t41.5 -15.5zM452 307v-307h-83v55h-2
q-19 -31 -59 -50t-87 -19q-73 0 -119 40t-46 104q0 71 53 112t143 41q76 0 113 -23v49q0 50 -26.5 77.5t-74.5 27.5q-79 0 -103 -68l-87 8q18 62 69.5 96t126.5 34q86 0 134 -46.5t48 -130.5zM144 137q0 -36 27 -59t70 -23q49 0 87.5 29t38.5 66v44q-40 26 -106 26
q-55 0 -86 -22.5t-31 -60.5z" />
    <glyph glyph-name="AEacute" unicode="&#x1fc;" horiz-adv-x="953" 
d="M616 846l-98 -106h-81l73 106h106zM889 84v-84h-457v200h-229l-103 -200h-100l362 700h527v-85h-366v-219h277v-84h-277v-228h366zM432 615h-15l-171 -331h186v331z" />
    <glyph glyph-name="aeacute" unicode="&#x1fd;" horiz-adv-x="855" 
d="M569 699l-117 -149h-81l93 149h105zM232 -14q-77 0 -127 41q-49 40 -49 105q0 69 53.5 110t142.5 41q76 0 113 -23v49q0 50 -26.5 77.5t-74.5 27.5q-79 0 -103 -68l-87 8q18 62 69.5 96t124.5 34q123 0 154 -97q21 44 67 70.5t103 26.5q95 0 161.5 -65.5t66.5 -180.5v-25
h-367q5 -69 46 -112t107 -43q85 0 124 76l73 -19q-56 -129 -199 -129q-63 0 -114 28.5t-81 78.5q-22 -49 -69 -78t-108 -29zM594 415q-59 0 -95.5 -37.5t-44.5 -103.5h276q-4 73 -46 107q-40 34 -90 34zM242 55q52 0 88.5 32t36.5 73v34q-40 26 -106 26q-55 0 -86 -22.5
t-31 -60.5q0 -36 27 -59t71 -23z" />
    <glyph glyph-name="Oslashacute" unicode="&#x1fe;" horiz-adv-x="804" 
d="M539 846l-98 -106h-81l73 106h106zM204 45l-47 -60h-102l90 112q-91 102 -91 253q0 160 100 262.5t248 102.5q112 0 197 -60l48 60h102l-90 -113q90 -101 90 -252q0 -160 -99.5 -262.5t-247.5 -102.5q-112 0 -198 60zM148 350q0 -106 58 -183l339 417q-65 45 -143 45
q-107 0 -180.5 -78t-73.5 -201zM655 350q0 108 -57 182l-340 -415q62 -46 144 -46q107 0 180 78.5t73 200.5z" />
    <glyph glyph-name="oslashacute" unicode="&#x1ff;" horiz-adv-x="556" 
d="M432 699l-117 -149h-81l93 149h105zM152 18l-24 -32h-89l60 77q-60 70 -60 172q0 112 68 180.5t171 68.5q71 0 125 -33l24 32h90l-60 -76q60 -66 60 -172q0 -111 -68 -180.5t-171 -69.5q-68 0 -126 33zM127 235q0 -63 28 -106l202 256q-34 22 -79 22q-70 0 -110 -49
q-41 -50 -41 -123zM429 235q0 63 -29 107l-202 -257q35 -23 80 -23q68 0 109.5 48.5t41.5 124.5z" />
    <glyph glyph-name="Scommaaccent" unicode="&#x218;" horiz-adv-x="594" 
d="M302 -15q-94 0 -164.5 48t-83.5 135l89 19q8 -59 55 -90.5t107 -31.5q65 0 105.5 34t40.5 88q0 38 -20.5 63t-53 38t-72 23t-79.5 23t-72.5 32.5t-53 57.5t-20.5 93q0 89 63.5 143.5t161.5 54.5q97 0 160.5 -52.5t75.5 -134.5l-89 -16q-9 55 -48 88.5t-102 33.5
q-57 0 -93 -28.5t-36 -80.5q0 -38 20.5 -63t53 -37.5t72 -22.5t79.5 -23t72.5 -32.5t53 -57.5t20.5 -92q0 -96 -67.5 -154t-174.5 -58zM347 -62l-57 -138h-72l45 138h84z" />
    <glyph glyph-name="scommaaccent" unicode="&#x219;" horiz-adv-x="447" 
d="M231 -15q-73 0 -124 34t-66 92l81 16q9 -35 39 -55.5t72 -20.5q43 0 66 22t23 57q0 32 -27 48.5t-66 24.5t-78 19t-66 41t-27 82q0 63 46.5 101t121.5 38q69 0 118.5 -34t59.5 -87l-81 -16q-4 31 -31 50.5t-64 19.5q-40 0 -61.5 -19t-21.5 -47q0 -32 27 -49t66 -24.5
t78 -18.5t66 -41.5t27 -82.5q0 -68 -49 -109t-129 -41zM275 -62l-57 -138h-72l45 138h84z" />
    <glyph glyph-name="Tcommaaccent" unicode="&#x21a;" horiz-adv-x="579" 
d="M29 700h521v-85h-215v-615h-91v615h-215v85zM332 -62l-57 -138h-72l45 138h84z" />
    <glyph glyph-name="tcommaaccent" unicode="&#x21b;" horiz-adv-x="350" 
d="M258 -10q-154 0 -154 164v240h-91v75h91v134l87 17v-151h143v-75h-143v-225q0 -57 19.5 -81t63.5 -24q33 0 53 11l11 -70q-30 -15 -80 -15zM275 -62l-57 -138h-72l45 138h84z" />
    <glyph glyph-name="circumflex" unicode="&#x2c6;" horiz-adv-x="500" 
d="M304 700l110 -149h-84l-80 105l-80 -105h-83l109 149h108z" />
    <glyph glyph-name="caron" unicode="&#x2c7;" horiz-adv-x="500" 
d="M250 594l80 106h84l-110 -149h-108l-109 149h83z" />
    <glyph glyph-name="breve" unicode="&#x2d8;" horiz-adv-x="500" 
d="M250 555q-61 0 -101.5 36.5t-50.5 104.5h69q6 -39 28.5 -60.5t54.5 -21.5t54.5 21.5t28.5 60.5h69q-10 -68 -50.5 -104.5t-101.5 -36.5z" />
    <glyph glyph-name="dotaccent" unicode="&#x2d9;" horiz-adv-x="500" 
d="M293 671v-91h-87v91h87z" />
    <glyph glyph-name="ring" unicode="&#x2da;" horiz-adv-x="500" 
d="M250 534q-46 0 -77.5 28.5t-31.5 72.5t31.5 72.5t77.5 28.5q47 0 78 -28.5t31 -72.5t-31 -72.5t-78 -28.5zM250 580q26 0 41.5 15.5t15.5 39.5t-15.5 40t-41.5 16t-41.5 -16t-15.5 -40t15.5 -39.5t41.5 -15.5z" />
    <glyph glyph-name="ogonek" unicode="&#x2db;" horiz-adv-x="500" 
d="M296 -200q-56 0 -88.5 22.5t-32.5 64.5q0 85 123 140l42 -27q-90 -41 -90 -98q0 -22 16.5 -34.5t42.5 -12.5q16 0 31 3v-54q-17 -4 -44 -4z" />
    <glyph glyph-name="tilde" unicode="&#x2dc;" horiz-adv-x="500" 
d="M317 565q-30 0 -68 27.5t-57 27.5q-36 0 -42 -54h-62q9 120 93 120q31 0 68.5 -27.5t56.5 -27.5q36 0 42 54h62q-10 -120 -93 -120z" />
    <glyph glyph-name="hungarumlaut" unicode="&#x2dd;" horiz-adv-x="500" 
d="M268 700l-117 -149h-81l93 149h105zM440 700l-117 -149h-81l93 149h105z" />
    <glyph glyph-name="commaaccent" unicode="&#x326;" horiz-adv-x="500" 
d="M314 -62l-57 -138h-72l45 138h84z" />
    <glyph glyph-name="pi" unicode="&#x3c0;" horiz-adv-x="614" 
d="M518 -6q-65 0 -98 34.5t-33 114.5v245h-180v-388h-87v388h-83v76h532v-76h-94v-238q0 -78 58 -78q18 0 36 8v-79q-21 -7 -51 -7z" />
    <glyph glyph-name="Wgrave" unicode="&#x1e80;" horiz-adv-x="977" 
d="M458 846l73 -106h-81l-98 106h106zM216 -7l-190 707h102l143 -552h5l170 552h94l170 -552h5l142 552h94l-187 -707h-98l-174 565h-4l-174 -565h-98z" />
    <glyph glyph-name="wgrave" unicode="&#x1e81;" horiz-adv-x="748" 
d="M228 700h106l81 -149h-81zM725 469l-152 -475h-81l-117 363l-118 -363h-83l-151 475h92l106 -352h2l115 352h81l114 -352h3l105 352h84z" />
    <glyph glyph-name="Wacute" unicode="&#x1e82;" horiz-adv-x="977" 
d="M628 846l-98 -106h-81l73 106h106zM216 -7l-190 707h102l143 -552h5l170 552h94l170 -552h5l142 552h94l-187 -707h-98l-174 565h-4l-174 -565h-98z" />
    <glyph glyph-name="wacute" unicode="&#x1e83;" horiz-adv-x="748" 
d="M532 700l-117 -149h-81l93 149h105zM725 469l-152 -475h-81l-117 363l-118 -363h-83l-151 475h92l106 -352h2l115 352h81l114 -352h3l105 352h84z" />
    <glyph glyph-name="Wdieresis" unicode="&#x1e84;" horiz-adv-x="977" 
d="M430 842v-99h-81v99h81zM631 842v-99h-81v99h81zM216 -7l-190 707h102l143 -552h5l170 552h94l170 -552h5l142 552h94l-187 -707h-98l-174 565h-4l-174 -565h-98z" />
    <glyph glyph-name="wdieresis" unicode="&#x1e85;" horiz-adv-x="748" 
d="M314 678v-106h-81v106h81zM515 678v-106h-81v106h81zM725 469l-152 -475h-81l-117 363l-118 -363h-83l-151 475h92l106 -352h2l115 352h81l114 -352h3l105 352h84z" />
    <glyph glyph-name="Ygrave" unicode="&#x1ef2;" horiz-adv-x="618" 
d="M281 846l73 -106h-81l-98 106h106zM355 297v-297h-92v297l-244 403h108l183 -312h5l183 312h101z" />
    <glyph glyph-name="ygrave" unicode="&#x1ef3;" horiz-adv-x="500" 
d="M103 699h106l81 -149h-81zM481 469l-268 -664h-87l86 210l-195 454h95l147 -351l135 351h87z" />
    <glyph glyph-name="endash" unicode="&#x2013;" horiz-adv-x="500" 
d="M480 244h-460v69h460v-69z" />
    <glyph glyph-name="emdash" unicode="&#x2014;" horiz-adv-x="1000" 
d="M980 244h-960v69h960v-69z" />
    <glyph glyph-name="quoteleft" unicode="&#x2018;" horiz-adv-x="259" 
d="M54 450l85 250h71l-69 -250h-87z" />
    <glyph glyph-name="quoteright" unicode="&#x2019;" horiz-adv-x="259" 
d="M206 700l-85 -250h-71l69 250h87z" />
    <glyph glyph-name="quotesinglbase" unicode="&#x201a;" horiz-adv-x="260" 
d="M197 118l-85 -250h-71l69 250h87z" />
    <glyph glyph-name="quotedblleft" unicode="&#x201c;" horiz-adv-x="430" 
d="M54 450l85 250h71l-69 -250h-87zM225 450l85 250h71l-69 -250h-87z" />
    <glyph glyph-name="quotedblright" unicode="&#x201d;" horiz-adv-x="430" 
d="M206 700l-85 -250h-71l69 250h87zM376 700l-85 -250h-71l69 250h87z" />
    <glyph glyph-name="quotedblbase" unicode="&#x201e;" horiz-adv-x="430" 
d="M197 118l-85 -250h-71l69 250h87zM368 118l-85 -250h-71l69 250h87z" />
    <glyph glyph-name="dagger" unicode="&#x2020;" horiz-adv-x="431" 
d="M245 421v-498h-59v498h-138v61h138v218h59v-218h138v-61h-138z" />
    <glyph glyph-name="daggerdbl" unicode="&#x2021;" horiz-adv-x="431" 
d="M245 141v-218h-59v218h-138v61h138v219h-138v61h138v218h59v-218h138v-61h-138v-219h138v-61h-138z" />
    <glyph glyph-name="bullet" unicode="&#x2022;" horiz-adv-x="442" 
d="M221 115q-69 0 -116 45.5t-47 117.5t47 117.5t116 45.5t116 -45.5t47 -117.5t-47 -117.5t-116 -45.5z" />
    <glyph glyph-name="ellipsis" unicode="&#x2026;" horiz-adv-x="777" 
d="M177 0h-95v122h95v-122zM436 0h-95v122h95v-122zM695 0h-95v122h95v-122z" />
    <glyph glyph-name="perthousand" unicode="&#x2030;" horiz-adv-x="1125" 
d="M185 325q-67 0 -110.5 53t-43.5 142q0 90 43 142.5t111 52.5t111 -52.5t43 -142.5q0 -89 -43.5 -142t-110.5 -53zM580 700h71l-463 -700h-70zM185 391q39 0 61.5 34t22.5 95t-22.5 95t-61.5 34t-61.5 -33.5t-22.5 -95.5t22.5 -95.5t61.5 -33.5zM585 -15q-67 0 -110.5 53
t-43.5 142q0 90 43 142.5t111 52.5t111 -52.5t43 -142.5q0 -89 -43 -142t-111 -53zM940 -15q-67 0 -110.5 53t-43.5 142q0 90 43 142.5t111 52.5t111 -52.5t43 -142.5q0 -89 -43 -142t-111 -53zM585 51q39 0 61.5 34t22.5 95t-22.5 95t-61.5 34t-61.5 -34t-22.5 -95
t22.5 -95t61.5 -34zM940 51q39 0 61.5 34t22.5 95t-22.5 95t-61.5 34t-61.5 -34t-22.5 -95t22.5 -95t61.5 -34z" />
    <glyph glyph-name="guilsinglleft" unicode="&#x2039;" horiz-adv-x="288" 
d="M138 278l99 -202h-83l-99 202l99 202h83z" />
    <glyph glyph-name="guilsinglright" unicode="&#x203a;" horiz-adv-x="288" 
d="M233 278l-99 -202h-83l99 202l-99 202h83z" />
    <glyph glyph-name="fraction" unicode="&#x2044;" horiz-adv-x="190" 
d="M291 700h71l-463 -700h-70z" />
    <glyph glyph-name="zerosuperior" unicode="&#x2070;" horiz-adv-x="394" 
d="M197 391q-78 0 -124.5 60t-46.5 159t46.5 159t124.5 60t125 -60t47 -159t-47 -159t-125 -60zM197 452q49 0 76 43t27 115q0 73 -27 115.5t-76 42.5t-76 -42.5t-27 -115.5q0 -71 27.5 -114.5t75.5 -43.5z" />
    <glyph glyph-name="foursuperior" unicode="&#x2074;" horiz-adv-x="358" 
d="M292 493v-93h-66v93h-206v56l159 271h113v-265h53v-62h-53zM222 776l-133 -221h137v221h-4z" />
    <glyph glyph-name="fivesuperior" unicode="&#x2075;" horiz-adv-x="362" 
d="M182 391q-57 0 -99.5 32t-45.5 77l63 8q5 -24 28 -40t54 -16q37 0 60.5 23.5t23.5 60.5q0 38 -23 61.5t-61 23.5q-54 0 -72 -40h-57v239h261v-62h-198v-108q24 31 84 31q61 0 98.5 -39.5t37.5 -102.5t-44 -105.5t-110 -42.5z" />
    <glyph glyph-name="sixsuperior" unicode="&#x2076;" horiz-adv-x="362" 
d="M195 391q-79 0 -120.5 55.5t-41.5 161.5q0 105 41 163t116 58q51 0 90 -26.5t53 -71.5l-67 -10q-17 48 -75 48q-88 0 -90 -140v-16q13 27 41.5 42.5t65.5 15.5q56 0 94 -38t38 -95q0 -64 -40.5 -105.5t-104.5 -41.5zM190 451q37 0 59 22.5t22 59.5q0 36 -22.5 58.5
t-58.5 22.5t-59 -23t-23 -58q0 -37 22.5 -59.5t59.5 -22.5z" />
    <glyph glyph-name="sevensuperior" unicode="&#x2077;" horiz-adv-x="358" 
d="M44 820h280v-61l-194 -359h-76l198 358h-208v62z" />
    <glyph glyph-name="eightsuperior" unicode="&#x2078;" horiz-adv-x="362" 
d="M182 391q-67 0 -109 35.5t-42 91.5q0 38 19 65.5t51 37.5q-26 11 -41.5 36.5t-15.5 56.5q0 50 39 82.5t99 32.5t99 -32.5t39 -82.5q0 -69 -59 -93q32 -10 51.5 -38t19.5 -66q0 -55 -42 -90.5t-108 -35.5zM182 648q30 0 49 17.5t19 44.5q0 26 -19 43t-49 17
q-31 0 -50.5 -17t-19.5 -43q0 -27 19.5 -44.5t50.5 -17.5zM182 452q34 0 56.5 19.5t22.5 49.5q0 32 -22 51.5t-57 19.5q-36 0 -58 -19.5t-22 -51.5q0 -31 22.5 -50t57.5 -19z" />
    <glyph glyph-name="ninesuperior" unicode="&#x2079;" horiz-adv-x="362" 
d="M168 829q79 0 120.5 -55t41.5 -162q0 -105 -41 -163t-116 -58q-52 0 -90.5 26t-53.5 72l68 10q8 -22 28.5 -35t46.5 -13q88 0 90 140v16q-13 -27 -42 -42.5t-65 -15.5q-56 0 -94 38t-38 95q0 65 40.5 106t104.5 41zM173 769q-37 0 -59 -22.5t-22 -58.5t22.5 -59t58.5 -23
t58.5 23t22.5 59t-22 58.5t-59 22.5z" />
    <glyph glyph-name="plussuperior" unicode="&#x207a;" horiz-adv-x="430" 
d="M189 584h-140v52h140v150h52v-150h140v-52h-140v-150h-52v150z" />
    <glyph glyph-name="minussuperior" unicode="&#x207b;" horiz-adv-x="350" 
d="M301 584h-252v52h252v-52z" />
    <glyph glyph-name="equalsuperior" unicode="&#x207c;" horiz-adv-x="350" 
d="M301 653h-252v52h252v-52zM301 515h-252v52h252v-52z" />
    <glyph glyph-name="parenleftsuperior" unicode="&#x207d;" horiz-adv-x="276" 
d="M79 610q0 85 29.5 151t62.5 92h68q-42 -37 -70 -100.5t-28 -142.5t28 -142.5t70 -100.5h-68q-33 26 -62.5 92.5t-29.5 150.5z" />
    <glyph glyph-name="parenrightsuperior" unicode="&#x207e;" horiz-adv-x="276" 
d="M197 610q0 -85 -29.5 -152t-62.5 -91h-68q42 37 70 100.5t28 142.5t-28 142.5t-70 100.5h68q33 -24 62.5 -91t29.5 -152z" />
    <glyph glyph-name="zeroinferior" unicode="&#x2080;" horiz-adv-x="394" 
d="M197 -129q-78 0 -124.5 60t-46.5 159t46.5 159t124.5 60t125 -60t47 -159t-47 -159t-125 -60zM197 -68q49 0 76 43t27 115q0 73 -27 115.5t-76 42.5t-76 -42.5t-27 -115.5q0 -71 27.5 -114.5t75.5 -43.5z" />
    <glyph glyph-name="oneinferior" unicode="&#x2081;" horiz-adv-x="313" 
d="M46 173l-9 66l122 61h60v-420h-68v349z" />
    <glyph glyph-name="twoinferior" unicode="&#x2082;" horiz-adv-x="358" 
d="M324 -58v-62h-280v55l141 135q39 40 53.5 64t14.5 49q0 28 -19.5 46t-50.5 18q-33 0 -55 -22t-24 -59l-65 7q5 62 46 99t102 37q62 0 99.5 -33t37.5 -87q0 -39 -19.5 -73t-70.5 -83l-92 -91h182z" />
    <glyph glyph-name="threeinferior" unicode="&#x2083;" horiz-adv-x="358" 
d="M180 -129q-62 0 -105.5 35t-46.5 87l66 7q4 -31 27.5 -50t57.5 -19q36 0 58 22.5t22 59.5q0 35 -20.5 55t-57.5 20q-30 0 -52 -19v58l110 111h-195v62h277v-56l-84 -87l-22 -19v-3h8q47 0 77 -33.5t30 -86.5q0 -64 -42 -104t-108 -40z" />
    <glyph glyph-name="fourinferior" unicode="&#x2084;" horiz-adv-x="358" 
d="M292 -27v-93h-66v93h-206v56l159 271h113v-265h53v-62h-53zM222 256l-133 -221h137v221h-4z" />
    <glyph glyph-name="fiveinferior" unicode="&#x2085;" horiz-adv-x="358" 
d="M182 -129q-57 0 -99.5 32t-45.5 77l63 8q5 -24 28 -40t54 -16q37 0 60.5 23.5t23.5 60.5q0 38 -23 61.5t-61 23.5q-54 0 -72 -40h-57v239h261v-62h-198v-108q24 31 84 31q61 0 98.5 -39.5t37.5 -102.5t-44 -105.5t-110 -42.5z" />
    <glyph glyph-name="sixinferior" unicode="&#x2086;" horiz-adv-x="358" 
d="M195 -129q-79 0 -120.5 55.5t-41.5 161.5q0 105 41 163t116 58q51 0 90 -26.5t53 -71.5l-67 -10q-17 48 -75 48q-88 0 -90 -140v-16q13 27 41.5 42.5t65.5 15.5q56 0 94 -38t38 -95q0 -64 -40.5 -105.5t-104.5 -41.5zM190 -69q37 0 59 22.5t22 59.5q0 36 -22.5 58.5
t-58.5 22.5t-59 -23t-23 -58q0 -37 22.5 -59.5t59.5 -22.5z" />
    <glyph glyph-name="seveninferior" unicode="&#x2087;" horiz-adv-x="358" 
d="M44 300h280v-61l-194 -359h-76l198 358h-208v62z" />
    <glyph glyph-name="eightinferior" unicode="&#x2088;" horiz-adv-x="358" 
d="M182 -129q-67 0 -109 35.5t-42 91.5q0 38 19 65.5t51 37.5q-26 11 -41.5 36.5t-15.5 56.5q0 50 39 82.5t99 32.5t99 -32.5t39 -82.5q0 -69 -59 -93q32 -10 51.5 -38t19.5 -66q0 -55 -42 -90.5t-108 -35.5zM182 128q30 0 49 17.5t19 44.5q0 26 -19 43t-49 17
q-31 0 -50.5 -17t-19.5 -43q0 -27 19.5 -44.5t50.5 -17.5zM182 -68q34 0 56.5 19.5t22.5 49.5q0 32 -22 51.5t-57 19.5q-36 0 -58 -19.5t-22 -51.5q0 -31 22.5 -50t57.5 -19z" />
    <glyph glyph-name="nineinferior" unicode="&#x2089;" horiz-adv-x="358" 
d="M168 309q79 0 120.5 -55t41.5 -162q0 -105 -41 -163t-116 -58q-52 0 -90.5 26t-53.5 72l68 10q8 -22 28.5 -35t46.5 -13q88 0 90 140v16q-13 -27 -42 -42.5t-65 -15.5q-56 0 -94 38t-38 95q0 65 40.5 106t104.5 41zM173 249q-37 0 -59 -22.5t-22 -58.5t22.5 -59t58.5 -23
t58.5 23t22.5 59t-22 58.5t-59 22.5z" />
    <glyph glyph-name="plusinferior" unicode="&#x208a;" horiz-adv-x="430" 
d="M189 64h-140v52h140v150h52v-150h140v-52h-140v-150h-52v150z" />
    <glyph glyph-name="minusinferior" unicode="&#x208b;" horiz-adv-x="350" 
d="M301 64h-252v52h252v-52z" />
    <glyph glyph-name="equalinferior" unicode="&#x208c;" horiz-adv-x="350" 
d="M301 133h-252v52h252v-52zM301 -5h-252v52h252v-52z" />
    <glyph glyph-name="parenleftinferior" unicode="&#x208d;" horiz-adv-x="276" 
d="M79 90q0 85 29.5 151t62.5 92h68q-42 -37 -70 -100.5t-28 -142.5t28 -142.5t70 -100.5h-68q-33 26 -62.5 92.5t-29.5 150.5z" />
    <glyph glyph-name="parenrightinferior" unicode="&#x208e;" horiz-adv-x="276" 
d="M197 90q0 -85 -29.5 -152t-62.5 -91h-68q42 37 70 100.5t28 142.5t-28 142.5t-70 100.5h68q33 -24 62.5 -91t29.5 -152z" />
    <glyph glyph-name="Euro" unicode="&#x20ac;" 
d="M336 -15q-102 0 -165.5 68.5t-82.5 189.5h-81v62h74q-1 15 -1 45t1 45h-74v62h81q19 121 83 189.5t169 68.5q145 0 202 -133l-88 -24q-30 75 -117 75q-128 0 -156 -176h252v-62h-259q-1 -13 -1 -45q0 -30 1 -45h259v-62h-252q28 -176 156 -176q41 0 72 20t45 55l87 -25
q-26 -63 -80 -97.5t-125 -34.5z" />
    <glyph glyph-name="litre" unicode="&#x2113;" horiz-adv-x="452" 
d="M253 -15q-150 0 -150 187q-9 -5 -25.5 -14t-21.5 -12l-30 55l77 42v226q0 246 163 246q68 0 107 -45.5t39 -131.5q0 -97 -48.5 -167t-172.5 -148v-57q0 -113 79 -113q47 0 91 39l35 -51q-59 -56 -143 -56zM191 486v-188q86 58 115 108.5t29 131.5q0 48 -17.5 79t-51.5 31
q-75 0 -75 -162z" />
    <glyph glyph-name="numero" unicode="&#x2116;" horiz-adv-x="1198" 
d="M810 525q0 84 51.5 135t128.5 51q78 0 129 -51t51 -135q0 -83 -51.5 -134.5t-128.5 -51.5t-128.5 51.5t-51.5 134.5zM687 700v-707h-101l-401 571v-564h-91v707h101l400 -571v564h92zM885 525q0 -53 29.5 -86.5t75.5 -33.5q47 0 75.5 33t28.5 87t-28.5 87t-75.5 33
q-46 0 -75.5 -33.5t-29.5 -86.5z" />
    <glyph glyph-name="published" unicode="&#x2117;" horiz-adv-x="786" 
d="M739 350q0 -160 -100.5 -262.5t-246.5 -102.5t-246.5 102.5t-100.5 262.5t100.5 262.5t246.5 102.5t246.5 -102.5t100.5 -262.5zM678 350q0 134 -82.5 221t-203.5 87t-203.5 -87t-82.5 -221t82.5 -220.5t203.5 -86.5t203.5 86.5t82.5 220.5zM345 298v-145h-67v394h140
q58 0 97 -33.5t39 -90.5t-37 -91t-98 -34h-74zM409 485h-64v-125h67q36 0 54.5 18t18.5 45t-18.5 44.5t-57.5 17.5z" />
    <glyph glyph-name="trademark" unicode="&#x2122;" horiz-adv-x="815" 
d="M188 638v-288h-67v288h-102v62h272v-62h-103zM750 700v-350h-67v262h-3l-100 -262h-59l-99 262h-3v-262h-67v350h103l96 -247h3l95 247h101z" />
    <glyph glyph-name="Omega" unicode="&#x2126;" horiz-adv-x="788" 
d="M733 84v-84h-286v124q73 16 129.5 81.5t56.5 174.5q0 111 -68.5 180t-170.5 69q-101 0 -169.5 -69.5t-68.5 -179.5q0 -108 56.5 -174t128.5 -82v-124h-286v84h199v4q-77 26 -134.5 102.5t-57.5 192.5q0 144 94 238t238 94q145 0 238.5 -94t93.5 -238q0 -117 -57.5 -193
t-135.5 -102v-4h200z" />
    <glyph glyph-name="estimated" unicode="&#x212e;" horiz-adv-x="836" 
d="M425 -15q-163 0 -278.5 107t-115.5 258q0 153 115 259t279 106t279.5 -106t115.5 -259q0 -13 -1 -16h-616v-230q96 -76 222 -76q98 0 179 45t124 119h53q-47 -93 -143.5 -150t-212.5 -57zM203 597v-218h439v223q-94 70 -217 70q-137 0 -222 -75z" />
    <glyph glyph-name="arrowleft" unicode="&#x2190;" horiz-adv-x="897" 
d="M208 389h642v-79h-642v-5l307 -305h-114l-347 348v4l347 348h115l-308 -305v-6z" />
    <glyph glyph-name="arrowup" unicode="&#x2191;" horiz-adv-x="896" 
d="M487 594v-642h-79v642h-5l-305 -307v115l348 346h4l348 -347v-114l-305 307h-6z" />
    <glyph glyph-name="arrowright" unicode="&#x2192;" horiz-adv-x="897" 
d="M694 311h-642v79h642v5l-307 305h114l347 -348v-4l-347 -348h-115l308 305v6z" />
    <glyph glyph-name="arrowdown" unicode="&#x2193;" horiz-adv-x="897" 
d="M408 748h79v-642h6l305 307v-114l-348 -347h-4l-348 346v115l305 -307h5v642z" />
    <glyph glyph-name="arrowupleft" unicode="&#x2196;" horiz-adv-x="896" 
d="M291 617l455 -454l-57 -56l-455 453l-3 -3l1 -433l-80 81v492l3 3h492l81 -81l-434 2z" />
    <glyph glyph-name="arrowupright" unicode="&#x2197;" horiz-adv-x="897" 
d="M208 107l-57 56l455 454l-3 4l-434 -2l81 81h492l3 -3v-492l-80 -81l1 433l-3 3z" />
    <glyph glyph-name="arrowdownright" unicode="&#x2198;" horiz-adv-x="897" 
d="M606 83l-455 454l57 56l455 -453l3 3l-1 433l80 -81v-492l-3 -3h-492l-81 81l434 -2z" />
    <glyph glyph-name="arrowdownleft" unicode="&#x2199;" horiz-adv-x="897" 
d="M689 593l57 -56l-455 -454l3 -4l434 2l-81 -81h-492l-3 3v492l80 81l-1 -433l3 -3z" />
    <glyph glyph-name="arrowuptipleft" unicode="&#x21b0;" horiz-adv-x="897" 
d="M50 429l270 271h97l-233 -233v-4h660v-463h-76v390h-584v-4l233 -233h-97l-270 271v5z" />
    <glyph glyph-name="arrowuptipright" unicode="&#x21b1;" horiz-adv-x="897" 
d="M480 700h97l270 -271v-5l-270 -271h-97l233 233v4h-584v-390h-76v463h660v4z" />
    <glyph glyph-name="arrowdowntipleft" unicode="&#x21b2;" horiz-adv-x="897" 
d="M417 0h-97l-270 271v5l270 271h97l-233 -233v-4h584v390h76v-463h-660v-4z" />
    <glyph glyph-name="arrowdowntipright" unicode="&#x21b3;" horiz-adv-x="897" 
d="M847 271l-270 -271h-97l233 233v4h-660v463h76v-390h584v4l-233 233h97l270 -271v-5z" />
    <glyph glyph-name="partialdiff" unicode="&#x2202;" horiz-adv-x="550" 
d="M273 -15q-99 0 -164.5 69.5t-65.5 176.5q0 106 63.5 175.5t160.5 69.5q53 0 94 -24.5t60 -63.5q-12 123 -67 186.5t-150 63.5q-56 0 -95 -24v79q40 22 100 22q104 0 174.5 -55.5t101 -144.5t30.5 -205q0 -158 -66.5 -241.5t-175.5 -83.5zM277 62q71 0 110 52.5t39 128.5
q0 63 -41 109t-107 46q-64 0 -106 -46t-42 -121t42 -122t105 -47z" />
    <glyph glyph-name="increment" unicode="&#x2206;" horiz-adv-x="690" 
d="M396 707l266 -707h-634l266 707h102zM344 602h-4l-187 -519h380z" />
    <glyph glyph-name="product" unicode="&#x220f;" horiz-adv-x="731" 
d="M638 700v-865h-92v781h-361v-781h-91v865h544z" />
    <glyph glyph-name="summation" unicode="&#x2211;" horiz-adv-x="607" 
d="M551 -81v-84h-499v79l280 359v4l-270 346v77h479v-85h-355l230 -294v-81l-250 -321h385z" />
    <glyph glyph-name="minus" unicode="&#x2212;" horiz-adv-x="600" 
d="M497 295h-394v69h394v-69z" />
    <glyph glyph-name="radical" unicode="&#x221a;" horiz-adv-x="541" 
d="M540 803l-223 -906h-74l-160 440l-58 -16l-16 58l122 33l143 -397h4l193 788h69z" />
    <glyph glyph-name="infinity" unicode="&#x221e;" horiz-adv-x="813" 
d="M598 143q-62 0 -105.5 34t-85.5 94q-42 -60 -85.5 -94t-105.5 -34q-81 0 -131 53.5t-50 132.5t50 133t131 54q62 0 106 -34t85 -95q41 61 85 95t106 34q82 0 131.5 -53.5t49.5 -133.5q0 -79 -49.5 -132.5t-131.5 -53.5zM595 207q49 0 82 34t33 88t-32.5 87.5t-82.5 33.5
q-24 0 -45 -8.5t-40.5 -29t-31.5 -36t-34 -47.5q22 -32 33.5 -47.5t31.5 -36.5t41 -29.5t45 -8.5zM103 329q0 -54 33 -88t82 -34q32 0 61 19t46.5 41t43.5 62q-39 60 -72 90.5t-79 30.5q-49 0 -82 -33.5t-33 -87.5z" />
    <glyph glyph-name="integral" unicode="&#x222b;" horiz-adv-x="313" 
d="M54 -199q-26 0 -50 6v61q22 -6 40 -6q78 0 78 92v649q0 65 35 106t102 41q27 0 49 -6v-61q-18 6 -39 6q-79 0 -79 -92v-649q0 -66 -34 -106.5t-102 -40.5z" />
    <glyph glyph-name="approxequal" unicode="&#x2248;" horiz-adv-x="600" 
d="M407 373q-45 0 -111.5 33t-104.5 33q-67 0 -108 -61v75q14 21 43 38t67 17q45 0 111.5 -33t104.5 -33q67 0 108 61v-76q-14 -20 -43 -37t-67 -17zM407 151q-45 0 -111.5 33t-104.5 33q-67 0 -108 -61v75q14 21 43 38t67 17q45 0 111.5 -33t104.5 -33q67 0 108 61v-76
q-14 -20 -43 -37t-67 -17z" />
    <glyph glyph-name="notequal" unicode="&#x2260;" horiz-adv-x="600" 
d="M203 179h-120v68h148l66 164h-214v69h243l72 178h72l-72 -178h119v-69h-148l-66 -164h214v-68h-242l-73 -179h-72z" />
    <glyph glyph-name="lessequal" unicode="&#x2264;" horiz-adv-x="600" 
d="M530 274v-72l-457 170v65l457 170v-71l-352 -129v-4zM530 57h-460v69h460v-69z" />
    <glyph glyph-name="greaterequal" unicode="&#x2265;" horiz-adv-x="600" 
d="M527 372l-457 -170v72l352 129v4l-352 129v71l457 -170v-65zM530 126v-69h-460v69h460z" />
    <glyph glyph-name="blacksquare" unicode="&#x25a0;" horiz-adv-x="800" 
d="M725 675v-651h-651v651h651z" />
    <glyph glyph-name="whitesquare" unicode="&#x25a1;" horiz-adv-x="800" 
d="M725 675v-651h-651v651h651zM132 82h536v536h-536v-536z" />
    <glyph glyph-name="squarewhitewithsmallblack" unicode="&#x25a3;" horiz-adv-x="800" 
d="M725 675v-651h-651v651h651zM132 82h536v536h-536v-536zM515 465v-231h-231v231h231z" />
    <glyph glyph-name="blackuppointingtriangle" unicode="&#x25b2;" horiz-adv-x="833" 
d="M417 681l352 -661h-704z" />
    <glyph glyph-name="whiteuppointingtriangle" unicode="&#x25b3;" horiz-adv-x="833" 
d="M429 681l352 -661h-704zM685 78l-254 477h-4l-254 -477h512z" />
    <glyph glyph-name="blackrightpointingtriangle" unicode="&#x25b6;" horiz-adv-x="833" 
d="M778 350l-661 -352v704z" />
    <glyph glyph-name="whiterightpointingtriangle" unicode="&#x25b7;" horiz-adv-x="833" 
d="M778 350l-661 -352v704zM175 94l477 254v4l-477 254v-512z" />
    <glyph glyph-name="blackdownpointingtriangle" unicode="&#x25bc;" horiz-adv-x="833" 
d="M65 681h704l-352 -661z" />
    <glyph glyph-name="whitedownpointingtriangle" unicode="&#x25bd;" horiz-adv-x="833" 
d="M77 681h704l-352 -661zM427 146h4l254 477h-512z" />
    <glyph glyph-name="blackleftpointingtriangle" unicode="&#x25c0;" horiz-adv-x="833" 
d="M716 702v-704l-661 352z" />
    <glyph glyph-name="whiteleftpointingtriangle" unicode="&#x25c1;" horiz-adv-x="833" 
d="M716 702v-704l-661 352zM181 352v-4l477 -254v512z" />
    <glyph glyph-name="blackdiamond" unicode="&#x25c6;" horiz-adv-x="600" 
d="M582 350l-282 -282l-282 282l282 282z" />
    <glyph glyph-name="fisheye" unicode="&#x25c9;" horiz-adv-x="800" 
d="M56 350q0 141 101.5 242t242.5 101q142 0 242.5 -100.5t100.5 -242.5q0 -141 -101 -242.5t-242 -101.5t-242.5 101.5t-101.5 242.5zM117 350q0 -116 83.5 -199.5t199.5 -83.5q117 0 200 83.5t83 199.5q0 117 -83 200t-200 83q-116 0 -199.5 -83t-83.5 -200zM271 350
q0 54 37.5 90t91.5 36t90 -36t36 -90t-36 -91.5t-90 -37.5q-53 0 -91 38t-38 91z" />
    <glyph glyph-name="lozenge" unicode="&#x25ca;" horiz-adv-x="504" 
d="M296 678l180 -349l-180 -349h-89l-179 349l179 349h89zM252 42l148 287l-148 287l-149 -287z" />
    <glyph glyph-name="whitecircle" unicode="&#x25cb;" horiz-adv-x="800" 
d="M56 350q0 141 101.5 242t242.5 101q142 0 242.5 -100.5t100.5 -242.5q0 -141 -101 -242.5t-242 -101.5t-242.5 101.5t-101.5 242.5zM117 350q0 -116 83.5 -199.5t199.5 -83.5q117 0 200 83.5t83 199.5q0 117 -83 200t-200 83q-116 0 -199.5 -83t-83.5 -200z" />
    <glyph glyph-name="blackcircle" unicode="&#x25cf;" horiz-adv-x="800" 
d="M56 350q0 141 101.5 242t242.5 101q142 0 242.5 -100.5t100.5 -242.5q0 -141 -101 -242.5t-242 -101.5t-242.5 101.5t-101.5 242.5z" />
    <glyph glyph-name="germandbls.cap" horiz-adv-x="1188" 
d="M302 -15q-94 0 -164.5 48t-83.5 135l89 19q8 -59 55 -90.5t107 -31.5q65 0 105.5 34t40.5 88q0 38 -20.5 63t-53 38t-72 23t-79.5 23t-72.5 32.5t-53 57.5t-20.5 93q0 89 63.5 143.5t161.5 54.5q97 0 160.5 -52.5t75.5 -134.5l-89 -16q-9 55 -48 88.5t-102 33.5
q-57 0 -93 -28.5t-36 -80.5q0 -38 20.5 -63t53 -37.5t72 -22.5t79.5 -23t72.5 -32.5t53 -57.5t20.5 -92q0 -96 -67.5 -154t-174.5 -58zM896 -15q-94 0 -164.5 48t-83.5 135l89 19q8 -59 55 -90.5t107 -31.5q65 0 105.5 34t40.5 88q0 38 -20.5 63t-53 38t-72 23t-79.5 23
t-72.5 32.5t-53 57.5t-20.5 93q0 89 64 143.5t161 54.5t160.5 -52.5t75.5 -134.5l-89 -16q-9 55 -48 88.5t-102 33.5q-57 0 -93 -28.5t-36 -80.5q0 -38 20.5 -63t53 -37.5t72 -22.5t79.5 -23t72.5 -32.5t53 -57.5t20.5 -92q0 -96 -67.5 -154t-174.5 -58z" />
    <glyph glyph-name="i.TRK" horiz-adv-x="235" 
d="M161 700v-108h-87v108h87zM161 469v-469h-87v469h87z" />
    <glyph glyph-name="A.small" horiz-adv-x="548" 
d="M324 548l202 -548h-96l-50 140h-215l-49 -140h-94l203 548h99zM275 442h-3l-79 -223h162z" />
    <glyph glyph-name="Agrave.small" horiz-adv-x="548" 
d="M236 689l73 -106h-81l-98 106h106zM324 548l202 -548h-96l-50 140h-215l-49 -140h-94l203 548h99zM275 442h-3l-79 -223h162z" />
    <glyph glyph-name="Aacute.small" horiz-adv-x="548" 
d="M406 689l-98 -106h-81l73 106h106zM324 548l202 -548h-96l-50 140h-215l-49 -140h-94l203 548h99zM275 442h-3l-79 -223h162z" />
    <glyph glyph-name="Acircumflex.small" horiz-adv-x="548" 
d="M333 689l96 -106h-84l-78 74l-77 -74h-83l95 106h131zM324 548l202 -548h-96l-50 140h-215l-49 -140h-94l203 548h99zM275 442h-3l-79 -223h162z" />
    <glyph glyph-name="Atilde.small" horiz-adv-x="548" 
d="M333 587q-29 0 -70 21.5t-58 21.5q-33 0 -40 -42h-53q15 97 91 97q29 0 70.5 -21t57.5 -21q33 0 40 42h53q-15 -98 -91 -98zM324 548l202 -548h-96l-50 140h-215l-49 -140h-94l203 548h99zM275 442h-3l-79 -223h162z" />
    <glyph glyph-name="Adieresis.small" horiz-adv-x="548" 
d="M208 685v-99h-81v99h81zM409 685v-99h-81v99h81zM324 548l202 -548h-96l-50 140h-215l-49 -140h-94l203 548h99zM275 442h-3l-79 -223h162z" />
    <glyph glyph-name="Amacron.small" horiz-adv-x="548" 
d="M430 667v-62h-324v62h324zM324 548l202 -548h-96l-50 140h-215l-49 -140h-94l203 548h99zM275 442h-3l-79 -223h162z" />
    <glyph glyph-name="Abreve.small" horiz-adv-x="548" 
d="M268 576q-52 0 -95 26.5t-57 86.5h69q8 -28 32 -43.5t51 -15.5q28 0 51 15t32 44h69q-14 -60 -57 -86.5t-95 -26.5zM324 548l202 -548h-96l-50 140h-215l-49 -140h-94l203 548h99zM275 442h-3l-79 -223h162z" />
    <glyph glyph-name="Aring.small" horiz-adv-x="548" 
d="M268 582q-46 0 -77.5 29t-31.5 73t31.5 72.5t77.5 28.5q47 0 78 -28.5t31 -72.5q0 -45 -31 -73.5t-78 -28.5zM268 628q26 0 41.5 16t15.5 40t-15.5 39.5t-41.5 15.5t-41.5 -15.5t-15.5 -39.5t15.5 -40t41.5 -16zM324 548l202 -548h-96l-50 140h-215l-49 -140h-94l203 548
h99zM275 442h-3l-79 -223h162z" />
    <glyph glyph-name="Aringacute.small" horiz-adv-x="548" 
d="M407 923l-98 -106h-81l73 106h106zM268 582q-46 0 -77.5 29t-31.5 73t31.5 72.5t77.5 28.5q47 0 78 -28.5t31 -72.5q0 -45 -31 -73.5t-78 -28.5zM268 628q26 0 41.5 16t15.5 40t-15.5 39.5t-41.5 15.5t-41.5 -15.5t-15.5 -39.5t15.5 -40t41.5 -16zM324 548l202 -548h-96
l-50 140h-215l-49 -140h-94l203 548h99zM275 442h-3l-79 -223h162z" />
    <glyph glyph-name="Aogonek.small" horiz-adv-x="548" 
d="M476 -200q-56 0 -88.5 22.5t-32.5 64.5q0 67 75 114l-50 139h-215l-49 -140h-94l203 548h99l202 -548h-6q-90 -41 -90 -98q0 -22 16.5 -34.5t42.5 -12.5q16 0 31 3v-54q-17 -4 -44 -4zM275 442h-3l-79 -223h162z" />
    <glyph glyph-name="AE.small" horiz-adv-x="762" 
d="M703 80v-80h-371v138h-167l-68 -138h-97l270 544h433v-81h-281v-148h208v-80h-208v-155h281zM332 461h-9l-118 -240h127v240z" />
    <glyph glyph-name="AEacute.small" horiz-adv-x="762" 
d="M515 689l-98 -106h-81l73 106h106zM703 80v-80h-371v138h-167l-68 -138h-97l270 544h433v-81h-281v-148h208v-80h-208v-155h281zM332 461h-9l-118 -240h127v240z" />
    <glyph glyph-name="B.small" horiz-adv-x="533" 
d="M452 400q0 -45 -23.5 -77.5t-69.5 -41.5q55 -7 85 -41.5t30 -84.5q0 -73 -46.5 -114t-134.5 -41h-203v544h195q79 0 123 -39t44 -105zM272 465h-92v-151h101q39 0 59 21t20 54q0 32 -21.5 54t-66.5 22zM382 161q0 36 -24.5 59t-74.5 23h-103v-165h106q48 0 72 23.5
t24 59.5z" />
    <glyph glyph-name="C.small" horiz-adv-x="593" 
d="M54 272q0 128 75.5 205.5t190.5 77.5q86 0 148 -44t85 -119l-91 -19q-13 42 -52 70t-90 28q-76 0 -125.5 -55.5t-49.5 -143.5t50 -143.5t127 -55.5q52 0 89.5 27t50.5 69l91 -19q-20 -74 -82.5 -118t-148.5 -44q-116 0 -192 78.5t-76 205.5z" />
    <glyph glyph-name="Cacute.small" horiz-adv-x="593" 
d="M458 689l-98 -106h-81l73 106h106zM54 272q0 128 75.5 205.5t190.5 77.5q86 0 148 -44t85 -119l-91 -19q-13 42 -52 70t-90 28q-76 0 -125.5 -55.5t-49.5 -143.5t50 -143.5t127 -55.5q52 0 89.5 27t50.5 69l91 -19q-20 -74 -82.5 -118t-148.5 -44q-116 0 -192 78.5
t-76 205.5z" />
    <glyph glyph-name="Ccircumflex.small" horiz-adv-x="593" 
d="M385 689l96 -106h-84l-78 74l-77 -74h-83l95 106h131zM54 272q0 128 75.5 205.5t190.5 77.5q86 0 148 -44t85 -119l-91 -19q-13 42 -52 70t-90 28q-76 0 -125.5 -55.5t-49.5 -143.5t50 -143.5t127 -55.5q52 0 89.5 27t50.5 69l91 -19q-20 -74 -82.5 -118t-148.5 -44
q-116 0 -192 78.5t-76 205.5z" />
    <glyph glyph-name="Ccaron.small" horiz-adv-x="593" 
d="M321 615l77 74h84l-96 -106h-131l-95 106h83zM54 272q0 128 75.5 205.5t190.5 77.5q86 0 148 -44t85 -119l-91 -19q-13 42 -52 70t-90 28q-76 0 -125.5 -55.5t-49.5 -143.5t50 -143.5t127 -55.5q52 0 89.5 27t50.5 69l91 -19q-20 -74 -82.5 -118t-148.5 -44
q-116 0 -192 78.5t-76 205.5z" />
    <glyph glyph-name="Cdotaccent.small" horiz-adv-x="593" 
d="M364 675v-78h-87v78h87zM54 272q0 128 75.5 205.5t190.5 77.5q86 0 148 -44t85 -119l-91 -19q-13 42 -52 70t-90 28q-76 0 -125.5 -55.5t-49.5 -143.5t50 -143.5t127 -55.5q52 0 89.5 27t50.5 69l91 -19q-20 -74 -82.5 -118t-148.5 -44q-116 0 -192 78.5t-76 205.5z" />
    <glyph glyph-name="Ccedilla.small" horiz-adv-x="593" 
d="M54 272q0 128 75.5 205.5t190.5 77.5q86 0 148 -44t85 -119l-91 -19q-13 42 -52 70t-90 28q-76 0 -125.5 -55.5t-49.5 -143.5t50 -143.5t127 -55.5q52 0 89.5 27t50.5 69l91 -19q-18 -66 -70 -108.5t-124 -51.5l-42 -190l-77 10l42 181q-101 14 -164.5 89.5t-63.5 191.5z
" />
    <glyph glyph-name="D.small" horiz-adv-x="598" 
d="M544 272q0 -130 -81 -201t-221 -71h-152v544h164q130 0 210 -73t80 -199zM451 272q0 89 -52.5 139t-140.5 50h-78v-379h78q88 0 140.5 50.5t52.5 139.5z" />
    <glyph glyph-name="Dcaron.small" horiz-adv-x="598" 
d="M284 615l77 74h84l-96 -106h-131l-95 106h83zM544 272q0 -130 -81 -201t-221 -71h-152v544h164q130 0 210 -73t80 -199zM451 272q0 89 -52.5 139t-140.5 50h-78v-379h78q88 0 140.5 50.5t52.5 139.5z" />
    <glyph glyph-name="Dcroat.small" horiz-adv-x="598" 
d="M544 272q0 -130 -81 -201t-221 -71h-152v238h-71v71h71v235h164q130 0 210 -73t80 -199zM305 309v-71h-125v-156h78q88 0 140.5 50.5t52.5 139.5t-52.5 139t-140.5 50h-78v-152h125z" />
    <glyph glyph-name="Eth.small" horiz-adv-x="598" 
d="M544 272q0 -130 -81 -201t-221 -71h-152v238h-71v71h71v235h164q130 0 210 -73t80 -199zM305 309v-71h-125v-156h78q88 0 140.5 50.5t52.5 139.5t-52.5 139t-140.5 50h-78v-152h125z" />
    <glyph glyph-name="E.small" horiz-adv-x="520" 
d="M90 544h370v-81h-280v-148h208v-80h-208v-155h280v-80h-370v544z" />
    <glyph glyph-name="Egrave.small" horiz-adv-x="520" 
d="M243 689l73 -106h-81l-98 106h106zM90 544h370v-81h-280v-148h208v-80h-208v-155h280v-80h-370v544z" />
    <glyph glyph-name="Eacute.small" horiz-adv-x="520" 
d="M414 689l-98 -106h-81l73 106h106zM90 544h370v-81h-280v-148h208v-80h-208v-155h280v-80h-370v544z" />
    <glyph glyph-name="Ecircumflex.small" horiz-adv-x="520" 
d="M341 689l96 -106h-84l-78 74l-77 -74h-83l95 106h131zM90 544h370v-81h-280v-148h208v-80h-208v-155h280v-80h-370v544z" />
    <glyph glyph-name="Ecaron.small" horiz-adv-x="520" 
d="M276 615l77 74h84l-96 -106h-131l-95 106h83zM90 544h370v-81h-280v-148h208v-80h-208v-155h280v-80h-370v544z" />
    <glyph glyph-name="Edieresis.small" horiz-adv-x="520" 
d="M216 685v-99h-81v99h81zM417 685v-99h-81v99h81zM90 544h370v-81h-280v-148h208v-80h-208v-155h280v-80h-370v544z" />
    <glyph glyph-name="Emacron.small" horiz-adv-x="520" 
d="M438 667v-62h-324v62h324zM90 544h370v-81h-280v-148h208v-80h-208v-155h280v-80h-370v544z" />
    <glyph glyph-name="Ebreve.small" horiz-adv-x="520" 
d="M276 576q-52 0 -95 26.5t-57 86.5h69q8 -28 32 -43.5t51 -15.5q28 0 51 15t32 44h69q-14 -60 -57 -86.5t-95 -26.5zM90 544h370v-81h-280v-148h208v-80h-208v-155h280v-80h-370v544z" />
    <glyph glyph-name="Edotaccent.small" horiz-adv-x="520" 
d="M319 675v-78h-87v78h87zM90 544h370v-81h-280v-148h208v-80h-208v-155h280v-80h-370v544z" />
    <glyph glyph-name="Eogonek.small" horiz-adv-x="512" 
d="M416 -200q-56 0 -88.5 22.5t-32.5 64.5q0 65 73 113h-278v544h370v-81h-280v-148h208v-80h-208v-155h280v-80q-90 -41 -90 -98q0 -22 16.5 -34.5t42.5 -12.5q16 0 31 3v-54q-17 -4 -44 -4z" />
    <glyph glyph-name="F.small" horiz-adv-x="499" 
d="M90 544h365v-81h-275v-155h203v-80h-203v-228h-90v544z" />
    <glyph glyph-name="G.small" horiz-adv-x="621" 
d="M553 397l-88 -26q-16 45 -55.5 72.5t-89.5 27.5q-76 0 -125.5 -55t-49.5 -144q0 -90 51 -145.5t129 -55.5q65 0 105 38.5t46 99.5h-150v81h246v-31q-3 -124 -70 -197.5t-178 -73.5q-118 0 -194 79.5t-76 204.5t75 204t189 79q86 0 148 -42t87 -116z" />
    <glyph glyph-name="Gcircumflex.small" horiz-adv-x="621" 
d="M383 689l96 -106h-84l-78 74l-77 -74h-83l95 106h131zM553 397l-88 -26q-16 45 -55.5 72.5t-89.5 27.5q-76 0 -125.5 -55t-49.5 -144q0 -90 51 -145.5t129 -55.5q65 0 105 38.5t46 99.5h-150v81h246v-31q-3 -124 -70 -197.5t-178 -73.5q-118 0 -194 79.5t-76 204.5
t75 204t189 79q86 0 148 -42t87 -116z" />
    <glyph glyph-name="Gbreve.small" horiz-adv-x="621" 
d="M318 576q-52 0 -95 26.5t-57 86.5h69q8 -28 32 -43.5t51 -15.5q28 0 51 15t32 44h69q-14 -60 -57 -86.5t-95 -26.5zM553 397l-88 -26q-16 45 -55.5 72.5t-89.5 27.5q-76 0 -125.5 -55t-49.5 -144q0 -90 51 -145.5t129 -55.5q65 0 105 38.5t46 99.5h-150v81h246v-31
q-3 -124 -70 -197.5t-178 -73.5q-118 0 -194 79.5t-76 204.5t75 204t189 79q86 0 148 -42t87 -116z" />
    <glyph glyph-name="Gdotaccent.small" horiz-adv-x="621" 
d="M362 675v-78h-87v78h87zM553 397l-88 -26q-16 45 -55.5 72.5t-89.5 27.5q-76 0 -125.5 -55t-49.5 -144q0 -90 51 -145.5t129 -55.5q65 0 105 38.5t46 99.5h-150v81h246v-31q-3 -124 -70 -197.5t-178 -73.5q-118 0 -194 79.5t-76 204.5t75 204t189 79q86 0 148 -42
t87 -116z" />
    <glyph glyph-name="Gcommaaccent.small" horiz-adv-x="621" 
d="M553 397l-88 -26q-16 45 -55.5 72.5t-89.5 27.5q-76 0 -125.5 -55t-49.5 -144q0 -90 51 -145.5t129 -55.5q65 0 105 38.5t46 99.5h-150v81h246v-31q-3 -124 -70 -197.5t-178 -73.5q-118 0 -194 79.5t-76 204.5t75 204t189 79q86 0 148 -42t87 -116zM365 -62l-57 -138h-72
l45 138h84z" />
    <glyph glyph-name="H.small" horiz-adv-x="626" 
d="M447 544h89v-544h-89v231h-267v-231h-90v544h90v-231h267v231z" />
    <glyph glyph-name="Hcircumflex.small" horiz-adv-x="626" 
d="M378 690l96 -106h-84l-78 74l-77 -74h-83l95 106h131zM447 544h89v-544h-89v231h-267v-231h-90v544h90v-231h267v231z" />
    <glyph glyph-name="Hbar.small" horiz-adv-x="626" 
d="M600 459v-72h-64v-387h-89v231h-267v-231h-90v387h-64v72h64v85h90v-85h267v85h89v-85h64zM180 387v-74h267v74h-267z" />
    <glyph glyph-name="I.small" horiz-adv-x="270" 
d="M90 544h90v-544h-90v544z" />
    <glyph glyph-name="Igrave.small" horiz-adv-x="270" 
d="M101 689l73 -106h-81l-98 106h106zM90 544h90v-544h-90v544z" />
    <glyph glyph-name="Iacute.small" horiz-adv-x="270" 
d="M271 689l-98 -106h-81l73 106h106zM90 544h90v-544h-90v544z" />
    <glyph glyph-name="Icircumflex.small" horiz-adv-x="270" 
d="M198 689l96 -106h-84l-78 74l-77 -74h-83l95 106h131zM90 544h90v-544h-90v544z" />
    <glyph glyph-name="Itilde.small" horiz-adv-x="270" 
d="M198 587q-28 0 -70 21.5t-58 21.5q-32 0 -40 -42h-53q15 97 91 97q29 0 70.5 -21t57.5 -21q32 0 40 42h53q-15 -98 -91 -98zM90 544h90v-544h-90v544z" />
    <glyph glyph-name="Idieresis.small" horiz-adv-x="270" 
d="M73 685v-99h-81v99h81zM274 685v-99h-81v99h81zM90 544h90v-544h-90v544z" />
    <glyph glyph-name="Imacron.small" horiz-adv-x="270" 
d="M295 667v-62h-324v62h324zM90 544h90v-544h-90v544z" />
    <glyph glyph-name="Ibreve.small" horiz-adv-x="270" 
d="M133 576q-52 0 -95 26.5t-57 86.5h69q8 -28 32 -43.5t51 -15.5q28 0 51 15t32 44h69q-14 -60 -57 -86.5t-95 -26.5zM90 544h90v-544h-90v544z" />
    <glyph glyph-name="Idotaccent.small" horiz-adv-x="270" 
d="M177 675v-78h-87v78h87zM90 544h90v-544h-90v544z" />
    <glyph glyph-name="Iogonek.small" horiz-adv-x="270" 
d="M135 -200q-56 0 -88.5 22.5t-32.5 64.5q0 66 76 115v542h90v-544h-1q-90 -41 -90 -98q0 -22 16.5 -34.5t42.5 -12.5q16 0 31 3v-54q-17 -4 -44 -4z" />
    <glyph glyph-name="IJ.small" horiz-adv-x="635" 
d="M90 544h90v-544h-90v544zM380 -8q-44 0 -74 14v83q28 -15 58 -15q98 0 98 119v268h-130v83h219v-354q0 -198 -171 -198z" />
    <glyph glyph-name="J.small" horiz-adv-x="356" 
d="M107 -8q-44 0 -74 14v83q28 -15 58 -15q98 0 98 119v268h-130v83h219v-354q0 -198 -171 -198z" />
    <glyph glyph-name="Jcircumflex.small" horiz-adv-x="356" 
d="M232 689l96 -106h-84l-78 74l-77 -74h-83l95 106h131zM107 -8q-44 0 -74 14v83q28 -15 58 -15q98 0 98 119v268h-130v83h219v-354q0 -198 -171 -198z" />
    <glyph glyph-name="K.small" horiz-adv-x="538" 
d="M180 257v-257h-90v544h90v-248l218 248h105l-230 -258l250 -286h-116z" />
    <glyph glyph-name="Kcommaaccent.small" horiz-adv-x="538" 
d="M180 257v-257h-90v544h90v-248l218 248h105l-230 -258l250 -286h-116zM320 -62l-57 -138h-72l45 138h84z" />
    <glyph glyph-name="L.small" horiz-adv-x="437" 
d="M90 0v544h90v-462h240v-82h-330z" />
    <glyph glyph-name="Lacute.small" horiz-adv-x="437" 
d="M271 689l-98 -106h-81l73 106h106zM90 0v544h90v-462h240v-82h-330z" />
    <glyph glyph-name="Lcaron.small" horiz-adv-x="437" 
d="M90 0v544h90v-462h240v-82h-330zM371 543l-65 -207h-66l46 207h85z" />
    <glyph glyph-name="Lcommaaccent.small" horiz-adv-x="437" 
d="M90 0v544h90v-462h240v-82h-330zM300 -62l-57 -138h-72l45 138h84z" />
    <glyph glyph-name="Lslash.small" horiz-adv-x="441" 
d="M331 351v-74l-148 -43v-152h240v-82h-330v208l-74 -21v75l74 21v261h90v-235z" />
    <glyph glyph-name="Ldot.small" horiz-adv-x="437" 
d="M90 0v544h90v-462h240v-82h-330zM400 329v-91h-87v91h87z" />
    <glyph glyph-name="M.small" horiz-adv-x="764" 
d="M674 544v-544h-90v426h-3l-161 -426h-76l-161 426h-3v-426h-90v544h139l154 -407h3l156 407h132z" />
    <glyph glyph-name="N.small" horiz-adv-x="644" 
d="M554 544v-549h-88l-286 400v-395h-90v548h88l287 -400v396h89z" />
    <glyph glyph-name="Nacute.small" horiz-adv-x="644" 
d="M464 689l-98 -106h-81l73 106h106zM554 544v-549h-88l-286 400v-395h-90v548h88l287 -400v396h89z" />
    <glyph glyph-name="Ncaron.small" horiz-adv-x="644" 
d="M327 615l77 74h84l-96 -106h-131l-95 106h83zM554 544v-549h-88l-286 400v-395h-90v548h88l287 -400v396h89z" />
    <glyph glyph-name="Ntilde.small" horiz-adv-x="644" 
d="M391 587q-29 0 -70 21.5t-58 21.5q-33 0 -40 -42h-53q15 97 91 97q29 0 70.5 -21t57.5 -21q32 0 40 42h53q-15 -98 -91 -98zM554 544v-549h-88l-286 400v-395h-90v548h88l287 -400v396h89z" />
    <glyph glyph-name="Ncommaaccent.small" horiz-adv-x="644" 
d="M554 544v-549h-88l-286 400v-395h-90v548h88l287 -400v396h89zM370 -62l-57 -138h-72l45 138h84z" />
    <glyph glyph-name="Eng.small" horiz-adv-x="641" 
d="M377 -155q-37 0 -71 13v84q28 -15 60 -15q84 0 95 76l-281 388v-391h-90v548h85l287 -395v391h89v-501q0 -198 -174 -198z" />
    <glyph glyph-name="O.small" horiz-adv-x="655" 
d="M601 272q0 -123 -78.5 -203.5t-194.5 -80.5q-118 0 -196 80.5t-78 203.5q0 124 78 203.5t196 79.5q117 0 195 -80t78 -203zM509 272q0 88 -51.5 143.5t-129.5 55.5t-130 -55.5t-52 -143.5q0 -87 52 -143t130 -56q77 0 129 56t52 143z" />
    <glyph glyph-name="Ograve.small" horiz-adv-x="655" 
d="M297 689l73 -106h-81l-98 106h106zM601 272q0 -123 -78.5 -203.5t-194.5 -80.5q-118 0 -196 80.5t-78 203.5q0 124 78 203.5t196 79.5q117 0 195 -80t78 -203zM509 272q0 88 -51.5 143.5t-129.5 55.5t-130 -55.5t-52 -143.5q0 -87 52 -143t130 -56q77 0 129 56t52 143z
" />
    <glyph glyph-name="Oacute.small" horiz-adv-x="655" 
d="M467 689l-98 -106h-81l73 106h106zM601 272q0 -123 -78.5 -203.5t-194.5 -80.5q-118 0 -196 80.5t-78 203.5q0 124 78 203.5t196 79.5q117 0 195 -80t78 -203zM509 272q0 88 -51.5 143.5t-129.5 55.5t-130 -55.5t-52 -143.5q0 -87 52 -143t130 -56q77 0 129 56t52 143z
" />
    <glyph glyph-name="Ocircumflex.small" horiz-adv-x="655" 
d="M394 689l96 -106h-84l-78 74l-77 -74h-83l95 106h131zM601 272q0 -123 -78.5 -203.5t-194.5 -80.5q-118 0 -196 80.5t-78 203.5q0 124 78 203.5t196 79.5q117 0 195 -80t78 -203zM509 272q0 88 -51.5 143.5t-129.5 55.5t-130 -55.5t-52 -143.5q0 -87 52 -143t130 -56
q77 0 129 56t52 143z" />
    <glyph glyph-name="Otilde.small" horiz-adv-x="655" 
d="M394 587q-28 0 -70 21.5t-58 21.5q-32 0 -40 -42h-53q15 97 91 97q29 0 70.5 -21t57.5 -21q32 0 40 42h53q-15 -98 -91 -98zM601 272q0 -123 -78.5 -203.5t-194.5 -80.5q-118 0 -196 80.5t-78 203.5q0 124 78 203.5t196 79.5q117 0 195 -80t78 -203zM509 272
q0 88 -51.5 143.5t-129.5 55.5t-130 -55.5t-52 -143.5q0 -87 52 -143t130 -56q77 0 129 56t52 143z" />
    <glyph glyph-name="Odieresis.small" horiz-adv-x="655" 
d="M269 685v-99h-81v99h81zM470 685v-99h-81v99h81zM601 272q0 -123 -78.5 -203.5t-194.5 -80.5q-118 0 -196 80.5t-78 203.5q0 124 78 203.5t196 79.5q117 0 195 -80t78 -203zM509 272q0 88 -51.5 143.5t-129.5 55.5t-130 -55.5t-52 -143.5q0 -87 52 -143t130 -56
q77 0 129 56t52 143z" />
    <glyph glyph-name="Omacron.small" horiz-adv-x="655" 
d="M491 667v-62h-324v62h324zM601 272q0 -123 -78.5 -203.5t-194.5 -80.5q-118 0 -196 80.5t-78 203.5q0 124 78 203.5t196 79.5q117 0 195 -80t78 -203zM509 272q0 88 -51.5 143.5t-129.5 55.5t-130 -55.5t-52 -143.5q0 -87 52 -143t130 -56q77 0 129 56t52 143z" />
    <glyph glyph-name="Obreve.small" horiz-adv-x="655" 
d="M329 576q-52 0 -95 26.5t-57 86.5h69q8 -28 32 -43.5t51 -15.5q28 0 51 15t32 44h69q-14 -60 -57 -86.5t-95 -26.5zM601 272q0 -123 -78.5 -203.5t-194.5 -80.5q-118 0 -196 80.5t-78 203.5q0 124 78 203.5t196 79.5q117 0 195 -80t78 -203zM509 272q0 88 -51.5 143.5
t-129.5 55.5t-130 -55.5t-52 -143.5q0 -87 52 -143t130 -56q77 0 129 56t52 143z" />
    <glyph glyph-name="Ohungarumlaut.small" horiz-adv-x="655" 
d="M379 689l-98 -106h-81l73 106h106zM551 689l-98 -106h-81l73 106h106zM601 272q0 -123 -78.5 -203.5t-194.5 -80.5q-118 0 -196 80.5t-78 203.5q0 124 78 203.5t196 79.5q117 0 195 -80t78 -203zM509 272q0 88 -51.5 143.5t-129.5 55.5t-130 -55.5t-52 -143.5
q0 -87 52 -143t130 -56q77 0 129 56t52 143z" />
    <glyph glyph-name="Oslash.small" horiz-adv-x="655" 
d="M181 29l-32 -41h-95l69 90q-69 82 -69 194q0 124 78 203.5t196 79.5q81 0 145 -40l30 40h98l-68 -91q68 -77 68 -192q0 -123 -78.5 -203.5t-194.5 -80.5q-76 0 -147 41zM146 272q0 -72 36 -124l235 300q-41 23 -89 23q-78 0 -130 -55.5t-52 -143.5zM509 272q0 74 -36 123
l-234 -299q41 -23 89 -23q77 0 129 56t52 143z" />
    <glyph glyph-name="Oslashacute.small" horiz-adv-x="655" 
d="M459 689l-98 -106h-81l73 106h106zM181 29l-32 -41h-95l69 90q-69 82 -69 194q0 124 78 203.5t196 79.5q81 0 145 -40l30 40h98l-68 -91q68 -77 68 -192q0 -123 -78.5 -203.5t-194.5 -80.5q-76 0 -147 41zM146 272q0 -72 36 -124l235 300q-41 23 -89 23q-78 0 -130 -55.5
t-52 -143.5zM509 272q0 74 -36 123l-234 -299q41 -23 89 -23q77 0 129 56t52 143z" />
    <glyph glyph-name="OE.small" horiz-adv-x="855" 
d="M61 272q0 130 81 201t221 71h432v-81h-280v-148h208v-80h-208v-155h280v-80h-444q-130 0 -210 73t-80 199zM154 272q0 -89 52.5 -139t140.5 -50h78v379h-78q-88 0 -140.5 -50.5t-52.5 -139.5z" />
    <glyph glyph-name="P.small" horiz-adv-x="513" 
d="M295 201h-115v-201h-90v544h198q80 0 133.5 -47t53.5 -124q0 -74 -50.5 -123t-129.5 -49zM383 371q0 39 -27.5 66t-81.5 27h-94v-183h101q48 0 75 26.5t27 63.5z" />
    <glyph glyph-name="Q.small" horiz-adv-x="655" 
d="M538 -53l-83 -10l-37 65q-45 -14 -90 -14q-118 0 -196 80.5t-78 203.5q0 124 78 203.5t196 79.5q117 0 195 -80t78 -203q0 -75 -30.5 -136.5t-84.5 -98.5zM509 272q0 88 -51.5 143.5t-129.5 55.5t-130 -55.5t-52 -143.5q0 -87 52 -143t130 -56q25 0 46 6l-51 89l82 10
l37 -64q67 57 67 158z" />
    <glyph glyph-name="R.small" horiz-adv-x="532" 
d="M492 0h-104l-128 221h-80v-221h-90v544h194q77 0 128.5 -42t51.5 -122q0 -54 -30 -93.5t-82 -55.5zM371 380q0 35 -24 59.5t-76 24.5h-91v-168h95q48 0 72 24t24 60z" />
    <glyph glyph-name="Racute.small" horiz-adv-x="532" 
d="M398 685l-98 -106h-81l73 106h106zM492 0h-104l-128 221h-80v-221h-90v544h194q77 0 128.5 -42t51.5 -122q0 -54 -30 -93.5t-82 -55.5zM371 380q0 35 -24 59.5t-76 24.5h-91v-168h95q48 0 72 24t24 60z" />
    <glyph glyph-name="Rcaron.small" horiz-adv-x="532" 
d="M260 611l77 74h84l-96 -106h-131l-95 106h83zM492 0h-104l-128 221h-80v-221h-90v544h194q77 0 128.5 -42t51.5 -122q0 -54 -30 -93.5t-82 -55.5zM371 380q0 35 -24 59.5t-76 24.5h-91v-168h95q48 0 72 24t24 60z" />
    <glyph glyph-name="Rcommaaccent.small" horiz-adv-x="532" 
d="M492 0h-104l-128 221h-80v-221h-90v544h194q77 0 128.5 -42t51.5 -122q0 -54 -30 -93.5t-82 -55.5zM371 380q0 35 -24 59.5t-76 24.5h-91v-168h95q48 0 72 24t24 60zM318 -62l-57 -138h-72l45 138h84z" />
    <glyph glyph-name="S.small" horiz-adv-x="493" 
d="M253 -12q-77 0 -133 38t-66 107l86 16q6 -41 38.5 -63t74.5 -22q45 0 72 22.5t27 61.5q0 27 -15.5 44.5t-40 26.5t-54 16t-59.5 17.5t-54.5 25.5t-40 45t-15.5 73q0 72 51 115.5t131 43.5q76 0 124.5 -38.5t63.5 -105.5l-89 -18q-6 39 -32.5 62.5t-70.5 23.5
q-38 0 -62.5 -20t-24.5 -54q0 -35 28.5 -54.5t69.5 -29t82.5 -23t70 -48t28.5 -92.5q0 -77 -53 -123.5t-137 -46.5z" />
    <glyph glyph-name="Sacute.small" horiz-adv-x="493" 
d="M384 689l-98 -106h-81l73 106h106zM253 -12q-77 0 -133 38t-66 107l86 16q6 -41 38.5 -63t74.5 -22q45 0 72 22.5t27 61.5q0 27 -15.5 44.5t-40 26.5t-54 16t-59.5 17.5t-54.5 25.5t-40 45t-15.5 73q0 72 51 115.5t131 43.5q76 0 124.5 -38.5t63.5 -105.5l-89 -18
q-6 39 -32.5 62.5t-70.5 23.5q-38 0 -62.5 -20t-24.5 -54q0 -35 28.5 -54.5t69.5 -29t82.5 -23t70 -48t28.5 -92.5q0 -77 -53 -123.5t-137 -46.5z" />
    <glyph glyph-name="Scircumflex.small" horiz-adv-x="493" 
d="M311 689l96 -106h-84l-78 74l-77 -74h-83l95 106h131zM253 -12q-77 0 -133 38t-66 107l86 16q6 -41 38.5 -63t74.5 -22q45 0 72 22.5t27 61.5q0 27 -15.5 44.5t-40 26.5t-54 16t-59.5 17.5t-54.5 25.5t-40 45t-15.5 73q0 72 51 115.5t131 43.5q76 0 124.5 -38.5
t63.5 -105.5l-89 -18q-6 39 -32.5 62.5t-70.5 23.5q-38 0 -62.5 -20t-24.5 -54q0 -35 28.5 -54.5t69.5 -29t82.5 -23t70 -48t28.5 -92.5q0 -77 -53 -123.5t-137 -46.5z" />
    <glyph glyph-name="Scaron.small" horiz-adv-x="493" 
d="M247 615l77 74h84l-96 -106h-131l-95 106h83zM253 -12q-77 0 -133 38t-66 107l86 16q6 -41 38.5 -63t74.5 -22q45 0 72 22.5t27 61.5q0 27 -15.5 44.5t-40 26.5t-54 16t-59.5 17.5t-54.5 25.5t-40 45t-15.5 73q0 72 51 115.5t131 43.5q76 0 124.5 -38.5t63.5 -105.5
l-89 -18q-6 39 -32.5 62.5t-70.5 23.5q-38 0 -62.5 -20t-24.5 -54q0 -35 28.5 -54.5t69.5 -29t82.5 -23t70 -48t28.5 -92.5q0 -77 -53 -123.5t-137 -46.5z" />
    <glyph glyph-name="Scedilla.small" horiz-adv-x="493" 
d="M289 -10l-42 -190l-77 10l42 181q-63 9 -106 46t-52 96l86 16q6 -41 38.5 -63t74.5 -22q45 0 72 22.5t27 61.5q0 27 -15.5 44.5t-40 26.5t-54 16t-59.5 17.5t-54.5 25.5t-40 45t-15.5 73q0 72 51 115.5t131 43.5q76 0 124.5 -38.5t63.5 -105.5l-89 -18q-6 39 -32.5 62.5
t-70.5 23.5q-38 0 -62.5 -20t-24.5 -54q0 -35 28.5 -54.5t69.5 -29t82.5 -23t70 -48t28.5 -92.5q0 -68 -42 -113t-112 -55z" />
    <glyph glyph-name="Scommaaccent.small" horiz-adv-x="493" 
d="M253 -12q-77 0 -133 38t-66 107l86 16q6 -41 38.5 -63t74.5 -22q45 0 72 22.5t27 61.5q0 27 -15.5 44.5t-40 26.5t-54 16t-59.5 17.5t-54.5 25.5t-40 45t-15.5 73q0 72 51 115.5t131 43.5q76 0 124.5 -38.5t63.5 -105.5l-89 -18q-6 39 -32.5 62.5t-70.5 23.5
q-38 0 -62.5 -20t-24.5 -54q0 -35 28.5 -54.5t69.5 -29t82.5 -23t70 -48t28.5 -92.5q0 -77 -53 -123.5t-137 -46.5zM294 -62l-57 -138h-72l45 138h84z" />
    <glyph glyph-name="germandbls.small" horiz-adv-x="985" 
d="M746 -12q-82 0 -137.5 42t-64.5 119h90q6 -42 38 -63.5t74 -21.5q45 0 72 22.5t27 61.5q0 36 -29.5 55t-71 28.5t-83 23t-71 48.5t-29.5 93q0 72 51 115.5t129 43.5q80 0 131 -44.5t60 -117.5h-89q-7 39 -33.5 63t-69.5 24q-38 0 -62.5 -20.5t-24.5 -54.5q0 -35 29 -54.5
t70.5 -29t83.5 -23t71 -48t29 -92.5q0 -77 -53 -123.5t-137 -46.5zM253 -12q-77 0 -133 38t-66 107l86 16q6 -41 38.5 -63t74.5 -22q45 0 72 22.5t27 61.5q0 27 -15.5 44.5t-40 26.5t-54 16t-59.5 17.5t-54.5 25.5t-40 45t-15.5 73q0 72 51 115.5t131 43.5q76 0 124.5 -38.5
t63.5 -105.5l-89 -18q-6 39 -32.5 62.5t-70.5 23.5q-38 0 -62.5 -20t-24.5 -54q0 -35 28.5 -54.5t69.5 -29t82.5 -23t70 -48t28.5 -92.5q0 -77 -53 -123.5t-137 -46.5z" />
    <glyph glyph-name="T.small" horiz-adv-x="470" 
d="M29 544h412v-83h-161v-461h-89v461h-162v83z" />
    <glyph glyph-name="Tcaron.small" horiz-adv-x="470" 
d="M234 615l77 74h84l-96 -106h-131l-95 106h83zM29 544h412v-83h-161v-461h-89v461h-162v83z" />
    <glyph glyph-name="Tcommaaccent.small" horiz-adv-x="470" 
d="M29 544h412v-83h-161v-461h-89v461h-162v83zM276 -62l-57 -138h-72l45 138h84z" />
    <glyph glyph-name="Tbar.small" horiz-adv-x="470" 
d="M410 282v-71h-130v-211h-89v211h-131v71h131v179h-162v83h412v-83h-161v-179h130z" />
    <glyph glyph-name="Thorn.small" horiz-adv-x="513" 
d="M90 544h90v-101h108q80 0 133.5 -46.5t53.5 -124.5q0 -73 -50.5 -122t-129.5 -49h-115v-101h-90v544zM274 363h-94v-183h101q48 0 75 26.5t27 63.5q0 39 -27.5 66t-81.5 27z" />
    <glyph glyph-name="U.small" horiz-adv-x="596" 
d="M297 -12q-103 0 -161 61t-58 177v318h88v-316q0 -75 34.5 -115t96.5 -40q63 0 98 40t35 114v317h89v-317q0 -117 -58.5 -178t-163.5 -61z" />
    <glyph glyph-name="Ugrave.small" horiz-adv-x="596" 
d="M267 689l73 -106h-81l-98 106h106zM297 -12q-103 0 -161 61t-58 177v318h88v-316q0 -75 34.5 -115t96.5 -40q63 0 98 40t35 114v317h89v-317q0 -117 -58.5 -178t-163.5 -61z" />
    <glyph glyph-name="Uacute.small" horiz-adv-x="596" 
d="M437 689l-98 -106h-81l73 106h106zM297 -12q-103 0 -161 61t-58 177v318h88v-316q0 -75 34.5 -115t96.5 -40q63 0 98 40t35 114v317h89v-317q0 -117 -58.5 -178t-163.5 -61z" />
    <glyph glyph-name="Ucircumflex.small" horiz-adv-x="596" 
d="M364 689l96 -106h-84l-78 74l-77 -74h-83l95 106h131zM297 -12q-103 0 -161 61t-58 177v318h88v-316q0 -75 34.5 -115t96.5 -40q63 0 98 40t35 114v317h89v-317q0 -117 -58.5 -178t-163.5 -61z" />
    <glyph glyph-name="Utilde.small" horiz-adv-x="596" 
d="M364 587q-28 0 -70 21.5t-58 21.5q-32 0 -40 -42h-53q15 97 91 97q29 0 70.5 -21t57.5 -21q32 0 40 42h53q-15 -98 -91 -98zM297 -12q-103 0 -161 61t-58 177v318h88v-316q0 -75 34.5 -115t96.5 -40q63 0 98 40t35 114v317h89v-317q0 -117 -58.5 -178t-163.5 -61z" />
    <glyph glyph-name="Udieresis.small" horiz-adv-x="596" 
d="M239 685v-99h-81v99h81zM440 685v-99h-81v99h81zM297 -12q-103 0 -161 61t-58 177v318h88v-316q0 -75 34.5 -115t96.5 -40q63 0 98 40t35 114v317h89v-317q0 -117 -58.5 -178t-163.5 -61z" />
    <glyph glyph-name="Umacron.small" horiz-adv-x="596" 
d="M461 667v-62h-324v62h324zM297 -12q-103 0 -161 61t-58 177v318h88v-316q0 -75 34.5 -115t96.5 -40q63 0 98 40t35 114v317h89v-317q0 -117 -58.5 -178t-163.5 -61z" />
    <glyph glyph-name="Ubreve.small" horiz-adv-x="596" 
d="M299 576q-52 0 -95 26.5t-57 86.5h69q8 -28 32 -43.5t51 -15.5q28 0 51 15t32 44h69q-14 -60 -57 -86.5t-95 -26.5zM297 -12q-103 0 -161 61t-58 177v318h88v-316q0 -75 34.5 -115t96.5 -40q63 0 98 40t35 114v317h89v-317q0 -117 -58.5 -178t-163.5 -61z" />
    <glyph glyph-name="Uring.small" horiz-adv-x="596" 
d="M299 582q-46 0 -77.5 29t-31.5 73t31.5 72.5t77.5 28.5q47 0 78 -28.5t31 -72.5q0 -45 -31 -73.5t-78 -28.5zM299 628q26 0 41.5 16t15.5 40t-15.5 39.5t-41.5 15.5t-41.5 -15.5t-15.5 -39.5t15.5 -40t41.5 -16zM297 -12q-103 0 -161 61t-58 177v318h88v-316
q0 -75 34.5 -115t96.5 -40q63 0 98 40t35 114v317h89v-317q0 -117 -58.5 -178t-163.5 -61z" />
    <glyph glyph-name="Uhungarumlaut.small" horiz-adv-x="596" 
d="M349 689l-98 -106h-81l73 106h106zM521 689l-98 -106h-81l73 106h106zM297 -12q-103 0 -161 61t-58 177v318h88v-316q0 -75 34.5 -115t96.5 -40q63 0 98 40t35 114v317h89v-317q0 -117 -58.5 -178t-163.5 -61z" />
    <glyph glyph-name="Uogonek.small" horiz-adv-x="596" 
d="M347 -200q-59 0 -91 23t-32 65q0 61 56 99v5q-1 -1 -14 -1q-89 8 -138.5 68t-49.5 167v318h88v-316q0 -75 34.5 -115t96.5 -40q63 0 98 40t35 114v317h89v-317q0 -173 -137 -228q-82 -34 -82 -93q0 -51 60 -51q15 0 30 3v-54q-17 -4 -43 -4z" />
    <glyph glyph-name="V.small" horiz-adv-x="547" 
d="M524 544l-203 -549h-96l-203 549h97l154 -432h3l155 432h93z" />
    <glyph glyph-name="W.small" horiz-adv-x="785" 
d="M171 -5l-145 549h97l102 -398h4l121 398h91l121 -398h5l100 398h92l-144 -549h-95l-126 412h-3l-125 -412h-95z" />
    <glyph glyph-name="Wgrave.small" horiz-adv-x="785" 
d="M360 689l73 -106h-81l-98 106h106zM171 -5l-145 549h97l102 -398h4l121 398h91l121 -398h5l100 398h92l-144 -549h-95l-126 412h-3l-125 -412h-95z" />
    <glyph glyph-name="Wacute.small" horiz-adv-x="785" 
d="M531 689l-98 -106h-81l73 106h106zM171 -5l-145 549h97l102 -398h4l121 398h91l121 -398h5l100 398h92l-144 -549h-95l-126 412h-3l-125 -412h-95z" />
    <glyph glyph-name="Wcircumflex.small" horiz-adv-x="785" 
d="M457 689l96 -106h-84l-78 74l-77 -74h-83l95 106h131zM171 -5l-145 549h97l102 -398h4l121 398h91l121 -398h5l100 398h92l-144 -549h-95l-126 412h-3l-125 -412h-95z" />
    <glyph glyph-name="Wdieresis.small" horiz-adv-x="785" 
d="M332 685v-99h-81v99h81zM533 685v-99h-81v99h81zM171 -5l-145 549h97l102 -398h4l121 398h91l121 -398h5l100 398h92l-144 -549h-95l-126 412h-3l-125 -412h-95z" />
    <glyph glyph-name="X.small" horiz-adv-x="572" 
d="M341 283l187 -283h-103l-140 211l-138 -211h-103l187 283l-172 261h104l124 -190l125 190h102z" />
    <glyph glyph-name="Y.small" horiz-adv-x="506" 
d="M298 227v-227h-89v227l-190 317h105l131 -228h3l131 228h98z" />
    <glyph glyph-name="Ygrave.small" horiz-adv-x="506" 
d="M219 689l73 -106h-81l-98 106h106zM298 227v-227h-89v227l-190 317h105l131 -228h3l131 228h98z" />
    <glyph glyph-name="Yacute.small" horiz-adv-x="506" 
d="M389 689l-98 -106h-81l73 106h106zM298 227v-227h-89v227l-190 317h105l131 -228h3l131 228h98z" />
    <glyph glyph-name="Ycircumflex.small" horiz-adv-x="506" 
d="M316 689l96 -106h-84l-78 74l-77 -74h-83l95 106h131zM298 227v-227h-89v227l-190 317h105l131 -228h3l131 228h98z" />
    <glyph glyph-name="Ydieresis.small" horiz-adv-x="506" 
d="M191 685v-99h-81v99h81zM392 685v-99h-81v99h81zM298 227v-227h-89v227l-190 317h105l131 -228h3l131 228h98z" />
    <glyph glyph-name="Z.small" horiz-adv-x="522" 
d="M464 84v-84h-401v79l284 382h-268v83h381v-79l-284 -381h288z" />
    <glyph glyph-name="Zacute.small" horiz-adv-x="522" 
d="M407 689l-98 -106h-81l73 106h106zM464 84v-84h-401v79l284 382h-268v83h381v-79l-284 -381h288z" />
    <glyph glyph-name="Zcaron.small" horiz-adv-x="522" 
d="M269 615l77 74h84l-96 -106h-131l-95 106h83zM464 84v-84h-401v79l284 382h-268v83h381v-79l-284 -381h288z" />
    <glyph glyph-name="Zdotaccent.small" horiz-adv-x="522" 
d="M312 675v-78h-87v78h87zM464 84v-84h-401v79l284 382h-268v83h381v-79l-284 -381h288z" />
    <glyph glyph-name="a.superior" horiz-adv-x="402" 
d="M348 576v-226h-72v38h-2q-34 -49 -108 -49q-53 0 -87 30.5t-34 78.5q0 54 39.5 85t108.5 31q51 0 79 -15v32q0 32 -18 49.5t-51 17.5q-54 0 -69 -42l-73 11q14 44 52.5 69t92.5 25q66 0 104 -36t38 -99zM120 453q0 -25 18.5 -39.5t50.5 -14.5q33 0 58.5 20.5t25.5 46.5
v29q-23 16 -72 16q-38 0 -59.5 -15t-21.5 -43z" />
    <glyph glyph-name="b.superior" horiz-adv-x="445" 
d="M417 525q0 -81 -47 -134t-119 -53q-81 0 -116 55h-3v-43h-69v499h76v-192q15 24 45 39.5t68 15.5q71 0 118 -53t47 -134zM341 525q0 52 -28 86t-75 34t-74.5 -33t-27.5 -87q0 -53 28 -86.5t74 -33.5q47 0 75 34t28 86z" />
    <glyph glyph-name="c.superior" horiz-adv-x="388" 
d="M202 711q63 0 105 -29.5t56 -83.5l-73 -16q-21 63 -88 63q-47 0 -72.5 -33.5t-25.5 -86.5t25.5 -86.5t72.5 -33.5q64 0 86 63l74 -17q-15 -52 -57.5 -82t-102.5 -30q-76 0 -124.5 52t-48.5 134q0 83 48.5 134.5t124.5 51.5z" />
    <glyph glyph-name="d.superior" horiz-adv-x="445" 
d="M28 525q0 82 48 134.5t122 52.5q75 0 108 -51v188h76v-499h-70v46h-3q-15 -27 -47 -42.5t-68 -15.5q-71 0 -118.5 52.5t-47.5 134.5zM104 525q0 -52 28 -86t75 -34q46 0 74 33.5t28 86.5q0 54 -27.5 87t-74.5 33t-75 -34t-28 -86z" />
    <glyph glyph-name="e.superior" horiz-adv-x="400" 
d="M295 451l63 -20q-39 -92 -148 -92q-83 0 -132 52t-49 134q0 81 48 133.5t123 52.5q74 0 123 -49t50 -136v-21h-268q5 -48 32.5 -76t72.5 -28q59 0 85 50zM202 653q-40 0 -64.5 -25t-31.5 -70h189q-3 46 -29 70.5t-64 24.5z" />
    <glyph glyph-name="f.superior" horiz-adv-x="232" 
d="M71 635h-64v65h64v34q0 60 31.5 93.5t91.5 33.5q30 0 48 -6v-64q-12 4 -34 4q-30 0 -45.5 -18t-15.5 -50v-27h95v-65h-95v-285h-76v285z" />
    <glyph glyph-name="g.superior" horiz-adv-x="435" 
d="M33 537q0 78 46.5 126.5t114.5 48.5q69 0 102 -46h3v34h73v-316q0 -84 -43 -130.5t-123 -46.5q-56 0 -99.5 27.5t-57.5 70.5l74 14q6 -21 29.5 -34.5t53.5 -13.5q44 0 67.5 25.5t23.5 72.5v45q-26 -51 -109 -51q-64 0 -109.5 48t-45.5 126zM109 538q0 -50 26.5 -79.5
t67.5 -29.5q44 0 71 30t27 79q0 48 -27 77.5t-71 29.5q-41 0 -67.5 -29t-26.5 -78z" />
    <glyph glyph-name="h.superior" horiz-adv-x="423" 
d="M63 350v499h76v-184q39 47 102 47q57 0 92.5 -37.5t35.5 -100.5v-224h-76v207q0 88 -69 88q-36 0 -60.5 -26t-24.5 -65v-204h-76z" />
    <glyph glyph-name="i.superior" horiz-adv-x="201" 
d="M138 849v-84h-75v84h75zM138 700v-350h-75v350h75z" />
    <glyph glyph-name="j.superior" horiz-adv-x="185" 
d="M122 849v-84h-75v84h75zM-1 211q-5 0 -32 3v66q4 -1 18 -1q62 0 62 75v346h75v-353q0 -66 -31.5 -101t-91.5 -35z" />
    <glyph glyph-name="k.superior" horiz-adv-x="376" 
d="M138 517v-167h-75v499h75v-297l140 148h90l-154 -159l170 -191h-98z" />
    <glyph glyph-name="l.superior" horiz-adv-x="201" 
d="M63 350v499h75v-499h-75z" />
    <glyph glyph-name="m.superior" horiz-adv-x="638" 
d="M583 578v-228h-76v211q0 84 -66 84q-34 0 -57 -25t-23 -63v-207h-76v211q0 84 -67 84q-33 0 -56 -25.5t-23 -62.5v-207h-76v350h69v-39h3q32 51 102 51q39 0 68 -17t39 -46q15 28 45.5 45.5t68.5 17.5q57 0 91 -36t34 -98z" />
    <glyph glyph-name="n.superior" horiz-adv-x="423" 
d="M369 574v-224h-76v207q0 88 -69 88q-36 0 -60.5 -26t-24.5 -65v-204h-76v350h69v-41h3q35 53 108 53q58 0 92 -36.5t34 -101.5z" />
    <glyph glyph-name="o.superior" horiz-adv-x="418" 
d="M29 525q0 84 51.5 135t128.5 51q78 0 129 -51t51 -135q0 -83 -51.5 -134.5t-128.5 -51.5t-128.5 51.5t-51.5 134.5zM104 525q0 -53 29.5 -86.5t75.5 -33.5q47 0 75.5 33t28.5 87t-28.5 87t-75.5 33q-46 0 -75.5 -33.5t-29.5 -86.5z" />
    <glyph glyph-name="p.superior" horiz-adv-x="445" 
d="M417 525q0 -81 -48 -134t-122 -53q-36 0 -64.5 14t-43.5 37v-187h-76v498h69v-46h3q36 58 116 58q71 0 118.5 -52t47.5 -135zM341 525q0 52 -28 86t-75 34t-74.5 -33t-27.5 -87q0 -53 28 -86.5t74 -33.5q47 0 75 34t28 86z" />
    <glyph glyph-name="q.superior" horiz-adv-x="445" 
d="M28 525q0 81 47 134t119 53q37 0 69 -14.5t47 -39.5h2v42h70v-498h-76v191q-13 -24 -44 -39.5t-69 -15.5q-71 0 -118 53t-47 134zM104 525q0 -52 28 -86t75 -34q46 0 74 33.5t28 86.5q0 54 -27.5 87t-74.5 33t-75 -34t-28 -86z" />
    <glyph glyph-name="r.superior" horiz-adv-x="258" 
d="M63 350v350h69v-52h3q25 59 95 59q20 0 28 -5v-73q-12 5 -26 5q-42 0 -67.5 -28.5t-25.5 -87.5v-168h-76z" />
    <glyph glyph-name="s.superior" horiz-adv-x="339" 
d="M174 339q-54 0 -92 26t-47 69l69 11q12 -49 73 -49q29 0 44.5 14.5t15.5 37.5q0 22 -20 33t-48.5 16t-56.5 13t-48 31t-20 62q0 47 35.5 77.5t96.5 30.5q55 0 91 -26.5t43 -66.5l-71 -11q-4 20 -21.5 33t-43.5 13q-27 0 -41.5 -12t-14.5 -31q0 -22 20 -33t48.5 -16
t57 -13t48.5 -31t20 -62q0 -53 -39 -84.5t-99 -31.5z" />
    <glyph glyph-name="t.superior" horiz-adv-x="249" 
d="M185 342q-118 0 -118 124v169h-64v65h64v77l76 14v-91h100v-65h-100v-157q0 -38 14 -55t46 -17q23 0 36 9l9 -61q-31 -12 -63 -12z" />
    <glyph glyph-name="u.superior" horiz-adv-x="423" 
d="M360 700v-350h-69v41h-3q-34 -53 -108 -53q-58 0 -92 36.5t-34 101.5v224h76v-207q0 -41 18 -64.5t51 -23.5q36 0 60.5 26t24.5 65v204h76z" />
    <glyph glyph-name="v.superior" horiz-adv-x="367" 
d="M359 700l-141 -353h-68l-141 353h82l95 -259h2l96 259h75z" />
    <glyph glyph-name="w.superior" horiz-adv-x="547" 
d="M538 700l-108 -353h-74l-82 255l-81 -255h-76l-108 353h80l72 -249h2l80 249h69l80 -248h2l71 248h73z" />
    <glyph glyph-name="x.superior" horiz-adv-x="346" 
d="M220 531l123 -181h-86l-86 130l-86 -130h-83l123 179l-115 171h85l81 -121l80 121h82z" />
    <glyph glyph-name="y.superior" horiz-adv-x="367" 
d="M358 700l-197 -493h-74l63 155l-144 338h82l103 -250l93 250h74z" />
    <glyph glyph-name="z.superior" horiz-adv-x="340" 
d="M50 700h263v-59l-188 -228h198v-63h-287v58l188 229h-174v63z" />
    <glyph glyph-name="grave.cap" horiz-adv-x="500" 
d="M261 846l73 -106h-81l-98 106h106z" />
    <glyph glyph-name="acute.cap" horiz-adv-x="500" 
d="M345 846l-98 -106h-81l73 106h106z" />
    <glyph glyph-name="circumflex.cap" horiz-adv-x="500" 
d="M315 846l96 -106h-84l-78 74l-77 -74h-83l95 106h131z" />
    <glyph glyph-name="caron.cap" horiz-adv-x="500" 
d="M250 772l77 74h84l-96 -106h-131l-95 106h83z" />
    <glyph glyph-name="caronSlovak" horiz-adv-x="500" 
d="M315 700l-65 -207h-66l46 207h85z" />
    <glyph glyph-name="tilde.cap" horiz-adv-x="500" 
d="M314 744q-28 0 -70 21.5t-58 21.5q-32 0 -40 -42h-53q15 97 91 97q29 0 70.5 -21t57.5 -21q32 0 40 42h53q-15 -98 -91 -98z" />
    <glyph glyph-name="dieresis.cap" horiz-adv-x="500" 
d="M190 842v-99h-81v99h81zM391 842v-99h-81v99h81z" />
    <glyph glyph-name="macron.cap" horiz-adv-x="500" 
d="M412 824v-62h-324v62h324z" />
    <glyph glyph-name="breve.cap" horiz-adv-x="500" 
d="M250 733q-52 0 -95 26.5t-57 86.5h69q8 -28 32 -43.5t51 -15.5q28 0 51 15t32 44h69q-14 -60 -57 -86.5t-95 -26.5z" />
    <glyph glyph-name="ring.cap" horiz-adv-x="500" 
d="M250 739q-46 0 -77.5 29t-31.5 73t31.5 72.5t77.5 28.5q47 0 78 -28.5t31 -72.5q0 -45 -31 -73.5t-78 -28.5zM250 785q26 0 41.5 16t15.5 40t-15.5 39.5t-41.5 15.5t-41.5 -15.5t-15.5 -39.5t15.5 -40t41.5 -16z" />
    <glyph glyph-name="hungarumlaut.cap" horiz-adv-x="500" 
d="M259 846l-98 -106h-81l73 106h106zM431 846l-98 -106h-81l73 106h106z" />
    <glyph glyph-name="dotaccent.cap" horiz-adv-x="500" 
d="M293 832v-78h-87v78h87z" />
    <glyph glyph-name="commaaccent.alt" horiz-adv-x="500" 
d="M185 562l58 138h71l-45 -138h-84z" />
    <glyph glyph-name="hyphen.cap" horiz-adv-x="270" 
d="M250 315h-230v69h230v-69z" />
    <glyph glyph-name="exclamdown.cap" horiz-adv-x="311" 
d="M108 700h97v-113h-97v113zM103 0l16 490h73l16 -490h-105z" />
    <glyph glyph-name="questiondown.cap" horiz-adv-x="510" 
d="M228 700h97v-113h-97v113zM231 482v8h89v-17q0 -44 -17.5 -79t-42.5 -58t-50 -45.5t-42.5 -51.5t-17.5 -64q0 -41 30 -74q31 -33 86 -33q64 0 98.5 44.5t36.5 108.5l87 -7q-6 -98 -64 -163.5t-158 -65.5q-94 0 -151.5 55t-57.5 132q0 49 18 87.5t43.5 63t51 46.5
t43.5 50.5t18 62.5z" />
    <glyph glyph-name="guilsinglleft.cap" horiz-adv-x="288" 
d="M138 350l99 -202h-83l-99 202l99 202h83z" />
    <glyph glyph-name="guilsinglright.cap" horiz-adv-x="288" 
d="M233 350l-99 -202h-83l99 202l-99 202h83z" />
    <glyph glyph-name="guillemotleft.cap" horiz-adv-x="456" 
d="M138 350l99 -202h-83l-99 202l99 202h83zM306 350l99 -202h-83l-99 202l99 202h83z" />
    <glyph glyph-name="guillemotright.cap" horiz-adv-x="456" 
d="M233 350l-99 -202h-83l99 202l-99 202h83zM401 350l-99 -202h-83l99 202l-99 202h83z" />
    <glyph glyph-name="endash.cap" horiz-adv-x="500" 
d="M480 315h-460v69h460v-69z" />
    <glyph glyph-name="emdash.cap" horiz-adv-x="1000" 
d="M980 315h-960v69h960v-69z" />
    <glyph glyph-name="periodcentered.cap" horiz-adv-x="259" 
d="M177 294h-95v122h95v-122z" />
    <glyph glyph-name="parenleft.cap" horiz-adv-x="301" 
d="M45 350q0 142 46 252t101 153h86q-67 -61 -110 -166.5t-43 -238.5q0 -132 43 -238t110 -167h-86q-55 43 -101 153t-46 252z" />
    <glyph glyph-name="parenright.cap" horiz-adv-x="301" 
d="M256 350q0 -142 -46 -252t-101 -153h-86q67 59 110 166t43 239q0 133 -42.5 239t-110.5 166h86q55 -43 101 -153t46 -252z" />
    <glyph glyph-name="parenleft.small" horiz-adv-x="241" 
d="M34 271q0 109 34.5 195.5t76.5 119.5h78q-51 -49 -83 -131t-32 -184q0 -101 32.5 -183t82.5 -130h-78q-42 32 -76.5 118t-34.5 195z" />
    <glyph glyph-name="parenright.small" horiz-adv-x="241" 
d="M207 273q0 -110 -34.5 -195.5t-76.5 -119.5h-78q50 49 82.5 131.5t32.5 183.5q0 102 -32 183.5t-83 129.5h78q42 -32 76.5 -118t34.5 -195z" />
    <glyph glyph-name="bracketleft.cap" horiz-adv-x="284" 
d="M255 13v-68h-183v810h183v-68h-107v-674h107z" />
    <glyph glyph-name="bracketright.cap" horiz-adv-x="284" 
d="M29 687v68h183v-810h-183v68h107v674h-107z" />
    <glyph glyph-name="bracketleft.small" horiz-adv-x="229" 
d="M207 24v-66h-150v628h150v-67h-77v-495h77z" />
    <glyph glyph-name="bracketright.small" horiz-adv-x="229" 
d="M22 520v66h150v-628h-150v67h77v495h-77z" />
    <glyph glyph-name="braceleft.cap" horiz-adv-x="319" 
d="M290 11v-66q-34 2 -55.5 5t-48.5 14t-42.5 29t-26.5 52t-11 82v122q0 41 -15 54t-75 16v62q60 3 75 16t15 54v122q0 47 11 81.5t26.5 53t42 29.5t49 14t55.5 4v-66q-61 -2 -84.5 -25.5t-23.5 -94.5v-114q0 -54 -17 -76.5t-63 -26.5v-4q47 -4 63.5 -26t16.5 -77v-114
q0 -71 23.5 -94t84.5 -26z" />
    <glyph glyph-name="braceright.cap" horiz-adv-x="319" 
d="M28 689v66q33 -1 55.5 -4t49 -14t42 -29.5t26.5 -53t11 -81.5v-122q0 -41 15 -54t75 -16v-62q-60 -3 -75 -16t-15 -54v-122q0 -48 -11 -82t-26.5 -52t-42.5 -29t-48.5 -14t-55.5 -5v66q62 3 85 26t23 94v114q0 54 17 76.5t63 26.5v4q-47 4 -63.5 26t-16.5 77v114
q0 71 -23 94.5t-85 25.5z" />
    <glyph glyph-name="braceleft.small" horiz-adv-x="259" 
d="M237 21v-63q-73 1 -113 32q-38 30 -38 115v84q0 28 -12 38t-59 13v63q47 3 59 12t12 37v86q0 85 38 115q39 31 113 33v-63q-45 -1 -62 -17t-17 -65v-80q0 -48 -14 -66t-54 -22v-4q40 -3 54 -22t14 -71v-73q0 -49 17 -64.5t62 -17.5z" />
    <glyph glyph-name="braceright.small" horiz-adv-x="259" 
d="M22 523v63q78 -1 114.5 -33.5t36.5 -113.5v-84q0 -28 11.5 -37.5t59.5 -13.5v-63q-47 -1 -59 -11t-12 -38v-86q0 -85 -39 -115q-37 -31 -112 -33v63q46 2 62.5 17.5t16.5 64.5v80q0 48 14 66t54 22v4q-40 3 -54 22t-14 71v73q0 49 -16.5 65t-62.5 17z" />
    <glyph glyph-name="at.small" horiz-adv-x="896" 
d="M411 60q-72 0 -116 49.5t-44 131.5q0 102 55 173.5t142 71.5q41 0 72.5 -19t42.5 -51h2l8 51h82l-36 -261q-6 -42 8 -63.5t43 -21.5q46 0 78 52t32 135q0 141 -88.5 233t-236.5 92q-143 0 -240 -105t-97 -263q0 -155 98 -255t243 -100q62 0 121.5 22.5t99.5 59.5l29 -45
q-35 -39 -109.5 -67t-146.5 -28q-169 0 -283 114t-114 295q0 189 116 310t283 121q169 0 278.5 -107t109.5 -272q0 -111 -53 -182t-137 -71q-43 0 -70 21.5t-32 59.5h-2q-16 -35 -54.5 -58t-83.5 -23zM428 130q56 0 92 49t36 117q0 56 -26.5 88.5t-73.5 32.5q-55 0 -91 -49
t-36 -118q0 -56 26.5 -88t72.5 -32z" />
    <glyph glyph-name="at.cap" horiz-adv-x="896" 
d="M411 138q-72 0 -116 49.5t-44 131.5q0 102 55 173.5t142 71.5q41 0 72.5 -19t42.5 -51h2l8 51h82l-36 -261q-6 -42 8 -63.5t43 -21.5q46 0 78 52t32 135q0 141 -88.5 233t-236.5 92q-143 0 -240 -105t-97 -263q0 -155 98 -255t243 -100q62 0 121.5 22.5t99.5 59.5l29 -45
q-35 -39 -109.5 -67t-146.5 -28q-169 0 -283 114t-114 295q0 189 116 310t283 121q169 0 278.5 -107t109.5 -272q0 -111 -53 -182t-137 -71q-43 0 -70 21.5t-32 59.5h-2q-16 -35 -54.5 -58t-83.5 -23zM428 208q56 0 92 49t36 117q0 56 -26.5 88.5t-73.5 32.5q-55 0 -91 -49
t-36 -118q0 -56 26.5 -88t72.5 -32z" />
    <glyph glyph-name="zero.slash" horiz-adv-x="602" 
d="M302 -15q-120 0 -189.5 100.5t-69.5 264.5t69 264.5t188 100.5q120 0 189.5 -100.5t69.5 -264.5t-69 -264.5t-188 -100.5zM135 350q0 -96 26 -168l238 407q-39 44 -99 44q-78 0 -121.5 -78t-43.5 -205zM302 67q78 0 121.5 78t43.5 205q0 100 -27 169l-240 -404
q40 -48 102 -48z" />
    <glyph glyph-name="numbersign.LT" 
d="M403 197l-42 -197h-70l43 197h-151l-43 -197h-69l42 197h-102v68h116l37 170h-102v68h117l43 197h69l-42 -197h150l43 197h70l-43 -197h101v-68h-116l-36 -170h101v-68h-116zM193 262h157l39 175h-158z" />
    <glyph glyph-name="Euro.LT" 
d="M336 -15q-102 0 -165.5 68.5t-82.5 189.5h-81v62h74q-1 15 -1 45t1 45h-74v62h81q19 121 83 189.5t169 68.5q145 0 202 -133l-88 -24q-30 75 -117 75q-128 0 -156 -176h252v-62h-259q-1 -13 -1 -45q0 -30 1 -45h259v-62h-252q28 -176 156 -176q41 0 72 20t45 55l87 -25
q-26 -63 -80 -97.5t-125 -34.5z" />
    <glyph glyph-name="dollar.LT" 
d="M331 3v-104h-74v106q-74 9 -125.5 52t-63.5 114l82 21q7 -56 51 -85.5t103 -29.5q61 0 96.5 32t35.5 85q0 37 -19.5 61t-51.5 36.5t-70 21.5t-76 21t-70 30.5t-51.5 55t-19.5 88.5q0 77 49.5 128t129.5 61v105h74v-105q75 -10 123.5 -53t58.5 -107l-83 -23
q-7 48 -44 78.5t-95 30.5q-53 0 -86.5 -28t-33.5 -77q0 -37 19.5 -61t51 -36t69.5 -21.5t76 -21.5t69.5 -30.5t51 -55t19.5 -89.5q0 -82 -54.5 -136.5t-141.5 -63.5z" />
    <glyph glyph-name="cent.LT" 
d="M336 -13v-88h-73v89q-92 15 -147 85.5t-55 173.5t56 175t146 84v90h73v-89q143 -15 187 -155l-85 -19q-34 98 -137 98q-71 0 -111.5 -52t-40.5 -132q0 -81 40.5 -133t111.5 -52q100 0 135 99l87 -18q-22 -67 -70 -107.5t-117 -48.5z" />
    <glyph glyph-name="sterling.LT" 
d="M518 82v-82h-454v69q43 23 67.5 60t24.5 104q0 34 -9 86h-93v62h82q-15 77 -15 125q0 100 57.5 154.5t149.5 54.5q75 0 124 -35.5t69 -92.5l-84 -27q-10 31 -37 52.5t-71 21.5q-49 0 -82.5 -30t-33.5 -93q0 -47 17 -130h189v-62h-178q6 -50 6 -76q0 -61 -18 -96t-50 -61
v-4h339z" />
    <glyph glyph-name="florin.LT" 
d="M528 381v-62h-234v-420h-89v420h-152v62h152v74q0 128 67 194t174 66q40 0 73 -11v-83q-24 13 -73 13q-62 0 -107 -43.5t-45 -144.5v-65h234z" />
    <glyph glyph-name="yen.LT" 
d="M336 243v-243h-90v243h-205v62h205v9l-49 81h-156v62h119l-148 243h107l173 -295h5l173 295h100l-148 -243h119v-62h-156l-49 -81v-9h205v-62h-205z" />
    <glyph glyph-name="zero.slash.LT" 
d="M291 -15q-63 0 -110.5 29t-75 80.5t-41 115.5t-13.5 140q0 103 23 182.5t78 131t138 51.5q64 0 111.5 -29t75 -80.5t41 -115.5t13.5 -140t-13.5 -140t-41 -115.5t-75 -80.5t-110.5 -29zM143 350q0 -71 15 -143l236 362q-37 64 -104 64q-75 0 -111 -79t-36 -204zM291 67
q75 0 111 79t36 204q0 88 -14 140l-236 -361q38 -62 103 -62z" />
    <glyph glyph-name="zero.LT" 
d="M291 -15q-63 0 -110.5 29t-75 80.5t-41 115.5t-13.5 140q0 103 23 182.5t78 131t138 51.5q64 0 111.5 -29t75 -80.5t41 -115.5t13.5 -140t-13.5 -140t-41 -115.5t-75 -80.5t-110.5 -29zM291 67q75 0 111 79t36 204q0 80 -13.5 141.5t-48 101.5t-86.5 40q-75 0 -111 -79
t-36 -204t36 -204t112 -79z" />
    <glyph glyph-name="one.LT" 
d="M105 506l-12 90l207 104h80v-700h-89v605z" />
    <glyph glyph-name="two.LT" 
d="M70 0v78l236 226q67 65 93.5 110.5t26.5 93.5t-33.5 86t-96.5 38q-70 0 -105.5 -44t-40.5 -103l-87 8q8 90 67.5 156t164.5 66q102 0 163 -60t61 -137q0 -72 -34 -131t-118 -140l-171 -165h328v-82h-454z" />
    <glyph glyph-name="three.LT" 
d="M292 -15q-100 0 -171 58t-74 142l87 11q3 -55 48.5 -92.5t108.5 -37.5q70 0 110 43t40 109q0 65 -40 103.5t-106 38.5q-46 0 -86 -35v75l210 218h-345v82h452v-77l-154 -164q-5 -5 -12 -12.5t-12 -12.5t-8 -7v-4q6 2 12 2q79 0 131 -57.5t52 -146.5q0 -101 -66.5 -168.5
t-176.5 -67.5z" />
    <glyph glyph-name="four.LT" 
d="M465 157v-157h-89v157h-346v82l283 461h152v-461h95v-82h-95zM372 646l-252 -407h256v407h-4z" />
    <glyph glyph-name="five.LT" 
d="M288 -15q-88 0 -154.5 46t-81.5 117l87 23q11 -47 53 -76t97 -29q68 0 112.5 46t44.5 113q0 70 -44 116q-44 45 -112 45q-44 0 -79.5 -20t-51.5 -54h-79v388h425v-83h-342v-212q46 61 152 61q99 0 162.5 -65.5t63.5 -168.5q0 -106 -71.5 -176.5t-181.5 -70.5z" />
    <glyph glyph-name="six.LT" 
d="M312 -15q-128 0 -195.5 91t-67.5 270q0 175 68 272t194 97q84 0 144.5 -42t80.5 -114l-91 -17q-10 40 -45.5 66t-87.5 26q-82 0 -127 -68t-45 -194q0 -16 1 -27q23 50 70.5 75.5t108.5 25.5q99 0 163.5 -62.5t64.5 -160.5q0 -104 -66.5 -171t-169.5 -67zM306 65
q69 0 109.5 43t40.5 109t-40.5 110t-109.5 44q-70 0 -110.5 -44t-40.5 -110t40.5 -109t110.5 -43z" />
    <glyph glyph-name="seven.LT" 
d="M71 700h453v-83l-334 -617h-102l342 618h-359v82z" />
    <glyph glyph-name="eight.LT" 
d="M292 -15q-116 0 -181 60.5t-65 144.5q0 65 37 114q38 50 91 63q-49 15 -78 59t-29 102q0 70 58.5 128.5t166.5 58.5t166 -58.5t58 -128.5q0 -58 -29.5 -102.5t-78.5 -58.5q53 -13 91 -63q37 -49 37 -114q0 -84 -64.5 -144.5t-179.5 -60.5zM291 400q61 0 96.5 33.5
t35.5 83.5q0 44 -34.5 81t-97.5 37t-97.5 -37t-34.5 -81q0 -50 35.5 -83.5t96.5 -33.5zM291 65q71 0 110 39q40 39 40 92q0 57 -41.5 93.5t-108.5 36.5t-108.5 -36.5t-41.5 -93.5q0 -53 40 -92q41 -39 110 -39z" />
    <glyph glyph-name="nine.LT" 
d="M270 715q129 0 196 -90.5t67 -270.5q0 -175 -68.5 -272t-193.5 -97q-84 0 -144.5 41.5t-80.5 114.5l91 17q12 -41 47 -66.5t86 -25.5q82 0 127 68t45 194q0 18 -1 27q-23 -50 -70.5 -75.5t-108.5 -25.5q-99 0 -163.5 62.5t-64.5 160.5q0 104 67 171t169 67zM276 635
q-69 0 -110 -44q-40 -43 -40 -109q0 -65 41 -109t109 -44q70 0 110.5 43.5t40.5 109.5q0 67 -40.5 110t-110.5 43z" />
    <glyph glyph-name="numbersign.OT" 
d="M396 138l-30 -138h-70l30 138h-143l-30 -138h-69l29 138h-107v68h122l28 131h-108v67h123l30 140h69l-30 -140h143l30 140h69l-29 -140h108v-67h-123l-28 -131h108v-68h-122zM194 203h149l30 137h-150z" />
    <glyph glyph-name="Euro.OT" 
d="M336 -15q-89 0 -153.5 49.5t-87.5 141.5h-88v59h79q-2 24 -2 37q0 23 1 34h-78v60h88q23 92 87.5 142.5t153.5 50.5q70 0 126 -31.5t79 -85.5l-87 -23q-15 28 -46 43.5t-70 15.5q-115 0 -148 -112h243v-60h-255q-1 -11 -1 -34q0 -13 2 -37h254v-59h-243q37 -111 148 -111
q38 0 69.5 16t46.5 44l87 -23q-20 -52 -76.5 -84.5t-128.5 -32.5z" />
    <glyph glyph-name="dollar.OT" 
d="M332 -14v-87h-73v88q-81 9 -137.5 48.5t-68.5 94.5l88 16q9 -36 57 -61.5t109 -25.5q59 0 95.5 25t36.5 64q0 38 -38 57t-92.5 27.5t-108.5 20t-92 46t-38 94.5q0 67 51 112t138 53v87h73v-88q76 -9 128.5 -47.5t65.5 -93.5l-89 -20q-5 35 -48 61t-102 26
q-60 0 -93 -23.5t-33 -56.5q0 -37 38 -56t92.5 -27t108.5 -19.5t92 -46.5t38 -95q0 -73 -56 -120q-56 -45 -142 -53z" />
    <glyph glyph-name="cent.OT" 
d="M336 -13v-88h-73v89q-92 15 -147 85.5t-55 173.5t56 175t146 84v90h73v-89q143 -15 187 -155l-85 -19q-34 98 -137 98q-71 0 -111.5 -52t-40.5 -132q0 -81 40.5 -133t111.5 -52q100 0 135 99l87 -18q-22 -67 -70 -107.5t-117 -48.5z" />
    <glyph glyph-name="sterling.OT" 
d="M419 302v-62h-176q7 -30 7 -49q0 -61 -62 -105v-4h330v-82h-454v69q44 21 69.5 46.5t25.5 64.5q0 31 -10 60h-95v62h78q-8 34 -8 73q0 86 57 135t142 49q77 0 128 -34t70 -95l-84 -19q-10 30 -39.5 48t-71.5 18q-45 0 -77.5 -25.5t-32.5 -77.5q0 -26 10 -72h193z" />
    <glyph glyph-name="florin.OT" 
d="M528 302v-62h-221v-341h-89v341h-165v62h165v47q0 102 58 156t160 54q34 0 60 -8v-81q-20 7 -56 7q-58 0 -95.5 -29t-37.5 -99v-47h221z" />
    <glyph glyph-name="yen.OT" 
d="M335 176v-176h-89v176h-205v59h187l-44 71h-143v60h108l-109 178h101l151 -260h4l150 260h96l-110 -178h109v-60h-144l-44 -71h188v-59h-206z" />
    <glyph glyph-name="zero.slash.OT" 
d="M292 -15q-110 0 -180.5 79t-70.5 204q0 126 69 204.5t180 78.5t180.5 -78.5t69.5 -204.5q0 -125 -69 -204t-179 -79zM135 268q0 -63 21 -110l227 278q-38 33 -92 33q-72 0 -114 -56.5t-42 -144.5zM291 67q72 0 114 56.5t42 144.5q0 62 -23 113l-228 -279q42 -35 95 -35z
" />
    <glyph glyph-name="zero.OT" 
d="M292 -15q-110 0 -180.5 79t-70.5 204q0 126 69 204.5t180 78.5t180.5 -78.5t69.5 -204.5q0 -125 -69 -204t-179 -79zM291 67q72 0 114 56.5t42 144.5q0 89 -41.5 145t-114.5 56q-72 0 -114 -56.5t-42 -144.5t42 -144.5t114 -56.5z" />
    <glyph glyph-name="one.OT" 
d="M383 544v-544h-88v448l-187 -98l-11 90l206 104h80z" />
    <glyph glyph-name="two.OT" 
d="M524 82v-82h-454v77l179 116q92 59 125.5 97.5t33.5 83.5t-32.5 73.5t-83.5 28.5q-62 0 -98 -40.5t-43 -95.5l-84 15q10 85 68.5 144.5t158.5 59.5q93 0 150 -49.5t57 -129.5q0 -66 -41 -117t-151 -123l-88 -58h303z" />
    <glyph glyph-name="three.OT" 
d="M292 -172q-100 0 -171 58t-74 142l87 11q3 -55 48.5 -92.5t108.5 -37.5q70 0 110 43t40 109q0 65 -40 103.5t-106 38.5q-46 0 -86 -35v75l210 218h-345v82h452v-77l-154 -164q-5 -5 -12 -12.5t-12 -12.5t-8 -7v-4q6 2 12 2q79 0 131 -57.5t52 -146.5q0 -101 -66.5 -168.5
t-176.5 -67.5z" />
    <glyph glyph-name="four.OT" 
d="M465 0v-157h-89v157h-346v82l283 461h152v-461h95v-82h-95zM372 489l-252 -407h256v407h-4z" />
    <glyph glyph-name="five.OT" 
d="M288 -172q-88 0 -154.5 46t-81.5 117l87 23q11 -47 53 -76t97 -29q68 0 112.5 46t44.5 113q0 70 -44 116q-44 45 -112 45q-44 0 -79.5 -20t-51.5 -54h-79v388h425v-83h-342v-212q46 61 152 61q99 0 162.5 -65.5t63.5 -168.5q0 -106 -71.5 -176.5t-181.5 -70.5z" />
    <glyph glyph-name="six.OT" 
d="M312 -15q-128 0 -195.5 91t-67.5 270q0 175 68 272t194 97q84 0 144.5 -42t80.5 -114l-91 -17q-10 40 -45.5 66t-87.5 26q-82 0 -127 -68t-45 -194q0 -16 1 -27q23 50 70.5 75.5t108.5 25.5q99 0 163.5 -62.5t64.5 -160.5q0 -104 -66.5 -171t-169.5 -67zM306 65
q69 0 109.5 43t40.5 109t-40.5 110t-109.5 44q-70 0 -110.5 -44t-40.5 -110t40.5 -109t110.5 -43z" />
    <glyph glyph-name="seven.OT" 
d="M71 543h453v-83l-334 -617h-102l342 618h-359v82z" />
    <glyph glyph-name="eight.OT" 
d="M292 -15q-116 0 -181 60.5t-65 144.5q0 65 37 114q38 50 91 63q-49 15 -78 59t-29 102q0 70 58.5 128.5t166.5 58.5t166 -58.5t58 -128.5q0 -58 -29.5 -102.5t-78.5 -58.5q53 -13 91 -63q37 -49 37 -114q0 -84 -64.5 -144.5t-179.5 -60.5zM291 400q61 0 96.5 33.5
t35.5 83.5q0 44 -34.5 81t-97.5 37t-97.5 -37t-34.5 -81q0 -50 35.5 -83.5t96.5 -33.5zM291 65q71 0 110 39q40 39 40 92q0 57 -41.5 93.5t-108.5 36.5t-108.5 -36.5t-41.5 -93.5q0 -53 40 -92q41 -39 110 -39z" />
    <glyph glyph-name="nine.OT" 
d="M270 558q129 0 196 -90.5t67 -270.5q0 -175 -68.5 -272t-193.5 -97q-84 0 -144.5 41.5t-80.5 114.5l91 17q12 -41 47 -66.5t86 -25.5q82 0 127 68t45 194q0 18 -1 27q-23 -50 -70.5 -75.5t-108.5 -25.5q-99 0 -163.5 62.5t-64.5 160.5q0 104 67 171t169 67zM276 478
q-69 0 -110 -44q-40 -43 -40 -109q0 -65 41 -109t109 -44q70 0 110.5 43.5t40.5 109.5q0 67 -40.5 110t-110.5 43z" />
    <glyph glyph-name="numbersign.OP" 
d="M396 138l-30 -138h-70l30 138h-143l-30 -138h-69l29 138h-107v68h122l28 131h-108v67h123l30 140h69l-30 -140h143l30 140h69l-29 -140h108v-67h-123l-28 -131h108v-68h-122zM194 203h149l30 137h-150z" />
    <glyph glyph-name="Euro.OP" 
d="M336 -15q-89 0 -153.5 49.5t-87.5 141.5h-88v59h79q-2 24 -2 37q0 23 1 34h-78v60h88q23 92 87.5 142.5t153.5 50.5q70 0 126 -31.5t79 -85.5l-87 -23q-15 28 -46 43.5t-70 15.5q-115 0 -148 -112h243v-60h-255q-1 -11 -1 -34q0 -13 2 -37h254v-59h-243q37 -111 148 -111
q38 0 69.5 16t46.5 44l87 -23q-20 -52 -76.5 -84.5t-128.5 -32.5z" />
    <glyph glyph-name="dollar.OP" 
d="M332 -14v-87h-73v88q-81 9 -137.5 48.5t-68.5 94.5l88 16q9 -36 57 -61.5t109 -25.5q59 0 95.5 25t36.5 64q0 38 -38 57t-92.5 27.5t-108.5 20t-92 46t-38 94.5q0 67 51 112t138 53v87h73v-88q76 -9 128.5 -47.5t65.5 -93.5l-89 -20q-5 35 -48 61t-102 26
q-60 0 -93 -23.5t-33 -56.5q0 -37 38 -56t92.5 -27t108.5 -19.5t92 -46.5t38 -95q0 -73 -56 -120q-56 -45 -142 -53z" />
    <glyph glyph-name="cent.OP" horiz-adv-x="539" 
d="M316 -13v-88h-73v89q-92 15 -147 85.5t-55 173.5t56 175t146 84v90h73v-89q143 -15 187 -155l-85 -19q-34 98 -137 98q-71 0 -111.5 -52t-40.5 -132q0 -81 40.5 -133t111.5 -52q100 0 135 99l87 -18q-22 -67 -70 -107.5t-117 -48.5z" />
    <glyph glyph-name="sterling.OP" 
d="M415 302v-62h-176q7 -30 7 -49q0 -61 -62 -105v-4h330v-82h-454v69q44 21 69.5 46.5t25.5 64.5q0 31 -10 60h-95v62h78q-8 34 -8 73q0 86 57 135t142 49q77 0 128 -34t70 -95l-84 -19q-10 30 -39.5 48t-71.5 18q-45 0 -77.5 -25.5t-32.5 -77.5q0 -26 10 -72h193z" />
    <glyph glyph-name="florin.OP" 
d="M528 302v-62h-221v-341h-89v341h-165v62h165v47q0 102 58 156t160 54q34 0 60 -8v-81q-20 7 -56 7q-58 0 -95.5 -29t-37.5 -99v-47h221z" />
    <glyph glyph-name="yen.OP" 
d="M335 176v-176h-89v176h-205v59h187l-44 71h-143v60h108l-109 178h101l151 -260h4l150 260h96l-110 -178h109v-60h-144l-44 -71h188v-59h-206z" />
    <glyph glyph-name="zero.slash.OP" horiz-adv-x="631" 
d="M317 -15q-115 0 -195.5 79.5t-80.5 204.5t79.5 204t194.5 79t195 -79.5t80 -203.5q0 -125 -79 -204.5t-194 -79.5zM134 269q0 -68 35 -123l242 296q-41 27 -96 27q-80 0 -130.5 -56t-50.5 -144zM317 68q79 0 129.5 56t50.5 145q0 75 -37 127l-243 -299q48 -29 100 -29z
" />
    <glyph glyph-name="zero.OP" horiz-adv-x="631" 
d="M317 -15q-115 0 -195.5 79.5t-80.5 204.5t79.5 204t194.5 79t195 -79.5t80 -203.5q0 -125 -79 -204.5t-194 -79.5zM317 68q79 0 129.5 56t50.5 145t-50.5 144.5t-131.5 55.5q-80 0 -130.5 -56t-50.5 -144t51.5 -144.5t131.5 -56.5z" />
    <glyph glyph-name="one.OP" horiz-adv-x="418" 
d="M312 544v-544h-88v448l-187 -98l-11 90l206 104h80z" />
    <glyph glyph-name="two.OP" 
d="M524 82v-82h-454v77l179 116q92 59 125.5 97.5t33.5 83.5t-32.5 73.5t-83.5 28.5q-62 0 -98 -40.5t-43 -95.5l-84 15q10 85 68.5 144.5t158.5 59.5q93 0 150 -49.5t57 -129.5q0 -66 -41 -117t-151 -123l-88 -58h303z" />
    <glyph glyph-name="three.OP" 
d="M292 -172q-100 0 -171 58t-74 142l87 11q3 -55 48.5 -92.5t108.5 -37.5q70 0 110 43t40 109q0 65 -40 103.5t-106 38.5q-46 0 -86 -35v75l210 218h-345v82h452v-77l-154 -164q-5 -5 -12 -12.5t-12 -12.5t-8 -7v-4q6 2 12 2q79 0 131 -57.5t52 -146.5q0 -101 -66.5 -168.5
t-176.5 -67.5z" />
    <glyph glyph-name="four.OP" 
d="M465 0v-157h-89v157h-346v82l283 461h152v-461h95v-82h-95zM372 489l-252 -407h256v407h-4z" />
    <glyph glyph-name="five.OP" 
d="M288 -172q-88 0 -154.5 46t-81.5 117l87 23q11 -47 53 -76t97 -29q68 0 112.5 46t44.5 113q0 70 -44 116q-44 45 -112 45q-44 0 -79.5 -20t-51.5 -54h-79v388h425v-83h-342v-212q46 61 152 61q99 0 162.5 -65.5t63.5 -168.5q0 -106 -71.5 -176.5t-181.5 -70.5z" />
    <glyph glyph-name="six.OP" 
d="M312 -15q-128 0 -195.5 91t-67.5 270q0 175 68 272t194 97q84 0 144.5 -42t80.5 -114l-91 -17q-10 40 -45.5 66t-87.5 26q-82 0 -127 -68t-45 -194q0 -16 1 -27q23 50 70.5 75.5t108.5 25.5q99 0 163.5 -62.5t64.5 -160.5q0 -104 -66.5 -171t-169.5 -67zM306 65
q69 0 109.5 43t40.5 109t-40.5 110t-109.5 44q-70 0 -110.5 -44t-40.5 -110t40.5 -109t110.5 -43z" />
    <glyph glyph-name="seven.OP" 
d="M71 543h453v-83l-334 -617h-102l342 618h-359v82z" />
    <glyph glyph-name="eight.OP" 
d="M292 -15q-116 0 -181 60.5t-65 144.5q0 65 37 114q38 50 91 63q-49 15 -78 59t-29 102q0 70 58.5 128.5t166.5 58.5t166 -58.5t58 -128.5q0 -58 -29.5 -102.5t-78.5 -58.5q53 -13 91 -63q37 -49 37 -114q0 -84 -64.5 -144.5t-179.5 -60.5zM291 400q61 0 96.5 33.5
t35.5 83.5q0 44 -34.5 81t-97.5 37t-97.5 -37t-34.5 -81q0 -50 35.5 -83.5t96.5 -33.5zM291 65q71 0 110 39q40 39 40 92q0 57 -41.5 93.5t-108.5 36.5t-108.5 -36.5t-41.5 -93.5q0 -53 40 -92q41 -39 110 -39z" />
    <glyph glyph-name="nine.OP" 
d="M270 558q129 0 196 -90.5t67 -270.5q0 -175 -68.5 -272t-193.5 -97q-84 0 -144.5 41.5t-80.5 114.5l91 17q12 -41 47 -66.5t86 -25.5q82 0 127 68t45 194q0 18 -1 27q-23 -50 -70.5 -75.5t-108.5 -25.5q-99 0 -163.5 62.5t-64.5 160.5q0 104 67 171t169 67zM276 478
q-69 0 -110 -44q-40 -43 -40 -109q0 -65 41 -109t109 -44q70 0 110.5 43.5t40.5 109.5q0 67 -40.5 110t-110.5 43z" />
    <glyph glyph-name="zero.numr" horiz-adv-x="394" 
d="M197 271q-78 0 -124.5 60t-46.5 159t46.5 159t124.5 60t125 -60t47 -159t-47 -159t-125 -60zM197 332q49 0 76 43t27 115q0 73 -27 115.5t-76 42.5t-76 -42.5t-27 -115.5q0 -71 27.5 -114.5t75.5 -43.5z" />
    <glyph glyph-name="one.numr" horiz-adv-x="313" 
d="M46 573l-9 66l122 61h60v-420h-68v349z" />
    <glyph glyph-name="two.numr" horiz-adv-x="358" 
d="M324 342v-62h-280v55l141 135q39 40 53.5 64t14.5 49q0 28 -19.5 46t-50.5 18q-33 0 -55 -22t-24 -59l-65 7q5 62 46 99t102 37q62 0 99.5 -33t37.5 -87q0 -39 -19.5 -73t-70.5 -83l-92 -91h182z" />
    <glyph glyph-name="three.numr" horiz-adv-x="358" 
d="M180 271q-62 0 -105.5 35t-46.5 87l66 7q4 -31 27.5 -50t57.5 -19q36 0 58 22.5t22 59.5q0 35 -20.5 55t-57.5 20q-30 0 -52 -19v58l110 111h-195v62h277v-56l-84 -87l-22 -19v-3h8q47 0 77 -33.5t30 -86.5q0 -64 -42 -104t-108 -40z" />
    <glyph glyph-name="four.numr" horiz-adv-x="358" 
d="M292 373v-93h-66v93h-206v56l159 271h113v-265h53v-62h-53zM222 656l-133 -221h137v221h-4z" />
    <glyph glyph-name="five.numr" horiz-adv-x="358" 
d="M182 271q-57 0 -99.5 32t-45.5 77l63 8q5 -24 28 -40t54 -16q37 0 60.5 23.5t23.5 60.5q0 38 -23 61.5t-61 23.5q-54 0 -72 -40h-57v239h261v-62h-198v-108q24 31 84 31q61 0 98.5 -39.5t37.5 -102.5t-44 -105.5t-110 -42.5z" />
    <glyph glyph-name="six.numr" horiz-adv-x="358" 
d="M196 271q-79 0 -120.5 55.5t-41.5 161.5q0 105 41 163t116 58q51 0 90 -26.5t53 -71.5l-67 -10q-17 48 -75 48q-88 0 -90 -140v-16q13 27 41.5 42.5t65.5 15.5q56 0 94 -38t38 -95q0 -64 -40.5 -105.5t-104.5 -41.5zM191 331q37 0 59 22.5t22 59.5q0 36 -22.5 58.5
t-58.5 22.5q-37 0 -59.5 -23t-22.5 -58q0 -37 22.5 -59.5t59.5 -22.5z" />
    <glyph glyph-name="seven.numr" horiz-adv-x="358" 
d="M44 700h280v-61l-194 -359h-76l198 358h-208v62z" />
    <glyph glyph-name="eight.numr" horiz-adv-x="358" 
d="M182 271q-67 0 -109 35.5t-42 91.5q0 38 19 65.5t51 37.5q-26 11 -41.5 36.5t-15.5 56.5q0 50 39 82.5t99 32.5t99 -32.5t39 -82.5q0 -69 -59 -93q32 -10 51.5 -38t19.5 -66q0 -55 -42 -90.5t-108 -35.5zM182 528q30 0 49 17.5t19 44.5q0 26 -19 43t-49 17
q-31 0 -50.5 -17t-19.5 -43q0 -27 19.5 -44.5t50.5 -17.5zM182 332q34 0 56.5 19.5t22.5 49.5q0 32 -22 51.5t-57 19.5q-36 0 -58 -19.5t-22 -51.5q0 -31 22.5 -50t57.5 -19z" />
    <glyph glyph-name="nine.numr" horiz-adv-x="358" 
d="M168 709q79 0 120.5 -55t41.5 -162q0 -105 -41 -163t-116 -58q-52 0 -90.5 26t-53.5 72l68 10q8 -22 28.5 -35t46.5 -13q88 0 90 140v16q-13 -27 -42 -42.5t-65 -15.5q-56 0 -94 38t-38 95q0 65 40.5 106t104.5 41zM173 649q-37 0 -59 -22.5t-22 -58.5t22.5 -59t58.5 -23
t58.5 23t22.5 59t-22 58.5t-59 22.5z" />
    <glyph glyph-name="zero.dnom" horiz-adv-x="394" 
d="M197 -9q-78 0 -124.5 60t-46.5 159t46.5 159t124.5 60t125 -60t47 -159t-47 -159t-125 -60zM197 52q49 0 76 43t27 115q0 73 -27 115.5t-76 42.5t-76 -42.5t-27 -115.5q0 -71 27.5 -114.5t75.5 -43.5z" />
    <glyph glyph-name="one.dnom" horiz-adv-x="313" 
d="M46 293l-9 66l122 61h60v-420h-68v349z" />
    <glyph glyph-name="two.dnom" horiz-adv-x="358" 
d="M324 62v-62h-280v55l141 135q39 40 53.5 64t14.5 49q0 28 -19.5 46t-50.5 18q-33 0 -55 -22t-24 -59l-65 7q5 62 46 99t102 37q62 0 99.5 -33t37.5 -87q0 -39 -19.5 -73t-70.5 -83l-92 -91h182z" />
    <glyph glyph-name="three.dnom" horiz-adv-x="358" 
d="M180 -9q-62 0 -105.5 35t-46.5 87l66 7q4 -31 27.5 -50t57.5 -19q36 0 58 22.5t22 59.5q0 35 -20.5 55t-57.5 20q-30 0 -52 -19v58l110 111h-195v62h277v-56l-84 -87l-22 -19v-3h8q47 0 77 -33.5t30 -86.5q0 -64 -42 -104t-108 -40z" />
    <glyph glyph-name="four.dnom" horiz-adv-x="358" 
d="M292 93v-93h-66v93h-206v56l159 271h113v-265h53v-62h-53zM222 376l-133 -221h137v221h-4z" />
    <glyph glyph-name="five.dnom" horiz-adv-x="358" 
d="M182 -9q-57 0 -99.5 32t-45.5 77l63 8q5 -24 28 -40t54 -16q37 0 60.5 23.5t23.5 60.5q0 38 -23 61.5t-61 23.5q-54 0 -72 -40h-57v239h261v-62h-198v-108q24 31 84 31q61 0 98.5 -39.5t37.5 -102.5t-44 -105.5t-110 -42.5z" />
    <glyph glyph-name="six.dnom" horiz-adv-x="358" 
d="M195 -9q-79 0 -120.5 55.5t-41.5 161.5q0 105 41 163t116 58q51 0 90 -26.5t53 -71.5l-67 -10q-17 48 -75 48q-88 0 -90 -140v-16q13 27 41.5 42.5t65.5 15.5q56 0 94 -38t38 -95q0 -64 -40.5 -105.5t-104.5 -41.5zM190 51q37 0 59 22.5t22 59.5q0 36 -22.5 58.5
t-58.5 22.5t-59 -23t-23 -58q0 -37 22.5 -59.5t59.5 -22.5z" />
    <glyph glyph-name="seven.dnom" horiz-adv-x="358" 
d="M44 420h280v-61l-194 -359h-76l198 358h-208v62z" />
    <glyph glyph-name="eight.dnom" horiz-adv-x="358" 
d="M182 -9q-67 0 -109 35.5t-42 91.5q0 38 19 65.5t51 37.5q-26 11 -41.5 36.5t-15.5 56.5q0 50 39 82.5t99 32.5t99 -32.5t39 -82.5q0 -69 -59 -93q32 -10 51.5 -38t19.5 -66q0 -55 -42 -90.5t-108 -35.5zM182 248q30 0 49 17.5t19 44.5q0 26 -19 43t-49 17
q-31 0 -50.5 -17t-19.5 -43q0 -27 19.5 -44.5t50.5 -17.5zM182 52q34 0 56.5 19.5t22.5 49.5q0 32 -22 51.5t-57 19.5q-36 0 -58 -19.5t-22 -51.5q0 -31 22.5 -50t57.5 -19z" />
    <glyph glyph-name="nine.dnom" horiz-adv-x="358" 
d="M168 429q79 0 120.5 -55t41.5 -162q0 -105 -41 -163t-116 -58q-52 0 -90.5 26t-53.5 72l68 10q8 -22 28.5 -35t46.5 -13q88 0 90 140v16q-13 -27 -42 -42.5t-65 -15.5q-56 0 -94 38t-38 95q0 65 40.5 106t104.5 41zM173 369q-37 0 -59 -22.5t-22 -58.5t22.5 -59t58.5 -23
t58.5 23t22.5 59t-22 58.5t-59 22.5z" />
    <glyph glyph-name="fraction.osf" horiz-adv-x="457" 
d="M387 544h70l-387 -544h-70z" />
    <glyph glyph-name="percent.osf" horiz-adv-x="736" 
d="M29 388q0 79 39.5 125t101.5 46q63 0 102.5 -46t39.5 -125q0 -80 -39.5 -125.5t-102.5 -45.5q-62 0 -101.5 46t-39.5 125zM526 544h70l-387 -544h-70zM95 388q0 -51 19.5 -79t55.5 -28t56 28t20 79q0 50 -20 78t-56 28t-55.5 -28t-19.5 -78zM424 156q0 79 40 125t102 46
t101.5 -46t39.5 -125t-39.5 -125t-101.5 -46t-102 46t-40 125zM490 156q0 -50 20 -78.5t56 -28.5q35 0 55 28.5t20 78.5t-20 78.5t-55 28.5q-36 0 -56 -28.5t-20 -78.5z" />
    <glyph glyph-name="perthousand.osf" horiz-adv-x="1056" 
d="M29 388q0 79 39.5 125t101.5 46q63 0 102.5 -46t39.5 -125q0 -80 -39.5 -125.5t-102.5 -45.5q-62 0 -101.5 46t-39.5 125zM526 544h70l-387 -544h-70zM95 388q0 -51 19.5 -79t55.5 -28t56 28t20 79q0 50 -20 78t-56 28t-55.5 -28t-19.5 -78zM424 156q0 79 40 125t102 46
t101.5 -46t39.5 -125t-39.5 -125t-101.5 -46t-102 46t-40 125zM744 156q0 79 40 125t102 46q63 0 102 -45.5t39 -125.5t-39 -125.5t-102 -45.5q-62 0 -102 46t-40 125zM490 156q0 -50 20 -78.5t56 -28.5q35 0 55 28.5t20 78.5t-20 78.5t-55 28.5q-36 0 -56 -28.5t-20 -78.5z
M810 156q0 -50 20 -78.5t56 -28.5t55.5 28t19.5 79t-19.5 79t-55.5 28t-56 -28.5t-20 -78.5z" />
    <glyph glyph-name="ampersand.small" horiz-adv-x="522" 
d="M428 253v-253h-182q-100 0 -153 42.5t-53 114.5q0 52 27 89.5t78 48.5q-40 10 -64.5 40t-24.5 74q0 62 50 101.5t140 39.5q48 0 70 -5l-9 -74q-17 4 -55 4q-53 0 -79 -21.5t-26 -54.5q0 -34 25 -53t68 -19h101v84h87v-84h82v-74h-82zM254 74h87v179h-112q-49 0 -74 -25
t-25 -63q0 -41 30.5 -66t93.5 -25z" />
    <glyph glyph-name="fi.cap" horiz-adv-x="868" 
d="M94 700h451v-84h-360v-224h271v-85h-271v-307h-91v700zM683 700h91v-700h-91v700z" />
    <glyph glyph-name="fl.cap" horiz-adv-x="1117" 
d="M94 700h451v-84h-360v-224h271v-85h-271v-307h-91v700zM683 0v700h91v-616h325v-84h-416z" />
    <glyph glyph-name="fi.small" horiz-adv-x="755" 
d="M90 544h325v-83h-235v-151h235v-82h-235v-228h-90v544zM575 544h90v-544h-90v544z" />
    <glyph glyph-name="fl.small" horiz-adv-x="922" 
d="M90 544h325v-83h-235v-151h235v-82h-235v-228h-90v544zM575 0v544h90v-462h240v-82h-330z" />
    <glyph glyph-name="J.alt" horiz-adv-x="529" 
d="M238 -10q-87 0 -147.5 46t-74.5 121l84 16q12 -47 46.5 -73t85.5 -26q56 0 89 42t33 112v472h92v-476q0 -105 -57.5 -169.5t-150.5 -64.5z" />
    <glyph glyph-name="Jcircumflex.alt" horiz-adv-x="529" 
d="M465 846l96 -106h-84l-78 74l-77 -74h-83l95 106h131zM238 -10q-87 0 -147.5 46t-74.5 121l84 16q12 -47 46.5 -73t85.5 -26q56 0 89 42t33 112v472h92v-476q0 -105 -57.5 -169.5t-150.5 -64.5z" />
    <glyph glyph-name="IJ.alt" horiz-adv-x="808" 
d="M94 700h91v-700h-91v700zM517 -10q-87 0 -147.5 46t-74.5 121l84 16q12 -47 46.5 -73t85.5 -26q56 0 89 42t33 112v472h92v-476q0 -105 -57.5 -169.5t-150.5 -64.5z" />
    <glyph glyph-name="J.small.alt" horiz-adv-x="446" 
d="M201 -12q-70 0 -120.5 38t-64.5 102l87 17q19 -72 93 -72q38 0 60.5 30t22.5 82v359h90v-365q0 -85 -46.5 -138t-121.5 -53z" />
    <glyph glyph-name="Jcircumflex.small.alt" horiz-adv-x="446" 
d="M389 689l96 -106h-84l-78 74l-77 -74h-83l95 106h131zM201 -12q-70 0 -120.5 38t-64.5 102l87 17q19 -72 93 -72q38 0 60.5 30t22.5 82v359h90v-365q0 -85 -46.5 -138t-121.5 -53z" />
    <glyph glyph-name="IJ.small.alt" horiz-adv-x="716" 
d="M90 544h90v-544h-90v544zM471 -12q-70 0 -120.5 38t-64.5 102l87 17q19 -72 93 -72q38 0 60.5 30t22.5 82v359h90v-365q0 -85 -46.5 -138t-121.5 -53z" />
    <glyph glyph-name="M.alt" horiz-adv-x="923" 
d="M31 0l145 707h124l164 -541h4l164 541h115l144 -707h-95l-113 570h-4l-173 -570h-87l-173 570h-4l-112 -570h-99z" />
    <glyph glyph-name="M.small.alt" horiz-adv-x="744" 
d="M36 0l104 548h115l118 -397h3l117 397h108l108 -548h-93l-77 415h-3l-123 -415h-84l-123 415h-4l-76 -415h-90z" />
    <glyph glyph-name="a.alt" horiz-adv-x="581" 
d="M39 234q0 110 63 180t160 70q53 0 94.5 -21.5t63.5 -58.5v65h87v-469h-80v78h-3q-24 -45 -67 -69t-96 -24q-97 0 -159.5 69.5t-62.5 179.5zM127 234q0 -75 41.5 -123t107.5 -48q67 0 106.5 47.5t39.5 123.5q0 77 -39.5 125t-106.5 48q-68 0 -108.5 -49t-40.5 -124z" />
    <glyph glyph-name="agrave.alt" horiz-adv-x="581" 
d="M130 699h106l81 -149h-81zM39 234q0 110 63 180t160 70q53 0 94.5 -21.5t63.5 -58.5v65h87v-469h-80v78h-3q-24 -45 -67 -69t-96 -24q-97 0 -159.5 69.5t-62.5 179.5zM127 234q0 -75 41.5 -123t107.5 -48q67 0 106.5 47.5t39.5 123.5q0 77 -39.5 125t-106.5 48
q-68 0 -108.5 -49t-40.5 -124z" />
    <glyph glyph-name="aacute.alt" horiz-adv-x="581" 
d="M432 699l-117 -149h-81l93 149h105zM39 234q0 110 63 180t160 70q53 0 94.5 -21.5t63.5 -58.5v65h87v-469h-80v78h-3q-24 -45 -67 -69t-96 -24q-97 0 -159.5 69.5t-62.5 179.5zM127 234q0 -75 41.5 -123t107.5 -48q67 0 106.5 47.5t39.5 123.5q0 77 -39.5 125t-106.5 48
q-68 0 -108.5 -49t-40.5 -124z" />
    <glyph glyph-name="acircumflex.alt" horiz-adv-x="581" 
d="M330 699l110 -149h-84l-80 105l-80 -105h-83l109 149h108zM39 234q0 110 63 180t160 70q53 0 94.5 -21.5t63.5 -58.5v65h87v-469h-80v78h-3q-24 -45 -67 -69t-96 -24q-97 0 -159.5 69.5t-62.5 179.5zM127 234q0 -75 41.5 -123t107.5 -48q67 0 106.5 47.5t39.5 123.5
q0 77 -39.5 125t-106.5 48q-68 0 -108.5 -49t-40.5 -124z" />
    <glyph glyph-name="atilde.alt" horiz-adv-x="581" 
d="M343 564q-30 0 -68 27.5t-57 27.5q-36 0 -42 -54h-62q9 120 93 120q31 0 68.5 -27.5t56.5 -27.5q36 0 42 54h62q-10 -120 -93 -120zM39 234q0 110 63 180t160 70q53 0 94.5 -21.5t63.5 -58.5v65h87v-469h-80v78h-3q-24 -45 -67 -69t-96 -24q-97 0 -159.5 69.5
t-62.5 179.5zM127 234q0 -75 41.5 -123t107.5 -48q67 0 106.5 47.5t39.5 123.5q0 77 -39.5 125t-106.5 48q-68 0 -108.5 -49t-40.5 -124z" />
    <glyph glyph-name="adieresis.alt" horiz-adv-x="581" 
d="M216 677v-106h-81v106h81zM417 677v-106h-81v106h81zM39 234q0 110 63 180t160 70q53 0 94.5 -21.5t63.5 -58.5v65h87v-469h-80v78h-3q-24 -45 -67 -69t-96 -24q-97 0 -159.5 69.5t-62.5 179.5zM127 234q0 -75 41.5 -123t107.5 -48q67 0 106.5 47.5t39.5 123.5
q0 77 -39.5 125t-106.5 48q-68 0 -108.5 -49t-40.5 -124z" />
    <glyph glyph-name="amacron.alt" horiz-adv-x="581" 
d="M436 656v-62h-324v62h324zM39 234q0 110 63 180t160 70q53 0 94.5 -21.5t63.5 -58.5v65h87v-469h-80v78h-3q-24 -45 -67 -69t-96 -24q-97 0 -159.5 69.5t-62.5 179.5zM127 234q0 -75 41.5 -123t107.5 -48q67 0 106.5 47.5t39.5 123.5q0 77 -39.5 125t-106.5 48
q-68 0 -108.5 -49t-40.5 -124z" />
    <glyph glyph-name="abreve.alt" horiz-adv-x="581" 
d="M276 554q-61 0 -101.5 36.5t-50.5 104.5h69q6 -39 28.5 -60.5t54.5 -21.5t54.5 21.5t28.5 60.5h69q-10 -68 -50.5 -104.5t-101.5 -36.5zM39 234q0 110 63 180t160 70q53 0 94.5 -21.5t63.5 -58.5v65h87v-469h-80v78h-3q-24 -45 -67 -69t-96 -24q-97 0 -159.5 69.5
t-62.5 179.5zM127 234q0 -75 41.5 -123t107.5 -48q67 0 106.5 47.5t39.5 123.5q0 77 -39.5 125t-106.5 48q-68 0 -108.5 -49t-40.5 -124z" />
    <glyph glyph-name="aring.alt" horiz-adv-x="581" 
d="M285 534q-46 0 -77.5 28.5t-31.5 72.5t31.5 72.5t77.5 28.5q47 0 78 -28.5t31 -72.5t-31 -72.5t-78 -28.5zM285 580q26 0 41.5 15.5t15.5 39.5t-15.5 40t-41.5 16t-41.5 -16t-15.5 -40t15.5 -39.5t41.5 -15.5zM39 234q0 110 63 180t160 70q53 0 94.5 -21.5t63.5 -58.5v65
h87v-469h-80v78h-3q-24 -45 -67 -69t-96 -24q-97 0 -159.5 69.5t-62.5 179.5zM127 234q0 -75 41.5 -123t107.5 -48q67 0 106.5 47.5t39.5 123.5q0 77 -39.5 125t-106.5 48q-68 0 -108.5 -49t-40.5 -124z" />
    <glyph glyph-name="aringacute.alt" horiz-adv-x="581" 
d="M421 885l-98 -106h-81l73 106h106zM285 534q-46 0 -77.5 28.5t-31.5 72.5t31.5 72.5t77.5 28.5q47 0 78 -28.5t31 -72.5t-31 -72.5t-78 -28.5zM285 580q26 0 41.5 15.5t15.5 39.5t-15.5 40t-41.5 16t-41.5 -16t-15.5 -40t15.5 -39.5t41.5 -15.5zM39 234q0 110 63 180
t160 70q53 0 94.5 -21.5t63.5 -58.5v65h87v-469h-80v78h-3q-24 -45 -67 -69t-96 -24q-97 0 -159.5 69.5t-62.5 179.5zM127 234q0 -75 41.5 -123t107.5 -48q67 0 106.5 47.5t39.5 123.5q0 77 -39.5 125t-106.5 48q-68 0 -108.5 -49t-40.5 -124z" />
    <glyph glyph-name="aogonek.alt" horiz-adv-x="581" 
d="M39 234q0 110 63 180t160 70q53 0 94.5 -21.5t63.5 -58.5v65h87v-469h-4q-90 -41 -90 -98q0 -22 16.5 -34.5t42.5 -12.5q16 0 31 3v-54q-17 -4 -44 -4q-56 0 -88.5 22.5t-32.5 64.5q0 70 89 123v68h-3q-24 -45 -67 -69t-96 -24q-97 0 -159.5 69.5t-62.5 179.5zM127 234
q0 -75 41.5 -123t107.5 -48q67 0 106.5 47.5t39.5 123.5q0 77 -39.5 125t-106.5 48q-68 0 -108.5 -49t-40.5 -124z" />
    <glyph glyph-name="a.superior.alt" horiz-adv-x="445" 
d="M28 525q0 82 48 134.5t122 52.5t108 -52v40h76v-350h-70v46h-3q-15 -27 -47 -42.5t-68 -15.5q-71 0 -118.5 52.5t-47.5 134.5zM104 525q0 -52 28 -86t75 -34q46 0 74 33.5t28 86.5q0 54 -27.5 87t-74.5 33t-75 -34t-28 -86z" />
    <glyph glyph-name="j.alt" horiz-adv-x="235" 
d="M161 700v-108h-87v108h87zM161 469v-664h-87v664h87z" />
    <glyph glyph-name="ij.alt" horiz-adv-x="461" 
d="M161 700v-108h-87v108h87zM387 700v-108h-87v108h87zM161 469v-469h-87v469h87zM387 469v-664h-87v664h87z" />
    <glyph glyph-name="jcircumflex.alt" horiz-adv-x="235" 
d="M169 700l110 -149h-84l-80 105l-80 -105h-83l109 149h108zM161 469v-664h-87v664h87z" />
    <glyph glyph-name="j.superior.alt" horiz-adv-x="201" 
d="M138 849v-84h-75v84h75zM138 700v-493h-75v493h75z" />
    <glyph glyph-name="l.alt" horiz-adv-x="242" 
d="M194 -6q-132 0 -132 143v563h88v-539q0 -52 17 -71t50 -19q16 0 23 4v-76q-20 -5 -46 -5z" />
    <glyph glyph-name="lacute.alt" horiz-adv-x="242" 
d="M245 846l-98 -106h-81l73 106h106zM194 -6q-132 0 -132 143v563h88v-539q0 -52 17 -71t50 -19q16 0 23 4v-76q-20 -5 -46 -5z" />
    <glyph glyph-name="lcaron.alt" horiz-adv-x="339" 
d="M352 700l-65 -207h-66l46 207h85zM194 -6q-132 0 -132 143v563h88v-539q0 -52 17 -71t50 -19q16 0 23 4v-76q-20 -5 -46 -5z" />
    <glyph glyph-name="lcommaaccent.alt" horiz-adv-x="242" 
d="M194 -6q-132 0 -132 143v563h88v-539q0 -52 17 -71t50 -19q16 0 23 4v-76q-20 -5 -46 -5zM212 -62l-57 -138h-72l45 138h84z" />
    <glyph glyph-name="lslash.alt" horiz-adv-x="250" 
d="M196 -6q-132 0 -132 143v174l-47 -34v82l47 34v307h88v-243l84 61v-82l-84 -61v-214q0 -52 17 -71t50 -19q16 0 23 4v-76q-20 -5 -46 -5z" />
    <glyph glyph-name="ldot.alt" horiz-adv-x="369" 
d="M194 -6q-132 0 -132 143v563h88v-539q0 -52 17 -71t50 -19q16 0 23 4v-76q-20 -5 -46 -5zM347 336v-91h-87v91h87z" />
    <glyph glyph-name="l.superior.alt" horiz-adv-x="198" 
d="M152 346q-106 0 -106 116v387h76v-367q0 -42 12.5 -56t37.5 -14q5 0 17 3v-65q-12 -4 -37 -4z" />
    <glyph glyph-name="t.alt" horiz-adv-x="334" 
d="M191 394v-394h-87v394h-91v75h91v150h87v-150h143v-75h-143z" />
    <glyph glyph-name="tcaron.alt" horiz-adv-x="334" 
d="M362 725l-65 -207h-66l46 207h85zM191 394v-394h-87v394h-91v75h91v150h87v-150h143v-75h-143z" />
    <glyph glyph-name="tcommaaccent.alt" horiz-adv-x="334" 
d="M191 394v-394h-87v394h-91v75h91v150h87v-150h143v-75h-143zM193 -62l-57 -138h-72l45 138h84z" />
    <glyph glyph-name="tbar.alt" horiz-adv-x="334" 
d="M191 177v-177h-87v177h-82v70h82v147h-91v75h91v150h87v-150h143v-75h-143v-147h128v-70h-128z" />
    <glyph glyph-name="t.superior.alt" horiz-adv-x="241" 
d="M145 635v-285h-76v285h-64v65h64v99h76v-99h100v-65h-100z" />
    <glyph glyph-name="u.alt" horiz-adv-x="533" 
d="M267 -15q-95 0 -148 53t-53 145v286h87v-276q0 -63 30 -96.5t84 -33.5t83.5 33.5t29.5 96.5v276h87v-286q0 -92 -53 -145t-147 -53z" />
    <glyph glyph-name="ugrave.alt" horiz-adv-x="533" 
d="M117 700h106l81 -149h-81zM267 -15q-95 0 -148 53t-53 145v286h87v-276q0 -63 30 -96.5t84 -33.5t83.5 33.5t29.5 96.5v276h87v-286q0 -92 -53 -145t-147 -53z" />
    <glyph glyph-name="uacute.alt" horiz-adv-x="533" 
d="M421 700l-117 -149h-81l93 149h105zM267 -15q-95 0 -148 53t-53 145v286h87v-276q0 -63 30 -96.5t84 -33.5t83.5 33.5t29.5 96.5v276h87v-286q0 -92 -53 -145t-147 -53z" />
    <glyph glyph-name="ucircumflex.alt" horiz-adv-x="533" 
d="M317 700l110 -149h-84l-80 105l-80 -105h-83l109 149h108zM267 -15q-95 0 -148 53t-53 145v286h87v-276q0 -63 30 -96.5t84 -33.5t83.5 33.5t29.5 96.5v276h87v-286q0 -92 -53 -145t-147 -53z" />
    <glyph glyph-name="utilde.alt" horiz-adv-x="533" 
d="M331 565q-30 0 -68 27.5t-57 27.5q-36 0 -42 -54h-62q9 120 93 120q31 0 68.5 -27.5t56.5 -27.5q36 0 42 54h62q-10 -120 -93 -120zM267 -15q-95 0 -148 53t-53 145v286h87v-276q0 -63 30 -96.5t84 -33.5t83.5 33.5t29.5 96.5v276h87v-286q0 -92 -53 -145t-147 -53z" />
    <glyph glyph-name="udieresis.alt" horiz-adv-x="533" 
d="M203 678v-106h-81v106h81zM404 678v-106h-81v106h81zM267 -15q-95 0 -148 53t-53 145v286h87v-276q0 -63 30 -96.5t84 -33.5t83.5 33.5t29.5 96.5v276h87v-286q0 -92 -53 -145t-147 -53z" />
    <glyph glyph-name="umacron.alt" horiz-adv-x="533" 
d="M424 657v-62h-324v62h324zM267 -15q-95 0 -148 53t-53 145v286h87v-276q0 -63 30 -96.5t84 -33.5t83.5 33.5t29.5 96.5v276h87v-286q0 -92 -53 -145t-147 -53z" />
    <glyph glyph-name="ubreve.alt" horiz-adv-x="533" 
d="M263 555q-61 0 -101.5 36.5t-50.5 104.5h69q6 -39 28.5 -60.5t54.5 -21.5t54.5 21.5t28.5 60.5h69q-10 -68 -50.5 -104.5t-101.5 -36.5zM267 -15q-95 0 -148 53t-53 145v286h87v-276q0 -63 30 -96.5t84 -33.5t83.5 33.5t29.5 96.5v276h87v-286q0 -92 -53 -145t-147 -53z
" />
    <glyph glyph-name="uring.alt" horiz-adv-x="533" 
d="M263 534q-46 0 -77.5 28.5t-31.5 72.5t31.5 72.5t77.5 28.5q47 0 78 -28.5t31 -72.5t-31 -72.5t-78 -28.5zM263 580q26 0 41.5 15.5t15.5 39.5t-15.5 40t-41.5 16t-41.5 -16t-15.5 -40t15.5 -39.5t41.5 -15.5zM267 -15q-95 0 -148 53t-53 145v286h87v-276q0 -63 30 -96.5
t84 -33.5t83.5 33.5t29.5 96.5v276h87v-286q0 -92 -53 -145t-147 -53z" />
    <glyph glyph-name="uhungarumlaut.alt" horiz-adv-x="533" 
d="M335 700l-117 -149h-81l93 149h105zM507 700l-117 -149h-81l93 149h105zM267 -15q-95 0 -148 53t-53 145v286h87v-276q0 -63 30 -96.5t84 -33.5t83.5 33.5t29.5 96.5v276h87v-286q0 -92 -53 -145t-147 -53z" />
    <glyph glyph-name="uogonek.alt" horiz-adv-x="533" 
d="M335 -200q-56 0 -89 22.5t-33 64.5q0 54 51 99v4q-3 -1 -17 -1q-84 0 -132.5 55t-48.5 140v285h87v-276q0 -63 30 -96.5t84 -33.5t83.5 33.5t29.5 96.5v276h87v-285q0 -126 -102 -180q-79 -43 -79 -100q0 -24 17.5 -36.5t43.5 -12.5q18 0 33 3v-54q-17 -4 -45 -4z" />
    <glyph glyph-name="u.superior.alt" horiz-adv-x="415" 
d="M208 339q-72 0 -112.5 40t-40.5 109v212h75v-204q0 -90 78 -90q36 0 56.5 22.5t20.5 67.5v204h75v-212q0 -70 -40 -109.5t-112 -39.5z" />
    <glyph glyph-name="six.alt" 
d="M543 226q0 -99 -69 -170t-181 -71t-180 71.5t-68 167.5q0 56 23.5 108t74.5 124l171 244h108l-199 -277q36 33 97 33q99 0 161 -68t62 -162zM450 223q0 62 -41.5 110t-114.5 48t-115 -48t-42 -110q0 -61 42 -109t115 -48t114.5 48t41.5 109z" />
    <glyph glyph-name="nine.alt" 
d="M39 474q0 99 69 170t181 71t180 -71.5t68 -167.5q0 -56 -23.5 -108t-74.5 -124l-171 -244h-108l199 277q-36 -33 -97 -33q-99 0 -161 68t-62 162zM132 477q0 -61 41.5 -109.5t114.5 -48.5q74 0 115.5 48.5t41.5 109.5t-41.5 109t-115.5 48q-73 0 -114.5 -48t-41.5 -109z
" />
    <glyph glyph-name="six.LT.alt" 
d="M543 226q0 -99 -69 -170t-181 -71t-180 71.5t-68 167.5q0 56 23.5 108t74.5 124l171 244h108l-199 -277q36 33 97 33q99 0 161 -68t62 -162zM450 223q0 62 -41.5 110t-114.5 48t-115 -48t-42 -110q0 -61 42 -109t115 -48t114.5 48t41.5 109z" />
    <glyph glyph-name="nine.LT.alt" 
d="M39 474q0 99 69 170t181 71t180 -71.5t68 -167.5q0 -56 -23.5 -108t-74.5 -124l-171 -244h-108l199 277q-36 -33 -97 -33q-99 0 -161 68t-62 162zM132 477q0 -61 41.5 -109.5t114.5 -48.5q74 0 115.5 48.5t41.5 109.5t-41.5 109t-115.5 48q-73 0 -114.5 -48t-41.5 -109z
" />
    <glyph glyph-name="six.OT.alt" 
d="M543 226q0 -99 -69 -170t-181 -71t-180 71.5t-68 167.5q0 56 23.5 108t74.5 124l171 244h108l-199 -277q36 33 97 33q99 0 161 -68t62 -162zM450 223q0 62 -41.5 110t-114.5 48t-115 -48t-42 -110q0 -61 42 -109t115 -48t114.5 48t41.5 109z" />
    <glyph glyph-name="nine.OT.alt" 
d="M39 318q0 99 69 170t181 71t180 -71.5t68 -167.5q0 -56 -23.5 -108t-74.5 -124l-171 -244h-108l199 277q-36 -33 -97 -33q-99 0 -161 68t-62 162zM132 321q0 -61 41.5 -109.5t114.5 -48.5q74 0 115.5 48.5t41.5 109.5t-41.5 109t-115.5 48q-73 0 -114.5 -48t-41.5 -109z
" />
    <glyph glyph-name="six.OP.alt" 
d="M543 226q0 -99 -69 -170t-181 -71t-180 71.5t-68 167.5q0 56 23.5 108t74.5 124l171 244h108l-199 -277q36 33 97 33q99 0 161 -68t62 -162zM450 223q0 62 -41.5 110t-114.5 48t-115 -48t-42 -110q0 -61 42 -109t115 -48t114.5 48t41.5 109z" />
    <glyph glyph-name="nine.OP.alt" 
d="M39 318q0 99 69 170t181 71t180 -71.5t68 -167.5q0 -56 -23.5 -108t-74.5 -124l-171 -244h-108l199 277q-36 -33 -97 -33q-99 0 -161 68t-62 162zM132 321q0 -61 41.5 -109.5t114.5 -48.5q74 0 115.5 48.5t41.5 109.5t-41.5 109t-115.5 48q-73 0 -114.5 -48t-41.5 -109z
" />
    <glyph glyph-name="six.dnom.alt" horiz-adv-x="358" 
d="M334 139q0 -63 -43 -105.5t-110 -42.5q-69 0 -112 43t-43 103q0 63 77 166l89 117h83l-100 -127l-24 -30q16 14 47 14q60 0 98 -39.5t38 -98.5zM265 136q0 34 -22.5 59t-61.5 25t-62 -24.5t-23 -59.5t23 -59.5t62 -24.5t61.5 24.5t22.5 59.5z" />
    <glyph glyph-name="nine.dnom.alt" horiz-adv-x="358" 
d="M26 281q0 62 43 105t110 43q69 0 112 -42.5t43 -103.5q0 -68 -77 -166l-89 -117h-83l100 127l24 30q-16 -14 -47 -14q-60 0 -98 39.5t-38 98.5zM95 284q0 -34 22.5 -59t61.5 -25t62 24.5t23 59.5t-23 59.5t-62 24.5t-61.5 -24.5t-22.5 -59.5z" />
    <glyph glyph-name="sixsuperior.alt" horiz-adv-x="358" 
d="M334 539q0 -63 -43 -105.5t-110 -42.5q-69 0 -112 43t-43 103q0 63 77 166l89 117h83l-100 -127l-24 -30q16 14 47 14q60 0 98 -39.5t38 -98.5zM265 536q0 34 -22.5 59t-61.5 25t-62 -24.5t-23 -59.5t23 -59.5t62 -24.5t61.5 24.5t22.5 59.5z" />
    <glyph glyph-name="ninesuperior.alt" horiz-adv-x="358" 
d="M26 683q0 62 43 105t110 43q69 0 112 -42.5t43 -103.5q0 -68 -77 -166l-89 -117h-83l100 127l24 30q-16 -14 -47 -14q-60 0 -98 39.5t-38 98.5zM95 686q0 -34 22.5 -59t61.5 -25t62 24.5t23 59.5t-23 59.5t-62 24.5t-61.5 -24.5t-22.5 -59.5z" />
    <glyph glyph-name="sixinferior.alt" horiz-adv-x="358" 
d="M334 19q0 -63 -43 -105.5t-110 -42.5q-69 0 -112 43t-43 103q0 63 77 166l89 117h83l-100 -127l-24 -30q16 14 47 14q60 0 98 -39.5t38 -98.5zM265 16q0 34 -22.5 59t-61.5 25t-62 -24.5t-23 -59.5t23 -59.5t62 -24.5t61.5 24.5t22.5 59.5z" />
    <glyph glyph-name="nineinferior.alt" horiz-adv-x="358" 
d="M26 165q0 62 43 105t110 43q69 0 112 -42.5t43 -103.5q0 -68 -77 -166l-89 -117h-83l100 127l24 30q-16 -14 -47 -14q-60 0 -98 39.5t-38 98.5zM95 168q0 -34 22.5 -59t61.5 -25t62 24.5t23 59.5t-23 59.5t-62 24.5t-61.5 -24.5t-22.5 -59.5z" />
    <glyph glyph-name="six.numr.alt" horiz-adv-x="358" 
d="M334 419q0 -63 -43 -105.5t-110 -42.5q-69 0 -112 43t-43 103q0 63 77 166l89 117h83l-100 -127l-24 -30q16 14 47 14q60 0 98 -39.5t38 -98.5zM265 416q0 34 -22.5 59t-61.5 25t-62 -24.5t-23 -59.5t23 -59.5t62 -24.5t61.5 24.5t22.5 59.5z" />
    <glyph glyph-name="nine.numr.alt" horiz-adv-x="358" 
d="M26 565q0 62 43 105t110 43q69 0 112 -42.5t43 -103.5q0 -68 -77 -166l-89 -117h-83l100 127l24 30q-16 -14 -47 -14q-60 0 -98 39.5t-38 98.5zM95 568q0 -34 22.5 -59t61.5 -25t62 24.5t23 59.5t-23 59.5t-62 24.5t-61.5 -24.5t-22.5 -59.5z" />
    <glyph glyph-name="ampersand.alt" horiz-adv-x="681" 
d="M270 -15q-94 0 -154.5 56t-60.5 142q0 129 150 206q-77 84 -77 158q0 72 51.5 120t128.5 48t127.5 -47t50.5 -118q0 -57 -35.5 -100t-118.5 -84l139 -160l96 124l84 -18l-129 -165l128 -147h-108l-73 85q-86 -100 -199 -100zM277 430l8 -9q63 30 90 59t27 66q0 41 -27 67
t-68 26q-39 0 -65 -25.5t-26 -64.5q0 -27 13.5 -53t47.5 -66zM143 190q0 -55 37 -91t93 -36q41 0 74 19.5t69 62.5l-161 186q-112 -52 -112 -141z" />
    <glyph glyph-name="ampersand.small.alt" horiz-adv-x="542" 
d="M203 -15q-76 0 -123.5 44t-47.5 113q0 101 115 159q-55 66 -55 120q0 59 42.5 98.5t105.5 39.5q64 0 108 -39t44 -94q0 -90 -119 -145l93 -107l71 93l75 -28l-97 -121l103 -118h-109l-50 57q-66 -72 -156 -72zM222 340l7 -8q47 24 64.5 43t17.5 47q0 27 -19.5 46
t-47.5 19t-46 -18.5t-18 -45.5q0 -32 42 -83zM121 148q0 -38 25.5 -62.5t66.5 -24.5q50 0 97 53l-113 130q-76 -36 -76 -96z" />
    <glyph glyph-name="NULL" horiz-adv-x="0" 
 />
    </font>
</defs>
</svg>
